M48
; DRILL file {KiCad (6.0.8)} date Tue Nov  8 14:14:13 2022
; FORMAT={-:-/ absolute / inch / decimal}
; #@! TF.CreationDate,2022-11-08T14:14:13+01:00
; #@! TF.GenerationSoftware,Kicad,Pcbnew,(6.0.8)
; #@! TF.FileFunction,Plated,1,2,PTH
FMAT,2
INCH
; #@! TA.AperFunction,Plated,PTH,ViaDrill
T1C0.0157
%
G90
G05
T1
X1.7638Y-2.0157
X1.7638Y-2.4291
X1.8819Y-2.0906
X1.8819Y-2.3346
X2.0197Y-2.6614
X2.0236Y-1.7638
X2.0906Y-1.878
X2.0906Y-2.0906
X2.0906Y-2.3346
X2.0906Y-2.5433
X2.3346Y-1.878
X2.3346Y-2.0906
X2.3346Y-2.3346
X2.3346Y-2.5433
X2.4134Y-1.7638
X2.4134Y-2.6614
X2.5433Y-2.0906
X2.5433Y-2.3346
X2.6614Y-2.0157
X2.6614Y-2.4291
T0
M30
