%TF.GenerationSoftware,KiCad,Pcbnew,(6.0.8)*%
%TF.CreationDate,2022-11-08T14:14:13+01:00*%
%TF.ProjectId,Kockica,4b6f636b-6963-4612-9e6b-696361645f70,rev?*%
%TF.SameCoordinates,Original*%
%TF.FileFunction,Copper,L2,Bot*%
%TF.FilePolarity,Positive*%
%FSLAX46Y46*%
G04 Gerber Fmt 4.6, Leading zero omitted, Abs format (unit mm)*
G04 Created by KiCad (PCBNEW (6.0.8)) date 2022-11-08 14:14:13*
%MOMM*%
%LPD*%
G01*
G04 APERTURE LIST*
%TA.AperFunction,SMDPad,CuDef*%
%ADD10R,3.000000X0.650000*%
%TD*%
%TA.AperFunction,SMDPad,CuDef*%
%ADD11R,0.650000X3.000000*%
%TD*%
%TA.AperFunction,ViaPad*%
%ADD12C,0.800000*%
%TD*%
G04 APERTURE END LIST*
D10*
%TO.P,J1,1,Pin_1*%
%TO.N,/TOUCHPAD*%
X54700000Y-45435000D03*
%TO.P,J1,2,Pin_2*%
X57700000Y-44165000D03*
%TD*%
D11*
%TO.P,J4,1,Pin_1*%
%TO.N,/TOUCHPAD*%
X66965000Y-54700000D03*
%TO.P,J4,2,Pin_2*%
X68235000Y-57700000D03*
%TD*%
D10*
%TO.P,J3,1,Pin_1*%
%TO.N,/TOUCHPAD*%
X57700000Y-66965000D03*
%TO.P,J3,2,Pin_2*%
X54700000Y-68235000D03*
%TD*%
D11*
%TO.P,J2,1,Pin_1*%
%TO.N,/TOUCHPAD*%
X45435000Y-57700000D03*
%TO.P,J2,2,Pin_2*%
X44165000Y-54700000D03*
%TD*%
D12*
%TO.N,/TOUCHPAD*%
X64600000Y-53100000D03*
X59300000Y-59300000D03*
X64600000Y-59300000D03*
X59300000Y-64600000D03*
X53100000Y-64600000D03*
X59300000Y-53100000D03*
X59300000Y-47700000D03*
X53100000Y-59300000D03*
X51400000Y-44800000D03*
X51300000Y-67600000D03*
X47800000Y-53100000D03*
X44800000Y-51200000D03*
X44800000Y-61700000D03*
X61300000Y-44800000D03*
X67600000Y-51200000D03*
X61300000Y-67600000D03*
X47800000Y-59300000D03*
X53100000Y-53100000D03*
X53100000Y-47700000D03*
X67600000Y-61700000D03*
%TD*%
%TA.AperFunction,Conductor*%
%TO.N,/TOUCHPAD*%
G36*
X62383530Y-43456210D02*
G01*
X62400000Y-43459486D01*
X62408596Y-43457776D01*
X62408598Y-43457776D01*
X62410850Y-43457328D01*
X62431541Y-43455680D01*
X62885826Y-43472679D01*
X62892463Y-43473177D01*
X63126171Y-43499509D01*
X63372255Y-43527236D01*
X63378822Y-43528226D01*
X63616034Y-43573109D01*
X63853238Y-43617990D01*
X63859727Y-43619471D01*
X64006852Y-43658893D01*
X64326109Y-43744438D01*
X64332439Y-43746389D01*
X64630792Y-43850788D01*
X64788204Y-43905869D01*
X64794399Y-43908301D01*
X65236933Y-44101376D01*
X65242930Y-44104264D01*
X65669807Y-44329876D01*
X65675560Y-44333197D01*
X66084417Y-44590098D01*
X66089881Y-44593824D01*
X66186544Y-44665165D01*
X66478364Y-44880538D01*
X66483568Y-44884687D01*
X66849546Y-45199636D01*
X66854425Y-45204163D01*
X67195837Y-45545575D01*
X67200364Y-45550454D01*
X67515313Y-45916432D01*
X67519460Y-45921633D01*
X67712814Y-46183618D01*
X67806170Y-46310111D01*
X67809902Y-46315583D01*
X68066803Y-46724440D01*
X68070124Y-46730193D01*
X68295736Y-47157070D01*
X68298624Y-47163067D01*
X68491699Y-47605601D01*
X68494131Y-47611796D01*
X68539693Y-47742004D01*
X68653611Y-48067561D01*
X68655562Y-48073891D01*
X68711428Y-48282385D01*
X68780529Y-48540273D01*
X68782010Y-48546762D01*
X68864085Y-48980537D01*
X68871773Y-49021171D01*
X68872765Y-49027752D01*
X68926823Y-49507537D01*
X68927321Y-49514174D01*
X68944320Y-49968459D01*
X68942672Y-49989150D01*
X68940514Y-50000000D01*
X68942224Y-50008597D01*
X68943790Y-50016470D01*
X68945500Y-50033833D01*
X68945500Y-62366167D01*
X68943790Y-62383530D01*
X68940514Y-62400000D01*
X68942224Y-62408596D01*
X68942224Y-62408598D01*
X68942672Y-62410850D01*
X68944320Y-62431541D01*
X68927321Y-62885826D01*
X68926823Y-62892463D01*
X68912385Y-63020606D01*
X68877255Y-63332402D01*
X68872765Y-63372248D01*
X68871773Y-63378829D01*
X68782010Y-63853238D01*
X68780529Y-63859727D01*
X68655562Y-64326109D01*
X68653611Y-64332439D01*
X68593661Y-64503765D01*
X68494131Y-64788204D01*
X68491699Y-64794399D01*
X68298624Y-65236933D01*
X68295736Y-65242930D01*
X68070124Y-65669807D01*
X68066803Y-65675560D01*
X67809902Y-66084417D01*
X67806176Y-66089881D01*
X67519462Y-66478364D01*
X67515313Y-66483568D01*
X67200364Y-66849546D01*
X67195837Y-66854425D01*
X66854425Y-67195837D01*
X66849546Y-67200364D01*
X66483568Y-67515313D01*
X66478367Y-67519460D01*
X66089881Y-67806176D01*
X66084417Y-67809902D01*
X65675560Y-68066803D01*
X65669807Y-68070124D01*
X65242930Y-68295736D01*
X65236933Y-68298624D01*
X64794399Y-68491699D01*
X64788204Y-68494131D01*
X64630792Y-68549212D01*
X64332439Y-68653611D01*
X64326109Y-68655562D01*
X64006852Y-68741107D01*
X63859727Y-68780529D01*
X63853238Y-68782010D01*
X63646695Y-68821090D01*
X63378822Y-68871774D01*
X63372255Y-68872764D01*
X63126171Y-68900491D01*
X62892463Y-68926823D01*
X62885826Y-68927321D01*
X62431541Y-68944320D01*
X62410850Y-68942672D01*
X62408598Y-68942224D01*
X62408596Y-68942224D01*
X62400000Y-68940514D01*
X62391403Y-68942224D01*
X62383530Y-68943790D01*
X62366167Y-68945500D01*
X50033833Y-68945500D01*
X50016470Y-68943790D01*
X50008597Y-68942224D01*
X50000000Y-68940514D01*
X49991404Y-68942224D01*
X49991402Y-68942224D01*
X49989150Y-68942672D01*
X49968459Y-68944320D01*
X49514174Y-68927321D01*
X49507537Y-68926823D01*
X49273829Y-68900491D01*
X49027745Y-68872764D01*
X49021178Y-68871774D01*
X48753305Y-68821090D01*
X48546762Y-68782010D01*
X48540273Y-68780529D01*
X48393148Y-68741107D01*
X48073891Y-68655562D01*
X48067561Y-68653611D01*
X47769208Y-68549212D01*
X47611796Y-68494131D01*
X47605601Y-68491699D01*
X47163067Y-68298624D01*
X47157070Y-68295736D01*
X46730193Y-68070124D01*
X46724440Y-68066803D01*
X46315583Y-67809902D01*
X46310119Y-67806176D01*
X45921633Y-67519460D01*
X45916432Y-67515313D01*
X45550454Y-67200364D01*
X45545575Y-67195837D01*
X45204163Y-66854425D01*
X45199636Y-66849546D01*
X44884687Y-66483568D01*
X44880538Y-66478364D01*
X44593824Y-66089881D01*
X44590098Y-66084417D01*
X44333197Y-65675560D01*
X44329876Y-65669807D01*
X44104264Y-65242930D01*
X44101376Y-65236933D01*
X43908301Y-64794399D01*
X43905869Y-64788204D01*
X43806339Y-64503765D01*
X43746389Y-64332439D01*
X43744438Y-64326109D01*
X43619471Y-63859727D01*
X43617990Y-63853238D01*
X43528227Y-63378829D01*
X43527235Y-63372248D01*
X43522746Y-63332402D01*
X43487615Y-63020606D01*
X43473177Y-62892463D01*
X43472679Y-62885826D01*
X43455680Y-62431541D01*
X43457328Y-62410850D01*
X43457776Y-62408598D01*
X43457776Y-62408596D01*
X43459486Y-62400000D01*
X43456210Y-62383530D01*
X43454500Y-62366167D01*
X43454500Y-62305466D01*
X46991893Y-62305466D01*
X46991960Y-62308020D01*
X46994368Y-62400000D01*
X46994921Y-62421098D01*
X47000963Y-62651836D01*
X47001323Y-62654365D01*
X47001323Y-62654366D01*
X47035210Y-62892463D01*
X47049784Y-62994868D01*
X47137708Y-63330015D01*
X47263570Y-63652835D01*
X47264763Y-63655089D01*
X47264768Y-63655099D01*
X47369678Y-63853238D01*
X47425703Y-63959050D01*
X47427153Y-63961160D01*
X47427158Y-63961168D01*
X47582377Y-64187012D01*
X47621956Y-64244600D01*
X47849729Y-64505701D01*
X48106002Y-64738892D01*
X48387380Y-64941083D01*
X48389612Y-64942325D01*
X48389621Y-64942331D01*
X48567087Y-65041106D01*
X48690132Y-65109592D01*
X49010246Y-65242188D01*
X49343478Y-65337111D01*
X49471154Y-65358019D01*
X49682887Y-65392692D01*
X49682895Y-65392693D01*
X49685412Y-65393105D01*
X49687960Y-65393225D01*
X49687968Y-65393226D01*
X49902317Y-65403334D01*
X50031516Y-65409427D01*
X50034068Y-65409253D01*
X50034071Y-65409253D01*
X50374656Y-65386034D01*
X50374663Y-65386033D01*
X50377202Y-65385860D01*
X50717888Y-65322718D01*
X50720326Y-65321968D01*
X51046619Y-65221587D01*
X51046620Y-65221587D01*
X51049060Y-65220836D01*
X51366326Y-65081566D01*
X51518637Y-64992563D01*
X51663264Y-64908050D01*
X51663268Y-64908047D01*
X51665483Y-64906753D01*
X51942564Y-64698714D01*
X52193898Y-64460207D01*
X52416153Y-64194394D01*
X52570745Y-63959050D01*
X52604976Y-63906939D01*
X52604981Y-63906930D01*
X52606383Y-63904796D01*
X52762067Y-63595253D01*
X52860038Y-63327534D01*
X52880260Y-63272276D01*
X52880261Y-63272273D01*
X52881141Y-63269868D01*
X52962027Y-62932953D01*
X53003653Y-62588974D01*
X53009592Y-62400000D01*
X53004141Y-62305466D01*
X53191893Y-62305466D01*
X53191960Y-62308020D01*
X53194368Y-62400000D01*
X53194921Y-62421098D01*
X53200963Y-62651836D01*
X53201323Y-62654365D01*
X53201323Y-62654366D01*
X53235210Y-62892463D01*
X53249784Y-62994868D01*
X53337708Y-63330015D01*
X53463570Y-63652835D01*
X53464763Y-63655089D01*
X53464768Y-63655099D01*
X53569678Y-63853238D01*
X53625703Y-63959050D01*
X53627153Y-63961160D01*
X53627158Y-63961168D01*
X53782377Y-64187012D01*
X53821956Y-64244600D01*
X54049729Y-64505701D01*
X54306002Y-64738892D01*
X54587380Y-64941083D01*
X54589612Y-64942325D01*
X54589621Y-64942331D01*
X54767087Y-65041106D01*
X54890132Y-65109592D01*
X55210246Y-65242188D01*
X55543478Y-65337111D01*
X55671154Y-65358019D01*
X55882887Y-65392692D01*
X55882895Y-65392693D01*
X55885412Y-65393105D01*
X55887960Y-65393225D01*
X55887968Y-65393226D01*
X56102317Y-65403334D01*
X56231516Y-65409427D01*
X56234068Y-65409253D01*
X56234071Y-65409253D01*
X56574656Y-65386034D01*
X56574663Y-65386033D01*
X56577202Y-65385860D01*
X56917888Y-65322718D01*
X56920326Y-65321968D01*
X57246619Y-65221587D01*
X57246620Y-65221587D01*
X57249060Y-65220836D01*
X57566326Y-65081566D01*
X57718637Y-64992563D01*
X57863264Y-64908050D01*
X57863268Y-64908047D01*
X57865483Y-64906753D01*
X58142564Y-64698714D01*
X58393898Y-64460207D01*
X58616153Y-64194394D01*
X58770745Y-63959050D01*
X58804976Y-63906939D01*
X58804981Y-63906930D01*
X58806383Y-63904796D01*
X58962067Y-63595253D01*
X59060038Y-63327534D01*
X59080260Y-63272276D01*
X59080261Y-63272273D01*
X59081141Y-63269868D01*
X59162027Y-62932953D01*
X59203653Y-62588974D01*
X59209592Y-62400000D01*
X59204141Y-62305466D01*
X59391893Y-62305466D01*
X59391960Y-62308020D01*
X59394368Y-62400000D01*
X59394921Y-62421098D01*
X59400963Y-62651836D01*
X59401323Y-62654365D01*
X59401323Y-62654366D01*
X59435210Y-62892463D01*
X59449784Y-62994868D01*
X59537708Y-63330015D01*
X59663570Y-63652835D01*
X59664763Y-63655089D01*
X59664768Y-63655099D01*
X59769678Y-63853238D01*
X59825703Y-63959050D01*
X59827153Y-63961160D01*
X59827158Y-63961168D01*
X59982377Y-64187012D01*
X60021956Y-64244600D01*
X60249729Y-64505701D01*
X60506002Y-64738892D01*
X60787380Y-64941083D01*
X60789612Y-64942325D01*
X60789621Y-64942331D01*
X60967087Y-65041106D01*
X61090132Y-65109592D01*
X61410246Y-65242188D01*
X61743478Y-65337111D01*
X61871154Y-65358019D01*
X62082887Y-65392692D01*
X62082895Y-65392693D01*
X62085412Y-65393105D01*
X62087960Y-65393225D01*
X62087968Y-65393226D01*
X62302317Y-65403334D01*
X62431516Y-65409427D01*
X62434068Y-65409253D01*
X62434071Y-65409253D01*
X62774656Y-65386034D01*
X62774663Y-65386033D01*
X62777202Y-65385860D01*
X63117888Y-65322718D01*
X63120326Y-65321968D01*
X63446619Y-65221587D01*
X63446620Y-65221587D01*
X63449060Y-65220836D01*
X63766326Y-65081566D01*
X63918637Y-64992563D01*
X64063264Y-64908050D01*
X64063268Y-64908047D01*
X64065483Y-64906753D01*
X64342564Y-64698714D01*
X64593898Y-64460207D01*
X64816153Y-64194394D01*
X64970745Y-63959050D01*
X65004976Y-63906939D01*
X65004981Y-63906930D01*
X65006383Y-63904796D01*
X65162067Y-63595253D01*
X65260038Y-63327534D01*
X65280260Y-63272276D01*
X65280261Y-63272273D01*
X65281141Y-63269868D01*
X65362027Y-62932953D01*
X65403653Y-62588974D01*
X65409592Y-62400000D01*
X65404141Y-62305466D01*
X65389795Y-62056651D01*
X65389795Y-62056649D01*
X65389647Y-62054086D01*
X65330075Y-61712757D01*
X65231667Y-61380537D01*
X65095727Y-61061830D01*
X65022348Y-60933182D01*
X64925327Y-60763087D01*
X64925326Y-60763085D01*
X64924056Y-60760859D01*
X64718930Y-60481614D01*
X64483069Y-60227796D01*
X64219597Y-60002770D01*
X64217472Y-60001342D01*
X64217468Y-60001339D01*
X64075802Y-59906144D01*
X63932007Y-59809518D01*
X63929735Y-59808345D01*
X63929731Y-59808343D01*
X63626390Y-59651777D01*
X63626386Y-59651775D01*
X63624111Y-59650601D01*
X63621716Y-59649696D01*
X63621707Y-59649692D01*
X63442131Y-59581836D01*
X63299991Y-59528126D01*
X63297509Y-59527503D01*
X63297504Y-59527501D01*
X63131966Y-59485921D01*
X62963941Y-59443716D01*
X62961405Y-59443382D01*
X62961399Y-59443381D01*
X62622948Y-59398823D01*
X62622944Y-59398823D01*
X62620417Y-59398490D01*
X62489744Y-59396437D01*
X62276535Y-59393088D01*
X62276530Y-59393088D01*
X62273971Y-59393048D01*
X61929196Y-59427461D01*
X61926703Y-59428005D01*
X61926694Y-59428006D01*
X61593165Y-59500728D01*
X61590661Y-59501274D01*
X61262853Y-59613507D01*
X60950118Y-59762674D01*
X60947950Y-59764034D01*
X60658764Y-59945440D01*
X60658758Y-59945444D01*
X60656600Y-59946798D01*
X60609508Y-59984526D01*
X60388184Y-60161839D01*
X60388179Y-60161844D01*
X60386190Y-60163437D01*
X60142472Y-60409721D01*
X60140892Y-60411736D01*
X60087576Y-60479733D01*
X59928676Y-60682385D01*
X59747636Y-60977815D01*
X59746560Y-60980134D01*
X59746559Y-60980135D01*
X59645530Y-61197784D01*
X59601752Y-61292095D01*
X59492957Y-61621060D01*
X59422694Y-61960350D01*
X59391893Y-62305466D01*
X59204141Y-62305466D01*
X59189795Y-62056651D01*
X59189795Y-62056649D01*
X59189647Y-62054086D01*
X59130075Y-61712757D01*
X59031667Y-61380537D01*
X58895727Y-61061830D01*
X58822348Y-60933182D01*
X58725327Y-60763087D01*
X58725326Y-60763085D01*
X58724056Y-60760859D01*
X58518930Y-60481614D01*
X58283069Y-60227796D01*
X58019597Y-60002770D01*
X58017472Y-60001342D01*
X58017468Y-60001339D01*
X57875802Y-59906144D01*
X57732007Y-59809518D01*
X57729735Y-59808345D01*
X57729731Y-59808343D01*
X57426390Y-59651777D01*
X57426386Y-59651775D01*
X57424111Y-59650601D01*
X57421716Y-59649696D01*
X57421707Y-59649692D01*
X57242131Y-59581836D01*
X57099991Y-59528126D01*
X57097509Y-59527503D01*
X57097504Y-59527501D01*
X56931966Y-59485921D01*
X56763941Y-59443716D01*
X56761405Y-59443382D01*
X56761399Y-59443381D01*
X56422948Y-59398823D01*
X56422944Y-59398823D01*
X56420417Y-59398490D01*
X56289744Y-59396437D01*
X56076535Y-59393088D01*
X56076530Y-59393088D01*
X56073971Y-59393048D01*
X55729196Y-59427461D01*
X55726703Y-59428005D01*
X55726694Y-59428006D01*
X55393165Y-59500728D01*
X55390661Y-59501274D01*
X55062853Y-59613507D01*
X54750118Y-59762674D01*
X54747950Y-59764034D01*
X54458764Y-59945440D01*
X54458758Y-59945444D01*
X54456600Y-59946798D01*
X54409508Y-59984526D01*
X54188184Y-60161839D01*
X54188179Y-60161844D01*
X54186190Y-60163437D01*
X53942472Y-60409721D01*
X53940892Y-60411736D01*
X53887576Y-60479733D01*
X53728676Y-60682385D01*
X53547636Y-60977815D01*
X53546560Y-60980134D01*
X53546559Y-60980135D01*
X53445530Y-61197784D01*
X53401752Y-61292095D01*
X53292957Y-61621060D01*
X53222694Y-61960350D01*
X53191893Y-62305466D01*
X53004141Y-62305466D01*
X52989795Y-62056651D01*
X52989795Y-62056649D01*
X52989647Y-62054086D01*
X52930075Y-61712757D01*
X52831667Y-61380537D01*
X52695727Y-61061830D01*
X52622348Y-60933182D01*
X52525327Y-60763087D01*
X52525326Y-60763085D01*
X52524056Y-60760859D01*
X52318930Y-60481614D01*
X52083069Y-60227796D01*
X51819597Y-60002770D01*
X51817472Y-60001342D01*
X51817468Y-60001339D01*
X51675802Y-59906144D01*
X51532007Y-59809518D01*
X51529735Y-59808345D01*
X51529731Y-59808343D01*
X51226390Y-59651777D01*
X51226386Y-59651775D01*
X51224111Y-59650601D01*
X51221716Y-59649696D01*
X51221707Y-59649692D01*
X51042131Y-59581836D01*
X50899991Y-59528126D01*
X50897509Y-59527503D01*
X50897504Y-59527501D01*
X50731966Y-59485921D01*
X50563941Y-59443716D01*
X50561405Y-59443382D01*
X50561399Y-59443381D01*
X50222948Y-59398823D01*
X50222944Y-59398823D01*
X50220417Y-59398490D01*
X50089744Y-59396437D01*
X49876535Y-59393088D01*
X49876530Y-59393088D01*
X49873971Y-59393048D01*
X49529196Y-59427461D01*
X49526703Y-59428005D01*
X49526694Y-59428006D01*
X49193165Y-59500728D01*
X49190661Y-59501274D01*
X48862853Y-59613507D01*
X48550118Y-59762674D01*
X48547950Y-59764034D01*
X48258764Y-59945440D01*
X48258758Y-59945444D01*
X48256600Y-59946798D01*
X48209508Y-59984526D01*
X47988184Y-60161839D01*
X47988179Y-60161844D01*
X47986190Y-60163437D01*
X47742472Y-60409721D01*
X47740892Y-60411736D01*
X47687576Y-60479733D01*
X47528676Y-60682385D01*
X47347636Y-60977815D01*
X47346560Y-60980134D01*
X47346559Y-60980135D01*
X47245530Y-61197784D01*
X47201752Y-61292095D01*
X47092957Y-61621060D01*
X47022694Y-61960350D01*
X46991893Y-62305466D01*
X43454500Y-62305466D01*
X43454500Y-56105466D01*
X46991893Y-56105466D01*
X46994368Y-56200000D01*
X47000963Y-56451836D01*
X47049784Y-56794868D01*
X47137708Y-57130015D01*
X47263570Y-57452835D01*
X47264763Y-57455089D01*
X47264768Y-57455099D01*
X47370067Y-57653972D01*
X47425703Y-57759050D01*
X47427153Y-57761160D01*
X47427158Y-57761168D01*
X47582377Y-57987012D01*
X47621956Y-58044600D01*
X47849729Y-58305701D01*
X48106002Y-58538892D01*
X48387380Y-58741083D01*
X48389612Y-58742325D01*
X48389621Y-58742331D01*
X48567087Y-58841106D01*
X48690132Y-58909592D01*
X49010246Y-59042188D01*
X49343478Y-59137111D01*
X49471154Y-59158019D01*
X49682887Y-59192692D01*
X49682895Y-59192693D01*
X49685412Y-59193105D01*
X49687960Y-59193225D01*
X49687968Y-59193226D01*
X49902317Y-59203334D01*
X50031516Y-59209427D01*
X50034068Y-59209253D01*
X50034071Y-59209253D01*
X50374656Y-59186034D01*
X50374663Y-59186033D01*
X50377202Y-59185860D01*
X50717888Y-59122718D01*
X50720326Y-59121968D01*
X51046619Y-59021587D01*
X51046620Y-59021587D01*
X51049060Y-59020836D01*
X51366326Y-58881566D01*
X51518637Y-58792563D01*
X51663264Y-58708050D01*
X51663268Y-58708047D01*
X51665483Y-58706753D01*
X51942564Y-58498714D01*
X52193898Y-58260207D01*
X52416153Y-57994394D01*
X52570745Y-57759050D01*
X52604976Y-57706939D01*
X52604981Y-57706930D01*
X52606383Y-57704796D01*
X52762067Y-57395253D01*
X52860038Y-57127534D01*
X52880260Y-57072276D01*
X52880261Y-57072273D01*
X52881141Y-57069868D01*
X52962027Y-56732953D01*
X53003653Y-56388974D01*
X53009592Y-56200000D01*
X53004141Y-56105466D01*
X53191893Y-56105466D01*
X53194368Y-56200000D01*
X53200963Y-56451836D01*
X53249784Y-56794868D01*
X53337708Y-57130015D01*
X53463570Y-57452835D01*
X53464763Y-57455089D01*
X53464768Y-57455099D01*
X53570067Y-57653972D01*
X53625703Y-57759050D01*
X53627153Y-57761160D01*
X53627158Y-57761168D01*
X53782377Y-57987012D01*
X53821956Y-58044600D01*
X54049729Y-58305701D01*
X54306002Y-58538892D01*
X54587380Y-58741083D01*
X54589612Y-58742325D01*
X54589621Y-58742331D01*
X54767087Y-58841106D01*
X54890132Y-58909592D01*
X55210246Y-59042188D01*
X55543478Y-59137111D01*
X55671154Y-59158019D01*
X55882887Y-59192692D01*
X55882895Y-59192693D01*
X55885412Y-59193105D01*
X55887960Y-59193225D01*
X55887968Y-59193226D01*
X56102317Y-59203334D01*
X56231516Y-59209427D01*
X56234068Y-59209253D01*
X56234071Y-59209253D01*
X56574656Y-59186034D01*
X56574663Y-59186033D01*
X56577202Y-59185860D01*
X56917888Y-59122718D01*
X56920326Y-59121968D01*
X57246619Y-59021587D01*
X57246620Y-59021587D01*
X57249060Y-59020836D01*
X57566326Y-58881566D01*
X57718637Y-58792563D01*
X57863264Y-58708050D01*
X57863268Y-58708047D01*
X57865483Y-58706753D01*
X58142564Y-58498714D01*
X58393898Y-58260207D01*
X58616153Y-57994394D01*
X58770745Y-57759050D01*
X58804976Y-57706939D01*
X58804981Y-57706930D01*
X58806383Y-57704796D01*
X58962067Y-57395253D01*
X59060038Y-57127534D01*
X59080260Y-57072276D01*
X59080261Y-57072273D01*
X59081141Y-57069868D01*
X59162027Y-56732953D01*
X59203653Y-56388974D01*
X59209592Y-56200000D01*
X59204141Y-56105466D01*
X59391893Y-56105466D01*
X59394368Y-56200000D01*
X59400963Y-56451836D01*
X59449784Y-56794868D01*
X59537708Y-57130015D01*
X59663570Y-57452835D01*
X59664763Y-57455089D01*
X59664768Y-57455099D01*
X59770067Y-57653972D01*
X59825703Y-57759050D01*
X59827153Y-57761160D01*
X59827158Y-57761168D01*
X59982377Y-57987012D01*
X60021956Y-58044600D01*
X60249729Y-58305701D01*
X60506002Y-58538892D01*
X60787380Y-58741083D01*
X60789612Y-58742325D01*
X60789621Y-58742331D01*
X60967087Y-58841106D01*
X61090132Y-58909592D01*
X61410246Y-59042188D01*
X61743478Y-59137111D01*
X61871154Y-59158019D01*
X62082887Y-59192692D01*
X62082895Y-59192693D01*
X62085412Y-59193105D01*
X62087960Y-59193225D01*
X62087968Y-59193226D01*
X62302317Y-59203334D01*
X62431516Y-59209427D01*
X62434068Y-59209253D01*
X62434071Y-59209253D01*
X62774656Y-59186034D01*
X62774663Y-59186033D01*
X62777202Y-59185860D01*
X63117888Y-59122718D01*
X63120326Y-59121968D01*
X63446619Y-59021587D01*
X63446620Y-59021587D01*
X63449060Y-59020836D01*
X63766326Y-58881566D01*
X63918637Y-58792563D01*
X64063264Y-58708050D01*
X64063268Y-58708047D01*
X64065483Y-58706753D01*
X64342564Y-58498714D01*
X64593898Y-58260207D01*
X64816153Y-57994394D01*
X64970745Y-57759050D01*
X65004976Y-57706939D01*
X65004981Y-57706930D01*
X65006383Y-57704796D01*
X65162067Y-57395253D01*
X65260038Y-57127534D01*
X65280260Y-57072276D01*
X65280261Y-57072273D01*
X65281141Y-57069868D01*
X65362027Y-56732953D01*
X65403653Y-56388974D01*
X65409592Y-56200000D01*
X65404141Y-56105466D01*
X65389795Y-55856651D01*
X65389795Y-55856649D01*
X65389647Y-55854086D01*
X65330075Y-55512757D01*
X65231667Y-55180537D01*
X65095727Y-54861830D01*
X65022348Y-54733182D01*
X64925327Y-54563087D01*
X64925326Y-54563085D01*
X64924056Y-54560859D01*
X64718930Y-54281614D01*
X64483069Y-54027796D01*
X64219597Y-53802770D01*
X64217472Y-53801342D01*
X64217468Y-53801339D01*
X64075802Y-53706144D01*
X63932007Y-53609518D01*
X63929735Y-53608345D01*
X63929731Y-53608343D01*
X63626390Y-53451777D01*
X63626386Y-53451775D01*
X63624111Y-53450601D01*
X63621716Y-53449696D01*
X63621707Y-53449692D01*
X63442131Y-53381836D01*
X63299991Y-53328126D01*
X63297509Y-53327503D01*
X63297504Y-53327501D01*
X63131966Y-53285921D01*
X62963941Y-53243716D01*
X62961405Y-53243382D01*
X62961399Y-53243381D01*
X62622948Y-53198823D01*
X62622944Y-53198823D01*
X62620417Y-53198490D01*
X62489744Y-53196437D01*
X62276535Y-53193088D01*
X62276530Y-53193088D01*
X62273971Y-53193048D01*
X61929196Y-53227461D01*
X61926703Y-53228005D01*
X61926694Y-53228006D01*
X61593165Y-53300728D01*
X61590661Y-53301274D01*
X61262853Y-53413507D01*
X60950118Y-53562674D01*
X60947950Y-53564034D01*
X60658764Y-53745440D01*
X60658758Y-53745444D01*
X60656600Y-53746798D01*
X60609508Y-53784526D01*
X60388184Y-53961839D01*
X60388179Y-53961844D01*
X60386190Y-53963437D01*
X60142472Y-54209721D01*
X60140892Y-54211736D01*
X60087576Y-54279733D01*
X59928676Y-54482385D01*
X59747636Y-54777815D01*
X59746560Y-54780134D01*
X59746559Y-54780135D01*
X59645530Y-54997784D01*
X59601752Y-55092095D01*
X59492957Y-55421060D01*
X59422694Y-55760350D01*
X59391893Y-56105466D01*
X59204141Y-56105466D01*
X59189795Y-55856651D01*
X59189795Y-55856649D01*
X59189647Y-55854086D01*
X59130075Y-55512757D01*
X59031667Y-55180537D01*
X58895727Y-54861830D01*
X58822348Y-54733182D01*
X58725327Y-54563087D01*
X58725326Y-54563085D01*
X58724056Y-54560859D01*
X58518930Y-54281614D01*
X58283069Y-54027796D01*
X58019597Y-53802770D01*
X58017472Y-53801342D01*
X58017468Y-53801339D01*
X57875802Y-53706144D01*
X57732007Y-53609518D01*
X57729735Y-53608345D01*
X57729731Y-53608343D01*
X57426390Y-53451777D01*
X57426386Y-53451775D01*
X57424111Y-53450601D01*
X57421716Y-53449696D01*
X57421707Y-53449692D01*
X57242131Y-53381836D01*
X57099991Y-53328126D01*
X57097509Y-53327503D01*
X57097504Y-53327501D01*
X56931966Y-53285921D01*
X56763941Y-53243716D01*
X56761405Y-53243382D01*
X56761399Y-53243381D01*
X56422948Y-53198823D01*
X56422944Y-53198823D01*
X56420417Y-53198490D01*
X56289744Y-53196437D01*
X56076535Y-53193088D01*
X56076530Y-53193088D01*
X56073971Y-53193048D01*
X55729196Y-53227461D01*
X55726703Y-53228005D01*
X55726694Y-53228006D01*
X55393165Y-53300728D01*
X55390661Y-53301274D01*
X55062853Y-53413507D01*
X54750118Y-53562674D01*
X54747950Y-53564034D01*
X54458764Y-53745440D01*
X54458758Y-53745444D01*
X54456600Y-53746798D01*
X54409508Y-53784526D01*
X54188184Y-53961839D01*
X54188179Y-53961844D01*
X54186190Y-53963437D01*
X53942472Y-54209721D01*
X53940892Y-54211736D01*
X53887576Y-54279733D01*
X53728676Y-54482385D01*
X53547636Y-54777815D01*
X53546560Y-54780134D01*
X53546559Y-54780135D01*
X53445530Y-54997784D01*
X53401752Y-55092095D01*
X53292957Y-55421060D01*
X53222694Y-55760350D01*
X53191893Y-56105466D01*
X53004141Y-56105466D01*
X52989795Y-55856651D01*
X52989795Y-55856649D01*
X52989647Y-55854086D01*
X52930075Y-55512757D01*
X52831667Y-55180537D01*
X52695727Y-54861830D01*
X52622348Y-54733182D01*
X52525327Y-54563087D01*
X52525326Y-54563085D01*
X52524056Y-54560859D01*
X52318930Y-54281614D01*
X52083069Y-54027796D01*
X51819597Y-53802770D01*
X51817472Y-53801342D01*
X51817468Y-53801339D01*
X51675802Y-53706144D01*
X51532007Y-53609518D01*
X51529735Y-53608345D01*
X51529731Y-53608343D01*
X51226390Y-53451777D01*
X51226386Y-53451775D01*
X51224111Y-53450601D01*
X51221716Y-53449696D01*
X51221707Y-53449692D01*
X51042131Y-53381836D01*
X50899991Y-53328126D01*
X50897509Y-53327503D01*
X50897504Y-53327501D01*
X50731966Y-53285921D01*
X50563941Y-53243716D01*
X50561405Y-53243382D01*
X50561399Y-53243381D01*
X50222948Y-53198823D01*
X50222944Y-53198823D01*
X50220417Y-53198490D01*
X50089744Y-53196437D01*
X49876535Y-53193088D01*
X49876530Y-53193088D01*
X49873971Y-53193048D01*
X49529196Y-53227461D01*
X49526703Y-53228005D01*
X49526694Y-53228006D01*
X49193165Y-53300728D01*
X49190661Y-53301274D01*
X48862853Y-53413507D01*
X48550118Y-53562674D01*
X48547950Y-53564034D01*
X48258764Y-53745440D01*
X48258758Y-53745444D01*
X48256600Y-53746798D01*
X48209508Y-53784526D01*
X47988184Y-53961839D01*
X47988179Y-53961844D01*
X47986190Y-53963437D01*
X47742472Y-54209721D01*
X47740892Y-54211736D01*
X47687576Y-54279733D01*
X47528676Y-54482385D01*
X47347636Y-54777815D01*
X47346560Y-54780134D01*
X47346559Y-54780135D01*
X47245530Y-54997784D01*
X47201752Y-55092095D01*
X47092957Y-55421060D01*
X47022694Y-55760350D01*
X46991893Y-56105466D01*
X43454500Y-56105466D01*
X43454500Y-50033833D01*
X43456210Y-50016470D01*
X43457776Y-50008597D01*
X43459486Y-50000000D01*
X43457328Y-49989150D01*
X43455680Y-49968459D01*
X43458037Y-49905466D01*
X46991893Y-49905466D01*
X46994368Y-50000000D01*
X47000963Y-50251836D01*
X47049784Y-50594868D01*
X47137708Y-50930015D01*
X47263570Y-51252835D01*
X47264763Y-51255089D01*
X47264768Y-51255099D01*
X47370067Y-51453972D01*
X47425703Y-51559050D01*
X47427153Y-51561160D01*
X47427158Y-51561168D01*
X47582377Y-51787012D01*
X47621956Y-51844600D01*
X47849729Y-52105701D01*
X48106002Y-52338892D01*
X48387380Y-52541083D01*
X48389612Y-52542325D01*
X48389621Y-52542331D01*
X48567087Y-52641106D01*
X48690132Y-52709592D01*
X49010246Y-52842188D01*
X49343478Y-52937111D01*
X49471154Y-52958019D01*
X49682887Y-52992692D01*
X49682895Y-52992693D01*
X49685412Y-52993105D01*
X49687960Y-52993225D01*
X49687968Y-52993226D01*
X49902317Y-53003334D01*
X50031516Y-53009427D01*
X50034068Y-53009253D01*
X50034071Y-53009253D01*
X50374656Y-52986034D01*
X50374663Y-52986033D01*
X50377202Y-52985860D01*
X50717888Y-52922718D01*
X50720326Y-52921968D01*
X51046619Y-52821587D01*
X51046620Y-52821587D01*
X51049060Y-52820836D01*
X51366326Y-52681566D01*
X51518637Y-52592563D01*
X51663264Y-52508050D01*
X51663268Y-52508047D01*
X51665483Y-52506753D01*
X51942564Y-52298714D01*
X52193898Y-52060207D01*
X52416153Y-51794394D01*
X52570745Y-51559050D01*
X52604976Y-51506939D01*
X52604981Y-51506930D01*
X52606383Y-51504796D01*
X52762067Y-51195253D01*
X52860038Y-50927534D01*
X52880260Y-50872276D01*
X52880261Y-50872273D01*
X52881141Y-50869868D01*
X52962027Y-50532953D01*
X53003653Y-50188974D01*
X53009592Y-50000000D01*
X53004141Y-49905466D01*
X53191893Y-49905466D01*
X53194368Y-50000000D01*
X53200963Y-50251836D01*
X53249784Y-50594868D01*
X53337708Y-50930015D01*
X53463570Y-51252835D01*
X53464763Y-51255089D01*
X53464768Y-51255099D01*
X53570067Y-51453972D01*
X53625703Y-51559050D01*
X53627153Y-51561160D01*
X53627158Y-51561168D01*
X53782377Y-51787012D01*
X53821956Y-51844600D01*
X54049729Y-52105701D01*
X54306002Y-52338892D01*
X54587380Y-52541083D01*
X54589612Y-52542325D01*
X54589621Y-52542331D01*
X54767087Y-52641106D01*
X54890132Y-52709592D01*
X55210246Y-52842188D01*
X55543478Y-52937111D01*
X55671154Y-52958019D01*
X55882887Y-52992692D01*
X55882895Y-52992693D01*
X55885412Y-52993105D01*
X55887960Y-52993225D01*
X55887968Y-52993226D01*
X56102317Y-53003334D01*
X56231516Y-53009427D01*
X56234068Y-53009253D01*
X56234071Y-53009253D01*
X56574656Y-52986034D01*
X56574663Y-52986033D01*
X56577202Y-52985860D01*
X56917888Y-52922718D01*
X56920326Y-52921968D01*
X57246619Y-52821587D01*
X57246620Y-52821587D01*
X57249060Y-52820836D01*
X57566326Y-52681566D01*
X57718637Y-52592563D01*
X57863264Y-52508050D01*
X57863268Y-52508047D01*
X57865483Y-52506753D01*
X58142564Y-52298714D01*
X58393898Y-52060207D01*
X58616153Y-51794394D01*
X58770745Y-51559050D01*
X58804976Y-51506939D01*
X58804981Y-51506930D01*
X58806383Y-51504796D01*
X58962067Y-51195253D01*
X59060038Y-50927534D01*
X59080260Y-50872276D01*
X59080261Y-50872273D01*
X59081141Y-50869868D01*
X59162027Y-50532953D01*
X59203653Y-50188974D01*
X59209592Y-50000000D01*
X59204141Y-49905466D01*
X59391893Y-49905466D01*
X59394368Y-50000000D01*
X59400963Y-50251836D01*
X59449784Y-50594868D01*
X59537708Y-50930015D01*
X59663570Y-51252835D01*
X59664763Y-51255089D01*
X59664768Y-51255099D01*
X59770067Y-51453972D01*
X59825703Y-51559050D01*
X59827153Y-51561160D01*
X59827158Y-51561168D01*
X59982377Y-51787012D01*
X60021956Y-51844600D01*
X60249729Y-52105701D01*
X60506002Y-52338892D01*
X60787380Y-52541083D01*
X60789612Y-52542325D01*
X60789621Y-52542331D01*
X60967087Y-52641106D01*
X61090132Y-52709592D01*
X61410246Y-52842188D01*
X61743478Y-52937111D01*
X61871154Y-52958019D01*
X62082887Y-52992692D01*
X62082895Y-52992693D01*
X62085412Y-52993105D01*
X62087960Y-52993225D01*
X62087968Y-52993226D01*
X62302317Y-53003334D01*
X62431516Y-53009427D01*
X62434068Y-53009253D01*
X62434071Y-53009253D01*
X62774656Y-52986034D01*
X62774663Y-52986033D01*
X62777202Y-52985860D01*
X63117888Y-52922718D01*
X63120326Y-52921968D01*
X63446619Y-52821587D01*
X63446620Y-52821587D01*
X63449060Y-52820836D01*
X63766326Y-52681566D01*
X63918637Y-52592563D01*
X64063264Y-52508050D01*
X64063268Y-52508047D01*
X64065483Y-52506753D01*
X64342564Y-52298714D01*
X64593898Y-52060207D01*
X64816153Y-51794394D01*
X64970745Y-51559050D01*
X65004976Y-51506939D01*
X65004981Y-51506930D01*
X65006383Y-51504796D01*
X65162067Y-51195253D01*
X65260038Y-50927534D01*
X65280260Y-50872276D01*
X65280261Y-50872273D01*
X65281141Y-50869868D01*
X65362027Y-50532953D01*
X65403653Y-50188974D01*
X65409592Y-50000000D01*
X65404141Y-49905466D01*
X65389795Y-49656651D01*
X65389795Y-49656649D01*
X65389647Y-49654086D01*
X65330075Y-49312757D01*
X65231667Y-48980537D01*
X65095727Y-48661830D01*
X65030094Y-48546762D01*
X64925327Y-48363087D01*
X64925326Y-48363085D01*
X64924056Y-48360859D01*
X64718930Y-48081614D01*
X64483069Y-47827796D01*
X64219597Y-47602770D01*
X64217472Y-47601342D01*
X64217468Y-47601339D01*
X64075802Y-47506144D01*
X63932007Y-47409518D01*
X63929735Y-47408345D01*
X63929731Y-47408343D01*
X63626390Y-47251777D01*
X63626386Y-47251775D01*
X63624111Y-47250601D01*
X63621716Y-47249696D01*
X63621707Y-47249692D01*
X63392459Y-47163067D01*
X63299991Y-47128126D01*
X63297509Y-47127503D01*
X63297504Y-47127501D01*
X63058971Y-47067586D01*
X62963941Y-47043716D01*
X62961405Y-47043382D01*
X62961399Y-47043381D01*
X62622948Y-46998823D01*
X62622944Y-46998823D01*
X62620417Y-46998490D01*
X62489744Y-46996437D01*
X62276535Y-46993088D01*
X62276530Y-46993088D01*
X62273971Y-46993048D01*
X61929196Y-47027461D01*
X61926703Y-47028005D01*
X61926694Y-47028006D01*
X61593165Y-47100728D01*
X61590661Y-47101274D01*
X61262853Y-47213507D01*
X60950118Y-47362674D01*
X60947950Y-47364034D01*
X60658764Y-47545440D01*
X60658758Y-47545444D01*
X60656600Y-47546798D01*
X60609508Y-47584526D01*
X60388184Y-47761839D01*
X60388179Y-47761844D01*
X60386190Y-47763437D01*
X60142472Y-48009721D01*
X60140892Y-48011736D01*
X60087576Y-48079733D01*
X59928676Y-48282385D01*
X59747636Y-48577815D01*
X59746560Y-48580134D01*
X59746559Y-48580135D01*
X59645530Y-48797784D01*
X59601752Y-48892095D01*
X59492957Y-49221060D01*
X59492438Y-49223567D01*
X59432257Y-49514174D01*
X59422694Y-49560350D01*
X59391893Y-49905466D01*
X59204141Y-49905466D01*
X59189795Y-49656651D01*
X59189795Y-49656649D01*
X59189647Y-49654086D01*
X59130075Y-49312757D01*
X59031667Y-48980537D01*
X58895727Y-48661830D01*
X58830094Y-48546762D01*
X58725327Y-48363087D01*
X58725326Y-48363085D01*
X58724056Y-48360859D01*
X58518930Y-48081614D01*
X58283069Y-47827796D01*
X58019597Y-47602770D01*
X58017472Y-47601342D01*
X58017468Y-47601339D01*
X57875802Y-47506144D01*
X57732007Y-47409518D01*
X57729735Y-47408345D01*
X57729731Y-47408343D01*
X57426390Y-47251777D01*
X57426386Y-47251775D01*
X57424111Y-47250601D01*
X57421716Y-47249696D01*
X57421707Y-47249692D01*
X57192459Y-47163067D01*
X57099991Y-47128126D01*
X57097509Y-47127503D01*
X57097504Y-47127501D01*
X56858971Y-47067586D01*
X56763941Y-47043716D01*
X56761405Y-47043382D01*
X56761399Y-47043381D01*
X56422948Y-46998823D01*
X56422944Y-46998823D01*
X56420417Y-46998490D01*
X56289744Y-46996437D01*
X56076535Y-46993088D01*
X56076530Y-46993088D01*
X56073971Y-46993048D01*
X55729196Y-47027461D01*
X55726703Y-47028005D01*
X55726694Y-47028006D01*
X55393165Y-47100728D01*
X55390661Y-47101274D01*
X55062853Y-47213507D01*
X54750118Y-47362674D01*
X54747950Y-47364034D01*
X54458764Y-47545440D01*
X54458758Y-47545444D01*
X54456600Y-47546798D01*
X54409508Y-47584526D01*
X54188184Y-47761839D01*
X54188179Y-47761844D01*
X54186190Y-47763437D01*
X53942472Y-48009721D01*
X53940892Y-48011736D01*
X53887576Y-48079733D01*
X53728676Y-48282385D01*
X53547636Y-48577815D01*
X53546560Y-48580134D01*
X53546559Y-48580135D01*
X53445530Y-48797784D01*
X53401752Y-48892095D01*
X53292957Y-49221060D01*
X53292438Y-49223567D01*
X53232257Y-49514174D01*
X53222694Y-49560350D01*
X53191893Y-49905466D01*
X53004141Y-49905466D01*
X52989795Y-49656651D01*
X52989795Y-49656649D01*
X52989647Y-49654086D01*
X52930075Y-49312757D01*
X52831667Y-48980537D01*
X52695727Y-48661830D01*
X52630094Y-48546762D01*
X52525327Y-48363087D01*
X52525326Y-48363085D01*
X52524056Y-48360859D01*
X52318930Y-48081614D01*
X52083069Y-47827796D01*
X51819597Y-47602770D01*
X51817472Y-47601342D01*
X51817468Y-47601339D01*
X51675802Y-47506144D01*
X51532007Y-47409518D01*
X51529735Y-47408345D01*
X51529731Y-47408343D01*
X51226390Y-47251777D01*
X51226386Y-47251775D01*
X51224111Y-47250601D01*
X51221716Y-47249696D01*
X51221707Y-47249692D01*
X50992459Y-47163067D01*
X50899991Y-47128126D01*
X50897509Y-47127503D01*
X50897504Y-47127501D01*
X50658971Y-47067586D01*
X50563941Y-47043716D01*
X50561405Y-47043382D01*
X50561399Y-47043381D01*
X50222948Y-46998823D01*
X50222944Y-46998823D01*
X50220417Y-46998490D01*
X50089744Y-46996437D01*
X49876535Y-46993088D01*
X49876530Y-46993088D01*
X49873971Y-46993048D01*
X49529196Y-47027461D01*
X49526703Y-47028005D01*
X49526694Y-47028006D01*
X49193165Y-47100728D01*
X49190661Y-47101274D01*
X48862853Y-47213507D01*
X48550118Y-47362674D01*
X48547950Y-47364034D01*
X48258764Y-47545440D01*
X48258758Y-47545444D01*
X48256600Y-47546798D01*
X48209508Y-47584526D01*
X47988184Y-47761839D01*
X47988179Y-47761844D01*
X47986190Y-47763437D01*
X47742472Y-48009721D01*
X47740892Y-48011736D01*
X47687576Y-48079733D01*
X47528676Y-48282385D01*
X47347636Y-48577815D01*
X47346560Y-48580134D01*
X47346559Y-48580135D01*
X47245530Y-48797784D01*
X47201752Y-48892095D01*
X47092957Y-49221060D01*
X47092438Y-49223567D01*
X47032257Y-49514174D01*
X47022694Y-49560350D01*
X46991893Y-49905466D01*
X43458037Y-49905466D01*
X43472679Y-49514174D01*
X43473177Y-49507537D01*
X43527235Y-49027752D01*
X43528227Y-49021171D01*
X43535916Y-48980537D01*
X43617990Y-48546762D01*
X43619471Y-48540273D01*
X43688572Y-48282385D01*
X43744438Y-48073891D01*
X43746389Y-48067561D01*
X43860307Y-47742004D01*
X43905869Y-47611796D01*
X43908301Y-47605601D01*
X44101376Y-47163067D01*
X44104264Y-47157070D01*
X44329876Y-46730193D01*
X44333197Y-46724440D01*
X44590098Y-46315583D01*
X44593830Y-46310111D01*
X44687187Y-46183618D01*
X44880540Y-45921633D01*
X44884687Y-45916432D01*
X45199636Y-45550454D01*
X45204163Y-45545575D01*
X45545575Y-45204163D01*
X45550454Y-45199636D01*
X45916432Y-44884687D01*
X45921636Y-44880538D01*
X46213456Y-44665165D01*
X46310119Y-44593824D01*
X46315583Y-44590098D01*
X46724440Y-44333197D01*
X46730193Y-44329876D01*
X47157070Y-44104264D01*
X47163067Y-44101376D01*
X47605601Y-43908301D01*
X47611796Y-43905869D01*
X47769208Y-43850788D01*
X48067561Y-43746389D01*
X48073891Y-43744438D01*
X48393148Y-43658893D01*
X48540273Y-43619471D01*
X48546762Y-43617990D01*
X48783966Y-43573109D01*
X49021178Y-43528226D01*
X49027745Y-43527236D01*
X49273829Y-43499509D01*
X49507537Y-43473177D01*
X49514174Y-43472679D01*
X49968459Y-43455680D01*
X49989150Y-43457328D01*
X49991402Y-43457776D01*
X49991404Y-43457776D01*
X50000000Y-43459486D01*
X50016470Y-43456210D01*
X50033833Y-43454500D01*
X62366167Y-43454500D01*
X62383530Y-43456210D01*
G37*
%TD.AperFunction*%
%TD*%
M02*
