%TF.GenerationSoftware,KiCad,Pcbnew,9.0.7*%
%TF.CreationDate,2026-01-26T09:51:23+01:00*%
%TF.ProjectId,Touchpad,546f7563-6870-4616-942e-6b696361645f,rev?*%
%TF.SameCoordinates,Original*%
%TF.FileFunction,Copper,L2,Bot*%
%TF.FilePolarity,Positive*%
%FSLAX46Y46*%
G04 Gerber Fmt 4.6, Leading zero omitted, Abs format (unit mm)*
G04 Created by KiCad (PCBNEW 9.0.7) date 2026-01-26 09:51:23*
%MOMM*%
%LPD*%
G01*
G04 APERTURE LIST*
G04 Aperture macros list*
%AMRoundRect*
0 Rectangle with rounded corners*
0 $1 Rounding radius*
0 $2 $3 $4 $5 $6 $7 $8 $9 X,Y pos of 4 corners*
0 Add a 4 corners polygon primitive as box body*
4,1,4,$2,$3,$4,$5,$6,$7,$8,$9,$2,$3,0*
0 Add four circle primitives for the rounded corners*
1,1,$1+$1,$2,$3*
1,1,$1+$1,$4,$5*
1,1,$1+$1,$6,$7*
1,1,$1+$1,$8,$9*
0 Add four rect primitives between the rounded corners*
20,1,$1+$1,$2,$3,$4,$5,0*
20,1,$1+$1,$4,$5,$6,$7,0*
20,1,$1+$1,$6,$7,$8,$9,0*
20,1,$1+$1,$8,$9,$2,$3,0*%
%AMRotRect*
0 Rectangle, with rotation*
0 The origin of the aperture is its center*
0 $1 length*
0 $2 width*
0 $3 Rotation angle, in degrees counterclockwise*
0 Add horizontal line*
21,1,$1,$2,0,0,$3*%
G04 Aperture macros list end*
%TA.AperFunction,SMDPad,CuDef*%
%ADD10RoundRect,0.225000X0.225000X0.250000X-0.225000X0.250000X-0.225000X-0.250000X0.225000X-0.250000X0*%
%TD*%
%TA.AperFunction,SMDPad,CuDef*%
%ADD11RoundRect,0.225000X0.017678X-0.335876X0.335876X-0.017678X-0.017678X0.335876X-0.335876X0.017678X0*%
%TD*%
%TA.AperFunction,SMDPad,CuDef*%
%ADD12RotRect,1.060000X0.650000X225.000000*%
%TD*%
%TA.AperFunction,SMDPad,CuDef*%
%ADD13RoundRect,0.225000X0.335876X0.017678X0.017678X0.335876X-0.335876X-0.017678X-0.017678X-0.335876X0*%
%TD*%
%TA.AperFunction,SMDPad,CuDef*%
%ADD14R,0.650000X1.060000*%
%TD*%
%TA.AperFunction,SMDPad,CuDef*%
%ADD15RoundRect,0.225000X-0.017678X0.335876X-0.335876X0.017678X0.017678X-0.335876X0.335876X-0.017678X0*%
%TD*%
%TA.AperFunction,SMDPad,CuDef*%
%ADD16RotRect,1.060000X0.650000X315.000000*%
%TD*%
%TA.AperFunction,SMDPad,CuDef*%
%ADD17R,2.400000X0.740000*%
%TD*%
%TA.AperFunction,ViaPad*%
%ADD18C,0.800000*%
%TD*%
%TA.AperFunction,Conductor*%
%ADD19C,0.355600*%
%TD*%
%TA.AperFunction,Conductor*%
%ADD20C,0.254000*%
%TD*%
G04 APERTURE END LIST*
D10*
%TO.P,C3,1*%
%TO.N,Net-(C3-Pad1)*%
X189429045Y-66775000D03*
%TO.P,C3,2*%
%TO.N,GND*%
X187879045Y-66775000D03*
%TD*%
D11*
%TO.P,C2,1*%
%TO.N,+5V*%
X206201992Y-69748008D03*
%TO.P,C2,2*%
%TO.N,GND*%
X207298008Y-68651992D03*
%TD*%
D12*
%TO.P,U3,1,Q*%
%TO.N,TP3*%
X212006066Y-65750431D03*
%TO.P,U3,2,VSS*%
%TO.N,GND*%
X212677817Y-66422183D03*
%TO.P,U3,3,I*%
%TO.N,Net-(C5-Pad1)*%
X213349569Y-67093934D03*
%TO.P,U3,4,AHLB*%
%TO.N,unconnected-(U3-Pad4)*%
X211793934Y-68649569D03*
%TO.P,U3,5,VDD*%
%TO.N,+5V*%
X211122183Y-67977817D03*
%TO.P,U3,6,TOG*%
%TO.N,unconnected-(U3-Pad6)*%
X210450431Y-67306066D03*
%TD*%
D10*
%TO.P,C4,1*%
%TO.N,+5V*%
X189429045Y-72775000D03*
%TO.P,C4,2*%
%TO.N,GND*%
X187879045Y-72775000D03*
%TD*%
D13*
%TO.P,C6,1*%
%TO.N,+5V*%
X210448008Y-69748008D03*
%TO.P,C6,2*%
%TO.N,GND*%
X209351992Y-68651992D03*
%TD*%
D14*
%TO.P,U2,1,Q*%
%TO.N,TP2*%
X187704045Y-68675000D03*
%TO.P,U2,2,VSS*%
%TO.N,GND*%
X188654045Y-68675000D03*
%TO.P,U2,3,I*%
%TO.N,Net-(C3-Pad1)*%
X189604045Y-68675000D03*
%TO.P,U2,4,AHLB*%
%TO.N,unconnected-(U2-Pad4)*%
X189604045Y-70875000D03*
%TO.P,U2,5,VDD*%
%TO.N,+5V*%
X188654045Y-70875000D03*
%TO.P,U2,6,TOG*%
%TO.N,unconnected-(U2-Pad6)*%
X187704045Y-70875000D03*
%TD*%
D15*
%TO.P,C1,1*%
%TO.N,Net-(C1-Pad1)*%
X203298008Y-64651992D03*
%TO.P,C1,2*%
%TO.N,GND*%
X202201992Y-65748008D03*
%TD*%
D16*
%TO.P,U1,1,Q*%
%TO.N,TP1*%
X203300431Y-67093934D03*
%TO.P,U1,2,VSS*%
%TO.N,GND*%
X203972183Y-66422183D03*
%TO.P,U1,3,I*%
%TO.N,Net-(C1-Pad1)*%
X204643934Y-65750431D03*
%TO.P,U1,4,AHLB*%
%TO.N,unconnected-(U1-Pad4)*%
X206199569Y-67306066D03*
%TO.P,U1,5,VDD*%
%TO.N,+5V*%
X205527817Y-67977817D03*
%TO.P,U1,6,TOG*%
%TO.N,unconnected-(U1-Pad6)*%
X204856066Y-68649569D03*
%TD*%
D17*
%TO.P,J1,1,Pin_1*%
%TO.N,TP2*%
X206350000Y-77420000D03*
%TO.P,J1,2,Pin_2*%
%TO.N,TP3*%
X210250000Y-77420000D03*
%TO.P,J1,3,Pin_3*%
%TO.N,+5V*%
X206350000Y-76150000D03*
%TO.P,J1,4,Pin_4*%
X210250000Y-76150000D03*
%TO.P,J1,5,Pin_5*%
%TO.N,TP1*%
X206350000Y-74880000D03*
%TO.P,J1,6,Pin_6*%
%TO.N,GND*%
X210250000Y-74880000D03*
%TD*%
D13*
%TO.P,C5,1*%
%TO.N,Net-(C5-Pad1)*%
X214448008Y-65748008D03*
%TO.P,C5,2*%
%TO.N,GND*%
X213351992Y-64651992D03*
%TD*%
D18*
%TO.N,Net-(C5-Pad1)*%
X216100000Y-64950000D03*
%TO.N,TP2*%
X186300000Y-68650000D03*
X204000000Y-77450000D03*
%TO.N,TP3*%
X210100000Y-65750000D03*
X212550000Y-77450000D03*
%TO.N,+5V*%
X207300000Y-70850000D03*
X214250000Y-78100000D03*
%TO.N,Net-(C1-Pad1)*%
X200650000Y-64450000D03*
%TO.N,Net-(C3-Pad1)*%
X189450000Y-65500000D03*
%TO.N,TP1*%
X206350000Y-73350000D03*
X207100000Y-66100000D03*
%TD*%
D19*
%TO.N,GND*%
X209600000Y-64400000D02*
X213100000Y-64400000D01*
X208850000Y-67100000D02*
X208850000Y-65150000D01*
D20*
X202500000Y-66050000D02*
X203600000Y-66050000D01*
D19*
X208850000Y-65150000D02*
X209600000Y-64400000D01*
D20*
X188654045Y-68079045D02*
X187879045Y-67304045D01*
X213050000Y-64953984D02*
X213351992Y-64651992D01*
X213050000Y-66050000D02*
X213050000Y-64953984D01*
X202201992Y-65748008D02*
X202201992Y-65751992D01*
D19*
X207298008Y-68651992D02*
X208850000Y-67100000D01*
X213100000Y-64400000D02*
X213351992Y-64651992D01*
D20*
X202201992Y-65751992D02*
X202500000Y-66050000D01*
X187879045Y-67304045D02*
X187879045Y-66775000D01*
X188654045Y-68675000D02*
X188654045Y-68079045D01*
X212677817Y-66422183D02*
X213050000Y-66050000D01*
X203600000Y-66050000D02*
X203972183Y-66422183D01*
D19*
%TO.N,Net-(C5-Pad1)*%
X214448008Y-65748008D02*
X214451992Y-65748008D01*
X214448008Y-65995495D02*
X213349569Y-67093934D01*
X214451992Y-65748008D02*
X215050000Y-65150000D01*
X214448008Y-65748008D02*
X214448008Y-65995495D01*
X215050000Y-65150000D02*
X215250000Y-64950000D01*
X215250000Y-64950000D02*
X216100000Y-64950000D01*
%TO.N,TP2*%
X206350000Y-77420000D02*
X204030000Y-77420000D01*
X204030000Y-77420000D02*
X204000000Y-77450000D01*
X187679045Y-68650000D02*
X187704045Y-68675000D01*
X186300000Y-68650000D02*
X187679045Y-68650000D01*
D20*
%TO.N,TP3*%
X212006066Y-65750431D02*
X210100431Y-65750431D01*
X210280000Y-77450000D02*
X210250000Y-77420000D01*
X210100431Y-65750431D02*
X210100000Y-65750000D01*
X212550000Y-77450000D02*
X210280000Y-77450000D01*
D19*
%TO.N,+5V*%
X206198008Y-69748008D02*
X205950000Y-69500000D01*
X201350000Y-78300000D02*
X203500000Y-76150000D01*
X205950000Y-68400000D02*
X205527817Y-67977817D01*
X212550000Y-75800000D02*
X212550000Y-74750000D01*
X206201992Y-69748008D02*
X206201992Y-69751992D01*
X210250000Y-76150000D02*
X212200000Y-76150000D01*
X189429045Y-72775000D02*
X189429045Y-72125000D01*
X189429045Y-72125000D02*
X189204045Y-71900000D01*
X214250000Y-77500000D02*
X212550000Y-75800000D01*
X189429045Y-72775000D02*
X189429045Y-74679045D01*
X193050000Y-78300000D02*
X201350000Y-78300000D01*
X203500000Y-76150000D02*
X206350000Y-76150000D01*
X188654045Y-70875000D02*
X188654045Y-71700000D01*
D20*
X210451992Y-69748008D02*
X210800000Y-69400000D01*
D19*
X206350000Y-76150000D02*
X210250000Y-76150000D01*
X211300000Y-70600000D02*
X210448008Y-69748008D01*
X188854045Y-71900000D02*
X189204045Y-71900000D01*
X206201992Y-69748008D02*
X206198008Y-69748008D01*
X206201992Y-69751992D02*
X207300000Y-70850000D01*
X212200000Y-76150000D02*
X212550000Y-75800000D01*
X214250000Y-78100000D02*
X214250000Y-77500000D01*
X188654045Y-71700000D02*
X188854045Y-71900000D01*
D20*
X210800000Y-68300000D02*
X211122183Y-67977817D01*
D19*
X189429045Y-74679045D02*
X193050000Y-78300000D01*
D20*
X210800000Y-69400000D02*
X210800000Y-68300000D01*
D19*
X211300000Y-73500000D02*
X211300000Y-70600000D01*
X212550000Y-74750000D02*
X211300000Y-73500000D01*
X205950000Y-69500000D02*
X205950000Y-68400000D01*
%TO.N,Net-(C1-Pad1)*%
X203100000Y-64450000D02*
X200650000Y-64450000D01*
D20*
X203298008Y-64648008D02*
X203100000Y-64450000D01*
X203298008Y-64651992D02*
X203545495Y-64651992D01*
X203298008Y-64651992D02*
X203298008Y-64648008D01*
D19*
X203545495Y-64651992D02*
X204643934Y-65750431D01*
%TO.N,Net-(C3-Pad1)*%
X189429045Y-65504045D02*
X189425000Y-65500000D01*
X189429045Y-65520955D02*
X189450000Y-65500000D01*
X189604045Y-68675000D02*
X189604045Y-66950000D01*
X189429045Y-66775000D02*
X189429045Y-65520955D01*
X189604045Y-66950000D02*
X189429045Y-66775000D01*
D20*
%TO.N,TP1*%
X207100000Y-66100000D02*
X205800000Y-66100000D01*
X206350000Y-74880000D02*
X206350000Y-73350000D01*
X205800000Y-66100000D02*
X204225000Y-67675000D01*
X203881497Y-67675000D02*
X204225000Y-67675000D01*
X203300431Y-67093934D02*
X203881497Y-67675000D01*
%TD*%
%TA.AperFunction,Conductor*%
%TO.N,GND*%
G36*
X216701886Y-63175557D02*
G01*
X217298454Y-63193583D01*
X217306036Y-63194042D01*
X217898515Y-63247881D01*
X217906027Y-63248793D01*
X218494205Y-63338312D01*
X218501665Y-63339679D01*
X219083355Y-63464547D01*
X219090713Y-63466361D01*
X219663801Y-63626121D01*
X219671003Y-63628365D01*
X220233427Y-63822444D01*
X220240511Y-63825131D01*
X220790151Y-64052800D01*
X220797082Y-64055920D01*
X221331980Y-64316363D01*
X221338677Y-64319878D01*
X221809695Y-64585533D01*
X221856867Y-64612138D01*
X221863378Y-64616074D01*
X222334798Y-64920869D01*
X222362959Y-64939076D01*
X222369223Y-64943400D01*
X222848398Y-65295984D01*
X222854386Y-65300675D01*
X223311400Y-65681549D01*
X223317080Y-65686580D01*
X223462622Y-65823585D01*
X223750264Y-66094353D01*
X223755646Y-66099735D01*
X223910992Y-66264762D01*
X224152198Y-66521000D01*
X224163411Y-66532911D01*
X224168452Y-66538602D01*
X224443585Y-66868736D01*
X224549321Y-66995609D01*
X224554015Y-67001601D01*
X224906599Y-67480776D01*
X224910923Y-67487040D01*
X225233924Y-67986619D01*
X225237861Y-67993132D01*
X225355013Y-68200847D01*
X225523268Y-68499171D01*
X225530110Y-68511301D01*
X225533642Y-68518031D01*
X225597580Y-68649346D01*
X225794077Y-69052912D01*
X225797201Y-69059853D01*
X226024863Y-69609477D01*
X226027561Y-69616591D01*
X226221627Y-70178975D01*
X226223884Y-70186219D01*
X226257044Y-70305170D01*
X226383634Y-70759270D01*
X226385456Y-70766660D01*
X226510317Y-71348321D01*
X226511689Y-71355807D01*
X226601203Y-71943950D01*
X226602120Y-71951506D01*
X226655956Y-72543955D01*
X226656416Y-72551552D01*
X226674443Y-73148113D01*
X226674500Y-73151919D01*
X226674500Y-78998500D01*
X226654498Y-79066621D01*
X226600842Y-79113114D01*
X226548500Y-79124500D01*
X214767350Y-79124500D01*
X214699229Y-79104498D01*
X214652736Y-79050842D01*
X214642632Y-78980568D01*
X214672126Y-78915988D01*
X214697348Y-78893735D01*
X214699207Y-78892492D01*
X214829135Y-78805678D01*
X214955678Y-78679135D01*
X215055102Y-78530336D01*
X215123587Y-78365000D01*
X215158500Y-78189479D01*
X215158500Y-78010521D01*
X215123587Y-77835000D01*
X215055102Y-77669664D01*
X214957535Y-77523644D01*
X214936320Y-77455891D01*
X214936300Y-77453642D01*
X214936300Y-77432406D01*
X214936299Y-77432402D01*
X214909926Y-77299814D01*
X214858191Y-77174915D01*
X214783084Y-77062509D01*
X214687491Y-76966916D01*
X213273205Y-75552630D01*
X213258260Y-75525261D01*
X213241404Y-75499033D01*
X213240498Y-75492734D01*
X213239179Y-75490318D01*
X213236300Y-75463535D01*
X213236300Y-75270490D01*
X213256302Y-75202369D01*
X213309958Y-75155876D01*
X213380232Y-75145772D01*
X213444812Y-75175266D01*
X213451381Y-75181381D01*
X213880000Y-75610000D01*
X214880000Y-76360000D01*
X216380000Y-76860000D01*
X218130001Y-76860000D01*
X218130001Y-76859999D01*
X219130000Y-76610000D01*
X220630000Y-75860000D01*
X221630000Y-74860000D01*
X222380000Y-73610000D01*
X222552584Y-72919664D01*
X222630000Y-72610001D01*
X222630000Y-70610000D01*
X222380000Y-69860000D01*
X222379114Y-69858228D01*
X221880000Y-68860000D01*
X221879996Y-68859995D01*
X221879994Y-68859991D01*
X221129997Y-67859996D01*
X220630005Y-67360004D01*
X220630000Y-67360000D01*
X218630000Y-66360000D01*
X216130000Y-66360000D01*
X215379997Y-66610001D01*
X215379996Y-66610001D01*
X215197553Y-66701222D01*
X215127679Y-66713796D01*
X215062099Y-66686597D01*
X215021635Y-66628260D01*
X215019133Y-66557308D01*
X215052108Y-66499430D01*
X215337104Y-66214435D01*
X215400885Y-66136139D01*
X215477840Y-65982910D01*
X215510030Y-65847084D01*
X215545201Y-65785416D01*
X215608133Y-65752550D01*
X215678842Y-65758924D01*
X215680826Y-65759725D01*
X215835000Y-65823587D01*
X216010521Y-65858500D01*
X216010522Y-65858500D01*
X216189478Y-65858500D01*
X216189479Y-65858500D01*
X216365000Y-65823587D01*
X216530336Y-65755102D01*
X216679135Y-65655678D01*
X216805678Y-65529135D01*
X216905102Y-65380336D01*
X216973587Y-65215000D01*
X217008500Y-65039479D01*
X217008500Y-64860521D01*
X216973587Y-64685000D01*
X216905102Y-64519664D01*
X216805678Y-64370865D01*
X216679135Y-64244322D01*
X216530336Y-64144898D01*
X216413429Y-64096473D01*
X216365003Y-64076414D01*
X216365001Y-64076413D01*
X216365000Y-64076413D01*
X216261984Y-64055922D01*
X216189481Y-64041500D01*
X216189479Y-64041500D01*
X216010521Y-64041500D01*
X216010518Y-64041500D01*
X215879771Y-64067507D01*
X215835000Y-64076413D01*
X215834999Y-64076413D01*
X215834996Y-64076414D01*
X215669662Y-64144899D01*
X215523644Y-64242465D01*
X215455891Y-64263680D01*
X215453642Y-64263700D01*
X215182402Y-64263700D01*
X215049813Y-64290074D01*
X215049808Y-64290076D01*
X214924915Y-64341809D01*
X214812510Y-64416915D01*
X214812504Y-64416920D01*
X214751166Y-64478259D01*
X214716916Y-64512509D01*
X214716914Y-64512511D01*
X214692566Y-64536859D01*
X214630300Y-64599123D01*
X214601061Y-64615088D01*
X214567988Y-64633147D01*
X214567987Y-64633146D01*
X214567987Y-64633147D01*
X214497171Y-64628081D01*
X214449117Y-64592107D01*
X214440337Y-64585534D01*
X214440336Y-64585533D01*
X214440333Y-64585527D01*
X214418602Y-64539084D01*
X214381349Y-64381904D01*
X214304453Y-64228786D01*
X214240706Y-64150533D01*
X214226684Y-64136511D01*
X214226682Y-64136511D01*
X213620692Y-64742501D01*
X213558380Y-64776527D01*
X213487565Y-64771462D01*
X213442502Y-64742501D01*
X213351993Y-64651992D01*
X213351992Y-64651992D01*
X213261481Y-64742502D01*
X213199169Y-64776527D01*
X213128353Y-64771461D01*
X213083291Y-64742501D01*
X212494978Y-64154188D01*
X212463274Y-64185892D01*
X212399530Y-64264143D01*
X212322632Y-64417263D01*
X212322631Y-64417266D01*
X212294286Y-64536859D01*
X212259113Y-64598531D01*
X212196181Y-64631395D01*
X212153759Y-64632519D01*
X212151024Y-64632126D01*
X212151020Y-64632126D01*
X212006293Y-64652934D01*
X212006289Y-64652935D01*
X211873285Y-64713674D01*
X211873276Y-64713680D01*
X211825853Y-64751897D01*
X211825849Y-64751900D01*
X211499724Y-65078026D01*
X211437412Y-65112052D01*
X211410629Y-65114931D01*
X210801934Y-65114931D01*
X210733813Y-65094929D01*
X210712839Y-65078026D01*
X210679137Y-65044324D01*
X210679135Y-65044322D01*
X210530336Y-64944898D01*
X210413429Y-64896473D01*
X210365003Y-64876414D01*
X210365001Y-64876413D01*
X210365000Y-64876413D01*
X210276645Y-64858838D01*
X210189481Y-64841500D01*
X210189479Y-64841500D01*
X210010521Y-64841500D01*
X210010518Y-64841500D01*
X209879771Y-64867507D01*
X209835000Y-64876413D01*
X209834999Y-64876413D01*
X209834996Y-64876414D01*
X209703902Y-64930716D01*
X209673281Y-64943400D01*
X209669662Y-64944899D01*
X209520869Y-65044319D01*
X209520862Y-65044324D01*
X209394324Y-65170862D01*
X209394319Y-65170869D01*
X209294899Y-65319662D01*
X209226414Y-65484996D01*
X209191500Y-65660518D01*
X209191500Y-65839481D01*
X209195283Y-65858499D01*
X209226413Y-66015000D01*
X209294898Y-66180336D01*
X209394322Y-66329135D01*
X209520865Y-66455678D01*
X209669664Y-66555102D01*
X209745043Y-66586325D01*
X209800323Y-66630874D01*
X209822744Y-66698237D01*
X209805185Y-66767029D01*
X209785920Y-66791829D01*
X209451905Y-67125844D01*
X209451892Y-67125858D01*
X209413680Y-67173276D01*
X209413674Y-67173285D01*
X209352935Y-67306289D01*
X209352934Y-67306293D01*
X209332126Y-67451019D01*
X209332126Y-67451024D01*
X209332519Y-67453759D01*
X209332126Y-67456490D01*
X209332126Y-67460035D01*
X209331616Y-67460035D01*
X209322410Y-67524032D01*
X209275914Y-67577685D01*
X209236859Y-67594286D01*
X209117266Y-67622631D01*
X209117263Y-67622632D01*
X208964143Y-67699530D01*
X208885892Y-67763274D01*
X208854188Y-67794978D01*
X209442501Y-68383291D01*
X209476527Y-68445603D01*
X209471462Y-68516418D01*
X209442502Y-68561481D01*
X209351992Y-68651991D01*
X209351992Y-68651993D01*
X209442501Y-68742502D01*
X209476527Y-68804814D01*
X209471462Y-68875629D01*
X209442501Y-68920692D01*
X208836511Y-69526682D01*
X208836511Y-69526684D01*
X208850533Y-69540706D01*
X208928786Y-69604453D01*
X209081904Y-69681349D01*
X209081905Y-69681350D01*
X209248641Y-69720868D01*
X209252633Y-69720868D01*
X209255274Y-69721643D01*
X209255928Y-69721720D01*
X209255914Y-69721831D01*
X209320754Y-69740870D01*
X209367247Y-69794526D01*
X209378633Y-69846868D01*
X209378633Y-69851419D01*
X209418176Y-70018265D01*
X209418176Y-70018266D01*
X209418177Y-70018267D01*
X209418178Y-70018271D01*
X209495127Y-70171488D01*
X209495133Y-70171496D01*
X209558912Y-70249792D01*
X209946223Y-70637103D01*
X209987782Y-70670956D01*
X210024522Y-70700885D01*
X210024525Y-70700886D01*
X210024527Y-70700888D01*
X210177744Y-70777837D01*
X210177746Y-70777837D01*
X210177751Y-70777840D01*
X210344597Y-70817383D01*
X210344599Y-70817383D01*
X210487700Y-70817383D01*
X210555821Y-70837385D01*
X210602314Y-70891041D01*
X210613700Y-70943383D01*
X210613700Y-73567597D01*
X210635124Y-73675303D01*
X210635125Y-73675306D01*
X210637173Y-73685601D01*
X210640074Y-73700186D01*
X210691809Y-73825085D01*
X210692164Y-73825617D01*
X210694320Y-73831297D01*
X210696913Y-73864874D01*
X210700515Y-73898372D01*
X210699636Y-73900126D01*
X210699788Y-73902083D01*
X210683814Y-73931736D01*
X210668736Y-73961859D01*
X210667048Y-73962860D01*
X210666118Y-73964587D01*
X210636658Y-73980891D01*
X210607678Y-73998086D01*
X210604977Y-73998425D01*
X210604000Y-73998966D01*
X210601816Y-73998822D01*
X210576517Y-74002000D01*
X210504000Y-74002000D01*
X210504000Y-74754000D01*
X210483998Y-74822121D01*
X210430342Y-74868614D01*
X210378000Y-74880000D01*
X210250000Y-74880000D01*
X210250000Y-75008000D01*
X210229998Y-75076121D01*
X210176342Y-75122614D01*
X210124000Y-75134000D01*
X208542000Y-75134000D01*
X208542000Y-75298595D01*
X208544757Y-75324229D01*
X208541932Y-75339884D01*
X208544197Y-75355632D01*
X208535758Y-75374107D01*
X208532153Y-75394097D01*
X208521311Y-75405741D01*
X208514703Y-75420212D01*
X208497616Y-75431193D01*
X208483775Y-75446060D01*
X208467561Y-75450508D01*
X208454977Y-75458596D01*
X208419479Y-75463700D01*
X208181027Y-75463700D01*
X208112906Y-75443698D01*
X208066413Y-75390042D01*
X208055749Y-75324233D01*
X208058498Y-75298652D01*
X208058500Y-75298638D01*
X208058500Y-74461402D01*
X208542000Y-74461402D01*
X208542000Y-74626000D01*
X209996000Y-74626000D01*
X209996000Y-74002000D01*
X209001402Y-74002000D01*
X208940906Y-74008505D01*
X208804035Y-74059555D01*
X208804034Y-74059555D01*
X208687095Y-74147095D01*
X208599555Y-74264034D01*
X208599555Y-74264035D01*
X208548505Y-74400906D01*
X208542000Y-74461402D01*
X208058500Y-74461402D01*
X208058500Y-74461362D01*
X208058499Y-74461350D01*
X208051990Y-74400803D01*
X208051988Y-74400795D01*
X208000978Y-74264035D01*
X208000889Y-74263796D01*
X208000888Y-74263794D01*
X208000887Y-74263792D01*
X207913261Y-74146738D01*
X207796207Y-74059112D01*
X207796202Y-74059110D01*
X207659204Y-74008011D01*
X207659196Y-74008009D01*
X207598649Y-74001500D01*
X207598638Y-74001500D01*
X207243054Y-74001500D01*
X207174933Y-73981498D01*
X207128440Y-73927842D01*
X207118336Y-73857568D01*
X207138289Y-73805498D01*
X207155102Y-73780336D01*
X207223587Y-73615000D01*
X207258500Y-73439479D01*
X207258500Y-73260521D01*
X207223587Y-73085000D01*
X207155102Y-72919664D01*
X207055678Y-72770865D01*
X206929135Y-72644322D01*
X206780336Y-72544898D01*
X206663429Y-72496473D01*
X206615003Y-72476414D01*
X206615001Y-72476413D01*
X206615000Y-72476413D01*
X206526645Y-72458838D01*
X206439481Y-72441500D01*
X206439479Y-72441500D01*
X206260521Y-72441500D01*
X206260518Y-72441500D01*
X206129771Y-72467507D01*
X206085000Y-72476413D01*
X206084999Y-72476413D01*
X206084996Y-72476414D01*
X205919662Y-72544899D01*
X205770869Y-72644319D01*
X205770862Y-72644324D01*
X205644324Y-72770862D01*
X205644319Y-72770869D01*
X205544899Y-72919662D01*
X205476414Y-73084996D01*
X205441500Y-73260518D01*
X205441500Y-73439481D01*
X205450104Y-73482734D01*
X205476413Y-73615000D01*
X205544898Y-73780336D01*
X205544899Y-73780337D01*
X205561711Y-73805498D01*
X205582926Y-73873251D01*
X205564143Y-73941718D01*
X205511326Y-73989161D01*
X205456946Y-74001500D01*
X205101350Y-74001500D01*
X205040803Y-74008009D01*
X205040795Y-74008011D01*
X204903797Y-74059110D01*
X204903792Y-74059112D01*
X204786738Y-74146738D01*
X204699112Y-74263792D01*
X204699110Y-74263797D01*
X204648011Y-74400795D01*
X204648009Y-74400803D01*
X204641500Y-74461350D01*
X204641500Y-75298632D01*
X204641501Y-75298652D01*
X204644251Y-75324233D01*
X204631645Y-75394101D01*
X204583266Y-75446063D01*
X204518973Y-75463700D01*
X203432402Y-75463700D01*
X203299813Y-75490074D01*
X203299808Y-75490076D01*
X203174915Y-75541809D01*
X203062510Y-75616915D01*
X203062504Y-75616920D01*
X201102630Y-77576795D01*
X201040318Y-77610821D01*
X201013535Y-77613700D01*
X193386465Y-77613700D01*
X193318344Y-77593698D01*
X193297370Y-77576795D01*
X190152250Y-74431675D01*
X190118224Y-74369363D01*
X190115345Y-74342580D01*
X190115345Y-73653215D01*
X190135347Y-73585094D01*
X190152245Y-73564124D01*
X190233330Y-73483040D01*
X190323347Y-73337101D01*
X190377281Y-73174336D01*
X190383854Y-73110000D01*
X190387545Y-73073880D01*
X190387545Y-72476119D01*
X190377292Y-72375770D01*
X190377281Y-72375664D01*
X190323347Y-72212899D01*
X190233330Y-72066960D01*
X190233329Y-72066959D01*
X190233324Y-72066953D01*
X190190578Y-72024207D01*
X190156552Y-71961895D01*
X190161617Y-71891080D01*
X190204164Y-71834244D01*
X190292306Y-71768261D01*
X190379932Y-71651207D01*
X190379932Y-71651206D01*
X190379934Y-71651204D01*
X190431034Y-71514201D01*
X190437545Y-71453638D01*
X190437545Y-71274809D01*
X193327405Y-71274809D01*
X193327405Y-71725190D01*
X193365091Y-72173966D01*
X193365091Y-72173968D01*
X193440192Y-72617992D01*
X193440200Y-72618027D01*
X193552188Y-73054194D01*
X193552199Y-73054231D01*
X193700296Y-73479506D01*
X193700299Y-73479514D01*
X193700302Y-73479521D01*
X193883478Y-73890942D01*
X193944258Y-74001500D01*
X194100442Y-74285599D01*
X194100446Y-74285605D01*
X194349658Y-74660698D01*
X194349668Y-74660712D01*
X194629401Y-75013646D01*
X194629402Y-75013648D01*
X194937683Y-75341934D01*
X194937711Y-75341961D01*
X195168763Y-75550000D01*
X195272372Y-75643290D01*
X195456668Y-75783178D01*
X195631088Y-75915570D01*
X195631103Y-75915580D01*
X196011332Y-76156882D01*
X196011337Y-76156884D01*
X196011344Y-76156889D01*
X196410452Y-76365537D01*
X196825619Y-76540058D01*
X196825633Y-76540062D01*
X196825634Y-76540063D01*
X197253926Y-76679224D01*
X197253932Y-76679225D01*
X197253934Y-76679226D01*
X197692392Y-76782065D01*
X197692403Y-76782066D01*
X197692405Y-76782067D01*
X197760778Y-76792163D01*
X198137918Y-76847855D01*
X198137921Y-76847855D01*
X198137922Y-76847856D01*
X198454369Y-76867764D01*
X198587386Y-76876133D01*
X198587389Y-76876132D01*
X198587391Y-76876133D01*
X198868797Y-76870238D01*
X199037644Y-76866701D01*
X199485534Y-76819626D01*
X199927914Y-76735238D01*
X200361681Y-76614128D01*
X200783792Y-76457146D01*
X201191287Y-76265393D01*
X201581308Y-76040215D01*
X201951118Y-75783190D01*
X202298124Y-75496122D01*
X202619892Y-75181023D01*
X202914164Y-74840105D01*
X203178877Y-74475759D01*
X203187604Y-74461350D01*
X203294042Y-74285599D01*
X203412174Y-74090540D01*
X203612419Y-73687150D01*
X203778206Y-73268419D01*
X203908374Y-72837283D01*
X204002008Y-72396768D01*
X204004663Y-72375758D01*
X204058451Y-71949979D01*
X204058451Y-71949976D01*
X204058453Y-71949962D01*
X204067941Y-71723585D01*
X204077312Y-71500011D01*
X204077312Y-71499988D01*
X204058454Y-71050061D01*
X204058453Y-71050059D01*
X204058453Y-71050038D01*
X204057801Y-71044877D01*
X204002011Y-70603251D01*
X204002009Y-70603244D01*
X204002008Y-70603232D01*
X203908374Y-70162717D01*
X203778206Y-69731581D01*
X203612419Y-69312850D01*
X203412174Y-68909460D01*
X203294046Y-68714407D01*
X203178882Y-68524248D01*
X203178879Y-68524244D01*
X203169475Y-68511301D01*
X203083766Y-68393332D01*
X203038294Y-68330745D01*
X203014435Y-68263877D01*
X203030516Y-68194726D01*
X203081430Y-68145245D01*
X203151013Y-68131146D01*
X203192570Y-68142069D01*
X203300654Y-68191429D01*
X203300655Y-68191429D01*
X203300658Y-68191430D01*
X203445386Y-68212239D01*
X203445388Y-68212239D01*
X203476821Y-68207719D01*
X203547095Y-68217821D01*
X203547829Y-68218159D01*
X203556660Y-68222260D01*
X203580475Y-68238173D01*
X203677098Y-68278195D01*
X203679502Y-68279312D01*
X203704275Y-68301057D01*
X203729927Y-68321729D01*
X203730794Y-68324334D01*
X203732859Y-68326147D01*
X203741939Y-68357819D01*
X203752348Y-68389092D01*
X203752120Y-68393332D01*
X203752425Y-68394394D01*
X203751985Y-68395857D01*
X203751145Y-68411521D01*
X203737761Y-68504608D01*
X203737761Y-68504615D01*
X203758569Y-68649341D01*
X203758570Y-68649345D01*
X203819309Y-68782349D01*
X203819315Y-68782358D01*
X203833532Y-68800000D01*
X203857534Y-68829784D01*
X204675851Y-69648101D01*
X204723280Y-69686322D01*
X204723281Y-69686322D01*
X204723285Y-69686325D01*
X204856289Y-69747064D01*
X204856293Y-69747065D01*
X205001019Y-69767874D01*
X205001021Y-69767873D01*
X205001023Y-69767874D01*
X205003253Y-69767553D01*
X205005485Y-69767874D01*
X205010035Y-69767874D01*
X205010035Y-69768527D01*
X205073526Y-69777654D01*
X205127183Y-69824145D01*
X205143791Y-69863211D01*
X205151115Y-69894112D01*
X205172160Y-69982910D01*
X205172162Y-69982916D01*
X205235987Y-70110000D01*
X205249115Y-70136139D01*
X205249118Y-70136143D01*
X205249121Y-70136147D01*
X205312900Y-70214440D01*
X205735559Y-70637099D01*
X205735564Y-70637103D01*
X205735565Y-70637104D01*
X205813861Y-70700885D01*
X205813867Y-70700888D01*
X205967083Y-70777837D01*
X205967085Y-70777837D01*
X205967090Y-70777840D01*
X206133937Y-70817383D01*
X206244619Y-70817383D01*
X206274534Y-70826166D01*
X206305004Y-70832795D01*
X206310099Y-70836609D01*
X206312740Y-70837385D01*
X206333714Y-70854288D01*
X206357667Y-70878241D01*
X206391693Y-70940553D01*
X206392151Y-70942754D01*
X206409880Y-71031885D01*
X206426413Y-71115000D01*
X206494898Y-71280336D01*
X206594322Y-71429135D01*
X206720865Y-71555678D01*
X206869664Y-71655102D01*
X207035000Y-71723587D01*
X207210521Y-71758500D01*
X207210522Y-71758500D01*
X207389478Y-71758500D01*
X207389479Y-71758500D01*
X207565000Y-71723587D01*
X207730336Y-71655102D01*
X207879135Y-71555678D01*
X208005678Y-71429135D01*
X208105102Y-71280336D01*
X208173587Y-71115000D01*
X208208500Y-70939479D01*
X208208500Y-70760521D01*
X208173587Y-70585000D01*
X208105102Y-70419664D01*
X208005678Y-70270865D01*
X207879135Y-70144322D01*
X207730336Y-70044898D01*
X207613429Y-69996473D01*
X207565003Y-69976414D01*
X207565001Y-69976413D01*
X207565000Y-69976413D01*
X207514827Y-69966433D01*
X207456984Y-69954927D01*
X207394075Y-69922019D01*
X207358944Y-69860323D01*
X207362745Y-69789429D01*
X207404271Y-69731843D01*
X207452510Y-69708744D01*
X207568093Y-69681350D01*
X207568095Y-69681349D01*
X207721213Y-69604453D01*
X207799466Y-69540706D01*
X207813489Y-69526684D01*
X207813489Y-69526683D01*
X207207498Y-68920693D01*
X207173473Y-68858380D01*
X207178537Y-68787565D01*
X207207498Y-68742501D01*
X207298007Y-68651992D01*
X207298006Y-68651991D01*
X207657218Y-68651991D01*
X207657218Y-68651993D01*
X208172698Y-69167473D01*
X208172700Y-69167473D01*
X208186726Y-69153446D01*
X208227311Y-69103626D01*
X208285842Y-69063444D01*
X208356806Y-69061285D01*
X208417672Y-69097835D01*
X208422689Y-69103626D01*
X208463273Y-69153446D01*
X208477300Y-69167473D01*
X208477302Y-69167473D01*
X208992781Y-68651994D01*
X208992781Y-68651990D01*
X208494979Y-68154188D01*
X208494978Y-68154188D01*
X208463267Y-68185899D01*
X208422687Y-68235714D01*
X208364156Y-68275895D01*
X208293192Y-68278053D01*
X208232327Y-68241503D01*
X208227309Y-68235712D01*
X208186725Y-68185891D01*
X208155022Y-68154188D01*
X208155021Y-68154188D01*
X207657218Y-68651991D01*
X207298006Y-68651991D01*
X207207498Y-68561483D01*
X207173473Y-68499171D01*
X207178537Y-68428355D01*
X207207498Y-68383292D01*
X207795811Y-67794979D01*
X207795811Y-67794977D01*
X207764107Y-67763273D01*
X207685861Y-67699533D01*
X207685857Y-67699531D01*
X207532736Y-67622632D01*
X207532733Y-67622631D01*
X207413140Y-67594286D01*
X207351469Y-67559113D01*
X207318604Y-67496181D01*
X207317482Y-67453748D01*
X207317874Y-67451022D01*
X207317874Y-67451019D01*
X207297065Y-67306293D01*
X207297064Y-67306289D01*
X207236323Y-67173282D01*
X207235922Y-67172632D01*
X207235764Y-67172056D01*
X207233048Y-67166109D01*
X207234011Y-67165669D01*
X207217135Y-67104166D01*
X207238346Y-67036412D01*
X207292820Y-66990881D01*
X207318528Y-66982830D01*
X207365000Y-66973587D01*
X207530336Y-66905102D01*
X207679135Y-66805678D01*
X207805678Y-66679135D01*
X207905102Y-66530336D01*
X207973587Y-66365000D01*
X208008500Y-66189479D01*
X208008500Y-66010521D01*
X207973587Y-65835000D01*
X207905102Y-65669664D01*
X207805678Y-65520865D01*
X207679135Y-65394322D01*
X207530336Y-65294898D01*
X207385721Y-65234996D01*
X207365003Y-65226414D01*
X207365001Y-65226413D01*
X207365000Y-65226413D01*
X207276645Y-65208838D01*
X207189481Y-65191500D01*
X207189479Y-65191500D01*
X207010521Y-65191500D01*
X207010518Y-65191500D01*
X206892362Y-65215003D01*
X206835000Y-65226413D01*
X206834999Y-65226413D01*
X206834996Y-65226414D01*
X206669662Y-65294899D01*
X206520869Y-65394319D01*
X206520862Y-65394324D01*
X206487592Y-65427595D01*
X206425280Y-65461621D01*
X206398497Y-65464500D01*
X205737403Y-65464500D01*
X205636094Y-65484652D01*
X205565380Y-65478324D01*
X205522418Y-65450168D01*
X204824150Y-64751900D01*
X204824149Y-64751899D01*
X204782302Y-64718176D01*
X204776723Y-64713680D01*
X204776714Y-64713674D01*
X204643710Y-64652935D01*
X204643706Y-64652934D01*
X204537245Y-64637627D01*
X204516780Y-64628280D01*
X204494793Y-64623498D01*
X204476780Y-64610013D01*
X204472665Y-64608134D01*
X204466083Y-64602005D01*
X204367605Y-64503527D01*
X204334096Y-64443490D01*
X204327840Y-64417090D01*
X204327838Y-64417086D01*
X204327837Y-64417083D01*
X204250888Y-64263867D01*
X204250885Y-64263861D01*
X204222312Y-64228786D01*
X204187099Y-64185559D01*
X203796517Y-63794977D01*
X212854188Y-63794977D01*
X213351991Y-64292781D01*
X213867473Y-63777300D01*
X213853450Y-63763277D01*
X213775197Y-63699530D01*
X213622079Y-63622634D01*
X213622078Y-63622633D01*
X213455343Y-63583116D01*
X213283996Y-63583116D01*
X213117261Y-63622633D01*
X212964143Y-63699530D01*
X212885892Y-63763274D01*
X212854188Y-63794977D01*
X203796517Y-63794977D01*
X203764440Y-63762900D01*
X203686147Y-63699121D01*
X203686141Y-63699117D01*
X203686139Y-63699115D01*
X203686134Y-63699112D01*
X203686132Y-63699111D01*
X203532916Y-63622162D01*
X203532912Y-63622161D01*
X203532911Y-63622160D01*
X203532910Y-63622160D01*
X203366063Y-63582617D01*
X203194597Y-63582617D01*
X203027751Y-63622160D01*
X203027749Y-63622160D01*
X203027748Y-63622161D01*
X203027744Y-63622162D01*
X202874527Y-63699111D01*
X202874519Y-63699117D01*
X202829991Y-63735390D01*
X202764543Y-63762905D01*
X202750413Y-63763700D01*
X201296358Y-63763700D01*
X201228237Y-63743698D01*
X201226356Y-63742465D01*
X201080337Y-63644899D01*
X201080338Y-63644899D01*
X201080336Y-63644898D01*
X200963429Y-63596473D01*
X200915003Y-63576414D01*
X200915001Y-63576413D01*
X200915000Y-63576413D01*
X200826645Y-63558838D01*
X200739481Y-63541500D01*
X200739479Y-63541500D01*
X200560521Y-63541500D01*
X200560518Y-63541500D01*
X200429771Y-63567507D01*
X200385000Y-63576413D01*
X200384999Y-63576413D01*
X200384996Y-63576414D01*
X200219662Y-63644899D01*
X200070869Y-63744319D01*
X200070862Y-63744324D01*
X199944324Y-63870862D01*
X199944319Y-63870869D01*
X199844899Y-64019662D01*
X199776414Y-64184996D01*
X199776413Y-64184999D01*
X199776413Y-64185000D01*
X199767507Y-64229771D01*
X199741500Y-64360518D01*
X199741500Y-64539481D01*
X199751968Y-64592107D01*
X199776150Y-64713680D01*
X199776414Y-64715003D01*
X199781419Y-64727086D01*
X199844898Y-64880336D01*
X199944322Y-65029135D01*
X200070865Y-65155678D01*
X200219664Y-65255102D01*
X200385000Y-65323587D01*
X200560521Y-65358500D01*
X200560522Y-65358500D01*
X200739478Y-65358500D01*
X200739479Y-65358500D01*
X200915000Y-65323587D01*
X200942096Y-65312363D01*
X201025438Y-65277842D01*
X201096028Y-65270252D01*
X201159515Y-65302031D01*
X201195743Y-65363088D01*
X201193209Y-65434040D01*
X201186256Y-65450795D01*
X201172634Y-65477919D01*
X201172633Y-65477921D01*
X201133116Y-65644657D01*
X201133116Y-65816003D01*
X201172633Y-65982738D01*
X201249531Y-66135857D01*
X201249533Y-66135861D01*
X201313273Y-66214107D01*
X201344977Y-66245811D01*
X201344979Y-66245811D01*
X201933292Y-65657498D01*
X201995604Y-65623472D01*
X202066419Y-65628537D01*
X202111482Y-65657498D01*
X202292501Y-65838517D01*
X202326527Y-65900829D01*
X202321462Y-65971644D01*
X202292501Y-66016707D01*
X201704188Y-66605020D01*
X201704188Y-66605022D01*
X201735892Y-66636726D01*
X201814138Y-66700466D01*
X201814142Y-66700468D01*
X201967263Y-66777367D01*
X201967268Y-66777368D01*
X202086858Y-66805713D01*
X202148530Y-66840885D01*
X202181395Y-66903817D01*
X202182519Y-66946239D01*
X202182126Y-66948973D01*
X202182126Y-66948980D01*
X202202934Y-67093706D01*
X202202935Y-67093709D01*
X202202936Y-67093711D01*
X202217610Y-67125844D01*
X202218155Y-67127036D01*
X202228258Y-67197310D01*
X202198765Y-67261890D01*
X202139038Y-67300273D01*
X202068042Y-67300273D01*
X202023226Y-67276462D01*
X201951131Y-67216821D01*
X201951118Y-67216810D01*
X201609365Y-66979285D01*
X201581304Y-66959782D01*
X201581295Y-66959777D01*
X201191304Y-66734616D01*
X201191293Y-66734610D01*
X201191287Y-66734607D01*
X201056613Y-66671234D01*
X200783794Y-66542854D01*
X200361683Y-66385872D01*
X200054122Y-66300000D01*
X199927914Y-66264762D01*
X199927908Y-66264760D01*
X199927898Y-66264758D01*
X199485547Y-66180376D01*
X199485534Y-66180374D01*
X199037641Y-66133298D01*
X198587396Y-66123866D01*
X198587385Y-66123866D01*
X198137922Y-66152143D01*
X198137921Y-66152144D01*
X197692405Y-66217932D01*
X197692381Y-66217937D01*
X197253926Y-66320775D01*
X196825634Y-66459936D01*
X196825630Y-66459938D01*
X196825625Y-66459939D01*
X196825619Y-66459942D01*
X196480494Y-66605020D01*
X196410459Y-66634460D01*
X196410454Y-66634462D01*
X196011332Y-66843117D01*
X195631103Y-67084419D01*
X195631088Y-67084429D01*
X195272374Y-67356708D01*
X195272369Y-67356712D01*
X194937711Y-67658038D01*
X194937683Y-67658065D01*
X194629402Y-67986351D01*
X194629401Y-67986353D01*
X194349668Y-68339287D01*
X194349658Y-68339301D01*
X194100446Y-68714394D01*
X194100442Y-68714400D01*
X193910529Y-69059853D01*
X193883478Y-69109058D01*
X193718121Y-69480458D01*
X193700303Y-69520477D01*
X193700296Y-69520493D01*
X193552199Y-69945768D01*
X193552188Y-69945805D01*
X193440200Y-70381972D01*
X193440192Y-70382007D01*
X193365091Y-70826031D01*
X193365091Y-70826033D01*
X193327405Y-71274809D01*
X190437545Y-71274809D01*
X190437545Y-70296362D01*
X190436667Y-70288192D01*
X190431035Y-70235803D01*
X190431033Y-70235795D01*
X190384113Y-70110000D01*
X190379934Y-70098796D01*
X190379933Y-70098794D01*
X190379932Y-70098792D01*
X190292306Y-69981738D01*
X190175253Y-69894113D01*
X190175250Y-69894112D01*
X190175249Y-69894111D01*
X190172415Y-69893054D01*
X190169996Y-69891243D01*
X190167344Y-69889795D01*
X190167552Y-69889413D01*
X190115583Y-69850509D01*
X190090772Y-69783989D01*
X190105864Y-69714614D01*
X190156066Y-69664412D01*
X190172407Y-69656949D01*
X190175249Y-69655889D01*
X190292306Y-69568261D01*
X190299614Y-69558499D01*
X190379932Y-69451207D01*
X190379932Y-69451206D01*
X190379934Y-69451204D01*
X190431034Y-69314201D01*
X190431180Y-69312851D01*
X190437544Y-69253649D01*
X190437545Y-69253632D01*
X190437545Y-68096367D01*
X190437544Y-68096350D01*
X190431035Y-68035803D01*
X190431033Y-68035795D01*
X190381495Y-67902981D01*
X190379934Y-67898796D01*
X190379933Y-67898794D01*
X190379932Y-67898792D01*
X190315477Y-67812691D01*
X190290666Y-67746171D01*
X190290345Y-67737182D01*
X190290345Y-67426337D01*
X190309105Y-67360189D01*
X190323347Y-67337101D01*
X190377281Y-67174336D01*
X190380080Y-67146936D01*
X190387545Y-67073880D01*
X190387545Y-66476119D01*
X190377292Y-66375770D01*
X190377281Y-66375664D01*
X190323347Y-66212899D01*
X190242438Y-66081726D01*
X190223702Y-66013250D01*
X190244917Y-65945577D01*
X190255102Y-65930336D01*
X190323587Y-65765000D01*
X190358500Y-65589479D01*
X190358500Y-65410521D01*
X190323587Y-65235000D01*
X190255102Y-65069664D01*
X190155678Y-64920865D01*
X190029135Y-64794322D01*
X189880336Y-64694898D01*
X189742073Y-64637627D01*
X189715003Y-64626414D01*
X189715001Y-64626413D01*
X189715000Y-64626413D01*
X189626645Y-64608838D01*
X189539481Y-64591500D01*
X189539479Y-64591500D01*
X189360521Y-64591500D01*
X189360518Y-64591500D01*
X189241935Y-64615088D01*
X189185000Y-64626413D01*
X189184999Y-64626413D01*
X189184996Y-64626414D01*
X189019662Y-64694899D01*
X188870869Y-64794319D01*
X188870862Y-64794324D01*
X188744324Y-64920862D01*
X188744319Y-64920869D01*
X188644899Y-65069662D01*
X188576414Y-65234996D01*
X188576413Y-65234999D01*
X188576413Y-65235000D01*
X188569401Y-65270252D01*
X188541500Y-65410518D01*
X188541500Y-65589484D01*
X188564927Y-65707257D01*
X188558599Y-65777971D01*
X188515044Y-65834038D01*
X188448092Y-65857657D01*
X188401715Y-65851443D01*
X188253277Y-65802256D01*
X188253274Y-65802255D01*
X188152897Y-65792000D01*
X188133045Y-65792000D01*
X188133045Y-66649000D01*
X188113043Y-66717121D01*
X188059387Y-66763614D01*
X188007045Y-66775000D01*
X187879045Y-66775000D01*
X187879045Y-66903000D01*
X187859043Y-66971121D01*
X187805387Y-67017614D01*
X187753045Y-67029000D01*
X186921045Y-67029000D01*
X186921045Y-67073852D01*
X186931300Y-67174229D01*
X186931302Y-67174241D01*
X186985197Y-67336884D01*
X187075154Y-67482728D01*
X187075159Y-67482734D01*
X187117916Y-67525491D01*
X187122663Y-67534185D01*
X187130530Y-67540213D01*
X187139400Y-67564834D01*
X187151942Y-67587803D01*
X187151235Y-67597686D01*
X187154593Y-67607008D01*
X187148744Y-67632513D01*
X187146877Y-67658618D01*
X187140515Y-67668395D01*
X187138724Y-67676208D01*
X187125945Y-67690789D01*
X187116911Y-67704675D01*
X187110973Y-67710481D01*
X187015784Y-67781739D01*
X186954843Y-67863146D01*
X186947885Y-67869950D01*
X186924777Y-67882233D01*
X186903826Y-67897917D01*
X186893943Y-67898623D01*
X186885195Y-67903274D01*
X186859114Y-67901114D01*
X186833011Y-67902981D01*
X186821229Y-67897977D01*
X186814441Y-67897415D01*
X186807645Y-67892208D01*
X186789793Y-67884626D01*
X186767829Y-67869950D01*
X186730336Y-67844898D01*
X186609822Y-67794979D01*
X186565003Y-67776414D01*
X186565001Y-67776413D01*
X186565000Y-67776413D01*
X186476645Y-67758838D01*
X186389481Y-67741500D01*
X186389479Y-67741500D01*
X186210521Y-67741500D01*
X186210518Y-67741500D01*
X186079771Y-67767507D01*
X186035000Y-67776413D01*
X186034999Y-67776413D01*
X186034996Y-67776414D01*
X185869662Y-67844899D01*
X185720869Y-67944319D01*
X185720862Y-67944324D01*
X185594324Y-68070862D01*
X185594319Y-68070869D01*
X185494899Y-68219662D01*
X185426414Y-68384996D01*
X185426413Y-68384999D01*
X185426413Y-68385000D01*
X185423327Y-68400517D01*
X185391500Y-68560518D01*
X185391500Y-68560521D01*
X185391500Y-68739479D01*
X185426413Y-68915000D01*
X185494898Y-69080336D01*
X185594322Y-69229135D01*
X185720865Y-69355678D01*
X185869664Y-69455102D01*
X186035000Y-69523587D01*
X186210521Y-69558500D01*
X186210522Y-69558500D01*
X186389478Y-69558500D01*
X186389479Y-69558500D01*
X186565000Y-69523587D01*
X186730336Y-69455102D01*
X186764845Y-69432043D01*
X186832594Y-69410829D01*
X186901061Y-69429611D01*
X186935713Y-69461300D01*
X187015783Y-69568261D01*
X187132837Y-69655887D01*
X187132839Y-69655888D01*
X187132841Y-69655889D01*
X187134334Y-69656445D01*
X187135674Y-69656946D01*
X187138090Y-69658755D01*
X187140746Y-69660205D01*
X187140537Y-69660586D01*
X187192508Y-69699494D01*
X187217317Y-69766015D01*
X187202224Y-69835389D01*
X187152020Y-69885589D01*
X187135674Y-69893054D01*
X187132842Y-69894110D01*
X187132837Y-69894112D01*
X187015783Y-69981738D01*
X186928157Y-70098792D01*
X186928155Y-70098797D01*
X186877056Y-70235795D01*
X186877054Y-70235803D01*
X186870545Y-70296350D01*
X186870545Y-71453649D01*
X186877054Y-71514196D01*
X186877056Y-71514204D01*
X186928155Y-71651202D01*
X186928157Y-71651207D01*
X187015783Y-71768261D01*
X187104329Y-71834546D01*
X187146876Y-71891382D01*
X187151940Y-71962198D01*
X187117916Y-72024509D01*
X187075155Y-72067269D01*
X187075154Y-72067271D01*
X186985197Y-72213115D01*
X186931302Y-72375758D01*
X186931300Y-72375770D01*
X186921045Y-72476147D01*
X186921045Y-72521000D01*
X187753045Y-72521000D01*
X187821166Y-72541002D01*
X187867659Y-72594658D01*
X187879045Y-72647000D01*
X187879045Y-72775000D01*
X188007045Y-72775000D01*
X188075166Y-72795002D01*
X188121659Y-72848658D01*
X188133045Y-72901000D01*
X188133045Y-73758000D01*
X188152898Y-73758000D01*
X188152897Y-73757999D01*
X188253274Y-73747744D01*
X188253286Y-73747742D01*
X188415929Y-73693847D01*
X188550598Y-73610783D01*
X188619077Y-73592046D01*
X188686816Y-73613305D01*
X188732308Y-73667812D01*
X188742745Y-73718024D01*
X188742745Y-74746641D01*
X188769119Y-74879231D01*
X188769121Y-74879236D01*
X188776697Y-74897527D01*
X188820854Y-75004130D01*
X188895961Y-75116536D01*
X192516916Y-78737491D01*
X192612509Y-78833084D01*
X192703280Y-78893735D01*
X192748808Y-78948212D01*
X192757656Y-79018655D01*
X192727014Y-79082699D01*
X192666612Y-79120011D01*
X192633278Y-79124500D01*
X170851500Y-79124500D01*
X170783379Y-79104498D01*
X170736886Y-79050842D01*
X170725500Y-78998500D01*
X170725500Y-73151919D01*
X170725557Y-73148113D01*
X170733024Y-72901000D01*
X170743583Y-72551543D01*
X170744043Y-72543955D01*
X170797882Y-71951480D01*
X170798792Y-71943976D01*
X170888313Y-71355788D01*
X170889678Y-71348340D01*
X171014548Y-70766636D01*
X171016359Y-70759293D01*
X171176124Y-70186188D01*
X171178362Y-70179005D01*
X171222880Y-70049997D01*
X174800000Y-70049997D01*
X174800000Y-73050000D01*
X175550000Y-74550000D01*
X175550004Y-74550005D01*
X176549996Y-75549997D01*
X176549999Y-75549999D01*
X176550000Y-75550000D01*
X177550000Y-76300000D01*
X179050000Y-76800000D01*
X180800001Y-76800000D01*
X180800001Y-76799999D01*
X181800000Y-76550000D01*
X183300000Y-75800000D01*
X184300000Y-74800000D01*
X185050000Y-73550000D01*
X185150472Y-73148113D01*
X185169037Y-73073852D01*
X186921045Y-73073852D01*
X186931300Y-73174229D01*
X186931302Y-73174241D01*
X186985197Y-73336884D01*
X187075154Y-73482728D01*
X187075159Y-73482734D01*
X187196310Y-73603885D01*
X187196316Y-73603890D01*
X187342160Y-73693847D01*
X187504803Y-73747742D01*
X187504815Y-73747744D01*
X187605192Y-73757999D01*
X187605192Y-73758000D01*
X187625045Y-73758000D01*
X187625045Y-73029000D01*
X186921045Y-73029000D01*
X186921045Y-73073852D01*
X185169037Y-73073852D01*
X185200938Y-72946249D01*
X185200938Y-72946248D01*
X185212250Y-72901000D01*
X185300000Y-72550000D01*
X185300000Y-70550000D01*
X185050000Y-69800000D01*
X184550000Y-68800000D01*
X184549996Y-68799995D01*
X184549994Y-68799991D01*
X183799997Y-67799996D01*
X183300005Y-67300004D01*
X183300000Y-67300000D01*
X181871292Y-66585646D01*
X181652294Y-66476147D01*
X186921045Y-66476147D01*
X186921045Y-66521000D01*
X187625045Y-66521000D01*
X187625045Y-65792000D01*
X187605192Y-65792000D01*
X187504815Y-65802255D01*
X187504803Y-65802257D01*
X187342160Y-65856152D01*
X187196316Y-65946109D01*
X187196310Y-65946114D01*
X187075159Y-66067265D01*
X187075154Y-66067271D01*
X186985197Y-66213115D01*
X186931302Y-66375758D01*
X186931300Y-66375770D01*
X186921045Y-66476147D01*
X181652294Y-66476147D01*
X181300001Y-66300000D01*
X181300000Y-66300000D01*
X178800000Y-66300000D01*
X178050000Y-66549999D01*
X177049998Y-67050001D01*
X177049991Y-67050005D01*
X176050000Y-67799999D01*
X175299999Y-68799999D01*
X174800000Y-70049997D01*
X171222880Y-70049997D01*
X171372445Y-69616572D01*
X171375127Y-69609499D01*
X171602805Y-69059835D01*
X171605914Y-69052929D01*
X171866370Y-68518005D01*
X171869870Y-68511335D01*
X172162147Y-67993116D01*
X172166064Y-67986636D01*
X172489087Y-67487022D01*
X172493400Y-67480776D01*
X172515293Y-67451023D01*
X172845987Y-67001596D01*
X172850662Y-66995629D01*
X173231563Y-66538582D01*
X173236565Y-66532935D01*
X173644363Y-66099724D01*
X173649724Y-66094363D01*
X174082935Y-65686565D01*
X174088582Y-65681563D01*
X174545629Y-65300662D01*
X174551601Y-65295984D01*
X174661662Y-65215000D01*
X175030777Y-64943399D01*
X175037022Y-64939087D01*
X175536636Y-64616064D01*
X175543116Y-64612147D01*
X176061335Y-64319870D01*
X176068005Y-64316370D01*
X176602929Y-64055914D01*
X176609835Y-64052805D01*
X177159499Y-63825127D01*
X177166561Y-63822448D01*
X177729005Y-63628362D01*
X177736188Y-63626124D01*
X178309293Y-63466359D01*
X178316636Y-63464548D01*
X178898340Y-63339678D01*
X178905788Y-63338313D01*
X179493976Y-63248792D01*
X179501480Y-63247882D01*
X180093965Y-63194042D01*
X180101543Y-63193583D01*
X180698114Y-63175557D01*
X180701920Y-63175500D01*
X180708285Y-63175500D01*
X216691715Y-63175500D01*
X216698080Y-63175500D01*
X216701886Y-63175557D01*
G37*
%TD.AperFunction*%
%TD*%
M02*
