%TF.GenerationSoftware,KiCad,Pcbnew,(6.0.10)*%
%TF.CreationDate,2023-01-10T11:01:26+01:00*%
%TF.ProjectId,Touchpad,546f7563-6870-4616-942e-6b696361645f,rev?*%
%TF.SameCoordinates,Original*%
%TF.FileFunction,Legend,Bot*%
%TF.FilePolarity,Positive*%
%FSLAX46Y46*%
G04 Gerber Fmt 4.6, Leading zero omitted, Abs format (unit mm)*
G04 Created by KiCad (PCBNEW (6.0.10)) date 2023-01-10 11:01:26*
%MOMM*%
%LPD*%
G01*
G04 APERTURE LIST*
%ADD10C,0.150000*%
%ADD11C,0.120000*%
G04 APERTURE END LIST*
D10*
X186619047Y-77452380D02*
X186619047Y-78166666D01*
X186666666Y-78309523D01*
X186761904Y-78404761D01*
X186904761Y-78452380D01*
X187000000Y-78452380D01*
X185666666Y-78452380D02*
X186142857Y-78452380D01*
X186142857Y-77452380D01*
X184761904Y-78357142D02*
X184809523Y-78404761D01*
X184952380Y-78452380D01*
X185047619Y-78452380D01*
X185190476Y-78404761D01*
X185285714Y-78309523D01*
X185333333Y-78214285D01*
X185380952Y-78023809D01*
X185380952Y-77880952D01*
X185333333Y-77690476D01*
X185285714Y-77595238D01*
X185190476Y-77500000D01*
X185047619Y-77452380D01*
X184952380Y-77452380D01*
X184809523Y-77500000D01*
X184761904Y-77547619D01*
X184047619Y-77452380D02*
X184047619Y-78166666D01*
X184095238Y-78309523D01*
X184190476Y-78404761D01*
X184333333Y-78452380D01*
X184428571Y-78452380D01*
X183095238Y-78452380D02*
X183571428Y-78452380D01*
X183571428Y-77452380D01*
X182190476Y-78357142D02*
X182238095Y-78404761D01*
X182380952Y-78452380D01*
X182476190Y-78452380D01*
X182619047Y-78404761D01*
X182714285Y-78309523D01*
X182761904Y-78214285D01*
X182809523Y-78023809D01*
X182809523Y-77880952D01*
X182761904Y-77690476D01*
X182714285Y-77595238D01*
X182619047Y-77500000D01*
X182476190Y-77452380D01*
X182380952Y-77452380D01*
X182238095Y-77500000D01*
X182190476Y-77547619D01*
X181476190Y-77452380D02*
X181476190Y-78166666D01*
X181523809Y-78309523D01*
X181619047Y-78404761D01*
X181761904Y-78452380D01*
X181857142Y-78452380D01*
X180523809Y-78452380D02*
X181000000Y-78452380D01*
X181000000Y-77452380D01*
X179619047Y-78357142D02*
X179666666Y-78404761D01*
X179809523Y-78452380D01*
X179904761Y-78452380D01*
X180047619Y-78404761D01*
X180142857Y-78309523D01*
X180190476Y-78214285D01*
X180238095Y-78023809D01*
X180238095Y-77880952D01*
X180190476Y-77690476D01*
X180142857Y-77595238D01*
X180047619Y-77500000D01*
X179904761Y-77452380D01*
X179809523Y-77452380D01*
X179666666Y-77500000D01*
X179619047Y-77547619D01*
X178904761Y-77452380D02*
X178904761Y-78166666D01*
X178952380Y-78309523D01*
X179047619Y-78404761D01*
X179190476Y-78452380D01*
X179285714Y-78452380D01*
X177952380Y-78452380D02*
X178428571Y-78452380D01*
X178428571Y-77452380D01*
X177047619Y-78357142D02*
X177095238Y-78404761D01*
X177238095Y-78452380D01*
X177333333Y-78452380D01*
X177476190Y-78404761D01*
X177571428Y-78309523D01*
X177619047Y-78214285D01*
X177666666Y-78023809D01*
X177666666Y-77880952D01*
X177619047Y-77690476D01*
X177571428Y-77595238D01*
X177476190Y-77500000D01*
X177333333Y-77452380D01*
X177238095Y-77452380D01*
X177095238Y-77500000D01*
X177047619Y-77547619D01*
D11*
%TO.C,C3*%
X188794625Y-67285000D02*
X188513465Y-67285000D01*
X188794625Y-66265000D02*
X188513465Y-66265000D01*
%TO.C,C2*%
X207011219Y-69660030D02*
X207210030Y-69461219D01*
X206289970Y-68938781D02*
X206488781Y-68739970D01*
%TO.C,U3*%
X210125162Y-66697954D02*
X211857574Y-64965543D01*
X213674838Y-67702046D02*
X212402046Y-68974838D01*
%TO.C,C4*%
X188794625Y-72265000D02*
X188513465Y-72265000D01*
X188794625Y-73285000D02*
X188513465Y-73285000D01*
%TO.C,C6*%
X209638781Y-69660030D02*
X209439970Y-69461219D01*
X210360030Y-68938781D02*
X210161219Y-68739970D01*
%TO.C,U2*%
X190264045Y-68875000D02*
X190264045Y-70675000D01*
X187044045Y-70675000D02*
X187044045Y-68225000D01*
%TO.C,C1*%
X202488781Y-64739970D02*
X202289970Y-64938781D01*
X203210030Y-65461219D02*
X203011219Y-65660030D01*
%TO.C,U1*%
X205252046Y-65425162D02*
X206524838Y-66697954D01*
X204247954Y-68974838D02*
X202515543Y-67242426D01*
%TO.C,J1*%
X206535000Y-78115000D02*
X210065000Y-78115000D01*
X210065000Y-74250000D02*
X210065000Y-74185000D01*
X206535000Y-78115000D02*
X206535000Y-78050000D01*
X206535000Y-74250000D02*
X206535000Y-74185000D01*
X206535000Y-74185000D02*
X210065000Y-74185000D01*
X205210000Y-78050000D02*
X206535000Y-78050000D01*
X210065000Y-78115000D02*
X210065000Y-78050000D01*
%TO.C,C5*%
X213638781Y-65660030D02*
X213439970Y-65461219D01*
X214360030Y-64938781D02*
X214161219Y-64739970D01*
%TD*%
M02*
