%TF.GenerationSoftware,KiCad,Pcbnew,(6.0.10)*%
%TF.CreationDate,2023-01-10T11:01:26+01:00*%
%TF.ProjectId,Touchpad,546f7563-6870-4616-942e-6b696361645f,rev?*%
%TF.SameCoordinates,Original*%
%TF.FileFunction,Soldermask,Top*%
%TF.FilePolarity,Negative*%
%FSLAX46Y46*%
G04 Gerber Fmt 4.6, Leading zero omitted, Abs format (unit mm)*
G04 Created by KiCad (PCBNEW (6.0.10)) date 2023-01-10 11:01:26*
%MOMM*%
%LPD*%
G01*
G04 APERTURE LIST*
%ADD10C,0.001000*%
G04 APERTURE END LIST*
%TO.C,TP3*%
G36*
X217733847Y-67646093D02*
G01*
X217843847Y-67746093D01*
X221433847Y-71326093D01*
X221483847Y-71406093D01*
X221510000Y-71503930D01*
X221510000Y-71566093D01*
X221500000Y-71643930D01*
X221463847Y-71726093D01*
X221313847Y-71886093D01*
X217763847Y-75426093D01*
X217713847Y-75453930D01*
X217663847Y-75463930D01*
X217613847Y-75463930D01*
X217553847Y-75446093D01*
X217493847Y-75416093D01*
X217453847Y-75376093D01*
X217433847Y-75336093D01*
X217413847Y-75286093D01*
X217413847Y-73436093D01*
X217403847Y-73366093D01*
X217393847Y-73316093D01*
X217373847Y-73246093D01*
X217343847Y-73196093D01*
X217303847Y-73136093D01*
X217263847Y-73086093D01*
X217193847Y-73036093D01*
X217123847Y-72996093D01*
X217043847Y-72966093D01*
X216963847Y-72946093D01*
X213653847Y-72946093D01*
X213583847Y-72926093D01*
X213523847Y-72896093D01*
X213453847Y-72836093D01*
X213403847Y-72776093D01*
X213373847Y-72716093D01*
X213353847Y-72656093D01*
X213343847Y-72606093D01*
X213343847Y-70466093D01*
X213353847Y-70426093D01*
X213373847Y-70366093D01*
X213403847Y-70316093D01*
X213433847Y-70276093D01*
X213483847Y-70226093D01*
X213523847Y-70196093D01*
X213603847Y-70156093D01*
X213643847Y-70146093D01*
X216943847Y-70146093D01*
X217043847Y-70126093D01*
X217123847Y-70096093D01*
X217193847Y-70056093D01*
X217233847Y-70026093D01*
X217283847Y-69976093D01*
X217323847Y-69926093D01*
X217363847Y-69856093D01*
X217393847Y-69776093D01*
X217413847Y-69656093D01*
X217413847Y-67756093D01*
X217453847Y-67676093D01*
X217533847Y-67616093D01*
X217670000Y-67613930D01*
X217733847Y-67646093D01*
G37*
D10*
X217733847Y-67646093D02*
X217843847Y-67746093D01*
X221433847Y-71326093D01*
X221483847Y-71406093D01*
X221510000Y-71503930D01*
X221510000Y-71566093D01*
X221500000Y-71643930D01*
X221463847Y-71726093D01*
X221313847Y-71886093D01*
X217763847Y-75426093D01*
X217713847Y-75453930D01*
X217663847Y-75463930D01*
X217613847Y-75463930D01*
X217553847Y-75446093D01*
X217493847Y-75416093D01*
X217453847Y-75376093D01*
X217433847Y-75336093D01*
X217413847Y-75286093D01*
X217413847Y-73436093D01*
X217403847Y-73366093D01*
X217393847Y-73316093D01*
X217373847Y-73246093D01*
X217343847Y-73196093D01*
X217303847Y-73136093D01*
X217263847Y-73086093D01*
X217193847Y-73036093D01*
X217123847Y-72996093D01*
X217043847Y-72966093D01*
X216963847Y-72946093D01*
X213653847Y-72946093D01*
X213583847Y-72926093D01*
X213523847Y-72896093D01*
X213453847Y-72836093D01*
X213403847Y-72776093D01*
X213373847Y-72716093D01*
X213353847Y-72656093D01*
X213343847Y-72606093D01*
X213343847Y-70466093D01*
X213353847Y-70426093D01*
X213373847Y-70366093D01*
X213403847Y-70316093D01*
X213433847Y-70276093D01*
X213483847Y-70226093D01*
X213523847Y-70196093D01*
X213603847Y-70156093D01*
X213643847Y-70146093D01*
X216943847Y-70146093D01*
X217043847Y-70126093D01*
X217123847Y-70096093D01*
X217193847Y-70056093D01*
X217233847Y-70026093D01*
X217283847Y-69976093D01*
X217323847Y-69926093D01*
X217363847Y-69856093D01*
X217393847Y-69776093D01*
X217413847Y-69656093D01*
X217413847Y-67756093D01*
X217453847Y-67676093D01*
X217533847Y-67616093D01*
X217670000Y-67613930D01*
X217733847Y-67646093D01*
%TO.C,TP1*%
G36*
X201560000Y-68420000D02*
G01*
X201620000Y-68440000D01*
X201680000Y-68480000D01*
X202230000Y-69030000D01*
X202260000Y-69090000D01*
X202280000Y-69160000D01*
X202290000Y-69230000D01*
X202280000Y-69300000D01*
X202250000Y-69370000D01*
X202210000Y-69420000D01*
X197120000Y-74510000D01*
X197080000Y-74540000D01*
X197030000Y-74570000D01*
X196930000Y-74590000D01*
X196890000Y-74590000D01*
X196840000Y-74580000D01*
X196810000Y-74570000D01*
X196770000Y-74550000D01*
X196730000Y-74520000D01*
X194660000Y-72450000D01*
X194640000Y-72420000D01*
X194610000Y-72360000D01*
X194600000Y-72320000D01*
X194590000Y-72260000D01*
X194600000Y-72200000D01*
X194620000Y-72140000D01*
X194650000Y-72090000D01*
X194690000Y-72040000D01*
X195180000Y-71550000D01*
X195240000Y-71510000D01*
X195290000Y-71480000D01*
X195360000Y-71460000D01*
X195440000Y-71460000D01*
X195480000Y-71470000D01*
X195530000Y-71490000D01*
X195580000Y-71520000D01*
X195630000Y-71570000D01*
X196680000Y-72610000D01*
X196730000Y-72640000D01*
X196780000Y-72660000D01*
X196860000Y-72680000D01*
X196930000Y-72690000D01*
X196990000Y-72690000D01*
X197070000Y-72660000D01*
X197130000Y-72630000D01*
X197200000Y-72580000D01*
X201300000Y-68480000D01*
X201360000Y-68440000D01*
X201420000Y-68420000D01*
X201480000Y-68410000D01*
X201560000Y-68420000D01*
G37*
X201560000Y-68420000D02*
X201620000Y-68440000D01*
X201680000Y-68480000D01*
X202230000Y-69030000D01*
X202260000Y-69090000D01*
X202280000Y-69160000D01*
X202290000Y-69230000D01*
X202280000Y-69300000D01*
X202250000Y-69370000D01*
X202210000Y-69420000D01*
X197120000Y-74510000D01*
X197080000Y-74540000D01*
X197030000Y-74570000D01*
X196930000Y-74590000D01*
X196890000Y-74590000D01*
X196840000Y-74580000D01*
X196810000Y-74570000D01*
X196770000Y-74550000D01*
X196730000Y-74520000D01*
X194660000Y-72450000D01*
X194640000Y-72420000D01*
X194610000Y-72360000D01*
X194600000Y-72320000D01*
X194590000Y-72260000D01*
X194600000Y-72200000D01*
X194620000Y-72140000D01*
X194650000Y-72090000D01*
X194690000Y-72040000D01*
X195180000Y-71550000D01*
X195240000Y-71510000D01*
X195290000Y-71480000D01*
X195360000Y-71460000D01*
X195440000Y-71460000D01*
X195480000Y-71470000D01*
X195530000Y-71490000D01*
X195580000Y-71520000D01*
X195630000Y-71570000D01*
X196680000Y-72610000D01*
X196730000Y-72640000D01*
X196780000Y-72660000D01*
X196860000Y-72680000D01*
X196930000Y-72690000D01*
X196990000Y-72690000D01*
X197070000Y-72660000D01*
X197130000Y-72630000D01*
X197200000Y-72580000D01*
X201300000Y-68480000D01*
X201360000Y-68440000D01*
X201420000Y-68420000D01*
X201480000Y-68410000D01*
X201560000Y-68420000D01*
%TO.C,TP2*%
G36*
X179850000Y-67593930D02*
G01*
X179910000Y-67623930D01*
X179950000Y-67663930D01*
X179970000Y-67703930D01*
X179990000Y-67753930D01*
X179990000Y-69603930D01*
X180000000Y-69673930D01*
X180010000Y-69723930D01*
X180030000Y-69793930D01*
X180060000Y-69843930D01*
X180100000Y-69903930D01*
X180140000Y-69953930D01*
X180210000Y-70003930D01*
X180280000Y-70043930D01*
X180360000Y-70073930D01*
X180440000Y-70093930D01*
X183750000Y-70093930D01*
X183820000Y-70113930D01*
X183880000Y-70143930D01*
X183950000Y-70203930D01*
X184000000Y-70263930D01*
X184030000Y-70323930D01*
X184050000Y-70383930D01*
X184060000Y-70433930D01*
X184060000Y-72573930D01*
X184050000Y-72613930D01*
X184030000Y-72673930D01*
X184000000Y-72723930D01*
X183970000Y-72763930D01*
X183920000Y-72813930D01*
X183880000Y-72843930D01*
X183800000Y-72883930D01*
X183760000Y-72893930D01*
X180460000Y-72893930D01*
X180360000Y-72913930D01*
X180280000Y-72943930D01*
X180210000Y-72983930D01*
X180170000Y-73013930D01*
X180120000Y-73063930D01*
X180080000Y-73113930D01*
X180040000Y-73183930D01*
X180010000Y-73263930D01*
X179990000Y-73383930D01*
X179990000Y-75283930D01*
X179950000Y-75363930D01*
X179870000Y-75423930D01*
X179740000Y-75433930D01*
X179670000Y-75393930D01*
X179560000Y-75293930D01*
X175970000Y-71713930D01*
X175920000Y-71633930D01*
X175890000Y-71543930D01*
X175890000Y-71473930D01*
X175900000Y-71393930D01*
X175940000Y-71313930D01*
X176090000Y-71153930D01*
X179640000Y-67613930D01*
X179690000Y-67583930D01*
X179740000Y-67573930D01*
X179790000Y-67573930D01*
X179850000Y-67593930D01*
G37*
X179850000Y-67593930D02*
X179910000Y-67623930D01*
X179950000Y-67663930D01*
X179970000Y-67703930D01*
X179990000Y-67753930D01*
X179990000Y-69603930D01*
X180000000Y-69673930D01*
X180010000Y-69723930D01*
X180030000Y-69793930D01*
X180060000Y-69843930D01*
X180100000Y-69903930D01*
X180140000Y-69953930D01*
X180210000Y-70003930D01*
X180280000Y-70043930D01*
X180360000Y-70073930D01*
X180440000Y-70093930D01*
X183750000Y-70093930D01*
X183820000Y-70113930D01*
X183880000Y-70143930D01*
X183950000Y-70203930D01*
X184000000Y-70263930D01*
X184030000Y-70323930D01*
X184050000Y-70383930D01*
X184060000Y-70433930D01*
X184060000Y-72573930D01*
X184050000Y-72613930D01*
X184030000Y-72673930D01*
X184000000Y-72723930D01*
X183970000Y-72763930D01*
X183920000Y-72813930D01*
X183880000Y-72843930D01*
X183800000Y-72883930D01*
X183760000Y-72893930D01*
X180460000Y-72893930D01*
X180360000Y-72913930D01*
X180280000Y-72943930D01*
X180210000Y-72983930D01*
X180170000Y-73013930D01*
X180120000Y-73063930D01*
X180080000Y-73113930D01*
X180040000Y-73183930D01*
X180010000Y-73263930D01*
X179990000Y-73383930D01*
X179990000Y-75283930D01*
X179950000Y-75363930D01*
X179870000Y-75423930D01*
X179740000Y-75433930D01*
X179670000Y-75393930D01*
X179560000Y-75293930D01*
X175970000Y-71713930D01*
X175920000Y-71633930D01*
X175890000Y-71543930D01*
X175890000Y-71473930D01*
X175900000Y-71393930D01*
X175940000Y-71313930D01*
X176090000Y-71153930D01*
X179640000Y-67613930D01*
X179690000Y-67583930D01*
X179740000Y-67573930D01*
X179790000Y-67573930D01*
X179850000Y-67593930D01*
%TD*%
M02*
