%TF.GenerationSoftware,KiCad,Pcbnew,9.0.7*%
%TF.CreationDate,2026-01-26T09:51:23+01:00*%
%TF.ProjectId,Touchpad,546f7563-6870-4616-942e-6b696361645f,rev?*%
%TF.SameCoordinates,Original*%
%TF.FileFunction,Legend,Bot*%
%TF.FilePolarity,Positive*%
%FSLAX46Y46*%
G04 Gerber Fmt 4.6, Leading zero omitted, Abs format (unit mm)*
G04 Created by KiCad (PCBNEW 9.0.7) date 2026-01-26 09:51:23*
%MOMM*%
%LPD*%
G01*
G04 APERTURE LIST*
%ADD10C,0.150000*%
%ADD11C,0.120000*%
G04 APERTURE END LIST*
D10*
X186619048Y-77454819D02*
X186619048Y-78169104D01*
X186619048Y-78169104D02*
X186666667Y-78311961D01*
X186666667Y-78311961D02*
X186761905Y-78407200D01*
X186761905Y-78407200D02*
X186904762Y-78454819D01*
X186904762Y-78454819D02*
X187000000Y-78454819D01*
X185666667Y-78454819D02*
X186142857Y-78454819D01*
X186142857Y-78454819D02*
X186142857Y-77454819D01*
X184761905Y-78359580D02*
X184809524Y-78407200D01*
X184809524Y-78407200D02*
X184952381Y-78454819D01*
X184952381Y-78454819D02*
X185047619Y-78454819D01*
X185047619Y-78454819D02*
X185190476Y-78407200D01*
X185190476Y-78407200D02*
X185285714Y-78311961D01*
X185285714Y-78311961D02*
X185333333Y-78216723D01*
X185333333Y-78216723D02*
X185380952Y-78026247D01*
X185380952Y-78026247D02*
X185380952Y-77883390D01*
X185380952Y-77883390D02*
X185333333Y-77692914D01*
X185333333Y-77692914D02*
X185285714Y-77597676D01*
X185285714Y-77597676D02*
X185190476Y-77502438D01*
X185190476Y-77502438D02*
X185047619Y-77454819D01*
X185047619Y-77454819D02*
X184952381Y-77454819D01*
X184952381Y-77454819D02*
X184809524Y-77502438D01*
X184809524Y-77502438D02*
X184761905Y-77550057D01*
X184047619Y-77454819D02*
X184047619Y-78169104D01*
X184047619Y-78169104D02*
X184095238Y-78311961D01*
X184095238Y-78311961D02*
X184190476Y-78407200D01*
X184190476Y-78407200D02*
X184333333Y-78454819D01*
X184333333Y-78454819D02*
X184428571Y-78454819D01*
X183095238Y-78454819D02*
X183571428Y-78454819D01*
X183571428Y-78454819D02*
X183571428Y-77454819D01*
X182190476Y-78359580D02*
X182238095Y-78407200D01*
X182238095Y-78407200D02*
X182380952Y-78454819D01*
X182380952Y-78454819D02*
X182476190Y-78454819D01*
X182476190Y-78454819D02*
X182619047Y-78407200D01*
X182619047Y-78407200D02*
X182714285Y-78311961D01*
X182714285Y-78311961D02*
X182761904Y-78216723D01*
X182761904Y-78216723D02*
X182809523Y-78026247D01*
X182809523Y-78026247D02*
X182809523Y-77883390D01*
X182809523Y-77883390D02*
X182761904Y-77692914D01*
X182761904Y-77692914D02*
X182714285Y-77597676D01*
X182714285Y-77597676D02*
X182619047Y-77502438D01*
X182619047Y-77502438D02*
X182476190Y-77454819D01*
X182476190Y-77454819D02*
X182380952Y-77454819D01*
X182380952Y-77454819D02*
X182238095Y-77502438D01*
X182238095Y-77502438D02*
X182190476Y-77550057D01*
X181476190Y-77454819D02*
X181476190Y-78169104D01*
X181476190Y-78169104D02*
X181523809Y-78311961D01*
X181523809Y-78311961D02*
X181619047Y-78407200D01*
X181619047Y-78407200D02*
X181761904Y-78454819D01*
X181761904Y-78454819D02*
X181857142Y-78454819D01*
X180523809Y-78454819D02*
X180999999Y-78454819D01*
X180999999Y-78454819D02*
X180999999Y-77454819D01*
X179619047Y-78359580D02*
X179666666Y-78407200D01*
X179666666Y-78407200D02*
X179809523Y-78454819D01*
X179809523Y-78454819D02*
X179904761Y-78454819D01*
X179904761Y-78454819D02*
X180047618Y-78407200D01*
X180047618Y-78407200D02*
X180142856Y-78311961D01*
X180142856Y-78311961D02*
X180190475Y-78216723D01*
X180190475Y-78216723D02*
X180238094Y-78026247D01*
X180238094Y-78026247D02*
X180238094Y-77883390D01*
X180238094Y-77883390D02*
X180190475Y-77692914D01*
X180190475Y-77692914D02*
X180142856Y-77597676D01*
X180142856Y-77597676D02*
X180047618Y-77502438D01*
X180047618Y-77502438D02*
X179904761Y-77454819D01*
X179904761Y-77454819D02*
X179809523Y-77454819D01*
X179809523Y-77454819D02*
X179666666Y-77502438D01*
X179666666Y-77502438D02*
X179619047Y-77550057D01*
X178904761Y-77454819D02*
X178904761Y-78169104D01*
X178904761Y-78169104D02*
X178952380Y-78311961D01*
X178952380Y-78311961D02*
X179047618Y-78407200D01*
X179047618Y-78407200D02*
X179190475Y-78454819D01*
X179190475Y-78454819D02*
X179285713Y-78454819D01*
X177952380Y-78454819D02*
X178428570Y-78454819D01*
X178428570Y-78454819D02*
X178428570Y-77454819D01*
X177047618Y-78359580D02*
X177095237Y-78407200D01*
X177095237Y-78407200D02*
X177238094Y-78454819D01*
X177238094Y-78454819D02*
X177333332Y-78454819D01*
X177333332Y-78454819D02*
X177476189Y-78407200D01*
X177476189Y-78407200D02*
X177571427Y-78311961D01*
X177571427Y-78311961D02*
X177619046Y-78216723D01*
X177619046Y-78216723D02*
X177666665Y-78026247D01*
X177666665Y-78026247D02*
X177666665Y-77883390D01*
X177666665Y-77883390D02*
X177619046Y-77692914D01*
X177619046Y-77692914D02*
X177571427Y-77597676D01*
X177571427Y-77597676D02*
X177476189Y-77502438D01*
X177476189Y-77502438D02*
X177333332Y-77454819D01*
X177333332Y-77454819D02*
X177238094Y-77454819D01*
X177238094Y-77454819D02*
X177095237Y-77502438D01*
X177095237Y-77502438D02*
X177047618Y-77550057D01*
D11*
%TO.C,C3*%
X188794625Y-66265000D02*
X188513465Y-66265000D01*
X188794625Y-67285000D02*
X188513465Y-67285000D01*
%TO.C,C2*%
X206289970Y-68938781D02*
X206488781Y-68739970D01*
X207011219Y-69660030D02*
X207210030Y-69461219D01*
%TO.C,U3*%
X210125162Y-66697954D02*
X211857574Y-64965543D01*
X213674838Y-67702046D02*
X212402046Y-68974838D01*
%TO.C,C4*%
X188794625Y-72265000D02*
X188513465Y-72265000D01*
X188794625Y-73285000D02*
X188513465Y-73285000D01*
%TO.C,C6*%
X209638781Y-69660030D02*
X209439970Y-69461219D01*
X210360030Y-68938781D02*
X210161219Y-68739970D01*
%TO.C,U2*%
X187044045Y-70675000D02*
X187044045Y-68225000D01*
X190264045Y-68875000D02*
X190264045Y-70675000D01*
%TO.C,C1*%
X202488781Y-64739970D02*
X202289970Y-64938781D01*
X203210030Y-65461219D02*
X203011219Y-65660030D01*
%TO.C,U1*%
X204247954Y-68974838D02*
X202515543Y-67242426D01*
X205252046Y-65425162D02*
X206524838Y-66697954D01*
%TO.C,J1*%
X205210000Y-78050000D02*
X206535000Y-78050000D01*
X206535000Y-74185000D02*
X210065000Y-74185000D01*
X206535000Y-74250000D02*
X206535000Y-74185000D01*
X206535000Y-78115000D02*
X206535000Y-78050000D01*
X206535000Y-78115000D02*
X210065000Y-78115000D01*
X210065000Y-74250000D02*
X210065000Y-74185000D01*
X210065000Y-78115000D02*
X210065000Y-78050000D01*
%TO.C,C5*%
X213638781Y-65660030D02*
X213439970Y-65461219D01*
X214360030Y-64938781D02*
X214161219Y-64739970D01*
%TD*%
M02*
