%TF.GenerationSoftware,KiCad,Pcbnew,(6.0.8)*%
%TF.CreationDate,2022-11-08T14:12:11+01:00*%
%TF.ProjectId,Touchpad,546f7563-6870-4616-942e-6b696361645f,rev?*%
%TF.SameCoordinates,Original*%
%TF.FileFunction,Profile,NP*%
%FSLAX46Y46*%
G04 Gerber Fmt 4.6, Leading zero omitted, Abs format (unit mm)*
G04 Created by KiCad (PCBNEW (6.0.8)) date 2022-11-08 14:12:11*
%MOMM*%
%LPD*%
G01*
G04 APERTURE LIST*
%TA.AperFunction,Profile*%
%ADD10C,0.050000*%
%TD*%
%TA.AperFunction,Profile*%
%ADD11C,0.180000*%
%TD*%
G04 APERTURE END LIST*
D10*
X202100010Y-69450013D02*
G75*
G03*
X202150000Y-69050001I-178310J225413D01*
G01*
X196700000Y-74400000D02*
G75*
G03*
X197150000Y-74400000I225000J193855D01*
G01*
X179950000Y-67850000D02*
X179950000Y-69550000D01*
X179649972Y-75300041D02*
G75*
G03*
X179950000Y-75200000I111628J165141D01*
G01*
X179650000Y-75300000D02*
X176050000Y-71700000D01*
X183700000Y-72850000D02*
X180550000Y-72850000D01*
D11*
X170700000Y-79150000D02*
X170700000Y-73150000D01*
D10*
X194700000Y-72100000D02*
X195200000Y-71600000D01*
X179650000Y-67700000D02*
X176050000Y-71300000D01*
X216850000Y-70200000D02*
G75*
G03*
X217450000Y-69600000I0J600000D01*
G01*
D11*
X180700000Y-63150000D02*
X216700000Y-63150000D01*
D10*
X184000000Y-70450000D02*
G75*
G03*
X183700000Y-70150000I-300000J0D01*
G01*
X184000000Y-70450000D02*
X184000000Y-72550000D01*
D11*
X226700000Y-73150000D02*
G75*
G03*
X216700000Y-63150000I-10000000J0D01*
G01*
D10*
X213700000Y-70200000D02*
X216850000Y-70200000D01*
X179950000Y-73450000D02*
X179950000Y-75200000D01*
X217450000Y-75200000D02*
X217450000Y-73500000D01*
X213700000Y-70200000D02*
G75*
G03*
X213400000Y-70500000I0J-300000D01*
G01*
X179950000Y-69550000D02*
G75*
G03*
X180550000Y-70150000I600000J0D01*
G01*
X213400000Y-72600000D02*
G75*
G03*
X213700000Y-72900000I300000J0D01*
G01*
D11*
X170700000Y-79150000D02*
X226700000Y-79150000D01*
D10*
X217750000Y-75350000D02*
X221350000Y-71750000D01*
X179950000Y-67850000D02*
G75*
G03*
X179650000Y-67700000I-187500J0D01*
G01*
X195550000Y-71600000D02*
X196700000Y-72750000D01*
X217750000Y-67750000D02*
X221350000Y-71350000D01*
X180550000Y-70150000D02*
X183700000Y-70150000D01*
X217450000Y-73500000D02*
G75*
G03*
X216850000Y-72900000I-600000J0D01*
G01*
D11*
X226700000Y-79150000D02*
X226700000Y-73150000D01*
D10*
X197150000Y-74400000D02*
X202100000Y-69450000D01*
X201650000Y-68550000D02*
X202150000Y-69050000D01*
X217450000Y-69600000D02*
X217450000Y-67850000D01*
X195550000Y-71600000D02*
G75*
G03*
X195200001Y-71600000I-174999J-202224D01*
G01*
X197100000Y-72750000D02*
X201250000Y-68600000D01*
X216850000Y-72900000D02*
X213700000Y-72900000D01*
X213400000Y-72600000D02*
X213400000Y-70500000D01*
X221350000Y-71750000D02*
G75*
G03*
X221350000Y-71350000I-150000J200000D01*
G01*
X217450000Y-75200000D02*
G75*
G03*
X217750000Y-75350000I187500J0D01*
G01*
X196700001Y-72750000D02*
G75*
G03*
X197099999Y-72750000I199999J211308D01*
G01*
X201650010Y-68549987D02*
G75*
G03*
X201250001Y-68600000I-174110J-232113D01*
G01*
X194700000Y-72400000D02*
X196700000Y-74400000D01*
X194700000Y-72100000D02*
G75*
G03*
X194700000Y-72400000I232600J-150000D01*
G01*
X217750028Y-67749959D02*
G75*
G03*
X217450000Y-67850000I-111628J-165141D01*
G01*
X180550000Y-72850000D02*
G75*
G03*
X179950000Y-73450000I0J-600000D01*
G01*
D11*
X180700000Y-63150000D02*
G75*
G03*
X170700000Y-73150000I0J-10000000D01*
G01*
D10*
X183700000Y-72850000D02*
G75*
G03*
X184000000Y-72550000I0J300000D01*
G01*
X176050000Y-71300000D02*
G75*
G03*
X176050000Y-71700000I150000J-200000D01*
G01*
M02*
