M48
; DRILL file {KiCad (6.0.8)} date Thu Nov  3 12:51:22 2022
; FORMAT={-:-/ absolute / inch / decimal}
; #@! TF.CreationDate,2022-11-03T12:51:22+01:00
; #@! TF.GenerationSoftware,Kicad,Pcbnew,(6.0.8)
; #@! TF.FileFunction,Plated,1,2,PTH
FMAT,2
INCH
; #@! TA.AperFunction,Plated,PTH,ViaDrill
T1C0.0157
; #@! TA.AperFunction,Plated,PTH,ComponentDrill
T2C0.0236
; #@! TA.AperFunction,Plated,PTH,ComponentDrill
T3C0.0276
; #@! TA.AperFunction,Plated,PTH,ComponentDrill
T4C0.0300
; #@! TA.AperFunction,Plated,PTH,ComponentDrill
T5C0.0394
%
G90
G05
T1
X2.8346Y-3.2933
X2.8346Y-3.563
X2.9528Y-2.5295
X3.0906Y-4.3858
X3.1457Y-4.2559
X3.3465Y-6.2598
X3.3504Y-4.3858
X3.3858Y-3.2874
X3.3858Y-3.5827
X3.3858Y-3.878
X3.5335Y-6.2598
X3.752Y-1.5591
X3.7559Y-4.1398
X3.8346Y-4.4843
X3.8819Y-5.9016
X3.8858Y-4.7244
X4.0276Y-5.3858
X4.0807Y-5.4449
X4.1024Y-4.3858
X4.1142Y-3.7598
X4.1142Y-5.9646
X4.1142Y-6.0039
X4.1142Y-6.0433
X4.1339Y-5.0945
X4.1535Y-5.9646
X4.1535Y-6.0039
X4.1535Y-6.0433
X4.1929Y-5.9646
X4.1929Y-6.0039
X4.2087Y-5.2047
X4.2323Y-5.9685
X4.2323Y-6.0039
X4.25Y-5.4449
X4.2835Y-6.185
X4.3012Y-4.3406
X4.3012Y-4.4291
X4.3012Y-5.6594
X4.3799Y-5.5748
X4.3799Y-5.8406
X4.3996Y-4.7343
X4.3996Y-5.1673
X4.3996Y-5.2461
X4.4016Y-5.0472
X4.4165Y-3.6024
X4.4528Y-1.626
X4.4764Y-4.9252
X4.4921Y-5.5079
X4.5079Y-5.6693
X4.5945Y-4.8976
X4.6024Y-4.7283
X4.6457Y-3.7205
X4.6457Y-3.878
X4.6457Y-5.9606
X4.6457Y-6.0
X4.6496Y-1.8228
X4.6614Y-5.8504
X4.6654Y-4.6575
X4.685Y-5.9606
X4.685Y-6.0
X4.7047Y-1.378
X4.7244Y-5.9606
X4.7244Y-6.0
X4.7244Y-6.0394
X4.7441Y-4.1102
X4.7441Y-4.2717
X4.7638Y-2.6181
X4.7638Y-5.9606
X4.7638Y-6.0
X4.7638Y-6.0394
X4.7736Y-0.8366
X4.8917Y-4.6555
X4.8917Y-4.9016
X4.9213Y-4.5866
X4.9409Y-4.3465
X4.9449Y-5.3701
X4.9449Y-5.6299
X5.0Y-5.4331
X5.0Y-5.6299
X5.0039Y-3.5827
X5.0197Y-3.8681
X5.0886Y-5.6496
X5.0886Y-5.689
X5.0886Y-5.7283
X5.0886Y-5.7677
X5.0906Y-3.9291
X5.128Y-5.6496
X5.128Y-5.689
X5.128Y-5.7283
X5.128Y-5.7677
X5.1378Y-1.378
X5.1673Y-5.7677
X5.1811Y-5.9843
X5.187Y-4.3406
X5.189Y-3.9843
X5.2067Y-5.7677
X5.2362Y-1.2795
X5.2461Y-5.7677
X5.2559Y-4.1732
X5.2776Y-3.2165
X5.2854Y-4.439
X5.2854Y-5.7677
X5.2953Y-3.8701
X5.2953Y-3.9862
X5.3898Y-3.8465
X5.3937Y-5.7677
X5.3937Y-5.8071
X5.4252Y-3.6378
X5.4252Y-3.7008
X5.4291Y-3.1496
X5.4291Y-3.2165
X5.4291Y-3.3937
X5.4291Y-3.4567
X5.4331Y-5.7677
X5.4331Y-5.8071
X5.4646Y-3.8858
X5.4724Y-5.7677
X5.4724Y-5.8071
X5.5Y-4.1772
X5.5Y-4.2638
X5.5118Y-5.7677
X5.5118Y-5.8071
X5.5256Y-0.5886
X5.5315Y-4.5768
X5.5709Y-1.811
X5.6024Y-4.4764
X5.6201Y-4.6949
X5.6378Y-3.4252
X5.6693Y-3.1496
X5.6693Y-3.2165
X5.6693Y-3.6378
X5.6693Y-3.7008
X5.6929Y-4.8583
X5.7008Y-3.4252
X5.7244Y-4.6496
X5.7677Y-5.0236
X5.7972Y-4.8425
X5.8031Y-4.3228
X5.8563Y-5.5512
X5.876Y-4.9803
X5.8819Y-3.1811
X5.8819Y-3.6693
X5.8957Y-5.5118
X5.8957Y-5.5512
X5.9134Y-3.3937
X5.9134Y-3.4567
X5.935Y-5.5118
X5.935Y-5.5512
X5.9449Y-3.1811
X5.9449Y-3.6693
X5.9744Y-5.5118
X5.9744Y-5.5512
X6.0157Y-4.9409
X6.3169Y-3.9016
X6.439Y-3.9016
X6.4449Y-2.374
X6.5Y-6.0591
X6.565Y-0.7087
X6.5807Y-4.2441
X6.6732Y-5.4252
X6.6929Y-5.1969
X6.6929Y-5.2854
X6.6929Y-5.6988
X6.6929Y-5.8563
X6.7717Y-4.1142
X6.8386Y-5.3346
X6.874Y-5.3346
X6.874Y-5.3701
X6.9094Y-5.3701
X6.9848Y-5.4852
X7.0039Y-4.3465
X7.1063Y-2.3622
X7.1063Y-2.5787
X7.1181Y-5.2244
X7.122Y-4.4646
X7.1496Y-5.6378
X7.1535Y-5.2244
X7.1535Y-5.2638
X7.1535Y-5.2992
X7.1811Y-4.5236
X7.189Y-5.2638
X7.189Y-5.2992
X7.189Y-5.6378
X7.2244Y-3.248
X7.2283Y-5.6378
X7.2677Y-5.6378
X7.3071Y-5.6378
X7.3465Y-5.6378
X7.3583Y-4.7008
X7.3858Y-5.5984
X7.3858Y-5.6378
X7.4449Y-4.7874
X7.5472Y-2.7244
X7.5472Y-3.0236
X7.6378Y-5.374
X7.6929Y-1.5079
X7.8858Y-2.9272
X8.1594Y-3.0354
X8.1594Y-3.3012
X8.2205Y-3.748
X8.2579Y-2.5295
X8.3858Y-4.3209
X8.5079Y-3.3484
T3
X2.7827Y-3.7781
X2.7827Y-3.8281
X2.8327Y-3.7781
X2.8327Y-3.8281
X2.8827Y-3.7781
X2.8827Y-3.8281
X5.2644Y-0.5386
X5.2644Y-0.5886
X5.2644Y-0.6386
X5.3144Y-0.5386
X5.3144Y-0.5886
X5.3144Y-0.6386
X5.9972Y-6.2098
X5.9972Y-6.2598
X5.9972Y-6.3098
X6.0472Y-6.2098
X6.0472Y-6.2598
X6.0472Y-6.3098
X8.4559Y-3.0222
X8.4559Y-3.0722
X8.5059Y-3.0222
X8.5059Y-3.0722
X8.5559Y-3.0222
X8.5559Y-3.0722
T4
X8.1259Y-4.4882
X8.3228Y-4.4882
T5
X7.1654Y-5.8071
X7.4803Y-5.6791
T2
G00X4.2394Y-6.1189
M15
G01X4.2394Y-6.0756
M16
G05
G00X4.2394Y-6.2736
M15
G01X4.2394Y-6.25
M16
G05
G00X4.5795Y-6.1189
M15
G01X4.5795Y-6.0756
M16
G05
G00X4.5795Y-6.2736
M15
G01X4.5795Y-6.25
M16
G05
T0
M30
