%TF.GenerationSoftware,KiCad,Pcbnew,(6.0.8)*%
%TF.CreationDate,2022-11-08T14:11:50+01:00*%
%TF.ProjectId,BoardGame,426f6172-6447-4616-9d65-2e6b69636164,rev?*%
%TF.SameCoordinates,Original*%
%TF.FileFunction,Paste,Top*%
%TF.FilePolarity,Positive*%
%FSLAX46Y46*%
G04 Gerber Fmt 4.6, Leading zero omitted, Abs format (unit mm)*
G04 Created by KiCad (PCBNEW (6.0.8)) date 2022-11-08 14:11:50*
%MOMM*%
%LPD*%
G01*
G04 APERTURE LIST*
%ADD10R,0.900000X1.500000*%
%ADD11R,1.500000X0.900000*%
%ADD12R,1.500000X1.100000*%
%ADD13R,1.100000X1.500000*%
G04 APERTURE END LIST*
D10*
%TO.C,D1002*%
X116280000Y-78870000D03*
X112980000Y-78870000D03*
X112980000Y-83770000D03*
X116280000Y-83770000D03*
%TD*%
D11*
%TO.C,D1045*%
X95980000Y-150350000D03*
X95980000Y-153650000D03*
X100880000Y-153650000D03*
X100880000Y-150350000D03*
%TD*%
D10*
%TO.C,D1086*%
X78250000Y-84550000D03*
X74950000Y-84550000D03*
X74950000Y-89450000D03*
X78250000Y-89450000D03*
%TD*%
D11*
%TO.C,D1056*%
X89460000Y-96320000D03*
X89460000Y-99620000D03*
X94360000Y-99620000D03*
X94360000Y-96320000D03*
%TD*%
%TO.C,D1016*%
X159760000Y-47560000D03*
X159760000Y-44260000D03*
X154860000Y-44260000D03*
X154860000Y-47560000D03*
%TD*%
D10*
%TO.C,D1028*%
X171720000Y-95130000D03*
X175020000Y-95130000D03*
X175020000Y-90230000D03*
X171720000Y-90230000D03*
%TD*%
%TO.C,D1021*%
X206230000Y-33110000D03*
X209530000Y-33110000D03*
X209530000Y-28210000D03*
X206230000Y-28210000D03*
%TD*%
D12*
%TO.C,D1102*%
X142360000Y-92300000D03*
X142360000Y-94080000D03*
X145640000Y-94080000D03*
X145640000Y-92300000D03*
%TD*%
D11*
%TO.C,D1051*%
X105490000Y-101860000D03*
X105490000Y-98560000D03*
X100590000Y-98560000D03*
X100590000Y-101860000D03*
%TD*%
%TO.C,D1089*%
X146450000Y-21250000D03*
X146450000Y-17950000D03*
X141550000Y-17950000D03*
X141550000Y-21250000D03*
%TD*%
%TO.C,D1057*%
X146450000Y-47530000D03*
X146450000Y-44230000D03*
X141550000Y-44230000D03*
X141550000Y-47530000D03*
%TD*%
D12*
%TO.C,D1106*%
X108817500Y-157110000D03*
X108817500Y-158890000D03*
X112097500Y-158890000D03*
X112097500Y-157110000D03*
%TD*%
D10*
%TO.C,D1020*%
X198750000Y-25590000D03*
X202050000Y-25590000D03*
X202050000Y-20690000D03*
X198750000Y-20690000D03*
%TD*%
%TO.C,D1038*%
X158860000Y-125510000D03*
X155560000Y-125510000D03*
X155560000Y-130410000D03*
X158860000Y-130410000D03*
%TD*%
%TO.C,D1080*%
X189410000Y-136510000D03*
X192710000Y-136510000D03*
X192710000Y-131610000D03*
X189410000Y-131610000D03*
%TD*%
D12*
%TO.C,D1100*%
X148550000Y-86110000D03*
X148550000Y-87890000D03*
X151830000Y-87890000D03*
X151830000Y-86110000D03*
%TD*%
D11*
%TO.C,D1081*%
X116780000Y-110120000D03*
X116780000Y-113420000D03*
X121680000Y-113420000D03*
X121680000Y-110120000D03*
%TD*%
D10*
%TO.C,D1066*%
X131350000Y-141450000D03*
X134650000Y-141450000D03*
X134650000Y-136550000D03*
X131350000Y-136550000D03*
%TD*%
D11*
%TO.C,D1040*%
X141550000Y-103930000D03*
X141550000Y-107230000D03*
X146450000Y-107230000D03*
X146450000Y-103930000D03*
%TD*%
D10*
%TO.C,D1085*%
X78250000Y-103200000D03*
X74950000Y-103200000D03*
X74950000Y-108100000D03*
X78250000Y-108100000D03*
%TD*%
D11*
%TO.C,D1043*%
X118720000Y-137350000D03*
X118720000Y-140650000D03*
X123620000Y-140650000D03*
X123620000Y-137350000D03*
%TD*%
D10*
%TO.C,D1037*%
X168380000Y-136550000D03*
X165080000Y-136550000D03*
X165080000Y-141450000D03*
X168380000Y-141450000D03*
%TD*%
D11*
%TO.C,D1017*%
X169280000Y-36560000D03*
X169280000Y-33260000D03*
X164380000Y-33260000D03*
X164380000Y-36560000D03*
%TD*%
%TO.C,D1067*%
X146450000Y-140650000D03*
X146450000Y-137350000D03*
X141550000Y-137350000D03*
X141550000Y-140650000D03*
%TD*%
D10*
%TO.C,D1072*%
X98590000Y-37490000D03*
X95290000Y-37490000D03*
X95290000Y-42390000D03*
X98590000Y-42390000D03*
%TD*%
D11*
%TO.C,D1041*%
X135870000Y-114720000D03*
X135870000Y-118020000D03*
X140770000Y-118020000D03*
X140770000Y-114720000D03*
%TD*%
%TO.C,D1074*%
X178650000Y-56450000D03*
X178650000Y-53150000D03*
X173750000Y-53150000D03*
X173750000Y-56450000D03*
%TD*%
%TO.C,D1009*%
X100950000Y-23650000D03*
X100950000Y-20350000D03*
X96050000Y-20350000D03*
X96050000Y-23650000D03*
%TD*%
%TO.C,D1033*%
X205410000Y-141750000D03*
X205410000Y-145050000D03*
X210310000Y-145050000D03*
X210310000Y-141750000D03*
%TD*%
D10*
%TO.C,D1046*%
X89250000Y-148410000D03*
X85950000Y-148410000D03*
X85950000Y-153310000D03*
X89250000Y-153310000D03*
%TD*%
%TO.C,D1052*%
X116440000Y-90130000D03*
X113140000Y-90130000D03*
X113140000Y-95030000D03*
X116440000Y-95030000D03*
%TD*%
%TO.C,D1061*%
X183470000Y-89450000D03*
X186770000Y-89450000D03*
X186770000Y-84550000D03*
X183470000Y-84550000D03*
%TD*%
D11*
%TO.C,D1062*%
X198540000Y-99620000D03*
X198540000Y-96320000D03*
X193640000Y-96320000D03*
X193640000Y-99620000D03*
%TD*%
D10*
%TO.C,D1070*%
X113450000Y-52350000D03*
X110150000Y-52350000D03*
X110150000Y-57250000D03*
X113450000Y-57250000D03*
%TD*%
D11*
%TO.C,D1073*%
X171220000Y-63880000D03*
X171220000Y-60580000D03*
X166320000Y-60580000D03*
X166320000Y-63880000D03*
%TD*%
D10*
%TO.C,D1068*%
X153320000Y-141450000D03*
X156620000Y-141450000D03*
X156620000Y-136550000D03*
X153320000Y-136550000D03*
%TD*%
D11*
%TO.C,D1048*%
X81450000Y-134140000D03*
X81450000Y-130840000D03*
X76550000Y-130840000D03*
X76550000Y-134140000D03*
%TD*%
D10*
%TO.C,D1022*%
X207340000Y-43960000D03*
X210640000Y-43960000D03*
X210640000Y-39060000D03*
X207340000Y-39060000D03*
%TD*%
%TO.C,D1031*%
X202970000Y-123310000D03*
X206270000Y-123310000D03*
X206270000Y-118410000D03*
X202970000Y-118410000D03*
%TD*%
%TO.C,D1087*%
X78250000Y-65900000D03*
X74950000Y-65900000D03*
X74950000Y-70800000D03*
X78250000Y-70800000D03*
%TD*%
%TO.C,D1060*%
X134680000Y-32460000D03*
X131380000Y-32460000D03*
X131380000Y-37360000D03*
X134680000Y-37360000D03*
%TD*%
%TO.C,D1055*%
X90260000Y-89450000D03*
X93560000Y-89450000D03*
X93560000Y-84550000D03*
X90260000Y-84550000D03*
%TD*%
D11*
%TO.C,D1024*%
X193640000Y-62620000D03*
X193640000Y-65920000D03*
X198540000Y-65920000D03*
X198540000Y-62620000D03*
%TD*%
D10*
%TO.C,D1091*%
X209750000Y-70800000D03*
X213050000Y-70800000D03*
X213050000Y-65900000D03*
X209750000Y-65900000D03*
%TD*%
%TO.C,D1079*%
X181980000Y-129080000D03*
X185280000Y-129080000D03*
X185280000Y-124180000D03*
X181980000Y-124180000D03*
%TD*%
%TO.C,D1069*%
X120880000Y-59780000D03*
X117580000Y-59780000D03*
X117580000Y-64680000D03*
X120880000Y-64680000D03*
%TD*%
D11*
%TO.C,D1095*%
X141550000Y-152750000D03*
X141550000Y-156050000D03*
X146450000Y-156050000D03*
X146450000Y-152750000D03*
%TD*%
D10*
%TO.C,D1047*%
X81770000Y-140890000D03*
X78470000Y-140890000D03*
X78470000Y-145790000D03*
X81770000Y-145790000D03*
%TD*%
%TO.C,D1027*%
X160930000Y-89450000D03*
X164230000Y-89450000D03*
X164230000Y-84550000D03*
X160930000Y-84550000D03*
%TD*%
D12*
%TO.C,D1097*%
X139450000Y-81700000D03*
X139450000Y-79920000D03*
X136170000Y-79920000D03*
X136170000Y-81700000D03*
%TD*%
D11*
%TO.C,D1090*%
X165100000Y-21250000D03*
X165100000Y-17950000D03*
X160200000Y-17950000D03*
X160200000Y-21250000D03*
%TD*%
%TO.C,D1094*%
X160200000Y-152750000D03*
X160200000Y-156050000D03*
X165100000Y-156050000D03*
X165100000Y-152750000D03*
%TD*%
D10*
%TO.C,D1010*%
X108580000Y-28890000D03*
X111880000Y-28890000D03*
X111880000Y-23990000D03*
X108580000Y-23990000D03*
%TD*%
D12*
%TO.C,D1103*%
X136170000Y-92300000D03*
X136170000Y-94080000D03*
X139450000Y-94080000D03*
X139450000Y-92300000D03*
%TD*%
D11*
%TO.C,D1008*%
X90110000Y-24770000D03*
X90110000Y-21470000D03*
X85210000Y-21470000D03*
X85210000Y-24770000D03*
%TD*%
D10*
%TO.C,D1035*%
X191140000Y-149540000D03*
X187840000Y-149540000D03*
X187840000Y-154440000D03*
X191140000Y-154440000D03*
%TD*%
%TO.C,D1012*%
X129140000Y-48490000D03*
X132440000Y-48490000D03*
X132440000Y-43590000D03*
X129140000Y-43590000D03*
%TD*%
D13*
%TO.C,D1101*%
X149300000Y-94830000D03*
X151080000Y-94830000D03*
X151080000Y-91550000D03*
X149300000Y-91550000D03*
%TD*%
D11*
%TO.C,D1065*%
X141550000Y-126470000D03*
X141550000Y-129770000D03*
X146450000Y-129770000D03*
X146450000Y-126470000D03*
%TD*%
D13*
%TO.C,D1105*%
X143110000Y-88640000D03*
X144890000Y-88640000D03*
X144890000Y-85360000D03*
X143110000Y-85360000D03*
%TD*%
D10*
%TO.C,D1004*%
X93560000Y-61720000D03*
X90260000Y-61720000D03*
X90260000Y-66620000D03*
X93560000Y-66620000D03*
%TD*%
D12*
%TO.C,D1104*%
X139450000Y-87890000D03*
X139450000Y-86110000D03*
X136170000Y-86110000D03*
X136170000Y-87890000D03*
%TD*%
%TO.C,D1098*%
X145640000Y-81700000D03*
X145640000Y-79920000D03*
X142360000Y-79920000D03*
X142360000Y-81700000D03*
%TD*%
D11*
%TO.C,D1049*%
X85890000Y-122420000D03*
X85890000Y-119120000D03*
X80990000Y-119120000D03*
X80990000Y-122420000D03*
%TD*%
D10*
%TO.C,D1039*%
X151230000Y-113760000D03*
X147930000Y-113760000D03*
X147930000Y-118660000D03*
X151230000Y-118660000D03*
%TD*%
D11*
%TO.C,D1018*%
X180310000Y-28030000D03*
X180310000Y-24730000D03*
X175410000Y-24730000D03*
X175410000Y-28030000D03*
%TD*%
D10*
%TO.C,D1015*%
X151330000Y-55180000D03*
X148030000Y-55180000D03*
X148030000Y-60080000D03*
X151330000Y-60080000D03*
%TD*%
D11*
%TO.C,D1034*%
X197890000Y-149230000D03*
X197890000Y-152530000D03*
X202790000Y-152530000D03*
X202790000Y-149230000D03*
%TD*%
D10*
%TO.C,D1005*%
X85030000Y-50690000D03*
X81730000Y-50690000D03*
X81730000Y-55590000D03*
X85030000Y-55590000D03*
%TD*%
%TO.C,D1093*%
X209750000Y-108100000D03*
X213050000Y-108100000D03*
X213050000Y-103200000D03*
X209750000Y-103200000D03*
%TD*%
%TO.C,D1011*%
X119620000Y-37360000D03*
X122920000Y-37360000D03*
X122920000Y-32460000D03*
X119620000Y-32460000D03*
%TD*%
D11*
%TO.C,D1096*%
X122900000Y-152750000D03*
X122900000Y-156050000D03*
X127800000Y-156050000D03*
X127800000Y-152750000D03*
%TD*%
D13*
%TO.C,D1099*%
X149300000Y-82450000D03*
X151080000Y-82450000D03*
X151080000Y-79170000D03*
X149300000Y-79170000D03*
%TD*%
D11*
%TO.C,D1088*%
X127800000Y-21250000D03*
X127800000Y-17950000D03*
X122900000Y-17950000D03*
X122900000Y-21250000D03*
%TD*%
D10*
%TO.C,D1013*%
X136770000Y-60240000D03*
X140070000Y-60240000D03*
X140070000Y-55340000D03*
X136770000Y-55340000D03*
%TD*%
D11*
%TO.C,D1083*%
X101920000Y-124980000D03*
X101920000Y-128280000D03*
X106820000Y-128280000D03*
X106820000Y-124980000D03*
%TD*%
%TO.C,D1014*%
X146450000Y-70070000D03*
X146450000Y-66770000D03*
X141550000Y-66770000D03*
X141550000Y-70070000D03*
%TD*%
D10*
%TO.C,D1063*%
X197740000Y-84550000D03*
X194440000Y-84550000D03*
X194440000Y-89450000D03*
X197740000Y-89450000D03*
%TD*%
D11*
%TO.C,D1076*%
X193510000Y-41590000D03*
X193510000Y-38290000D03*
X188610000Y-38290000D03*
X188610000Y-41590000D03*
%TD*%
D10*
%TO.C,D1003*%
X104560000Y-71240000D03*
X101260000Y-71240000D03*
X101260000Y-76140000D03*
X104560000Y-76140000D03*
%TD*%
%TO.C,D1077*%
X167120000Y-114220000D03*
X170420000Y-114220000D03*
X170420000Y-109320000D03*
X167120000Y-109320000D03*
%TD*%
D11*
%TO.C,D1054*%
X89460000Y-74380000D03*
X89460000Y-77680000D03*
X94360000Y-77680000D03*
X94360000Y-74380000D03*
%TD*%
%TO.C,D1084*%
X94490000Y-132410000D03*
X94490000Y-135710000D03*
X99390000Y-135710000D03*
X99390000Y-132410000D03*
%TD*%
D10*
%TO.C,D1058*%
X156620000Y-32460000D03*
X153320000Y-32460000D03*
X153320000Y-37360000D03*
X156620000Y-37360000D03*
%TD*%
D11*
%TO.C,D1064*%
X198540000Y-77650000D03*
X198540000Y-74350000D03*
X193640000Y-74350000D03*
X193640000Y-77650000D03*
%TD*%
D10*
%TO.C,D1053*%
X104530000Y-84550000D03*
X101230000Y-84550000D03*
X101230000Y-89450000D03*
X104530000Y-89450000D03*
%TD*%
D11*
%TO.C,D1023*%
X202110000Y-51580000D03*
X202110000Y-54880000D03*
X207010000Y-54880000D03*
X207010000Y-51580000D03*
%TD*%
%TO.C,D1044*%
X107690000Y-145970000D03*
X107690000Y-149270000D03*
X112590000Y-149270000D03*
X112590000Y-145970000D03*
%TD*%
D10*
%TO.C,D1006*%
X80650000Y-38980000D03*
X77350000Y-38980000D03*
X77350000Y-43880000D03*
X80650000Y-43880000D03*
%TD*%
D11*
%TO.C,D1042*%
X128240000Y-126440000D03*
X128240000Y-129740000D03*
X133140000Y-129740000D03*
X133140000Y-126440000D03*
%TD*%
%TO.C,D1026*%
X170760000Y-79770000D03*
X170760000Y-83070000D03*
X175660000Y-83070000D03*
X175660000Y-79770000D03*
%TD*%
D10*
%TO.C,D1092*%
X209750000Y-89450000D03*
X213050000Y-89450000D03*
X213050000Y-84550000D03*
X209750000Y-84550000D03*
%TD*%
D11*
%TO.C,D1007*%
X82590000Y-32250000D03*
X82590000Y-28950000D03*
X77690000Y-28950000D03*
X77690000Y-32250000D03*
%TD*%
D10*
%TO.C,D1078*%
X174550000Y-121650000D03*
X177850000Y-121650000D03*
X177850000Y-116750000D03*
X174550000Y-116750000D03*
%TD*%
D11*
%TO.C,D1075*%
X186080000Y-49020000D03*
X186080000Y-45720000D03*
X181180000Y-45720000D03*
X181180000Y-49020000D03*
%TD*%
%TO.C,D1025*%
X182510000Y-72140000D03*
X182510000Y-75440000D03*
X187410000Y-75440000D03*
X187410000Y-72140000D03*
%TD*%
D10*
%TO.C,D1071*%
X106020000Y-44920000D03*
X102720000Y-44920000D03*
X102720000Y-49820000D03*
X106020000Y-49820000D03*
%TD*%
D11*
%TO.C,D1050*%
X94360000Y-111380000D03*
X94360000Y-108080000D03*
X89460000Y-108080000D03*
X89460000Y-111380000D03*
%TD*%
%TO.C,D1082*%
X109350000Y-117550000D03*
X109350000Y-120850000D03*
X114250000Y-120850000D03*
X114250000Y-117550000D03*
%TD*%
%TO.C,D1019*%
X192020000Y-23650000D03*
X192020000Y-20350000D03*
X187120000Y-20350000D03*
X187120000Y-23650000D03*
%TD*%
%TO.C,D1059*%
X141550000Y-33260000D03*
X141550000Y-36560000D03*
X146450000Y-36560000D03*
X146450000Y-33260000D03*
%TD*%
D10*
%TO.C,D1030*%
X194440000Y-112280000D03*
X197740000Y-112280000D03*
X197740000Y-107380000D03*
X194440000Y-107380000D03*
%TD*%
%TO.C,D1036*%
X179420000Y-145050000D03*
X176120000Y-145050000D03*
X176120000Y-149950000D03*
X179420000Y-149950000D03*
%TD*%
%TO.C,D1032*%
X207350000Y-135020000D03*
X210650000Y-135020000D03*
X210650000Y-130120000D03*
X207350000Y-130120000D03*
%TD*%
%TO.C,D1029*%
X183440000Y-102760000D03*
X186740000Y-102760000D03*
X186740000Y-97860000D03*
X183440000Y-97860000D03*
%TD*%
%TO.C,D1001*%
X127070000Y-84550000D03*
X123770000Y-84550000D03*
X123770000Y-89450000D03*
X127070000Y-89450000D03*
%TD*%
M02*
