%TF.GenerationSoftware,KiCad,Pcbnew,(6.0.6)*%
%TF.CreationDate,2022-06-29T12:44:08+02:00*%
%TF.ProjectId,CNLJS,434e4c4a-532e-46b6-9963-61645f706362,rev?*%
%TF.SameCoordinates,Original*%
%TF.FileFunction,Soldermask,Bot*%
%TF.FilePolarity,Negative*%
%FSLAX46Y46*%
G04 Gerber Fmt 4.6, Leading zero omitted, Abs format (unit mm)*
G04 Created by KiCad (PCBNEW (6.0.6)) date 2022-06-29 12:44:08*
%MOMM*%
%LPD*%
G01*
G04 APERTURE LIST*
G04 Aperture macros list*
%AMRoundRect*
0 Rectangle with rounded corners*
0 $1 Rounding radius*
0 $2 $3 $4 $5 $6 $7 $8 $9 X,Y pos of 4 corners*
0 Add a 4 corners polygon primitive as box body*
4,1,4,$2,$3,$4,$5,$6,$7,$8,$9,$2,$3,0*
0 Add four circle primitives for the rounded corners*
1,1,$1+$1,$2,$3*
1,1,$1+$1,$4,$5*
1,1,$1+$1,$6,$7*
1,1,$1+$1,$8,$9*
0 Add four rect primitives between the rounded corners*
20,1,$1+$1,$2,$3,$4,$5,0*
20,1,$1+$1,$4,$5,$6,$7,0*
20,1,$1+$1,$6,$7,$8,$9,0*
20,1,$1+$1,$8,$9,$2,$3,0*%
%AMFreePoly0*
4,1,9,5.362500,-0.866500,1.237500,-0.866500,1.237500,-0.450000,-1.237500,-0.450000,-1.237500,0.450000,1.237500,0.450000,1.237500,0.866500,5.362500,0.866500,5.362500,-0.866500,5.362500,-0.866500,$1*%
G04 Aperture macros list end*
%ADD10R,1.000000X1.000000*%
%ADD11O,1.000000X1.000000*%
%ADD12RoundRect,0.062500X0.062500X-0.350000X0.062500X0.350000X-0.062500X0.350000X-0.062500X-0.350000X0*%
%ADD13RoundRect,0.062500X0.350000X-0.062500X0.350000X0.062500X-0.350000X0.062500X-0.350000X-0.062500X0*%
%ADD14R,2.500000X2.500000*%
%ADD15RoundRect,0.250000X-0.250000X-0.475000X0.250000X-0.475000X0.250000X0.475000X-0.250000X0.475000X0*%
%ADD16RoundRect,0.150000X0.825000X0.150000X-0.825000X0.150000X-0.825000X-0.150000X0.825000X-0.150000X0*%
%ADD17RoundRect,0.250000X0.262500X0.450000X-0.262500X0.450000X-0.262500X-0.450000X0.262500X-0.450000X0*%
%ADD18RoundRect,0.243750X0.243750X0.456250X-0.243750X0.456250X-0.243750X-0.456250X0.243750X-0.456250X0*%
%ADD19C,0.650000*%
%ADD20R,0.600000X1.450000*%
%ADD21R,0.300000X1.450000*%
%ADD22O,1.000000X2.100000*%
%ADD23O,1.000000X1.600000*%
%ADD24RoundRect,0.250000X-0.450000X0.262500X-0.450000X-0.262500X0.450000X-0.262500X0.450000X0.262500X0*%
%ADD25RoundRect,0.250000X-0.262500X-0.450000X0.262500X-0.450000X0.262500X0.450000X-0.262500X0.450000X0*%
%ADD26R,0.900000X2.300000*%
%ADD27FreePoly0,270.000000*%
%ADD28O,4.000000X5.000000*%
%ADD29RoundRect,0.250000X0.475000X-0.250000X0.475000X0.250000X-0.475000X0.250000X-0.475000X-0.250000X0*%
%ADD30RoundRect,0.250000X0.787500X1.025000X-0.787500X1.025000X-0.787500X-1.025000X0.787500X-1.025000X0*%
%ADD31RoundRect,0.250000X-0.475000X0.250000X-0.475000X-0.250000X0.475000X-0.250000X0.475000X0.250000X0*%
%ADD32RoundRect,0.250000X0.450000X-0.262500X0.450000X0.262500X-0.450000X0.262500X-0.450000X-0.262500X0*%
%ADD33RoundRect,0.250000X-0.650000X0.325000X-0.650000X-0.325000X0.650000X-0.325000X0.650000X0.325000X0*%
%ADD34RoundRect,0.250000X0.925000X-0.787500X0.925000X0.787500X-0.925000X0.787500X-0.925000X-0.787500X0*%
%ADD35R,0.550000X1.600000*%
%ADD36R,1.600000X0.550000*%
%ADD37RoundRect,0.250000X0.250000X0.475000X-0.250000X0.475000X-0.250000X-0.475000X0.250000X-0.475000X0*%
%ADD38R,4.000000X1.500000*%
%ADD39R,1.700000X1.000000*%
%ADD40R,2.500000X1.800000*%
%ADD41R,0.600000X1.700000*%
%ADD42R,0.400000X1.700000*%
%ADD43RoundRect,0.150000X0.150000X-0.587500X0.150000X0.587500X-0.150000X0.587500X-0.150000X-0.587500X0*%
%ADD44RoundRect,0.250000X-0.275000X-0.700000X0.275000X-0.700000X0.275000X0.700000X-0.275000X0.700000X0*%
%ADD45RoundRect,0.150000X-0.875000X-0.150000X0.875000X-0.150000X0.875000X0.150000X-0.875000X0.150000X0*%
G04 APERTURE END LIST*
D10*
%TO.C,J18*%
X134375000Y-21395000D03*
D11*
X134375000Y-20125000D03*
X133105000Y-21395000D03*
X133105000Y-20125000D03*
X131835000Y-21395000D03*
X131835000Y-20125000D03*
%TD*%
D10*
%TO.C,J17*%
X71145000Y-101225000D03*
D11*
X69875000Y-101225000D03*
X71145000Y-102495000D03*
X69875000Y-102495000D03*
X71145000Y-103765000D03*
X69875000Y-103765000D03*
%TD*%
D10*
%TO.C,J19*%
X214255000Y-84525000D03*
D11*
X215525000Y-84525000D03*
X214255000Y-83255000D03*
X215525000Y-83255000D03*
X214255000Y-81985000D03*
X215525000Y-81985000D03*
%TD*%
D10*
%TO.C,J20*%
X150825000Y-164555000D03*
D11*
X150825000Y-165825000D03*
X152095000Y-164555000D03*
X152095000Y-165825000D03*
X153365000Y-164555000D03*
X153365000Y-165825000D03*
%TD*%
D12*
%TO.C,U2*%
X152100000Y-135286500D03*
X151600000Y-135286500D03*
X151100000Y-135286500D03*
X150600000Y-135286500D03*
X150100000Y-135286500D03*
D13*
X149162500Y-134349000D03*
X149162500Y-133849000D03*
X149162500Y-133349000D03*
X149162500Y-132849000D03*
X149162500Y-132349000D03*
D12*
X150100000Y-131411500D03*
X150600000Y-131411500D03*
X151100000Y-131411500D03*
X151600000Y-131411500D03*
X152100000Y-131411500D03*
D13*
X153037500Y-132349000D03*
X153037500Y-132849000D03*
X153037500Y-133349000D03*
X153037500Y-133849000D03*
X153037500Y-134349000D03*
D14*
X151100000Y-133349000D03*
%TD*%
D15*
%TO.C,C16*%
X152549000Y-126549000D03*
X154449000Y-126549000D03*
%TD*%
D16*
%TO.C,U3*%
X125375000Y-136855000D03*
X125375000Y-138125000D03*
X125375000Y-139395000D03*
X125375000Y-140665000D03*
X125375000Y-141935000D03*
X125375000Y-143205000D03*
X125375000Y-144475000D03*
X125375000Y-145745000D03*
X120425000Y-145745000D03*
X120425000Y-144475000D03*
X120425000Y-143205000D03*
X120425000Y-141935000D03*
X120425000Y-140665000D03*
X120425000Y-139395000D03*
X120425000Y-138125000D03*
X120425000Y-136855000D03*
%TD*%
D17*
%TO.C,R16*%
X131400000Y-152400000D03*
X129575000Y-152400000D03*
%TD*%
D18*
%TO.C,D14*%
X139537500Y-132749000D03*
X137662500Y-132749000D03*
%TD*%
%TO.C,D13*%
X139537500Y-136949000D03*
X137662500Y-136949000D03*
%TD*%
D19*
%TO.C,J2*%
X136190000Y-161359000D03*
X130410000Y-161359000D03*
D20*
X136550000Y-159914000D03*
X135750000Y-159914000D03*
D21*
X134550000Y-159914000D03*
X133550000Y-159914000D03*
X133050000Y-159914000D03*
X132050000Y-159914000D03*
D20*
X130850000Y-159914000D03*
X130050000Y-159914000D03*
X130050000Y-159914000D03*
X130850000Y-159914000D03*
D21*
X131550000Y-159914000D03*
X132550000Y-159914000D03*
X134050000Y-159914000D03*
X135050000Y-159914000D03*
D20*
X135750000Y-159914000D03*
X136550000Y-159914000D03*
D22*
X137620000Y-160829000D03*
D23*
X137620000Y-165009000D03*
X128980000Y-165009000D03*
D22*
X128980000Y-160829000D03*
%TD*%
D24*
%TO.C,R4*%
X150150000Y-140836500D03*
X150150000Y-142661500D03*
%TD*%
%TO.C,R11*%
X152150000Y-140836500D03*
X152150000Y-142661500D03*
%TD*%
D25*
%TO.C,R17*%
X134687500Y-152400000D03*
X136512500Y-152400000D03*
%TD*%
D26*
%TO.C,U4*%
X167750000Y-143399000D03*
D27*
X169250000Y-143486500D03*
D26*
X170750000Y-143399000D03*
%TD*%
D28*
%TO.C,J21*%
X176500000Y-152600000D03*
%TD*%
%TO.C,J22*%
X158400000Y-142850000D03*
%TD*%
D24*
%TO.C,R20*%
X108550000Y-116686500D03*
X108550000Y-118511500D03*
%TD*%
D25*
%TO.C,R1*%
X176287500Y-128400000D03*
X178112500Y-128400000D03*
%TD*%
D29*
%TO.C,C14*%
X156000000Y-133650000D03*
X156000000Y-131750000D03*
%TD*%
D10*
%TO.C,D2*%
X173400000Y-123750000D03*
X173400000Y-126250000D03*
%TD*%
D30*
%TO.C,C21*%
X172362500Y-138549000D03*
X166137500Y-138549000D03*
%TD*%
D25*
%TO.C,R9*%
X156837500Y-128249000D03*
X158662500Y-128249000D03*
%TD*%
D17*
%TO.C,R12*%
X145912500Y-130449000D03*
X144087500Y-130449000D03*
%TD*%
D25*
%TO.C,R14*%
X144087500Y-132749000D03*
X145912500Y-132749000D03*
%TD*%
D31*
%TO.C,C12*%
X114949000Y-110700000D03*
X114949000Y-112600000D03*
%TD*%
D24*
%TO.C,R19*%
X127200000Y-130887500D03*
X127200000Y-132712500D03*
%TD*%
D32*
%TO.C,R21*%
X108550000Y-122511500D03*
X108550000Y-120686500D03*
%TD*%
D33*
%TO.C,C20*%
X173800000Y-143426000D03*
X173800000Y-146376000D03*
%TD*%
D15*
%TO.C,C15*%
X157050000Y-137100000D03*
X158950000Y-137100000D03*
%TD*%
D34*
%TO.C,C13*%
X162700000Y-134011500D03*
X162700000Y-129086500D03*
%TD*%
D15*
%TO.C,C19*%
X121950000Y-133500000D03*
X123850000Y-133500000D03*
%TD*%
D35*
%TO.C,U18*%
X124949000Y-106950000D03*
X125749000Y-106950000D03*
X126549000Y-106950000D03*
X127349000Y-106950000D03*
X128149000Y-106950000D03*
X128949000Y-106950000D03*
X129749000Y-106950000D03*
X130549000Y-106950000D03*
D36*
X131999000Y-108400000D03*
X131999000Y-109200000D03*
X131999000Y-110000000D03*
X131999000Y-110800000D03*
X131999000Y-111600000D03*
X131999000Y-112400000D03*
X131999000Y-113200000D03*
X131999000Y-114000000D03*
D35*
X130549000Y-115450000D03*
X129749000Y-115450000D03*
X128949000Y-115450000D03*
X128149000Y-115450000D03*
X127349000Y-115450000D03*
X126549000Y-115450000D03*
X125749000Y-115450000D03*
X124949000Y-115450000D03*
D36*
X123499000Y-114000000D03*
X123499000Y-113200000D03*
X123499000Y-112400000D03*
X123499000Y-111600000D03*
X123499000Y-110800000D03*
X123499000Y-110000000D03*
X123499000Y-109200000D03*
X123499000Y-108400000D03*
%TD*%
D32*
%TO.C,R5*%
X148699000Y-126661500D03*
X148699000Y-124836500D03*
%TD*%
%TO.C,R10*%
X154150000Y-142661500D03*
X154150000Y-140836500D03*
%TD*%
D37*
%TO.C,C22*%
X128150000Y-120200000D03*
X126250000Y-120200000D03*
%TD*%
D10*
%TO.C,J1*%
X136210000Y-105770000D03*
D11*
X136210000Y-104500000D03*
X137480000Y-105770000D03*
X137480000Y-104500000D03*
X138750000Y-105770000D03*
X138750000Y-104500000D03*
%TD*%
D15*
%TO.C,C23*%
X130299000Y-120200000D03*
X132199000Y-120200000D03*
%TD*%
D38*
%TO.C,L1*%
X178950000Y-147050000D03*
X178950000Y-143450000D03*
%TD*%
D25*
%TO.C,R15*%
X144087500Y-134849000D03*
X145912500Y-134849000D03*
%TD*%
D37*
%TO.C,C24*%
X100200000Y-124750000D03*
X98300000Y-124750000D03*
%TD*%
D39*
%TO.C,SW1*%
X119600000Y-100697000D03*
X113300000Y-100697000D03*
X119600000Y-104497000D03*
X113300000Y-104497000D03*
%TD*%
D18*
%TO.C,D15*%
X139537500Y-134849000D03*
X137662500Y-134849000D03*
%TD*%
D24*
%TO.C,R18*%
X129300000Y-130887500D03*
X129300000Y-132712500D03*
%TD*%
D40*
%TO.C,D16*%
X167300000Y-151350000D03*
X171300000Y-151350000D03*
%TD*%
D41*
%TO.C,Y1*%
X131099000Y-102100000D03*
D42*
X130149000Y-102100000D03*
D41*
X129199000Y-102100000D03*
%TD*%
D25*
%TO.C,R23*%
X140087500Y-160799000D03*
X141912500Y-160799000D03*
%TD*%
D37*
%TO.C,C11*%
X127299000Y-102100000D03*
X125399000Y-102100000D03*
%TD*%
D43*
%TO.C,Q1*%
X174350000Y-133237500D03*
X172450000Y-133237500D03*
X173400000Y-131362500D03*
%TD*%
D25*
%TO.C,R13*%
X144087500Y-136949000D03*
X145912500Y-136949000D03*
%TD*%
D24*
%TO.C,R8*%
X148100000Y-140836500D03*
X148100000Y-142661500D03*
%TD*%
%TO.C,R7*%
X146050000Y-140849000D03*
X146050000Y-142674000D03*
%TD*%
D10*
%TO.C,D1*%
X176300000Y-123750000D03*
X176300000Y-126250000D03*
%TD*%
D24*
%TO.C,R3*%
X118399000Y-110787500D03*
X118399000Y-112612500D03*
%TD*%
D32*
%TO.C,R6*%
X146699000Y-126661500D03*
X146699000Y-124836500D03*
%TD*%
D44*
%TO.C,L2*%
X129024000Y-124100000D03*
X132174000Y-124100000D03*
%TD*%
D15*
%TO.C,C17*%
X130350000Y-140650000D03*
X132250000Y-140650000D03*
%TD*%
%TO.C,C18*%
X115150000Y-140665000D03*
X117050000Y-140665000D03*
%TD*%
D45*
%TO.C,U17*%
X90850000Y-121485000D03*
X90850000Y-120215000D03*
X90850000Y-118945000D03*
X90850000Y-117675000D03*
X90850000Y-116405000D03*
X90850000Y-115135000D03*
X90850000Y-113865000D03*
X90850000Y-112595000D03*
X90850000Y-111325000D03*
X90850000Y-110055000D03*
X90850000Y-108785000D03*
X90850000Y-107515000D03*
X100150000Y-107515000D03*
X100150000Y-108785000D03*
X100150000Y-110055000D03*
X100150000Y-111325000D03*
X100150000Y-112595000D03*
X100150000Y-113865000D03*
X100150000Y-115135000D03*
X100150000Y-116405000D03*
X100150000Y-117675000D03*
X100150000Y-118945000D03*
X100150000Y-120215000D03*
X100150000Y-121485000D03*
%TD*%
M02*
