%TF.GenerationSoftware,KiCad,Pcbnew,(6.0.6)*%
%TF.CreationDate,2022-06-29T12:44:08+02:00*%
%TF.ProjectId,CNLJS,434e4c4a-532e-46b6-9963-61645f706362,rev?*%
%TF.SameCoordinates,Original*%
%TF.FileFunction,Paste,Top*%
%TF.FilePolarity,Positive*%
%FSLAX46Y46*%
G04 Gerber Fmt 4.6, Leading zero omitted, Abs format (unit mm)*
G04 Created by KiCad (PCBNEW (6.0.6)) date 2022-06-29 12:44:08*
%MOMM*%
%LPD*%
G01*
G04 APERTURE LIST*
G04 Aperture macros list*
%AMRoundRect*
0 Rectangle with rounded corners*
0 $1 Rounding radius*
0 $2 $3 $4 $5 $6 $7 $8 $9 X,Y pos of 4 corners*
0 Add a 4 corners polygon primitive as box body*
4,1,4,$2,$3,$4,$5,$6,$7,$8,$9,$2,$3,0*
0 Add four circle primitives for the rounded corners*
1,1,$1+$1,$2,$3*
1,1,$1+$1,$4,$5*
1,1,$1+$1,$6,$7*
1,1,$1+$1,$8,$9*
0 Add four rect primitives between the rounded corners*
20,1,$1+$1,$2,$3,$4,$5,0*
20,1,$1+$1,$4,$5,$6,$7,0*
20,1,$1+$1,$6,$7,$8,$9,0*
20,1,$1+$1,$8,$9,$2,$3,0*%
G04 Aperture macros list end*
%ADD10R,1.000000X1.500000*%
%ADD11R,1.500000X1.000000*%
%ADD12R,1.500000X1.100000*%
%ADD13RoundRect,0.200000X-0.275000X0.200000X-0.275000X-0.200000X0.275000X-0.200000X0.275000X0.200000X0*%
%ADD14R,1.100000X1.500000*%
%ADD15RoundRect,0.200000X0.200000X0.275000X-0.200000X0.275000X-0.200000X-0.275000X0.200000X-0.275000X0*%
%ADD16RoundRect,0.200000X0.275000X-0.200000X0.275000X0.200000X-0.275000X0.200000X-0.275000X-0.200000X0*%
G04 APERTURE END LIST*
D10*
%TO.C,POS24*%
X155549995Y-38000000D03*
X152349995Y-38000000D03*
X152349995Y-42900000D03*
X155549995Y-42900000D03*
%TD*%
D11*
%TO.C,FIN8*%
X193000000Y-46950000D03*
X193000000Y-43750000D03*
X188100000Y-43750000D03*
X188100000Y-46950000D03*
%TD*%
%TO.C,POS81*%
X103300000Y-107650000D03*
X103300000Y-104450000D03*
X98400000Y-104450000D03*
X98400000Y-107650000D03*
%TD*%
%TO.C,POS58*%
X174900000Y-100450000D03*
X174900000Y-97250000D03*
X170000000Y-97250000D03*
X170000000Y-100450000D03*
%TD*%
D10*
%TO.C,POS61*%
X202649996Y-129300000D03*
X205849996Y-129300000D03*
X205849996Y-124400000D03*
X202649996Y-124400000D03*
%TD*%
%TO.C,FIN10*%
X173850000Y-127800000D03*
X177050000Y-127800000D03*
X177050000Y-122900000D03*
X173850000Y-122900000D03*
%TD*%
%TO.C,POS30*%
X152249995Y-147599996D03*
X155449995Y-147599996D03*
X155449995Y-142699996D03*
X152249995Y-142699996D03*
%TD*%
D12*
%TO.C,LED7*%
X135009992Y-98068851D03*
X135009992Y-99848851D03*
X138289992Y-99848851D03*
X138289992Y-98068851D03*
%TD*%
D10*
%TO.C,POS66*%
X178650000Y-151400000D03*
X175450000Y-151400000D03*
X175450000Y-156300000D03*
X178650000Y-156300000D03*
%TD*%
D11*
%TO.C,POS29*%
X140199992Y-132232315D03*
X140199992Y-135432315D03*
X145099992Y-135432315D03*
X145099992Y-132232315D03*
%TD*%
D10*
%TO.C,FIN12*%
X188950000Y-142800000D03*
X192150000Y-142800000D03*
X192150000Y-137900000D03*
X188950000Y-137900000D03*
%TD*%
%TO.C,POS78*%
X77850000Y-136400000D03*
X74650000Y-136400000D03*
X74650000Y-141300000D03*
X77850000Y-141300000D03*
%TD*%
%TO.C,POS71*%
X134850000Y-124700000D03*
X138050000Y-124700000D03*
X138050000Y-119800000D03*
X134850000Y-119800000D03*
%TD*%
D11*
%TO.C,POS27*%
X192899988Y-91246976D03*
X192899988Y-94446976D03*
X197799988Y-94446976D03*
X197799988Y-91246976D03*
%TD*%
D10*
%TO.C,POS47*%
X167350000Y-38000000D03*
X164150000Y-38000000D03*
X164150000Y-42900000D03*
X167350000Y-42900000D03*
%TD*%
D11*
%TO.C,POS56*%
X170000000Y-85150000D03*
X170000000Y-88350000D03*
X174900000Y-88350000D03*
X174900000Y-85150000D03*
%TD*%
D10*
%TO.C,FIN4*%
X96350000Y-42900000D03*
X93150000Y-42900000D03*
X93150000Y-47800000D03*
X96350000Y-47800000D03*
%TD*%
D11*
%TO.C,POS38*%
X87700000Y-29950000D03*
X87700000Y-26750000D03*
X82800000Y-26750000D03*
X82800000Y-29950000D03*
%TD*%
%TO.C,POS33*%
X98399999Y-77750000D03*
X98399999Y-80950000D03*
X103299999Y-80950000D03*
X103299999Y-77750000D03*
%TD*%
%TO.C,POS65*%
X186600000Y-156750000D03*
X186600000Y-159950000D03*
X191500000Y-159950000D03*
X191500000Y-156750000D03*
%TD*%
%TO.C,POS39*%
X98800000Y-28750000D03*
X98800000Y-25550000D03*
X93900000Y-25550000D03*
X93900000Y-28750000D03*
%TD*%
D10*
%TO.C,TP_LED_9*%
X211600000Y-71746976D03*
X208400000Y-71746976D03*
X208400000Y-76646976D03*
X211600000Y-76646976D03*
%TD*%
%TO.C,POS36*%
X77950000Y-44100000D03*
X74750000Y-44100000D03*
X74750000Y-49000000D03*
X77950000Y-49000000D03*
%TD*%
D13*
%TO.C,R22*%
X73800000Y-66275000D03*
X73800000Y-67925000D03*
%TD*%
D14*
%TO.C,LED2*%
X141759992Y-88598850D03*
X143539992Y-88598850D03*
X143539992Y-85318850D03*
X141759992Y-85318850D03*
%TD*%
D10*
%TO.C,TP_LED_2*%
X73800000Y-95350000D03*
X77000000Y-95350000D03*
X77000000Y-90450000D03*
X73800000Y-90450000D03*
%TD*%
%TO.C,POS72*%
X127750000Y-136300000D03*
X130950000Y-136300000D03*
X130950000Y-131400000D03*
X127750000Y-131400000D03*
%TD*%
D11*
%TO.C,TP_LED_4*%
X158900004Y-24050000D03*
X158900004Y-27250000D03*
X163800004Y-27250000D03*
X163800004Y-24050000D03*
%TD*%
D10*
%TO.C,POS69*%
X150450000Y-119900000D03*
X147250000Y-119900000D03*
X147250000Y-124800000D03*
X150450000Y-124800000D03*
%TD*%
%TO.C,POS17*%
X99249999Y-95299999D03*
X102449999Y-95299999D03*
X102449999Y-90399999D03*
X99249999Y-90399999D03*
%TD*%
D11*
%TO.C,TP_LED_12*%
X163646969Y-161900000D03*
X163646969Y-158700000D03*
X158746969Y-158700000D03*
X158746969Y-161900000D03*
%TD*%
D10*
%TO.C,TP_LED_8*%
X211600000Y-90396976D03*
X208400000Y-90396976D03*
X208400000Y-95296976D03*
X211600000Y-95296976D03*
%TD*%
D11*
%TO.C,POS31*%
X140096969Y-143549996D03*
X140096969Y-146749996D03*
X144996969Y-146749996D03*
X144996969Y-143549996D03*
%TD*%
D10*
%TO.C,FIN9*%
X166250000Y-120300000D03*
X169450000Y-120300000D03*
X169450000Y-115400000D03*
X166250000Y-115400000D03*
%TD*%
D11*
%TO.C,TP_LED_11*%
X144950000Y-161900000D03*
X144950000Y-158700000D03*
X140050000Y-158700000D03*
X140050000Y-161900000D03*
%TD*%
D10*
%TO.C,POS52*%
X206950000Y-49000000D03*
X210150000Y-49000000D03*
X210150000Y-44100000D03*
X206950000Y-44100000D03*
%TD*%
D11*
%TO.C,FIN13*%
X115000000Y-116250000D03*
X115000000Y-119450000D03*
X119900000Y-119450000D03*
X119900000Y-116250000D03*
%TD*%
D10*
%TO.C,POS77*%
X79250000Y-147167677D03*
X76050000Y-147167677D03*
X76050000Y-152067677D03*
X79250000Y-152067677D03*
%TD*%
%TO.C,TP_LED_1*%
X73800000Y-76700000D03*
X77000000Y-76700000D03*
X77000000Y-71800000D03*
X73800000Y-71800000D03*
%TD*%
D12*
%TO.C,LED1*%
X138289992Y-87840000D03*
X138289992Y-86060000D03*
X135009992Y-86060000D03*
X135009992Y-87840000D03*
%TD*%
D10*
%TO.C,POS35*%
X82550000Y-56100000D03*
X79350000Y-56100000D03*
X79350000Y-61000000D03*
X82550000Y-61000000D03*
%TD*%
%TO.C,POS41*%
X117950000Y-42900000D03*
X121150000Y-42900000D03*
X121150000Y-38000000D03*
X117950000Y-38000000D03*
%TD*%
D11*
%TO.C,FIN16*%
X92300000Y-138750000D03*
X92300000Y-141950000D03*
X97200000Y-141950000D03*
X97200000Y-138750000D03*
%TD*%
%TO.C,POS26*%
X197799988Y-83049996D03*
X197799988Y-79849996D03*
X192899988Y-79849996D03*
X192899988Y-83049996D03*
%TD*%
%TO.C,TP_LED_5*%
X140250000Y-24050000D03*
X140250000Y-27250000D03*
X145150000Y-27250000D03*
X145150000Y-24050000D03*
%TD*%
D10*
%TO.C,POS57*%
X159950000Y-95300000D03*
X163150000Y-95300000D03*
X163150000Y-90400000D03*
X159950000Y-90400000D03*
%TD*%
%TO.C,POS23*%
X141100004Y-42900000D03*
X144300004Y-42900000D03*
X144300004Y-38000000D03*
X141100004Y-38000000D03*
%TD*%
D12*
%TO.C,LED8*%
X138289992Y-93798851D03*
X138289992Y-92018851D03*
X135009992Y-92018851D03*
X135009992Y-93798851D03*
%TD*%
D15*
%TO.C,R36*%
X101825000Y-87250000D03*
X100175000Y-87250000D03*
%TD*%
D11*
%TO.C,POS48*%
X179500000Y-33150000D03*
X179500000Y-29950000D03*
X174600000Y-29950000D03*
X174600000Y-33150000D03*
%TD*%
D10*
%TO.C,POS42*%
X127750000Y-54100000D03*
X130950000Y-54100000D03*
X130950000Y-49200000D03*
X127750000Y-49200000D03*
%TD*%
D11*
%TO.C,POS28*%
X192899988Y-102650001D03*
X192899988Y-105850001D03*
X197799988Y-105850001D03*
X197799988Y-102650001D03*
%TD*%
D16*
%TO.C,R35*%
X131000000Y-93825000D03*
X131000000Y-92175000D03*
%TD*%
D10*
%TO.C,POS73*%
X117950000Y-147600000D03*
X121150000Y-147600000D03*
X121150000Y-142700000D03*
X117950000Y-142700000D03*
%TD*%
D11*
%TO.C,POS80*%
X91900000Y-117450000D03*
X91900000Y-114250000D03*
X87000000Y-114250000D03*
X87000000Y-117450000D03*
%TD*%
D14*
%TO.C,LED6*%
X143539992Y-97318839D03*
X141759992Y-97318839D03*
X141759992Y-100598839D03*
X143539992Y-100598839D03*
%TD*%
D11*
%TO.C,POS55*%
X181600000Y-77750000D03*
X181600000Y-80950000D03*
X186500000Y-80950000D03*
X186500000Y-77750000D03*
%TD*%
D10*
%TO.C,POS51*%
X205850000Y-38264644D03*
X209050000Y-38264644D03*
X209050000Y-33364644D03*
X205850000Y-33364644D03*
%TD*%
D11*
%TO.C,FIN14*%
X107400000Y-123850000D03*
X107400000Y-127050000D03*
X112300000Y-127050000D03*
X112300000Y-123850000D03*
%TD*%
%TO.C,POS49*%
X191400000Y-28750000D03*
X191400000Y-25550000D03*
X186500000Y-25550000D03*
X186500000Y-28750000D03*
%TD*%
%TO.C,POS44*%
X145100000Y-75750000D03*
X145100000Y-72550000D03*
X140200000Y-72550000D03*
X140200000Y-75750000D03*
%TD*%
D10*
%TO.C,POS60*%
X193749988Y-118300000D03*
X196949988Y-118300000D03*
X196949988Y-113400000D03*
X193749988Y-113400000D03*
%TD*%
D11*
%TO.C,POS21*%
X140250004Y-50150005D03*
X140250004Y-53350005D03*
X145150004Y-53350005D03*
X145150004Y-50150005D03*
%TD*%
%TO.C,FIN7*%
X185500000Y-54450000D03*
X185500000Y-51250000D03*
X180600000Y-51250000D03*
X180600000Y-54450000D03*
%TD*%
%TO.C,FIN5*%
X170250000Y-69450000D03*
X170250000Y-66250000D03*
X165350000Y-66250000D03*
X165350000Y-69450000D03*
%TD*%
D10*
%TO.C,POS59*%
X182400000Y-108500000D03*
X185600000Y-108500000D03*
X185600000Y-103600000D03*
X182400000Y-103600000D03*
%TD*%
D14*
%TO.C,LED3*%
X147759992Y-88481172D03*
X149539992Y-88481172D03*
X149539992Y-85201172D03*
X147759992Y-85201172D03*
%TD*%
D11*
%TO.C,FIN15*%
X100000000Y-131250000D03*
X100000000Y-134450000D03*
X104900000Y-134450000D03*
X104900000Y-131250000D03*
%TD*%
%TO.C,TP_LED_10*%
X126346969Y-161900000D03*
X126346969Y-158700000D03*
X121446969Y-158700000D03*
X121446969Y-161900000D03*
%TD*%
D10*
%TO.C,POS83*%
X125350000Y-90500000D03*
X122150000Y-90500000D03*
X122150000Y-95400000D03*
X125350000Y-95400000D03*
%TD*%
D15*
%TO.C,R33*%
X121575000Y-74050000D03*
X119925000Y-74050000D03*
%TD*%
D10*
%TO.C,POS63*%
X205750000Y-152000000D03*
X208950000Y-152000000D03*
X208950000Y-147100000D03*
X205750000Y-147100000D03*
%TD*%
%TO.C,POS54*%
X193650000Y-72000000D03*
X196850000Y-72000000D03*
X196850000Y-67100000D03*
X193650000Y-67100000D03*
%TD*%
D11*
%TO.C,POS70*%
X140200000Y-110050000D03*
X140200000Y-113250000D03*
X145100000Y-113250000D03*
X145100000Y-110050000D03*
%TD*%
%TO.C,POS84*%
X110200000Y-85150000D03*
X110200000Y-88350000D03*
X115100000Y-88350000D03*
X115100000Y-85150000D03*
%TD*%
D10*
%TO.C,POS37*%
X79250000Y-33400000D03*
X76050000Y-33400000D03*
X76050000Y-38300000D03*
X79250000Y-38300000D03*
%TD*%
%TO.C,POS19*%
X91049997Y-90450011D03*
X87849997Y-90450011D03*
X87849997Y-95350011D03*
X91049997Y-95350011D03*
%TD*%
%TO.C,POS22*%
X133049989Y-38000000D03*
X129849989Y-38000000D03*
X129849989Y-42900000D03*
X133049989Y-42900000D03*
%TD*%
%TO.C,POS76*%
X86903033Y-154767677D03*
X83703033Y-154767677D03*
X83703033Y-159667677D03*
X86903033Y-159667677D03*
%TD*%
D11*
%TO.C,POS64*%
X197482322Y-155550000D03*
X197482322Y-158750000D03*
X202382322Y-158750000D03*
X202382322Y-155550000D03*
%TD*%
D10*
%TO.C,TP_LED_3*%
X73800000Y-114000000D03*
X77000000Y-114000000D03*
X77000000Y-109100000D03*
X73800000Y-109100000D03*
%TD*%
%TO.C,POS67*%
X167350000Y-142600000D03*
X164150000Y-142600000D03*
X164150000Y-147500000D03*
X167350000Y-147500000D03*
%TD*%
D11*
%TO.C,POS75*%
X93900000Y-156750000D03*
X93900000Y-159950000D03*
X98800000Y-159950000D03*
X98800000Y-156750000D03*
%TD*%
%TO.C,FIN6*%
X177900000Y-61950000D03*
X177900000Y-58750000D03*
X173000000Y-58750000D03*
X173000000Y-61950000D03*
%TD*%
%TO.C,POS79*%
X83400000Y-128450000D03*
X83400000Y-125250000D03*
X78500000Y-125250000D03*
X78500000Y-128450000D03*
%TD*%
D10*
%TO.C,FIN3*%
X104050000Y-50400000D03*
X100850000Y-50400000D03*
X100850000Y-55300000D03*
X104050000Y-55300000D03*
%TD*%
%TO.C,POS34*%
X91050000Y-67100000D03*
X87850000Y-67100000D03*
X87850000Y-72000000D03*
X91050000Y-72000000D03*
%TD*%
%TO.C,FIN1*%
X119150000Y-65400000D03*
X115950000Y-65400000D03*
X115950000Y-70300000D03*
X119150000Y-70300000D03*
%TD*%
%TO.C,POS45*%
X150450000Y-60500000D03*
X147250000Y-60500000D03*
X147250000Y-65400000D03*
X150450000Y-65400000D03*
%TD*%
%TO.C,FIN11*%
X181450000Y-135300000D03*
X184650000Y-135300000D03*
X184650000Y-130400000D03*
X181450000Y-130400000D03*
%TD*%
%TO.C,TP_LED_7*%
X211600000Y-109046976D03*
X208400000Y-109046976D03*
X208400000Y-113946976D03*
X211600000Y-113946976D03*
%TD*%
%TO.C,POS18*%
X91049997Y-101700000D03*
X87849997Y-101700000D03*
X87849997Y-106600000D03*
X91049997Y-106600000D03*
%TD*%
D12*
%TO.C,LED4*%
X147009992Y-92018851D03*
X147009992Y-93798851D03*
X150289992Y-93798851D03*
X150289992Y-92018851D03*
%TD*%
D10*
%TO.C,POS43*%
X134850000Y-65400000D03*
X138050000Y-65400000D03*
X138050000Y-60500000D03*
X134850000Y-60500000D03*
%TD*%
%TO.C,POS20*%
X91049997Y-79099996D03*
X87849997Y-79099996D03*
X87849997Y-83999996D03*
X91049997Y-83999996D03*
%TD*%
%TO.C,POS53*%
X202650000Y-61000000D03*
X205850000Y-61000000D03*
X205850000Y-56100000D03*
X202650000Y-56100000D03*
%TD*%
%TO.C,POS46*%
X157650000Y-49200000D03*
X154450000Y-49200000D03*
X154450000Y-54100000D03*
X157650000Y-54100000D03*
%TD*%
%TO.C,POS25*%
X182432332Y-95299999D03*
X185632332Y-95299999D03*
X185632332Y-90399999D03*
X182432332Y-90399999D03*
%TD*%
D11*
%TO.C,TP_LED_6*%
X121600004Y-24050000D03*
X121600004Y-27250000D03*
X126500004Y-27250000D03*
X126500004Y-24050000D03*
%TD*%
%TO.C,POS50*%
X202400000Y-29917677D03*
X202400000Y-26717677D03*
X197500000Y-26717677D03*
X197500000Y-29917677D03*
%TD*%
D12*
%TO.C,LED5*%
X147009992Y-98068851D03*
X147009992Y-99848851D03*
X150289992Y-99848851D03*
X150289992Y-98068851D03*
%TD*%
D11*
%TO.C,POS40*%
X110900000Y-33250000D03*
X110900000Y-30050000D03*
X106000000Y-30050000D03*
X106000000Y-33250000D03*
%TD*%
%TO.C,POS74*%
X106000000Y-152250000D03*
X106000000Y-155450000D03*
X110900000Y-155450000D03*
X110900000Y-152250000D03*
%TD*%
D10*
%TO.C,FIN2*%
X111450000Y-57900000D03*
X108250000Y-57900000D03*
X108250000Y-62800000D03*
X111450000Y-62800000D03*
%TD*%
D11*
%TO.C,POS32*%
X128799989Y-143549996D03*
X128799989Y-146749996D03*
X133699989Y-146749996D03*
X133699989Y-143549996D03*
%TD*%
D10*
%TO.C,POS62*%
X206850000Y-141000000D03*
X210050000Y-141000000D03*
X210050000Y-136100000D03*
X206850000Y-136100000D03*
%TD*%
D14*
%TO.C,LED9*%
X141759992Y-94598838D03*
X143539992Y-94598838D03*
X143539992Y-91318838D03*
X141759992Y-91318838D03*
%TD*%
D10*
%TO.C,POS68*%
X157650000Y-131300000D03*
X154450000Y-131300000D03*
X154450000Y-136200000D03*
X157650000Y-136200000D03*
%TD*%
D11*
%TO.C,POS82*%
X115100000Y-100450000D03*
X115100000Y-97250000D03*
X110200000Y-97250000D03*
X110200000Y-100450000D03*
%TD*%
D15*
%TO.C,R34*%
X111875000Y-77750000D03*
X110225000Y-77750000D03*
%TD*%
M02*
