M48
; DRILL file {KiCad (6.0.6)} date Wed Jun 29 12:44:09 2022
; FORMAT={-:-/ absolute / inch / decimal}
; #@! TF.CreationDate,2022-06-29T12:44:09+02:00
; #@! TF.GenerationSoftware,Kicad,Pcbnew,(6.0.6)
; #@! TF.FileFunction,Plated,1,2,PTH
FMAT,2
INCH
; #@! TA.AperFunction,Plated,PTH,ViaDrill
T1C0.0157
; #@! TA.AperFunction,Plated,PTH,ComponentDrill
T2C0.0236
; #@! TA.AperFunction,Plated,PTH,ComponentDrill
T3C0.0276
%
G90
G05
T1
X2.8366Y-4.687
X2.8563Y-3.8583
X2.8839Y-2.5492
X2.9705Y-4.1969
X2.9705Y-4.4862
X2.9803Y-3.9547
X2.9961Y-4.0354
X2.998Y-4.1161
X3.0118Y-1.6634
X3.1043Y-4.498
X3.2008Y-1.6752
X3.3346Y-4.0354
X3.3937Y-4.2323
X3.4587Y-3.0413
X3.7008Y-4.5079
X3.7836Y-4.5079
X3.8189Y-4.9114
X3.8425Y-4.5945
X3.8622Y-4.5079
X4.0551Y-4.5079
X4.063Y-4.5945
X4.1614Y-5.4429
X4.3386Y-4.2677
X4.4213Y-4.2677
X4.4331Y-3.8563
X4.4331Y-5.1378
X4.4331Y-5.2283
X4.4626Y-3.061
X4.4626Y-3.4094
X4.4882Y-3.6969
X4.5256Y-4.4823
X4.6024Y-3.7776
X4.6181Y-4.2677
X4.6182Y-3.9644
X4.6535Y-3.8563
X4.6693Y-3.565
X4.7185Y-3.4843
X4.7185Y-3.7264
X4.7559Y-3.565
X4.7904Y-4.2686
X4.8602Y-3.9193
X4.8602Y-4.1476
X4.8937Y-4.0197
X4.9193Y-5.2559
X4.9291Y-4.7323
X4.935Y-3.6475
X4.9547Y-4.2953
X4.9764Y-6.1732
X5.0079Y-4.4646
X5.0118Y-3.7283
X5.0118Y-3.8858
X5.0177Y-3.4843
X5.0236Y-5.4331
X5.0571Y-6.0
X5.065Y-4.3169
X5.0728Y-6.1772
X5.0728Y-6.2126
X5.0728Y-6.248
X5.0748Y-6.1417
X5.0906Y-3.9035
X5.1083Y-6.1772
X5.1083Y-6.2126
X5.1083Y-6.248
X5.1102Y-6.1417
X5.1142Y-4.4567
X5.124Y-4.0925
X5.1378Y-6.0827
X5.1791Y-1.0236
X5.2205Y-3.2165
X5.2205Y-3.5276
X5.2283Y-3.9843
X5.2303Y-6.378
X5.2402Y-1.1063
X5.2441Y-4.5866
X5.252Y-4.7323
X5.252Y-5.5374
X5.2677Y-4.3504
X5.2894Y-1.0236
X5.2992Y-6.3504
X5.3543Y-1.4055
X5.3681Y-0.8957
X5.3898Y-6.1654
X5.3898Y-6.2008
X5.3898Y-6.2362
X5.4193Y-6.0
X5.4252Y-6.1654
X5.4252Y-6.2008
X5.4252Y-6.2362
X5.4449Y-3.5039
X5.4606Y-6.1654
X5.4961Y-3.6929
X5.4961Y-6.1654
X5.5315Y-3.7244
X5.5315Y-6.1654
X5.5354Y-3.5039
X5.626Y-5.1378
X5.6339Y-6.3307
X5.6516Y-1.9744
X5.6969Y-3.8307
X5.7087Y-3.5433
X5.7087Y-3.6614
X5.7717Y-3.4882
X5.7717Y-5.7244
X5.7756Y-4.8445
X5.7874Y-3.5787
X5.7874Y-3.8189
X5.8346Y-5.1575
X5.8543Y-4.8445
X5.8819Y-5.1181
X5.9114Y-5.6614
X5.9488Y-5.248
X5.9902Y-5.6929
X5.9921Y-3.6614
X5.998Y-1.5689
X6.0945Y-3.4882
X6.1378Y-4.7205
X6.1378Y-4.7598
X6.1378Y-4.7992
X6.1417Y-5.1437
X6.1772Y-4.7205
X6.1772Y-4.7598
X6.1772Y-4.7992
X6.1772Y-4.9724
X6.2165Y-4.6811
X6.2165Y-4.7205
X6.2165Y-4.7598
X6.2165Y-4.7992
X6.2165Y-4.9724
X6.2559Y-4.6811
X6.2559Y-4.7205
X6.2559Y-4.7598
X6.2559Y-4.7992
X6.2559Y-4.9724
X6.3012Y-5.3976
X6.3583Y-0.9469
X6.3681Y-4.9724
X6.3681Y-5.0079
X6.4055Y-4.9724
X6.4055Y-5.0079
X6.4429Y-4.9724
X6.4429Y-5.0079
X6.5Y-5.2618
X6.5315Y-5.5276
X6.5315Y-5.626
X6.5315Y-5.6614
X6.5669Y-5.5276
X6.5984Y-6.128
X6.6024Y-5.4331
X6.6024Y-5.4685
X6.6024Y-5.5039
X6.7559Y-6.128
X6.8425Y-5.8091
X6.8504Y-4.5394
X6.9075Y-4.2618
X6.9311Y-4.3287
X6.9311Y-4.4606
X6.9587Y-3.8268
X7.0531Y-4.1162
X7.0591Y-5.0551
X7.0787Y-4.0276
X7.0866Y-5.8661
X7.0866Y-5.9055
X7.0866Y-5.9449
X7.0866Y-5.9843
X7.0866Y-6.0236
X7.126Y-5.8661
X7.126Y-5.9055
X7.126Y-5.9449
X7.126Y-5.9843
X7.126Y-6.0236
X7.1654Y-5.7874
X7.1654Y-5.8268
X7.1654Y-5.8661
X7.1654Y-5.9055
X7.1654Y-5.9449
X7.1654Y-5.9843
X7.1654Y-6.0236
X7.1831Y-3.4843
X7.2047Y-5.7874
X7.2047Y-5.8268
X7.2047Y-5.8661
X7.2047Y-5.9055
X7.2047Y-5.9449
X7.2047Y-5.9843
X7.2047Y-6.0236
X7.3091Y-3.6791
X7.3425Y-3.9587
X7.3898Y-4.1673
X7.5217Y-3.2697
X7.5217Y-3.9587
X7.5236Y-4.1673
X7.6831Y-6.4232
X8.0217Y-3.2224
X8.0217Y-3.3268
X8.1417Y-2.8248
X8.3622Y-3.2146
X8.3622Y-3.3839
X8.3957Y-4.4862
X8.3996Y-2.0492
X8.3996Y-2.4626
T3
X2.751Y-3.9852
X2.751Y-4.0352
X2.751Y-4.0852
X2.801Y-3.9852
X2.801Y-4.0352
X2.801Y-4.0852
X5.1904Y-0.7923
X5.1904Y-0.8423
X5.2404Y-0.7923
X5.2404Y-0.8423
X5.2904Y-0.7923
X5.2904Y-0.8423
X5.3626Y-4.1142
X5.3626Y-4.1642
X5.4126Y-4.1142
X5.4126Y-4.1642
X5.4626Y-4.1142
X5.4626Y-4.1642
X5.938Y-6.4785
X5.938Y-6.5285
X5.988Y-6.4785
X5.988Y-6.5285
X6.038Y-6.4785
X6.038Y-6.5285
X8.4352Y-3.2278
X8.4352Y-3.2778
X8.4352Y-3.3278
X8.4852Y-3.2278
X8.4852Y-3.2778
X8.4852Y-3.3278
T2
G00X5.078Y-6.3535
M15
G01X5.078Y-6.3102
M16
G05
G00X5.078Y-6.5082
M15
G01X5.078Y-6.4846
M16
G05
G00X5.4181Y-6.3535
M15
G01X5.4181Y-6.3102
M16
G05
G00X5.4181Y-6.5082
M15
G01X5.4181Y-6.4846
M16
G05
T0
M30
