%TF.GenerationSoftware,KiCad,Pcbnew,(6.0.6)*%
%TF.CreationDate,2022-06-29T12:44:08+02:00*%
%TF.ProjectId,CNLJS,434e4c4a-532e-46b6-9963-61645f706362,rev?*%
%TF.SameCoordinates,Original*%
%TF.FileFunction,Legend,Bot*%
%TF.FilePolarity,Positive*%
%FSLAX46Y46*%
G04 Gerber Fmt 4.6, Leading zero omitted, Abs format (unit mm)*
G04 Created by KiCad (PCBNEW (6.0.6)) date 2022-06-29 12:44:08*
%MOMM*%
%LPD*%
G01*
G04 APERTURE LIST*
%ADD10C,0.120000*%
%ADD11C,0.200000*%
%ADD12C,0.150000*%
G04 APERTURE END LIST*
D10*
X153350000Y-119900000D02*
X153350000Y-121400000D01*
X152600000Y-120700000D02*
X154100000Y-120700000D01*
D11*
X212428571Y-127971428D02*
X213500000Y-127971428D01*
X213714285Y-127900000D01*
X213857142Y-127757142D01*
X213928571Y-127542857D01*
X213928571Y-127400000D01*
X213928571Y-129400000D02*
X213928571Y-128685714D01*
X212428571Y-128685714D01*
X213785714Y-130757142D02*
X213857142Y-130685714D01*
X213928571Y-130471428D01*
X213928571Y-130328571D01*
X213857142Y-130114285D01*
X213714285Y-129971428D01*
X213571428Y-129900000D01*
X213285714Y-129828571D01*
X213071428Y-129828571D01*
X212785714Y-129900000D01*
X212642857Y-129971428D01*
X212500000Y-130114285D01*
X212428571Y-130328571D01*
X212428571Y-130471428D01*
X212500000Y-130685714D01*
X212571428Y-130757142D01*
X212428571Y-131828571D02*
X213500000Y-131828571D01*
X213714285Y-131757142D01*
X213857142Y-131614285D01*
X213928571Y-131400000D01*
X213928571Y-131257142D01*
X213928571Y-133257142D02*
X213928571Y-132542857D01*
X212428571Y-132542857D01*
X213785714Y-134614285D02*
X213857142Y-134542857D01*
X213928571Y-134328571D01*
X213928571Y-134185714D01*
X213857142Y-133971428D01*
X213714285Y-133828571D01*
X213571428Y-133757142D01*
X213285714Y-133685714D01*
X213071428Y-133685714D01*
X212785714Y-133757142D01*
X212642857Y-133828571D01*
X212500000Y-133971428D01*
X212428571Y-134185714D01*
X212428571Y-134328571D01*
X212500000Y-134542857D01*
X212571428Y-134614285D01*
X212428571Y-135685714D02*
X213500000Y-135685714D01*
X213714285Y-135614285D01*
X213857142Y-135471428D01*
X213928571Y-135257142D01*
X213928571Y-135114285D01*
X213928571Y-137114285D02*
X213928571Y-136400000D01*
X212428571Y-136400000D01*
X213785714Y-138471428D02*
X213857142Y-138400000D01*
X213928571Y-138185714D01*
X213928571Y-138042857D01*
X213857142Y-137828571D01*
X213714285Y-137685714D01*
X213571428Y-137614285D01*
X213285714Y-137542857D01*
X213071428Y-137542857D01*
X212785714Y-137614285D01*
X212642857Y-137685714D01*
X212500000Y-137828571D01*
X212428571Y-138042857D01*
X212428571Y-138185714D01*
X212500000Y-138400000D01*
X212571428Y-138471428D01*
X212428571Y-139542857D02*
X213500000Y-139542857D01*
X213714285Y-139471428D01*
X213857142Y-139328571D01*
X213928571Y-139114285D01*
X213928571Y-138971428D01*
X213928571Y-140971428D02*
X213928571Y-140257142D01*
X212428571Y-140257142D01*
X213785714Y-142328571D02*
X213857142Y-142257142D01*
X213928571Y-142042857D01*
X213928571Y-141900000D01*
X213857142Y-141685714D01*
X213714285Y-141542857D01*
X213571428Y-141471428D01*
X213285714Y-141400000D01*
X213071428Y-141400000D01*
X212785714Y-141471428D01*
X212642857Y-141542857D01*
X212500000Y-141685714D01*
X212428571Y-141900000D01*
X212428571Y-142042857D01*
X212500000Y-142257142D01*
X212571428Y-142328571D01*
D12*
%TO.C,U2*%
X153852380Y-132587095D02*
X154661904Y-132587095D01*
X154757142Y-132634714D01*
X154804761Y-132682333D01*
X154852380Y-132777571D01*
X154852380Y-132968047D01*
X154804761Y-133063285D01*
X154757142Y-133110904D01*
X154661904Y-133158523D01*
X153852380Y-133158523D01*
X153947619Y-133587095D02*
X153900000Y-133634714D01*
X153852380Y-133729952D01*
X153852380Y-133968047D01*
X153900000Y-134063285D01*
X153947619Y-134110904D01*
X154042857Y-134158523D01*
X154138095Y-134158523D01*
X154280952Y-134110904D01*
X154852380Y-133539476D01*
X154852380Y-134158523D01*
%TO.C,C16*%
X154141857Y-128586142D02*
X154189476Y-128633761D01*
X154332333Y-128681380D01*
X154427571Y-128681380D01*
X154570428Y-128633761D01*
X154665666Y-128538523D01*
X154713285Y-128443285D01*
X154760904Y-128252809D01*
X154760904Y-128109952D01*
X154713285Y-127919476D01*
X154665666Y-127824238D01*
X154570428Y-127729000D01*
X154427571Y-127681380D01*
X154332333Y-127681380D01*
X154189476Y-127729000D01*
X154141857Y-127776619D01*
X153189476Y-128681380D02*
X153760904Y-128681380D01*
X153475190Y-128681380D02*
X153475190Y-127681380D01*
X153570428Y-127824238D01*
X153665666Y-127919476D01*
X153760904Y-127967095D01*
X152332333Y-127681380D02*
X152522809Y-127681380D01*
X152618047Y-127729000D01*
X152665666Y-127776619D01*
X152760904Y-127919476D01*
X152808523Y-128109952D01*
X152808523Y-128490904D01*
X152760904Y-128586142D01*
X152713285Y-128633761D01*
X152618047Y-128681380D01*
X152427571Y-128681380D01*
X152332333Y-128633761D01*
X152284714Y-128586142D01*
X152237095Y-128490904D01*
X152237095Y-128252809D01*
X152284714Y-128157571D01*
X152332333Y-128109952D01*
X152427571Y-128062333D01*
X152618047Y-128062333D01*
X152713285Y-128109952D01*
X152760904Y-128157571D01*
X152808523Y-128252809D01*
%TO.C,U3*%
X123661904Y-134852380D02*
X123661904Y-135661904D01*
X123614285Y-135757142D01*
X123566666Y-135804761D01*
X123471428Y-135852380D01*
X123280952Y-135852380D01*
X123185714Y-135804761D01*
X123138095Y-135757142D01*
X123090476Y-135661904D01*
X123090476Y-134852380D01*
X122709523Y-134852380D02*
X122090476Y-134852380D01*
X122423809Y-135233333D01*
X122280952Y-135233333D01*
X122185714Y-135280952D01*
X122138095Y-135328571D01*
X122090476Y-135423809D01*
X122090476Y-135661904D01*
X122138095Y-135757142D01*
X122185714Y-135804761D01*
X122280952Y-135852380D01*
X122566666Y-135852380D01*
X122661904Y-135804761D01*
X122709523Y-135757142D01*
%TO.C,R16*%
X131130357Y-151202380D02*
X131463690Y-150726190D01*
X131701785Y-151202380D02*
X131701785Y-150202380D01*
X131320833Y-150202380D01*
X131225595Y-150250000D01*
X131177976Y-150297619D01*
X131130357Y-150392857D01*
X131130357Y-150535714D01*
X131177976Y-150630952D01*
X131225595Y-150678571D01*
X131320833Y-150726190D01*
X131701785Y-150726190D01*
X130177976Y-151202380D02*
X130749404Y-151202380D01*
X130463690Y-151202380D02*
X130463690Y-150202380D01*
X130558928Y-150345238D01*
X130654166Y-150440476D01*
X130749404Y-150488095D01*
X129320833Y-150202380D02*
X129511309Y-150202380D01*
X129606547Y-150250000D01*
X129654166Y-150297619D01*
X129749404Y-150440476D01*
X129797023Y-150630952D01*
X129797023Y-151011904D01*
X129749404Y-151107142D01*
X129701785Y-151154761D01*
X129606547Y-151202380D01*
X129416071Y-151202380D01*
X129320833Y-151154761D01*
X129273214Y-151107142D01*
X129225595Y-151011904D01*
X129225595Y-150773809D01*
X129273214Y-150678571D01*
X129320833Y-150630952D01*
X129416071Y-150583333D01*
X129606547Y-150583333D01*
X129701785Y-150630952D01*
X129749404Y-150678571D01*
X129797023Y-150773809D01*
%TO.C,D14*%
X136614285Y-133201380D02*
X136614285Y-132201380D01*
X136376190Y-132201380D01*
X136233333Y-132249000D01*
X136138095Y-132344238D01*
X136090476Y-132439476D01*
X136042857Y-132629952D01*
X136042857Y-132772809D01*
X136090476Y-132963285D01*
X136138095Y-133058523D01*
X136233333Y-133153761D01*
X136376190Y-133201380D01*
X136614285Y-133201380D01*
X135090476Y-133201380D02*
X135661904Y-133201380D01*
X135376190Y-133201380D02*
X135376190Y-132201380D01*
X135471428Y-132344238D01*
X135566666Y-132439476D01*
X135661904Y-132487095D01*
X134233333Y-132534714D02*
X134233333Y-133201380D01*
X134471428Y-132153761D02*
X134709523Y-132868047D01*
X134090476Y-132868047D01*
%TO.C,D13*%
X136664285Y-137401380D02*
X136664285Y-136401380D01*
X136426190Y-136401380D01*
X136283333Y-136449000D01*
X136188095Y-136544238D01*
X136140476Y-136639476D01*
X136092857Y-136829952D01*
X136092857Y-136972809D01*
X136140476Y-137163285D01*
X136188095Y-137258523D01*
X136283333Y-137353761D01*
X136426190Y-137401380D01*
X136664285Y-137401380D01*
X135140476Y-137401380D02*
X135711904Y-137401380D01*
X135426190Y-137401380D02*
X135426190Y-136401380D01*
X135521428Y-136544238D01*
X135616666Y-136639476D01*
X135711904Y-136687095D01*
X134807142Y-136401380D02*
X134188095Y-136401380D01*
X134521428Y-136782333D01*
X134378571Y-136782333D01*
X134283333Y-136829952D01*
X134235714Y-136877571D01*
X134188095Y-136972809D01*
X134188095Y-137210904D01*
X134235714Y-137306142D01*
X134283333Y-137353761D01*
X134378571Y-137401380D01*
X134664285Y-137401380D01*
X134759523Y-137353761D01*
X134807142Y-137306142D01*
%TO.C,J2*%
X126852380Y-163765666D02*
X127566666Y-163765666D01*
X127709523Y-163718047D01*
X127804761Y-163622809D01*
X127852380Y-163479952D01*
X127852380Y-163384714D01*
X126947619Y-164194238D02*
X126900000Y-164241857D01*
X126852380Y-164337095D01*
X126852380Y-164575190D01*
X126900000Y-164670428D01*
X126947619Y-164718047D01*
X127042857Y-164765666D01*
X127138095Y-164765666D01*
X127280952Y-164718047D01*
X127852380Y-164146619D01*
X127852380Y-164765666D01*
%TO.C,R4*%
X150601380Y-137982333D02*
X150125190Y-137649000D01*
X150601380Y-137410904D02*
X149601380Y-137410904D01*
X149601380Y-137791857D01*
X149649000Y-137887095D01*
X149696619Y-137934714D01*
X149791857Y-137982333D01*
X149934714Y-137982333D01*
X150029952Y-137934714D01*
X150077571Y-137887095D01*
X150125190Y-137791857D01*
X150125190Y-137410904D01*
X149934714Y-138839476D02*
X150601380Y-138839476D01*
X149553761Y-138601380D02*
X150268047Y-138363285D01*
X150268047Y-138982333D01*
%TO.C,R11*%
X152601380Y-137956142D02*
X152125190Y-137622809D01*
X152601380Y-137384714D02*
X151601380Y-137384714D01*
X151601380Y-137765666D01*
X151649000Y-137860904D01*
X151696619Y-137908523D01*
X151791857Y-137956142D01*
X151934714Y-137956142D01*
X152029952Y-137908523D01*
X152077571Y-137860904D01*
X152125190Y-137765666D01*
X152125190Y-137384714D01*
X152601380Y-138908523D02*
X152601380Y-138337095D01*
X152601380Y-138622809D02*
X151601380Y-138622809D01*
X151744238Y-138527571D01*
X151839476Y-138432333D01*
X151887095Y-138337095D01*
X152601380Y-139860904D02*
X152601380Y-139289476D01*
X152601380Y-139575190D02*
X151601380Y-139575190D01*
X151744238Y-139479952D01*
X151839476Y-139384714D01*
X151887095Y-139289476D01*
%TO.C,R17*%
X136242857Y-151152380D02*
X136576190Y-150676190D01*
X136814285Y-151152380D02*
X136814285Y-150152380D01*
X136433333Y-150152380D01*
X136338095Y-150200000D01*
X136290476Y-150247619D01*
X136242857Y-150342857D01*
X136242857Y-150485714D01*
X136290476Y-150580952D01*
X136338095Y-150628571D01*
X136433333Y-150676190D01*
X136814285Y-150676190D01*
X135290476Y-151152380D02*
X135861904Y-151152380D01*
X135576190Y-151152380D02*
X135576190Y-150152380D01*
X135671428Y-150295238D01*
X135766666Y-150390476D01*
X135861904Y-150438095D01*
X134957142Y-150152380D02*
X134290476Y-150152380D01*
X134719047Y-151152380D01*
%TO.C,U4*%
X165202380Y-145087095D02*
X166011904Y-145087095D01*
X166107142Y-145134714D01*
X166154761Y-145182333D01*
X166202380Y-145277571D01*
X166202380Y-145468047D01*
X166154761Y-145563285D01*
X166107142Y-145610904D01*
X166011904Y-145658523D01*
X165202380Y-145658523D01*
X165535714Y-146563285D02*
X166202380Y-146563285D01*
X165154761Y-146325190D02*
X165869047Y-146087095D01*
X165869047Y-146706142D01*
%TO.C,R20*%
X107352380Y-116956142D02*
X106876190Y-116622809D01*
X107352380Y-116384714D02*
X106352380Y-116384714D01*
X106352380Y-116765666D01*
X106400000Y-116860904D01*
X106447619Y-116908523D01*
X106542857Y-116956142D01*
X106685714Y-116956142D01*
X106780952Y-116908523D01*
X106828571Y-116860904D01*
X106876190Y-116765666D01*
X106876190Y-116384714D01*
X106447619Y-117337095D02*
X106400000Y-117384714D01*
X106352380Y-117479952D01*
X106352380Y-117718047D01*
X106400000Y-117813285D01*
X106447619Y-117860904D01*
X106542857Y-117908523D01*
X106638095Y-117908523D01*
X106780952Y-117860904D01*
X107352380Y-117289476D01*
X107352380Y-117908523D01*
X106352380Y-118527571D02*
X106352380Y-118622809D01*
X106400000Y-118718047D01*
X106447619Y-118765666D01*
X106542857Y-118813285D01*
X106733333Y-118860904D01*
X106971428Y-118860904D01*
X107161904Y-118813285D01*
X107257142Y-118765666D01*
X107304761Y-118718047D01*
X107352380Y-118622809D01*
X107352380Y-118527571D01*
X107304761Y-118432333D01*
X107257142Y-118384714D01*
X107161904Y-118337095D01*
X106971428Y-118289476D01*
X106733333Y-118289476D01*
X106542857Y-118337095D01*
X106447619Y-118384714D01*
X106400000Y-118432333D01*
X106352380Y-118527571D01*
%TO.C,R1*%
X177366666Y-130502380D02*
X177700000Y-130026190D01*
X177938095Y-130502380D02*
X177938095Y-129502380D01*
X177557142Y-129502380D01*
X177461904Y-129550000D01*
X177414285Y-129597619D01*
X177366666Y-129692857D01*
X177366666Y-129835714D01*
X177414285Y-129930952D01*
X177461904Y-129978571D01*
X177557142Y-130026190D01*
X177938095Y-130026190D01*
X176414285Y-130502380D02*
X176985714Y-130502380D01*
X176700000Y-130502380D02*
X176700000Y-129502380D01*
X176795238Y-129645238D01*
X176890476Y-129740476D01*
X176985714Y-129788095D01*
%TO.C,C14*%
X158037142Y-132057142D02*
X158084761Y-132009523D01*
X158132380Y-131866666D01*
X158132380Y-131771428D01*
X158084761Y-131628571D01*
X157989523Y-131533333D01*
X157894285Y-131485714D01*
X157703809Y-131438095D01*
X157560952Y-131438095D01*
X157370476Y-131485714D01*
X157275238Y-131533333D01*
X157180000Y-131628571D01*
X157132380Y-131771428D01*
X157132380Y-131866666D01*
X157180000Y-132009523D01*
X157227619Y-132057142D01*
X158132380Y-133009523D02*
X158132380Y-132438095D01*
X158132380Y-132723809D02*
X157132380Y-132723809D01*
X157275238Y-132628571D01*
X157370476Y-132533333D01*
X157418095Y-132438095D01*
X157465714Y-133866666D02*
X158132380Y-133866666D01*
X157084761Y-133628571D02*
X157799047Y-133390476D01*
X157799047Y-134009523D01*
%TO.C,D2*%
X172002380Y-124261904D02*
X171002380Y-124261904D01*
X171002380Y-124500000D01*
X171050000Y-124642857D01*
X171145238Y-124738095D01*
X171240476Y-124785714D01*
X171430952Y-124833333D01*
X171573809Y-124833333D01*
X171764285Y-124785714D01*
X171859523Y-124738095D01*
X171954761Y-124642857D01*
X172002380Y-124500000D01*
X172002380Y-124261904D01*
X171097619Y-125214285D02*
X171050000Y-125261904D01*
X171002380Y-125357142D01*
X171002380Y-125595238D01*
X171050000Y-125690476D01*
X171097619Y-125738095D01*
X171192857Y-125785714D01*
X171288095Y-125785714D01*
X171430952Y-125738095D01*
X172002380Y-125166666D01*
X172002380Y-125785714D01*
%TO.C,C21*%
X169892857Y-135806142D02*
X169940476Y-135853761D01*
X170083333Y-135901380D01*
X170178571Y-135901380D01*
X170321428Y-135853761D01*
X170416666Y-135758523D01*
X170464285Y-135663285D01*
X170511904Y-135472809D01*
X170511904Y-135329952D01*
X170464285Y-135139476D01*
X170416666Y-135044238D01*
X170321428Y-134949000D01*
X170178571Y-134901380D01*
X170083333Y-134901380D01*
X169940476Y-134949000D01*
X169892857Y-134996619D01*
X169511904Y-134996619D02*
X169464285Y-134949000D01*
X169369047Y-134901380D01*
X169130952Y-134901380D01*
X169035714Y-134949000D01*
X168988095Y-134996619D01*
X168940476Y-135091857D01*
X168940476Y-135187095D01*
X168988095Y-135329952D01*
X169559523Y-135901380D01*
X168940476Y-135901380D01*
X167988095Y-135901380D02*
X168559523Y-135901380D01*
X168273809Y-135901380D02*
X168273809Y-134901380D01*
X168369047Y-135044238D01*
X168464285Y-135139476D01*
X168559523Y-135187095D01*
%TO.C,R9*%
X157916666Y-130351380D02*
X158250000Y-129875190D01*
X158488095Y-130351380D02*
X158488095Y-129351380D01*
X158107142Y-129351380D01*
X158011904Y-129399000D01*
X157964285Y-129446619D01*
X157916666Y-129541857D01*
X157916666Y-129684714D01*
X157964285Y-129779952D01*
X158011904Y-129827571D01*
X158107142Y-129875190D01*
X158488095Y-129875190D01*
X157440476Y-130351380D02*
X157250000Y-130351380D01*
X157154761Y-130303761D01*
X157107142Y-130256142D01*
X157011904Y-130113285D01*
X156964285Y-129922809D01*
X156964285Y-129541857D01*
X157011904Y-129446619D01*
X157059523Y-129399000D01*
X157154761Y-129351380D01*
X157345238Y-129351380D01*
X157440476Y-129399000D01*
X157488095Y-129446619D01*
X157535714Y-129541857D01*
X157535714Y-129779952D01*
X157488095Y-129875190D01*
X157440476Y-129922809D01*
X157345238Y-129970428D01*
X157154761Y-129970428D01*
X157059523Y-129922809D01*
X157011904Y-129875190D01*
X156964285Y-129779952D01*
%TO.C,R12*%
X145642857Y-129352380D02*
X145976190Y-128876190D01*
X146214285Y-129352380D02*
X146214285Y-128352380D01*
X145833333Y-128352380D01*
X145738095Y-128400000D01*
X145690476Y-128447619D01*
X145642857Y-128542857D01*
X145642857Y-128685714D01*
X145690476Y-128780952D01*
X145738095Y-128828571D01*
X145833333Y-128876190D01*
X146214285Y-128876190D01*
X144690476Y-129352380D02*
X145261904Y-129352380D01*
X144976190Y-129352380D02*
X144976190Y-128352380D01*
X145071428Y-128495238D01*
X145166666Y-128590476D01*
X145261904Y-128638095D01*
X144309523Y-128447619D02*
X144261904Y-128400000D01*
X144166666Y-128352380D01*
X143928571Y-128352380D01*
X143833333Y-128400000D01*
X143785714Y-128447619D01*
X143738095Y-128542857D01*
X143738095Y-128638095D01*
X143785714Y-128780952D01*
X144357142Y-129352380D01*
X143738095Y-129352380D01*
%TO.C,R14*%
X142442857Y-133251380D02*
X142776190Y-132775190D01*
X143014285Y-133251380D02*
X143014285Y-132251380D01*
X142633333Y-132251380D01*
X142538095Y-132299000D01*
X142490476Y-132346619D01*
X142442857Y-132441857D01*
X142442857Y-132584714D01*
X142490476Y-132679952D01*
X142538095Y-132727571D01*
X142633333Y-132775190D01*
X143014285Y-132775190D01*
X141490476Y-133251380D02*
X142061904Y-133251380D01*
X141776190Y-133251380D02*
X141776190Y-132251380D01*
X141871428Y-132394238D01*
X141966666Y-132489476D01*
X142061904Y-132537095D01*
X140633333Y-132584714D02*
X140633333Y-133251380D01*
X140871428Y-132203761D02*
X141109523Y-132918047D01*
X140490476Y-132918047D01*
%TO.C,C12*%
X113626142Y-111007142D02*
X113673761Y-110959523D01*
X113721380Y-110816666D01*
X113721380Y-110721428D01*
X113673761Y-110578571D01*
X113578523Y-110483333D01*
X113483285Y-110435714D01*
X113292809Y-110388095D01*
X113149952Y-110388095D01*
X112959476Y-110435714D01*
X112864238Y-110483333D01*
X112769000Y-110578571D01*
X112721380Y-110721428D01*
X112721380Y-110816666D01*
X112769000Y-110959523D01*
X112816619Y-111007142D01*
X113721380Y-111959523D02*
X113721380Y-111388095D01*
X113721380Y-111673809D02*
X112721380Y-111673809D01*
X112864238Y-111578571D01*
X112959476Y-111483333D01*
X113007095Y-111388095D01*
X112816619Y-112340476D02*
X112769000Y-112388095D01*
X112721380Y-112483333D01*
X112721380Y-112721428D01*
X112769000Y-112816666D01*
X112816619Y-112864285D01*
X112911857Y-112911904D01*
X113007095Y-112911904D01*
X113149952Y-112864285D01*
X113721380Y-112292857D01*
X113721380Y-112911904D01*
%TO.C,R19*%
X127652380Y-127907142D02*
X127176190Y-127573809D01*
X127652380Y-127335714D02*
X126652380Y-127335714D01*
X126652380Y-127716666D01*
X126700000Y-127811904D01*
X126747619Y-127859523D01*
X126842857Y-127907142D01*
X126985714Y-127907142D01*
X127080952Y-127859523D01*
X127128571Y-127811904D01*
X127176190Y-127716666D01*
X127176190Y-127335714D01*
X127652380Y-128859523D02*
X127652380Y-128288095D01*
X127652380Y-128573809D02*
X126652380Y-128573809D01*
X126795238Y-128478571D01*
X126890476Y-128383333D01*
X126938095Y-128288095D01*
X127652380Y-129335714D02*
X127652380Y-129526190D01*
X127604761Y-129621428D01*
X127557142Y-129669047D01*
X127414285Y-129764285D01*
X127223809Y-129811904D01*
X126842857Y-129811904D01*
X126747619Y-129764285D01*
X126700000Y-129716666D01*
X126652380Y-129621428D01*
X126652380Y-129430952D01*
X126700000Y-129335714D01*
X126747619Y-129288095D01*
X126842857Y-129240476D01*
X127080952Y-129240476D01*
X127176190Y-129288095D01*
X127223809Y-129335714D01*
X127271428Y-129430952D01*
X127271428Y-129621428D01*
X127223809Y-129716666D01*
X127176190Y-129764285D01*
X127080952Y-129811904D01*
%TO.C,R21*%
X107351380Y-120956142D02*
X106875190Y-120622809D01*
X107351380Y-120384714D02*
X106351380Y-120384714D01*
X106351380Y-120765666D01*
X106399000Y-120860904D01*
X106446619Y-120908523D01*
X106541857Y-120956142D01*
X106684714Y-120956142D01*
X106779952Y-120908523D01*
X106827571Y-120860904D01*
X106875190Y-120765666D01*
X106875190Y-120384714D01*
X106446619Y-121337095D02*
X106399000Y-121384714D01*
X106351380Y-121479952D01*
X106351380Y-121718047D01*
X106399000Y-121813285D01*
X106446619Y-121860904D01*
X106541857Y-121908523D01*
X106637095Y-121908523D01*
X106779952Y-121860904D01*
X107351380Y-121289476D01*
X107351380Y-121908523D01*
X107351380Y-122860904D02*
X107351380Y-122289476D01*
X107351380Y-122575190D02*
X106351380Y-122575190D01*
X106494238Y-122479952D01*
X106589476Y-122384714D01*
X106637095Y-122289476D01*
%TO.C,C20*%
X176057142Y-144258142D02*
X176104761Y-144210523D01*
X176152380Y-144067666D01*
X176152380Y-143972428D01*
X176104761Y-143829571D01*
X176009523Y-143734333D01*
X175914285Y-143686714D01*
X175723809Y-143639095D01*
X175580952Y-143639095D01*
X175390476Y-143686714D01*
X175295238Y-143734333D01*
X175200000Y-143829571D01*
X175152380Y-143972428D01*
X175152380Y-144067666D01*
X175200000Y-144210523D01*
X175247619Y-144258142D01*
X175247619Y-144639095D02*
X175200000Y-144686714D01*
X175152380Y-144781952D01*
X175152380Y-145020047D01*
X175200000Y-145115285D01*
X175247619Y-145162904D01*
X175342857Y-145210523D01*
X175438095Y-145210523D01*
X175580952Y-145162904D01*
X176152380Y-144591476D01*
X176152380Y-145210523D01*
X175152380Y-145829571D02*
X175152380Y-145924809D01*
X175200000Y-146020047D01*
X175247619Y-146067666D01*
X175342857Y-146115285D01*
X175533333Y-146162904D01*
X175771428Y-146162904D01*
X175961904Y-146115285D01*
X176057142Y-146067666D01*
X176104761Y-146020047D01*
X176152380Y-145924809D01*
X176152380Y-145829571D01*
X176104761Y-145734333D01*
X176057142Y-145686714D01*
X175961904Y-145639095D01*
X175771428Y-145591476D01*
X175533333Y-145591476D01*
X175342857Y-145639095D01*
X175247619Y-145686714D01*
X175200000Y-145734333D01*
X175152380Y-145829571D01*
%TO.C,C15*%
X158642857Y-135708142D02*
X158690476Y-135755761D01*
X158833333Y-135803380D01*
X158928571Y-135803380D01*
X159071428Y-135755761D01*
X159166666Y-135660523D01*
X159214285Y-135565285D01*
X159261904Y-135374809D01*
X159261904Y-135231952D01*
X159214285Y-135041476D01*
X159166666Y-134946238D01*
X159071428Y-134851000D01*
X158928571Y-134803380D01*
X158833333Y-134803380D01*
X158690476Y-134851000D01*
X158642857Y-134898619D01*
X157690476Y-135803380D02*
X158261904Y-135803380D01*
X157976190Y-135803380D02*
X157976190Y-134803380D01*
X158071428Y-134946238D01*
X158166666Y-135041476D01*
X158261904Y-135089095D01*
X156785714Y-134803380D02*
X157261904Y-134803380D01*
X157309523Y-135279571D01*
X157261904Y-135231952D01*
X157166666Y-135184333D01*
X156928571Y-135184333D01*
X156833333Y-135231952D01*
X156785714Y-135279571D01*
X156738095Y-135374809D01*
X156738095Y-135612904D01*
X156785714Y-135708142D01*
X156833333Y-135755761D01*
X156928571Y-135803380D01*
X157166666Y-135803380D01*
X157261904Y-135755761D01*
X157309523Y-135708142D01*
%TO.C,C13*%
X165607142Y-130906142D02*
X165654761Y-130858523D01*
X165702380Y-130715666D01*
X165702380Y-130620428D01*
X165654761Y-130477571D01*
X165559523Y-130382333D01*
X165464285Y-130334714D01*
X165273809Y-130287095D01*
X165130952Y-130287095D01*
X164940476Y-130334714D01*
X164845238Y-130382333D01*
X164750000Y-130477571D01*
X164702380Y-130620428D01*
X164702380Y-130715666D01*
X164750000Y-130858523D01*
X164797619Y-130906142D01*
X165702380Y-131858523D02*
X165702380Y-131287095D01*
X165702380Y-131572809D02*
X164702380Y-131572809D01*
X164845238Y-131477571D01*
X164940476Y-131382333D01*
X164988095Y-131287095D01*
X164702380Y-132191857D02*
X164702380Y-132810904D01*
X165083333Y-132477571D01*
X165083333Y-132620428D01*
X165130952Y-132715666D01*
X165178571Y-132763285D01*
X165273809Y-132810904D01*
X165511904Y-132810904D01*
X165607142Y-132763285D01*
X165654761Y-132715666D01*
X165702380Y-132620428D01*
X165702380Y-132334714D01*
X165654761Y-132239476D01*
X165607142Y-132191857D01*
%TO.C,C19*%
X123542857Y-132157142D02*
X123590476Y-132204761D01*
X123733333Y-132252380D01*
X123828571Y-132252380D01*
X123971428Y-132204761D01*
X124066666Y-132109523D01*
X124114285Y-132014285D01*
X124161904Y-131823809D01*
X124161904Y-131680952D01*
X124114285Y-131490476D01*
X124066666Y-131395238D01*
X123971428Y-131300000D01*
X123828571Y-131252380D01*
X123733333Y-131252380D01*
X123590476Y-131300000D01*
X123542857Y-131347619D01*
X122590476Y-132252380D02*
X123161904Y-132252380D01*
X122876190Y-132252380D02*
X122876190Y-131252380D01*
X122971428Y-131395238D01*
X123066666Y-131490476D01*
X123161904Y-131538095D01*
X122114285Y-132252380D02*
X121923809Y-132252380D01*
X121828571Y-132204761D01*
X121780952Y-132157142D01*
X121685714Y-132014285D01*
X121638095Y-131823809D01*
X121638095Y-131442857D01*
X121685714Y-131347619D01*
X121733333Y-131300000D01*
X121828571Y-131252380D01*
X122019047Y-131252380D01*
X122114285Y-131300000D01*
X122161904Y-131347619D01*
X122209523Y-131442857D01*
X122209523Y-131680952D01*
X122161904Y-131776190D01*
X122114285Y-131823809D01*
X122019047Y-131871428D01*
X121828571Y-131871428D01*
X121733333Y-131823809D01*
X121685714Y-131776190D01*
X121638095Y-131680952D01*
%TO.C,U18*%
X121151380Y-109961904D02*
X121960904Y-109961904D01*
X122056142Y-110009523D01*
X122103761Y-110057142D01*
X122151380Y-110152380D01*
X122151380Y-110342857D01*
X122103761Y-110438095D01*
X122056142Y-110485714D01*
X121960904Y-110533333D01*
X121151380Y-110533333D01*
X122151380Y-111533333D02*
X122151380Y-110961904D01*
X122151380Y-111247619D02*
X121151380Y-111247619D01*
X121294238Y-111152380D01*
X121389476Y-111057142D01*
X121437095Y-110961904D01*
X121579952Y-112104761D02*
X121532333Y-112009523D01*
X121484714Y-111961904D01*
X121389476Y-111914285D01*
X121341857Y-111914285D01*
X121246619Y-111961904D01*
X121199000Y-112009523D01*
X121151380Y-112104761D01*
X121151380Y-112295238D01*
X121199000Y-112390476D01*
X121246619Y-112438095D01*
X121341857Y-112485714D01*
X121389476Y-112485714D01*
X121484714Y-112438095D01*
X121532333Y-112390476D01*
X121579952Y-112295238D01*
X121579952Y-112104761D01*
X121627571Y-112009523D01*
X121675190Y-111961904D01*
X121770428Y-111914285D01*
X121960904Y-111914285D01*
X122056142Y-111961904D01*
X122103761Y-112009523D01*
X122151380Y-112104761D01*
X122151380Y-112295238D01*
X122103761Y-112390476D01*
X122056142Y-112438095D01*
X121960904Y-112485714D01*
X121770428Y-112485714D01*
X121675190Y-112438095D01*
X121627571Y-112390476D01*
X121579952Y-112295238D01*
%TO.C,R5*%
X150852380Y-125583333D02*
X150376190Y-125250000D01*
X150852380Y-125011904D02*
X149852380Y-125011904D01*
X149852380Y-125392857D01*
X149900000Y-125488095D01*
X149947619Y-125535714D01*
X150042857Y-125583333D01*
X150185714Y-125583333D01*
X150280952Y-125535714D01*
X150328571Y-125488095D01*
X150376190Y-125392857D01*
X150376190Y-125011904D01*
X149852380Y-126488095D02*
X149852380Y-126011904D01*
X150328571Y-125964285D01*
X150280952Y-126011904D01*
X150233333Y-126107142D01*
X150233333Y-126345238D01*
X150280952Y-126440476D01*
X150328571Y-126488095D01*
X150423809Y-126535714D01*
X150661904Y-126535714D01*
X150757142Y-126488095D01*
X150804761Y-126440476D01*
X150852380Y-126345238D01*
X150852380Y-126107142D01*
X150804761Y-126011904D01*
X150757142Y-125964285D01*
%TO.C,R10*%
X154551380Y-137956142D02*
X154075190Y-137622809D01*
X154551380Y-137384714D02*
X153551380Y-137384714D01*
X153551380Y-137765666D01*
X153599000Y-137860904D01*
X153646619Y-137908523D01*
X153741857Y-137956142D01*
X153884714Y-137956142D01*
X153979952Y-137908523D01*
X154027571Y-137860904D01*
X154075190Y-137765666D01*
X154075190Y-137384714D01*
X154551380Y-138908523D02*
X154551380Y-138337095D01*
X154551380Y-138622809D02*
X153551380Y-138622809D01*
X153694238Y-138527571D01*
X153789476Y-138432333D01*
X153837095Y-138337095D01*
X153551380Y-139527571D02*
X153551380Y-139622809D01*
X153599000Y-139718047D01*
X153646619Y-139765666D01*
X153741857Y-139813285D01*
X153932333Y-139860904D01*
X154170428Y-139860904D01*
X154360904Y-139813285D01*
X154456142Y-139765666D01*
X154503761Y-139718047D01*
X154551380Y-139622809D01*
X154551380Y-139527571D01*
X154503761Y-139432333D01*
X154456142Y-139384714D01*
X154360904Y-139337095D01*
X154170428Y-139289476D01*
X153932333Y-139289476D01*
X153741857Y-139337095D01*
X153646619Y-139384714D01*
X153599000Y-139432333D01*
X153551380Y-139527571D01*
%TO.C,C22*%
X127842857Y-118877142D02*
X127890476Y-118924761D01*
X128033333Y-118972380D01*
X128128571Y-118972380D01*
X128271428Y-118924761D01*
X128366666Y-118829523D01*
X128414285Y-118734285D01*
X128461904Y-118543809D01*
X128461904Y-118400952D01*
X128414285Y-118210476D01*
X128366666Y-118115238D01*
X128271428Y-118020000D01*
X128128571Y-117972380D01*
X128033333Y-117972380D01*
X127890476Y-118020000D01*
X127842857Y-118067619D01*
X127461904Y-118067619D02*
X127414285Y-118020000D01*
X127319047Y-117972380D01*
X127080952Y-117972380D01*
X126985714Y-118020000D01*
X126938095Y-118067619D01*
X126890476Y-118162857D01*
X126890476Y-118258095D01*
X126938095Y-118400952D01*
X127509523Y-118972380D01*
X126890476Y-118972380D01*
X126509523Y-118067619D02*
X126461904Y-118020000D01*
X126366666Y-117972380D01*
X126128571Y-117972380D01*
X126033333Y-118020000D01*
X125985714Y-118067619D01*
X125938095Y-118162857D01*
X125938095Y-118258095D01*
X125985714Y-118400952D01*
X126557142Y-118972380D01*
X125938095Y-118972380D01*
%TO.C,J1*%
X133527380Y-104801666D02*
X134241666Y-104801666D01*
X134384523Y-104754047D01*
X134479761Y-104658809D01*
X134527380Y-104515952D01*
X134527380Y-104420714D01*
X134527380Y-105801666D02*
X134527380Y-105230238D01*
X134527380Y-105515952D02*
X133527380Y-105515952D01*
X133670238Y-105420714D01*
X133765476Y-105325476D01*
X133813095Y-105230238D01*
%TO.C,C23*%
X131891857Y-122237142D02*
X131939476Y-122284761D01*
X132082333Y-122332380D01*
X132177571Y-122332380D01*
X132320428Y-122284761D01*
X132415666Y-122189523D01*
X132463285Y-122094285D01*
X132510904Y-121903809D01*
X132510904Y-121760952D01*
X132463285Y-121570476D01*
X132415666Y-121475238D01*
X132320428Y-121380000D01*
X132177571Y-121332380D01*
X132082333Y-121332380D01*
X131939476Y-121380000D01*
X131891857Y-121427619D01*
X131510904Y-121427619D02*
X131463285Y-121380000D01*
X131368047Y-121332380D01*
X131129952Y-121332380D01*
X131034714Y-121380000D01*
X130987095Y-121427619D01*
X130939476Y-121522857D01*
X130939476Y-121618095D01*
X130987095Y-121760952D01*
X131558523Y-122332380D01*
X130939476Y-122332380D01*
X130606142Y-121332380D02*
X129987095Y-121332380D01*
X130320428Y-121713333D01*
X130177571Y-121713333D01*
X130082333Y-121760952D01*
X130034714Y-121808571D01*
X129987095Y-121903809D01*
X129987095Y-122141904D01*
X130034714Y-122237142D01*
X130082333Y-122284761D01*
X130177571Y-122332380D01*
X130463285Y-122332380D01*
X130558523Y-122284761D01*
X130606142Y-122237142D01*
%TO.C,L1*%
X182852380Y-145083333D02*
X182852380Y-144607142D01*
X181852380Y-144607142D01*
X182852380Y-145940476D02*
X182852380Y-145369047D01*
X182852380Y-145654761D02*
X181852380Y-145654761D01*
X181995238Y-145559523D01*
X182090476Y-145464285D01*
X182138095Y-145369047D01*
%TO.C,R15*%
X142492857Y-135301380D02*
X142826190Y-134825190D01*
X143064285Y-135301380D02*
X143064285Y-134301380D01*
X142683333Y-134301380D01*
X142588095Y-134349000D01*
X142540476Y-134396619D01*
X142492857Y-134491857D01*
X142492857Y-134634714D01*
X142540476Y-134729952D01*
X142588095Y-134777571D01*
X142683333Y-134825190D01*
X143064285Y-134825190D01*
X141540476Y-135301380D02*
X142111904Y-135301380D01*
X141826190Y-135301380D02*
X141826190Y-134301380D01*
X141921428Y-134444238D01*
X142016666Y-134539476D01*
X142111904Y-134587095D01*
X140635714Y-134301380D02*
X141111904Y-134301380D01*
X141159523Y-134777571D01*
X141111904Y-134729952D01*
X141016666Y-134682333D01*
X140778571Y-134682333D01*
X140683333Y-134729952D01*
X140635714Y-134777571D01*
X140588095Y-134872809D01*
X140588095Y-135110904D01*
X140635714Y-135206142D01*
X140683333Y-135253761D01*
X140778571Y-135301380D01*
X141016666Y-135301380D01*
X141111904Y-135253761D01*
X141159523Y-135206142D01*
%TO.C,C24*%
X99892857Y-127107142D02*
X99940476Y-127154761D01*
X100083333Y-127202380D01*
X100178571Y-127202380D01*
X100321428Y-127154761D01*
X100416666Y-127059523D01*
X100464285Y-126964285D01*
X100511904Y-126773809D01*
X100511904Y-126630952D01*
X100464285Y-126440476D01*
X100416666Y-126345238D01*
X100321428Y-126250000D01*
X100178571Y-126202380D01*
X100083333Y-126202380D01*
X99940476Y-126250000D01*
X99892857Y-126297619D01*
X99511904Y-126297619D02*
X99464285Y-126250000D01*
X99369047Y-126202380D01*
X99130952Y-126202380D01*
X99035714Y-126250000D01*
X98988095Y-126297619D01*
X98940476Y-126392857D01*
X98940476Y-126488095D01*
X98988095Y-126630952D01*
X99559523Y-127202380D01*
X98940476Y-127202380D01*
X98083333Y-126535714D02*
X98083333Y-127202380D01*
X98321428Y-126154761D02*
X98559523Y-126869047D01*
X97940476Y-126869047D01*
%TO.C,SW1*%
X117783333Y-99251761D02*
X117640476Y-99299380D01*
X117402380Y-99299380D01*
X117307142Y-99251761D01*
X117259523Y-99204142D01*
X117211904Y-99108904D01*
X117211904Y-99013666D01*
X117259523Y-98918428D01*
X117307142Y-98870809D01*
X117402380Y-98823190D01*
X117592857Y-98775571D01*
X117688095Y-98727952D01*
X117735714Y-98680333D01*
X117783333Y-98585095D01*
X117783333Y-98489857D01*
X117735714Y-98394619D01*
X117688095Y-98347000D01*
X117592857Y-98299380D01*
X117354761Y-98299380D01*
X117211904Y-98347000D01*
X116878571Y-98299380D02*
X116640476Y-99299380D01*
X116450000Y-98585095D01*
X116259523Y-99299380D01*
X116021428Y-98299380D01*
X115116666Y-99299380D02*
X115688095Y-99299380D01*
X115402380Y-99299380D02*
X115402380Y-98299380D01*
X115497619Y-98442238D01*
X115592857Y-98537476D01*
X115688095Y-98585095D01*
%TO.C,D15*%
X136664285Y-135301380D02*
X136664285Y-134301380D01*
X136426190Y-134301380D01*
X136283333Y-134349000D01*
X136188095Y-134444238D01*
X136140476Y-134539476D01*
X136092857Y-134729952D01*
X136092857Y-134872809D01*
X136140476Y-135063285D01*
X136188095Y-135158523D01*
X136283333Y-135253761D01*
X136426190Y-135301380D01*
X136664285Y-135301380D01*
X135140476Y-135301380D02*
X135711904Y-135301380D01*
X135426190Y-135301380D02*
X135426190Y-134301380D01*
X135521428Y-134444238D01*
X135616666Y-134539476D01*
X135711904Y-134587095D01*
X134235714Y-134301380D02*
X134711904Y-134301380D01*
X134759523Y-134777571D01*
X134711904Y-134729952D01*
X134616666Y-134682333D01*
X134378571Y-134682333D01*
X134283333Y-134729952D01*
X134235714Y-134777571D01*
X134188095Y-134872809D01*
X134188095Y-135110904D01*
X134235714Y-135206142D01*
X134283333Y-135253761D01*
X134378571Y-135301380D01*
X134616666Y-135301380D01*
X134711904Y-135253761D01*
X134759523Y-135206142D01*
%TO.C,R18*%
X129802380Y-127857142D02*
X129326190Y-127523809D01*
X129802380Y-127285714D02*
X128802380Y-127285714D01*
X128802380Y-127666666D01*
X128850000Y-127761904D01*
X128897619Y-127809523D01*
X128992857Y-127857142D01*
X129135714Y-127857142D01*
X129230952Y-127809523D01*
X129278571Y-127761904D01*
X129326190Y-127666666D01*
X129326190Y-127285714D01*
X129802380Y-128809523D02*
X129802380Y-128238095D01*
X129802380Y-128523809D02*
X128802380Y-128523809D01*
X128945238Y-128428571D01*
X129040476Y-128333333D01*
X129088095Y-128238095D01*
X129230952Y-129380952D02*
X129183333Y-129285714D01*
X129135714Y-129238095D01*
X129040476Y-129190476D01*
X128992857Y-129190476D01*
X128897619Y-129238095D01*
X128850000Y-129285714D01*
X128802380Y-129380952D01*
X128802380Y-129571428D01*
X128850000Y-129666666D01*
X128897619Y-129714285D01*
X128992857Y-129761904D01*
X129040476Y-129761904D01*
X129135714Y-129714285D01*
X129183333Y-129666666D01*
X129230952Y-129571428D01*
X129230952Y-129380952D01*
X129278571Y-129285714D01*
X129326190Y-129238095D01*
X129421428Y-129190476D01*
X129611904Y-129190476D01*
X129707142Y-129238095D01*
X129754761Y-129285714D01*
X129802380Y-129380952D01*
X129802380Y-129571428D01*
X129754761Y-129666666D01*
X129707142Y-129714285D01*
X129611904Y-129761904D01*
X129421428Y-129761904D01*
X129326190Y-129714285D01*
X129278571Y-129666666D01*
X129230952Y-129571428D01*
%TO.C,D16*%
X170514285Y-154302380D02*
X170514285Y-153302380D01*
X170276190Y-153302380D01*
X170133333Y-153350000D01*
X170038095Y-153445238D01*
X169990476Y-153540476D01*
X169942857Y-153730952D01*
X169942857Y-153873809D01*
X169990476Y-154064285D01*
X170038095Y-154159523D01*
X170133333Y-154254761D01*
X170276190Y-154302380D01*
X170514285Y-154302380D01*
X168990476Y-154302380D02*
X169561904Y-154302380D01*
X169276190Y-154302380D02*
X169276190Y-153302380D01*
X169371428Y-153445238D01*
X169466666Y-153540476D01*
X169561904Y-153588095D01*
X168133333Y-153302380D02*
X168323809Y-153302380D01*
X168419047Y-153350000D01*
X168466666Y-153397619D01*
X168561904Y-153540476D01*
X168609523Y-153730952D01*
X168609523Y-154111904D01*
X168561904Y-154207142D01*
X168514285Y-154254761D01*
X168419047Y-154302380D01*
X168228571Y-154302380D01*
X168133333Y-154254761D01*
X168085714Y-154207142D01*
X168038095Y-154111904D01*
X168038095Y-153873809D01*
X168085714Y-153778571D01*
X168133333Y-153730952D01*
X168228571Y-153683333D01*
X168419047Y-153683333D01*
X168514285Y-153730952D01*
X168561904Y-153778571D01*
X168609523Y-153873809D01*
%TO.C,Y1*%
X130625190Y-100076190D02*
X130625190Y-100552380D01*
X130958523Y-99552380D02*
X130625190Y-100076190D01*
X130291857Y-99552380D01*
X129434714Y-100552380D02*
X130006142Y-100552380D01*
X129720428Y-100552380D02*
X129720428Y-99552380D01*
X129815666Y-99695238D01*
X129910904Y-99790476D01*
X130006142Y-99838095D01*
%TO.C,R23*%
X141642857Y-162901380D02*
X141976190Y-162425190D01*
X142214285Y-162901380D02*
X142214285Y-161901380D01*
X141833333Y-161901380D01*
X141738095Y-161949000D01*
X141690476Y-161996619D01*
X141642857Y-162091857D01*
X141642857Y-162234714D01*
X141690476Y-162329952D01*
X141738095Y-162377571D01*
X141833333Y-162425190D01*
X142214285Y-162425190D01*
X141261904Y-161996619D02*
X141214285Y-161949000D01*
X141119047Y-161901380D01*
X140880952Y-161901380D01*
X140785714Y-161949000D01*
X140738095Y-161996619D01*
X140690476Y-162091857D01*
X140690476Y-162187095D01*
X140738095Y-162329952D01*
X141309523Y-162901380D01*
X140690476Y-162901380D01*
X140357142Y-161901380D02*
X139738095Y-161901380D01*
X140071428Y-162282333D01*
X139928571Y-162282333D01*
X139833333Y-162329952D01*
X139785714Y-162377571D01*
X139738095Y-162472809D01*
X139738095Y-162710904D01*
X139785714Y-162806142D01*
X139833333Y-162853761D01*
X139928571Y-162901380D01*
X140214285Y-162901380D01*
X140309523Y-162853761D01*
X140357142Y-162806142D01*
%TO.C,C11*%
X126991857Y-100777142D02*
X127039476Y-100824761D01*
X127182333Y-100872380D01*
X127277571Y-100872380D01*
X127420428Y-100824761D01*
X127515666Y-100729523D01*
X127563285Y-100634285D01*
X127610904Y-100443809D01*
X127610904Y-100300952D01*
X127563285Y-100110476D01*
X127515666Y-100015238D01*
X127420428Y-99920000D01*
X127277571Y-99872380D01*
X127182333Y-99872380D01*
X127039476Y-99920000D01*
X126991857Y-99967619D01*
X126039476Y-100872380D02*
X126610904Y-100872380D01*
X126325190Y-100872380D02*
X126325190Y-99872380D01*
X126420428Y-100015238D01*
X126515666Y-100110476D01*
X126610904Y-100158095D01*
X125087095Y-100872380D02*
X125658523Y-100872380D01*
X125372809Y-100872380D02*
X125372809Y-99872380D01*
X125468047Y-100015238D01*
X125563285Y-100110476D01*
X125658523Y-100158095D01*
%TO.C,Q1*%
X176347619Y-132204761D02*
X176300000Y-132109523D01*
X176204761Y-132014285D01*
X176061904Y-131871428D01*
X176014285Y-131776190D01*
X176014285Y-131680952D01*
X176252380Y-131728571D02*
X176204761Y-131633333D01*
X176109523Y-131538095D01*
X175919047Y-131490476D01*
X175585714Y-131490476D01*
X175395238Y-131538095D01*
X175300000Y-131633333D01*
X175252380Y-131728571D01*
X175252380Y-131919047D01*
X175300000Y-132014285D01*
X175395238Y-132109523D01*
X175585714Y-132157142D01*
X175919047Y-132157142D01*
X176109523Y-132109523D01*
X176204761Y-132014285D01*
X176252380Y-131919047D01*
X176252380Y-131728571D01*
X176252380Y-133109523D02*
X176252380Y-132538095D01*
X176252380Y-132823809D02*
X175252380Y-132823809D01*
X175395238Y-132728571D01*
X175490476Y-132633333D01*
X175538095Y-132538095D01*
%TO.C,R13*%
X142492857Y-137401380D02*
X142826190Y-136925190D01*
X143064285Y-137401380D02*
X143064285Y-136401380D01*
X142683333Y-136401380D01*
X142588095Y-136449000D01*
X142540476Y-136496619D01*
X142492857Y-136591857D01*
X142492857Y-136734714D01*
X142540476Y-136829952D01*
X142588095Y-136877571D01*
X142683333Y-136925190D01*
X143064285Y-136925190D01*
X141540476Y-137401380D02*
X142111904Y-137401380D01*
X141826190Y-137401380D02*
X141826190Y-136401380D01*
X141921428Y-136544238D01*
X142016666Y-136639476D01*
X142111904Y-136687095D01*
X141207142Y-136401380D02*
X140588095Y-136401380D01*
X140921428Y-136782333D01*
X140778571Y-136782333D01*
X140683333Y-136829952D01*
X140635714Y-136877571D01*
X140588095Y-136972809D01*
X140588095Y-137210904D01*
X140635714Y-137306142D01*
X140683333Y-137353761D01*
X140778571Y-137401380D01*
X141064285Y-137401380D01*
X141159523Y-137353761D01*
X141207142Y-137306142D01*
%TO.C,R8*%
X148551380Y-137982333D02*
X148075190Y-137649000D01*
X148551380Y-137410904D02*
X147551380Y-137410904D01*
X147551380Y-137791857D01*
X147599000Y-137887095D01*
X147646619Y-137934714D01*
X147741857Y-137982333D01*
X147884714Y-137982333D01*
X147979952Y-137934714D01*
X148027571Y-137887095D01*
X148075190Y-137791857D01*
X148075190Y-137410904D01*
X147979952Y-138553761D02*
X147932333Y-138458523D01*
X147884714Y-138410904D01*
X147789476Y-138363285D01*
X147741857Y-138363285D01*
X147646619Y-138410904D01*
X147599000Y-138458523D01*
X147551380Y-138553761D01*
X147551380Y-138744238D01*
X147599000Y-138839476D01*
X147646619Y-138887095D01*
X147741857Y-138934714D01*
X147789476Y-138934714D01*
X147884714Y-138887095D01*
X147932333Y-138839476D01*
X147979952Y-138744238D01*
X147979952Y-138553761D01*
X148027571Y-138458523D01*
X148075190Y-138410904D01*
X148170428Y-138363285D01*
X148360904Y-138363285D01*
X148456142Y-138410904D01*
X148503761Y-138458523D01*
X148551380Y-138553761D01*
X148551380Y-138744238D01*
X148503761Y-138839476D01*
X148456142Y-138887095D01*
X148360904Y-138934714D01*
X148170428Y-138934714D01*
X148075190Y-138887095D01*
X148027571Y-138839476D01*
X147979952Y-138744238D01*
%TO.C,R7*%
X146601380Y-138932333D02*
X146125190Y-138599000D01*
X146601380Y-138360904D02*
X145601380Y-138360904D01*
X145601380Y-138741857D01*
X145649000Y-138837095D01*
X145696619Y-138884714D01*
X145791857Y-138932333D01*
X145934714Y-138932333D01*
X146029952Y-138884714D01*
X146077571Y-138837095D01*
X146125190Y-138741857D01*
X146125190Y-138360904D01*
X145601380Y-139265666D02*
X145601380Y-139932333D01*
X146601380Y-139503761D01*
%TO.C,D1*%
X178502380Y-124261904D02*
X177502380Y-124261904D01*
X177502380Y-124500000D01*
X177550000Y-124642857D01*
X177645238Y-124738095D01*
X177740476Y-124785714D01*
X177930952Y-124833333D01*
X178073809Y-124833333D01*
X178264285Y-124785714D01*
X178359523Y-124738095D01*
X178454761Y-124642857D01*
X178502380Y-124500000D01*
X178502380Y-124261904D01*
X178502380Y-125785714D02*
X178502380Y-125214285D01*
X178502380Y-125500000D02*
X177502380Y-125500000D01*
X177645238Y-125404761D01*
X177740476Y-125309523D01*
X177788095Y-125214285D01*
%TO.C,R3*%
X117201380Y-111533333D02*
X116725190Y-111200000D01*
X117201380Y-110961904D02*
X116201380Y-110961904D01*
X116201380Y-111342857D01*
X116249000Y-111438095D01*
X116296619Y-111485714D01*
X116391857Y-111533333D01*
X116534714Y-111533333D01*
X116629952Y-111485714D01*
X116677571Y-111438095D01*
X116725190Y-111342857D01*
X116725190Y-110961904D01*
X116201380Y-111866666D02*
X116201380Y-112485714D01*
X116582333Y-112152380D01*
X116582333Y-112295238D01*
X116629952Y-112390476D01*
X116677571Y-112438095D01*
X116772809Y-112485714D01*
X117010904Y-112485714D01*
X117106142Y-112438095D01*
X117153761Y-112390476D01*
X117201380Y-112295238D01*
X117201380Y-112009523D01*
X117153761Y-111914285D01*
X117106142Y-111866666D01*
%TO.C,R6*%
X145602380Y-125583333D02*
X145126190Y-125250000D01*
X145602380Y-125011904D02*
X144602380Y-125011904D01*
X144602380Y-125392857D01*
X144650000Y-125488095D01*
X144697619Y-125535714D01*
X144792857Y-125583333D01*
X144935714Y-125583333D01*
X145030952Y-125535714D01*
X145078571Y-125488095D01*
X145126190Y-125392857D01*
X145126190Y-125011904D01*
X144602380Y-126440476D02*
X144602380Y-126250000D01*
X144650000Y-126154761D01*
X144697619Y-126107142D01*
X144840476Y-126011904D01*
X145030952Y-125964285D01*
X145411904Y-125964285D01*
X145507142Y-126011904D01*
X145554761Y-126059523D01*
X145602380Y-126154761D01*
X145602380Y-126345238D01*
X145554761Y-126440476D01*
X145507142Y-126488095D01*
X145411904Y-126535714D01*
X145173809Y-126535714D01*
X145078571Y-126488095D01*
X145030952Y-126440476D01*
X144983333Y-126345238D01*
X144983333Y-126154761D01*
X145030952Y-126059523D01*
X145078571Y-126011904D01*
X145173809Y-125964285D01*
%TO.C,L2*%
X130765666Y-126452380D02*
X131241857Y-126452380D01*
X131241857Y-125452380D01*
X130479952Y-125547619D02*
X130432333Y-125500000D01*
X130337095Y-125452380D01*
X130099000Y-125452380D01*
X130003761Y-125500000D01*
X129956142Y-125547619D01*
X129908523Y-125642857D01*
X129908523Y-125738095D01*
X129956142Y-125880952D01*
X130527571Y-126452380D01*
X129908523Y-126452380D01*
%TO.C,C17*%
X131942857Y-139407142D02*
X131990476Y-139454761D01*
X132133333Y-139502380D01*
X132228571Y-139502380D01*
X132371428Y-139454761D01*
X132466666Y-139359523D01*
X132514285Y-139264285D01*
X132561904Y-139073809D01*
X132561904Y-138930952D01*
X132514285Y-138740476D01*
X132466666Y-138645238D01*
X132371428Y-138550000D01*
X132228571Y-138502380D01*
X132133333Y-138502380D01*
X131990476Y-138550000D01*
X131942857Y-138597619D01*
X130990476Y-139502380D02*
X131561904Y-139502380D01*
X131276190Y-139502380D02*
X131276190Y-138502380D01*
X131371428Y-138645238D01*
X131466666Y-138740476D01*
X131561904Y-138788095D01*
X130657142Y-138502380D02*
X129990476Y-138502380D01*
X130419047Y-139502380D01*
%TO.C,C18*%
X116742857Y-142702142D02*
X116790476Y-142749761D01*
X116933333Y-142797380D01*
X117028571Y-142797380D01*
X117171428Y-142749761D01*
X117266666Y-142654523D01*
X117314285Y-142559285D01*
X117361904Y-142368809D01*
X117361904Y-142225952D01*
X117314285Y-142035476D01*
X117266666Y-141940238D01*
X117171428Y-141845000D01*
X117028571Y-141797380D01*
X116933333Y-141797380D01*
X116790476Y-141845000D01*
X116742857Y-141892619D01*
X115790476Y-142797380D02*
X116361904Y-142797380D01*
X116076190Y-142797380D02*
X116076190Y-141797380D01*
X116171428Y-141940238D01*
X116266666Y-142035476D01*
X116361904Y-142083095D01*
X115219047Y-142225952D02*
X115314285Y-142178333D01*
X115361904Y-142130714D01*
X115409523Y-142035476D01*
X115409523Y-141987857D01*
X115361904Y-141892619D01*
X115314285Y-141845000D01*
X115219047Y-141797380D01*
X115028571Y-141797380D01*
X114933333Y-141845000D01*
X114885714Y-141892619D01*
X114838095Y-141987857D01*
X114838095Y-142035476D01*
X114885714Y-142130714D01*
X114933333Y-142178333D01*
X115028571Y-142225952D01*
X115219047Y-142225952D01*
X115314285Y-142273571D01*
X115361904Y-142321190D01*
X115409523Y-142416428D01*
X115409523Y-142606904D01*
X115361904Y-142702142D01*
X115314285Y-142749761D01*
X115219047Y-142797380D01*
X115028571Y-142797380D01*
X114933333Y-142749761D01*
X114885714Y-142702142D01*
X114838095Y-142606904D01*
X114838095Y-142416428D01*
X114885714Y-142321190D01*
X114933333Y-142273571D01*
X115028571Y-142225952D01*
%TO.C,U17*%
X96738095Y-122602380D02*
X96738095Y-123411904D01*
X96690476Y-123507142D01*
X96642857Y-123554761D01*
X96547619Y-123602380D01*
X96357142Y-123602380D01*
X96261904Y-123554761D01*
X96214285Y-123507142D01*
X96166666Y-123411904D01*
X96166666Y-122602380D01*
X95166666Y-123602380D02*
X95738095Y-123602380D01*
X95452380Y-123602380D02*
X95452380Y-122602380D01*
X95547619Y-122745238D01*
X95642857Y-122840476D01*
X95738095Y-122888095D01*
X94833333Y-122602380D02*
X94166666Y-122602380D01*
X94595238Y-123602380D01*
D10*
%TO.C,U2*%
X148990000Y-131239000D02*
X149715000Y-131239000D01*
X153210000Y-131964000D02*
X153210000Y-131239000D01*
X148990000Y-131964000D02*
X148990000Y-131239000D01*
X153210000Y-131239000D02*
X152485000Y-131239000D01*
X148990000Y-135459000D02*
X149715000Y-135459000D01*
X148990000Y-134734000D02*
X148990000Y-135459000D01*
X153210000Y-134734000D02*
X153210000Y-135459000D01*
%TO.C,C16*%
X153237748Y-127284000D02*
X153760252Y-127284000D01*
X153237748Y-125814000D02*
X153760252Y-125814000D01*
%TO.C,U3*%
X122900000Y-136240000D02*
X126350000Y-136240000D01*
X122900000Y-146360000D02*
X124850000Y-146360000D01*
X122900000Y-136240000D02*
X120950000Y-136240000D01*
X122900000Y-146360000D02*
X120950000Y-146360000D01*
%TO.C,R16*%
X130714564Y-151665000D02*
X130260436Y-151665000D01*
X130714564Y-153135000D02*
X130260436Y-153135000D01*
%TO.C,D14*%
X137600000Y-131789000D02*
X140285000Y-131789000D01*
X140285000Y-133709000D02*
X137600000Y-133709000D01*
X140285000Y-131789000D02*
X140285000Y-133709000D01*
%TO.C,D13*%
X140285000Y-135989000D02*
X140285000Y-137909000D01*
X137600000Y-135989000D02*
X140285000Y-135989000D01*
X140285000Y-137909000D02*
X137600000Y-137909000D01*
%TO.C,J2*%
X138000000Y-165959000D02*
X138000000Y-167859000D01*
X128600000Y-165959000D02*
X128600000Y-167859000D01*
X138000000Y-162059000D02*
X138000000Y-164059000D01*
X128600000Y-162059000D02*
X128600000Y-164059000D01*
X138000000Y-167859000D02*
X128600000Y-167859000D01*
%TO.C,R4*%
X149415000Y-141521936D02*
X149415000Y-141976064D01*
X150885000Y-141521936D02*
X150885000Y-141976064D01*
%TO.C,R11*%
X151415000Y-141521936D02*
X151415000Y-141976064D01*
X152885000Y-141521936D02*
X152885000Y-141976064D01*
%TO.C,R17*%
X135372936Y-153135000D02*
X135827064Y-153135000D01*
X135372936Y-151665000D02*
X135827064Y-151665000D01*
%TO.C,U4*%
X171610000Y-144489000D02*
X171380000Y-144489000D01*
X171610000Y-147209000D02*
X171610000Y-144489000D01*
X166890000Y-144489000D02*
X166890000Y-147209000D01*
X166890000Y-144489000D02*
X167120000Y-144489000D01*
X167120000Y-143349000D02*
X167120000Y-144489000D01*
X166890000Y-147209000D02*
X168200000Y-147209000D01*
X170300000Y-147209000D02*
X171610000Y-147209000D01*
%TO.C,R20*%
X109285000Y-117371936D02*
X109285000Y-117826064D01*
X107815000Y-117371936D02*
X107815000Y-117826064D01*
%TO.C,R1*%
X176972936Y-129135000D02*
X177427064Y-129135000D01*
X176972936Y-127665000D02*
X177427064Y-127665000D01*
%TO.C,C14*%
X156735000Y-132961252D02*
X156735000Y-132438748D01*
X155265000Y-132961252D02*
X155265000Y-132438748D01*
%TO.C,D2*%
X172550000Y-123100000D02*
X174250000Y-123100000D01*
X174250000Y-123100000D02*
X174250000Y-126250000D01*
X172550000Y-123100000D02*
X172550000Y-126250000D01*
%TO.C,C21*%
X165600000Y-136289000D02*
X173660000Y-136289000D01*
X173660000Y-136289000D02*
X173660000Y-140809000D01*
X173660000Y-140809000D02*
X165600000Y-140809000D01*
%TO.C,R9*%
X157522936Y-127514000D02*
X157977064Y-127514000D01*
X157522936Y-128984000D02*
X157977064Y-128984000D01*
%TO.C,R12*%
X145227064Y-129714000D02*
X144772936Y-129714000D01*
X145227064Y-131184000D02*
X144772936Y-131184000D01*
%TO.C,R14*%
X144772936Y-132014000D02*
X145227064Y-132014000D01*
X144772936Y-133484000D02*
X145227064Y-133484000D01*
%TO.C,C12*%
X114214000Y-111388748D02*
X114214000Y-111911252D01*
X115684000Y-111388748D02*
X115684000Y-111911252D01*
%TO.C,R19*%
X127935000Y-131572936D02*
X127935000Y-132027064D01*
X126465000Y-131572936D02*
X126465000Y-132027064D01*
%TO.C,R21*%
X107815000Y-121826064D02*
X107815000Y-121371936D01*
X109285000Y-121826064D02*
X109285000Y-121371936D01*
%TO.C,C20*%
X174710000Y-144189748D02*
X174710000Y-145612252D01*
X172890000Y-144189748D02*
X172890000Y-145612252D01*
%TO.C,C15*%
X157738748Y-137835000D02*
X158261252Y-137835000D01*
X157738748Y-136365000D02*
X158261252Y-136365000D01*
%TO.C,C13*%
X160990000Y-135309000D02*
X160990000Y-128549000D01*
X164410000Y-135309000D02*
X160990000Y-135309000D01*
X164410000Y-128549000D02*
X164410000Y-135309000D01*
%TO.C,C19*%
X122638748Y-132765000D02*
X123161252Y-132765000D01*
X122638748Y-134235000D02*
X123161252Y-134235000D01*
D12*
%TO.C,U18*%
X131374000Y-114825000D02*
X131374000Y-114500000D01*
X124349000Y-107575000D02*
X124349000Y-106150000D01*
X131374000Y-114825000D02*
X131049000Y-114825000D01*
X124124000Y-114825000D02*
X124124000Y-114500000D01*
X131374000Y-107575000D02*
X131049000Y-107575000D01*
X124124000Y-114825000D02*
X124449000Y-114825000D01*
X124124000Y-107575000D02*
X124349000Y-107575000D01*
X124124000Y-107575000D02*
X124124000Y-107900000D01*
X131374000Y-107575000D02*
X131374000Y-107900000D01*
D10*
%TO.C,R5*%
X147964000Y-125976064D02*
X147964000Y-125521936D01*
X149434000Y-125976064D02*
X149434000Y-125521936D01*
%TO.C,R10*%
X153415000Y-141976064D02*
X153415000Y-141521936D01*
X154885000Y-141976064D02*
X154885000Y-141521936D01*
%TO.C,C22*%
X127461252Y-120935000D02*
X126938748Y-120935000D01*
X127461252Y-119465000D02*
X126938748Y-119465000D01*
%TO.C,J1*%
X139445000Y-106077530D02*
X139445000Y-106720000D01*
X135515000Y-103550000D02*
X135515000Y-104192470D01*
X136845000Y-106720000D02*
X139445000Y-106720000D01*
X135450000Y-105770000D02*
X135450000Y-106720000D01*
X135515000Y-103550000D02*
X139445000Y-103550000D01*
X136845000Y-106530000D02*
X136845000Y-106720000D01*
X139445000Y-104807530D02*
X139445000Y-105462470D01*
X135515000Y-104807530D02*
X135515000Y-105010000D01*
X139445000Y-103550000D02*
X139445000Y-104192470D01*
X135450000Y-106720000D02*
X136210000Y-106720000D01*
%TO.C,C23*%
X130987748Y-120935000D02*
X131510252Y-120935000D01*
X130987748Y-119465000D02*
X131510252Y-119465000D01*
%TO.C,L1*%
X181500000Y-147800000D02*
X181500000Y-142700000D01*
X176400000Y-147800000D02*
X176400000Y-142700000D01*
%TO.C,R15*%
X144772936Y-134114000D02*
X145227064Y-134114000D01*
X144772936Y-135584000D02*
X145227064Y-135584000D01*
%TO.C,C24*%
X99511252Y-124015000D02*
X98988748Y-124015000D01*
X99511252Y-125485000D02*
X98988748Y-125485000D01*
%TO.C,SW1*%
X118150000Y-100297000D02*
X117700000Y-99847000D01*
X117700000Y-99847000D02*
X115200000Y-99847000D01*
X118150000Y-104897000D02*
X117700000Y-105347000D01*
X117700000Y-105347000D02*
X115200000Y-105347000D01*
X119200000Y-101597000D02*
X119200000Y-103597000D01*
X113700000Y-101597000D02*
X113700000Y-103597000D01*
X114750000Y-104897000D02*
X115200000Y-105347000D01*
X114750000Y-100297000D02*
X115200000Y-99847000D01*
%TO.C,D15*%
X140285000Y-135809000D02*
X137600000Y-135809000D01*
X140285000Y-133889000D02*
X140285000Y-135809000D01*
X137600000Y-133889000D02*
X140285000Y-133889000D01*
%TO.C,R18*%
X128565000Y-131572936D02*
X128565000Y-132027064D01*
X130035000Y-131572936D02*
X130035000Y-132027064D01*
%TO.C,D16*%
X165900000Y-153000000D02*
X165900000Y-149700000D01*
X165900000Y-149700000D02*
X171300000Y-149700000D01*
X165900000Y-153000000D02*
X171300000Y-153000000D01*
%TO.C,Y1*%
X132149000Y-102900000D02*
X132149000Y-103300000D01*
X128349000Y-103300000D02*
X129149000Y-103300000D01*
X131949000Y-100900000D02*
X130949000Y-100900000D01*
X129149000Y-100900000D02*
X128349000Y-100900000D01*
X132149000Y-100900000D02*
X132149000Y-102900000D01*
X128349000Y-100900000D02*
X128349000Y-102900000D01*
X130949000Y-103300000D02*
X130949000Y-103700000D01*
X131949000Y-102900000D02*
X131949000Y-100900000D01*
X128349000Y-102900000D02*
X128349000Y-103300000D01*
X130949000Y-103300000D02*
X131949000Y-103300000D01*
X131949000Y-102900000D02*
X131949000Y-103300000D01*
%TO.C,R23*%
X140772936Y-160064000D02*
X141227064Y-160064000D01*
X140772936Y-161534000D02*
X141227064Y-161534000D01*
%TO.C,C11*%
X126610252Y-102835000D02*
X126087748Y-102835000D01*
X126610252Y-101365000D02*
X126087748Y-101365000D01*
%TO.C,Q1*%
X171840000Y-132300000D02*
X171840000Y-132950000D01*
X174960000Y-132300000D02*
X174960000Y-133975000D01*
X171840000Y-132300000D02*
X171840000Y-131650000D01*
X174960000Y-132300000D02*
X174960000Y-131650000D01*
%TO.C,R13*%
X144772936Y-137684000D02*
X145227064Y-137684000D01*
X144772936Y-136214000D02*
X145227064Y-136214000D01*
%TO.C,R8*%
X148835000Y-141521936D02*
X148835000Y-141976064D01*
X147365000Y-141521936D02*
X147365000Y-141976064D01*
%TO.C,R7*%
X146785000Y-141534436D02*
X146785000Y-141988564D01*
X145315000Y-141534436D02*
X145315000Y-141988564D01*
%TO.C,D1*%
X175450000Y-123100000D02*
X177150000Y-123100000D01*
X175450000Y-123100000D02*
X175450000Y-126250000D01*
X177150000Y-123100000D02*
X177150000Y-126250000D01*
%TO.C,R3*%
X119134000Y-111472936D02*
X119134000Y-111927064D01*
X117664000Y-111472936D02*
X117664000Y-111927064D01*
%TO.C,R6*%
X147434000Y-125976064D02*
X147434000Y-125521936D01*
X145964000Y-125976064D02*
X145964000Y-125521936D01*
%TO.C,L2*%
X129763758Y-125010000D02*
X131434242Y-125010000D01*
X129763758Y-123190000D02*
X131434242Y-123190000D01*
%TO.C,C17*%
X131038748Y-139915000D02*
X131561252Y-139915000D01*
X131038748Y-141385000D02*
X131561252Y-141385000D01*
%TO.C,C18*%
X115838748Y-141400000D02*
X116361252Y-141400000D01*
X115838748Y-139930000D02*
X116361252Y-139930000D01*
%TO.C,U17*%
X95500000Y-106690000D02*
X91640000Y-106690000D01*
X91640000Y-106690000D02*
X91640000Y-106955000D01*
X99360000Y-122310000D02*
X99360000Y-122045000D01*
X95500000Y-122310000D02*
X99360000Y-122310000D01*
X91640000Y-122045000D02*
X89825000Y-122045000D01*
X99360000Y-106690000D02*
X99360000Y-106955000D01*
X91640000Y-122310000D02*
X91640000Y-122045000D01*
X95500000Y-122310000D02*
X91640000Y-122310000D01*
X95500000Y-106690000D02*
X99360000Y-106690000D01*
%TD*%
M02*
