%TF.GenerationSoftware,KiCad,Pcbnew,(6.0.8)*%
%TF.CreationDate,2022-11-08T14:14:13+01:00*%
%TF.ProjectId,Kockica,4b6f636b-6963-4612-9e6b-696361645f70,rev?*%
%TF.SameCoordinates,Original*%
%TF.FileFunction,Legend,Bot*%
%TF.FilePolarity,Positive*%
%FSLAX46Y46*%
G04 Gerber Fmt 4.6, Leading zero omitted, Abs format (unit mm)*
G04 Created by KiCad (PCBNEW (6.0.8)) date 2022-11-08 14:14:13*
%MOMM*%
%LPD*%
G01*
G04 APERTURE LIST*
%ADD10C,0.150000*%
%ADD11C,0.120000*%
%ADD12R,3.000000X0.650000*%
%ADD13R,0.650000X3.000000*%
G04 APERTURE END LIST*
D10*
X65707142Y-58142857D02*
X66350000Y-58142857D01*
X66478571Y-58100000D01*
X66564285Y-58014285D01*
X66607142Y-57885714D01*
X66607142Y-57800000D01*
X66607142Y-59000000D02*
X66607142Y-58571428D01*
X65707142Y-58571428D01*
X66521428Y-59814285D02*
X66564285Y-59771428D01*
X66607142Y-59642857D01*
X66607142Y-59557142D01*
X66564285Y-59428571D01*
X66478571Y-59342857D01*
X66392857Y-59300000D01*
X66221428Y-59257142D01*
X66092857Y-59257142D01*
X65921428Y-59300000D01*
X65835714Y-59342857D01*
X65750000Y-59428571D01*
X65707142Y-59557142D01*
X65707142Y-59642857D01*
X65750000Y-59771428D01*
X65792857Y-59814285D01*
X65707142Y-60457142D02*
X66350000Y-60457142D01*
X66478571Y-60414285D01*
X66564285Y-60328571D01*
X66607142Y-60200000D01*
X66607142Y-60114285D01*
X66607142Y-61314285D02*
X66607142Y-60885714D01*
X65707142Y-60885714D01*
X66521428Y-62128571D02*
X66564285Y-62085714D01*
X66607142Y-61957142D01*
X66607142Y-61871428D01*
X66564285Y-61742857D01*
X66478571Y-61657142D01*
X66392857Y-61614285D01*
X66221428Y-61571428D01*
X66092857Y-61571428D01*
X65921428Y-61614285D01*
X65835714Y-61657142D01*
X65750000Y-61742857D01*
X65707142Y-61871428D01*
X65707142Y-61957142D01*
X65750000Y-62085714D01*
X65792857Y-62128571D01*
X65707142Y-62771428D02*
X66350000Y-62771428D01*
X66478571Y-62728571D01*
X66564285Y-62642857D01*
X66607142Y-62514285D01*
X66607142Y-62428571D01*
X66607142Y-63628571D02*
X66607142Y-63200000D01*
X65707142Y-63200000D01*
X66521428Y-64442857D02*
X66564285Y-64400000D01*
X66607142Y-64271428D01*
X66607142Y-64185714D01*
X66564285Y-64057142D01*
X66478571Y-63971428D01*
X66392857Y-63928571D01*
X66221428Y-63885714D01*
X66092857Y-63885714D01*
X65921428Y-63928571D01*
X65835714Y-63971428D01*
X65750000Y-64057142D01*
X65707142Y-64185714D01*
X65707142Y-64271428D01*
X65750000Y-64400000D01*
X65792857Y-64442857D01*
X65707142Y-65085714D02*
X66350000Y-65085714D01*
X66478571Y-65042857D01*
X66564285Y-64957142D01*
X66607142Y-64828571D01*
X66607142Y-64742857D01*
X66607142Y-65942857D02*
X66607142Y-65514285D01*
X65707142Y-65514285D01*
X66521428Y-66757142D02*
X66564285Y-66714285D01*
X66607142Y-66585714D01*
X66607142Y-66500000D01*
X66564285Y-66371428D01*
X66478571Y-66285714D01*
X66392857Y-66242857D01*
X66221428Y-66200000D01*
X66092857Y-66200000D01*
X65921428Y-66242857D01*
X65835714Y-66285714D01*
X65750000Y-66371428D01*
X65707142Y-66500000D01*
X65707142Y-66585714D01*
X65750000Y-66714285D01*
X65792857Y-66757142D01*
D11*
%TO.C,J1*%
X55090000Y-46020000D02*
X53260000Y-46020000D01*
X55090000Y-43470000D02*
X57310000Y-43470000D01*
X55090000Y-44850000D02*
X55090000Y-43480000D01*
X57310000Y-46120000D02*
X57310000Y-44750000D01*
X55090000Y-46130000D02*
X57310000Y-46130000D01*
X55090000Y-46130000D02*
X55090000Y-46020000D01*
X57310000Y-43580000D02*
X57310000Y-43470000D01*
%TO.C,J4*%
X67550000Y-55090000D02*
X68920000Y-55090000D01*
X66380000Y-55090000D02*
X66380000Y-53260000D01*
X66270000Y-55090000D02*
X66380000Y-55090000D01*
X66280000Y-57310000D02*
X67650000Y-57310000D01*
X66270000Y-55090000D02*
X66270000Y-57310000D01*
X68930000Y-55090000D02*
X68930000Y-57310000D01*
X68820000Y-57310000D02*
X68930000Y-57310000D01*
%TO.C,J3*%
X57310000Y-66270000D02*
X57310000Y-66380000D01*
X57310000Y-66380000D02*
X59140000Y-66380000D01*
X57310000Y-67550000D02*
X57310000Y-68920000D01*
X57310000Y-68930000D02*
X55090000Y-68930000D01*
X55090000Y-66280000D02*
X55090000Y-67650000D01*
X57310000Y-66270000D02*
X55090000Y-66270000D01*
X55090000Y-68820000D02*
X55090000Y-68930000D01*
%TO.C,J2*%
X44850000Y-57310000D02*
X43480000Y-57310000D01*
X46130000Y-57310000D02*
X46020000Y-57310000D01*
X46120000Y-55090000D02*
X44750000Y-55090000D01*
X46020000Y-57310000D02*
X46020000Y-59140000D01*
X46130000Y-57310000D02*
X46130000Y-55090000D01*
X43580000Y-55090000D02*
X43470000Y-55090000D01*
X43470000Y-57310000D02*
X43470000Y-55090000D01*
%TD*%
%LPC*%
D12*
%TO.C,J1*%
X54700000Y-45435000D03*
X57700000Y-44165000D03*
%TD*%
D13*
%TO.C,J4*%
X66965000Y-54700000D03*
X68235000Y-57700000D03*
%TD*%
D12*
%TO.C,J3*%
X57700000Y-66965000D03*
X54700000Y-68235000D03*
%TD*%
D13*
%TO.C,J2*%
X45435000Y-57700000D03*
X44165000Y-54700000D03*
%TD*%
M02*
