%TF.GenerationSoftware,KiCad,Pcbnew,(6.0.5)*%
%TF.CreationDate,2022-06-08T12:49:44+02:00*%
%TF.ProjectId,FieldBoard,4669656c-6442-46f6-9172-642e6b696361,rev?*%
%TF.SameCoordinates,Original*%
%TF.FileFunction,Component,L1,Top*%
%TF.FilePolarity,Positive*%
%FSLAX46Y46*%
G04 Gerber Fmt 4.6, Leading zero omitted, Abs format (unit mm)*
G04 Created by KiCad (PCBNEW (6.0.5)) date 2022-06-08 12:49:44*
%MOMM*%
%LPD*%
G01*
G04 APERTURE LIST*
%TA.AperFunction,ComponentMain*%
%ADD10C,0.300000*%
%TD*%
%TA.AperFunction,ComponentOutline,Courtyard*%
%ADD11C,0.100000*%
%TD*%
%TA.AperFunction,ComponentPin*%
%ADD12P,0.360000X4X0.000000*%
%TD*%
%TA.AperFunction,ComponentPin*%
%ADD13C,0.000000*%
%TD*%
%TA.AperFunction,ComponentOutline,Footprint*%
%ADD14C,0.100000*%
%TD*%
G04 APERTURE END LIST*
D10*
%TO.C,"POS32"*%
%TO.CFtp,"LED_WS2812B_PLCC4_5.0x5.0mm_P3.2mm"*%
%TO.CVal,"WS2812-4020_dual"*%
%TO.CLbN,"LED_SMD"*%
%TO.CMnt,SMD*%
%TO.CRot,0*%
X132399989Y-141799996D03*
D11*
X135849988Y-144549995D02*
X128949990Y-144549995D01*
X128949990Y-139049997D01*
X135849988Y-139049997D01*
X135849988Y-144549995D01*
D12*
%TO.P,"POS32","1","VDD"*%
X129949989Y-140199996D03*
D13*
%TO.P,"POS32","2","DOUT"*%
X129949989Y-143399996D03*
%TO.P,"POS32","3","VSS"*%
X134849989Y-143399996D03*
%TO.P,"POS32","4","DIN"*%
X134849989Y-140199996D03*
%TD*%
D10*
%TO.C,"POS26"*%
%TO.CFtp,"LED_WS2812B_PLCC4_5.0x5.0mm_P3.2mm"*%
%TO.CVal,"WS2812-4020_dual"*%
%TO.CLbN,"LED_SMD"*%
%TO.CMnt,SMD*%
%TO.CRot,180*%
X196499988Y-78099996D03*
D11*
X199949987Y-80849995D02*
X193049989Y-80849995D01*
X193049989Y-75349997D01*
X199949987Y-75349997D01*
X199949987Y-80849995D01*
D12*
%TO.P,"POS26","1","VDD"*%
X198949988Y-79699996D03*
D13*
%TO.P,"POS26","2","DOUT"*%
X198949988Y-76499996D03*
%TO.P,"POS26","3","VSS"*%
X194049988Y-76499996D03*
%TO.P,"POS26","4","DIN"*%
X194049988Y-79699996D03*
%TD*%
D10*
%TO.C,"LED1"*%
%TO.CFtp,"WS2812-mini"*%
%TO.CVal,"WS2812-4020_single"*%
%TO.CLbN,"FieldBoard_footprint"*%
%TO.CMnt,TH*%
%TO.CRot,180*%
X137799992Y-83600000D03*
D14*
X140189992Y-85040000D02*
X140189992Y-82160000D01*
X135409992Y-82160000D01*
X135409992Y-85040000D01*
X140189992Y-85040000D01*
D12*
%TO.P,"LED1","1","VDD"*%
X139439992Y-84490000D03*
D13*
%TO.P,"LED1","2","DOUT"*%
X139439992Y-82710000D03*
%TO.P,"LED1","3","VSS"*%
X136159992Y-82710000D03*
%TO.P,"LED1","4","DIN"*%
X136159992Y-84490000D03*
%TD*%
D10*
%TO.C,"POS20"*%
%TO.CFtp,"LED_WS2812B_PLCC4_5.0x5.0mm_P3.2mm"*%
%TO.CVal,"WS2812-4020_dual"*%
%TO.CLbN,"LED_SMD"*%
%TO.CMnt,SMD*%
%TO.CRot,-90*%
X90599997Y-78199996D03*
D11*
X93349996Y-81649995D02*
X87849998Y-81649995D01*
X87849998Y-74749997D01*
X93349996Y-74749997D01*
X93349996Y-81649995D01*
D12*
%TO.P,"POS20","1","VDD"*%
X92199997Y-75749996D03*
D13*
%TO.P,"POS20","2","DOUT"*%
X88999997Y-75749996D03*
%TO.P,"POS20","3","VSS"*%
X88999997Y-80649996D03*
%TO.P,"POS20","4","DIN"*%
X92199997Y-80649996D03*
%TD*%
D10*
%TO.C,"POS46"*%
%TO.CFtp,"LED_WS2812B_PLCC4_5.0x5.0mm_P3.2mm"*%
%TO.CVal,"WS2812-4020_dual"*%
%TO.CLbN,"LED_SMD"*%
%TO.CMnt,SMD*%
%TO.CRot,-90*%
X157200000Y-48300000D03*
D11*
X159949999Y-51749999D02*
X154450001Y-51749999D01*
X154450001Y-44850001D01*
X159949999Y-44850001D01*
X159949999Y-51749999D01*
D12*
%TO.P,"POS46","1","VDD"*%
X158800000Y-45850000D03*
D13*
%TO.P,"POS46","2","DOUT"*%
X155600000Y-45850000D03*
%TO.P,"POS46","3","VSS"*%
X155600000Y-50750000D03*
%TO.P,"POS46","4","DIN"*%
X158800000Y-50750000D03*
%TD*%
D10*
%TO.C,"POS70"*%
%TO.CFtp,"LED_WS2812B_PLCC4_5.0x5.0mm_P3.2mm"*%
%TO.CVal,"WS2812-4020_dual"*%
%TO.CLbN,"LED_SMD"*%
%TO.CMnt,SMD*%
%TO.CRot,0*%
X143800000Y-108300000D03*
D11*
X147249999Y-111049999D02*
X140350001Y-111049999D01*
X140350001Y-105550001D01*
X147249999Y-105550001D01*
X147249999Y-111049999D01*
D12*
%TO.P,"POS70","1","VDD"*%
X141350000Y-106700000D03*
D13*
%TO.P,"POS70","2","DOUT"*%
X141350000Y-109900000D03*
%TO.P,"POS70","3","VSS"*%
X146250000Y-109900000D03*
%TO.P,"POS70","4","DIN"*%
X146250000Y-106700000D03*
%TD*%
D10*
%TO.C,"FIN2"*%
%TO.CFtp,"LED_WS2812B_PLCC4_5.0x5.0mm_P3.2mm"*%
%TO.CVal,"WS2812-4020_dual"*%
%TO.CLbN,"LED_SMD"*%
%TO.CMnt,SMD*%
%TO.CRot,-90*%
X111000000Y-57000000D03*
D11*
X113749999Y-60449999D02*
X108250001Y-60449999D01*
X108250001Y-53550001D01*
X113749999Y-53550001D01*
X113749999Y-60449999D01*
D12*
%TO.P,"FIN2","1","VDD"*%
X112600000Y-54550000D03*
D13*
%TO.P,"FIN2","2","DOUT"*%
X109400000Y-54550000D03*
%TO.P,"FIN2","3","VSS"*%
X109400000Y-59450000D03*
%TO.P,"FIN2","4","DIN"*%
X112600000Y-59450000D03*
%TD*%
D10*
%TO.C,"POS55"*%
%TO.CFtp,"LED_WS2812B_PLCC4_5.0x5.0mm_P3.2mm"*%
%TO.CVal,"WS2812-4020_dual"*%
%TO.CLbN,"LED_SMD"*%
%TO.CMnt,SMD*%
%TO.CRot,0*%
X185200000Y-76000000D03*
D11*
X188649999Y-78749999D02*
X181750001Y-78749999D01*
X181750001Y-73250001D01*
X188649999Y-73250001D01*
X188649999Y-78749999D01*
D12*
%TO.P,"POS55","1","VDD"*%
X182750000Y-74400000D03*
D13*
%TO.P,"POS55","2","DOUT"*%
X182750000Y-77600000D03*
%TO.P,"POS55","3","VSS"*%
X187650000Y-77600000D03*
%TO.P,"POS55","4","DIN"*%
X187650000Y-74400000D03*
%TD*%
D10*
%TO.C,"POS19"*%
%TO.CFtp,"LED_WS2812B_PLCC4_5.0x5.0mm_P3.2mm"*%
%TO.CVal,"WS2812-4020_dual"*%
%TO.CLbN,"LED_SMD"*%
%TO.CMnt,SMD*%
%TO.CRot,-90*%
X90599997Y-89550011D03*
D11*
X93349996Y-93000010D02*
X87849998Y-93000010D01*
X87849998Y-86100012D01*
X93349996Y-86100012D01*
X93349996Y-93000010D01*
D12*
%TO.P,"POS19","1","VDD"*%
X92199997Y-87100011D03*
D13*
%TO.P,"POS19","2","DOUT"*%
X88999997Y-87100011D03*
%TO.P,"POS19","3","VSS"*%
X88999997Y-92000011D03*
%TO.P,"POS19","4","DIN"*%
X92199997Y-92000011D03*
%TD*%
D10*
%TO.C,"POS63"*%
%TO.CFtp,"LED_WS2812B_PLCC4_5.0x5.0mm_P3.2mm"*%
%TO.CVal,"WS2812-4020_dual"*%
%TO.CLbN,"LED_SMD"*%
%TO.CMnt,SMD*%
%TO.CRot,90*%
X208500000Y-146200000D03*
D11*
X211249999Y-149649999D02*
X205750001Y-149649999D01*
X205750001Y-142750001D01*
X211249999Y-142750001D01*
X211249999Y-149649999D01*
D12*
%TO.P,"POS63","1","VDD"*%
X206900000Y-148650000D03*
D13*
%TO.P,"POS63","2","DOUT"*%
X210100000Y-148650000D03*
%TO.P,"POS63","3","VSS"*%
X210100000Y-143750000D03*
%TO.P,"POS63","4","DIN"*%
X206900000Y-143750000D03*
%TD*%
D10*
%TO.C,"R2"*%
%TO.CFtp,"R_0603_1608Metric"*%
%TO.CVal,"470R"*%
%TO.CLbN,"Resistor_SMD"*%
%TO.CMnt,SMD*%
%TO.CRot,180*%
X112200000Y-74400000D03*
D11*
X113679999Y-75129999D02*
X110720001Y-75129999D01*
X110720001Y-73670001D01*
X113679999Y-73670001D01*
X113679999Y-75129999D01*
D12*
%TO.P,"R2","1"*%
X113025000Y-74400000D03*
D13*
%TO.P,"R2","2"*%
X111375000Y-74400000D03*
%TD*%
D10*
%TO.C,"POS76"*%
%TO.CFtp,"LED_WS2812B_PLCC4_5.0x5.0mm_P3.2mm"*%
%TO.CVal,"WS2812-4020_dual"*%
%TO.CLbN,"LED_SMD"*%
%TO.CMnt,SMD*%
%TO.CRot,-90*%
X86453033Y-153867677D03*
D11*
X89203032Y-157317676D02*
X83703034Y-157317676D01*
X83703034Y-150417678D01*
X89203032Y-150417678D01*
X89203032Y-157317676D01*
D12*
%TO.P,"POS76","1","VDD"*%
X88053033Y-151417677D03*
D13*
%TO.P,"POS76","2","DOUT"*%
X84853033Y-151417677D03*
%TO.P,"POS76","3","VSS"*%
X84853033Y-156317677D03*
%TO.P,"POS76","4","DIN"*%
X88053033Y-156317677D03*
%TD*%
D10*
%TO.C,"POS17"*%
%TO.CFtp,"LED_WS2812B_PLCC4_5.0x5.0mm_P3.2mm"*%
%TO.CVal,"WS2812-4020_dual"*%
%TO.CLbN,"LED_SMD"*%
%TO.CMnt,SMD*%
%TO.CRot,90*%
X101999999Y-89499999D03*
D11*
X104749998Y-92949998D02*
X99250000Y-92949998D01*
X99250000Y-86050000D01*
X104749998Y-86050000D01*
X104749998Y-92949998D01*
D12*
%TO.P,"POS17","1","VDD"*%
X100399999Y-91949999D03*
D13*
%TO.P,"POS17","2","DOUT"*%
X103599999Y-91949999D03*
%TO.P,"POS17","3","VSS"*%
X103599999Y-87049999D03*
%TO.P,"POS17","4","DIN"*%
X100399999Y-87049999D03*
%TD*%
D10*
%TO.C,"POS56"*%
%TO.CFtp,"LED_WS2812B_PLCC4_5.0x5.0mm_P3.2mm"*%
%TO.CVal,"WS2812-4020_dual"*%
%TO.CLbN,"LED_SMD"*%
%TO.CMnt,SMD*%
%TO.CRot,0*%
X173600000Y-83400000D03*
D11*
X177049999Y-86149999D02*
X170150001Y-86149999D01*
X170150001Y-80650001D01*
X177049999Y-80650001D01*
X177049999Y-86149999D01*
D12*
%TO.P,"POS56","1","VDD"*%
X171150000Y-81800000D03*
D13*
%TO.P,"POS56","2","DOUT"*%
X171150000Y-85000000D03*
%TO.P,"POS56","3","VSS"*%
X176050000Y-85000000D03*
%TO.P,"POS56","4","DIN"*%
X176050000Y-81800000D03*
%TD*%
D10*
%TO.C,"POS54"*%
%TO.CFtp,"LED_WS2812B_PLCC4_5.0x5.0mm_P3.2mm"*%
%TO.CVal,"WS2812-4020_dual"*%
%TO.CLbN,"LED_SMD"*%
%TO.CMnt,SMD*%
%TO.CRot,90*%
X196400000Y-66200000D03*
D11*
X199149999Y-69649999D02*
X193650001Y-69649999D01*
X193650001Y-62750001D01*
X199149999Y-62750001D01*
X199149999Y-69649999D01*
D12*
%TO.P,"POS54","1","VDD"*%
X194800000Y-68650000D03*
D13*
%TO.P,"POS54","2","DOUT"*%
X198000000Y-68650000D03*
%TO.P,"POS54","3","VSS"*%
X198000000Y-63750000D03*
%TO.P,"POS54","4","DIN"*%
X194800000Y-63750000D03*
%TD*%
D10*
%TO.C,"POS52"*%
%TO.CFtp,"LED_WS2812B_PLCC4_5.0x5.0mm_P3.2mm"*%
%TO.CVal,"WS2812-4020_dual"*%
%TO.CLbN,"LED_SMD"*%
%TO.CMnt,SMD*%
%TO.CRot,90*%
X209700000Y-43200000D03*
D11*
X212449999Y-46649999D02*
X206950001Y-46649999D01*
X206950001Y-39750001D01*
X212449999Y-39750001D01*
X212449999Y-46649999D01*
D12*
%TO.P,"POS52","1","VDD"*%
X208100000Y-45650000D03*
D13*
%TO.P,"POS52","2","DOUT"*%
X211300000Y-45650000D03*
%TO.P,"POS52","3","VSS"*%
X211300000Y-40750000D03*
%TO.P,"POS52","4","DIN"*%
X208100000Y-40750000D03*
%TD*%
D10*
%TO.C,"R3"*%
%TO.CFtp,"R_0603_1608Metric"*%
%TO.CVal,"470R"*%
%TO.CLbN,"Resistor_SMD"*%
%TO.CMnt,SMD*%
%TO.CRot,-90*%
X131400000Y-78900000D03*
D11*
X132129999Y-80379999D02*
X130670001Y-80379999D01*
X130670001Y-77420001D01*
X132129999Y-77420001D01*
X132129999Y-80379999D01*
D12*
%TO.P,"R3","1"*%
X131400000Y-78075000D03*
D13*
%TO.P,"R3","2"*%
X131400000Y-79725000D03*
%TD*%
D10*
%TO.C,"POS31"*%
%TO.CFtp,"LED_WS2812B_PLCC4_5.0x5.0mm_P3.2mm"*%
%TO.CVal,"WS2812-4020_dual"*%
%TO.CLbN,"LED_SMD"*%
%TO.CMnt,SMD*%
%TO.CRot,0*%
X143696969Y-141799996D03*
D11*
X147146968Y-144549995D02*
X140246970Y-144549995D01*
X140246970Y-139049997D01*
X147146968Y-139049997D01*
X147146968Y-144549995D01*
D12*
%TO.P,"POS31","1","VDD"*%
X141246969Y-140199996D03*
D13*
%TO.P,"POS31","2","DOUT"*%
X141246969Y-143399996D03*
%TO.P,"POS31","3","VSS"*%
X146146969Y-143399996D03*
%TO.P,"POS31","4","DIN"*%
X146146969Y-140199996D03*
%TD*%
D10*
%TO.C,"POS18"*%
%TO.CFtp,"LED_WS2812B_PLCC4_5.0x5.0mm_P3.2mm"*%
%TO.CVal,"WS2812-4020_dual"*%
%TO.CLbN,"LED_SMD"*%
%TO.CMnt,SMD*%
%TO.CRot,-90*%
X90599997Y-100800000D03*
D11*
X93349996Y-104249999D02*
X87849998Y-104249999D01*
X87849998Y-97350001D01*
X93349996Y-97350001D01*
X93349996Y-104249999D01*
D12*
%TO.P,"POS18","1","VDD"*%
X92199997Y-98350000D03*
D13*
%TO.P,"POS18","2","DOUT"*%
X88999997Y-98350000D03*
%TO.P,"POS18","3","VSS"*%
X88999997Y-103250000D03*
%TO.P,"POS18","4","DIN"*%
X92199997Y-103250000D03*
%TD*%
D10*
%TO.C,"POS50"*%
%TO.CFtp,"LED_WS2812B_PLCC4_5.0x5.0mm_P3.2mm"*%
%TO.CVal,"WS2812-4020_dual"*%
%TO.CLbN,"LED_SMD"*%
%TO.CMnt,SMD*%
%TO.CRot,180*%
X201100000Y-24967677D03*
D11*
X204549999Y-27717676D02*
X197650001Y-27717676D01*
X197650001Y-22217678D01*
X204549999Y-22217678D01*
X204549999Y-27717676D01*
D12*
%TO.P,"POS50","1","VDD"*%
X203550000Y-26567677D03*
D13*
%TO.P,"POS50","2","DOUT"*%
X203550000Y-23367677D03*
%TO.P,"POS50","3","VSS"*%
X198650000Y-23367677D03*
%TO.P,"POS50","4","DIN"*%
X198650000Y-26567677D03*
%TD*%
D10*
%TO.C,"LED9"*%
%TO.CFtp,"WS2812-mini"*%
%TO.CVal,"WS2812-4020_single"*%
%TO.CLbN,"FieldBoard_footprint"*%
%TO.CMnt,TH*%
%TO.CRot,90*%
X143799992Y-89608838D03*
D14*
X142359992Y-91998838D02*
X145239992Y-91998838D01*
X145239992Y-87218838D01*
X142359992Y-87218838D01*
X142359992Y-91998838D01*
D12*
%TO.P,"LED9","1","VDD"*%
X142909992Y-91248838D03*
D13*
%TO.P,"LED9","2","DOUT"*%
X144689992Y-91248838D03*
%TO.P,"LED9","3","VSS"*%
X144689992Y-87968838D03*
%TO.P,"LED9","4","DIN"*%
X142909992Y-87968838D03*
%TD*%
D10*
%TO.C,"POS40"*%
%TO.CFtp,"LED_WS2812B_PLCC4_5.0x5.0mm_P3.2mm"*%
%TO.CVal,"WS2812-4020_dual"*%
%TO.CLbN,"LED_SMD"*%
%TO.CMnt,SMD*%
%TO.CRot,180*%
X109600000Y-28300000D03*
D11*
X113049999Y-31049999D02*
X106150001Y-31049999D01*
X106150001Y-25550001D01*
X113049999Y-25550001D01*
X113049999Y-31049999D01*
D12*
%TO.P,"POS40","1","VDD"*%
X112050000Y-29900000D03*
D13*
%TO.P,"POS40","2","DOUT"*%
X112050000Y-26700000D03*
%TO.P,"POS40","3","VSS"*%
X107150000Y-26700000D03*
%TO.P,"POS40","4","DIN"*%
X107150000Y-29900000D03*
%TD*%
D10*
%TO.C,"POS53"*%
%TO.CFtp,"LED_WS2812B_PLCC4_5.0x5.0mm_P3.2mm"*%
%TO.CVal,"WS2812-4020_dual"*%
%TO.CLbN,"LED_SMD"*%
%TO.CMnt,SMD*%
%TO.CRot,90*%
X205400000Y-55200000D03*
D11*
X208149999Y-58649999D02*
X202650001Y-58649999D01*
X202650001Y-51750001D01*
X208149999Y-51750001D01*
X208149999Y-58649999D01*
D12*
%TO.P,"POS53","1","VDD"*%
X203800000Y-57650000D03*
D13*
%TO.P,"POS53","2","DOUT"*%
X207000000Y-57650000D03*
%TO.P,"POS53","3","VSS"*%
X207000000Y-52750000D03*
%TO.P,"POS53","4","DIN"*%
X203800000Y-52750000D03*
%TD*%
D10*
%TO.C,"LED7"*%
%TO.CFtp,"WS2812-mini"*%
%TO.CVal,"WS2812-4020_single"*%
%TO.CLbN,"FieldBoard_footprint"*%
%TO.CMnt,TH*%
%TO.CRot,0*%
X137799992Y-95608851D03*
D14*
X135409992Y-94168851D02*
X135409992Y-97048851D01*
X140189992Y-97048851D01*
X140189992Y-94168851D01*
X135409992Y-94168851D01*
D12*
%TO.P,"LED7","1","VDD"*%
X136159992Y-94718851D03*
D13*
%TO.P,"LED7","2","DOUT"*%
X136159992Y-96498851D03*
%TO.P,"LED7","3","VSS"*%
X139439992Y-96498851D03*
%TO.P,"LED7","4","DIN"*%
X139439992Y-94718851D03*
%TD*%
D10*
%TO.C,"POS24"*%
%TO.CFtp,"LED_WS2812B_PLCC4_5.0x5.0mm_P3.2mm"*%
%TO.CVal,"WS2812-4020_dual"*%
%TO.CLbN,"LED_SMD"*%
%TO.CMnt,SMD*%
%TO.CRot,-90*%
X155099995Y-37100000D03*
D11*
X157849994Y-40549999D02*
X152349996Y-40549999D01*
X152349996Y-33650001D01*
X157849994Y-33650001D01*
X157849994Y-40549999D01*
D12*
%TO.P,"POS24","1","VDD"*%
X156699995Y-34650000D03*
D13*
%TO.P,"POS24","2","DOUT"*%
X153499995Y-34650000D03*
%TO.P,"POS24","3","VSS"*%
X153499995Y-39550000D03*
%TO.P,"POS24","4","DIN"*%
X156699995Y-39550000D03*
%TD*%
D10*
%TO.C,"POS80"*%
%TO.CFtp,"LED_WS2812B_PLCC4_5.0x5.0mm_P3.2mm"*%
%TO.CVal,"WS2812-4020_dual"*%
%TO.CLbN,"LED_SMD"*%
%TO.CMnt,SMD*%
%TO.CRot,180*%
X90600000Y-112500000D03*
D11*
X94049999Y-115249999D02*
X87150001Y-115249999D01*
X87150001Y-109750001D01*
X94049999Y-109750001D01*
X94049999Y-115249999D01*
D12*
%TO.P,"POS80","1","VDD"*%
X93050000Y-114100000D03*
D13*
%TO.P,"POS80","2","DOUT"*%
X93050000Y-110900000D03*
%TO.P,"POS80","3","VSS"*%
X88150000Y-110900000D03*
%TO.P,"POS80","4","DIN"*%
X88150000Y-114100000D03*
%TD*%
D10*
%TO.C,"POS47"*%
%TO.CFtp,"LED_WS2812B_PLCC4_5.0x5.0mm_P3.2mm"*%
%TO.CVal,"WS2812-4020_dual"*%
%TO.CLbN,"LED_SMD"*%
%TO.CMnt,SMD*%
%TO.CRot,-90*%
X166900000Y-37100000D03*
D11*
X169649999Y-40549999D02*
X164150001Y-40549999D01*
X164150001Y-33650001D01*
X169649999Y-33650001D01*
X169649999Y-40549999D01*
D12*
%TO.P,"POS47","1","VDD"*%
X168500000Y-34650000D03*
D13*
%TO.P,"POS47","2","DOUT"*%
X165300000Y-34650000D03*
%TO.P,"POS47","3","VSS"*%
X165300000Y-39550000D03*
%TO.P,"POS47","4","DIN"*%
X168500000Y-39550000D03*
%TD*%
D10*
%TO.C,"POS30"*%
%TO.CFtp,"LED_WS2812B_PLCC4_5.0x5.0mm_P3.2mm"*%
%TO.CVal,"WS2812-4020_dual"*%
%TO.CLbN,"LED_SMD"*%
%TO.CMnt,SMD*%
%TO.CRot,90*%
X154999995Y-141799996D03*
D11*
X157749994Y-145249995D02*
X152249996Y-145249995D01*
X152249996Y-138349997D01*
X157749994Y-138349997D01*
X157749994Y-145249995D01*
D12*
%TO.P,"POS30","1","VDD"*%
X153399995Y-144249996D03*
D13*
%TO.P,"POS30","2","DOUT"*%
X156599995Y-144249996D03*
%TO.P,"POS30","3","VSS"*%
X156599995Y-139349996D03*
%TO.P,"POS30","4","DIN"*%
X153399995Y-139349996D03*
%TD*%
D10*
%TO.C,"FIN8"*%
%TO.CFtp,"LED_WS2812B_PLCC4_5.0x5.0mm_P3.2mm"*%
%TO.CVal,"WS2812-4020_dual"*%
%TO.CLbN,"LED_SMD"*%
%TO.CMnt,SMD*%
%TO.CRot,180*%
X191700000Y-42000000D03*
D11*
X195149999Y-44749999D02*
X188250001Y-44749999D01*
X188250001Y-39250001D01*
X195149999Y-39250001D01*
X195149999Y-44749999D01*
D12*
%TO.P,"FIN8","1","VDD"*%
X194150000Y-43600000D03*
D13*
%TO.P,"FIN8","2","DOUT"*%
X194150000Y-40400000D03*
%TO.P,"FIN8","3","VSS"*%
X189250000Y-40400000D03*
%TO.P,"FIN8","4","DIN"*%
X189250000Y-43600000D03*
%TD*%
D10*
%TO.C,"FIN12"*%
%TO.CFtp,"LED_WS2812B_PLCC4_5.0x5.0mm_P3.2mm"*%
%TO.CVal,"WS2812-4020_dual"*%
%TO.CLbN,"LED_SMD"*%
%TO.CMnt,SMD*%
%TO.CRot,90*%
X191700000Y-137000000D03*
D11*
X194449999Y-140449999D02*
X188950001Y-140449999D01*
X188950001Y-133550001D01*
X194449999Y-133550001D01*
X194449999Y-140449999D01*
D12*
%TO.P,"FIN12","1","VDD"*%
X190100000Y-139450000D03*
D13*
%TO.P,"FIN12","2","DOUT"*%
X193300000Y-139450000D03*
%TO.P,"FIN12","3","VSS"*%
X193300000Y-134550000D03*
%TO.P,"FIN12","4","DIN"*%
X190100000Y-134550000D03*
%TD*%
D10*
%TO.C,"FIN16"*%
%TO.CFtp,"LED_WS2812B_PLCC4_5.0x5.0mm_P3.2mm"*%
%TO.CVal,"WS2812-4020_dual"*%
%TO.CLbN,"LED_SMD"*%
%TO.CMnt,SMD*%
%TO.CRot,0*%
X95900000Y-137000000D03*
D11*
X99349999Y-139749999D02*
X92450001Y-139749999D01*
X92450001Y-134250001D01*
X99349999Y-134250001D01*
X99349999Y-139749999D01*
D12*
%TO.P,"FIN16","1","VDD"*%
X93450000Y-135400000D03*
D13*
%TO.P,"FIN16","2","DOUT"*%
X93450000Y-138600000D03*
%TO.P,"FIN16","3","VSS"*%
X98350000Y-138600000D03*
%TO.P,"FIN16","4","DIN"*%
X98350000Y-135400000D03*
%TD*%
D10*
%TO.C,"FIN11"*%
%TO.CFtp,"LED_WS2812B_PLCC4_5.0x5.0mm_P3.2mm"*%
%TO.CVal,"WS2812-4020_dual"*%
%TO.CLbN,"LED_SMD"*%
%TO.CMnt,SMD*%
%TO.CRot,90*%
X184200000Y-129500000D03*
D11*
X186949999Y-132949999D02*
X181450001Y-132949999D01*
X181450001Y-126050001D01*
X186949999Y-126050001D01*
X186949999Y-132949999D01*
D12*
%TO.P,"FIN11","1","VDD"*%
X182600000Y-131950000D03*
D13*
%TO.P,"FIN11","2","DOUT"*%
X185800000Y-131950000D03*
%TO.P,"FIN11","3","VSS"*%
X185800000Y-127050000D03*
%TO.P,"FIN11","4","DIN"*%
X182600000Y-127050000D03*
%TD*%
D10*
%TO.C,"POS27"*%
%TO.CFtp,"LED_WS2812B_PLCC4_5.0x5.0mm_P3.2mm"*%
%TO.CVal,"WS2812-4020_dual"*%
%TO.CLbN,"LED_SMD"*%
%TO.CMnt,SMD*%
%TO.CRot,0*%
X196499988Y-89496976D03*
D11*
X199949987Y-92246975D02*
X193049989Y-92246975D01*
X193049989Y-86746977D01*
X199949987Y-86746977D01*
X199949987Y-92246975D01*
D12*
%TO.P,"POS27","1","VDD"*%
X194049988Y-87896976D03*
D13*
%TO.P,"POS27","2","DOUT"*%
X194049988Y-91096976D03*
%TO.P,"POS27","3","VSS"*%
X198949988Y-91096976D03*
%TO.P,"POS27","4","DIN"*%
X198949988Y-87896976D03*
%TD*%
D10*
%TO.C,"POS77"*%
%TO.CFtp,"LED_WS2812B_PLCC4_5.0x5.0mm_P3.2mm"*%
%TO.CVal,"WS2812-4020_dual"*%
%TO.CLbN,"LED_SMD"*%
%TO.CMnt,SMD*%
%TO.CRot,-90*%
X78800000Y-146267677D03*
D11*
X81549999Y-149717676D02*
X76050001Y-149717676D01*
X76050001Y-142817678D01*
X81549999Y-142817678D01*
X81549999Y-149717676D01*
D12*
%TO.P,"POS77","1","VDD"*%
X80400000Y-143817677D03*
D13*
%TO.P,"POS77","2","DOUT"*%
X77200000Y-143817677D03*
%TO.P,"POS77","3","VSS"*%
X77200000Y-148717677D03*
%TO.P,"POS77","4","DIN"*%
X80400000Y-148717677D03*
%TD*%
D10*
%TO.C,"FIN7"*%
%TO.CFtp,"LED_WS2812B_PLCC4_5.0x5.0mm_P3.2mm"*%
%TO.CVal,"WS2812-4020_dual"*%
%TO.CLbN,"LED_SMD"*%
%TO.CMnt,SMD*%
%TO.CRot,180*%
X184200000Y-49500000D03*
D11*
X187649999Y-52249999D02*
X180750001Y-52249999D01*
X180750001Y-46750001D01*
X187649999Y-46750001D01*
X187649999Y-52249999D01*
D12*
%TO.P,"FIN7","1","VDD"*%
X186650000Y-51100000D03*
D13*
%TO.P,"FIN7","2","DOUT"*%
X186650000Y-47900000D03*
%TO.P,"FIN7","3","VSS"*%
X181750000Y-47900000D03*
%TO.P,"FIN7","4","DIN"*%
X181750000Y-51100000D03*
%TD*%
D10*
%TO.C,"POS23"*%
%TO.CFtp,"LED_WS2812B_PLCC4_5.0x5.0mm_P3.2mm"*%
%TO.CVal,"WS2812-4020_dual"*%
%TO.CLbN,"LED_SMD"*%
%TO.CMnt,SMD*%
%TO.CRot,90*%
X143850004Y-37100000D03*
D11*
X146600003Y-40549999D02*
X141100005Y-40549999D01*
X141100005Y-33650001D01*
X146600003Y-33650001D01*
X146600003Y-40549999D01*
D12*
%TO.P,"POS23","1","VDD"*%
X142250004Y-39550000D03*
D13*
%TO.P,"POS23","2","DOUT"*%
X145450004Y-39550000D03*
%TO.P,"POS23","3","VSS"*%
X145450004Y-34650000D03*
%TO.P,"POS23","4","DIN"*%
X142250004Y-34650000D03*
%TD*%
D10*
%TO.C,"POS45"*%
%TO.CFtp,"LED_WS2812B_PLCC4_5.0x5.0mm_P3.2mm"*%
%TO.CVal,"WS2812-4020_dual"*%
%TO.CLbN,"LED_SMD"*%
%TO.CMnt,SMD*%
%TO.CRot,-90*%
X150000000Y-59600000D03*
D11*
X152749999Y-63049999D02*
X147250001Y-63049999D01*
X147250001Y-56150001D01*
X152749999Y-56150001D01*
X152749999Y-63049999D01*
D12*
%TO.P,"POS45","1","VDD"*%
X151600000Y-57150000D03*
D13*
%TO.P,"POS45","2","DOUT"*%
X148400000Y-57150000D03*
%TO.P,"POS45","3","VSS"*%
X148400000Y-62050000D03*
%TO.P,"POS45","4","DIN"*%
X151600000Y-62050000D03*
%TD*%
D10*
%TO.C,"FIN5"*%
%TO.CFtp,"LED_WS2812B_PLCC4_5.0x5.0mm_P3.2mm"*%
%TO.CVal,"WS2812-4020_dual"*%
%TO.CLbN,"LED_SMD"*%
%TO.CMnt,SMD*%
%TO.CRot,180*%
X168950000Y-64500000D03*
D11*
X172399999Y-67249999D02*
X165500001Y-67249999D01*
X165500001Y-61750001D01*
X172399999Y-61750001D01*
X172399999Y-67249999D01*
D12*
%TO.P,"FIN5","1","VDD"*%
X171400000Y-66100000D03*
D13*
%TO.P,"FIN5","2","DOUT"*%
X171400000Y-62900000D03*
%TO.P,"FIN5","3","VSS"*%
X166500000Y-62900000D03*
%TO.P,"FIN5","4","DIN"*%
X166500000Y-66100000D03*
%TD*%
D10*
%TO.C,"POS72"*%
%TO.CFtp,"LED_WS2812B_PLCC4_5.0x5.0mm_P3.2mm"*%
%TO.CVal,"WS2812-4020_dual"*%
%TO.CLbN,"LED_SMD"*%
%TO.CMnt,SMD*%
%TO.CRot,90*%
X130500000Y-130500000D03*
D11*
X133249999Y-133949999D02*
X127750001Y-133949999D01*
X127750001Y-127050001D01*
X133249999Y-127050001D01*
X133249999Y-133949999D01*
D12*
%TO.P,"POS72","1","VDD"*%
X128900000Y-132950000D03*
D13*
%TO.P,"POS72","2","DOUT"*%
X132100000Y-132950000D03*
%TO.P,"POS72","3","VSS"*%
X132100000Y-128050000D03*
%TO.P,"POS72","4","DIN"*%
X128900000Y-128050000D03*
%TD*%
D10*
%TO.C,"POS61"*%
%TO.CFtp,"LED_WS2812B_PLCC4_5.0x5.0mm_P3.2mm"*%
%TO.CVal,"WS2812-4020_dual"*%
%TO.CLbN,"LED_SMD"*%
%TO.CMnt,SMD*%
%TO.CRot,90*%
X205399996Y-123500000D03*
D11*
X208149995Y-126949999D02*
X202649997Y-126949999D01*
X202649997Y-120050001D01*
X208149995Y-120050001D01*
X208149995Y-126949999D01*
D12*
%TO.P,"POS61","1","VDD"*%
X203799996Y-125950000D03*
D13*
%TO.P,"POS61","2","DOUT"*%
X206999996Y-125950000D03*
%TO.P,"POS61","3","VSS"*%
X206999996Y-121050000D03*
%TO.P,"POS61","4","DIN"*%
X203799996Y-121050000D03*
%TD*%
D10*
%TO.C,"POS29"*%
%TO.CFtp,"LED_WS2812B_PLCC4_5.0x5.0mm_P3.2mm"*%
%TO.CVal,"WS2812-4020_dual"*%
%TO.CLbN,"LED_SMD"*%
%TO.CMnt,SMD*%
%TO.CRot,0*%
X143799992Y-130482315D03*
D11*
X147249991Y-133232314D02*
X140349993Y-133232314D01*
X140349993Y-127732316D01*
X147249991Y-127732316D01*
X147249991Y-133232314D01*
D12*
%TO.P,"POS29","1","VDD"*%
X141349992Y-128882315D03*
D13*
%TO.P,"POS29","2","DOUT"*%
X141349992Y-132082315D03*
%TO.P,"POS29","3","VSS"*%
X146249992Y-132082315D03*
%TO.P,"POS29","4","DIN"*%
X146249992Y-128882315D03*
%TD*%
D10*
%TO.C,"LED8"*%
%TO.CFtp,"WS2812-mini"*%
%TO.CVal,"WS2812-4020_single"*%
%TO.CLbN,"FieldBoard_footprint"*%
%TO.CMnt,TH*%
%TO.CRot,180*%
X137799992Y-89558851D03*
D14*
X140189992Y-90998851D02*
X140189992Y-88118851D01*
X135409992Y-88118851D01*
X135409992Y-90998851D01*
X140189992Y-90998851D01*
D12*
%TO.P,"LED8","1","VDD"*%
X139439992Y-90448851D03*
D13*
%TO.P,"LED8","2","DOUT"*%
X139439992Y-88668851D03*
%TO.P,"LED8","3","VSS"*%
X136159992Y-88668851D03*
%TO.P,"LED8","4","DIN"*%
X136159992Y-90448851D03*
%TD*%
D10*
%TO.C,"FIN14"*%
%TO.CFtp,"LED_WS2812B_PLCC4_5.0x5.0mm_P3.2mm"*%
%TO.CVal,"WS2812-4020_dual"*%
%TO.CLbN,"LED_SMD"*%
%TO.CMnt,SMD*%
%TO.CRot,0*%
X111000000Y-122100000D03*
D11*
X114449999Y-124849999D02*
X107550001Y-124849999D01*
X107550001Y-119350001D01*
X114449999Y-119350001D01*
X114449999Y-124849999D01*
D12*
%TO.P,"FIN14","1","VDD"*%
X108550000Y-120500000D03*
D13*
%TO.P,"FIN14","2","DOUT"*%
X108550000Y-123700000D03*
%TO.P,"FIN14","3","VSS"*%
X113450000Y-123700000D03*
%TO.P,"FIN14","4","DIN"*%
X113450000Y-120500000D03*
%TD*%
D10*
%TO.C,"POS48"*%
%TO.CFtp,"LED_WS2812B_PLCC4_5.0x5.0mm_P3.2mm"*%
%TO.CVal,"WS2812-4020_dual"*%
%TO.CLbN,"LED_SMD"*%
%TO.CMnt,SMD*%
%TO.CRot,180*%
X178200000Y-28200000D03*
D11*
X181649999Y-30949999D02*
X174750001Y-30949999D01*
X174750001Y-25450001D01*
X181649999Y-25450001D01*
X181649999Y-30949999D01*
D12*
%TO.P,"POS48","1","VDD"*%
X180650000Y-29800000D03*
D13*
%TO.P,"POS48","2","DOUT"*%
X180650000Y-26600000D03*
%TO.P,"POS48","3","VSS"*%
X175750000Y-26600000D03*
%TO.P,"POS48","4","DIN"*%
X175750000Y-29800000D03*
%TD*%
D10*
%TO.C,"POS41"*%
%TO.CFtp,"LED_WS2812B_PLCC4_5.0x5.0mm_P3.2mm"*%
%TO.CVal,"WS2812-4020_dual"*%
%TO.CLbN,"LED_SMD"*%
%TO.CMnt,SMD*%
%TO.CRot,90*%
X120700000Y-37100000D03*
D11*
X123449999Y-40549999D02*
X117950001Y-40549999D01*
X117950001Y-33650001D01*
X123449999Y-33650001D01*
X123449999Y-40549999D01*
D12*
%TO.P,"POS41","1","VDD"*%
X119100000Y-39550000D03*
D13*
%TO.P,"POS41","2","DOUT"*%
X122300000Y-39550000D03*
%TO.P,"POS41","3","VSS"*%
X122300000Y-34650000D03*
%TO.P,"POS41","4","DIN"*%
X119100000Y-34650000D03*
%TD*%
D10*
%TO.C,"FIN3"*%
%TO.CFtp,"LED_WS2812B_PLCC4_5.0x5.0mm_P3.2mm"*%
%TO.CVal,"WS2812-4020_dual"*%
%TO.CLbN,"LED_SMD"*%
%TO.CMnt,SMD*%
%TO.CRot,-90*%
X103600000Y-49500000D03*
D11*
X106349999Y-52949999D02*
X100850001Y-52949999D01*
X100850001Y-46050001D01*
X106349999Y-46050001D01*
X106349999Y-52949999D01*
D12*
%TO.P,"FIN3","1","VDD"*%
X105200000Y-47050000D03*
D13*
%TO.P,"FIN3","2","DOUT"*%
X102000000Y-47050000D03*
%TO.P,"FIN3","3","VSS"*%
X102000000Y-51950000D03*
%TO.P,"FIN3","4","DIN"*%
X105200000Y-51950000D03*
%TD*%
D10*
%TO.C,"POS33"*%
%TO.CFtp,"LED_WS2812B_PLCC4_5.0x5.0mm_P3.2mm"*%
%TO.CVal,"WS2812-4020_dual"*%
%TO.CLbN,"LED_SMD"*%
%TO.CMnt,SMD*%
%TO.CRot,0*%
X101999999Y-76000000D03*
D11*
X105449998Y-78749999D02*
X98550000Y-78749999D01*
X98550000Y-73250001D01*
X105449998Y-73250001D01*
X105449998Y-78749999D01*
D12*
%TO.P,"POS33","1","VDD"*%
X99549999Y-74400000D03*
D13*
%TO.P,"POS33","2","DOUT"*%
X99549999Y-77600000D03*
%TO.P,"POS33","3","VSS"*%
X104449999Y-77600000D03*
%TO.P,"POS33","4","DIN"*%
X104449999Y-74400000D03*
%TD*%
D10*
%TO.C,"LED3"*%
%TO.CFtp,"WS2812-mini"*%
%TO.CVal,"WS2812-4020_single"*%
%TO.CLbN,"FieldBoard_footprint"*%
%TO.CMnt,TH*%
%TO.CRot,90*%
X149799992Y-83491172D03*
D14*
X148359992Y-85881172D02*
X151239992Y-85881172D01*
X151239992Y-81101172D01*
X148359992Y-81101172D01*
X148359992Y-85881172D01*
D12*
%TO.P,"LED3","1","VDD"*%
X148909992Y-85131172D03*
D13*
%TO.P,"LED3","2","DOUT"*%
X150689992Y-85131172D03*
%TO.P,"LED3","3","VSS"*%
X150689992Y-81851172D03*
%TO.P,"LED3","4","DIN"*%
X148909992Y-81851172D03*
%TD*%
D10*
%TO.C,"POS69"*%
%TO.CFtp,"LED_WS2812B_PLCC4_5.0x5.0mm_P3.2mm"*%
%TO.CVal,"WS2812-4020_dual"*%
%TO.CLbN,"LED_SMD"*%
%TO.CMnt,SMD*%
%TO.CRot,-90*%
X150000000Y-119000000D03*
D11*
X152749999Y-122449999D02*
X147250001Y-122449999D01*
X147250001Y-115550001D01*
X152749999Y-115550001D01*
X152749999Y-122449999D01*
D12*
%TO.P,"POS69","1","VDD"*%
X151600000Y-116550000D03*
D13*
%TO.P,"POS69","2","DOUT"*%
X148400000Y-116550000D03*
%TO.P,"POS69","3","VSS"*%
X148400000Y-121450000D03*
%TO.P,"POS69","4","DIN"*%
X151600000Y-121450000D03*
%TD*%
D10*
%TO.C,"POS84"*%
%TO.CFtp,"LED_WS2812B_PLCC4_5.0x5.0mm_P3.2mm"*%
%TO.CVal,"WS2812-4020_dual"*%
%TO.CLbN,"LED_SMD"*%
%TO.CMnt,SMD*%
%TO.CRot,0*%
X113800000Y-83400000D03*
D11*
X117249999Y-86149999D02*
X110350001Y-86149999D01*
X110350001Y-80650001D01*
X117249999Y-80650001D01*
X117249999Y-86149999D01*
D12*
%TO.P,"POS84","1","VDD"*%
X111350000Y-81800000D03*
D13*
%TO.P,"POS84","2","DOUT"*%
X111350000Y-85000000D03*
%TO.P,"POS84","3","VSS"*%
X116250000Y-85000000D03*
%TO.P,"POS84","4","DIN"*%
X116250000Y-81800000D03*
%TD*%
D10*
%TO.C,"POS79"*%
%TO.CFtp,"LED_WS2812B_PLCC4_5.0x5.0mm_P3.2mm"*%
%TO.CVal,"WS2812-4020_dual"*%
%TO.CLbN,"LED_SMD"*%
%TO.CMnt,SMD*%
%TO.CRot,180*%
X82100000Y-123500000D03*
D11*
X85549999Y-126249999D02*
X78650001Y-126249999D01*
X78650001Y-120750001D01*
X85549999Y-120750001D01*
X85549999Y-126249999D01*
D12*
%TO.P,"POS79","1","VDD"*%
X84550000Y-125100000D03*
D13*
%TO.P,"POS79","2","DOUT"*%
X84550000Y-121900000D03*
%TO.P,"POS79","3","VSS"*%
X79650000Y-121900000D03*
%TO.P,"POS79","4","DIN"*%
X79650000Y-125100000D03*
%TD*%
D10*
%TO.C,"POS78"*%
%TO.CFtp,"LED_WS2812B_PLCC4_5.0x5.0mm_P3.2mm"*%
%TO.CVal,"WS2812-4020_dual"*%
%TO.CLbN,"LED_SMD"*%
%TO.CMnt,SMD*%
%TO.CRot,-90*%
X77400000Y-135500000D03*
D11*
X80149999Y-138949999D02*
X74650001Y-138949999D01*
X74650001Y-132050001D01*
X80149999Y-132050001D01*
X80149999Y-138949999D01*
D12*
%TO.P,"POS78","1","VDD"*%
X79000000Y-133050000D03*
D13*
%TO.P,"POS78","2","DOUT"*%
X75800000Y-133050000D03*
%TO.P,"POS78","3","VSS"*%
X75800000Y-137950000D03*
%TO.P,"POS78","4","DIN"*%
X79000000Y-137950000D03*
%TD*%
D10*
%TO.C,"POS64"*%
%TO.CFtp,"LED_WS2812B_PLCC4_5.0x5.0mm_P3.2mm"*%
%TO.CVal,"WS2812-4020_dual"*%
%TO.CLbN,"LED_SMD"*%
%TO.CMnt,SMD*%
%TO.CRot,0*%
X201082322Y-153800000D03*
D11*
X204532321Y-156549999D02*
X197632323Y-156549999D01*
X197632323Y-151050001D01*
X204532321Y-151050001D01*
X204532321Y-156549999D01*
D12*
%TO.P,"POS64","1","VDD"*%
X198632322Y-152200000D03*
D13*
%TO.P,"POS64","2","DOUT"*%
X198632322Y-155400000D03*
%TO.P,"POS64","3","VSS"*%
X203532322Y-155400000D03*
%TO.P,"POS64","4","DIN"*%
X203532322Y-152200000D03*
%TD*%
D10*
%TO.C,"POS43"*%
%TO.CFtp,"LED_WS2812B_PLCC4_5.0x5.0mm_P3.2mm"*%
%TO.CVal,"WS2812-4020_dual"*%
%TO.CLbN,"LED_SMD"*%
%TO.CMnt,SMD*%
%TO.CRot,90*%
X137600000Y-59600000D03*
D11*
X140349999Y-63049999D02*
X134850001Y-63049999D01*
X134850001Y-56150001D01*
X140349999Y-56150001D01*
X140349999Y-63049999D01*
D12*
%TO.P,"POS43","1","VDD"*%
X136000000Y-62050000D03*
D13*
%TO.P,"POS43","2","DOUT"*%
X139200000Y-62050000D03*
%TO.P,"POS43","3","VSS"*%
X139200000Y-57150000D03*
%TO.P,"POS43","4","DIN"*%
X136000000Y-57150000D03*
%TD*%
D10*
%TO.C,"POS21"*%
%TO.CFtp,"LED_WS2812B_PLCC4_5.0x5.0mm_P3.2mm"*%
%TO.CVal,"WS2812-4020_dual"*%
%TO.CLbN,"LED_SMD"*%
%TO.CMnt,SMD*%
%TO.CRot,0*%
X143850004Y-48400005D03*
D11*
X147300003Y-51150004D02*
X140400005Y-51150004D01*
X140400005Y-45650006D01*
X147300003Y-45650006D01*
X147300003Y-51150004D01*
D12*
%TO.P,"POS21","1","VDD"*%
X141400004Y-46800005D03*
D13*
%TO.P,"POS21","2","DOUT"*%
X141400004Y-50000005D03*
%TO.P,"POS21","3","VSS"*%
X146300004Y-50000005D03*
%TO.P,"POS21","4","DIN"*%
X146300004Y-46800005D03*
%TD*%
D10*
%TO.C,"POS39"*%
%TO.CFtp,"LED_WS2812B_PLCC4_5.0x5.0mm_P3.2mm"*%
%TO.CVal,"WS2812-4020_dual"*%
%TO.CLbN,"LED_SMD"*%
%TO.CMnt,SMD*%
%TO.CRot,180*%
X97500000Y-23800000D03*
D11*
X100949999Y-26549999D02*
X94050001Y-26549999D01*
X94050001Y-21050001D01*
X100949999Y-21050001D01*
X100949999Y-26549999D01*
D12*
%TO.P,"POS39","1","VDD"*%
X99950000Y-25400000D03*
D13*
%TO.P,"POS39","2","DOUT"*%
X99950000Y-22200000D03*
%TO.P,"POS39","3","VSS"*%
X95050000Y-22200000D03*
%TO.P,"POS39","4","DIN"*%
X95050000Y-25400000D03*
%TD*%
D10*
%TO.C,"FIN1"*%
%TO.CFtp,"LED_WS2812B_PLCC4_5.0x5.0mm_P3.2mm"*%
%TO.CVal,"WS2812-4020_dual"*%
%TO.CLbN,"LED_SMD"*%
%TO.CMnt,SMD*%
%TO.CRot,-90*%
X118700000Y-64500000D03*
D11*
X121449999Y-67949999D02*
X115950001Y-67949999D01*
X115950001Y-61050001D01*
X121449999Y-61050001D01*
X121449999Y-67949999D01*
D12*
%TO.P,"FIN1","1","VDD"*%
X120300000Y-62050000D03*
D13*
%TO.P,"FIN1","2","DOUT"*%
X117100000Y-62050000D03*
%TO.P,"FIN1","3","VSS"*%
X117100000Y-66950000D03*
%TO.P,"FIN1","4","DIN"*%
X120300000Y-66950000D03*
%TD*%
D10*
%TO.C,"FIN4"*%
%TO.CFtp,"LED_WS2812B_PLCC4_5.0x5.0mm_P3.2mm"*%
%TO.CVal,"WS2812-4020_dual"*%
%TO.CLbN,"LED_SMD"*%
%TO.CMnt,SMD*%
%TO.CRot,-90*%
X95900000Y-42000000D03*
D11*
X98649999Y-45449999D02*
X93150001Y-45449999D01*
X93150001Y-38550001D01*
X98649999Y-38550001D01*
X98649999Y-45449999D01*
D12*
%TO.P,"FIN4","1","VDD"*%
X97500000Y-39550000D03*
D13*
%TO.P,"FIN4","2","DOUT"*%
X94300000Y-39550000D03*
%TO.P,"FIN4","3","VSS"*%
X94300000Y-44450000D03*
%TO.P,"FIN4","4","DIN"*%
X97500000Y-44450000D03*
%TD*%
D10*
%TO.C,"POS62"*%
%TO.CFtp,"LED_WS2812B_PLCC4_5.0x5.0mm_P3.2mm"*%
%TO.CVal,"WS2812-4020_dual"*%
%TO.CLbN,"LED_SMD"*%
%TO.CMnt,SMD*%
%TO.CRot,90*%
X209600000Y-135200000D03*
D11*
X212349999Y-138649999D02*
X206850001Y-138649999D01*
X206850001Y-131750001D01*
X212349999Y-131750001D01*
X212349999Y-138649999D01*
D12*
%TO.P,"POS62","1","VDD"*%
X208000000Y-137650000D03*
D13*
%TO.P,"POS62","2","DOUT"*%
X211200000Y-137650000D03*
%TO.P,"POS62","3","VSS"*%
X211200000Y-132750000D03*
%TO.P,"POS62","4","DIN"*%
X208000000Y-132750000D03*
%TD*%
D10*
%TO.C,"POS73"*%
%TO.CFtp,"LED_WS2812B_PLCC4_5.0x5.0mm_P3.2mm"*%
%TO.CVal,"WS2812-4020_dual"*%
%TO.CLbN,"LED_SMD"*%
%TO.CMnt,SMD*%
%TO.CRot,90*%
X120700000Y-141800000D03*
D11*
X123449999Y-145249999D02*
X117950001Y-145249999D01*
X117950001Y-138350001D01*
X123449999Y-138350001D01*
X123449999Y-145249999D01*
D12*
%TO.P,"POS73","1","VDD"*%
X119100000Y-144250000D03*
D13*
%TO.P,"POS73","2","DOUT"*%
X122300000Y-144250000D03*
%TO.P,"POS73","3","VSS"*%
X122300000Y-139350000D03*
%TO.P,"POS73","4","DIN"*%
X119100000Y-139350000D03*
%TD*%
D10*
%TO.C,"POS58"*%
%TO.CFtp,"LED_WS2812B_PLCC4_5.0x5.0mm_P3.2mm"*%
%TO.CVal,"WS2812-4020_dual"*%
%TO.CLbN,"LED_SMD"*%
%TO.CMnt,SMD*%
%TO.CRot,180*%
X173600000Y-95500000D03*
D11*
X177049999Y-98249999D02*
X170150001Y-98249999D01*
X170150001Y-92750001D01*
X177049999Y-92750001D01*
X177049999Y-98249999D01*
D12*
%TO.P,"POS58","1","VDD"*%
X176050000Y-97100000D03*
D13*
%TO.P,"POS58","2","DOUT"*%
X176050000Y-93900000D03*
%TO.P,"POS58","3","VSS"*%
X171150000Y-93900000D03*
%TO.P,"POS58","4","DIN"*%
X171150000Y-97100000D03*
%TD*%
D10*
%TO.C,"POS71"*%
%TO.CFtp,"LED_WS2812B_PLCC4_5.0x5.0mm_P3.2mm"*%
%TO.CVal,"WS2812-4020_dual"*%
%TO.CLbN,"LED_SMD"*%
%TO.CMnt,SMD*%
%TO.CRot,90*%
X137600000Y-118900000D03*
D11*
X140349999Y-122349999D02*
X134850001Y-122349999D01*
X134850001Y-115450001D01*
X140349999Y-115450001D01*
X140349999Y-122349999D01*
D12*
%TO.P,"POS71","1","VDD"*%
X136000000Y-121350000D03*
D13*
%TO.P,"POS71","2","DOUT"*%
X139200000Y-121350000D03*
%TO.P,"POS71","3","VSS"*%
X139200000Y-116450000D03*
%TO.P,"POS71","4","DIN"*%
X136000000Y-116450000D03*
%TD*%
D10*
%TO.C,"POS42"*%
%TO.CFtp,"LED_WS2812B_PLCC4_5.0x5.0mm_P3.2mm"*%
%TO.CVal,"WS2812-4020_dual"*%
%TO.CLbN,"LED_SMD"*%
%TO.CMnt,SMD*%
%TO.CRot,90*%
X130500000Y-48300000D03*
D11*
X133249999Y-51749999D02*
X127750001Y-51749999D01*
X127750001Y-44850001D01*
X133249999Y-44850001D01*
X133249999Y-51749999D01*
D12*
%TO.P,"POS42","1","VDD"*%
X128900000Y-50750000D03*
D13*
%TO.P,"POS42","2","DOUT"*%
X132100000Y-50750000D03*
%TO.P,"POS42","3","VSS"*%
X132100000Y-45850000D03*
%TO.P,"POS42","4","DIN"*%
X128900000Y-45850000D03*
%TD*%
D10*
%TO.C,"POS66"*%
%TO.CFtp,"LED_WS2812B_PLCC4_5.0x5.0mm_P3.2mm"*%
%TO.CVal,"WS2812-4020_dual"*%
%TO.CLbN,"LED_SMD"*%
%TO.CMnt,SMD*%
%TO.CRot,-90*%
X178200000Y-150500000D03*
D11*
X180949999Y-153949999D02*
X175450001Y-153949999D01*
X175450001Y-147050001D01*
X180949999Y-147050001D01*
X180949999Y-153949999D01*
D12*
%TO.P,"POS66","1","VDD"*%
X179800000Y-148050000D03*
D13*
%TO.P,"POS66","2","DOUT"*%
X176600000Y-148050000D03*
%TO.P,"POS66","3","VSS"*%
X176600000Y-152950000D03*
%TO.P,"POS66","4","DIN"*%
X179800000Y-152950000D03*
%TD*%
D10*
%TO.C,"POS83"*%
%TO.CFtp,"LED_WS2812B_PLCC4_5.0x5.0mm_P3.2mm"*%
%TO.CVal,"WS2812-4020_dual"*%
%TO.CLbN,"LED_SMD"*%
%TO.CMnt,SMD*%
%TO.CRot,-90*%
X124900000Y-89600000D03*
D11*
X127649999Y-93049999D02*
X122150001Y-93049999D01*
X122150001Y-86150001D01*
X127649999Y-86150001D01*
X127649999Y-93049999D01*
D12*
%TO.P,"POS83","1","VDD"*%
X126500000Y-87150000D03*
D13*
%TO.P,"POS83","2","DOUT"*%
X123300000Y-87150000D03*
%TO.P,"POS83","3","VSS"*%
X123300000Y-92050000D03*
%TO.P,"POS83","4","DIN"*%
X126500000Y-92050000D03*
%TD*%
D10*
%TO.C,"POS35"*%
%TO.CFtp,"LED_WS2812B_PLCC4_5.0x5.0mm_P3.2mm"*%
%TO.CVal,"WS2812-4020_dual"*%
%TO.CLbN,"LED_SMD"*%
%TO.CMnt,SMD*%
%TO.CRot,-90*%
X82100000Y-55200000D03*
D11*
X84849999Y-58649999D02*
X79350001Y-58649999D01*
X79350001Y-51750001D01*
X84849999Y-51750001D01*
X84849999Y-58649999D01*
D12*
%TO.P,"POS35","1","VDD"*%
X83700000Y-52750000D03*
D13*
%TO.P,"POS35","2","DOUT"*%
X80500000Y-52750000D03*
%TO.P,"POS35","3","VSS"*%
X80500000Y-57650000D03*
%TO.P,"POS35","4","DIN"*%
X83700000Y-57650000D03*
%TD*%
D10*
%TO.C,"POS68"*%
%TO.CFtp,"LED_WS2812B_PLCC4_5.0x5.0mm_P3.2mm"*%
%TO.CVal,"WS2812-4020_dual"*%
%TO.CLbN,"LED_SMD"*%
%TO.CMnt,SMD*%
%TO.CRot,-90*%
X157200000Y-130400000D03*
D11*
X159949999Y-133849999D02*
X154450001Y-133849999D01*
X154450001Y-126950001D01*
X159949999Y-126950001D01*
X159949999Y-133849999D01*
D12*
%TO.P,"POS68","1","VDD"*%
X158800000Y-127950000D03*
D13*
%TO.P,"POS68","2","DOUT"*%
X155600000Y-127950000D03*
%TO.P,"POS68","3","VSS"*%
X155600000Y-132850000D03*
%TO.P,"POS68","4","DIN"*%
X158800000Y-132850000D03*
%TD*%
D10*
%TO.C,"POS51"*%
%TO.CFtp,"LED_WS2812B_PLCC4_5.0x5.0mm_P3.2mm"*%
%TO.CVal,"WS2812-4020_dual"*%
%TO.CLbN,"LED_SMD"*%
%TO.CMnt,SMD*%
%TO.CRot,90*%
X208600000Y-32464644D03*
D11*
X211349999Y-35914643D02*
X205850001Y-35914643D01*
X205850001Y-29014645D01*
X211349999Y-29014645D01*
X211349999Y-35914643D01*
D12*
%TO.P,"POS51","1","VDD"*%
X207000000Y-34914644D03*
D13*
%TO.P,"POS51","2","DOUT"*%
X210200000Y-34914644D03*
%TO.P,"POS51","3","VSS"*%
X210200000Y-30014644D03*
%TO.P,"POS51","4","DIN"*%
X207000000Y-30014644D03*
%TD*%
D10*
%TO.C,"FIN10"*%
%TO.CFtp,"LED_WS2812B_PLCC4_5.0x5.0mm_P3.2mm"*%
%TO.CVal,"WS2812-4020_dual"*%
%TO.CLbN,"LED_SMD"*%
%TO.CMnt,SMD*%
%TO.CRot,90*%
X176600000Y-122000000D03*
D11*
X179349999Y-125449999D02*
X173850001Y-125449999D01*
X173850001Y-118550001D01*
X179349999Y-118550001D01*
X179349999Y-125449999D01*
D12*
%TO.P,"FIN10","1","VDD"*%
X175000000Y-124450000D03*
D13*
%TO.P,"FIN10","2","DOUT"*%
X178200000Y-124450000D03*
%TO.P,"FIN10","3","VSS"*%
X178200000Y-119550000D03*
%TO.P,"FIN10","4","DIN"*%
X175000000Y-119550000D03*
%TD*%
D10*
%TO.C,"POS38"*%
%TO.CFtp,"LED_WS2812B_PLCC4_5.0x5.0mm_P3.2mm"*%
%TO.CVal,"WS2812-4020_dual"*%
%TO.CLbN,"LED_SMD"*%
%TO.CMnt,SMD*%
%TO.CRot,180*%
X86400000Y-25000000D03*
D11*
X89849999Y-27749999D02*
X82950001Y-27749999D01*
X82950001Y-22250001D01*
X89849999Y-22250001D01*
X89849999Y-27749999D01*
D12*
%TO.P,"POS38","1","VDD"*%
X88850000Y-26600000D03*
D13*
%TO.P,"POS38","2","DOUT"*%
X88850000Y-23400000D03*
%TO.P,"POS38","3","VSS"*%
X83950000Y-23400000D03*
%TO.P,"POS38","4","DIN"*%
X83950000Y-26600000D03*
%TD*%
D10*
%TO.C,"POS34"*%
%TO.CFtp,"LED_WS2812B_PLCC4_5.0x5.0mm_P3.2mm"*%
%TO.CVal,"WS2812-4020_dual"*%
%TO.CLbN,"LED_SMD"*%
%TO.CMnt,SMD*%
%TO.CRot,-90*%
X90600000Y-66200000D03*
D11*
X93349999Y-69649999D02*
X87850001Y-69649999D01*
X87850001Y-62750001D01*
X93349999Y-62750001D01*
X93349999Y-69649999D01*
D12*
%TO.P,"POS34","1","VDD"*%
X92200000Y-63750000D03*
D13*
%TO.P,"POS34","2","DOUT"*%
X89000000Y-63750000D03*
%TO.P,"POS34","3","VSS"*%
X89000000Y-68650000D03*
%TO.P,"POS34","4","DIN"*%
X92200000Y-68650000D03*
%TD*%
D10*
%TO.C,"POS60"*%
%TO.CFtp,"LED_WS2812B_PLCC4_5.0x5.0mm_P3.2mm"*%
%TO.CVal,"WS2812-4020_dual"*%
%TO.CLbN,"LED_SMD"*%
%TO.CMnt,SMD*%
%TO.CRot,90*%
X196499988Y-112500000D03*
D11*
X199249987Y-115949999D02*
X193749989Y-115949999D01*
X193749989Y-109050001D01*
X199249987Y-109050001D01*
X199249987Y-115949999D01*
D12*
%TO.P,"POS60","1","VDD"*%
X194899988Y-114950000D03*
D13*
%TO.P,"POS60","2","DOUT"*%
X198099988Y-114950000D03*
%TO.P,"POS60","3","VSS"*%
X198099988Y-110050000D03*
%TO.P,"POS60","4","DIN"*%
X194899988Y-110050000D03*
%TD*%
D10*
%TO.C,"POS81"*%
%TO.CFtp,"LED_WS2812B_PLCC4_5.0x5.0mm_P3.2mm"*%
%TO.CVal,"WS2812-4020_dual"*%
%TO.CLbN,"LED_SMD"*%
%TO.CMnt,SMD*%
%TO.CRot,180*%
X102000000Y-102700000D03*
D11*
X105449999Y-105449999D02*
X98550001Y-105449999D01*
X98550001Y-99950001D01*
X105449999Y-99950001D01*
X105449999Y-105449999D01*
D12*
%TO.P,"POS81","1","VDD"*%
X104450000Y-104300000D03*
D13*
%TO.P,"POS81","2","DOUT"*%
X104450000Y-101100000D03*
%TO.P,"POS81","3","VSS"*%
X99550000Y-101100000D03*
%TO.P,"POS81","4","DIN"*%
X99550000Y-104300000D03*
%TD*%
D10*
%TO.C,"POS65"*%
%TO.CFtp,"LED_WS2812B_PLCC4_5.0x5.0mm_P3.2mm"*%
%TO.CVal,"WS2812-4020_dual"*%
%TO.CLbN,"LED_SMD"*%
%TO.CMnt,SMD*%
%TO.CRot,0*%
X190200000Y-155000000D03*
D11*
X193649999Y-157749999D02*
X186750001Y-157749999D01*
X186750001Y-152250001D01*
X193649999Y-152250001D01*
X193649999Y-157749999D01*
D12*
%TO.P,"POS65","1","VDD"*%
X187750000Y-153400000D03*
D13*
%TO.P,"POS65","2","DOUT"*%
X187750000Y-156600000D03*
%TO.P,"POS65","3","VSS"*%
X192650000Y-156600000D03*
%TO.P,"POS65","4","DIN"*%
X192650000Y-153400000D03*
%TD*%
D10*
%TO.C,"R4"*%
%TO.CFtp,"R_0603_1608Metric"*%
%TO.CVal,"470R"*%
%TO.CLbN,"Resistor_SMD"*%
%TO.CMnt,SMD*%
%TO.CRot,180*%
X121300000Y-78400000D03*
D11*
X122779999Y-79129999D02*
X119820001Y-79129999D01*
X119820001Y-77670001D01*
X122779999Y-77670001D01*
X122779999Y-79129999D01*
D12*
%TO.P,"R4","1"*%
X122125000Y-78400000D03*
D13*
%TO.P,"R4","2"*%
X120475000Y-78400000D03*
%TD*%
D10*
%TO.C,"LED6"*%
%TO.CFtp,"WS2812-mini"*%
%TO.CVal,"WS2812-4020_single"*%
%TO.CLbN,"FieldBoard_footprint"*%
%TO.CMnt,TH*%
%TO.CRot,-90*%
X143799992Y-95608839D03*
D14*
X145239992Y-93218839D02*
X142359992Y-93218839D01*
X142359992Y-97998839D01*
X145239992Y-97998839D01*
X145239992Y-93218839D01*
D12*
%TO.P,"LED6","1","VDD"*%
X144689992Y-93968839D03*
D13*
%TO.P,"LED6","2","DOUT"*%
X142909992Y-93968839D03*
%TO.P,"LED6","3","VSS"*%
X142909992Y-97248839D03*
%TO.P,"LED6","4","DIN"*%
X144689992Y-97248839D03*
%TD*%
D10*
%TO.C,"POS36"*%
%TO.CFtp,"LED_WS2812B_PLCC4_5.0x5.0mm_P3.2mm"*%
%TO.CVal,"WS2812-4020_dual"*%
%TO.CLbN,"LED_SMD"*%
%TO.CMnt,SMD*%
%TO.CRot,-90*%
X77500000Y-43200000D03*
D11*
X80249999Y-46649999D02*
X74750001Y-46649999D01*
X74750001Y-39750001D01*
X80249999Y-39750001D01*
X80249999Y-46649999D01*
D12*
%TO.P,"POS36","1","VDD"*%
X79100000Y-40750000D03*
D13*
%TO.P,"POS36","2","DOUT"*%
X75900000Y-40750000D03*
%TO.P,"POS36","3","VSS"*%
X75900000Y-45650000D03*
%TO.P,"POS36","4","DIN"*%
X79100000Y-45650000D03*
%TD*%
D10*
%TO.C,"FIN15"*%
%TO.CFtp,"LED_WS2812B_PLCC4_5.0x5.0mm_P3.2mm"*%
%TO.CVal,"WS2812-4020_dual"*%
%TO.CLbN,"LED_SMD"*%
%TO.CMnt,SMD*%
%TO.CRot,0*%
X103600000Y-129500000D03*
D11*
X107049999Y-132249999D02*
X100150001Y-132249999D01*
X100150001Y-126750001D01*
X107049999Y-126750001D01*
X107049999Y-132249999D01*
D12*
%TO.P,"FIN15","1","VDD"*%
X101150000Y-127900000D03*
D13*
%TO.P,"FIN15","2","DOUT"*%
X101150000Y-131100000D03*
%TO.P,"FIN15","3","VSS"*%
X106050000Y-131100000D03*
%TO.P,"FIN15","4","DIN"*%
X106050000Y-127900000D03*
%TD*%
D10*
%TO.C,"POS25"*%
%TO.CFtp,"LED_WS2812B_PLCC4_5.0x5.0mm_P3.2mm"*%
%TO.CVal,"WS2812-4020_dual"*%
%TO.CLbN,"LED_SMD"*%
%TO.CMnt,SMD*%
%TO.CRot,90*%
X185182332Y-89499999D03*
D11*
X187932331Y-92949998D02*
X182432333Y-92949998D01*
X182432333Y-86050000D01*
X187932331Y-86050000D01*
X187932331Y-92949998D01*
D12*
%TO.P,"POS25","1","VDD"*%
X183582332Y-91949999D03*
D13*
%TO.P,"POS25","2","DOUT"*%
X186782332Y-91949999D03*
%TO.P,"POS25","3","VSS"*%
X186782332Y-87049999D03*
%TO.P,"POS25","4","DIN"*%
X183582332Y-87049999D03*
%TD*%
D10*
%TO.C,"POS37"*%
%TO.CFtp,"LED_WS2812B_PLCC4_5.0x5.0mm_P3.2mm"*%
%TO.CVal,"WS2812-4020_dual"*%
%TO.CLbN,"LED_SMD"*%
%TO.CMnt,SMD*%
%TO.CRot,-90*%
X78800000Y-32500000D03*
D11*
X81549999Y-35949999D02*
X76050001Y-35949999D01*
X76050001Y-29050001D01*
X81549999Y-29050001D01*
X81549999Y-35949999D01*
D12*
%TO.P,"POS37","1","VDD"*%
X80400000Y-30050000D03*
D13*
%TO.P,"POS37","2","DOUT"*%
X77200000Y-30050000D03*
%TO.P,"POS37","3","VSS"*%
X77200000Y-34950000D03*
%TO.P,"POS37","4","DIN"*%
X80400000Y-34950000D03*
%TD*%
D10*
%TO.C,"POS75"*%
%TO.CFtp,"LED_WS2812B_PLCC4_5.0x5.0mm_P3.2mm"*%
%TO.CVal,"WS2812-4020_dual"*%
%TO.CLbN,"LED_SMD"*%
%TO.CMnt,SMD*%
%TO.CRot,0*%
X97500000Y-155000000D03*
D11*
X100949999Y-157749999D02*
X94050001Y-157749999D01*
X94050001Y-152250001D01*
X100949999Y-152250001D01*
X100949999Y-157749999D01*
D12*
%TO.P,"POS75","1","VDD"*%
X95050000Y-153400000D03*
D13*
%TO.P,"POS75","2","DOUT"*%
X95050000Y-156600000D03*
%TO.P,"POS75","3","VSS"*%
X99950000Y-156600000D03*
%TO.P,"POS75","4","DIN"*%
X99950000Y-153400000D03*
%TD*%
D10*
%TO.C,"POS44"*%
%TO.CFtp,"LED_WS2812B_PLCC4_5.0x5.0mm_P3.2mm"*%
%TO.CVal,"WS2812-4020_dual"*%
%TO.CLbN,"LED_SMD"*%
%TO.CMnt,SMD*%
%TO.CRot,180*%
X143800000Y-70800000D03*
D11*
X147249999Y-73549999D02*
X140350001Y-73549999D01*
X140350001Y-68050001D01*
X147249999Y-68050001D01*
X147249999Y-73549999D01*
D12*
%TO.P,"POS44","1","VDD"*%
X146250000Y-72400000D03*
D13*
%TO.P,"POS44","2","DOUT"*%
X146250000Y-69200000D03*
%TO.P,"POS44","3","VSS"*%
X141350000Y-69200000D03*
%TO.P,"POS44","4","DIN"*%
X141350000Y-72400000D03*
%TD*%
D10*
%TO.C,"FIN13"*%
%TO.CFtp,"LED_WS2812B_PLCC4_5.0x5.0mm_P3.2mm"*%
%TO.CVal,"WS2812-4020_dual"*%
%TO.CLbN,"LED_SMD"*%
%TO.CMnt,SMD*%
%TO.CRot,0*%
X118600000Y-114500000D03*
D11*
X122049999Y-117249999D02*
X115150001Y-117249999D01*
X115150001Y-111750001D01*
X122049999Y-111750001D01*
X122049999Y-117249999D01*
D12*
%TO.P,"FIN13","1","VDD"*%
X116150000Y-112900000D03*
D13*
%TO.P,"FIN13","2","DOUT"*%
X116150000Y-116100000D03*
%TO.P,"FIN13","3","VSS"*%
X121050000Y-116100000D03*
%TO.P,"FIN13","4","DIN"*%
X121050000Y-112900000D03*
%TD*%
D10*
%TO.C,"POS59"*%
%TO.CFtp,"LED_WS2812B_PLCC4_5.0x5.0mm_P3.2mm"*%
%TO.CVal,"WS2812-4020_dual"*%
%TO.CLbN,"LED_SMD"*%
%TO.CMnt,SMD*%
%TO.CRot,90*%
X185150000Y-102700000D03*
D11*
X187899999Y-106149999D02*
X182400001Y-106149999D01*
X182400001Y-99250001D01*
X187899999Y-99250001D01*
X187899999Y-106149999D01*
D12*
%TO.P,"POS59","1","VDD"*%
X183550000Y-105150000D03*
D13*
%TO.P,"POS59","2","DOUT"*%
X186750000Y-105150000D03*
%TO.P,"POS59","3","VSS"*%
X186750000Y-100250000D03*
%TO.P,"POS59","4","DIN"*%
X183550000Y-100250000D03*
%TD*%
D10*
%TO.C,"POS57"*%
%TO.CFtp,"LED_WS2812B_PLCC4_5.0x5.0mm_P3.2mm"*%
%TO.CVal,"WS2812-4020_dual"*%
%TO.CLbN,"LED_SMD"*%
%TO.CMnt,SMD*%
%TO.CRot,90*%
X162700000Y-89500000D03*
D11*
X165449999Y-92949999D02*
X159950001Y-92949999D01*
X159950001Y-86050001D01*
X165449999Y-86050001D01*
X165449999Y-92949999D01*
D12*
%TO.P,"POS57","1","VDD"*%
X161100000Y-91950000D03*
D13*
%TO.P,"POS57","2","DOUT"*%
X164300000Y-91950000D03*
%TO.P,"POS57","3","VSS"*%
X164300000Y-87050000D03*
%TO.P,"POS57","4","DIN"*%
X161100000Y-87050000D03*
%TD*%
D10*
%TO.C,"POS28"*%
%TO.CFtp,"LED_WS2812B_PLCC4_5.0x5.0mm_P3.2mm"*%
%TO.CVal,"WS2812-4020_dual"*%
%TO.CLbN,"LED_SMD"*%
%TO.CMnt,SMD*%
%TO.CRot,0*%
X196499988Y-100900001D03*
D11*
X199949987Y-103650000D02*
X193049989Y-103650000D01*
X193049989Y-98150002D01*
X199949987Y-98150002D01*
X199949987Y-103650000D01*
D12*
%TO.P,"POS28","1","VDD"*%
X194049988Y-99300001D03*
D13*
%TO.P,"POS28","2","DOUT"*%
X194049988Y-102500001D03*
%TO.P,"POS28","3","VSS"*%
X198949988Y-102500001D03*
%TO.P,"POS28","4","DIN"*%
X198949988Y-99300001D03*
%TD*%
D10*
%TO.C,"R1"*%
%TO.CFtp,"R_0603_1608Metric"*%
%TO.CVal,"470R"*%
%TO.CLbN,"Resistor_SMD"*%
%TO.CMnt,SMD*%
%TO.CRot,180*%
X121900000Y-70700000D03*
D11*
X123379999Y-71429999D02*
X120420001Y-71429999D01*
X120420001Y-69970001D01*
X123379999Y-69970001D01*
X123379999Y-71429999D01*
D12*
%TO.P,"R1","1"*%
X122725000Y-70700000D03*
D13*
%TO.P,"R1","2"*%
X121075000Y-70700000D03*
%TD*%
D10*
%TO.C,"POS82"*%
%TO.CFtp,"LED_WS2812B_PLCC4_5.0x5.0mm_P3.2mm"*%
%TO.CVal,"WS2812-4020_dual"*%
%TO.CLbN,"LED_SMD"*%
%TO.CMnt,SMD*%
%TO.CRot,180*%
X113800000Y-95500000D03*
D11*
X117249999Y-98249999D02*
X110350001Y-98249999D01*
X110350001Y-92750001D01*
X117249999Y-92750001D01*
X117249999Y-98249999D01*
D12*
%TO.P,"POS82","1","VDD"*%
X116250000Y-97100000D03*
D13*
%TO.P,"POS82","2","DOUT"*%
X116250000Y-93900000D03*
%TO.P,"POS82","3","VSS"*%
X111350000Y-93900000D03*
%TO.P,"POS82","4","DIN"*%
X111350000Y-97100000D03*
%TD*%
D10*
%TO.C,"FIN6"*%
%TO.CFtp,"LED_WS2812B_PLCC4_5.0x5.0mm_P3.2mm"*%
%TO.CVal,"WS2812-4020_dual"*%
%TO.CLbN,"LED_SMD"*%
%TO.CMnt,SMD*%
%TO.CRot,180*%
X176600000Y-57000000D03*
D11*
X180049999Y-59749999D02*
X173150001Y-59749999D01*
X173150001Y-54250001D01*
X180049999Y-54250001D01*
X180049999Y-59749999D01*
D12*
%TO.P,"FIN6","1","VDD"*%
X179050000Y-58600000D03*
D13*
%TO.P,"FIN6","2","DOUT"*%
X179050000Y-55400000D03*
%TO.P,"FIN6","3","VSS"*%
X174150000Y-55400000D03*
%TO.P,"FIN6","4","DIN"*%
X174150000Y-58600000D03*
%TD*%
D10*
%TO.C,"LED5"*%
%TO.CFtp,"WS2812-mini"*%
%TO.CVal,"WS2812-4020_single"*%
%TO.CLbN,"FieldBoard_footprint"*%
%TO.CMnt,TH*%
%TO.CRot,0*%
X149799992Y-95608851D03*
D14*
X147409992Y-94168851D02*
X147409992Y-97048851D01*
X152189992Y-97048851D01*
X152189992Y-94168851D01*
X147409992Y-94168851D01*
D12*
%TO.P,"LED5","1","VDD"*%
X148159992Y-94718851D03*
D13*
%TO.P,"LED5","2","DOUT"*%
X148159992Y-96498851D03*
%TO.P,"LED5","3","VSS"*%
X151439992Y-96498851D03*
%TO.P,"LED5","4","DIN"*%
X151439992Y-94718851D03*
%TD*%
D10*
%TO.C,"FIN9"*%
%TO.CFtp,"LED_WS2812B_PLCC4_5.0x5.0mm_P3.2mm"*%
%TO.CVal,"WS2812-4020_dual"*%
%TO.CLbN,"LED_SMD"*%
%TO.CMnt,SMD*%
%TO.CRot,90*%
X169000000Y-114500000D03*
D11*
X171749999Y-117949999D02*
X166250001Y-117949999D01*
X166250001Y-111050001D01*
X171749999Y-111050001D01*
X171749999Y-117949999D01*
D12*
%TO.P,"FIN9","1","VDD"*%
X167400000Y-116950000D03*
D13*
%TO.P,"FIN9","2","DOUT"*%
X170600000Y-116950000D03*
%TO.P,"FIN9","3","VSS"*%
X170600000Y-112050000D03*
%TO.P,"FIN9","4","DIN"*%
X167400000Y-112050000D03*
%TD*%
D10*
%TO.C,"LED2"*%
%TO.CFtp,"WS2812-mini"*%
%TO.CVal,"WS2812-4020_single"*%
%TO.CLbN,"FieldBoard_footprint"*%
%TO.CMnt,TH*%
%TO.CRot,90*%
X143799992Y-83608850D03*
D14*
X142359992Y-85998850D02*
X145239992Y-85998850D01*
X145239992Y-81218850D01*
X142359992Y-81218850D01*
X142359992Y-85998850D01*
D12*
%TO.P,"LED2","1","VDD"*%
X142909992Y-85248850D03*
D13*
%TO.P,"LED2","2","DOUT"*%
X144689992Y-85248850D03*
%TO.P,"LED2","3","VSS"*%
X144689992Y-81968850D03*
%TO.P,"LED2","4","DIN"*%
X142909992Y-81968850D03*
%TD*%
D10*
%TO.C,"POS67"*%
%TO.CFtp,"LED_WS2812B_PLCC4_5.0x5.0mm_P3.2mm"*%
%TO.CVal,"WS2812-4020_dual"*%
%TO.CLbN,"LED_SMD"*%
%TO.CMnt,SMD*%
%TO.CRot,-90*%
X166900000Y-141700000D03*
D11*
X169649999Y-145149999D02*
X164150001Y-145149999D01*
X164150001Y-138250001D01*
X169649999Y-138250001D01*
X169649999Y-145149999D01*
D12*
%TO.P,"POS67","1","VDD"*%
X168500000Y-139250000D03*
D13*
%TO.P,"POS67","2","DOUT"*%
X165300000Y-139250000D03*
%TO.P,"POS67","3","VSS"*%
X165300000Y-144150000D03*
%TO.P,"POS67","4","DIN"*%
X168500000Y-144150000D03*
%TD*%
D10*
%TO.C,"POS22"*%
%TO.CFtp,"LED_WS2812B_PLCC4_5.0x5.0mm_P3.2mm"*%
%TO.CVal,"WS2812-4020_dual"*%
%TO.CLbN,"LED_SMD"*%
%TO.CMnt,SMD*%
%TO.CRot,-90*%
X132599989Y-37100000D03*
D11*
X135349988Y-40549999D02*
X129849990Y-40549999D01*
X129849990Y-33650001D01*
X135349988Y-33650001D01*
X135349988Y-40549999D01*
D12*
%TO.P,"POS22","1","VDD"*%
X134199989Y-34650000D03*
D13*
%TO.P,"POS22","2","DOUT"*%
X130999989Y-34650000D03*
%TO.P,"POS22","3","VSS"*%
X130999989Y-39550000D03*
%TO.P,"POS22","4","DIN"*%
X134199989Y-39550000D03*
%TD*%
D10*
%TO.C,"POS74"*%
%TO.CFtp,"LED_WS2812B_PLCC4_5.0x5.0mm_P3.2mm"*%
%TO.CVal,"WS2812-4020_dual"*%
%TO.CLbN,"LED_SMD"*%
%TO.CMnt,SMD*%
%TO.CRot,0*%
X109600000Y-150500000D03*
D11*
X113049999Y-153249999D02*
X106150001Y-153249999D01*
X106150001Y-147750001D01*
X113049999Y-147750001D01*
X113049999Y-153249999D01*
D12*
%TO.P,"POS74","1","VDD"*%
X107150000Y-148900000D03*
D13*
%TO.P,"POS74","2","DOUT"*%
X107150000Y-152100000D03*
%TO.P,"POS74","3","VSS"*%
X112050000Y-152100000D03*
%TO.P,"POS74","4","DIN"*%
X112050000Y-148900000D03*
%TD*%
D10*
%TO.C,"LED4"*%
%TO.CFtp,"WS2812-mini"*%
%TO.CVal,"WS2812-4020_single"*%
%TO.CLbN,"FieldBoard_footprint"*%
%TO.CMnt,TH*%
%TO.CRot,0*%
X149799992Y-89558851D03*
D14*
X147409992Y-88118851D02*
X147409992Y-90998851D01*
X152189992Y-90998851D01*
X152189992Y-88118851D01*
X147409992Y-88118851D01*
D12*
%TO.P,"LED4","1","VDD"*%
X148159992Y-88668851D03*
D13*
%TO.P,"LED4","2","DOUT"*%
X148159992Y-90448851D03*
%TO.P,"LED4","3","VSS"*%
X151439992Y-90448851D03*
%TO.P,"LED4","4","DIN"*%
X151439992Y-88668851D03*
%TD*%
D10*
%TO.C,"POS49"*%
%TO.CFtp,"LED_WS2812B_PLCC4_5.0x5.0mm_P3.2mm"*%
%TO.CVal,"WS2812-4020_dual"*%
%TO.CLbN,"LED_SMD"*%
%TO.CMnt,SMD*%
%TO.CRot,180*%
X190100000Y-23800000D03*
D11*
X193549999Y-26549999D02*
X186650001Y-26549999D01*
X186650001Y-21050001D01*
X193549999Y-21050001D01*
X193549999Y-26549999D01*
D12*
%TO.P,"POS49","1","VDD"*%
X192550000Y-25400000D03*
D13*
%TO.P,"POS49","2","DOUT"*%
X192550000Y-22200000D03*
%TO.P,"POS49","3","VSS"*%
X187650000Y-22200000D03*
%TO.P,"POS49","4","DIN"*%
X187650000Y-25400000D03*
%TD*%
M02*
