%TF.GenerationSoftware,KiCad,Pcbnew,(6.0.4)*%
%TF.CreationDate,2022-04-26T19:16:40+02:00*%
%TF.ProjectId,FieldBoard,4669656c-6442-46f6-9172-642e6b696361,rev?*%
%TF.SameCoordinates,Original*%
%TF.FileFunction,Soldermask,Top*%
%TF.FilePolarity,Negative*%
%FSLAX46Y46*%
G04 Gerber Fmt 4.6, Leading zero omitted, Abs format (unit mm)*
G04 Created by KiCad (PCBNEW (6.0.4)) date 2022-04-26 19:16:40*
%MOMM*%
%LPD*%
G01*
G04 APERTURE LIST*
G04 Aperture macros list*
%AMRoundRect*
0 Rectangle with rounded corners*
0 $1 Rounding radius*
0 $2 $3 $4 $5 $6 $7 $8 $9 X,Y pos of 4 corners*
0 Add a 4 corners polygon primitive as box body*
4,1,4,$2,$3,$4,$5,$6,$7,$8,$9,$2,$3,0*
0 Add four circle primitives for the rounded corners*
1,1,$1+$1,$2,$3*
1,1,$1+$1,$4,$5*
1,1,$1+$1,$6,$7*
1,1,$1+$1,$8,$9*
0 Add four rect primitives between the rounded corners*
20,1,$1+$1,$2,$3,$4,$5,0*
20,1,$1+$1,$4,$5,$6,$7,0*
20,1,$1+$1,$6,$7,$8,$9,0*
20,1,$1+$1,$8,$9,$2,$3,0*%
G04 Aperture macros list end*
%ADD10R,1.500000X1.000000*%
%ADD11R,1.500000X1.100000*%
%ADD12R,1.000000X1.500000*%
%ADD13RoundRect,0.200000X0.200000X0.275000X-0.200000X0.275000X-0.200000X-0.275000X0.200000X-0.275000X0*%
%ADD14RoundRect,0.200000X-0.275000X0.200000X-0.275000X-0.200000X0.275000X-0.200000X0.275000X0.200000X0*%
%ADD15R,1.100000X1.500000*%
%ADD16R,2.600000X2.600000*%
%ADD17C,2.600000*%
%ADD18R,1.700000X1.700000*%
%ADD19O,1.700000X1.700000*%
G04 APERTURE END LIST*
D10*
%TO.C,POS32*%
X129949989Y-140199996D03*
X129949989Y-143399996D03*
X134849989Y-143399996D03*
X134849989Y-140199996D03*
%TD*%
%TO.C,POS26*%
X198949988Y-79699996D03*
X198949988Y-76499996D03*
X194049988Y-76499996D03*
X194049988Y-79699996D03*
%TD*%
D11*
%TO.C,LED1*%
X139439992Y-84490000D03*
X139439992Y-82710000D03*
X136159992Y-82710000D03*
X136159992Y-84490000D03*
%TD*%
D12*
%TO.C,POS20*%
X92199997Y-75749996D03*
X88999997Y-75749996D03*
X88999997Y-80649996D03*
X92199997Y-80649996D03*
%TD*%
%TO.C,POS46*%
X158800000Y-45850000D03*
X155600000Y-45850000D03*
X155600000Y-50750000D03*
X158800000Y-50750000D03*
%TD*%
D10*
%TO.C,POS70*%
X141350000Y-106700000D03*
X141350000Y-109900000D03*
X146250000Y-109900000D03*
X146250000Y-106700000D03*
%TD*%
D12*
%TO.C,FIN2*%
X112600000Y-54550000D03*
X109400000Y-54550000D03*
X109400000Y-59450000D03*
X112600000Y-59450000D03*
%TD*%
D10*
%TO.C,POS55*%
X182750000Y-74400000D03*
X182750000Y-77600000D03*
X187650000Y-77600000D03*
X187650000Y-74400000D03*
%TD*%
D12*
%TO.C,POS19*%
X92199997Y-87100011D03*
X88999997Y-87100011D03*
X88999997Y-92000011D03*
X92199997Y-92000011D03*
%TD*%
%TO.C,POS63*%
X206900000Y-148650000D03*
X210100000Y-148650000D03*
X210100000Y-143750000D03*
X206900000Y-143750000D03*
%TD*%
D13*
%TO.C,R2*%
X113025000Y-74400000D03*
X111375000Y-74400000D03*
%TD*%
D12*
%TO.C,POS76*%
X88053033Y-151417677D03*
X84853033Y-151417677D03*
X84853033Y-156317677D03*
X88053033Y-156317677D03*
%TD*%
%TO.C,POS17*%
X100399999Y-91949999D03*
X103599999Y-91949999D03*
X103599999Y-87049999D03*
X100399999Y-87049999D03*
%TD*%
D10*
%TO.C,POS56*%
X171150000Y-81800000D03*
X171150000Y-85000000D03*
X176050000Y-85000000D03*
X176050000Y-81800000D03*
%TD*%
D12*
%TO.C,POS54*%
X194800000Y-68650000D03*
X198000000Y-68650000D03*
X198000000Y-63750000D03*
X194800000Y-63750000D03*
%TD*%
%TO.C,POS52*%
X208100000Y-45650000D03*
X211300000Y-45650000D03*
X211300000Y-40750000D03*
X208100000Y-40750000D03*
%TD*%
D14*
%TO.C,R3*%
X131400000Y-78075000D03*
X131400000Y-79725000D03*
%TD*%
D10*
%TO.C,POS31*%
X141246969Y-140199996D03*
X141246969Y-143399996D03*
X146146969Y-143399996D03*
X146146969Y-140199996D03*
%TD*%
D12*
%TO.C,POS18*%
X92199997Y-98350000D03*
X88999997Y-98350000D03*
X88999997Y-103250000D03*
X92199997Y-103250000D03*
%TD*%
D10*
%TO.C,POS50*%
X203550000Y-26567677D03*
X203550000Y-23367677D03*
X198650000Y-23367677D03*
X198650000Y-26567677D03*
%TD*%
D15*
%TO.C,LED9*%
X142909992Y-91248838D03*
X144689992Y-91248838D03*
X144689992Y-87968838D03*
X142909992Y-87968838D03*
%TD*%
D10*
%TO.C,POS40*%
X112050000Y-29900000D03*
X112050000Y-26700000D03*
X107150000Y-26700000D03*
X107150000Y-29900000D03*
%TD*%
D12*
%TO.C,POS53*%
X203800000Y-57650000D03*
X207000000Y-57650000D03*
X207000000Y-52750000D03*
X203800000Y-52750000D03*
%TD*%
D11*
%TO.C,LED7*%
X136159992Y-94718851D03*
X136159992Y-96498851D03*
X139439992Y-96498851D03*
X139439992Y-94718851D03*
%TD*%
D12*
%TO.C,POS24*%
X156699995Y-34650000D03*
X153499995Y-34650000D03*
X153499995Y-39550000D03*
X156699995Y-39550000D03*
%TD*%
D10*
%TO.C,POS80*%
X88150000Y-114100000D03*
X88150000Y-110900000D03*
X93050000Y-110900000D03*
X93050000Y-114100000D03*
%TD*%
D12*
%TO.C,POS47*%
X168500000Y-34650000D03*
X165300000Y-34650000D03*
X165300000Y-39550000D03*
X168500000Y-39550000D03*
%TD*%
%TO.C,POS30*%
X153399995Y-144249996D03*
X156599995Y-144249996D03*
X156599995Y-139349996D03*
X153399995Y-139349996D03*
%TD*%
D10*
%TO.C,FIN8*%
X189250000Y-43600000D03*
X189250000Y-40400000D03*
X194150000Y-40400000D03*
X194150000Y-43600000D03*
%TD*%
D12*
%TO.C,FIN12*%
X190100000Y-139450000D03*
X193300000Y-139450000D03*
X193300000Y-134550000D03*
X190100000Y-134550000D03*
%TD*%
D10*
%TO.C,FIN16*%
X93450000Y-135400000D03*
X93450000Y-138600000D03*
X98350000Y-138600000D03*
X98350000Y-135400000D03*
%TD*%
D12*
%TO.C,FIN11*%
X182600000Y-131950000D03*
X185800000Y-131950000D03*
X185800000Y-127050000D03*
X182600000Y-127050000D03*
%TD*%
D10*
%TO.C,POS27*%
X194049988Y-87896976D03*
X194049988Y-91096976D03*
X198949988Y-91096976D03*
X198949988Y-87896976D03*
%TD*%
D12*
%TO.C,POS77*%
X80400000Y-143817677D03*
X77200000Y-143817677D03*
X77200000Y-148717677D03*
X80400000Y-148717677D03*
%TD*%
D10*
%TO.C,FIN7*%
X181750000Y-51100000D03*
X181750000Y-47900000D03*
X186650000Y-47900000D03*
X186650000Y-51100000D03*
%TD*%
D12*
%TO.C,POS23*%
X142250004Y-39550000D03*
X145450004Y-39550000D03*
X145450004Y-34650000D03*
X142250004Y-34650000D03*
%TD*%
%TO.C,POS45*%
X151600000Y-57150000D03*
X148400000Y-57150000D03*
X148400000Y-62050000D03*
X151600000Y-62050000D03*
%TD*%
D10*
%TO.C,FIN5*%
X166500000Y-66100000D03*
X166500000Y-62900000D03*
X171400000Y-62900000D03*
X171400000Y-66100000D03*
%TD*%
D12*
%TO.C,POS72*%
X128900000Y-132950000D03*
X132100000Y-132950000D03*
X132100000Y-128050000D03*
X128900000Y-128050000D03*
%TD*%
%TO.C,POS61*%
X203799996Y-125950000D03*
X206999996Y-125950000D03*
X206999996Y-121050000D03*
X203799996Y-121050000D03*
%TD*%
D10*
%TO.C,POS29*%
X141349992Y-128882315D03*
X141349992Y-132082315D03*
X146249992Y-132082315D03*
X146249992Y-128882315D03*
%TD*%
D11*
%TO.C,LED8*%
X139439992Y-90448851D03*
X139439992Y-88668851D03*
X136159992Y-88668851D03*
X136159992Y-90448851D03*
%TD*%
D10*
%TO.C,FIN14*%
X108550000Y-120500000D03*
X108550000Y-123700000D03*
X113450000Y-123700000D03*
X113450000Y-120500000D03*
%TD*%
%TO.C,POS48*%
X180650000Y-29800000D03*
X180650000Y-26600000D03*
X175750000Y-26600000D03*
X175750000Y-29800000D03*
%TD*%
D12*
%TO.C,POS41*%
X119100000Y-39550000D03*
X122300000Y-39550000D03*
X122300000Y-34650000D03*
X119100000Y-34650000D03*
%TD*%
%TO.C,FIN3*%
X105200000Y-47050000D03*
X102000000Y-47050000D03*
X102000000Y-51950000D03*
X105200000Y-51950000D03*
%TD*%
D10*
%TO.C,POS33*%
X99549999Y-74400000D03*
X99549999Y-77600000D03*
X104449999Y-77600000D03*
X104449999Y-74400000D03*
%TD*%
D15*
%TO.C,LED3*%
X148909992Y-85131172D03*
X150689992Y-85131172D03*
X150689992Y-81851172D03*
X148909992Y-81851172D03*
%TD*%
D12*
%TO.C,POS69*%
X151600000Y-116550000D03*
X148400000Y-116550000D03*
X148400000Y-121450000D03*
X151600000Y-121450000D03*
%TD*%
D10*
%TO.C,POS84*%
X111350000Y-81800000D03*
X111350000Y-85000000D03*
X116250000Y-85000000D03*
X116250000Y-81800000D03*
%TD*%
%TO.C,POS79*%
X84550000Y-125100000D03*
X84550000Y-121900000D03*
X79650000Y-121900000D03*
X79650000Y-125100000D03*
%TD*%
D12*
%TO.C,POS78*%
X79000000Y-133050000D03*
X75800000Y-133050000D03*
X75800000Y-137950000D03*
X79000000Y-137950000D03*
%TD*%
D10*
%TO.C,POS64*%
X198632322Y-152200000D03*
X198632322Y-155400000D03*
X203532322Y-155400000D03*
X203532322Y-152200000D03*
%TD*%
D12*
%TO.C,POS43*%
X136000000Y-62050000D03*
X139200000Y-62050000D03*
X139200000Y-57150000D03*
X136000000Y-57150000D03*
%TD*%
D10*
%TO.C,POS21*%
X141400004Y-46800005D03*
X141400004Y-50000005D03*
X146300004Y-50000005D03*
X146300004Y-46800005D03*
%TD*%
%TO.C,POS39*%
X99950000Y-25400000D03*
X99950000Y-22200000D03*
X95050000Y-22200000D03*
X95050000Y-25400000D03*
%TD*%
D12*
%TO.C,FIN1*%
X120300000Y-62050000D03*
X117100000Y-62050000D03*
X117100000Y-66950000D03*
X120300000Y-66950000D03*
%TD*%
%TO.C,FIN4*%
X97500000Y-39550000D03*
X94300000Y-39550000D03*
X94300000Y-44450000D03*
X97500000Y-44450000D03*
%TD*%
%TO.C,POS62*%
X208000000Y-137650000D03*
X211200000Y-137650000D03*
X211200000Y-132750000D03*
X208000000Y-132750000D03*
%TD*%
%TO.C,POS73*%
X119100000Y-144250000D03*
X122300000Y-144250000D03*
X122300000Y-139350000D03*
X119100000Y-139350000D03*
%TD*%
D10*
%TO.C,POS58*%
X176050000Y-97100000D03*
X176050000Y-93900000D03*
X171150000Y-93900000D03*
X171150000Y-97100000D03*
%TD*%
D12*
%TO.C,POS71*%
X136000000Y-116450000D03*
X139200000Y-116450000D03*
X139200000Y-121350000D03*
X136000000Y-121350000D03*
%TD*%
%TO.C,POS42*%
X128900000Y-50750000D03*
X132100000Y-50750000D03*
X132100000Y-45850000D03*
X128900000Y-45850000D03*
%TD*%
%TO.C,POS66*%
X179800000Y-148050000D03*
X176600000Y-148050000D03*
X176600000Y-152950000D03*
X179800000Y-152950000D03*
%TD*%
%TO.C,POS83*%
X126500000Y-87150000D03*
X123300000Y-87150000D03*
X123300000Y-92050000D03*
X126500000Y-92050000D03*
%TD*%
%TO.C,POS35*%
X83700000Y-52750000D03*
X80500000Y-52750000D03*
X80500000Y-57650000D03*
X83700000Y-57650000D03*
%TD*%
%TO.C,POS68*%
X158800000Y-127950000D03*
X155600000Y-127950000D03*
X155600000Y-132850000D03*
X158800000Y-132850000D03*
%TD*%
%TO.C,POS51*%
X207000000Y-34914644D03*
X210200000Y-34914644D03*
X210200000Y-30014644D03*
X207000000Y-30014644D03*
%TD*%
%TO.C,FIN10*%
X175000000Y-124450000D03*
X178200000Y-124450000D03*
X178200000Y-119550000D03*
X175000000Y-119550000D03*
%TD*%
D10*
%TO.C,POS38*%
X88850000Y-26600000D03*
X88850000Y-23400000D03*
X83950000Y-23400000D03*
X83950000Y-26600000D03*
%TD*%
D12*
%TO.C,POS34*%
X92200000Y-63750000D03*
X89000000Y-63750000D03*
X89000000Y-68650000D03*
X92200000Y-68650000D03*
%TD*%
%TO.C,POS60*%
X194899988Y-114950000D03*
X198099988Y-114950000D03*
X198099988Y-110050000D03*
X194899988Y-110050000D03*
%TD*%
D10*
%TO.C,POS81*%
X104450000Y-104300000D03*
X104450000Y-101100000D03*
X99550000Y-101100000D03*
X99550000Y-104300000D03*
%TD*%
%TO.C,POS65*%
X187750000Y-153400000D03*
X187750000Y-156600000D03*
X192650000Y-156600000D03*
X192650000Y-153400000D03*
%TD*%
D13*
%TO.C,R4*%
X122125000Y-78400000D03*
X120475000Y-78400000D03*
%TD*%
D15*
%TO.C,LED6*%
X144689992Y-93968839D03*
X142909992Y-93968839D03*
X142909992Y-97248839D03*
X144689992Y-97248839D03*
%TD*%
D12*
%TO.C,POS36*%
X79100000Y-40750000D03*
X75900000Y-40750000D03*
X75900000Y-45650000D03*
X79100000Y-45650000D03*
%TD*%
D10*
%TO.C,FIN15*%
X101150000Y-127900000D03*
X101150000Y-131100000D03*
X106050000Y-131100000D03*
X106050000Y-127900000D03*
%TD*%
D12*
%TO.C,POS25*%
X183582332Y-91949999D03*
X186782332Y-91949999D03*
X186782332Y-87049999D03*
X183582332Y-87049999D03*
%TD*%
%TO.C,POS37*%
X80400000Y-30050000D03*
X77200000Y-30050000D03*
X77200000Y-34950000D03*
X80400000Y-34950000D03*
%TD*%
D10*
%TO.C,POS75*%
X95050000Y-153400000D03*
X95050000Y-156600000D03*
X99950000Y-156600000D03*
X99950000Y-153400000D03*
%TD*%
%TO.C,POS44*%
X146250000Y-72400000D03*
X146250000Y-69200000D03*
X141350000Y-69200000D03*
X141350000Y-72400000D03*
%TD*%
%TO.C,FIN13*%
X121050000Y-112900000D03*
X121050000Y-116100000D03*
X116150000Y-116100000D03*
X116150000Y-112900000D03*
%TD*%
D12*
%TO.C,POS59*%
X183550000Y-105150000D03*
X186750000Y-105150000D03*
X186750000Y-100250000D03*
X183550000Y-100250000D03*
%TD*%
%TO.C,POS57*%
X161100000Y-91950000D03*
X164300000Y-91950000D03*
X164300000Y-87050000D03*
X161100000Y-87050000D03*
%TD*%
D10*
%TO.C,POS28*%
X194049988Y-99300001D03*
X194049988Y-102500001D03*
X198949988Y-102500001D03*
X198949988Y-99300001D03*
%TD*%
D13*
%TO.C,R1*%
X122725000Y-70700000D03*
X121075000Y-70700000D03*
%TD*%
D10*
%TO.C,POS82*%
X116250000Y-97100000D03*
X116250000Y-93900000D03*
X111350000Y-93900000D03*
X111350000Y-97100000D03*
%TD*%
%TO.C,FIN6*%
X179050000Y-58600000D03*
X179050000Y-55400000D03*
X174150000Y-55400000D03*
X174150000Y-58600000D03*
%TD*%
D11*
%TO.C,LED5*%
X148159992Y-94718851D03*
X148159992Y-96498851D03*
X151439992Y-96498851D03*
X151439992Y-94718851D03*
%TD*%
D12*
%TO.C,FIN9*%
X167400000Y-116950000D03*
X170600000Y-116950000D03*
X170600000Y-112050000D03*
X167400000Y-112050000D03*
%TD*%
D15*
%TO.C,LED2*%
X142909992Y-85248850D03*
X144689992Y-85248850D03*
X144689992Y-81968850D03*
X142909992Y-81968850D03*
%TD*%
D12*
%TO.C,POS67*%
X168500000Y-144150000D03*
X165300000Y-144150000D03*
X165300000Y-139250000D03*
X168500000Y-139250000D03*
%TD*%
%TO.C,POS22*%
X134199989Y-34650000D03*
X130999989Y-34650000D03*
X130999989Y-39550000D03*
X134199989Y-39550000D03*
%TD*%
D10*
%TO.C,POS74*%
X107150000Y-148900000D03*
X107150000Y-152100000D03*
X112050000Y-152100000D03*
X112050000Y-148900000D03*
%TD*%
D11*
%TO.C,LED4*%
X148159992Y-88668851D03*
X148159992Y-90448851D03*
X151439992Y-90448851D03*
X151439992Y-88668851D03*
%TD*%
D10*
%TO.C,POS49*%
X192550000Y-25400000D03*
X192550000Y-22200000D03*
X187650000Y-22200000D03*
X187650000Y-25400000D03*
%TD*%
D16*
%TO.C,J1*%
X126005000Y-100855000D03*
D17*
X126005000Y-105935000D03*
%TD*%
D18*
%TO.C,J2*%
X126300000Y-80875000D03*
D19*
X126300000Y-78335000D03*
X126300000Y-75795000D03*
X126300000Y-73255000D03*
X126300000Y-70715000D03*
%TD*%
M02*
