M48
; DRILL file {KiCad (6.0.4)} date Tue Apr 26 19:16:41 2022
; FORMAT={-:-/ absolute / inch / decimal}
; #@! TF.CreationDate,2022-04-26T19:16:41+02:00
; #@! TF.GenerationSoftware,Kicad,Pcbnew,(6.0.4)
; #@! TF.FileFunction,Plated,1,2,PTH
FMAT,2
INCH
; #@! TA.AperFunction,Plated,PTH,ViaDrill
T1C0.0157
; #@! TA.AperFunction,Plated,PTH,ComponentDrill
T2C0.0394
; #@! TA.AperFunction,Plated,PTH,ComponentDrill
T3C0.0512
%
G90
G05
T1
X2.9843Y-5.5039
X2.9882Y-1.8701
X3.0394Y-1.4488
X3.0394Y-5.9291
X3.063Y-4.7992
X3.1693Y-2.3425
X3.2323Y-0.9213
X3.3425Y-6.2283
X3.3976Y-4.3661
X3.5039Y-2.7756
X3.5039Y-3.248
X3.5039Y-3.6969
X3.5039Y-4.1378
X3.6693Y-0.874
X3.7126Y-1.8228
X3.8465Y-3.9803
X3.9449Y-5.4567
X4.0079Y-6.1693
X4.0157Y-2.1181
X4.0787Y-3.3543
X4.1457Y-1.0512
X4.189Y-3.0551
X4.248Y-5.1614
X4.3071Y-2.4134
X4.311Y-3.6969
X4.4843Y-5.9882
X4.5394Y-4.8701
X4.6102Y-2.7087
X4.6496Y-3.3465
X4.815Y-1.2913
X4.815Y-5.4134
X4.8386Y-4.5709
X4.8543Y-3.6969
X5.1575Y-1.6299
X5.2008Y-1.7323
X5.2008Y-4.9685
X5.2992Y-3.2559
X5.2992Y-3.4921
X5.3819Y-5.6457
X5.4803Y-2.1772
X5.4803Y-4.5118
X5.4882Y-3.8543
X5.4921Y-2.7244
X5.626Y-3.8898
X5.6969Y-3.1654
X5.7283Y-1.2913
X5.748Y-3.4646
X5.8268Y-5.6457
X5.8307Y-4.3268
X5.8307Y-5.2008
X5.8346Y-1.9685
X5.8425Y-2.5157
X5.8425Y-4.8543
X5.9331Y-3.1614
X6.0236Y-3.5591
X6.0236Y-3.7992
X6.0433Y-1.6299
X6.126Y-2.0709
X6.126Y-5.3031
X6.1654Y-5.4134
X6.4685Y-3.3543
X6.4803Y-2.4764
X6.5079Y-1.6299
X6.5079Y-5.748
X6.6654Y-3.6969
X6.7165Y-4.3386
X6.7835Y-2.1811
X6.8465Y-1.0472
X6.9528Y-6.0945
X7.0039Y-3.3465
X7.0157Y-4.6339
X7.0827Y-1.8858
X7.315Y-0.874
X7.315Y-4.9291
X7.3543Y-3.3543
X7.3543Y-3.874
X7.378Y-1.5906
X7.4606Y-3.0551
X7.5669Y-3.0118
X7.6102Y-5.2244
X7.6575Y-6.1654
X7.748Y-0.9213
X7.7953Y-2.437
X7.7992Y-4.2598
X7.9055Y-3.5866
X7.9055Y-4.0354
X8.0866Y-6.1181
X8.1496Y-2.0039
X8.1496Y-4.6929
X8.2717Y-5.5866
X8.2756Y-1.1102
X8.315Y-5.1535
X8.3189Y-1.5315
T2
X4.9724Y-2.7841
X4.9724Y-2.8841
X4.9724Y-2.9841
X4.9724Y-3.0841
X4.9724Y-3.1841
T3
X4.9608Y-3.9707
X4.9608Y-4.1707
T0
M30
