%TF.GenerationSoftware,KiCad,Pcbnew,(6.0.4)*%
%TF.CreationDate,2022-04-26T19:16:40+02:00*%
%TF.ProjectId,FieldBoard,4669656c-6442-46f6-9172-642e6b696361,rev?*%
%TF.SameCoordinates,Original*%
%TF.FileFunction,Profile,NP*%
%FSLAX46Y46*%
G04 Gerber Fmt 4.6, Leading zero omitted, Abs format (unit mm)*
G04 Created by KiCad (PCBNEW (6.0.4)) date 2022-04-26 19:16:40*
%MOMM*%
%LPD*%
G01*
G04 APERTURE LIST*
%TA.AperFunction,Profile*%
%ADD10C,0.100000*%
%TD*%
G04 APERTURE END LIST*
D10*
X163900000Y-149615728D02*
X125500000Y-149615728D01*
X183450000Y-164690728D02*
X198857864Y-164657864D01*
X203815728Y-69615728D02*
X203815728Y-108015728D01*
X218915728Y-127615728D02*
X203815728Y-108015728D01*
X218890728Y-50065728D02*
X218857864Y-34657864D01*
X88857864Y-164657864D02*
X105900000Y-164715728D01*
X83900000Y-109700000D02*
X83900000Y-71300000D01*
X88857864Y-14657864D02*
G75*
G03*
X68857864Y-34657864I-4J-19999996D01*
G01*
X68800000Y-51700000D02*
X83900000Y-71300000D01*
X218890728Y-50065728D02*
X203815728Y-69615728D01*
X218857864Y-144657864D02*
X218915728Y-127615728D01*
X198857864Y-164657864D02*
G75*
G03*
X218857864Y-144657864I6J19999994D01*
G01*
X123815728Y-29700000D02*
X162215728Y-29700000D01*
X104265728Y-14625000D02*
X88857864Y-14657864D01*
X68857864Y-34657864D02*
X68800000Y-51700000D01*
X68825000Y-129250000D02*
X83900000Y-109700000D01*
X218857866Y-34657864D02*
G75*
G03*
X198857864Y-14657864I-19999996J4D01*
G01*
X68825000Y-129250000D02*
X68857864Y-144657864D01*
X181815728Y-14600000D02*
X162215728Y-29700000D01*
X198857864Y-14657864D02*
X181815728Y-14600000D01*
X68857866Y-144657864D02*
G75*
G03*
X88857864Y-164657864I19999994J-6D01*
G01*
X105900000Y-164715728D02*
X125500000Y-149615728D01*
X104265728Y-14625000D02*
X123815728Y-29700000D01*
X183450000Y-164690728D02*
X163900000Y-149615728D01*
M02*
