%TF.GenerationSoftware,KiCad,Pcbnew,(6.0.4)*%
%TF.CreationDate,2022-04-26T19:16:40+02:00*%
%TF.ProjectId,FieldBoard,4669656c-6442-46f6-9172-642e6b696361,rev?*%
%TF.SameCoordinates,Original*%
%TF.FileFunction,Legend,Top*%
%TF.FilePolarity,Positive*%
%FSLAX46Y46*%
G04 Gerber Fmt 4.6, Leading zero omitted, Abs format (unit mm)*
G04 Created by KiCad (PCBNEW (6.0.4)) date 2022-04-26 19:16:40*
%MOMM*%
%LPD*%
G01*
G04 APERTURE LIST*
%ADD10C,0.150000*%
%ADD11C,0.120000*%
G04 APERTURE END LIST*
D10*
X184085714Y-161985714D02*
X184323809Y-162652380D01*
X184561904Y-161985714D01*
X185466666Y-162652380D02*
X184895238Y-162652380D01*
X185180952Y-162652380D02*
X185180952Y-161652380D01*
X185085714Y-161795238D01*
X184990476Y-161890476D01*
X184895238Y-161938095D01*
%TO.C,POS32*%
X130185703Y-138752376D02*
X130185703Y-137752376D01*
X130566655Y-137752376D01*
X130661893Y-137799996D01*
X130709512Y-137847615D01*
X130757131Y-137942853D01*
X130757131Y-138085710D01*
X130709512Y-138180948D01*
X130661893Y-138228567D01*
X130566655Y-138276186D01*
X130185703Y-138276186D01*
X131376179Y-137752376D02*
X131566655Y-137752376D01*
X131661893Y-137799996D01*
X131757131Y-137895234D01*
X131804750Y-138085710D01*
X131804750Y-138419043D01*
X131757131Y-138609519D01*
X131661893Y-138704757D01*
X131566655Y-138752376D01*
X131376179Y-138752376D01*
X131280941Y-138704757D01*
X131185703Y-138609519D01*
X131138084Y-138419043D01*
X131138084Y-138085710D01*
X131185703Y-137895234D01*
X131280941Y-137799996D01*
X131376179Y-137752376D01*
X132185703Y-138704757D02*
X132328560Y-138752376D01*
X132566655Y-138752376D01*
X132661893Y-138704757D01*
X132709512Y-138657138D01*
X132757131Y-138561900D01*
X132757131Y-138466662D01*
X132709512Y-138371424D01*
X132661893Y-138323805D01*
X132566655Y-138276186D01*
X132376179Y-138228567D01*
X132280941Y-138180948D01*
X132233322Y-138133329D01*
X132185703Y-138038091D01*
X132185703Y-137942853D01*
X132233322Y-137847615D01*
X132280941Y-137799996D01*
X132376179Y-137752376D01*
X132614274Y-137752376D01*
X132757131Y-137799996D01*
X133090465Y-137752376D02*
X133709512Y-137752376D01*
X133376179Y-138133329D01*
X133519036Y-138133329D01*
X133614274Y-138180948D01*
X133661893Y-138228567D01*
X133709512Y-138323805D01*
X133709512Y-138561900D01*
X133661893Y-138657138D01*
X133614274Y-138704757D01*
X133519036Y-138752376D01*
X133233322Y-138752376D01*
X133138084Y-138704757D01*
X133090465Y-138657138D01*
X134090465Y-137847615D02*
X134138084Y-137799996D01*
X134233322Y-137752376D01*
X134471417Y-137752376D01*
X134566655Y-137799996D01*
X134614274Y-137847615D01*
X134661893Y-137942853D01*
X134661893Y-138038091D01*
X134614274Y-138180948D01*
X134042846Y-138752376D01*
X134661893Y-138752376D01*
X128535703Y-140652376D02*
X127964274Y-140652376D01*
X128249989Y-140652376D02*
X128249989Y-139652376D01*
X128154750Y-139795234D01*
X128059512Y-139890472D01*
X127964274Y-139938091D01*
%TO.C,POS26*%
X194285702Y-82052376D02*
X194285702Y-81052376D01*
X194666654Y-81052376D01*
X194761892Y-81099996D01*
X194809511Y-81147615D01*
X194857130Y-81242853D01*
X194857130Y-81385710D01*
X194809511Y-81480948D01*
X194761892Y-81528567D01*
X194666654Y-81576186D01*
X194285702Y-81576186D01*
X195476178Y-81052376D02*
X195666654Y-81052376D01*
X195761892Y-81099996D01*
X195857130Y-81195234D01*
X195904749Y-81385710D01*
X195904749Y-81719043D01*
X195857130Y-81909519D01*
X195761892Y-82004757D01*
X195666654Y-82052376D01*
X195476178Y-82052376D01*
X195380940Y-82004757D01*
X195285702Y-81909519D01*
X195238083Y-81719043D01*
X195238083Y-81385710D01*
X195285702Y-81195234D01*
X195380940Y-81099996D01*
X195476178Y-81052376D01*
X196285702Y-82004757D02*
X196428559Y-82052376D01*
X196666654Y-82052376D01*
X196761892Y-82004757D01*
X196809511Y-81957138D01*
X196857130Y-81861900D01*
X196857130Y-81766662D01*
X196809511Y-81671424D01*
X196761892Y-81623805D01*
X196666654Y-81576186D01*
X196476178Y-81528567D01*
X196380940Y-81480948D01*
X196333321Y-81433329D01*
X196285702Y-81338091D01*
X196285702Y-81242853D01*
X196333321Y-81147615D01*
X196380940Y-81099996D01*
X196476178Y-81052376D01*
X196714273Y-81052376D01*
X196857130Y-81099996D01*
X197238083Y-81147615D02*
X197285702Y-81099996D01*
X197380940Y-81052376D01*
X197619035Y-81052376D01*
X197714273Y-81099996D01*
X197761892Y-81147615D01*
X197809511Y-81242853D01*
X197809511Y-81338091D01*
X197761892Y-81480948D01*
X197190464Y-82052376D01*
X197809511Y-82052376D01*
X198666654Y-81052376D02*
X198476178Y-81052376D01*
X198380940Y-81099996D01*
X198333321Y-81147615D01*
X198238083Y-81290472D01*
X198190464Y-81480948D01*
X198190464Y-81861900D01*
X198238083Y-81957138D01*
X198285702Y-82004757D01*
X198380940Y-82052376D01*
X198571416Y-82052376D01*
X198666654Y-82004757D01*
X198714273Y-81957138D01*
X198761892Y-81861900D01*
X198761892Y-81623805D01*
X198714273Y-81528567D01*
X198666654Y-81480948D01*
X198571416Y-81433329D01*
X198380940Y-81433329D01*
X198285702Y-81480948D01*
X198238083Y-81528567D01*
X198190464Y-81623805D01*
X200935702Y-80152376D02*
X200364273Y-80152376D01*
X200649988Y-80152376D02*
X200649988Y-79152376D01*
X200554749Y-79295234D01*
X200459511Y-79390472D01*
X200364273Y-79438091D01*
%TO.C,POS20*%
X94552377Y-80414281D02*
X93552377Y-80414281D01*
X93552377Y-80033329D01*
X93599997Y-79938091D01*
X93647616Y-79890472D01*
X93742854Y-79842853D01*
X93885711Y-79842853D01*
X93980949Y-79890472D01*
X94028568Y-79938091D01*
X94076187Y-80033329D01*
X94076187Y-80414281D01*
X93552377Y-79223805D02*
X93552377Y-79033329D01*
X93599997Y-78938091D01*
X93695235Y-78842853D01*
X93885711Y-78795234D01*
X94219044Y-78795234D01*
X94409520Y-78842853D01*
X94504758Y-78938091D01*
X94552377Y-79033329D01*
X94552377Y-79223805D01*
X94504758Y-79319043D01*
X94409520Y-79414281D01*
X94219044Y-79461900D01*
X93885711Y-79461900D01*
X93695235Y-79414281D01*
X93599997Y-79319043D01*
X93552377Y-79223805D01*
X94504758Y-78414281D02*
X94552377Y-78271424D01*
X94552377Y-78033329D01*
X94504758Y-77938091D01*
X94457139Y-77890472D01*
X94361901Y-77842853D01*
X94266663Y-77842853D01*
X94171425Y-77890472D01*
X94123806Y-77938091D01*
X94076187Y-78033329D01*
X94028568Y-78223805D01*
X93980949Y-78319043D01*
X93933330Y-78366662D01*
X93838092Y-78414281D01*
X93742854Y-78414281D01*
X93647616Y-78366662D01*
X93599997Y-78319043D01*
X93552377Y-78223805D01*
X93552377Y-77985710D01*
X93599997Y-77842853D01*
X93647616Y-77461900D02*
X93599997Y-77414281D01*
X93552377Y-77319043D01*
X93552377Y-77080948D01*
X93599997Y-76985710D01*
X93647616Y-76938091D01*
X93742854Y-76890472D01*
X93838092Y-76890472D01*
X93980949Y-76938091D01*
X94552377Y-77509519D01*
X94552377Y-76890472D01*
X93552377Y-76271424D02*
X93552377Y-76176186D01*
X93599997Y-76080948D01*
X93647616Y-76033329D01*
X93742854Y-75985710D01*
X93933330Y-75938091D01*
X94171425Y-75938091D01*
X94361901Y-75985710D01*
X94457139Y-76033329D01*
X94504758Y-76080948D01*
X94552377Y-76176186D01*
X94552377Y-76271424D01*
X94504758Y-76366662D01*
X94457139Y-76414281D01*
X94361901Y-76461900D01*
X94171425Y-76509519D01*
X93933330Y-76509519D01*
X93742854Y-76461900D01*
X93647616Y-76414281D01*
X93599997Y-76366662D01*
X93552377Y-76271424D01*
X92652377Y-73764281D02*
X92652377Y-74335710D01*
X92652377Y-74049996D02*
X91652377Y-74049996D01*
X91795235Y-74145234D01*
X91890473Y-74240472D01*
X91938092Y-74335710D01*
%TO.C,POS46*%
X161152380Y-50514285D02*
X160152380Y-50514285D01*
X160152380Y-50133333D01*
X160200000Y-50038095D01*
X160247619Y-49990476D01*
X160342857Y-49942857D01*
X160485714Y-49942857D01*
X160580952Y-49990476D01*
X160628571Y-50038095D01*
X160676190Y-50133333D01*
X160676190Y-50514285D01*
X160152380Y-49323809D02*
X160152380Y-49133333D01*
X160200000Y-49038095D01*
X160295238Y-48942857D01*
X160485714Y-48895238D01*
X160819047Y-48895238D01*
X161009523Y-48942857D01*
X161104761Y-49038095D01*
X161152380Y-49133333D01*
X161152380Y-49323809D01*
X161104761Y-49419047D01*
X161009523Y-49514285D01*
X160819047Y-49561904D01*
X160485714Y-49561904D01*
X160295238Y-49514285D01*
X160200000Y-49419047D01*
X160152380Y-49323809D01*
X161104761Y-48514285D02*
X161152380Y-48371428D01*
X161152380Y-48133333D01*
X161104761Y-48038095D01*
X161057142Y-47990476D01*
X160961904Y-47942857D01*
X160866666Y-47942857D01*
X160771428Y-47990476D01*
X160723809Y-48038095D01*
X160676190Y-48133333D01*
X160628571Y-48323809D01*
X160580952Y-48419047D01*
X160533333Y-48466666D01*
X160438095Y-48514285D01*
X160342857Y-48514285D01*
X160247619Y-48466666D01*
X160200000Y-48419047D01*
X160152380Y-48323809D01*
X160152380Y-48085714D01*
X160200000Y-47942857D01*
X160485714Y-47085714D02*
X161152380Y-47085714D01*
X160104761Y-47323809D02*
X160819047Y-47561904D01*
X160819047Y-46942857D01*
X160152380Y-46133333D02*
X160152380Y-46323809D01*
X160200000Y-46419047D01*
X160247619Y-46466666D01*
X160390476Y-46561904D01*
X160580952Y-46609523D01*
X160961904Y-46609523D01*
X161057142Y-46561904D01*
X161104761Y-46514285D01*
X161152380Y-46419047D01*
X161152380Y-46228571D01*
X161104761Y-46133333D01*
X161057142Y-46085714D01*
X160961904Y-46038095D01*
X160723809Y-46038095D01*
X160628571Y-46085714D01*
X160580952Y-46133333D01*
X160533333Y-46228571D01*
X160533333Y-46419047D01*
X160580952Y-46514285D01*
X160628571Y-46561904D01*
X160723809Y-46609523D01*
X159252380Y-43864285D02*
X159252380Y-44435714D01*
X159252380Y-44150000D02*
X158252380Y-44150000D01*
X158395238Y-44245238D01*
X158490476Y-44340476D01*
X158538095Y-44435714D01*
%TO.C,POS70*%
X141585714Y-105252380D02*
X141585714Y-104252380D01*
X141966666Y-104252380D01*
X142061904Y-104300000D01*
X142109523Y-104347619D01*
X142157142Y-104442857D01*
X142157142Y-104585714D01*
X142109523Y-104680952D01*
X142061904Y-104728571D01*
X141966666Y-104776190D01*
X141585714Y-104776190D01*
X142776190Y-104252380D02*
X142966666Y-104252380D01*
X143061904Y-104300000D01*
X143157142Y-104395238D01*
X143204761Y-104585714D01*
X143204761Y-104919047D01*
X143157142Y-105109523D01*
X143061904Y-105204761D01*
X142966666Y-105252380D01*
X142776190Y-105252380D01*
X142680952Y-105204761D01*
X142585714Y-105109523D01*
X142538095Y-104919047D01*
X142538095Y-104585714D01*
X142585714Y-104395238D01*
X142680952Y-104300000D01*
X142776190Y-104252380D01*
X143585714Y-105204761D02*
X143728571Y-105252380D01*
X143966666Y-105252380D01*
X144061904Y-105204761D01*
X144109523Y-105157142D01*
X144157142Y-105061904D01*
X144157142Y-104966666D01*
X144109523Y-104871428D01*
X144061904Y-104823809D01*
X143966666Y-104776190D01*
X143776190Y-104728571D01*
X143680952Y-104680952D01*
X143633333Y-104633333D01*
X143585714Y-104538095D01*
X143585714Y-104442857D01*
X143633333Y-104347619D01*
X143680952Y-104300000D01*
X143776190Y-104252380D01*
X144014285Y-104252380D01*
X144157142Y-104300000D01*
X144490476Y-104252380D02*
X145157142Y-104252380D01*
X144728571Y-105252380D01*
X145728571Y-104252380D02*
X145823809Y-104252380D01*
X145919047Y-104300000D01*
X145966666Y-104347619D01*
X146014285Y-104442857D01*
X146061904Y-104633333D01*
X146061904Y-104871428D01*
X146014285Y-105061904D01*
X145966666Y-105157142D01*
X145919047Y-105204761D01*
X145823809Y-105252380D01*
X145728571Y-105252380D01*
X145633333Y-105204761D01*
X145585714Y-105157142D01*
X145538095Y-105061904D01*
X145490476Y-104871428D01*
X145490476Y-104633333D01*
X145538095Y-104442857D01*
X145585714Y-104347619D01*
X145633333Y-104300000D01*
X145728571Y-104252380D01*
X139935714Y-107152380D02*
X139364285Y-107152380D01*
X139650000Y-107152380D02*
X139650000Y-106152380D01*
X139554761Y-106295238D01*
X139459523Y-106390476D01*
X139364285Y-106438095D01*
%TO.C,FIN2*%
X114428571Y-58095238D02*
X114428571Y-58428571D01*
X114952380Y-58428571D02*
X113952380Y-58428571D01*
X113952380Y-57952380D01*
X114952380Y-57571428D02*
X113952380Y-57571428D01*
X114952380Y-57095238D02*
X113952380Y-57095238D01*
X114952380Y-56523809D01*
X113952380Y-56523809D01*
X114047619Y-56095238D02*
X114000000Y-56047619D01*
X113952380Y-55952380D01*
X113952380Y-55714285D01*
X114000000Y-55619047D01*
X114047619Y-55571428D01*
X114142857Y-55523809D01*
X114238095Y-55523809D01*
X114380952Y-55571428D01*
X114952380Y-56142857D01*
X114952380Y-55523809D01*
X113052380Y-52564285D02*
X113052380Y-53135714D01*
X113052380Y-52850000D02*
X112052380Y-52850000D01*
X112195238Y-52945238D01*
X112290476Y-53040476D01*
X112338095Y-53135714D01*
%TO.C,POS55*%
X182985714Y-72952380D02*
X182985714Y-71952380D01*
X183366666Y-71952380D01*
X183461904Y-72000000D01*
X183509523Y-72047619D01*
X183557142Y-72142857D01*
X183557142Y-72285714D01*
X183509523Y-72380952D01*
X183461904Y-72428571D01*
X183366666Y-72476190D01*
X182985714Y-72476190D01*
X184176190Y-71952380D02*
X184366666Y-71952380D01*
X184461904Y-72000000D01*
X184557142Y-72095238D01*
X184604761Y-72285714D01*
X184604761Y-72619047D01*
X184557142Y-72809523D01*
X184461904Y-72904761D01*
X184366666Y-72952380D01*
X184176190Y-72952380D01*
X184080952Y-72904761D01*
X183985714Y-72809523D01*
X183938095Y-72619047D01*
X183938095Y-72285714D01*
X183985714Y-72095238D01*
X184080952Y-72000000D01*
X184176190Y-71952380D01*
X184985714Y-72904761D02*
X185128571Y-72952380D01*
X185366666Y-72952380D01*
X185461904Y-72904761D01*
X185509523Y-72857142D01*
X185557142Y-72761904D01*
X185557142Y-72666666D01*
X185509523Y-72571428D01*
X185461904Y-72523809D01*
X185366666Y-72476190D01*
X185176190Y-72428571D01*
X185080952Y-72380952D01*
X185033333Y-72333333D01*
X184985714Y-72238095D01*
X184985714Y-72142857D01*
X185033333Y-72047619D01*
X185080952Y-72000000D01*
X185176190Y-71952380D01*
X185414285Y-71952380D01*
X185557142Y-72000000D01*
X186461904Y-71952380D02*
X185985714Y-71952380D01*
X185938095Y-72428571D01*
X185985714Y-72380952D01*
X186080952Y-72333333D01*
X186319047Y-72333333D01*
X186414285Y-72380952D01*
X186461904Y-72428571D01*
X186509523Y-72523809D01*
X186509523Y-72761904D01*
X186461904Y-72857142D01*
X186414285Y-72904761D01*
X186319047Y-72952380D01*
X186080952Y-72952380D01*
X185985714Y-72904761D01*
X185938095Y-72857142D01*
X187414285Y-71952380D02*
X186938095Y-71952380D01*
X186890476Y-72428571D01*
X186938095Y-72380952D01*
X187033333Y-72333333D01*
X187271428Y-72333333D01*
X187366666Y-72380952D01*
X187414285Y-72428571D01*
X187461904Y-72523809D01*
X187461904Y-72761904D01*
X187414285Y-72857142D01*
X187366666Y-72904761D01*
X187271428Y-72952380D01*
X187033333Y-72952380D01*
X186938095Y-72904761D01*
X186890476Y-72857142D01*
X181335714Y-74852380D02*
X180764285Y-74852380D01*
X181050000Y-74852380D02*
X181050000Y-73852380D01*
X180954761Y-73995238D01*
X180859523Y-74090476D01*
X180764285Y-74138095D01*
%TO.C,POS19*%
X94552377Y-91764296D02*
X93552377Y-91764296D01*
X93552377Y-91383344D01*
X93599997Y-91288106D01*
X93647616Y-91240487D01*
X93742854Y-91192868D01*
X93885711Y-91192868D01*
X93980949Y-91240487D01*
X94028568Y-91288106D01*
X94076187Y-91383344D01*
X94076187Y-91764296D01*
X93552377Y-90573820D02*
X93552377Y-90383344D01*
X93599997Y-90288106D01*
X93695235Y-90192868D01*
X93885711Y-90145249D01*
X94219044Y-90145249D01*
X94409520Y-90192868D01*
X94504758Y-90288106D01*
X94552377Y-90383344D01*
X94552377Y-90573820D01*
X94504758Y-90669058D01*
X94409520Y-90764296D01*
X94219044Y-90811915D01*
X93885711Y-90811915D01*
X93695235Y-90764296D01*
X93599997Y-90669058D01*
X93552377Y-90573820D01*
X94504758Y-89764296D02*
X94552377Y-89621439D01*
X94552377Y-89383344D01*
X94504758Y-89288106D01*
X94457139Y-89240487D01*
X94361901Y-89192868D01*
X94266663Y-89192868D01*
X94171425Y-89240487D01*
X94123806Y-89288106D01*
X94076187Y-89383344D01*
X94028568Y-89573820D01*
X93980949Y-89669058D01*
X93933330Y-89716677D01*
X93838092Y-89764296D01*
X93742854Y-89764296D01*
X93647616Y-89716677D01*
X93599997Y-89669058D01*
X93552377Y-89573820D01*
X93552377Y-89335725D01*
X93599997Y-89192868D01*
X94552377Y-88240487D02*
X94552377Y-88811915D01*
X94552377Y-88526201D02*
X93552377Y-88526201D01*
X93695235Y-88621439D01*
X93790473Y-88716677D01*
X93838092Y-88811915D01*
X94552377Y-87764296D02*
X94552377Y-87573820D01*
X94504758Y-87478582D01*
X94457139Y-87430963D01*
X94314282Y-87335725D01*
X94123806Y-87288106D01*
X93742854Y-87288106D01*
X93647616Y-87335725D01*
X93599997Y-87383344D01*
X93552377Y-87478582D01*
X93552377Y-87669058D01*
X93599997Y-87764296D01*
X93647616Y-87811915D01*
X93742854Y-87859534D01*
X93980949Y-87859534D01*
X94076187Y-87811915D01*
X94123806Y-87764296D01*
X94171425Y-87669058D01*
X94171425Y-87478582D01*
X94123806Y-87383344D01*
X94076187Y-87335725D01*
X93980949Y-87288106D01*
X92652377Y-85114296D02*
X92652377Y-85685725D01*
X92652377Y-85400011D02*
X91652377Y-85400011D01*
X91795235Y-85495249D01*
X91890473Y-85590487D01*
X91938092Y-85685725D01*
%TO.C,POS63*%
X205452380Y-148414285D02*
X204452380Y-148414285D01*
X204452380Y-148033333D01*
X204500000Y-147938095D01*
X204547619Y-147890476D01*
X204642857Y-147842857D01*
X204785714Y-147842857D01*
X204880952Y-147890476D01*
X204928571Y-147938095D01*
X204976190Y-148033333D01*
X204976190Y-148414285D01*
X204452380Y-147223809D02*
X204452380Y-147033333D01*
X204500000Y-146938095D01*
X204595238Y-146842857D01*
X204785714Y-146795238D01*
X205119047Y-146795238D01*
X205309523Y-146842857D01*
X205404761Y-146938095D01*
X205452380Y-147033333D01*
X205452380Y-147223809D01*
X205404761Y-147319047D01*
X205309523Y-147414285D01*
X205119047Y-147461904D01*
X204785714Y-147461904D01*
X204595238Y-147414285D01*
X204500000Y-147319047D01*
X204452380Y-147223809D01*
X205404761Y-146414285D02*
X205452380Y-146271428D01*
X205452380Y-146033333D01*
X205404761Y-145938095D01*
X205357142Y-145890476D01*
X205261904Y-145842857D01*
X205166666Y-145842857D01*
X205071428Y-145890476D01*
X205023809Y-145938095D01*
X204976190Y-146033333D01*
X204928571Y-146223809D01*
X204880952Y-146319047D01*
X204833333Y-146366666D01*
X204738095Y-146414285D01*
X204642857Y-146414285D01*
X204547619Y-146366666D01*
X204500000Y-146319047D01*
X204452380Y-146223809D01*
X204452380Y-145985714D01*
X204500000Y-145842857D01*
X204452380Y-144985714D02*
X204452380Y-145176190D01*
X204500000Y-145271428D01*
X204547619Y-145319047D01*
X204690476Y-145414285D01*
X204880952Y-145461904D01*
X205261904Y-145461904D01*
X205357142Y-145414285D01*
X205404761Y-145366666D01*
X205452380Y-145271428D01*
X205452380Y-145080952D01*
X205404761Y-144985714D01*
X205357142Y-144938095D01*
X205261904Y-144890476D01*
X205023809Y-144890476D01*
X204928571Y-144938095D01*
X204880952Y-144985714D01*
X204833333Y-145080952D01*
X204833333Y-145271428D01*
X204880952Y-145366666D01*
X204928571Y-145414285D01*
X205023809Y-145461904D01*
X204452380Y-144557142D02*
X204452380Y-143938095D01*
X204833333Y-144271428D01*
X204833333Y-144128571D01*
X204880952Y-144033333D01*
X204928571Y-143985714D01*
X205023809Y-143938095D01*
X205261904Y-143938095D01*
X205357142Y-143985714D01*
X205404761Y-144033333D01*
X205452380Y-144128571D01*
X205452380Y-144414285D01*
X205404761Y-144509523D01*
X205357142Y-144557142D01*
X207352380Y-150064285D02*
X207352380Y-150635714D01*
X207352380Y-150350000D02*
X206352380Y-150350000D01*
X206495238Y-150445238D01*
X206590476Y-150540476D01*
X206638095Y-150635714D01*
%TO.C,R2*%
X112033333Y-76282380D02*
X111700000Y-75806190D01*
X111461904Y-76282380D02*
X111461904Y-75282380D01*
X111842857Y-75282380D01*
X111938095Y-75330000D01*
X111985714Y-75377619D01*
X112033333Y-75472857D01*
X112033333Y-75615714D01*
X111985714Y-75710952D01*
X111938095Y-75758571D01*
X111842857Y-75806190D01*
X111461904Y-75806190D01*
X112414285Y-75377619D02*
X112461904Y-75330000D01*
X112557142Y-75282380D01*
X112795238Y-75282380D01*
X112890476Y-75330000D01*
X112938095Y-75377619D01*
X112985714Y-75472857D01*
X112985714Y-75568095D01*
X112938095Y-75710952D01*
X112366666Y-76282380D01*
X112985714Y-76282380D01*
%TO.C,POS76*%
X90405413Y-156081962D02*
X89405413Y-156081962D01*
X89405413Y-155701010D01*
X89453033Y-155605772D01*
X89500652Y-155558153D01*
X89595890Y-155510534D01*
X89738747Y-155510534D01*
X89833985Y-155558153D01*
X89881604Y-155605772D01*
X89929223Y-155701010D01*
X89929223Y-156081962D01*
X89405413Y-154891486D02*
X89405413Y-154701010D01*
X89453033Y-154605772D01*
X89548271Y-154510534D01*
X89738747Y-154462915D01*
X90072080Y-154462915D01*
X90262556Y-154510534D01*
X90357794Y-154605772D01*
X90405413Y-154701010D01*
X90405413Y-154891486D01*
X90357794Y-154986724D01*
X90262556Y-155081962D01*
X90072080Y-155129581D01*
X89738747Y-155129581D01*
X89548271Y-155081962D01*
X89453033Y-154986724D01*
X89405413Y-154891486D01*
X90357794Y-154081962D02*
X90405413Y-153939105D01*
X90405413Y-153701010D01*
X90357794Y-153605772D01*
X90310175Y-153558153D01*
X90214937Y-153510534D01*
X90119699Y-153510534D01*
X90024461Y-153558153D01*
X89976842Y-153605772D01*
X89929223Y-153701010D01*
X89881604Y-153891486D01*
X89833985Y-153986724D01*
X89786366Y-154034343D01*
X89691128Y-154081962D01*
X89595890Y-154081962D01*
X89500652Y-154034343D01*
X89453033Y-153986724D01*
X89405413Y-153891486D01*
X89405413Y-153653391D01*
X89453033Y-153510534D01*
X89405413Y-153177200D02*
X89405413Y-152510534D01*
X90405413Y-152939105D01*
X89405413Y-151701010D02*
X89405413Y-151891486D01*
X89453033Y-151986724D01*
X89500652Y-152034343D01*
X89643509Y-152129581D01*
X89833985Y-152177200D01*
X90214937Y-152177200D01*
X90310175Y-152129581D01*
X90357794Y-152081962D01*
X90405413Y-151986724D01*
X90405413Y-151796248D01*
X90357794Y-151701010D01*
X90310175Y-151653391D01*
X90214937Y-151605772D01*
X89976842Y-151605772D01*
X89881604Y-151653391D01*
X89833985Y-151701010D01*
X89786366Y-151796248D01*
X89786366Y-151986724D01*
X89833985Y-152081962D01*
X89881604Y-152129581D01*
X89976842Y-152177200D01*
X88505413Y-149431962D02*
X88505413Y-150003391D01*
X88505413Y-149717677D02*
X87505413Y-149717677D01*
X87648271Y-149812915D01*
X87743509Y-149908153D01*
X87791128Y-150003391D01*
%TO.C,POS17*%
X98952379Y-91714284D02*
X97952379Y-91714284D01*
X97952379Y-91333332D01*
X97999999Y-91238094D01*
X98047618Y-91190475D01*
X98142856Y-91142856D01*
X98285713Y-91142856D01*
X98380951Y-91190475D01*
X98428570Y-91238094D01*
X98476189Y-91333332D01*
X98476189Y-91714284D01*
X97952379Y-90523808D02*
X97952379Y-90333332D01*
X97999999Y-90238094D01*
X98095237Y-90142856D01*
X98285713Y-90095237D01*
X98619046Y-90095237D01*
X98809522Y-90142856D01*
X98904760Y-90238094D01*
X98952379Y-90333332D01*
X98952379Y-90523808D01*
X98904760Y-90619046D01*
X98809522Y-90714284D01*
X98619046Y-90761903D01*
X98285713Y-90761903D01*
X98095237Y-90714284D01*
X97999999Y-90619046D01*
X97952379Y-90523808D01*
X98904760Y-89714284D02*
X98952379Y-89571427D01*
X98952379Y-89333332D01*
X98904760Y-89238094D01*
X98857141Y-89190475D01*
X98761903Y-89142856D01*
X98666665Y-89142856D01*
X98571427Y-89190475D01*
X98523808Y-89238094D01*
X98476189Y-89333332D01*
X98428570Y-89523808D01*
X98380951Y-89619046D01*
X98333332Y-89666665D01*
X98238094Y-89714284D01*
X98142856Y-89714284D01*
X98047618Y-89666665D01*
X97999999Y-89619046D01*
X97952379Y-89523808D01*
X97952379Y-89285713D01*
X97999999Y-89142856D01*
X98952379Y-88190475D02*
X98952379Y-88761903D01*
X98952379Y-88476189D02*
X97952379Y-88476189D01*
X98095237Y-88571427D01*
X98190475Y-88666665D01*
X98238094Y-88761903D01*
X97952379Y-87857141D02*
X97952379Y-87190475D01*
X98952379Y-87619046D01*
X100852379Y-93364284D02*
X100852379Y-93935713D01*
X100852379Y-93649999D02*
X99852379Y-93649999D01*
X99995237Y-93745237D01*
X100090475Y-93840475D01*
X100138094Y-93935713D01*
%TO.C,POS56*%
X171385714Y-80352380D02*
X171385714Y-79352380D01*
X171766666Y-79352380D01*
X171861904Y-79400000D01*
X171909523Y-79447619D01*
X171957142Y-79542857D01*
X171957142Y-79685714D01*
X171909523Y-79780952D01*
X171861904Y-79828571D01*
X171766666Y-79876190D01*
X171385714Y-79876190D01*
X172576190Y-79352380D02*
X172766666Y-79352380D01*
X172861904Y-79400000D01*
X172957142Y-79495238D01*
X173004761Y-79685714D01*
X173004761Y-80019047D01*
X172957142Y-80209523D01*
X172861904Y-80304761D01*
X172766666Y-80352380D01*
X172576190Y-80352380D01*
X172480952Y-80304761D01*
X172385714Y-80209523D01*
X172338095Y-80019047D01*
X172338095Y-79685714D01*
X172385714Y-79495238D01*
X172480952Y-79400000D01*
X172576190Y-79352380D01*
X173385714Y-80304761D02*
X173528571Y-80352380D01*
X173766666Y-80352380D01*
X173861904Y-80304761D01*
X173909523Y-80257142D01*
X173957142Y-80161904D01*
X173957142Y-80066666D01*
X173909523Y-79971428D01*
X173861904Y-79923809D01*
X173766666Y-79876190D01*
X173576190Y-79828571D01*
X173480952Y-79780952D01*
X173433333Y-79733333D01*
X173385714Y-79638095D01*
X173385714Y-79542857D01*
X173433333Y-79447619D01*
X173480952Y-79400000D01*
X173576190Y-79352380D01*
X173814285Y-79352380D01*
X173957142Y-79400000D01*
X174861904Y-79352380D02*
X174385714Y-79352380D01*
X174338095Y-79828571D01*
X174385714Y-79780952D01*
X174480952Y-79733333D01*
X174719047Y-79733333D01*
X174814285Y-79780952D01*
X174861904Y-79828571D01*
X174909523Y-79923809D01*
X174909523Y-80161904D01*
X174861904Y-80257142D01*
X174814285Y-80304761D01*
X174719047Y-80352380D01*
X174480952Y-80352380D01*
X174385714Y-80304761D01*
X174338095Y-80257142D01*
X175766666Y-79352380D02*
X175576190Y-79352380D01*
X175480952Y-79400000D01*
X175433333Y-79447619D01*
X175338095Y-79590476D01*
X175290476Y-79780952D01*
X175290476Y-80161904D01*
X175338095Y-80257142D01*
X175385714Y-80304761D01*
X175480952Y-80352380D01*
X175671428Y-80352380D01*
X175766666Y-80304761D01*
X175814285Y-80257142D01*
X175861904Y-80161904D01*
X175861904Y-79923809D01*
X175814285Y-79828571D01*
X175766666Y-79780952D01*
X175671428Y-79733333D01*
X175480952Y-79733333D01*
X175385714Y-79780952D01*
X175338095Y-79828571D01*
X175290476Y-79923809D01*
X169735714Y-82252380D02*
X169164285Y-82252380D01*
X169450000Y-82252380D02*
X169450000Y-81252380D01*
X169354761Y-81395238D01*
X169259523Y-81490476D01*
X169164285Y-81538095D01*
%TO.C,POS54*%
X193352380Y-68414285D02*
X192352380Y-68414285D01*
X192352380Y-68033333D01*
X192400000Y-67938095D01*
X192447619Y-67890476D01*
X192542857Y-67842857D01*
X192685714Y-67842857D01*
X192780952Y-67890476D01*
X192828571Y-67938095D01*
X192876190Y-68033333D01*
X192876190Y-68414285D01*
X192352380Y-67223809D02*
X192352380Y-67033333D01*
X192400000Y-66938095D01*
X192495238Y-66842857D01*
X192685714Y-66795238D01*
X193019047Y-66795238D01*
X193209523Y-66842857D01*
X193304761Y-66938095D01*
X193352380Y-67033333D01*
X193352380Y-67223809D01*
X193304761Y-67319047D01*
X193209523Y-67414285D01*
X193019047Y-67461904D01*
X192685714Y-67461904D01*
X192495238Y-67414285D01*
X192400000Y-67319047D01*
X192352380Y-67223809D01*
X193304761Y-66414285D02*
X193352380Y-66271428D01*
X193352380Y-66033333D01*
X193304761Y-65938095D01*
X193257142Y-65890476D01*
X193161904Y-65842857D01*
X193066666Y-65842857D01*
X192971428Y-65890476D01*
X192923809Y-65938095D01*
X192876190Y-66033333D01*
X192828571Y-66223809D01*
X192780952Y-66319047D01*
X192733333Y-66366666D01*
X192638095Y-66414285D01*
X192542857Y-66414285D01*
X192447619Y-66366666D01*
X192400000Y-66319047D01*
X192352380Y-66223809D01*
X192352380Y-65985714D01*
X192400000Y-65842857D01*
X192352380Y-64938095D02*
X192352380Y-65414285D01*
X192828571Y-65461904D01*
X192780952Y-65414285D01*
X192733333Y-65319047D01*
X192733333Y-65080952D01*
X192780952Y-64985714D01*
X192828571Y-64938095D01*
X192923809Y-64890476D01*
X193161904Y-64890476D01*
X193257142Y-64938095D01*
X193304761Y-64985714D01*
X193352380Y-65080952D01*
X193352380Y-65319047D01*
X193304761Y-65414285D01*
X193257142Y-65461904D01*
X192685714Y-64033333D02*
X193352380Y-64033333D01*
X192304761Y-64271428D02*
X193019047Y-64509523D01*
X193019047Y-63890476D01*
X195252380Y-70064285D02*
X195252380Y-70635714D01*
X195252380Y-70350000D02*
X194252380Y-70350000D01*
X194395238Y-70445238D01*
X194490476Y-70540476D01*
X194538095Y-70635714D01*
%TO.C,POS52*%
X206652380Y-45414285D02*
X205652380Y-45414285D01*
X205652380Y-45033333D01*
X205700000Y-44938095D01*
X205747619Y-44890476D01*
X205842857Y-44842857D01*
X205985714Y-44842857D01*
X206080952Y-44890476D01*
X206128571Y-44938095D01*
X206176190Y-45033333D01*
X206176190Y-45414285D01*
X205652380Y-44223809D02*
X205652380Y-44033333D01*
X205700000Y-43938095D01*
X205795238Y-43842857D01*
X205985714Y-43795238D01*
X206319047Y-43795238D01*
X206509523Y-43842857D01*
X206604761Y-43938095D01*
X206652380Y-44033333D01*
X206652380Y-44223809D01*
X206604761Y-44319047D01*
X206509523Y-44414285D01*
X206319047Y-44461904D01*
X205985714Y-44461904D01*
X205795238Y-44414285D01*
X205700000Y-44319047D01*
X205652380Y-44223809D01*
X206604761Y-43414285D02*
X206652380Y-43271428D01*
X206652380Y-43033333D01*
X206604761Y-42938095D01*
X206557142Y-42890476D01*
X206461904Y-42842857D01*
X206366666Y-42842857D01*
X206271428Y-42890476D01*
X206223809Y-42938095D01*
X206176190Y-43033333D01*
X206128571Y-43223809D01*
X206080952Y-43319047D01*
X206033333Y-43366666D01*
X205938095Y-43414285D01*
X205842857Y-43414285D01*
X205747619Y-43366666D01*
X205700000Y-43319047D01*
X205652380Y-43223809D01*
X205652380Y-42985714D01*
X205700000Y-42842857D01*
X205652380Y-41938095D02*
X205652380Y-42414285D01*
X206128571Y-42461904D01*
X206080952Y-42414285D01*
X206033333Y-42319047D01*
X206033333Y-42080952D01*
X206080952Y-41985714D01*
X206128571Y-41938095D01*
X206223809Y-41890476D01*
X206461904Y-41890476D01*
X206557142Y-41938095D01*
X206604761Y-41985714D01*
X206652380Y-42080952D01*
X206652380Y-42319047D01*
X206604761Y-42414285D01*
X206557142Y-42461904D01*
X205747619Y-41509523D02*
X205700000Y-41461904D01*
X205652380Y-41366666D01*
X205652380Y-41128571D01*
X205700000Y-41033333D01*
X205747619Y-40985714D01*
X205842857Y-40938095D01*
X205938095Y-40938095D01*
X206080952Y-40985714D01*
X206652380Y-41557142D01*
X206652380Y-40938095D01*
X208552380Y-47064285D02*
X208552380Y-47635714D01*
X208552380Y-47350000D02*
X207552380Y-47350000D01*
X207695238Y-47445238D01*
X207790476Y-47540476D01*
X207838095Y-47635714D01*
%TO.C,R3*%
X133282380Y-79066666D02*
X132806190Y-79400000D01*
X133282380Y-79638095D02*
X132282380Y-79638095D01*
X132282380Y-79257142D01*
X132330000Y-79161904D01*
X132377619Y-79114285D01*
X132472857Y-79066666D01*
X132615714Y-79066666D01*
X132710952Y-79114285D01*
X132758571Y-79161904D01*
X132806190Y-79257142D01*
X132806190Y-79638095D01*
X132282380Y-78733333D02*
X132282380Y-78114285D01*
X132663333Y-78447619D01*
X132663333Y-78304761D01*
X132710952Y-78209523D01*
X132758571Y-78161904D01*
X132853809Y-78114285D01*
X133091904Y-78114285D01*
X133187142Y-78161904D01*
X133234761Y-78209523D01*
X133282380Y-78304761D01*
X133282380Y-78590476D01*
X133234761Y-78685714D01*
X133187142Y-78733333D01*
%TO.C,POS31*%
X141482683Y-138752376D02*
X141482683Y-137752376D01*
X141863635Y-137752376D01*
X141958873Y-137799996D01*
X142006492Y-137847615D01*
X142054111Y-137942853D01*
X142054111Y-138085710D01*
X142006492Y-138180948D01*
X141958873Y-138228567D01*
X141863635Y-138276186D01*
X141482683Y-138276186D01*
X142673159Y-137752376D02*
X142863635Y-137752376D01*
X142958873Y-137799996D01*
X143054111Y-137895234D01*
X143101730Y-138085710D01*
X143101730Y-138419043D01*
X143054111Y-138609519D01*
X142958873Y-138704757D01*
X142863635Y-138752376D01*
X142673159Y-138752376D01*
X142577921Y-138704757D01*
X142482683Y-138609519D01*
X142435064Y-138419043D01*
X142435064Y-138085710D01*
X142482683Y-137895234D01*
X142577921Y-137799996D01*
X142673159Y-137752376D01*
X143482683Y-138704757D02*
X143625540Y-138752376D01*
X143863635Y-138752376D01*
X143958873Y-138704757D01*
X144006492Y-138657138D01*
X144054111Y-138561900D01*
X144054111Y-138466662D01*
X144006492Y-138371424D01*
X143958873Y-138323805D01*
X143863635Y-138276186D01*
X143673159Y-138228567D01*
X143577921Y-138180948D01*
X143530302Y-138133329D01*
X143482683Y-138038091D01*
X143482683Y-137942853D01*
X143530302Y-137847615D01*
X143577921Y-137799996D01*
X143673159Y-137752376D01*
X143911254Y-137752376D01*
X144054111Y-137799996D01*
X144387445Y-137752376D02*
X145006492Y-137752376D01*
X144673159Y-138133329D01*
X144816016Y-138133329D01*
X144911254Y-138180948D01*
X144958873Y-138228567D01*
X145006492Y-138323805D01*
X145006492Y-138561900D01*
X144958873Y-138657138D01*
X144911254Y-138704757D01*
X144816016Y-138752376D01*
X144530302Y-138752376D01*
X144435064Y-138704757D01*
X144387445Y-138657138D01*
X145958873Y-138752376D02*
X145387445Y-138752376D01*
X145673159Y-138752376D02*
X145673159Y-137752376D01*
X145577921Y-137895234D01*
X145482683Y-137990472D01*
X145387445Y-138038091D01*
X139832683Y-140652376D02*
X139261254Y-140652376D01*
X139546969Y-140652376D02*
X139546969Y-139652376D01*
X139451730Y-139795234D01*
X139356492Y-139890472D01*
X139261254Y-139938091D01*
%TO.C,POS18*%
X94552377Y-103014285D02*
X93552377Y-103014285D01*
X93552377Y-102633333D01*
X93599997Y-102538095D01*
X93647616Y-102490476D01*
X93742854Y-102442857D01*
X93885711Y-102442857D01*
X93980949Y-102490476D01*
X94028568Y-102538095D01*
X94076187Y-102633333D01*
X94076187Y-103014285D01*
X93552377Y-101823809D02*
X93552377Y-101633333D01*
X93599997Y-101538095D01*
X93695235Y-101442857D01*
X93885711Y-101395238D01*
X94219044Y-101395238D01*
X94409520Y-101442857D01*
X94504758Y-101538095D01*
X94552377Y-101633333D01*
X94552377Y-101823809D01*
X94504758Y-101919047D01*
X94409520Y-102014285D01*
X94219044Y-102061904D01*
X93885711Y-102061904D01*
X93695235Y-102014285D01*
X93599997Y-101919047D01*
X93552377Y-101823809D01*
X94504758Y-101014285D02*
X94552377Y-100871428D01*
X94552377Y-100633333D01*
X94504758Y-100538095D01*
X94457139Y-100490476D01*
X94361901Y-100442857D01*
X94266663Y-100442857D01*
X94171425Y-100490476D01*
X94123806Y-100538095D01*
X94076187Y-100633333D01*
X94028568Y-100823809D01*
X93980949Y-100919047D01*
X93933330Y-100966666D01*
X93838092Y-101014285D01*
X93742854Y-101014285D01*
X93647616Y-100966666D01*
X93599997Y-100919047D01*
X93552377Y-100823809D01*
X93552377Y-100585714D01*
X93599997Y-100442857D01*
X94552377Y-99490476D02*
X94552377Y-100061904D01*
X94552377Y-99776190D02*
X93552377Y-99776190D01*
X93695235Y-99871428D01*
X93790473Y-99966666D01*
X93838092Y-100061904D01*
X93980949Y-98919047D02*
X93933330Y-99014285D01*
X93885711Y-99061904D01*
X93790473Y-99109523D01*
X93742854Y-99109523D01*
X93647616Y-99061904D01*
X93599997Y-99014285D01*
X93552377Y-98919047D01*
X93552377Y-98728571D01*
X93599997Y-98633333D01*
X93647616Y-98585714D01*
X93742854Y-98538095D01*
X93790473Y-98538095D01*
X93885711Y-98585714D01*
X93933330Y-98633333D01*
X93980949Y-98728571D01*
X93980949Y-98919047D01*
X94028568Y-99014285D01*
X94076187Y-99061904D01*
X94171425Y-99109523D01*
X94361901Y-99109523D01*
X94457139Y-99061904D01*
X94504758Y-99014285D01*
X94552377Y-98919047D01*
X94552377Y-98728571D01*
X94504758Y-98633333D01*
X94457139Y-98585714D01*
X94361901Y-98538095D01*
X94171425Y-98538095D01*
X94076187Y-98585714D01*
X94028568Y-98633333D01*
X93980949Y-98728571D01*
X92652377Y-96364285D02*
X92652377Y-96935714D01*
X92652377Y-96650000D02*
X91652377Y-96650000D01*
X91795235Y-96745238D01*
X91890473Y-96840476D01*
X91938092Y-96935714D01*
%TO.C,POS50*%
X198885714Y-28920057D02*
X198885714Y-27920057D01*
X199266666Y-27920057D01*
X199361904Y-27967677D01*
X199409523Y-28015296D01*
X199457142Y-28110534D01*
X199457142Y-28253391D01*
X199409523Y-28348629D01*
X199361904Y-28396248D01*
X199266666Y-28443867D01*
X198885714Y-28443867D01*
X200076190Y-27920057D02*
X200266666Y-27920057D01*
X200361904Y-27967677D01*
X200457142Y-28062915D01*
X200504761Y-28253391D01*
X200504761Y-28586724D01*
X200457142Y-28777200D01*
X200361904Y-28872438D01*
X200266666Y-28920057D01*
X200076190Y-28920057D01*
X199980952Y-28872438D01*
X199885714Y-28777200D01*
X199838095Y-28586724D01*
X199838095Y-28253391D01*
X199885714Y-28062915D01*
X199980952Y-27967677D01*
X200076190Y-27920057D01*
X200885714Y-28872438D02*
X201028571Y-28920057D01*
X201266666Y-28920057D01*
X201361904Y-28872438D01*
X201409523Y-28824819D01*
X201457142Y-28729581D01*
X201457142Y-28634343D01*
X201409523Y-28539105D01*
X201361904Y-28491486D01*
X201266666Y-28443867D01*
X201076190Y-28396248D01*
X200980952Y-28348629D01*
X200933333Y-28301010D01*
X200885714Y-28205772D01*
X200885714Y-28110534D01*
X200933333Y-28015296D01*
X200980952Y-27967677D01*
X201076190Y-27920057D01*
X201314285Y-27920057D01*
X201457142Y-27967677D01*
X202361904Y-27920057D02*
X201885714Y-27920057D01*
X201838095Y-28396248D01*
X201885714Y-28348629D01*
X201980952Y-28301010D01*
X202219047Y-28301010D01*
X202314285Y-28348629D01*
X202361904Y-28396248D01*
X202409523Y-28491486D01*
X202409523Y-28729581D01*
X202361904Y-28824819D01*
X202314285Y-28872438D01*
X202219047Y-28920057D01*
X201980952Y-28920057D01*
X201885714Y-28872438D01*
X201838095Y-28824819D01*
X203028571Y-27920057D02*
X203123809Y-27920057D01*
X203219047Y-27967677D01*
X203266666Y-28015296D01*
X203314285Y-28110534D01*
X203361904Y-28301010D01*
X203361904Y-28539105D01*
X203314285Y-28729581D01*
X203266666Y-28824819D01*
X203219047Y-28872438D01*
X203123809Y-28920057D01*
X203028571Y-28920057D01*
X202933333Y-28872438D01*
X202885714Y-28824819D01*
X202838095Y-28729581D01*
X202790476Y-28539105D01*
X202790476Y-28301010D01*
X202838095Y-28110534D01*
X202885714Y-28015296D01*
X202933333Y-27967677D01*
X203028571Y-27920057D01*
X205535714Y-27020057D02*
X204964285Y-27020057D01*
X205250000Y-27020057D02*
X205250000Y-26020057D01*
X205154761Y-26162915D01*
X205059523Y-26258153D01*
X204964285Y-26305772D01*
%TO.C,POS40*%
X107385714Y-32252380D02*
X107385714Y-31252380D01*
X107766666Y-31252380D01*
X107861904Y-31300000D01*
X107909523Y-31347619D01*
X107957142Y-31442857D01*
X107957142Y-31585714D01*
X107909523Y-31680952D01*
X107861904Y-31728571D01*
X107766666Y-31776190D01*
X107385714Y-31776190D01*
X108576190Y-31252380D02*
X108766666Y-31252380D01*
X108861904Y-31300000D01*
X108957142Y-31395238D01*
X109004761Y-31585714D01*
X109004761Y-31919047D01*
X108957142Y-32109523D01*
X108861904Y-32204761D01*
X108766666Y-32252380D01*
X108576190Y-32252380D01*
X108480952Y-32204761D01*
X108385714Y-32109523D01*
X108338095Y-31919047D01*
X108338095Y-31585714D01*
X108385714Y-31395238D01*
X108480952Y-31300000D01*
X108576190Y-31252380D01*
X109385714Y-32204761D02*
X109528571Y-32252380D01*
X109766666Y-32252380D01*
X109861904Y-32204761D01*
X109909523Y-32157142D01*
X109957142Y-32061904D01*
X109957142Y-31966666D01*
X109909523Y-31871428D01*
X109861904Y-31823809D01*
X109766666Y-31776190D01*
X109576190Y-31728571D01*
X109480952Y-31680952D01*
X109433333Y-31633333D01*
X109385714Y-31538095D01*
X109385714Y-31442857D01*
X109433333Y-31347619D01*
X109480952Y-31300000D01*
X109576190Y-31252380D01*
X109814285Y-31252380D01*
X109957142Y-31300000D01*
X110814285Y-31585714D02*
X110814285Y-32252380D01*
X110576190Y-31204761D02*
X110338095Y-31919047D01*
X110957142Y-31919047D01*
X111528571Y-31252380D02*
X111623809Y-31252380D01*
X111719047Y-31300000D01*
X111766666Y-31347619D01*
X111814285Y-31442857D01*
X111861904Y-31633333D01*
X111861904Y-31871428D01*
X111814285Y-32061904D01*
X111766666Y-32157142D01*
X111719047Y-32204761D01*
X111623809Y-32252380D01*
X111528571Y-32252380D01*
X111433333Y-32204761D01*
X111385714Y-32157142D01*
X111338095Y-32061904D01*
X111290476Y-31871428D01*
X111290476Y-31633333D01*
X111338095Y-31442857D01*
X111385714Y-31347619D01*
X111433333Y-31300000D01*
X111528571Y-31252380D01*
X114035714Y-30352380D02*
X113464285Y-30352380D01*
X113750000Y-30352380D02*
X113750000Y-29352380D01*
X113654761Y-29495238D01*
X113559523Y-29590476D01*
X113464285Y-29638095D01*
%TO.C,POS53*%
X202352380Y-57414285D02*
X201352380Y-57414285D01*
X201352380Y-57033333D01*
X201400000Y-56938095D01*
X201447619Y-56890476D01*
X201542857Y-56842857D01*
X201685714Y-56842857D01*
X201780952Y-56890476D01*
X201828571Y-56938095D01*
X201876190Y-57033333D01*
X201876190Y-57414285D01*
X201352380Y-56223809D02*
X201352380Y-56033333D01*
X201400000Y-55938095D01*
X201495238Y-55842857D01*
X201685714Y-55795238D01*
X202019047Y-55795238D01*
X202209523Y-55842857D01*
X202304761Y-55938095D01*
X202352380Y-56033333D01*
X202352380Y-56223809D01*
X202304761Y-56319047D01*
X202209523Y-56414285D01*
X202019047Y-56461904D01*
X201685714Y-56461904D01*
X201495238Y-56414285D01*
X201400000Y-56319047D01*
X201352380Y-56223809D01*
X202304761Y-55414285D02*
X202352380Y-55271428D01*
X202352380Y-55033333D01*
X202304761Y-54938095D01*
X202257142Y-54890476D01*
X202161904Y-54842857D01*
X202066666Y-54842857D01*
X201971428Y-54890476D01*
X201923809Y-54938095D01*
X201876190Y-55033333D01*
X201828571Y-55223809D01*
X201780952Y-55319047D01*
X201733333Y-55366666D01*
X201638095Y-55414285D01*
X201542857Y-55414285D01*
X201447619Y-55366666D01*
X201400000Y-55319047D01*
X201352380Y-55223809D01*
X201352380Y-54985714D01*
X201400000Y-54842857D01*
X201352380Y-53938095D02*
X201352380Y-54414285D01*
X201828571Y-54461904D01*
X201780952Y-54414285D01*
X201733333Y-54319047D01*
X201733333Y-54080952D01*
X201780952Y-53985714D01*
X201828571Y-53938095D01*
X201923809Y-53890476D01*
X202161904Y-53890476D01*
X202257142Y-53938095D01*
X202304761Y-53985714D01*
X202352380Y-54080952D01*
X202352380Y-54319047D01*
X202304761Y-54414285D01*
X202257142Y-54461904D01*
X201352380Y-53557142D02*
X201352380Y-52938095D01*
X201733333Y-53271428D01*
X201733333Y-53128571D01*
X201780952Y-53033333D01*
X201828571Y-52985714D01*
X201923809Y-52938095D01*
X202161904Y-52938095D01*
X202257142Y-52985714D01*
X202304761Y-53033333D01*
X202352380Y-53128571D01*
X202352380Y-53414285D01*
X202304761Y-53509523D01*
X202257142Y-53557142D01*
X204252380Y-59064285D02*
X204252380Y-59635714D01*
X204252380Y-59350000D02*
X203252380Y-59350000D01*
X203395238Y-59445238D01*
X203490476Y-59540476D01*
X203538095Y-59635714D01*
%TO.C,POS24*%
X159052375Y-39314285D02*
X158052375Y-39314285D01*
X158052375Y-38933333D01*
X158099995Y-38838095D01*
X158147614Y-38790476D01*
X158242852Y-38742857D01*
X158385709Y-38742857D01*
X158480947Y-38790476D01*
X158528566Y-38838095D01*
X158576185Y-38933333D01*
X158576185Y-39314285D01*
X158052375Y-38123809D02*
X158052375Y-37933333D01*
X158099995Y-37838095D01*
X158195233Y-37742857D01*
X158385709Y-37695238D01*
X158719042Y-37695238D01*
X158909518Y-37742857D01*
X159004756Y-37838095D01*
X159052375Y-37933333D01*
X159052375Y-38123809D01*
X159004756Y-38219047D01*
X158909518Y-38314285D01*
X158719042Y-38361904D01*
X158385709Y-38361904D01*
X158195233Y-38314285D01*
X158099995Y-38219047D01*
X158052375Y-38123809D01*
X159004756Y-37314285D02*
X159052375Y-37171428D01*
X159052375Y-36933333D01*
X159004756Y-36838095D01*
X158957137Y-36790476D01*
X158861899Y-36742857D01*
X158766661Y-36742857D01*
X158671423Y-36790476D01*
X158623804Y-36838095D01*
X158576185Y-36933333D01*
X158528566Y-37123809D01*
X158480947Y-37219047D01*
X158433328Y-37266666D01*
X158338090Y-37314285D01*
X158242852Y-37314285D01*
X158147614Y-37266666D01*
X158099995Y-37219047D01*
X158052375Y-37123809D01*
X158052375Y-36885714D01*
X158099995Y-36742857D01*
X158147614Y-36361904D02*
X158099995Y-36314285D01*
X158052375Y-36219047D01*
X158052375Y-35980952D01*
X158099995Y-35885714D01*
X158147614Y-35838095D01*
X158242852Y-35790476D01*
X158338090Y-35790476D01*
X158480947Y-35838095D01*
X159052375Y-36409523D01*
X159052375Y-35790476D01*
X158385709Y-34933333D02*
X159052375Y-34933333D01*
X158004756Y-35171428D02*
X158719042Y-35409523D01*
X158719042Y-34790476D01*
X157152375Y-32664285D02*
X157152375Y-33235714D01*
X157152375Y-32950000D02*
X156152375Y-32950000D01*
X156295233Y-33045238D01*
X156390471Y-33140476D01*
X156438090Y-33235714D01*
%TO.C,POS80*%
X88385714Y-116452380D02*
X88385714Y-115452380D01*
X88766666Y-115452380D01*
X88861904Y-115500000D01*
X88909523Y-115547619D01*
X88957142Y-115642857D01*
X88957142Y-115785714D01*
X88909523Y-115880952D01*
X88861904Y-115928571D01*
X88766666Y-115976190D01*
X88385714Y-115976190D01*
X89576190Y-115452380D02*
X89766666Y-115452380D01*
X89861904Y-115500000D01*
X89957142Y-115595238D01*
X90004761Y-115785714D01*
X90004761Y-116119047D01*
X89957142Y-116309523D01*
X89861904Y-116404761D01*
X89766666Y-116452380D01*
X89576190Y-116452380D01*
X89480952Y-116404761D01*
X89385714Y-116309523D01*
X89338095Y-116119047D01*
X89338095Y-115785714D01*
X89385714Y-115595238D01*
X89480952Y-115500000D01*
X89576190Y-115452380D01*
X90385714Y-116404761D02*
X90528571Y-116452380D01*
X90766666Y-116452380D01*
X90861904Y-116404761D01*
X90909523Y-116357142D01*
X90957142Y-116261904D01*
X90957142Y-116166666D01*
X90909523Y-116071428D01*
X90861904Y-116023809D01*
X90766666Y-115976190D01*
X90576190Y-115928571D01*
X90480952Y-115880952D01*
X90433333Y-115833333D01*
X90385714Y-115738095D01*
X90385714Y-115642857D01*
X90433333Y-115547619D01*
X90480952Y-115500000D01*
X90576190Y-115452380D01*
X90814285Y-115452380D01*
X90957142Y-115500000D01*
X91528571Y-115880952D02*
X91433333Y-115833333D01*
X91385714Y-115785714D01*
X91338095Y-115690476D01*
X91338095Y-115642857D01*
X91385714Y-115547619D01*
X91433333Y-115500000D01*
X91528571Y-115452380D01*
X91719047Y-115452380D01*
X91814285Y-115500000D01*
X91861904Y-115547619D01*
X91909523Y-115642857D01*
X91909523Y-115690476D01*
X91861904Y-115785714D01*
X91814285Y-115833333D01*
X91719047Y-115880952D01*
X91528571Y-115880952D01*
X91433333Y-115928571D01*
X91385714Y-115976190D01*
X91338095Y-116071428D01*
X91338095Y-116261904D01*
X91385714Y-116357142D01*
X91433333Y-116404761D01*
X91528571Y-116452380D01*
X91719047Y-116452380D01*
X91814285Y-116404761D01*
X91861904Y-116357142D01*
X91909523Y-116261904D01*
X91909523Y-116071428D01*
X91861904Y-115976190D01*
X91814285Y-115928571D01*
X91719047Y-115880952D01*
X92528571Y-115452380D02*
X92623809Y-115452380D01*
X92719047Y-115500000D01*
X92766666Y-115547619D01*
X92814285Y-115642857D01*
X92861904Y-115833333D01*
X92861904Y-116071428D01*
X92814285Y-116261904D01*
X92766666Y-116357142D01*
X92719047Y-116404761D01*
X92623809Y-116452380D01*
X92528571Y-116452380D01*
X92433333Y-116404761D01*
X92385714Y-116357142D01*
X92338095Y-116261904D01*
X92290476Y-116071428D01*
X92290476Y-115833333D01*
X92338095Y-115642857D01*
X92385714Y-115547619D01*
X92433333Y-115500000D01*
X92528571Y-115452380D01*
X95035714Y-114552380D02*
X94464285Y-114552380D01*
X94750000Y-114552380D02*
X94750000Y-113552380D01*
X94654761Y-113695238D01*
X94559523Y-113790476D01*
X94464285Y-113838095D01*
%TO.C,POS47*%
X170852380Y-39314285D02*
X169852380Y-39314285D01*
X169852380Y-38933333D01*
X169900000Y-38838095D01*
X169947619Y-38790476D01*
X170042857Y-38742857D01*
X170185714Y-38742857D01*
X170280952Y-38790476D01*
X170328571Y-38838095D01*
X170376190Y-38933333D01*
X170376190Y-39314285D01*
X169852380Y-38123809D02*
X169852380Y-37933333D01*
X169900000Y-37838095D01*
X169995238Y-37742857D01*
X170185714Y-37695238D01*
X170519047Y-37695238D01*
X170709523Y-37742857D01*
X170804761Y-37838095D01*
X170852380Y-37933333D01*
X170852380Y-38123809D01*
X170804761Y-38219047D01*
X170709523Y-38314285D01*
X170519047Y-38361904D01*
X170185714Y-38361904D01*
X169995238Y-38314285D01*
X169900000Y-38219047D01*
X169852380Y-38123809D01*
X170804761Y-37314285D02*
X170852380Y-37171428D01*
X170852380Y-36933333D01*
X170804761Y-36838095D01*
X170757142Y-36790476D01*
X170661904Y-36742857D01*
X170566666Y-36742857D01*
X170471428Y-36790476D01*
X170423809Y-36838095D01*
X170376190Y-36933333D01*
X170328571Y-37123809D01*
X170280952Y-37219047D01*
X170233333Y-37266666D01*
X170138095Y-37314285D01*
X170042857Y-37314285D01*
X169947619Y-37266666D01*
X169900000Y-37219047D01*
X169852380Y-37123809D01*
X169852380Y-36885714D01*
X169900000Y-36742857D01*
X170185714Y-35885714D02*
X170852380Y-35885714D01*
X169804761Y-36123809D02*
X170519047Y-36361904D01*
X170519047Y-35742857D01*
X169852380Y-35457142D02*
X169852380Y-34790476D01*
X170852380Y-35219047D01*
X168952380Y-32664285D02*
X168952380Y-33235714D01*
X168952380Y-32950000D02*
X167952380Y-32950000D01*
X168095238Y-33045238D01*
X168190476Y-33140476D01*
X168238095Y-33235714D01*
%TO.C,POS30*%
X151952375Y-144014281D02*
X150952375Y-144014281D01*
X150952375Y-143633329D01*
X150999995Y-143538091D01*
X151047614Y-143490472D01*
X151142852Y-143442853D01*
X151285709Y-143442853D01*
X151380947Y-143490472D01*
X151428566Y-143538091D01*
X151476185Y-143633329D01*
X151476185Y-144014281D01*
X150952375Y-142823805D02*
X150952375Y-142633329D01*
X150999995Y-142538091D01*
X151095233Y-142442853D01*
X151285709Y-142395234D01*
X151619042Y-142395234D01*
X151809518Y-142442853D01*
X151904756Y-142538091D01*
X151952375Y-142633329D01*
X151952375Y-142823805D01*
X151904756Y-142919043D01*
X151809518Y-143014281D01*
X151619042Y-143061900D01*
X151285709Y-143061900D01*
X151095233Y-143014281D01*
X150999995Y-142919043D01*
X150952375Y-142823805D01*
X151904756Y-142014281D02*
X151952375Y-141871424D01*
X151952375Y-141633329D01*
X151904756Y-141538091D01*
X151857137Y-141490472D01*
X151761899Y-141442853D01*
X151666661Y-141442853D01*
X151571423Y-141490472D01*
X151523804Y-141538091D01*
X151476185Y-141633329D01*
X151428566Y-141823805D01*
X151380947Y-141919043D01*
X151333328Y-141966662D01*
X151238090Y-142014281D01*
X151142852Y-142014281D01*
X151047614Y-141966662D01*
X150999995Y-141919043D01*
X150952375Y-141823805D01*
X150952375Y-141585710D01*
X150999995Y-141442853D01*
X150952375Y-141109519D02*
X150952375Y-140490472D01*
X151333328Y-140823805D01*
X151333328Y-140680948D01*
X151380947Y-140585710D01*
X151428566Y-140538091D01*
X151523804Y-140490472D01*
X151761899Y-140490472D01*
X151857137Y-140538091D01*
X151904756Y-140585710D01*
X151952375Y-140680948D01*
X151952375Y-140966662D01*
X151904756Y-141061900D01*
X151857137Y-141109519D01*
X150952375Y-139871424D02*
X150952375Y-139776186D01*
X150999995Y-139680948D01*
X151047614Y-139633329D01*
X151142852Y-139585710D01*
X151333328Y-139538091D01*
X151571423Y-139538091D01*
X151761899Y-139585710D01*
X151857137Y-139633329D01*
X151904756Y-139680948D01*
X151952375Y-139776186D01*
X151952375Y-139871424D01*
X151904756Y-139966662D01*
X151857137Y-140014281D01*
X151761899Y-140061900D01*
X151571423Y-140109519D01*
X151333328Y-140109519D01*
X151142852Y-140061900D01*
X151047614Y-140014281D01*
X150999995Y-139966662D01*
X150952375Y-139871424D01*
X153852375Y-145664281D02*
X153852375Y-146235710D01*
X153852375Y-145949996D02*
X152852375Y-145949996D01*
X152995233Y-146045234D01*
X153090471Y-146140472D01*
X153138090Y-146235710D01*
%TO.C,FIN8*%
X190604761Y-45428571D02*
X190271428Y-45428571D01*
X190271428Y-45952380D02*
X190271428Y-44952380D01*
X190747619Y-44952380D01*
X191128571Y-45952380D02*
X191128571Y-44952380D01*
X191604761Y-45952380D02*
X191604761Y-44952380D01*
X192176190Y-45952380D01*
X192176190Y-44952380D01*
X192795238Y-45380952D02*
X192700000Y-45333333D01*
X192652380Y-45285714D01*
X192604761Y-45190476D01*
X192604761Y-45142857D01*
X192652380Y-45047619D01*
X192700000Y-45000000D01*
X192795238Y-44952380D01*
X192985714Y-44952380D01*
X193080952Y-45000000D01*
X193128571Y-45047619D01*
X193176190Y-45142857D01*
X193176190Y-45190476D01*
X193128571Y-45285714D01*
X193080952Y-45333333D01*
X192985714Y-45380952D01*
X192795238Y-45380952D01*
X192700000Y-45428571D01*
X192652380Y-45476190D01*
X192604761Y-45571428D01*
X192604761Y-45761904D01*
X192652380Y-45857142D01*
X192700000Y-45904761D01*
X192795238Y-45952380D01*
X192985714Y-45952380D01*
X193080952Y-45904761D01*
X193128571Y-45857142D01*
X193176190Y-45761904D01*
X193176190Y-45571428D01*
X193128571Y-45476190D01*
X193080952Y-45428571D01*
X192985714Y-45380952D01*
X196135714Y-44052380D02*
X195564285Y-44052380D01*
X195850000Y-44052380D02*
X195850000Y-43052380D01*
X195754761Y-43195238D01*
X195659523Y-43290476D01*
X195564285Y-43338095D01*
%TO.C,FIN12*%
X188128571Y-138571428D02*
X188128571Y-138904761D01*
X188652380Y-138904761D02*
X187652380Y-138904761D01*
X187652380Y-138428571D01*
X188652380Y-138047619D02*
X187652380Y-138047619D01*
X188652380Y-137571428D02*
X187652380Y-137571428D01*
X188652380Y-137000000D01*
X187652380Y-137000000D01*
X188652380Y-136000000D02*
X188652380Y-136571428D01*
X188652380Y-136285714D02*
X187652380Y-136285714D01*
X187795238Y-136380952D01*
X187890476Y-136476190D01*
X187938095Y-136571428D01*
X187747619Y-135619047D02*
X187700000Y-135571428D01*
X187652380Y-135476190D01*
X187652380Y-135238095D01*
X187700000Y-135142857D01*
X187747619Y-135095238D01*
X187842857Y-135047619D01*
X187938095Y-135047619D01*
X188080952Y-135095238D01*
X188652380Y-135666666D01*
X188652380Y-135047619D01*
X190552380Y-140864285D02*
X190552380Y-141435714D01*
X190552380Y-141150000D02*
X189552380Y-141150000D01*
X189695238Y-141245238D01*
X189790476Y-141340476D01*
X189838095Y-141435714D01*
%TO.C,FIN16*%
X94328571Y-133428571D02*
X93995238Y-133428571D01*
X93995238Y-133952380D02*
X93995238Y-132952380D01*
X94471428Y-132952380D01*
X94852380Y-133952380D02*
X94852380Y-132952380D01*
X95328571Y-133952380D02*
X95328571Y-132952380D01*
X95900000Y-133952380D01*
X95900000Y-132952380D01*
X96900000Y-133952380D02*
X96328571Y-133952380D01*
X96614285Y-133952380D02*
X96614285Y-132952380D01*
X96519047Y-133095238D01*
X96423809Y-133190476D01*
X96328571Y-133238095D01*
X97757142Y-132952380D02*
X97566666Y-132952380D01*
X97471428Y-133000000D01*
X97423809Y-133047619D01*
X97328571Y-133190476D01*
X97280952Y-133380952D01*
X97280952Y-133761904D01*
X97328571Y-133857142D01*
X97376190Y-133904761D01*
X97471428Y-133952380D01*
X97661904Y-133952380D01*
X97757142Y-133904761D01*
X97804761Y-133857142D01*
X97852380Y-133761904D01*
X97852380Y-133523809D01*
X97804761Y-133428571D01*
X97757142Y-133380952D01*
X97661904Y-133333333D01*
X97471428Y-133333333D01*
X97376190Y-133380952D01*
X97328571Y-133428571D01*
X97280952Y-133523809D01*
X92035714Y-135852380D02*
X91464285Y-135852380D01*
X91750000Y-135852380D02*
X91750000Y-134852380D01*
X91654761Y-134995238D01*
X91559523Y-135090476D01*
X91464285Y-135138095D01*
%TO.C,FIN11*%
X180628571Y-131071428D02*
X180628571Y-131404761D01*
X181152380Y-131404761D02*
X180152380Y-131404761D01*
X180152380Y-130928571D01*
X181152380Y-130547619D02*
X180152380Y-130547619D01*
X181152380Y-130071428D02*
X180152380Y-130071428D01*
X181152380Y-129500000D01*
X180152380Y-129500000D01*
X181152380Y-128500000D02*
X181152380Y-129071428D01*
X181152380Y-128785714D02*
X180152380Y-128785714D01*
X180295238Y-128880952D01*
X180390476Y-128976190D01*
X180438095Y-129071428D01*
X181152380Y-127547619D02*
X181152380Y-128119047D01*
X181152380Y-127833333D02*
X180152380Y-127833333D01*
X180295238Y-127928571D01*
X180390476Y-128023809D01*
X180438095Y-128119047D01*
X183052380Y-133364285D02*
X183052380Y-133935714D01*
X183052380Y-133650000D02*
X182052380Y-133650000D01*
X182195238Y-133745238D01*
X182290476Y-133840476D01*
X182338095Y-133935714D01*
%TO.C,POS27*%
X194285702Y-86449356D02*
X194285702Y-85449356D01*
X194666654Y-85449356D01*
X194761892Y-85496976D01*
X194809511Y-85544595D01*
X194857130Y-85639833D01*
X194857130Y-85782690D01*
X194809511Y-85877928D01*
X194761892Y-85925547D01*
X194666654Y-85973166D01*
X194285702Y-85973166D01*
X195476178Y-85449356D02*
X195666654Y-85449356D01*
X195761892Y-85496976D01*
X195857130Y-85592214D01*
X195904749Y-85782690D01*
X195904749Y-86116023D01*
X195857130Y-86306499D01*
X195761892Y-86401737D01*
X195666654Y-86449356D01*
X195476178Y-86449356D01*
X195380940Y-86401737D01*
X195285702Y-86306499D01*
X195238083Y-86116023D01*
X195238083Y-85782690D01*
X195285702Y-85592214D01*
X195380940Y-85496976D01*
X195476178Y-85449356D01*
X196285702Y-86401737D02*
X196428559Y-86449356D01*
X196666654Y-86449356D01*
X196761892Y-86401737D01*
X196809511Y-86354118D01*
X196857130Y-86258880D01*
X196857130Y-86163642D01*
X196809511Y-86068404D01*
X196761892Y-86020785D01*
X196666654Y-85973166D01*
X196476178Y-85925547D01*
X196380940Y-85877928D01*
X196333321Y-85830309D01*
X196285702Y-85735071D01*
X196285702Y-85639833D01*
X196333321Y-85544595D01*
X196380940Y-85496976D01*
X196476178Y-85449356D01*
X196714273Y-85449356D01*
X196857130Y-85496976D01*
X197238083Y-85544595D02*
X197285702Y-85496976D01*
X197380940Y-85449356D01*
X197619035Y-85449356D01*
X197714273Y-85496976D01*
X197761892Y-85544595D01*
X197809511Y-85639833D01*
X197809511Y-85735071D01*
X197761892Y-85877928D01*
X197190464Y-86449356D01*
X197809511Y-86449356D01*
X198142845Y-85449356D02*
X198809511Y-85449356D01*
X198380940Y-86449356D01*
X192635702Y-88349356D02*
X192064273Y-88349356D01*
X192349988Y-88349356D02*
X192349988Y-87349356D01*
X192254749Y-87492214D01*
X192159511Y-87587452D01*
X192064273Y-87635071D01*
%TO.C,POS77*%
X82752380Y-148481962D02*
X81752380Y-148481962D01*
X81752380Y-148101010D01*
X81800000Y-148005772D01*
X81847619Y-147958153D01*
X81942857Y-147910534D01*
X82085714Y-147910534D01*
X82180952Y-147958153D01*
X82228571Y-148005772D01*
X82276190Y-148101010D01*
X82276190Y-148481962D01*
X81752380Y-147291486D02*
X81752380Y-147101010D01*
X81800000Y-147005772D01*
X81895238Y-146910534D01*
X82085714Y-146862915D01*
X82419047Y-146862915D01*
X82609523Y-146910534D01*
X82704761Y-147005772D01*
X82752380Y-147101010D01*
X82752380Y-147291486D01*
X82704761Y-147386724D01*
X82609523Y-147481962D01*
X82419047Y-147529581D01*
X82085714Y-147529581D01*
X81895238Y-147481962D01*
X81800000Y-147386724D01*
X81752380Y-147291486D01*
X82704761Y-146481962D02*
X82752380Y-146339105D01*
X82752380Y-146101010D01*
X82704761Y-146005772D01*
X82657142Y-145958153D01*
X82561904Y-145910534D01*
X82466666Y-145910534D01*
X82371428Y-145958153D01*
X82323809Y-146005772D01*
X82276190Y-146101010D01*
X82228571Y-146291486D01*
X82180952Y-146386724D01*
X82133333Y-146434343D01*
X82038095Y-146481962D01*
X81942857Y-146481962D01*
X81847619Y-146434343D01*
X81800000Y-146386724D01*
X81752380Y-146291486D01*
X81752380Y-146053391D01*
X81800000Y-145910534D01*
X81752380Y-145577200D02*
X81752380Y-144910534D01*
X82752380Y-145339105D01*
X81752380Y-144624819D02*
X81752380Y-143958153D01*
X82752380Y-144386724D01*
X80852380Y-141831962D02*
X80852380Y-142403391D01*
X80852380Y-142117677D02*
X79852380Y-142117677D01*
X79995238Y-142212915D01*
X80090476Y-142308153D01*
X80138095Y-142403391D01*
%TO.C,FIN7*%
X183104761Y-52928571D02*
X182771428Y-52928571D01*
X182771428Y-53452380D02*
X182771428Y-52452380D01*
X183247619Y-52452380D01*
X183628571Y-53452380D02*
X183628571Y-52452380D01*
X184104761Y-53452380D02*
X184104761Y-52452380D01*
X184676190Y-53452380D01*
X184676190Y-52452380D01*
X185057142Y-52452380D02*
X185723809Y-52452380D01*
X185295238Y-53452380D01*
X188635714Y-51552380D02*
X188064285Y-51552380D01*
X188350000Y-51552380D02*
X188350000Y-50552380D01*
X188254761Y-50695238D01*
X188159523Y-50790476D01*
X188064285Y-50838095D01*
%TO.C,POS23*%
X140802384Y-39314285D02*
X139802384Y-39314285D01*
X139802384Y-38933333D01*
X139850004Y-38838095D01*
X139897623Y-38790476D01*
X139992861Y-38742857D01*
X140135718Y-38742857D01*
X140230956Y-38790476D01*
X140278575Y-38838095D01*
X140326194Y-38933333D01*
X140326194Y-39314285D01*
X139802384Y-38123809D02*
X139802384Y-37933333D01*
X139850004Y-37838095D01*
X139945242Y-37742857D01*
X140135718Y-37695238D01*
X140469051Y-37695238D01*
X140659527Y-37742857D01*
X140754765Y-37838095D01*
X140802384Y-37933333D01*
X140802384Y-38123809D01*
X140754765Y-38219047D01*
X140659527Y-38314285D01*
X140469051Y-38361904D01*
X140135718Y-38361904D01*
X139945242Y-38314285D01*
X139850004Y-38219047D01*
X139802384Y-38123809D01*
X140754765Y-37314285D02*
X140802384Y-37171428D01*
X140802384Y-36933333D01*
X140754765Y-36838095D01*
X140707146Y-36790476D01*
X140611908Y-36742857D01*
X140516670Y-36742857D01*
X140421432Y-36790476D01*
X140373813Y-36838095D01*
X140326194Y-36933333D01*
X140278575Y-37123809D01*
X140230956Y-37219047D01*
X140183337Y-37266666D01*
X140088099Y-37314285D01*
X139992861Y-37314285D01*
X139897623Y-37266666D01*
X139850004Y-37219047D01*
X139802384Y-37123809D01*
X139802384Y-36885714D01*
X139850004Y-36742857D01*
X139897623Y-36361904D02*
X139850004Y-36314285D01*
X139802384Y-36219047D01*
X139802384Y-35980952D01*
X139850004Y-35885714D01*
X139897623Y-35838095D01*
X139992861Y-35790476D01*
X140088099Y-35790476D01*
X140230956Y-35838095D01*
X140802384Y-36409523D01*
X140802384Y-35790476D01*
X139802384Y-35457142D02*
X139802384Y-34838095D01*
X140183337Y-35171428D01*
X140183337Y-35028571D01*
X140230956Y-34933333D01*
X140278575Y-34885714D01*
X140373813Y-34838095D01*
X140611908Y-34838095D01*
X140707146Y-34885714D01*
X140754765Y-34933333D01*
X140802384Y-35028571D01*
X140802384Y-35314285D01*
X140754765Y-35409523D01*
X140707146Y-35457142D01*
X142702384Y-40964285D02*
X142702384Y-41535714D01*
X142702384Y-41250000D02*
X141702384Y-41250000D01*
X141845242Y-41345238D01*
X141940480Y-41440476D01*
X141988099Y-41535714D01*
%TO.C,POS45*%
X153952380Y-61814285D02*
X152952380Y-61814285D01*
X152952380Y-61433333D01*
X153000000Y-61338095D01*
X153047619Y-61290476D01*
X153142857Y-61242857D01*
X153285714Y-61242857D01*
X153380952Y-61290476D01*
X153428571Y-61338095D01*
X153476190Y-61433333D01*
X153476190Y-61814285D01*
X152952380Y-60623809D02*
X152952380Y-60433333D01*
X153000000Y-60338095D01*
X153095238Y-60242857D01*
X153285714Y-60195238D01*
X153619047Y-60195238D01*
X153809523Y-60242857D01*
X153904761Y-60338095D01*
X153952380Y-60433333D01*
X153952380Y-60623809D01*
X153904761Y-60719047D01*
X153809523Y-60814285D01*
X153619047Y-60861904D01*
X153285714Y-60861904D01*
X153095238Y-60814285D01*
X153000000Y-60719047D01*
X152952380Y-60623809D01*
X153904761Y-59814285D02*
X153952380Y-59671428D01*
X153952380Y-59433333D01*
X153904761Y-59338095D01*
X153857142Y-59290476D01*
X153761904Y-59242857D01*
X153666666Y-59242857D01*
X153571428Y-59290476D01*
X153523809Y-59338095D01*
X153476190Y-59433333D01*
X153428571Y-59623809D01*
X153380952Y-59719047D01*
X153333333Y-59766666D01*
X153238095Y-59814285D01*
X153142857Y-59814285D01*
X153047619Y-59766666D01*
X153000000Y-59719047D01*
X152952380Y-59623809D01*
X152952380Y-59385714D01*
X153000000Y-59242857D01*
X153285714Y-58385714D02*
X153952380Y-58385714D01*
X152904761Y-58623809D02*
X153619047Y-58861904D01*
X153619047Y-58242857D01*
X152952380Y-57385714D02*
X152952380Y-57861904D01*
X153428571Y-57909523D01*
X153380952Y-57861904D01*
X153333333Y-57766666D01*
X153333333Y-57528571D01*
X153380952Y-57433333D01*
X153428571Y-57385714D01*
X153523809Y-57338095D01*
X153761904Y-57338095D01*
X153857142Y-57385714D01*
X153904761Y-57433333D01*
X153952380Y-57528571D01*
X153952380Y-57766666D01*
X153904761Y-57861904D01*
X153857142Y-57909523D01*
X152052380Y-55164285D02*
X152052380Y-55735714D01*
X152052380Y-55450000D02*
X151052380Y-55450000D01*
X151195238Y-55545238D01*
X151290476Y-55640476D01*
X151338095Y-55735714D01*
%TO.C,FIN5*%
X167854761Y-67928571D02*
X167521428Y-67928571D01*
X167521428Y-68452380D02*
X167521428Y-67452380D01*
X167997619Y-67452380D01*
X168378571Y-68452380D02*
X168378571Y-67452380D01*
X168854761Y-68452380D02*
X168854761Y-67452380D01*
X169426190Y-68452380D01*
X169426190Y-67452380D01*
X170378571Y-67452380D02*
X169902380Y-67452380D01*
X169854761Y-67928571D01*
X169902380Y-67880952D01*
X169997619Y-67833333D01*
X170235714Y-67833333D01*
X170330952Y-67880952D01*
X170378571Y-67928571D01*
X170426190Y-68023809D01*
X170426190Y-68261904D01*
X170378571Y-68357142D01*
X170330952Y-68404761D01*
X170235714Y-68452380D01*
X169997619Y-68452380D01*
X169902380Y-68404761D01*
X169854761Y-68357142D01*
X173385714Y-66552380D02*
X172814285Y-66552380D01*
X173100000Y-66552380D02*
X173100000Y-65552380D01*
X173004761Y-65695238D01*
X172909523Y-65790476D01*
X172814285Y-65838095D01*
%TO.C,POS72*%
X127452380Y-132714285D02*
X126452380Y-132714285D01*
X126452380Y-132333333D01*
X126500000Y-132238095D01*
X126547619Y-132190476D01*
X126642857Y-132142857D01*
X126785714Y-132142857D01*
X126880952Y-132190476D01*
X126928571Y-132238095D01*
X126976190Y-132333333D01*
X126976190Y-132714285D01*
X126452380Y-131523809D02*
X126452380Y-131333333D01*
X126500000Y-131238095D01*
X126595238Y-131142857D01*
X126785714Y-131095238D01*
X127119047Y-131095238D01*
X127309523Y-131142857D01*
X127404761Y-131238095D01*
X127452380Y-131333333D01*
X127452380Y-131523809D01*
X127404761Y-131619047D01*
X127309523Y-131714285D01*
X127119047Y-131761904D01*
X126785714Y-131761904D01*
X126595238Y-131714285D01*
X126500000Y-131619047D01*
X126452380Y-131523809D01*
X127404761Y-130714285D02*
X127452380Y-130571428D01*
X127452380Y-130333333D01*
X127404761Y-130238095D01*
X127357142Y-130190476D01*
X127261904Y-130142857D01*
X127166666Y-130142857D01*
X127071428Y-130190476D01*
X127023809Y-130238095D01*
X126976190Y-130333333D01*
X126928571Y-130523809D01*
X126880952Y-130619047D01*
X126833333Y-130666666D01*
X126738095Y-130714285D01*
X126642857Y-130714285D01*
X126547619Y-130666666D01*
X126500000Y-130619047D01*
X126452380Y-130523809D01*
X126452380Y-130285714D01*
X126500000Y-130142857D01*
X126452380Y-129809523D02*
X126452380Y-129142857D01*
X127452380Y-129571428D01*
X126547619Y-128809523D02*
X126500000Y-128761904D01*
X126452380Y-128666666D01*
X126452380Y-128428571D01*
X126500000Y-128333333D01*
X126547619Y-128285714D01*
X126642857Y-128238095D01*
X126738095Y-128238095D01*
X126880952Y-128285714D01*
X127452380Y-128857142D01*
X127452380Y-128238095D01*
X129352380Y-134364285D02*
X129352380Y-134935714D01*
X129352380Y-134650000D02*
X128352380Y-134650000D01*
X128495238Y-134745238D01*
X128590476Y-134840476D01*
X128638095Y-134935714D01*
%TO.C,POS61*%
X202352376Y-125714285D02*
X201352376Y-125714285D01*
X201352376Y-125333333D01*
X201399996Y-125238095D01*
X201447615Y-125190476D01*
X201542853Y-125142857D01*
X201685710Y-125142857D01*
X201780948Y-125190476D01*
X201828567Y-125238095D01*
X201876186Y-125333333D01*
X201876186Y-125714285D01*
X201352376Y-124523809D02*
X201352376Y-124333333D01*
X201399996Y-124238095D01*
X201495234Y-124142857D01*
X201685710Y-124095238D01*
X202019043Y-124095238D01*
X202209519Y-124142857D01*
X202304757Y-124238095D01*
X202352376Y-124333333D01*
X202352376Y-124523809D01*
X202304757Y-124619047D01*
X202209519Y-124714285D01*
X202019043Y-124761904D01*
X201685710Y-124761904D01*
X201495234Y-124714285D01*
X201399996Y-124619047D01*
X201352376Y-124523809D01*
X202304757Y-123714285D02*
X202352376Y-123571428D01*
X202352376Y-123333333D01*
X202304757Y-123238095D01*
X202257138Y-123190476D01*
X202161900Y-123142857D01*
X202066662Y-123142857D01*
X201971424Y-123190476D01*
X201923805Y-123238095D01*
X201876186Y-123333333D01*
X201828567Y-123523809D01*
X201780948Y-123619047D01*
X201733329Y-123666666D01*
X201638091Y-123714285D01*
X201542853Y-123714285D01*
X201447615Y-123666666D01*
X201399996Y-123619047D01*
X201352376Y-123523809D01*
X201352376Y-123285714D01*
X201399996Y-123142857D01*
X201352376Y-122285714D02*
X201352376Y-122476190D01*
X201399996Y-122571428D01*
X201447615Y-122619047D01*
X201590472Y-122714285D01*
X201780948Y-122761904D01*
X202161900Y-122761904D01*
X202257138Y-122714285D01*
X202304757Y-122666666D01*
X202352376Y-122571428D01*
X202352376Y-122380952D01*
X202304757Y-122285714D01*
X202257138Y-122238095D01*
X202161900Y-122190476D01*
X201923805Y-122190476D01*
X201828567Y-122238095D01*
X201780948Y-122285714D01*
X201733329Y-122380952D01*
X201733329Y-122571428D01*
X201780948Y-122666666D01*
X201828567Y-122714285D01*
X201923805Y-122761904D01*
X202352376Y-121238095D02*
X202352376Y-121809523D01*
X202352376Y-121523809D02*
X201352376Y-121523809D01*
X201495234Y-121619047D01*
X201590472Y-121714285D01*
X201638091Y-121809523D01*
X204252376Y-127364285D02*
X204252376Y-127935714D01*
X204252376Y-127650000D02*
X203252376Y-127650000D01*
X203395234Y-127745238D01*
X203490472Y-127840476D01*
X203538091Y-127935714D01*
%TO.C,POS29*%
X141585706Y-127434695D02*
X141585706Y-126434695D01*
X141966658Y-126434695D01*
X142061896Y-126482315D01*
X142109515Y-126529934D01*
X142157134Y-126625172D01*
X142157134Y-126768029D01*
X142109515Y-126863267D01*
X142061896Y-126910886D01*
X141966658Y-126958505D01*
X141585706Y-126958505D01*
X142776182Y-126434695D02*
X142966658Y-126434695D01*
X143061896Y-126482315D01*
X143157134Y-126577553D01*
X143204753Y-126768029D01*
X143204753Y-127101362D01*
X143157134Y-127291838D01*
X143061896Y-127387076D01*
X142966658Y-127434695D01*
X142776182Y-127434695D01*
X142680944Y-127387076D01*
X142585706Y-127291838D01*
X142538087Y-127101362D01*
X142538087Y-126768029D01*
X142585706Y-126577553D01*
X142680944Y-126482315D01*
X142776182Y-126434695D01*
X143585706Y-127387076D02*
X143728563Y-127434695D01*
X143966658Y-127434695D01*
X144061896Y-127387076D01*
X144109515Y-127339457D01*
X144157134Y-127244219D01*
X144157134Y-127148981D01*
X144109515Y-127053743D01*
X144061896Y-127006124D01*
X143966658Y-126958505D01*
X143776182Y-126910886D01*
X143680944Y-126863267D01*
X143633325Y-126815648D01*
X143585706Y-126720410D01*
X143585706Y-126625172D01*
X143633325Y-126529934D01*
X143680944Y-126482315D01*
X143776182Y-126434695D01*
X144014277Y-126434695D01*
X144157134Y-126482315D01*
X144538087Y-126529934D02*
X144585706Y-126482315D01*
X144680944Y-126434695D01*
X144919039Y-126434695D01*
X145014277Y-126482315D01*
X145061896Y-126529934D01*
X145109515Y-126625172D01*
X145109515Y-126720410D01*
X145061896Y-126863267D01*
X144490468Y-127434695D01*
X145109515Y-127434695D01*
X145585706Y-127434695D02*
X145776182Y-127434695D01*
X145871420Y-127387076D01*
X145919039Y-127339457D01*
X146014277Y-127196600D01*
X146061896Y-127006124D01*
X146061896Y-126625172D01*
X146014277Y-126529934D01*
X145966658Y-126482315D01*
X145871420Y-126434695D01*
X145680944Y-126434695D01*
X145585706Y-126482315D01*
X145538087Y-126529934D01*
X145490468Y-126625172D01*
X145490468Y-126863267D01*
X145538087Y-126958505D01*
X145585706Y-127006124D01*
X145680944Y-127053743D01*
X145871420Y-127053743D01*
X145966658Y-127006124D01*
X146014277Y-126958505D01*
X146061896Y-126863267D01*
X139935706Y-129334695D02*
X139364277Y-129334695D01*
X139649992Y-129334695D02*
X139649992Y-128334695D01*
X139554753Y-128477553D01*
X139459515Y-128572791D01*
X139364277Y-128620410D01*
%TO.C,FIN14*%
X109428571Y-118528571D02*
X109095238Y-118528571D01*
X109095238Y-119052380D02*
X109095238Y-118052380D01*
X109571428Y-118052380D01*
X109952380Y-119052380D02*
X109952380Y-118052380D01*
X110428571Y-119052380D02*
X110428571Y-118052380D01*
X111000000Y-119052380D01*
X111000000Y-118052380D01*
X112000000Y-119052380D02*
X111428571Y-119052380D01*
X111714285Y-119052380D02*
X111714285Y-118052380D01*
X111619047Y-118195238D01*
X111523809Y-118290476D01*
X111428571Y-118338095D01*
X112857142Y-118385714D02*
X112857142Y-119052380D01*
X112619047Y-118004761D02*
X112380952Y-118719047D01*
X113000000Y-118719047D01*
X107135714Y-120952380D02*
X106564285Y-120952380D01*
X106850000Y-120952380D02*
X106850000Y-119952380D01*
X106754761Y-120095238D01*
X106659523Y-120190476D01*
X106564285Y-120238095D01*
%TO.C,POS48*%
X175985714Y-32152380D02*
X175985714Y-31152380D01*
X176366666Y-31152380D01*
X176461904Y-31200000D01*
X176509523Y-31247619D01*
X176557142Y-31342857D01*
X176557142Y-31485714D01*
X176509523Y-31580952D01*
X176461904Y-31628571D01*
X176366666Y-31676190D01*
X175985714Y-31676190D01*
X177176190Y-31152380D02*
X177366666Y-31152380D01*
X177461904Y-31200000D01*
X177557142Y-31295238D01*
X177604761Y-31485714D01*
X177604761Y-31819047D01*
X177557142Y-32009523D01*
X177461904Y-32104761D01*
X177366666Y-32152380D01*
X177176190Y-32152380D01*
X177080952Y-32104761D01*
X176985714Y-32009523D01*
X176938095Y-31819047D01*
X176938095Y-31485714D01*
X176985714Y-31295238D01*
X177080952Y-31200000D01*
X177176190Y-31152380D01*
X177985714Y-32104761D02*
X178128571Y-32152380D01*
X178366666Y-32152380D01*
X178461904Y-32104761D01*
X178509523Y-32057142D01*
X178557142Y-31961904D01*
X178557142Y-31866666D01*
X178509523Y-31771428D01*
X178461904Y-31723809D01*
X178366666Y-31676190D01*
X178176190Y-31628571D01*
X178080952Y-31580952D01*
X178033333Y-31533333D01*
X177985714Y-31438095D01*
X177985714Y-31342857D01*
X178033333Y-31247619D01*
X178080952Y-31200000D01*
X178176190Y-31152380D01*
X178414285Y-31152380D01*
X178557142Y-31200000D01*
X179414285Y-31485714D02*
X179414285Y-32152380D01*
X179176190Y-31104761D02*
X178938095Y-31819047D01*
X179557142Y-31819047D01*
X180080952Y-31580952D02*
X179985714Y-31533333D01*
X179938095Y-31485714D01*
X179890476Y-31390476D01*
X179890476Y-31342857D01*
X179938095Y-31247619D01*
X179985714Y-31200000D01*
X180080952Y-31152380D01*
X180271428Y-31152380D01*
X180366666Y-31200000D01*
X180414285Y-31247619D01*
X180461904Y-31342857D01*
X180461904Y-31390476D01*
X180414285Y-31485714D01*
X180366666Y-31533333D01*
X180271428Y-31580952D01*
X180080952Y-31580952D01*
X179985714Y-31628571D01*
X179938095Y-31676190D01*
X179890476Y-31771428D01*
X179890476Y-31961904D01*
X179938095Y-32057142D01*
X179985714Y-32104761D01*
X180080952Y-32152380D01*
X180271428Y-32152380D01*
X180366666Y-32104761D01*
X180414285Y-32057142D01*
X180461904Y-31961904D01*
X180461904Y-31771428D01*
X180414285Y-31676190D01*
X180366666Y-31628571D01*
X180271428Y-31580952D01*
X182635714Y-30252380D02*
X182064285Y-30252380D01*
X182350000Y-30252380D02*
X182350000Y-29252380D01*
X182254761Y-29395238D01*
X182159523Y-29490476D01*
X182064285Y-29538095D01*
%TO.C,POS41*%
X117652380Y-39314285D02*
X116652380Y-39314285D01*
X116652380Y-38933333D01*
X116700000Y-38838095D01*
X116747619Y-38790476D01*
X116842857Y-38742857D01*
X116985714Y-38742857D01*
X117080952Y-38790476D01*
X117128571Y-38838095D01*
X117176190Y-38933333D01*
X117176190Y-39314285D01*
X116652380Y-38123809D02*
X116652380Y-37933333D01*
X116700000Y-37838095D01*
X116795238Y-37742857D01*
X116985714Y-37695238D01*
X117319047Y-37695238D01*
X117509523Y-37742857D01*
X117604761Y-37838095D01*
X117652380Y-37933333D01*
X117652380Y-38123809D01*
X117604761Y-38219047D01*
X117509523Y-38314285D01*
X117319047Y-38361904D01*
X116985714Y-38361904D01*
X116795238Y-38314285D01*
X116700000Y-38219047D01*
X116652380Y-38123809D01*
X117604761Y-37314285D02*
X117652380Y-37171428D01*
X117652380Y-36933333D01*
X117604761Y-36838095D01*
X117557142Y-36790476D01*
X117461904Y-36742857D01*
X117366666Y-36742857D01*
X117271428Y-36790476D01*
X117223809Y-36838095D01*
X117176190Y-36933333D01*
X117128571Y-37123809D01*
X117080952Y-37219047D01*
X117033333Y-37266666D01*
X116938095Y-37314285D01*
X116842857Y-37314285D01*
X116747619Y-37266666D01*
X116700000Y-37219047D01*
X116652380Y-37123809D01*
X116652380Y-36885714D01*
X116700000Y-36742857D01*
X116985714Y-35885714D02*
X117652380Y-35885714D01*
X116604761Y-36123809D02*
X117319047Y-36361904D01*
X117319047Y-35742857D01*
X117652380Y-34838095D02*
X117652380Y-35409523D01*
X117652380Y-35123809D02*
X116652380Y-35123809D01*
X116795238Y-35219047D01*
X116890476Y-35314285D01*
X116938095Y-35409523D01*
X119552380Y-40964285D02*
X119552380Y-41535714D01*
X119552380Y-41250000D02*
X118552380Y-41250000D01*
X118695238Y-41345238D01*
X118790476Y-41440476D01*
X118838095Y-41535714D01*
%TO.C,FIN3*%
X107028571Y-50595238D02*
X107028571Y-50928571D01*
X107552380Y-50928571D02*
X106552380Y-50928571D01*
X106552380Y-50452380D01*
X107552380Y-50071428D02*
X106552380Y-50071428D01*
X107552380Y-49595238D02*
X106552380Y-49595238D01*
X107552380Y-49023809D01*
X106552380Y-49023809D01*
X106552380Y-48642857D02*
X106552380Y-48023809D01*
X106933333Y-48357142D01*
X106933333Y-48214285D01*
X106980952Y-48119047D01*
X107028571Y-48071428D01*
X107123809Y-48023809D01*
X107361904Y-48023809D01*
X107457142Y-48071428D01*
X107504761Y-48119047D01*
X107552380Y-48214285D01*
X107552380Y-48500000D01*
X107504761Y-48595238D01*
X107457142Y-48642857D01*
X105652380Y-45064285D02*
X105652380Y-45635714D01*
X105652380Y-45350000D02*
X104652380Y-45350000D01*
X104795238Y-45445238D01*
X104890476Y-45540476D01*
X104938095Y-45635714D01*
%TO.C,POS33*%
X99785713Y-72952380D02*
X99785713Y-71952380D01*
X100166665Y-71952380D01*
X100261903Y-72000000D01*
X100309522Y-72047619D01*
X100357141Y-72142857D01*
X100357141Y-72285714D01*
X100309522Y-72380952D01*
X100261903Y-72428571D01*
X100166665Y-72476190D01*
X99785713Y-72476190D01*
X100976189Y-71952380D02*
X101166665Y-71952380D01*
X101261903Y-72000000D01*
X101357141Y-72095238D01*
X101404760Y-72285714D01*
X101404760Y-72619047D01*
X101357141Y-72809523D01*
X101261903Y-72904761D01*
X101166665Y-72952380D01*
X100976189Y-72952380D01*
X100880951Y-72904761D01*
X100785713Y-72809523D01*
X100738094Y-72619047D01*
X100738094Y-72285714D01*
X100785713Y-72095238D01*
X100880951Y-72000000D01*
X100976189Y-71952380D01*
X101785713Y-72904761D02*
X101928570Y-72952380D01*
X102166665Y-72952380D01*
X102261903Y-72904761D01*
X102309522Y-72857142D01*
X102357141Y-72761904D01*
X102357141Y-72666666D01*
X102309522Y-72571428D01*
X102261903Y-72523809D01*
X102166665Y-72476190D01*
X101976189Y-72428571D01*
X101880951Y-72380952D01*
X101833332Y-72333333D01*
X101785713Y-72238095D01*
X101785713Y-72142857D01*
X101833332Y-72047619D01*
X101880951Y-72000000D01*
X101976189Y-71952380D01*
X102214284Y-71952380D01*
X102357141Y-72000000D01*
X102690475Y-71952380D02*
X103309522Y-71952380D01*
X102976189Y-72333333D01*
X103119046Y-72333333D01*
X103214284Y-72380952D01*
X103261903Y-72428571D01*
X103309522Y-72523809D01*
X103309522Y-72761904D01*
X103261903Y-72857142D01*
X103214284Y-72904761D01*
X103119046Y-72952380D01*
X102833332Y-72952380D01*
X102738094Y-72904761D01*
X102690475Y-72857142D01*
X103642856Y-71952380D02*
X104261903Y-71952380D01*
X103928570Y-72333333D01*
X104071427Y-72333333D01*
X104166665Y-72380952D01*
X104214284Y-72428571D01*
X104261903Y-72523809D01*
X104261903Y-72761904D01*
X104214284Y-72857142D01*
X104166665Y-72904761D01*
X104071427Y-72952380D01*
X103785713Y-72952380D01*
X103690475Y-72904761D01*
X103642856Y-72857142D01*
X98135713Y-74852380D02*
X97564284Y-74852380D01*
X97849999Y-74852380D02*
X97849999Y-73852380D01*
X97754760Y-73995238D01*
X97659522Y-74090476D01*
X97564284Y-74138095D01*
%TO.C,POS69*%
X153952380Y-121214285D02*
X152952380Y-121214285D01*
X152952380Y-120833333D01*
X153000000Y-120738095D01*
X153047619Y-120690476D01*
X153142857Y-120642857D01*
X153285714Y-120642857D01*
X153380952Y-120690476D01*
X153428571Y-120738095D01*
X153476190Y-120833333D01*
X153476190Y-121214285D01*
X152952380Y-120023809D02*
X152952380Y-119833333D01*
X153000000Y-119738095D01*
X153095238Y-119642857D01*
X153285714Y-119595238D01*
X153619047Y-119595238D01*
X153809523Y-119642857D01*
X153904761Y-119738095D01*
X153952380Y-119833333D01*
X153952380Y-120023809D01*
X153904761Y-120119047D01*
X153809523Y-120214285D01*
X153619047Y-120261904D01*
X153285714Y-120261904D01*
X153095238Y-120214285D01*
X153000000Y-120119047D01*
X152952380Y-120023809D01*
X153904761Y-119214285D02*
X153952380Y-119071428D01*
X153952380Y-118833333D01*
X153904761Y-118738095D01*
X153857142Y-118690476D01*
X153761904Y-118642857D01*
X153666666Y-118642857D01*
X153571428Y-118690476D01*
X153523809Y-118738095D01*
X153476190Y-118833333D01*
X153428571Y-119023809D01*
X153380952Y-119119047D01*
X153333333Y-119166666D01*
X153238095Y-119214285D01*
X153142857Y-119214285D01*
X153047619Y-119166666D01*
X153000000Y-119119047D01*
X152952380Y-119023809D01*
X152952380Y-118785714D01*
X153000000Y-118642857D01*
X152952380Y-117785714D02*
X152952380Y-117976190D01*
X153000000Y-118071428D01*
X153047619Y-118119047D01*
X153190476Y-118214285D01*
X153380952Y-118261904D01*
X153761904Y-118261904D01*
X153857142Y-118214285D01*
X153904761Y-118166666D01*
X153952380Y-118071428D01*
X153952380Y-117880952D01*
X153904761Y-117785714D01*
X153857142Y-117738095D01*
X153761904Y-117690476D01*
X153523809Y-117690476D01*
X153428571Y-117738095D01*
X153380952Y-117785714D01*
X153333333Y-117880952D01*
X153333333Y-118071428D01*
X153380952Y-118166666D01*
X153428571Y-118214285D01*
X153523809Y-118261904D01*
X153952380Y-117214285D02*
X153952380Y-117023809D01*
X153904761Y-116928571D01*
X153857142Y-116880952D01*
X153714285Y-116785714D01*
X153523809Y-116738095D01*
X153142857Y-116738095D01*
X153047619Y-116785714D01*
X153000000Y-116833333D01*
X152952380Y-116928571D01*
X152952380Y-117119047D01*
X153000000Y-117214285D01*
X153047619Y-117261904D01*
X153142857Y-117309523D01*
X153380952Y-117309523D01*
X153476190Y-117261904D01*
X153523809Y-117214285D01*
X153571428Y-117119047D01*
X153571428Y-116928571D01*
X153523809Y-116833333D01*
X153476190Y-116785714D01*
X153380952Y-116738095D01*
X152052380Y-114564285D02*
X152052380Y-115135714D01*
X152052380Y-114850000D02*
X151052380Y-114850000D01*
X151195238Y-114945238D01*
X151290476Y-115040476D01*
X151338095Y-115135714D01*
%TO.C,POS84*%
X111585714Y-80352380D02*
X111585714Y-79352380D01*
X111966666Y-79352380D01*
X112061904Y-79400000D01*
X112109523Y-79447619D01*
X112157142Y-79542857D01*
X112157142Y-79685714D01*
X112109523Y-79780952D01*
X112061904Y-79828571D01*
X111966666Y-79876190D01*
X111585714Y-79876190D01*
X112776190Y-79352380D02*
X112966666Y-79352380D01*
X113061904Y-79400000D01*
X113157142Y-79495238D01*
X113204761Y-79685714D01*
X113204761Y-80019047D01*
X113157142Y-80209523D01*
X113061904Y-80304761D01*
X112966666Y-80352380D01*
X112776190Y-80352380D01*
X112680952Y-80304761D01*
X112585714Y-80209523D01*
X112538095Y-80019047D01*
X112538095Y-79685714D01*
X112585714Y-79495238D01*
X112680952Y-79400000D01*
X112776190Y-79352380D01*
X113585714Y-80304761D02*
X113728571Y-80352380D01*
X113966666Y-80352380D01*
X114061904Y-80304761D01*
X114109523Y-80257142D01*
X114157142Y-80161904D01*
X114157142Y-80066666D01*
X114109523Y-79971428D01*
X114061904Y-79923809D01*
X113966666Y-79876190D01*
X113776190Y-79828571D01*
X113680952Y-79780952D01*
X113633333Y-79733333D01*
X113585714Y-79638095D01*
X113585714Y-79542857D01*
X113633333Y-79447619D01*
X113680952Y-79400000D01*
X113776190Y-79352380D01*
X114014285Y-79352380D01*
X114157142Y-79400000D01*
X114728571Y-79780952D02*
X114633333Y-79733333D01*
X114585714Y-79685714D01*
X114538095Y-79590476D01*
X114538095Y-79542857D01*
X114585714Y-79447619D01*
X114633333Y-79400000D01*
X114728571Y-79352380D01*
X114919047Y-79352380D01*
X115014285Y-79400000D01*
X115061904Y-79447619D01*
X115109523Y-79542857D01*
X115109523Y-79590476D01*
X115061904Y-79685714D01*
X115014285Y-79733333D01*
X114919047Y-79780952D01*
X114728571Y-79780952D01*
X114633333Y-79828571D01*
X114585714Y-79876190D01*
X114538095Y-79971428D01*
X114538095Y-80161904D01*
X114585714Y-80257142D01*
X114633333Y-80304761D01*
X114728571Y-80352380D01*
X114919047Y-80352380D01*
X115014285Y-80304761D01*
X115061904Y-80257142D01*
X115109523Y-80161904D01*
X115109523Y-79971428D01*
X115061904Y-79876190D01*
X115014285Y-79828571D01*
X114919047Y-79780952D01*
X115966666Y-79685714D02*
X115966666Y-80352380D01*
X115728571Y-79304761D02*
X115490476Y-80019047D01*
X116109523Y-80019047D01*
X109935714Y-82252380D02*
X109364285Y-82252380D01*
X109650000Y-82252380D02*
X109650000Y-81252380D01*
X109554761Y-81395238D01*
X109459523Y-81490476D01*
X109364285Y-81538095D01*
%TO.C,POS79*%
X79885714Y-127452380D02*
X79885714Y-126452380D01*
X80266666Y-126452380D01*
X80361904Y-126500000D01*
X80409523Y-126547619D01*
X80457142Y-126642857D01*
X80457142Y-126785714D01*
X80409523Y-126880952D01*
X80361904Y-126928571D01*
X80266666Y-126976190D01*
X79885714Y-126976190D01*
X81076190Y-126452380D02*
X81266666Y-126452380D01*
X81361904Y-126500000D01*
X81457142Y-126595238D01*
X81504761Y-126785714D01*
X81504761Y-127119047D01*
X81457142Y-127309523D01*
X81361904Y-127404761D01*
X81266666Y-127452380D01*
X81076190Y-127452380D01*
X80980952Y-127404761D01*
X80885714Y-127309523D01*
X80838095Y-127119047D01*
X80838095Y-126785714D01*
X80885714Y-126595238D01*
X80980952Y-126500000D01*
X81076190Y-126452380D01*
X81885714Y-127404761D02*
X82028571Y-127452380D01*
X82266666Y-127452380D01*
X82361904Y-127404761D01*
X82409523Y-127357142D01*
X82457142Y-127261904D01*
X82457142Y-127166666D01*
X82409523Y-127071428D01*
X82361904Y-127023809D01*
X82266666Y-126976190D01*
X82076190Y-126928571D01*
X81980952Y-126880952D01*
X81933333Y-126833333D01*
X81885714Y-126738095D01*
X81885714Y-126642857D01*
X81933333Y-126547619D01*
X81980952Y-126500000D01*
X82076190Y-126452380D01*
X82314285Y-126452380D01*
X82457142Y-126500000D01*
X82790476Y-126452380D02*
X83457142Y-126452380D01*
X83028571Y-127452380D01*
X83885714Y-127452380D02*
X84076190Y-127452380D01*
X84171428Y-127404761D01*
X84219047Y-127357142D01*
X84314285Y-127214285D01*
X84361904Y-127023809D01*
X84361904Y-126642857D01*
X84314285Y-126547619D01*
X84266666Y-126500000D01*
X84171428Y-126452380D01*
X83980952Y-126452380D01*
X83885714Y-126500000D01*
X83838095Y-126547619D01*
X83790476Y-126642857D01*
X83790476Y-126880952D01*
X83838095Y-126976190D01*
X83885714Y-127023809D01*
X83980952Y-127071428D01*
X84171428Y-127071428D01*
X84266666Y-127023809D01*
X84314285Y-126976190D01*
X84361904Y-126880952D01*
X86535714Y-125552380D02*
X85964285Y-125552380D01*
X86250000Y-125552380D02*
X86250000Y-124552380D01*
X86154761Y-124695238D01*
X86059523Y-124790476D01*
X85964285Y-124838095D01*
%TO.C,POS78*%
X81352380Y-137714285D02*
X80352380Y-137714285D01*
X80352380Y-137333333D01*
X80400000Y-137238095D01*
X80447619Y-137190476D01*
X80542857Y-137142857D01*
X80685714Y-137142857D01*
X80780952Y-137190476D01*
X80828571Y-137238095D01*
X80876190Y-137333333D01*
X80876190Y-137714285D01*
X80352380Y-136523809D02*
X80352380Y-136333333D01*
X80400000Y-136238095D01*
X80495238Y-136142857D01*
X80685714Y-136095238D01*
X81019047Y-136095238D01*
X81209523Y-136142857D01*
X81304761Y-136238095D01*
X81352380Y-136333333D01*
X81352380Y-136523809D01*
X81304761Y-136619047D01*
X81209523Y-136714285D01*
X81019047Y-136761904D01*
X80685714Y-136761904D01*
X80495238Y-136714285D01*
X80400000Y-136619047D01*
X80352380Y-136523809D01*
X81304761Y-135714285D02*
X81352380Y-135571428D01*
X81352380Y-135333333D01*
X81304761Y-135238095D01*
X81257142Y-135190476D01*
X81161904Y-135142857D01*
X81066666Y-135142857D01*
X80971428Y-135190476D01*
X80923809Y-135238095D01*
X80876190Y-135333333D01*
X80828571Y-135523809D01*
X80780952Y-135619047D01*
X80733333Y-135666666D01*
X80638095Y-135714285D01*
X80542857Y-135714285D01*
X80447619Y-135666666D01*
X80400000Y-135619047D01*
X80352380Y-135523809D01*
X80352380Y-135285714D01*
X80400000Y-135142857D01*
X80352380Y-134809523D02*
X80352380Y-134142857D01*
X81352380Y-134571428D01*
X80780952Y-133619047D02*
X80733333Y-133714285D01*
X80685714Y-133761904D01*
X80590476Y-133809523D01*
X80542857Y-133809523D01*
X80447619Y-133761904D01*
X80400000Y-133714285D01*
X80352380Y-133619047D01*
X80352380Y-133428571D01*
X80400000Y-133333333D01*
X80447619Y-133285714D01*
X80542857Y-133238095D01*
X80590476Y-133238095D01*
X80685714Y-133285714D01*
X80733333Y-133333333D01*
X80780952Y-133428571D01*
X80780952Y-133619047D01*
X80828571Y-133714285D01*
X80876190Y-133761904D01*
X80971428Y-133809523D01*
X81161904Y-133809523D01*
X81257142Y-133761904D01*
X81304761Y-133714285D01*
X81352380Y-133619047D01*
X81352380Y-133428571D01*
X81304761Y-133333333D01*
X81257142Y-133285714D01*
X81161904Y-133238095D01*
X80971428Y-133238095D01*
X80876190Y-133285714D01*
X80828571Y-133333333D01*
X80780952Y-133428571D01*
X79452380Y-131064285D02*
X79452380Y-131635714D01*
X79452380Y-131350000D02*
X78452380Y-131350000D01*
X78595238Y-131445238D01*
X78690476Y-131540476D01*
X78738095Y-131635714D01*
%TO.C,POS64*%
X198868036Y-150752380D02*
X198868036Y-149752380D01*
X199248988Y-149752380D01*
X199344226Y-149800000D01*
X199391845Y-149847619D01*
X199439464Y-149942857D01*
X199439464Y-150085714D01*
X199391845Y-150180952D01*
X199344226Y-150228571D01*
X199248988Y-150276190D01*
X198868036Y-150276190D01*
X200058512Y-149752380D02*
X200248988Y-149752380D01*
X200344226Y-149800000D01*
X200439464Y-149895238D01*
X200487083Y-150085714D01*
X200487083Y-150419047D01*
X200439464Y-150609523D01*
X200344226Y-150704761D01*
X200248988Y-150752380D01*
X200058512Y-150752380D01*
X199963274Y-150704761D01*
X199868036Y-150609523D01*
X199820417Y-150419047D01*
X199820417Y-150085714D01*
X199868036Y-149895238D01*
X199963274Y-149800000D01*
X200058512Y-149752380D01*
X200868036Y-150704761D02*
X201010893Y-150752380D01*
X201248988Y-150752380D01*
X201344226Y-150704761D01*
X201391845Y-150657142D01*
X201439464Y-150561904D01*
X201439464Y-150466666D01*
X201391845Y-150371428D01*
X201344226Y-150323809D01*
X201248988Y-150276190D01*
X201058512Y-150228571D01*
X200963274Y-150180952D01*
X200915655Y-150133333D01*
X200868036Y-150038095D01*
X200868036Y-149942857D01*
X200915655Y-149847619D01*
X200963274Y-149800000D01*
X201058512Y-149752380D01*
X201296607Y-149752380D01*
X201439464Y-149800000D01*
X202296607Y-149752380D02*
X202106131Y-149752380D01*
X202010893Y-149800000D01*
X201963274Y-149847619D01*
X201868036Y-149990476D01*
X201820417Y-150180952D01*
X201820417Y-150561904D01*
X201868036Y-150657142D01*
X201915655Y-150704761D01*
X202010893Y-150752380D01*
X202201369Y-150752380D01*
X202296607Y-150704761D01*
X202344226Y-150657142D01*
X202391845Y-150561904D01*
X202391845Y-150323809D01*
X202344226Y-150228571D01*
X202296607Y-150180952D01*
X202201369Y-150133333D01*
X202010893Y-150133333D01*
X201915655Y-150180952D01*
X201868036Y-150228571D01*
X201820417Y-150323809D01*
X203248988Y-150085714D02*
X203248988Y-150752380D01*
X203010893Y-149704761D02*
X202772798Y-150419047D01*
X203391845Y-150419047D01*
X197218036Y-152652380D02*
X196646607Y-152652380D01*
X196932322Y-152652380D02*
X196932322Y-151652380D01*
X196837083Y-151795238D01*
X196741845Y-151890476D01*
X196646607Y-151938095D01*
%TO.C,POS43*%
X134552380Y-61814285D02*
X133552380Y-61814285D01*
X133552380Y-61433333D01*
X133600000Y-61338095D01*
X133647619Y-61290476D01*
X133742857Y-61242857D01*
X133885714Y-61242857D01*
X133980952Y-61290476D01*
X134028571Y-61338095D01*
X134076190Y-61433333D01*
X134076190Y-61814285D01*
X133552380Y-60623809D02*
X133552380Y-60433333D01*
X133600000Y-60338095D01*
X133695238Y-60242857D01*
X133885714Y-60195238D01*
X134219047Y-60195238D01*
X134409523Y-60242857D01*
X134504761Y-60338095D01*
X134552380Y-60433333D01*
X134552380Y-60623809D01*
X134504761Y-60719047D01*
X134409523Y-60814285D01*
X134219047Y-60861904D01*
X133885714Y-60861904D01*
X133695238Y-60814285D01*
X133600000Y-60719047D01*
X133552380Y-60623809D01*
X134504761Y-59814285D02*
X134552380Y-59671428D01*
X134552380Y-59433333D01*
X134504761Y-59338095D01*
X134457142Y-59290476D01*
X134361904Y-59242857D01*
X134266666Y-59242857D01*
X134171428Y-59290476D01*
X134123809Y-59338095D01*
X134076190Y-59433333D01*
X134028571Y-59623809D01*
X133980952Y-59719047D01*
X133933333Y-59766666D01*
X133838095Y-59814285D01*
X133742857Y-59814285D01*
X133647619Y-59766666D01*
X133600000Y-59719047D01*
X133552380Y-59623809D01*
X133552380Y-59385714D01*
X133600000Y-59242857D01*
X133885714Y-58385714D02*
X134552380Y-58385714D01*
X133504761Y-58623809D02*
X134219047Y-58861904D01*
X134219047Y-58242857D01*
X133552380Y-57957142D02*
X133552380Y-57338095D01*
X133933333Y-57671428D01*
X133933333Y-57528571D01*
X133980952Y-57433333D01*
X134028571Y-57385714D01*
X134123809Y-57338095D01*
X134361904Y-57338095D01*
X134457142Y-57385714D01*
X134504761Y-57433333D01*
X134552380Y-57528571D01*
X134552380Y-57814285D01*
X134504761Y-57909523D01*
X134457142Y-57957142D01*
X136452380Y-63464285D02*
X136452380Y-64035714D01*
X136452380Y-63750000D02*
X135452380Y-63750000D01*
X135595238Y-63845238D01*
X135690476Y-63940476D01*
X135738095Y-64035714D01*
%TO.C,POS21*%
X141635718Y-45352385D02*
X141635718Y-44352385D01*
X142016670Y-44352385D01*
X142111908Y-44400005D01*
X142159527Y-44447624D01*
X142207146Y-44542862D01*
X142207146Y-44685719D01*
X142159527Y-44780957D01*
X142111908Y-44828576D01*
X142016670Y-44876195D01*
X141635718Y-44876195D01*
X142826194Y-44352385D02*
X143016670Y-44352385D01*
X143111908Y-44400005D01*
X143207146Y-44495243D01*
X143254765Y-44685719D01*
X143254765Y-45019052D01*
X143207146Y-45209528D01*
X143111908Y-45304766D01*
X143016670Y-45352385D01*
X142826194Y-45352385D01*
X142730956Y-45304766D01*
X142635718Y-45209528D01*
X142588099Y-45019052D01*
X142588099Y-44685719D01*
X142635718Y-44495243D01*
X142730956Y-44400005D01*
X142826194Y-44352385D01*
X143635718Y-45304766D02*
X143778575Y-45352385D01*
X144016670Y-45352385D01*
X144111908Y-45304766D01*
X144159527Y-45257147D01*
X144207146Y-45161909D01*
X144207146Y-45066671D01*
X144159527Y-44971433D01*
X144111908Y-44923814D01*
X144016670Y-44876195D01*
X143826194Y-44828576D01*
X143730956Y-44780957D01*
X143683337Y-44733338D01*
X143635718Y-44638100D01*
X143635718Y-44542862D01*
X143683337Y-44447624D01*
X143730956Y-44400005D01*
X143826194Y-44352385D01*
X144064289Y-44352385D01*
X144207146Y-44400005D01*
X144588099Y-44447624D02*
X144635718Y-44400005D01*
X144730956Y-44352385D01*
X144969051Y-44352385D01*
X145064289Y-44400005D01*
X145111908Y-44447624D01*
X145159527Y-44542862D01*
X145159527Y-44638100D01*
X145111908Y-44780957D01*
X144540480Y-45352385D01*
X145159527Y-45352385D01*
X146111908Y-45352385D02*
X145540480Y-45352385D01*
X145826194Y-45352385D02*
X145826194Y-44352385D01*
X145730956Y-44495243D01*
X145635718Y-44590481D01*
X145540480Y-44638100D01*
X139985718Y-47252385D02*
X139414289Y-47252385D01*
X139700004Y-47252385D02*
X139700004Y-46252385D01*
X139604765Y-46395243D01*
X139509527Y-46490481D01*
X139414289Y-46538100D01*
%TO.C,POS39*%
X95285714Y-27752380D02*
X95285714Y-26752380D01*
X95666666Y-26752380D01*
X95761904Y-26800000D01*
X95809523Y-26847619D01*
X95857142Y-26942857D01*
X95857142Y-27085714D01*
X95809523Y-27180952D01*
X95761904Y-27228571D01*
X95666666Y-27276190D01*
X95285714Y-27276190D01*
X96476190Y-26752380D02*
X96666666Y-26752380D01*
X96761904Y-26800000D01*
X96857142Y-26895238D01*
X96904761Y-27085714D01*
X96904761Y-27419047D01*
X96857142Y-27609523D01*
X96761904Y-27704761D01*
X96666666Y-27752380D01*
X96476190Y-27752380D01*
X96380952Y-27704761D01*
X96285714Y-27609523D01*
X96238095Y-27419047D01*
X96238095Y-27085714D01*
X96285714Y-26895238D01*
X96380952Y-26800000D01*
X96476190Y-26752380D01*
X97285714Y-27704761D02*
X97428571Y-27752380D01*
X97666666Y-27752380D01*
X97761904Y-27704761D01*
X97809523Y-27657142D01*
X97857142Y-27561904D01*
X97857142Y-27466666D01*
X97809523Y-27371428D01*
X97761904Y-27323809D01*
X97666666Y-27276190D01*
X97476190Y-27228571D01*
X97380952Y-27180952D01*
X97333333Y-27133333D01*
X97285714Y-27038095D01*
X97285714Y-26942857D01*
X97333333Y-26847619D01*
X97380952Y-26800000D01*
X97476190Y-26752380D01*
X97714285Y-26752380D01*
X97857142Y-26800000D01*
X98190476Y-26752380D02*
X98809523Y-26752380D01*
X98476190Y-27133333D01*
X98619047Y-27133333D01*
X98714285Y-27180952D01*
X98761904Y-27228571D01*
X98809523Y-27323809D01*
X98809523Y-27561904D01*
X98761904Y-27657142D01*
X98714285Y-27704761D01*
X98619047Y-27752380D01*
X98333333Y-27752380D01*
X98238095Y-27704761D01*
X98190476Y-27657142D01*
X99285714Y-27752380D02*
X99476190Y-27752380D01*
X99571428Y-27704761D01*
X99619047Y-27657142D01*
X99714285Y-27514285D01*
X99761904Y-27323809D01*
X99761904Y-26942857D01*
X99714285Y-26847619D01*
X99666666Y-26800000D01*
X99571428Y-26752380D01*
X99380952Y-26752380D01*
X99285714Y-26800000D01*
X99238095Y-26847619D01*
X99190476Y-26942857D01*
X99190476Y-27180952D01*
X99238095Y-27276190D01*
X99285714Y-27323809D01*
X99380952Y-27371428D01*
X99571428Y-27371428D01*
X99666666Y-27323809D01*
X99714285Y-27276190D01*
X99761904Y-27180952D01*
X101935714Y-25852380D02*
X101364285Y-25852380D01*
X101650000Y-25852380D02*
X101650000Y-24852380D01*
X101554761Y-24995238D01*
X101459523Y-25090476D01*
X101364285Y-25138095D01*
%TO.C,FIN1*%
X122128571Y-65595238D02*
X122128571Y-65928571D01*
X122652380Y-65928571D02*
X121652380Y-65928571D01*
X121652380Y-65452380D01*
X122652380Y-65071428D02*
X121652380Y-65071428D01*
X122652380Y-64595238D02*
X121652380Y-64595238D01*
X122652380Y-64023809D01*
X121652380Y-64023809D01*
X122652380Y-63023809D02*
X122652380Y-63595238D01*
X122652380Y-63309523D02*
X121652380Y-63309523D01*
X121795238Y-63404761D01*
X121890476Y-63500000D01*
X121938095Y-63595238D01*
X120752380Y-60064285D02*
X120752380Y-60635714D01*
X120752380Y-60350000D02*
X119752380Y-60350000D01*
X119895238Y-60445238D01*
X119990476Y-60540476D01*
X120038095Y-60635714D01*
%TO.C,FIN4*%
X99328571Y-43095238D02*
X99328571Y-43428571D01*
X99852380Y-43428571D02*
X98852380Y-43428571D01*
X98852380Y-42952380D01*
X99852380Y-42571428D02*
X98852380Y-42571428D01*
X99852380Y-42095238D02*
X98852380Y-42095238D01*
X99852380Y-41523809D01*
X98852380Y-41523809D01*
X99185714Y-40619047D02*
X99852380Y-40619047D01*
X98804761Y-40857142D02*
X99519047Y-41095238D01*
X99519047Y-40476190D01*
X97952380Y-37564285D02*
X97952380Y-38135714D01*
X97952380Y-37850000D02*
X96952380Y-37850000D01*
X97095238Y-37945238D01*
X97190476Y-38040476D01*
X97238095Y-38135714D01*
%TO.C,POS62*%
X206552380Y-137414285D02*
X205552380Y-137414285D01*
X205552380Y-137033333D01*
X205600000Y-136938095D01*
X205647619Y-136890476D01*
X205742857Y-136842857D01*
X205885714Y-136842857D01*
X205980952Y-136890476D01*
X206028571Y-136938095D01*
X206076190Y-137033333D01*
X206076190Y-137414285D01*
X205552380Y-136223809D02*
X205552380Y-136033333D01*
X205600000Y-135938095D01*
X205695238Y-135842857D01*
X205885714Y-135795238D01*
X206219047Y-135795238D01*
X206409523Y-135842857D01*
X206504761Y-135938095D01*
X206552380Y-136033333D01*
X206552380Y-136223809D01*
X206504761Y-136319047D01*
X206409523Y-136414285D01*
X206219047Y-136461904D01*
X205885714Y-136461904D01*
X205695238Y-136414285D01*
X205600000Y-136319047D01*
X205552380Y-136223809D01*
X206504761Y-135414285D02*
X206552380Y-135271428D01*
X206552380Y-135033333D01*
X206504761Y-134938095D01*
X206457142Y-134890476D01*
X206361904Y-134842857D01*
X206266666Y-134842857D01*
X206171428Y-134890476D01*
X206123809Y-134938095D01*
X206076190Y-135033333D01*
X206028571Y-135223809D01*
X205980952Y-135319047D01*
X205933333Y-135366666D01*
X205838095Y-135414285D01*
X205742857Y-135414285D01*
X205647619Y-135366666D01*
X205600000Y-135319047D01*
X205552380Y-135223809D01*
X205552380Y-134985714D01*
X205600000Y-134842857D01*
X205552380Y-133985714D02*
X205552380Y-134176190D01*
X205600000Y-134271428D01*
X205647619Y-134319047D01*
X205790476Y-134414285D01*
X205980952Y-134461904D01*
X206361904Y-134461904D01*
X206457142Y-134414285D01*
X206504761Y-134366666D01*
X206552380Y-134271428D01*
X206552380Y-134080952D01*
X206504761Y-133985714D01*
X206457142Y-133938095D01*
X206361904Y-133890476D01*
X206123809Y-133890476D01*
X206028571Y-133938095D01*
X205980952Y-133985714D01*
X205933333Y-134080952D01*
X205933333Y-134271428D01*
X205980952Y-134366666D01*
X206028571Y-134414285D01*
X206123809Y-134461904D01*
X205647619Y-133509523D02*
X205600000Y-133461904D01*
X205552380Y-133366666D01*
X205552380Y-133128571D01*
X205600000Y-133033333D01*
X205647619Y-132985714D01*
X205742857Y-132938095D01*
X205838095Y-132938095D01*
X205980952Y-132985714D01*
X206552380Y-133557142D01*
X206552380Y-132938095D01*
X208452380Y-139064285D02*
X208452380Y-139635714D01*
X208452380Y-139350000D02*
X207452380Y-139350000D01*
X207595238Y-139445238D01*
X207690476Y-139540476D01*
X207738095Y-139635714D01*
%TO.C,POS73*%
X117652380Y-144014285D02*
X116652380Y-144014285D01*
X116652380Y-143633333D01*
X116700000Y-143538095D01*
X116747619Y-143490476D01*
X116842857Y-143442857D01*
X116985714Y-143442857D01*
X117080952Y-143490476D01*
X117128571Y-143538095D01*
X117176190Y-143633333D01*
X117176190Y-144014285D01*
X116652380Y-142823809D02*
X116652380Y-142633333D01*
X116700000Y-142538095D01*
X116795238Y-142442857D01*
X116985714Y-142395238D01*
X117319047Y-142395238D01*
X117509523Y-142442857D01*
X117604761Y-142538095D01*
X117652380Y-142633333D01*
X117652380Y-142823809D01*
X117604761Y-142919047D01*
X117509523Y-143014285D01*
X117319047Y-143061904D01*
X116985714Y-143061904D01*
X116795238Y-143014285D01*
X116700000Y-142919047D01*
X116652380Y-142823809D01*
X117604761Y-142014285D02*
X117652380Y-141871428D01*
X117652380Y-141633333D01*
X117604761Y-141538095D01*
X117557142Y-141490476D01*
X117461904Y-141442857D01*
X117366666Y-141442857D01*
X117271428Y-141490476D01*
X117223809Y-141538095D01*
X117176190Y-141633333D01*
X117128571Y-141823809D01*
X117080952Y-141919047D01*
X117033333Y-141966666D01*
X116938095Y-142014285D01*
X116842857Y-142014285D01*
X116747619Y-141966666D01*
X116700000Y-141919047D01*
X116652380Y-141823809D01*
X116652380Y-141585714D01*
X116700000Y-141442857D01*
X116652380Y-141109523D02*
X116652380Y-140442857D01*
X117652380Y-140871428D01*
X116652380Y-140157142D02*
X116652380Y-139538095D01*
X117033333Y-139871428D01*
X117033333Y-139728571D01*
X117080952Y-139633333D01*
X117128571Y-139585714D01*
X117223809Y-139538095D01*
X117461904Y-139538095D01*
X117557142Y-139585714D01*
X117604761Y-139633333D01*
X117652380Y-139728571D01*
X117652380Y-140014285D01*
X117604761Y-140109523D01*
X117557142Y-140157142D01*
X119552380Y-145664285D02*
X119552380Y-146235714D01*
X119552380Y-145950000D02*
X118552380Y-145950000D01*
X118695238Y-146045238D01*
X118790476Y-146140476D01*
X118838095Y-146235714D01*
%TO.C,POS58*%
X171385714Y-99452380D02*
X171385714Y-98452380D01*
X171766666Y-98452380D01*
X171861904Y-98500000D01*
X171909523Y-98547619D01*
X171957142Y-98642857D01*
X171957142Y-98785714D01*
X171909523Y-98880952D01*
X171861904Y-98928571D01*
X171766666Y-98976190D01*
X171385714Y-98976190D01*
X172576190Y-98452380D02*
X172766666Y-98452380D01*
X172861904Y-98500000D01*
X172957142Y-98595238D01*
X173004761Y-98785714D01*
X173004761Y-99119047D01*
X172957142Y-99309523D01*
X172861904Y-99404761D01*
X172766666Y-99452380D01*
X172576190Y-99452380D01*
X172480952Y-99404761D01*
X172385714Y-99309523D01*
X172338095Y-99119047D01*
X172338095Y-98785714D01*
X172385714Y-98595238D01*
X172480952Y-98500000D01*
X172576190Y-98452380D01*
X173385714Y-99404761D02*
X173528571Y-99452380D01*
X173766666Y-99452380D01*
X173861904Y-99404761D01*
X173909523Y-99357142D01*
X173957142Y-99261904D01*
X173957142Y-99166666D01*
X173909523Y-99071428D01*
X173861904Y-99023809D01*
X173766666Y-98976190D01*
X173576190Y-98928571D01*
X173480952Y-98880952D01*
X173433333Y-98833333D01*
X173385714Y-98738095D01*
X173385714Y-98642857D01*
X173433333Y-98547619D01*
X173480952Y-98500000D01*
X173576190Y-98452380D01*
X173814285Y-98452380D01*
X173957142Y-98500000D01*
X174861904Y-98452380D02*
X174385714Y-98452380D01*
X174338095Y-98928571D01*
X174385714Y-98880952D01*
X174480952Y-98833333D01*
X174719047Y-98833333D01*
X174814285Y-98880952D01*
X174861904Y-98928571D01*
X174909523Y-99023809D01*
X174909523Y-99261904D01*
X174861904Y-99357142D01*
X174814285Y-99404761D01*
X174719047Y-99452380D01*
X174480952Y-99452380D01*
X174385714Y-99404761D01*
X174338095Y-99357142D01*
X175480952Y-98880952D02*
X175385714Y-98833333D01*
X175338095Y-98785714D01*
X175290476Y-98690476D01*
X175290476Y-98642857D01*
X175338095Y-98547619D01*
X175385714Y-98500000D01*
X175480952Y-98452380D01*
X175671428Y-98452380D01*
X175766666Y-98500000D01*
X175814285Y-98547619D01*
X175861904Y-98642857D01*
X175861904Y-98690476D01*
X175814285Y-98785714D01*
X175766666Y-98833333D01*
X175671428Y-98880952D01*
X175480952Y-98880952D01*
X175385714Y-98928571D01*
X175338095Y-98976190D01*
X175290476Y-99071428D01*
X175290476Y-99261904D01*
X175338095Y-99357142D01*
X175385714Y-99404761D01*
X175480952Y-99452380D01*
X175671428Y-99452380D01*
X175766666Y-99404761D01*
X175814285Y-99357142D01*
X175861904Y-99261904D01*
X175861904Y-99071428D01*
X175814285Y-98976190D01*
X175766666Y-98928571D01*
X175671428Y-98880952D01*
X178035714Y-97552380D02*
X177464285Y-97552380D01*
X177750000Y-97552380D02*
X177750000Y-96552380D01*
X177654761Y-96695238D01*
X177559523Y-96790476D01*
X177464285Y-96838095D01*
%TO.C,POS71*%
X134552380Y-121114285D02*
X133552380Y-121114285D01*
X133552380Y-120733333D01*
X133600000Y-120638095D01*
X133647619Y-120590476D01*
X133742857Y-120542857D01*
X133885714Y-120542857D01*
X133980952Y-120590476D01*
X134028571Y-120638095D01*
X134076190Y-120733333D01*
X134076190Y-121114285D01*
X133552380Y-119923809D02*
X133552380Y-119733333D01*
X133600000Y-119638095D01*
X133695238Y-119542857D01*
X133885714Y-119495238D01*
X134219047Y-119495238D01*
X134409523Y-119542857D01*
X134504761Y-119638095D01*
X134552380Y-119733333D01*
X134552380Y-119923809D01*
X134504761Y-120019047D01*
X134409523Y-120114285D01*
X134219047Y-120161904D01*
X133885714Y-120161904D01*
X133695238Y-120114285D01*
X133600000Y-120019047D01*
X133552380Y-119923809D01*
X134504761Y-119114285D02*
X134552380Y-118971428D01*
X134552380Y-118733333D01*
X134504761Y-118638095D01*
X134457142Y-118590476D01*
X134361904Y-118542857D01*
X134266666Y-118542857D01*
X134171428Y-118590476D01*
X134123809Y-118638095D01*
X134076190Y-118733333D01*
X134028571Y-118923809D01*
X133980952Y-119019047D01*
X133933333Y-119066666D01*
X133838095Y-119114285D01*
X133742857Y-119114285D01*
X133647619Y-119066666D01*
X133600000Y-119019047D01*
X133552380Y-118923809D01*
X133552380Y-118685714D01*
X133600000Y-118542857D01*
X133552380Y-118209523D02*
X133552380Y-117542857D01*
X134552380Y-117971428D01*
X134552380Y-116638095D02*
X134552380Y-117209523D01*
X134552380Y-116923809D02*
X133552380Y-116923809D01*
X133695238Y-117019047D01*
X133790476Y-117114285D01*
X133838095Y-117209523D01*
X136452380Y-122764285D02*
X136452380Y-123335714D01*
X136452380Y-123050000D02*
X135452380Y-123050000D01*
X135595238Y-123145238D01*
X135690476Y-123240476D01*
X135738095Y-123335714D01*
%TO.C,POS42*%
X127452380Y-50514285D02*
X126452380Y-50514285D01*
X126452380Y-50133333D01*
X126500000Y-50038095D01*
X126547619Y-49990476D01*
X126642857Y-49942857D01*
X126785714Y-49942857D01*
X126880952Y-49990476D01*
X126928571Y-50038095D01*
X126976190Y-50133333D01*
X126976190Y-50514285D01*
X126452380Y-49323809D02*
X126452380Y-49133333D01*
X126500000Y-49038095D01*
X126595238Y-48942857D01*
X126785714Y-48895238D01*
X127119047Y-48895238D01*
X127309523Y-48942857D01*
X127404761Y-49038095D01*
X127452380Y-49133333D01*
X127452380Y-49323809D01*
X127404761Y-49419047D01*
X127309523Y-49514285D01*
X127119047Y-49561904D01*
X126785714Y-49561904D01*
X126595238Y-49514285D01*
X126500000Y-49419047D01*
X126452380Y-49323809D01*
X127404761Y-48514285D02*
X127452380Y-48371428D01*
X127452380Y-48133333D01*
X127404761Y-48038095D01*
X127357142Y-47990476D01*
X127261904Y-47942857D01*
X127166666Y-47942857D01*
X127071428Y-47990476D01*
X127023809Y-48038095D01*
X126976190Y-48133333D01*
X126928571Y-48323809D01*
X126880952Y-48419047D01*
X126833333Y-48466666D01*
X126738095Y-48514285D01*
X126642857Y-48514285D01*
X126547619Y-48466666D01*
X126500000Y-48419047D01*
X126452380Y-48323809D01*
X126452380Y-48085714D01*
X126500000Y-47942857D01*
X126785714Y-47085714D02*
X127452380Y-47085714D01*
X126404761Y-47323809D02*
X127119047Y-47561904D01*
X127119047Y-46942857D01*
X126547619Y-46609523D02*
X126500000Y-46561904D01*
X126452380Y-46466666D01*
X126452380Y-46228571D01*
X126500000Y-46133333D01*
X126547619Y-46085714D01*
X126642857Y-46038095D01*
X126738095Y-46038095D01*
X126880952Y-46085714D01*
X127452380Y-46657142D01*
X127452380Y-46038095D01*
X129352380Y-52164285D02*
X129352380Y-52735714D01*
X129352380Y-52450000D02*
X128352380Y-52450000D01*
X128495238Y-52545238D01*
X128590476Y-52640476D01*
X128638095Y-52735714D01*
%TO.C,POS66*%
X182152380Y-152714285D02*
X181152380Y-152714285D01*
X181152380Y-152333333D01*
X181200000Y-152238095D01*
X181247619Y-152190476D01*
X181342857Y-152142857D01*
X181485714Y-152142857D01*
X181580952Y-152190476D01*
X181628571Y-152238095D01*
X181676190Y-152333333D01*
X181676190Y-152714285D01*
X181152380Y-151523809D02*
X181152380Y-151333333D01*
X181200000Y-151238095D01*
X181295238Y-151142857D01*
X181485714Y-151095238D01*
X181819047Y-151095238D01*
X182009523Y-151142857D01*
X182104761Y-151238095D01*
X182152380Y-151333333D01*
X182152380Y-151523809D01*
X182104761Y-151619047D01*
X182009523Y-151714285D01*
X181819047Y-151761904D01*
X181485714Y-151761904D01*
X181295238Y-151714285D01*
X181200000Y-151619047D01*
X181152380Y-151523809D01*
X182104761Y-150714285D02*
X182152380Y-150571428D01*
X182152380Y-150333333D01*
X182104761Y-150238095D01*
X182057142Y-150190476D01*
X181961904Y-150142857D01*
X181866666Y-150142857D01*
X181771428Y-150190476D01*
X181723809Y-150238095D01*
X181676190Y-150333333D01*
X181628571Y-150523809D01*
X181580952Y-150619047D01*
X181533333Y-150666666D01*
X181438095Y-150714285D01*
X181342857Y-150714285D01*
X181247619Y-150666666D01*
X181200000Y-150619047D01*
X181152380Y-150523809D01*
X181152380Y-150285714D01*
X181200000Y-150142857D01*
X181152380Y-149285714D02*
X181152380Y-149476190D01*
X181200000Y-149571428D01*
X181247619Y-149619047D01*
X181390476Y-149714285D01*
X181580952Y-149761904D01*
X181961904Y-149761904D01*
X182057142Y-149714285D01*
X182104761Y-149666666D01*
X182152380Y-149571428D01*
X182152380Y-149380952D01*
X182104761Y-149285714D01*
X182057142Y-149238095D01*
X181961904Y-149190476D01*
X181723809Y-149190476D01*
X181628571Y-149238095D01*
X181580952Y-149285714D01*
X181533333Y-149380952D01*
X181533333Y-149571428D01*
X181580952Y-149666666D01*
X181628571Y-149714285D01*
X181723809Y-149761904D01*
X181152380Y-148333333D02*
X181152380Y-148523809D01*
X181200000Y-148619047D01*
X181247619Y-148666666D01*
X181390476Y-148761904D01*
X181580952Y-148809523D01*
X181961904Y-148809523D01*
X182057142Y-148761904D01*
X182104761Y-148714285D01*
X182152380Y-148619047D01*
X182152380Y-148428571D01*
X182104761Y-148333333D01*
X182057142Y-148285714D01*
X181961904Y-148238095D01*
X181723809Y-148238095D01*
X181628571Y-148285714D01*
X181580952Y-148333333D01*
X181533333Y-148428571D01*
X181533333Y-148619047D01*
X181580952Y-148714285D01*
X181628571Y-148761904D01*
X181723809Y-148809523D01*
X180252380Y-146064285D02*
X180252380Y-146635714D01*
X180252380Y-146350000D02*
X179252380Y-146350000D01*
X179395238Y-146445238D01*
X179490476Y-146540476D01*
X179538095Y-146635714D01*
%TO.C,POS83*%
X128852380Y-91814285D02*
X127852380Y-91814285D01*
X127852380Y-91433333D01*
X127900000Y-91338095D01*
X127947619Y-91290476D01*
X128042857Y-91242857D01*
X128185714Y-91242857D01*
X128280952Y-91290476D01*
X128328571Y-91338095D01*
X128376190Y-91433333D01*
X128376190Y-91814285D01*
X127852380Y-90623809D02*
X127852380Y-90433333D01*
X127900000Y-90338095D01*
X127995238Y-90242857D01*
X128185714Y-90195238D01*
X128519047Y-90195238D01*
X128709523Y-90242857D01*
X128804761Y-90338095D01*
X128852380Y-90433333D01*
X128852380Y-90623809D01*
X128804761Y-90719047D01*
X128709523Y-90814285D01*
X128519047Y-90861904D01*
X128185714Y-90861904D01*
X127995238Y-90814285D01*
X127900000Y-90719047D01*
X127852380Y-90623809D01*
X128804761Y-89814285D02*
X128852380Y-89671428D01*
X128852380Y-89433333D01*
X128804761Y-89338095D01*
X128757142Y-89290476D01*
X128661904Y-89242857D01*
X128566666Y-89242857D01*
X128471428Y-89290476D01*
X128423809Y-89338095D01*
X128376190Y-89433333D01*
X128328571Y-89623809D01*
X128280952Y-89719047D01*
X128233333Y-89766666D01*
X128138095Y-89814285D01*
X128042857Y-89814285D01*
X127947619Y-89766666D01*
X127900000Y-89719047D01*
X127852380Y-89623809D01*
X127852380Y-89385714D01*
X127900000Y-89242857D01*
X128280952Y-88671428D02*
X128233333Y-88766666D01*
X128185714Y-88814285D01*
X128090476Y-88861904D01*
X128042857Y-88861904D01*
X127947619Y-88814285D01*
X127900000Y-88766666D01*
X127852380Y-88671428D01*
X127852380Y-88480952D01*
X127900000Y-88385714D01*
X127947619Y-88338095D01*
X128042857Y-88290476D01*
X128090476Y-88290476D01*
X128185714Y-88338095D01*
X128233333Y-88385714D01*
X128280952Y-88480952D01*
X128280952Y-88671428D01*
X128328571Y-88766666D01*
X128376190Y-88814285D01*
X128471428Y-88861904D01*
X128661904Y-88861904D01*
X128757142Y-88814285D01*
X128804761Y-88766666D01*
X128852380Y-88671428D01*
X128852380Y-88480952D01*
X128804761Y-88385714D01*
X128757142Y-88338095D01*
X128661904Y-88290476D01*
X128471428Y-88290476D01*
X128376190Y-88338095D01*
X128328571Y-88385714D01*
X128280952Y-88480952D01*
X127852380Y-87957142D02*
X127852380Y-87338095D01*
X128233333Y-87671428D01*
X128233333Y-87528571D01*
X128280952Y-87433333D01*
X128328571Y-87385714D01*
X128423809Y-87338095D01*
X128661904Y-87338095D01*
X128757142Y-87385714D01*
X128804761Y-87433333D01*
X128852380Y-87528571D01*
X128852380Y-87814285D01*
X128804761Y-87909523D01*
X128757142Y-87957142D01*
X126952380Y-85164285D02*
X126952380Y-85735714D01*
X126952380Y-85450000D02*
X125952380Y-85450000D01*
X126095238Y-85545238D01*
X126190476Y-85640476D01*
X126238095Y-85735714D01*
%TO.C,POS35*%
X86052380Y-57414285D02*
X85052380Y-57414285D01*
X85052380Y-57033333D01*
X85100000Y-56938095D01*
X85147619Y-56890476D01*
X85242857Y-56842857D01*
X85385714Y-56842857D01*
X85480952Y-56890476D01*
X85528571Y-56938095D01*
X85576190Y-57033333D01*
X85576190Y-57414285D01*
X85052380Y-56223809D02*
X85052380Y-56033333D01*
X85100000Y-55938095D01*
X85195238Y-55842857D01*
X85385714Y-55795238D01*
X85719047Y-55795238D01*
X85909523Y-55842857D01*
X86004761Y-55938095D01*
X86052380Y-56033333D01*
X86052380Y-56223809D01*
X86004761Y-56319047D01*
X85909523Y-56414285D01*
X85719047Y-56461904D01*
X85385714Y-56461904D01*
X85195238Y-56414285D01*
X85100000Y-56319047D01*
X85052380Y-56223809D01*
X86004761Y-55414285D02*
X86052380Y-55271428D01*
X86052380Y-55033333D01*
X86004761Y-54938095D01*
X85957142Y-54890476D01*
X85861904Y-54842857D01*
X85766666Y-54842857D01*
X85671428Y-54890476D01*
X85623809Y-54938095D01*
X85576190Y-55033333D01*
X85528571Y-55223809D01*
X85480952Y-55319047D01*
X85433333Y-55366666D01*
X85338095Y-55414285D01*
X85242857Y-55414285D01*
X85147619Y-55366666D01*
X85100000Y-55319047D01*
X85052380Y-55223809D01*
X85052380Y-54985714D01*
X85100000Y-54842857D01*
X85052380Y-54509523D02*
X85052380Y-53890476D01*
X85433333Y-54223809D01*
X85433333Y-54080952D01*
X85480952Y-53985714D01*
X85528571Y-53938095D01*
X85623809Y-53890476D01*
X85861904Y-53890476D01*
X85957142Y-53938095D01*
X86004761Y-53985714D01*
X86052380Y-54080952D01*
X86052380Y-54366666D01*
X86004761Y-54461904D01*
X85957142Y-54509523D01*
X85052380Y-52985714D02*
X85052380Y-53461904D01*
X85528571Y-53509523D01*
X85480952Y-53461904D01*
X85433333Y-53366666D01*
X85433333Y-53128571D01*
X85480952Y-53033333D01*
X85528571Y-52985714D01*
X85623809Y-52938095D01*
X85861904Y-52938095D01*
X85957142Y-52985714D01*
X86004761Y-53033333D01*
X86052380Y-53128571D01*
X86052380Y-53366666D01*
X86004761Y-53461904D01*
X85957142Y-53509523D01*
X84152380Y-50764285D02*
X84152380Y-51335714D01*
X84152380Y-51050000D02*
X83152380Y-51050000D01*
X83295238Y-51145238D01*
X83390476Y-51240476D01*
X83438095Y-51335714D01*
%TO.C,POS68*%
X161152380Y-132614285D02*
X160152380Y-132614285D01*
X160152380Y-132233333D01*
X160200000Y-132138095D01*
X160247619Y-132090476D01*
X160342857Y-132042857D01*
X160485714Y-132042857D01*
X160580952Y-132090476D01*
X160628571Y-132138095D01*
X160676190Y-132233333D01*
X160676190Y-132614285D01*
X160152380Y-131423809D02*
X160152380Y-131233333D01*
X160200000Y-131138095D01*
X160295238Y-131042857D01*
X160485714Y-130995238D01*
X160819047Y-130995238D01*
X161009523Y-131042857D01*
X161104761Y-131138095D01*
X161152380Y-131233333D01*
X161152380Y-131423809D01*
X161104761Y-131519047D01*
X161009523Y-131614285D01*
X160819047Y-131661904D01*
X160485714Y-131661904D01*
X160295238Y-131614285D01*
X160200000Y-131519047D01*
X160152380Y-131423809D01*
X161104761Y-130614285D02*
X161152380Y-130471428D01*
X161152380Y-130233333D01*
X161104761Y-130138095D01*
X161057142Y-130090476D01*
X160961904Y-130042857D01*
X160866666Y-130042857D01*
X160771428Y-130090476D01*
X160723809Y-130138095D01*
X160676190Y-130233333D01*
X160628571Y-130423809D01*
X160580952Y-130519047D01*
X160533333Y-130566666D01*
X160438095Y-130614285D01*
X160342857Y-130614285D01*
X160247619Y-130566666D01*
X160200000Y-130519047D01*
X160152380Y-130423809D01*
X160152380Y-130185714D01*
X160200000Y-130042857D01*
X160152380Y-129185714D02*
X160152380Y-129376190D01*
X160200000Y-129471428D01*
X160247619Y-129519047D01*
X160390476Y-129614285D01*
X160580952Y-129661904D01*
X160961904Y-129661904D01*
X161057142Y-129614285D01*
X161104761Y-129566666D01*
X161152380Y-129471428D01*
X161152380Y-129280952D01*
X161104761Y-129185714D01*
X161057142Y-129138095D01*
X160961904Y-129090476D01*
X160723809Y-129090476D01*
X160628571Y-129138095D01*
X160580952Y-129185714D01*
X160533333Y-129280952D01*
X160533333Y-129471428D01*
X160580952Y-129566666D01*
X160628571Y-129614285D01*
X160723809Y-129661904D01*
X160580952Y-128519047D02*
X160533333Y-128614285D01*
X160485714Y-128661904D01*
X160390476Y-128709523D01*
X160342857Y-128709523D01*
X160247619Y-128661904D01*
X160200000Y-128614285D01*
X160152380Y-128519047D01*
X160152380Y-128328571D01*
X160200000Y-128233333D01*
X160247619Y-128185714D01*
X160342857Y-128138095D01*
X160390476Y-128138095D01*
X160485714Y-128185714D01*
X160533333Y-128233333D01*
X160580952Y-128328571D01*
X160580952Y-128519047D01*
X160628571Y-128614285D01*
X160676190Y-128661904D01*
X160771428Y-128709523D01*
X160961904Y-128709523D01*
X161057142Y-128661904D01*
X161104761Y-128614285D01*
X161152380Y-128519047D01*
X161152380Y-128328571D01*
X161104761Y-128233333D01*
X161057142Y-128185714D01*
X160961904Y-128138095D01*
X160771428Y-128138095D01*
X160676190Y-128185714D01*
X160628571Y-128233333D01*
X160580952Y-128328571D01*
X159252380Y-125964285D02*
X159252380Y-126535714D01*
X159252380Y-126250000D02*
X158252380Y-126250000D01*
X158395238Y-126345238D01*
X158490476Y-126440476D01*
X158538095Y-126535714D01*
%TO.C,POS51*%
X205552380Y-34678929D02*
X204552380Y-34678929D01*
X204552380Y-34297977D01*
X204600000Y-34202739D01*
X204647619Y-34155120D01*
X204742857Y-34107501D01*
X204885714Y-34107501D01*
X204980952Y-34155120D01*
X205028571Y-34202739D01*
X205076190Y-34297977D01*
X205076190Y-34678929D01*
X204552380Y-33488453D02*
X204552380Y-33297977D01*
X204600000Y-33202739D01*
X204695238Y-33107501D01*
X204885714Y-33059882D01*
X205219047Y-33059882D01*
X205409523Y-33107501D01*
X205504761Y-33202739D01*
X205552380Y-33297977D01*
X205552380Y-33488453D01*
X205504761Y-33583691D01*
X205409523Y-33678929D01*
X205219047Y-33726548D01*
X204885714Y-33726548D01*
X204695238Y-33678929D01*
X204600000Y-33583691D01*
X204552380Y-33488453D01*
X205504761Y-32678929D02*
X205552380Y-32536072D01*
X205552380Y-32297977D01*
X205504761Y-32202739D01*
X205457142Y-32155120D01*
X205361904Y-32107501D01*
X205266666Y-32107501D01*
X205171428Y-32155120D01*
X205123809Y-32202739D01*
X205076190Y-32297977D01*
X205028571Y-32488453D01*
X204980952Y-32583691D01*
X204933333Y-32631310D01*
X204838095Y-32678929D01*
X204742857Y-32678929D01*
X204647619Y-32631310D01*
X204600000Y-32583691D01*
X204552380Y-32488453D01*
X204552380Y-32250358D01*
X204600000Y-32107501D01*
X204552380Y-31202739D02*
X204552380Y-31678929D01*
X205028571Y-31726548D01*
X204980952Y-31678929D01*
X204933333Y-31583691D01*
X204933333Y-31345596D01*
X204980952Y-31250358D01*
X205028571Y-31202739D01*
X205123809Y-31155120D01*
X205361904Y-31155120D01*
X205457142Y-31202739D01*
X205504761Y-31250358D01*
X205552380Y-31345596D01*
X205552380Y-31583691D01*
X205504761Y-31678929D01*
X205457142Y-31726548D01*
X205552380Y-30202739D02*
X205552380Y-30774167D01*
X205552380Y-30488453D02*
X204552380Y-30488453D01*
X204695238Y-30583691D01*
X204790476Y-30678929D01*
X204838095Y-30774167D01*
X207452380Y-36328929D02*
X207452380Y-36900358D01*
X207452380Y-36614644D02*
X206452380Y-36614644D01*
X206595238Y-36709882D01*
X206690476Y-36805120D01*
X206738095Y-36900358D01*
%TO.C,FIN10*%
X173028571Y-123571428D02*
X173028571Y-123904761D01*
X173552380Y-123904761D02*
X172552380Y-123904761D01*
X172552380Y-123428571D01*
X173552380Y-123047619D02*
X172552380Y-123047619D01*
X173552380Y-122571428D02*
X172552380Y-122571428D01*
X173552380Y-122000000D01*
X172552380Y-122000000D01*
X173552380Y-121000000D02*
X173552380Y-121571428D01*
X173552380Y-121285714D02*
X172552380Y-121285714D01*
X172695238Y-121380952D01*
X172790476Y-121476190D01*
X172838095Y-121571428D01*
X172552380Y-120380952D02*
X172552380Y-120285714D01*
X172600000Y-120190476D01*
X172647619Y-120142857D01*
X172742857Y-120095238D01*
X172933333Y-120047619D01*
X173171428Y-120047619D01*
X173361904Y-120095238D01*
X173457142Y-120142857D01*
X173504761Y-120190476D01*
X173552380Y-120285714D01*
X173552380Y-120380952D01*
X173504761Y-120476190D01*
X173457142Y-120523809D01*
X173361904Y-120571428D01*
X173171428Y-120619047D01*
X172933333Y-120619047D01*
X172742857Y-120571428D01*
X172647619Y-120523809D01*
X172600000Y-120476190D01*
X172552380Y-120380952D01*
X175452380Y-125864285D02*
X175452380Y-126435714D01*
X175452380Y-126150000D02*
X174452380Y-126150000D01*
X174595238Y-126245238D01*
X174690476Y-126340476D01*
X174738095Y-126435714D01*
%TO.C,POS38*%
X84185714Y-28952380D02*
X84185714Y-27952380D01*
X84566666Y-27952380D01*
X84661904Y-28000000D01*
X84709523Y-28047619D01*
X84757142Y-28142857D01*
X84757142Y-28285714D01*
X84709523Y-28380952D01*
X84661904Y-28428571D01*
X84566666Y-28476190D01*
X84185714Y-28476190D01*
X85376190Y-27952380D02*
X85566666Y-27952380D01*
X85661904Y-28000000D01*
X85757142Y-28095238D01*
X85804761Y-28285714D01*
X85804761Y-28619047D01*
X85757142Y-28809523D01*
X85661904Y-28904761D01*
X85566666Y-28952380D01*
X85376190Y-28952380D01*
X85280952Y-28904761D01*
X85185714Y-28809523D01*
X85138095Y-28619047D01*
X85138095Y-28285714D01*
X85185714Y-28095238D01*
X85280952Y-28000000D01*
X85376190Y-27952380D01*
X86185714Y-28904761D02*
X86328571Y-28952380D01*
X86566666Y-28952380D01*
X86661904Y-28904761D01*
X86709523Y-28857142D01*
X86757142Y-28761904D01*
X86757142Y-28666666D01*
X86709523Y-28571428D01*
X86661904Y-28523809D01*
X86566666Y-28476190D01*
X86376190Y-28428571D01*
X86280952Y-28380952D01*
X86233333Y-28333333D01*
X86185714Y-28238095D01*
X86185714Y-28142857D01*
X86233333Y-28047619D01*
X86280952Y-28000000D01*
X86376190Y-27952380D01*
X86614285Y-27952380D01*
X86757142Y-28000000D01*
X87090476Y-27952380D02*
X87709523Y-27952380D01*
X87376190Y-28333333D01*
X87519047Y-28333333D01*
X87614285Y-28380952D01*
X87661904Y-28428571D01*
X87709523Y-28523809D01*
X87709523Y-28761904D01*
X87661904Y-28857142D01*
X87614285Y-28904761D01*
X87519047Y-28952380D01*
X87233333Y-28952380D01*
X87138095Y-28904761D01*
X87090476Y-28857142D01*
X88280952Y-28380952D02*
X88185714Y-28333333D01*
X88138095Y-28285714D01*
X88090476Y-28190476D01*
X88090476Y-28142857D01*
X88138095Y-28047619D01*
X88185714Y-28000000D01*
X88280952Y-27952380D01*
X88471428Y-27952380D01*
X88566666Y-28000000D01*
X88614285Y-28047619D01*
X88661904Y-28142857D01*
X88661904Y-28190476D01*
X88614285Y-28285714D01*
X88566666Y-28333333D01*
X88471428Y-28380952D01*
X88280952Y-28380952D01*
X88185714Y-28428571D01*
X88138095Y-28476190D01*
X88090476Y-28571428D01*
X88090476Y-28761904D01*
X88138095Y-28857142D01*
X88185714Y-28904761D01*
X88280952Y-28952380D01*
X88471428Y-28952380D01*
X88566666Y-28904761D01*
X88614285Y-28857142D01*
X88661904Y-28761904D01*
X88661904Y-28571428D01*
X88614285Y-28476190D01*
X88566666Y-28428571D01*
X88471428Y-28380952D01*
X90835714Y-27052380D02*
X90264285Y-27052380D01*
X90550000Y-27052380D02*
X90550000Y-26052380D01*
X90454761Y-26195238D01*
X90359523Y-26290476D01*
X90264285Y-26338095D01*
%TO.C,POS34*%
X94552380Y-68414285D02*
X93552380Y-68414285D01*
X93552380Y-68033333D01*
X93600000Y-67938095D01*
X93647619Y-67890476D01*
X93742857Y-67842857D01*
X93885714Y-67842857D01*
X93980952Y-67890476D01*
X94028571Y-67938095D01*
X94076190Y-68033333D01*
X94076190Y-68414285D01*
X93552380Y-67223809D02*
X93552380Y-67033333D01*
X93600000Y-66938095D01*
X93695238Y-66842857D01*
X93885714Y-66795238D01*
X94219047Y-66795238D01*
X94409523Y-66842857D01*
X94504761Y-66938095D01*
X94552380Y-67033333D01*
X94552380Y-67223809D01*
X94504761Y-67319047D01*
X94409523Y-67414285D01*
X94219047Y-67461904D01*
X93885714Y-67461904D01*
X93695238Y-67414285D01*
X93600000Y-67319047D01*
X93552380Y-67223809D01*
X94504761Y-66414285D02*
X94552380Y-66271428D01*
X94552380Y-66033333D01*
X94504761Y-65938095D01*
X94457142Y-65890476D01*
X94361904Y-65842857D01*
X94266666Y-65842857D01*
X94171428Y-65890476D01*
X94123809Y-65938095D01*
X94076190Y-66033333D01*
X94028571Y-66223809D01*
X93980952Y-66319047D01*
X93933333Y-66366666D01*
X93838095Y-66414285D01*
X93742857Y-66414285D01*
X93647619Y-66366666D01*
X93600000Y-66319047D01*
X93552380Y-66223809D01*
X93552380Y-65985714D01*
X93600000Y-65842857D01*
X93552380Y-65509523D02*
X93552380Y-64890476D01*
X93933333Y-65223809D01*
X93933333Y-65080952D01*
X93980952Y-64985714D01*
X94028571Y-64938095D01*
X94123809Y-64890476D01*
X94361904Y-64890476D01*
X94457142Y-64938095D01*
X94504761Y-64985714D01*
X94552380Y-65080952D01*
X94552380Y-65366666D01*
X94504761Y-65461904D01*
X94457142Y-65509523D01*
X93885714Y-64033333D02*
X94552380Y-64033333D01*
X93504761Y-64271428D02*
X94219047Y-64509523D01*
X94219047Y-63890476D01*
X92652380Y-61764285D02*
X92652380Y-62335714D01*
X92652380Y-62050000D02*
X91652380Y-62050000D01*
X91795238Y-62145238D01*
X91890476Y-62240476D01*
X91938095Y-62335714D01*
%TO.C,POS60*%
X193452368Y-114714285D02*
X192452368Y-114714285D01*
X192452368Y-114333333D01*
X192499988Y-114238095D01*
X192547607Y-114190476D01*
X192642845Y-114142857D01*
X192785702Y-114142857D01*
X192880940Y-114190476D01*
X192928559Y-114238095D01*
X192976178Y-114333333D01*
X192976178Y-114714285D01*
X192452368Y-113523809D02*
X192452368Y-113333333D01*
X192499988Y-113238095D01*
X192595226Y-113142857D01*
X192785702Y-113095238D01*
X193119035Y-113095238D01*
X193309511Y-113142857D01*
X193404749Y-113238095D01*
X193452368Y-113333333D01*
X193452368Y-113523809D01*
X193404749Y-113619047D01*
X193309511Y-113714285D01*
X193119035Y-113761904D01*
X192785702Y-113761904D01*
X192595226Y-113714285D01*
X192499988Y-113619047D01*
X192452368Y-113523809D01*
X193404749Y-112714285D02*
X193452368Y-112571428D01*
X193452368Y-112333333D01*
X193404749Y-112238095D01*
X193357130Y-112190476D01*
X193261892Y-112142857D01*
X193166654Y-112142857D01*
X193071416Y-112190476D01*
X193023797Y-112238095D01*
X192976178Y-112333333D01*
X192928559Y-112523809D01*
X192880940Y-112619047D01*
X192833321Y-112666666D01*
X192738083Y-112714285D01*
X192642845Y-112714285D01*
X192547607Y-112666666D01*
X192499988Y-112619047D01*
X192452368Y-112523809D01*
X192452368Y-112285714D01*
X192499988Y-112142857D01*
X192452368Y-111285714D02*
X192452368Y-111476190D01*
X192499988Y-111571428D01*
X192547607Y-111619047D01*
X192690464Y-111714285D01*
X192880940Y-111761904D01*
X193261892Y-111761904D01*
X193357130Y-111714285D01*
X193404749Y-111666666D01*
X193452368Y-111571428D01*
X193452368Y-111380952D01*
X193404749Y-111285714D01*
X193357130Y-111238095D01*
X193261892Y-111190476D01*
X193023797Y-111190476D01*
X192928559Y-111238095D01*
X192880940Y-111285714D01*
X192833321Y-111380952D01*
X192833321Y-111571428D01*
X192880940Y-111666666D01*
X192928559Y-111714285D01*
X193023797Y-111761904D01*
X192452368Y-110571428D02*
X192452368Y-110476190D01*
X192499988Y-110380952D01*
X192547607Y-110333333D01*
X192642845Y-110285714D01*
X192833321Y-110238095D01*
X193071416Y-110238095D01*
X193261892Y-110285714D01*
X193357130Y-110333333D01*
X193404749Y-110380952D01*
X193452368Y-110476190D01*
X193452368Y-110571428D01*
X193404749Y-110666666D01*
X193357130Y-110714285D01*
X193261892Y-110761904D01*
X193071416Y-110809523D01*
X192833321Y-110809523D01*
X192642845Y-110761904D01*
X192547607Y-110714285D01*
X192499988Y-110666666D01*
X192452368Y-110571428D01*
X195352368Y-116364285D02*
X195352368Y-116935714D01*
X195352368Y-116650000D02*
X194352368Y-116650000D01*
X194495226Y-116745238D01*
X194590464Y-116840476D01*
X194638083Y-116935714D01*
%TO.C,POS81*%
X99785714Y-106652380D02*
X99785714Y-105652380D01*
X100166666Y-105652380D01*
X100261904Y-105700000D01*
X100309523Y-105747619D01*
X100357142Y-105842857D01*
X100357142Y-105985714D01*
X100309523Y-106080952D01*
X100261904Y-106128571D01*
X100166666Y-106176190D01*
X99785714Y-106176190D01*
X100976190Y-105652380D02*
X101166666Y-105652380D01*
X101261904Y-105700000D01*
X101357142Y-105795238D01*
X101404761Y-105985714D01*
X101404761Y-106319047D01*
X101357142Y-106509523D01*
X101261904Y-106604761D01*
X101166666Y-106652380D01*
X100976190Y-106652380D01*
X100880952Y-106604761D01*
X100785714Y-106509523D01*
X100738095Y-106319047D01*
X100738095Y-105985714D01*
X100785714Y-105795238D01*
X100880952Y-105700000D01*
X100976190Y-105652380D01*
X101785714Y-106604761D02*
X101928571Y-106652380D01*
X102166666Y-106652380D01*
X102261904Y-106604761D01*
X102309523Y-106557142D01*
X102357142Y-106461904D01*
X102357142Y-106366666D01*
X102309523Y-106271428D01*
X102261904Y-106223809D01*
X102166666Y-106176190D01*
X101976190Y-106128571D01*
X101880952Y-106080952D01*
X101833333Y-106033333D01*
X101785714Y-105938095D01*
X101785714Y-105842857D01*
X101833333Y-105747619D01*
X101880952Y-105700000D01*
X101976190Y-105652380D01*
X102214285Y-105652380D01*
X102357142Y-105700000D01*
X102928571Y-106080952D02*
X102833333Y-106033333D01*
X102785714Y-105985714D01*
X102738095Y-105890476D01*
X102738095Y-105842857D01*
X102785714Y-105747619D01*
X102833333Y-105700000D01*
X102928571Y-105652380D01*
X103119047Y-105652380D01*
X103214285Y-105700000D01*
X103261904Y-105747619D01*
X103309523Y-105842857D01*
X103309523Y-105890476D01*
X103261904Y-105985714D01*
X103214285Y-106033333D01*
X103119047Y-106080952D01*
X102928571Y-106080952D01*
X102833333Y-106128571D01*
X102785714Y-106176190D01*
X102738095Y-106271428D01*
X102738095Y-106461904D01*
X102785714Y-106557142D01*
X102833333Y-106604761D01*
X102928571Y-106652380D01*
X103119047Y-106652380D01*
X103214285Y-106604761D01*
X103261904Y-106557142D01*
X103309523Y-106461904D01*
X103309523Y-106271428D01*
X103261904Y-106176190D01*
X103214285Y-106128571D01*
X103119047Y-106080952D01*
X104261904Y-106652380D02*
X103690476Y-106652380D01*
X103976190Y-106652380D02*
X103976190Y-105652380D01*
X103880952Y-105795238D01*
X103785714Y-105890476D01*
X103690476Y-105938095D01*
X106435714Y-104752380D02*
X105864285Y-104752380D01*
X106150000Y-104752380D02*
X106150000Y-103752380D01*
X106054761Y-103895238D01*
X105959523Y-103990476D01*
X105864285Y-104038095D01*
%TO.C,POS65*%
X187985714Y-151952380D02*
X187985714Y-150952380D01*
X188366666Y-150952380D01*
X188461904Y-151000000D01*
X188509523Y-151047619D01*
X188557142Y-151142857D01*
X188557142Y-151285714D01*
X188509523Y-151380952D01*
X188461904Y-151428571D01*
X188366666Y-151476190D01*
X187985714Y-151476190D01*
X189176190Y-150952380D02*
X189366666Y-150952380D01*
X189461904Y-151000000D01*
X189557142Y-151095238D01*
X189604761Y-151285714D01*
X189604761Y-151619047D01*
X189557142Y-151809523D01*
X189461904Y-151904761D01*
X189366666Y-151952380D01*
X189176190Y-151952380D01*
X189080952Y-151904761D01*
X188985714Y-151809523D01*
X188938095Y-151619047D01*
X188938095Y-151285714D01*
X188985714Y-151095238D01*
X189080952Y-151000000D01*
X189176190Y-150952380D01*
X189985714Y-151904761D02*
X190128571Y-151952380D01*
X190366666Y-151952380D01*
X190461904Y-151904761D01*
X190509523Y-151857142D01*
X190557142Y-151761904D01*
X190557142Y-151666666D01*
X190509523Y-151571428D01*
X190461904Y-151523809D01*
X190366666Y-151476190D01*
X190176190Y-151428571D01*
X190080952Y-151380952D01*
X190033333Y-151333333D01*
X189985714Y-151238095D01*
X189985714Y-151142857D01*
X190033333Y-151047619D01*
X190080952Y-151000000D01*
X190176190Y-150952380D01*
X190414285Y-150952380D01*
X190557142Y-151000000D01*
X191414285Y-150952380D02*
X191223809Y-150952380D01*
X191128571Y-151000000D01*
X191080952Y-151047619D01*
X190985714Y-151190476D01*
X190938095Y-151380952D01*
X190938095Y-151761904D01*
X190985714Y-151857142D01*
X191033333Y-151904761D01*
X191128571Y-151952380D01*
X191319047Y-151952380D01*
X191414285Y-151904761D01*
X191461904Y-151857142D01*
X191509523Y-151761904D01*
X191509523Y-151523809D01*
X191461904Y-151428571D01*
X191414285Y-151380952D01*
X191319047Y-151333333D01*
X191128571Y-151333333D01*
X191033333Y-151380952D01*
X190985714Y-151428571D01*
X190938095Y-151523809D01*
X192414285Y-150952380D02*
X191938095Y-150952380D01*
X191890476Y-151428571D01*
X191938095Y-151380952D01*
X192033333Y-151333333D01*
X192271428Y-151333333D01*
X192366666Y-151380952D01*
X192414285Y-151428571D01*
X192461904Y-151523809D01*
X192461904Y-151761904D01*
X192414285Y-151857142D01*
X192366666Y-151904761D01*
X192271428Y-151952380D01*
X192033333Y-151952380D01*
X191938095Y-151904761D01*
X191890476Y-151857142D01*
X186335714Y-153852380D02*
X185764285Y-153852380D01*
X186050000Y-153852380D02*
X186050000Y-152852380D01*
X185954761Y-152995238D01*
X185859523Y-153090476D01*
X185764285Y-153138095D01*
%TO.C,R4*%
X121133333Y-80282380D02*
X120800000Y-79806190D01*
X120561904Y-80282380D02*
X120561904Y-79282380D01*
X120942857Y-79282380D01*
X121038095Y-79330000D01*
X121085714Y-79377619D01*
X121133333Y-79472857D01*
X121133333Y-79615714D01*
X121085714Y-79710952D01*
X121038095Y-79758571D01*
X120942857Y-79806190D01*
X120561904Y-79806190D01*
X121990476Y-79615714D02*
X121990476Y-80282380D01*
X121752380Y-79234761D02*
X121514285Y-79949047D01*
X122133333Y-79949047D01*
%TO.C,POS36*%
X81452380Y-45414285D02*
X80452380Y-45414285D01*
X80452380Y-45033333D01*
X80500000Y-44938095D01*
X80547619Y-44890476D01*
X80642857Y-44842857D01*
X80785714Y-44842857D01*
X80880952Y-44890476D01*
X80928571Y-44938095D01*
X80976190Y-45033333D01*
X80976190Y-45414285D01*
X80452380Y-44223809D02*
X80452380Y-44033333D01*
X80500000Y-43938095D01*
X80595238Y-43842857D01*
X80785714Y-43795238D01*
X81119047Y-43795238D01*
X81309523Y-43842857D01*
X81404761Y-43938095D01*
X81452380Y-44033333D01*
X81452380Y-44223809D01*
X81404761Y-44319047D01*
X81309523Y-44414285D01*
X81119047Y-44461904D01*
X80785714Y-44461904D01*
X80595238Y-44414285D01*
X80500000Y-44319047D01*
X80452380Y-44223809D01*
X81404761Y-43414285D02*
X81452380Y-43271428D01*
X81452380Y-43033333D01*
X81404761Y-42938095D01*
X81357142Y-42890476D01*
X81261904Y-42842857D01*
X81166666Y-42842857D01*
X81071428Y-42890476D01*
X81023809Y-42938095D01*
X80976190Y-43033333D01*
X80928571Y-43223809D01*
X80880952Y-43319047D01*
X80833333Y-43366666D01*
X80738095Y-43414285D01*
X80642857Y-43414285D01*
X80547619Y-43366666D01*
X80500000Y-43319047D01*
X80452380Y-43223809D01*
X80452380Y-42985714D01*
X80500000Y-42842857D01*
X80452380Y-42509523D02*
X80452380Y-41890476D01*
X80833333Y-42223809D01*
X80833333Y-42080952D01*
X80880952Y-41985714D01*
X80928571Y-41938095D01*
X81023809Y-41890476D01*
X81261904Y-41890476D01*
X81357142Y-41938095D01*
X81404761Y-41985714D01*
X81452380Y-42080952D01*
X81452380Y-42366666D01*
X81404761Y-42461904D01*
X81357142Y-42509523D01*
X80452380Y-41033333D02*
X80452380Y-41223809D01*
X80500000Y-41319047D01*
X80547619Y-41366666D01*
X80690476Y-41461904D01*
X80880952Y-41509523D01*
X81261904Y-41509523D01*
X81357142Y-41461904D01*
X81404761Y-41414285D01*
X81452380Y-41319047D01*
X81452380Y-41128571D01*
X81404761Y-41033333D01*
X81357142Y-40985714D01*
X81261904Y-40938095D01*
X81023809Y-40938095D01*
X80928571Y-40985714D01*
X80880952Y-41033333D01*
X80833333Y-41128571D01*
X80833333Y-41319047D01*
X80880952Y-41414285D01*
X80928571Y-41461904D01*
X81023809Y-41509523D01*
X79552380Y-38764285D02*
X79552380Y-39335714D01*
X79552380Y-39050000D02*
X78552380Y-39050000D01*
X78695238Y-39145238D01*
X78790476Y-39240476D01*
X78838095Y-39335714D01*
%TO.C,FIN15*%
X102028571Y-125928571D02*
X101695238Y-125928571D01*
X101695238Y-126452380D02*
X101695238Y-125452380D01*
X102171428Y-125452380D01*
X102552380Y-126452380D02*
X102552380Y-125452380D01*
X103028571Y-126452380D02*
X103028571Y-125452380D01*
X103600000Y-126452380D01*
X103600000Y-125452380D01*
X104600000Y-126452380D02*
X104028571Y-126452380D01*
X104314285Y-126452380D02*
X104314285Y-125452380D01*
X104219047Y-125595238D01*
X104123809Y-125690476D01*
X104028571Y-125738095D01*
X105504761Y-125452380D02*
X105028571Y-125452380D01*
X104980952Y-125928571D01*
X105028571Y-125880952D01*
X105123809Y-125833333D01*
X105361904Y-125833333D01*
X105457142Y-125880952D01*
X105504761Y-125928571D01*
X105552380Y-126023809D01*
X105552380Y-126261904D01*
X105504761Y-126357142D01*
X105457142Y-126404761D01*
X105361904Y-126452380D01*
X105123809Y-126452380D01*
X105028571Y-126404761D01*
X104980952Y-126357142D01*
X99735714Y-128352380D02*
X99164285Y-128352380D01*
X99450000Y-128352380D02*
X99450000Y-127352380D01*
X99354761Y-127495238D01*
X99259523Y-127590476D01*
X99164285Y-127638095D01*
%TO.C,POS25*%
X182134712Y-91714284D02*
X181134712Y-91714284D01*
X181134712Y-91333332D01*
X181182332Y-91238094D01*
X181229951Y-91190475D01*
X181325189Y-91142856D01*
X181468046Y-91142856D01*
X181563284Y-91190475D01*
X181610903Y-91238094D01*
X181658522Y-91333332D01*
X181658522Y-91714284D01*
X181134712Y-90523808D02*
X181134712Y-90333332D01*
X181182332Y-90238094D01*
X181277570Y-90142856D01*
X181468046Y-90095237D01*
X181801379Y-90095237D01*
X181991855Y-90142856D01*
X182087093Y-90238094D01*
X182134712Y-90333332D01*
X182134712Y-90523808D01*
X182087093Y-90619046D01*
X181991855Y-90714284D01*
X181801379Y-90761903D01*
X181468046Y-90761903D01*
X181277570Y-90714284D01*
X181182332Y-90619046D01*
X181134712Y-90523808D01*
X182087093Y-89714284D02*
X182134712Y-89571427D01*
X182134712Y-89333332D01*
X182087093Y-89238094D01*
X182039474Y-89190475D01*
X181944236Y-89142856D01*
X181848998Y-89142856D01*
X181753760Y-89190475D01*
X181706141Y-89238094D01*
X181658522Y-89333332D01*
X181610903Y-89523808D01*
X181563284Y-89619046D01*
X181515665Y-89666665D01*
X181420427Y-89714284D01*
X181325189Y-89714284D01*
X181229951Y-89666665D01*
X181182332Y-89619046D01*
X181134712Y-89523808D01*
X181134712Y-89285713D01*
X181182332Y-89142856D01*
X181229951Y-88761903D02*
X181182332Y-88714284D01*
X181134712Y-88619046D01*
X181134712Y-88380951D01*
X181182332Y-88285713D01*
X181229951Y-88238094D01*
X181325189Y-88190475D01*
X181420427Y-88190475D01*
X181563284Y-88238094D01*
X182134712Y-88809522D01*
X182134712Y-88190475D01*
X181134712Y-87285713D02*
X181134712Y-87761903D01*
X181610903Y-87809522D01*
X181563284Y-87761903D01*
X181515665Y-87666665D01*
X181515665Y-87428570D01*
X181563284Y-87333332D01*
X181610903Y-87285713D01*
X181706141Y-87238094D01*
X181944236Y-87238094D01*
X182039474Y-87285713D01*
X182087093Y-87333332D01*
X182134712Y-87428570D01*
X182134712Y-87666665D01*
X182087093Y-87761903D01*
X182039474Y-87809522D01*
X184034712Y-93364284D02*
X184034712Y-93935713D01*
X184034712Y-93649999D02*
X183034712Y-93649999D01*
X183177570Y-93745237D01*
X183272808Y-93840475D01*
X183320427Y-93935713D01*
%TO.C,POS37*%
X82752380Y-34714285D02*
X81752380Y-34714285D01*
X81752380Y-34333333D01*
X81800000Y-34238095D01*
X81847619Y-34190476D01*
X81942857Y-34142857D01*
X82085714Y-34142857D01*
X82180952Y-34190476D01*
X82228571Y-34238095D01*
X82276190Y-34333333D01*
X82276190Y-34714285D01*
X81752380Y-33523809D02*
X81752380Y-33333333D01*
X81800000Y-33238095D01*
X81895238Y-33142857D01*
X82085714Y-33095238D01*
X82419047Y-33095238D01*
X82609523Y-33142857D01*
X82704761Y-33238095D01*
X82752380Y-33333333D01*
X82752380Y-33523809D01*
X82704761Y-33619047D01*
X82609523Y-33714285D01*
X82419047Y-33761904D01*
X82085714Y-33761904D01*
X81895238Y-33714285D01*
X81800000Y-33619047D01*
X81752380Y-33523809D01*
X82704761Y-32714285D02*
X82752380Y-32571428D01*
X82752380Y-32333333D01*
X82704761Y-32238095D01*
X82657142Y-32190476D01*
X82561904Y-32142857D01*
X82466666Y-32142857D01*
X82371428Y-32190476D01*
X82323809Y-32238095D01*
X82276190Y-32333333D01*
X82228571Y-32523809D01*
X82180952Y-32619047D01*
X82133333Y-32666666D01*
X82038095Y-32714285D01*
X81942857Y-32714285D01*
X81847619Y-32666666D01*
X81800000Y-32619047D01*
X81752380Y-32523809D01*
X81752380Y-32285714D01*
X81800000Y-32142857D01*
X81752380Y-31809523D02*
X81752380Y-31190476D01*
X82133333Y-31523809D01*
X82133333Y-31380952D01*
X82180952Y-31285714D01*
X82228571Y-31238095D01*
X82323809Y-31190476D01*
X82561904Y-31190476D01*
X82657142Y-31238095D01*
X82704761Y-31285714D01*
X82752380Y-31380952D01*
X82752380Y-31666666D01*
X82704761Y-31761904D01*
X82657142Y-31809523D01*
X81752380Y-30857142D02*
X81752380Y-30190476D01*
X82752380Y-30619047D01*
X80852380Y-28064285D02*
X80852380Y-28635714D01*
X80852380Y-28350000D02*
X79852380Y-28350000D01*
X79995238Y-28445238D01*
X80090476Y-28540476D01*
X80138095Y-28635714D01*
%TO.C,POS75*%
X95285714Y-151952380D02*
X95285714Y-150952380D01*
X95666666Y-150952380D01*
X95761904Y-151000000D01*
X95809523Y-151047619D01*
X95857142Y-151142857D01*
X95857142Y-151285714D01*
X95809523Y-151380952D01*
X95761904Y-151428571D01*
X95666666Y-151476190D01*
X95285714Y-151476190D01*
X96476190Y-150952380D02*
X96666666Y-150952380D01*
X96761904Y-151000000D01*
X96857142Y-151095238D01*
X96904761Y-151285714D01*
X96904761Y-151619047D01*
X96857142Y-151809523D01*
X96761904Y-151904761D01*
X96666666Y-151952380D01*
X96476190Y-151952380D01*
X96380952Y-151904761D01*
X96285714Y-151809523D01*
X96238095Y-151619047D01*
X96238095Y-151285714D01*
X96285714Y-151095238D01*
X96380952Y-151000000D01*
X96476190Y-150952380D01*
X97285714Y-151904761D02*
X97428571Y-151952380D01*
X97666666Y-151952380D01*
X97761904Y-151904761D01*
X97809523Y-151857142D01*
X97857142Y-151761904D01*
X97857142Y-151666666D01*
X97809523Y-151571428D01*
X97761904Y-151523809D01*
X97666666Y-151476190D01*
X97476190Y-151428571D01*
X97380952Y-151380952D01*
X97333333Y-151333333D01*
X97285714Y-151238095D01*
X97285714Y-151142857D01*
X97333333Y-151047619D01*
X97380952Y-151000000D01*
X97476190Y-150952380D01*
X97714285Y-150952380D01*
X97857142Y-151000000D01*
X98190476Y-150952380D02*
X98857142Y-150952380D01*
X98428571Y-151952380D01*
X99714285Y-150952380D02*
X99238095Y-150952380D01*
X99190476Y-151428571D01*
X99238095Y-151380952D01*
X99333333Y-151333333D01*
X99571428Y-151333333D01*
X99666666Y-151380952D01*
X99714285Y-151428571D01*
X99761904Y-151523809D01*
X99761904Y-151761904D01*
X99714285Y-151857142D01*
X99666666Y-151904761D01*
X99571428Y-151952380D01*
X99333333Y-151952380D01*
X99238095Y-151904761D01*
X99190476Y-151857142D01*
X93635714Y-153852380D02*
X93064285Y-153852380D01*
X93350000Y-153852380D02*
X93350000Y-152852380D01*
X93254761Y-152995238D01*
X93159523Y-153090476D01*
X93064285Y-153138095D01*
%TO.C,POS44*%
X141585714Y-74752380D02*
X141585714Y-73752380D01*
X141966666Y-73752380D01*
X142061904Y-73800000D01*
X142109523Y-73847619D01*
X142157142Y-73942857D01*
X142157142Y-74085714D01*
X142109523Y-74180952D01*
X142061904Y-74228571D01*
X141966666Y-74276190D01*
X141585714Y-74276190D01*
X142776190Y-73752380D02*
X142966666Y-73752380D01*
X143061904Y-73800000D01*
X143157142Y-73895238D01*
X143204761Y-74085714D01*
X143204761Y-74419047D01*
X143157142Y-74609523D01*
X143061904Y-74704761D01*
X142966666Y-74752380D01*
X142776190Y-74752380D01*
X142680952Y-74704761D01*
X142585714Y-74609523D01*
X142538095Y-74419047D01*
X142538095Y-74085714D01*
X142585714Y-73895238D01*
X142680952Y-73800000D01*
X142776190Y-73752380D01*
X143585714Y-74704761D02*
X143728571Y-74752380D01*
X143966666Y-74752380D01*
X144061904Y-74704761D01*
X144109523Y-74657142D01*
X144157142Y-74561904D01*
X144157142Y-74466666D01*
X144109523Y-74371428D01*
X144061904Y-74323809D01*
X143966666Y-74276190D01*
X143776190Y-74228571D01*
X143680952Y-74180952D01*
X143633333Y-74133333D01*
X143585714Y-74038095D01*
X143585714Y-73942857D01*
X143633333Y-73847619D01*
X143680952Y-73800000D01*
X143776190Y-73752380D01*
X144014285Y-73752380D01*
X144157142Y-73800000D01*
X145014285Y-74085714D02*
X145014285Y-74752380D01*
X144776190Y-73704761D02*
X144538095Y-74419047D01*
X145157142Y-74419047D01*
X145966666Y-74085714D02*
X145966666Y-74752380D01*
X145728571Y-73704761D02*
X145490476Y-74419047D01*
X146109523Y-74419047D01*
X148235714Y-72852380D02*
X147664285Y-72852380D01*
X147950000Y-72852380D02*
X147950000Y-71852380D01*
X147854761Y-71995238D01*
X147759523Y-72090476D01*
X147664285Y-72138095D01*
%TO.C,FIN13*%
X117028571Y-110928571D02*
X116695238Y-110928571D01*
X116695238Y-111452380D02*
X116695238Y-110452380D01*
X117171428Y-110452380D01*
X117552380Y-111452380D02*
X117552380Y-110452380D01*
X118028571Y-111452380D02*
X118028571Y-110452380D01*
X118600000Y-111452380D01*
X118600000Y-110452380D01*
X119600000Y-111452380D02*
X119028571Y-111452380D01*
X119314285Y-111452380D02*
X119314285Y-110452380D01*
X119219047Y-110595238D01*
X119123809Y-110690476D01*
X119028571Y-110738095D01*
X119933333Y-110452380D02*
X120552380Y-110452380D01*
X120219047Y-110833333D01*
X120361904Y-110833333D01*
X120457142Y-110880952D01*
X120504761Y-110928571D01*
X120552380Y-111023809D01*
X120552380Y-111261904D01*
X120504761Y-111357142D01*
X120457142Y-111404761D01*
X120361904Y-111452380D01*
X120076190Y-111452380D01*
X119980952Y-111404761D01*
X119933333Y-111357142D01*
X114735714Y-113352380D02*
X114164285Y-113352380D01*
X114450000Y-113352380D02*
X114450000Y-112352380D01*
X114354761Y-112495238D01*
X114259523Y-112590476D01*
X114164285Y-112638095D01*
%TO.C,POS59*%
X182102380Y-104914285D02*
X181102380Y-104914285D01*
X181102380Y-104533333D01*
X181150000Y-104438095D01*
X181197619Y-104390476D01*
X181292857Y-104342857D01*
X181435714Y-104342857D01*
X181530952Y-104390476D01*
X181578571Y-104438095D01*
X181626190Y-104533333D01*
X181626190Y-104914285D01*
X181102380Y-103723809D02*
X181102380Y-103533333D01*
X181150000Y-103438095D01*
X181245238Y-103342857D01*
X181435714Y-103295238D01*
X181769047Y-103295238D01*
X181959523Y-103342857D01*
X182054761Y-103438095D01*
X182102380Y-103533333D01*
X182102380Y-103723809D01*
X182054761Y-103819047D01*
X181959523Y-103914285D01*
X181769047Y-103961904D01*
X181435714Y-103961904D01*
X181245238Y-103914285D01*
X181150000Y-103819047D01*
X181102380Y-103723809D01*
X182054761Y-102914285D02*
X182102380Y-102771428D01*
X182102380Y-102533333D01*
X182054761Y-102438095D01*
X182007142Y-102390476D01*
X181911904Y-102342857D01*
X181816666Y-102342857D01*
X181721428Y-102390476D01*
X181673809Y-102438095D01*
X181626190Y-102533333D01*
X181578571Y-102723809D01*
X181530952Y-102819047D01*
X181483333Y-102866666D01*
X181388095Y-102914285D01*
X181292857Y-102914285D01*
X181197619Y-102866666D01*
X181150000Y-102819047D01*
X181102380Y-102723809D01*
X181102380Y-102485714D01*
X181150000Y-102342857D01*
X181102380Y-101438095D02*
X181102380Y-101914285D01*
X181578571Y-101961904D01*
X181530952Y-101914285D01*
X181483333Y-101819047D01*
X181483333Y-101580952D01*
X181530952Y-101485714D01*
X181578571Y-101438095D01*
X181673809Y-101390476D01*
X181911904Y-101390476D01*
X182007142Y-101438095D01*
X182054761Y-101485714D01*
X182102380Y-101580952D01*
X182102380Y-101819047D01*
X182054761Y-101914285D01*
X182007142Y-101961904D01*
X182102380Y-100914285D02*
X182102380Y-100723809D01*
X182054761Y-100628571D01*
X182007142Y-100580952D01*
X181864285Y-100485714D01*
X181673809Y-100438095D01*
X181292857Y-100438095D01*
X181197619Y-100485714D01*
X181150000Y-100533333D01*
X181102380Y-100628571D01*
X181102380Y-100819047D01*
X181150000Y-100914285D01*
X181197619Y-100961904D01*
X181292857Y-101009523D01*
X181530952Y-101009523D01*
X181626190Y-100961904D01*
X181673809Y-100914285D01*
X181721428Y-100819047D01*
X181721428Y-100628571D01*
X181673809Y-100533333D01*
X181626190Y-100485714D01*
X181530952Y-100438095D01*
X184002380Y-106564285D02*
X184002380Y-107135714D01*
X184002380Y-106850000D02*
X183002380Y-106850000D01*
X183145238Y-106945238D01*
X183240476Y-107040476D01*
X183288095Y-107135714D01*
%TO.C,POS57*%
X159652380Y-91714285D02*
X158652380Y-91714285D01*
X158652380Y-91333333D01*
X158700000Y-91238095D01*
X158747619Y-91190476D01*
X158842857Y-91142857D01*
X158985714Y-91142857D01*
X159080952Y-91190476D01*
X159128571Y-91238095D01*
X159176190Y-91333333D01*
X159176190Y-91714285D01*
X158652380Y-90523809D02*
X158652380Y-90333333D01*
X158700000Y-90238095D01*
X158795238Y-90142857D01*
X158985714Y-90095238D01*
X159319047Y-90095238D01*
X159509523Y-90142857D01*
X159604761Y-90238095D01*
X159652380Y-90333333D01*
X159652380Y-90523809D01*
X159604761Y-90619047D01*
X159509523Y-90714285D01*
X159319047Y-90761904D01*
X158985714Y-90761904D01*
X158795238Y-90714285D01*
X158700000Y-90619047D01*
X158652380Y-90523809D01*
X159604761Y-89714285D02*
X159652380Y-89571428D01*
X159652380Y-89333333D01*
X159604761Y-89238095D01*
X159557142Y-89190476D01*
X159461904Y-89142857D01*
X159366666Y-89142857D01*
X159271428Y-89190476D01*
X159223809Y-89238095D01*
X159176190Y-89333333D01*
X159128571Y-89523809D01*
X159080952Y-89619047D01*
X159033333Y-89666666D01*
X158938095Y-89714285D01*
X158842857Y-89714285D01*
X158747619Y-89666666D01*
X158700000Y-89619047D01*
X158652380Y-89523809D01*
X158652380Y-89285714D01*
X158700000Y-89142857D01*
X158652380Y-88238095D02*
X158652380Y-88714285D01*
X159128571Y-88761904D01*
X159080952Y-88714285D01*
X159033333Y-88619047D01*
X159033333Y-88380952D01*
X159080952Y-88285714D01*
X159128571Y-88238095D01*
X159223809Y-88190476D01*
X159461904Y-88190476D01*
X159557142Y-88238095D01*
X159604761Y-88285714D01*
X159652380Y-88380952D01*
X159652380Y-88619047D01*
X159604761Y-88714285D01*
X159557142Y-88761904D01*
X158652380Y-87857142D02*
X158652380Y-87190476D01*
X159652380Y-87619047D01*
X161552380Y-93364285D02*
X161552380Y-93935714D01*
X161552380Y-93650000D02*
X160552380Y-93650000D01*
X160695238Y-93745238D01*
X160790476Y-93840476D01*
X160838095Y-93935714D01*
%TO.C,POS28*%
X194285702Y-97852381D02*
X194285702Y-96852381D01*
X194666654Y-96852381D01*
X194761892Y-96900001D01*
X194809511Y-96947620D01*
X194857130Y-97042858D01*
X194857130Y-97185715D01*
X194809511Y-97280953D01*
X194761892Y-97328572D01*
X194666654Y-97376191D01*
X194285702Y-97376191D01*
X195476178Y-96852381D02*
X195666654Y-96852381D01*
X195761892Y-96900001D01*
X195857130Y-96995239D01*
X195904749Y-97185715D01*
X195904749Y-97519048D01*
X195857130Y-97709524D01*
X195761892Y-97804762D01*
X195666654Y-97852381D01*
X195476178Y-97852381D01*
X195380940Y-97804762D01*
X195285702Y-97709524D01*
X195238083Y-97519048D01*
X195238083Y-97185715D01*
X195285702Y-96995239D01*
X195380940Y-96900001D01*
X195476178Y-96852381D01*
X196285702Y-97804762D02*
X196428559Y-97852381D01*
X196666654Y-97852381D01*
X196761892Y-97804762D01*
X196809511Y-97757143D01*
X196857130Y-97661905D01*
X196857130Y-97566667D01*
X196809511Y-97471429D01*
X196761892Y-97423810D01*
X196666654Y-97376191D01*
X196476178Y-97328572D01*
X196380940Y-97280953D01*
X196333321Y-97233334D01*
X196285702Y-97138096D01*
X196285702Y-97042858D01*
X196333321Y-96947620D01*
X196380940Y-96900001D01*
X196476178Y-96852381D01*
X196714273Y-96852381D01*
X196857130Y-96900001D01*
X197238083Y-96947620D02*
X197285702Y-96900001D01*
X197380940Y-96852381D01*
X197619035Y-96852381D01*
X197714273Y-96900001D01*
X197761892Y-96947620D01*
X197809511Y-97042858D01*
X197809511Y-97138096D01*
X197761892Y-97280953D01*
X197190464Y-97852381D01*
X197809511Y-97852381D01*
X198380940Y-97280953D02*
X198285702Y-97233334D01*
X198238083Y-97185715D01*
X198190464Y-97090477D01*
X198190464Y-97042858D01*
X198238083Y-96947620D01*
X198285702Y-96900001D01*
X198380940Y-96852381D01*
X198571416Y-96852381D01*
X198666654Y-96900001D01*
X198714273Y-96947620D01*
X198761892Y-97042858D01*
X198761892Y-97090477D01*
X198714273Y-97185715D01*
X198666654Y-97233334D01*
X198571416Y-97280953D01*
X198380940Y-97280953D01*
X198285702Y-97328572D01*
X198238083Y-97376191D01*
X198190464Y-97471429D01*
X198190464Y-97661905D01*
X198238083Y-97757143D01*
X198285702Y-97804762D01*
X198380940Y-97852381D01*
X198571416Y-97852381D01*
X198666654Y-97804762D01*
X198714273Y-97757143D01*
X198761892Y-97661905D01*
X198761892Y-97471429D01*
X198714273Y-97376191D01*
X198666654Y-97328572D01*
X198571416Y-97280953D01*
X192635702Y-99752381D02*
X192064273Y-99752381D01*
X192349988Y-99752381D02*
X192349988Y-98752381D01*
X192254749Y-98895239D01*
X192159511Y-98990477D01*
X192064273Y-99038096D01*
%TO.C,R1*%
X121733333Y-72582380D02*
X121400000Y-72106190D01*
X121161904Y-72582380D02*
X121161904Y-71582380D01*
X121542857Y-71582380D01*
X121638095Y-71630000D01*
X121685714Y-71677619D01*
X121733333Y-71772857D01*
X121733333Y-71915714D01*
X121685714Y-72010952D01*
X121638095Y-72058571D01*
X121542857Y-72106190D01*
X121161904Y-72106190D01*
X122685714Y-72582380D02*
X122114285Y-72582380D01*
X122400000Y-72582380D02*
X122400000Y-71582380D01*
X122304761Y-71725238D01*
X122209523Y-71820476D01*
X122114285Y-71868095D01*
%TO.C,POS82*%
X111585714Y-99452380D02*
X111585714Y-98452380D01*
X111966666Y-98452380D01*
X112061904Y-98500000D01*
X112109523Y-98547619D01*
X112157142Y-98642857D01*
X112157142Y-98785714D01*
X112109523Y-98880952D01*
X112061904Y-98928571D01*
X111966666Y-98976190D01*
X111585714Y-98976190D01*
X112776190Y-98452380D02*
X112966666Y-98452380D01*
X113061904Y-98500000D01*
X113157142Y-98595238D01*
X113204761Y-98785714D01*
X113204761Y-99119047D01*
X113157142Y-99309523D01*
X113061904Y-99404761D01*
X112966666Y-99452380D01*
X112776190Y-99452380D01*
X112680952Y-99404761D01*
X112585714Y-99309523D01*
X112538095Y-99119047D01*
X112538095Y-98785714D01*
X112585714Y-98595238D01*
X112680952Y-98500000D01*
X112776190Y-98452380D01*
X113585714Y-99404761D02*
X113728571Y-99452380D01*
X113966666Y-99452380D01*
X114061904Y-99404761D01*
X114109523Y-99357142D01*
X114157142Y-99261904D01*
X114157142Y-99166666D01*
X114109523Y-99071428D01*
X114061904Y-99023809D01*
X113966666Y-98976190D01*
X113776190Y-98928571D01*
X113680952Y-98880952D01*
X113633333Y-98833333D01*
X113585714Y-98738095D01*
X113585714Y-98642857D01*
X113633333Y-98547619D01*
X113680952Y-98500000D01*
X113776190Y-98452380D01*
X114014285Y-98452380D01*
X114157142Y-98500000D01*
X114728571Y-98880952D02*
X114633333Y-98833333D01*
X114585714Y-98785714D01*
X114538095Y-98690476D01*
X114538095Y-98642857D01*
X114585714Y-98547619D01*
X114633333Y-98500000D01*
X114728571Y-98452380D01*
X114919047Y-98452380D01*
X115014285Y-98500000D01*
X115061904Y-98547619D01*
X115109523Y-98642857D01*
X115109523Y-98690476D01*
X115061904Y-98785714D01*
X115014285Y-98833333D01*
X114919047Y-98880952D01*
X114728571Y-98880952D01*
X114633333Y-98928571D01*
X114585714Y-98976190D01*
X114538095Y-99071428D01*
X114538095Y-99261904D01*
X114585714Y-99357142D01*
X114633333Y-99404761D01*
X114728571Y-99452380D01*
X114919047Y-99452380D01*
X115014285Y-99404761D01*
X115061904Y-99357142D01*
X115109523Y-99261904D01*
X115109523Y-99071428D01*
X115061904Y-98976190D01*
X115014285Y-98928571D01*
X114919047Y-98880952D01*
X115490476Y-98547619D02*
X115538095Y-98500000D01*
X115633333Y-98452380D01*
X115871428Y-98452380D01*
X115966666Y-98500000D01*
X116014285Y-98547619D01*
X116061904Y-98642857D01*
X116061904Y-98738095D01*
X116014285Y-98880952D01*
X115442857Y-99452380D01*
X116061904Y-99452380D01*
X118235714Y-97552380D02*
X117664285Y-97552380D01*
X117950000Y-97552380D02*
X117950000Y-96552380D01*
X117854761Y-96695238D01*
X117759523Y-96790476D01*
X117664285Y-96838095D01*
%TO.C,FIN6*%
X175504761Y-60428571D02*
X175171428Y-60428571D01*
X175171428Y-60952380D02*
X175171428Y-59952380D01*
X175647619Y-59952380D01*
X176028571Y-60952380D02*
X176028571Y-59952380D01*
X176504761Y-60952380D02*
X176504761Y-59952380D01*
X177076190Y-60952380D01*
X177076190Y-59952380D01*
X177980952Y-59952380D02*
X177790476Y-59952380D01*
X177695238Y-60000000D01*
X177647619Y-60047619D01*
X177552380Y-60190476D01*
X177504761Y-60380952D01*
X177504761Y-60761904D01*
X177552380Y-60857142D01*
X177600000Y-60904761D01*
X177695238Y-60952380D01*
X177885714Y-60952380D01*
X177980952Y-60904761D01*
X178028571Y-60857142D01*
X178076190Y-60761904D01*
X178076190Y-60523809D01*
X178028571Y-60428571D01*
X177980952Y-60380952D01*
X177885714Y-60333333D01*
X177695238Y-60333333D01*
X177600000Y-60380952D01*
X177552380Y-60428571D01*
X177504761Y-60523809D01*
X181035714Y-59052380D02*
X180464285Y-59052380D01*
X180750000Y-59052380D02*
X180750000Y-58052380D01*
X180654761Y-58195238D01*
X180559523Y-58290476D01*
X180464285Y-58338095D01*
%TO.C,FIN9*%
X165428571Y-115595238D02*
X165428571Y-115928571D01*
X165952380Y-115928571D02*
X164952380Y-115928571D01*
X164952380Y-115452380D01*
X165952380Y-115071428D02*
X164952380Y-115071428D01*
X165952380Y-114595238D02*
X164952380Y-114595238D01*
X165952380Y-114023809D01*
X164952380Y-114023809D01*
X165952380Y-113500000D02*
X165952380Y-113309523D01*
X165904761Y-113214285D01*
X165857142Y-113166666D01*
X165714285Y-113071428D01*
X165523809Y-113023809D01*
X165142857Y-113023809D01*
X165047619Y-113071428D01*
X165000000Y-113119047D01*
X164952380Y-113214285D01*
X164952380Y-113404761D01*
X165000000Y-113500000D01*
X165047619Y-113547619D01*
X165142857Y-113595238D01*
X165380952Y-113595238D01*
X165476190Y-113547619D01*
X165523809Y-113500000D01*
X165571428Y-113404761D01*
X165571428Y-113214285D01*
X165523809Y-113119047D01*
X165476190Y-113071428D01*
X165380952Y-113023809D01*
X167852380Y-118364285D02*
X167852380Y-118935714D01*
X167852380Y-118650000D02*
X166852380Y-118650000D01*
X166995238Y-118745238D01*
X167090476Y-118840476D01*
X167138095Y-118935714D01*
%TO.C,POS67*%
X170852380Y-143914285D02*
X169852380Y-143914285D01*
X169852380Y-143533333D01*
X169900000Y-143438095D01*
X169947619Y-143390476D01*
X170042857Y-143342857D01*
X170185714Y-143342857D01*
X170280952Y-143390476D01*
X170328571Y-143438095D01*
X170376190Y-143533333D01*
X170376190Y-143914285D01*
X169852380Y-142723809D02*
X169852380Y-142533333D01*
X169900000Y-142438095D01*
X169995238Y-142342857D01*
X170185714Y-142295238D01*
X170519047Y-142295238D01*
X170709523Y-142342857D01*
X170804761Y-142438095D01*
X170852380Y-142533333D01*
X170852380Y-142723809D01*
X170804761Y-142819047D01*
X170709523Y-142914285D01*
X170519047Y-142961904D01*
X170185714Y-142961904D01*
X169995238Y-142914285D01*
X169900000Y-142819047D01*
X169852380Y-142723809D01*
X170804761Y-141914285D02*
X170852380Y-141771428D01*
X170852380Y-141533333D01*
X170804761Y-141438095D01*
X170757142Y-141390476D01*
X170661904Y-141342857D01*
X170566666Y-141342857D01*
X170471428Y-141390476D01*
X170423809Y-141438095D01*
X170376190Y-141533333D01*
X170328571Y-141723809D01*
X170280952Y-141819047D01*
X170233333Y-141866666D01*
X170138095Y-141914285D01*
X170042857Y-141914285D01*
X169947619Y-141866666D01*
X169900000Y-141819047D01*
X169852380Y-141723809D01*
X169852380Y-141485714D01*
X169900000Y-141342857D01*
X169852380Y-140485714D02*
X169852380Y-140676190D01*
X169900000Y-140771428D01*
X169947619Y-140819047D01*
X170090476Y-140914285D01*
X170280952Y-140961904D01*
X170661904Y-140961904D01*
X170757142Y-140914285D01*
X170804761Y-140866666D01*
X170852380Y-140771428D01*
X170852380Y-140580952D01*
X170804761Y-140485714D01*
X170757142Y-140438095D01*
X170661904Y-140390476D01*
X170423809Y-140390476D01*
X170328571Y-140438095D01*
X170280952Y-140485714D01*
X170233333Y-140580952D01*
X170233333Y-140771428D01*
X170280952Y-140866666D01*
X170328571Y-140914285D01*
X170423809Y-140961904D01*
X169852380Y-140057142D02*
X169852380Y-139390476D01*
X170852380Y-139819047D01*
X168952380Y-137264285D02*
X168952380Y-137835714D01*
X168952380Y-137550000D02*
X167952380Y-137550000D01*
X168095238Y-137645238D01*
X168190476Y-137740476D01*
X168238095Y-137835714D01*
%TO.C,POS22*%
X136552369Y-39314285D02*
X135552369Y-39314285D01*
X135552369Y-38933333D01*
X135599989Y-38838095D01*
X135647608Y-38790476D01*
X135742846Y-38742857D01*
X135885703Y-38742857D01*
X135980941Y-38790476D01*
X136028560Y-38838095D01*
X136076179Y-38933333D01*
X136076179Y-39314285D01*
X135552369Y-38123809D02*
X135552369Y-37933333D01*
X135599989Y-37838095D01*
X135695227Y-37742857D01*
X135885703Y-37695238D01*
X136219036Y-37695238D01*
X136409512Y-37742857D01*
X136504750Y-37838095D01*
X136552369Y-37933333D01*
X136552369Y-38123809D01*
X136504750Y-38219047D01*
X136409512Y-38314285D01*
X136219036Y-38361904D01*
X135885703Y-38361904D01*
X135695227Y-38314285D01*
X135599989Y-38219047D01*
X135552369Y-38123809D01*
X136504750Y-37314285D02*
X136552369Y-37171428D01*
X136552369Y-36933333D01*
X136504750Y-36838095D01*
X136457131Y-36790476D01*
X136361893Y-36742857D01*
X136266655Y-36742857D01*
X136171417Y-36790476D01*
X136123798Y-36838095D01*
X136076179Y-36933333D01*
X136028560Y-37123809D01*
X135980941Y-37219047D01*
X135933322Y-37266666D01*
X135838084Y-37314285D01*
X135742846Y-37314285D01*
X135647608Y-37266666D01*
X135599989Y-37219047D01*
X135552369Y-37123809D01*
X135552369Y-36885714D01*
X135599989Y-36742857D01*
X135647608Y-36361904D02*
X135599989Y-36314285D01*
X135552369Y-36219047D01*
X135552369Y-35980952D01*
X135599989Y-35885714D01*
X135647608Y-35838095D01*
X135742846Y-35790476D01*
X135838084Y-35790476D01*
X135980941Y-35838095D01*
X136552369Y-36409523D01*
X136552369Y-35790476D01*
X135647608Y-35409523D02*
X135599989Y-35361904D01*
X135552369Y-35266666D01*
X135552369Y-35028571D01*
X135599989Y-34933333D01*
X135647608Y-34885714D01*
X135742846Y-34838095D01*
X135838084Y-34838095D01*
X135980941Y-34885714D01*
X136552369Y-35457142D01*
X136552369Y-34838095D01*
X134652369Y-32664285D02*
X134652369Y-33235714D01*
X134652369Y-32950000D02*
X133652369Y-32950000D01*
X133795227Y-33045238D01*
X133890465Y-33140476D01*
X133938084Y-33235714D01*
%TO.C,POS74*%
X107385714Y-147452380D02*
X107385714Y-146452380D01*
X107766666Y-146452380D01*
X107861904Y-146500000D01*
X107909523Y-146547619D01*
X107957142Y-146642857D01*
X107957142Y-146785714D01*
X107909523Y-146880952D01*
X107861904Y-146928571D01*
X107766666Y-146976190D01*
X107385714Y-146976190D01*
X108576190Y-146452380D02*
X108766666Y-146452380D01*
X108861904Y-146500000D01*
X108957142Y-146595238D01*
X109004761Y-146785714D01*
X109004761Y-147119047D01*
X108957142Y-147309523D01*
X108861904Y-147404761D01*
X108766666Y-147452380D01*
X108576190Y-147452380D01*
X108480952Y-147404761D01*
X108385714Y-147309523D01*
X108338095Y-147119047D01*
X108338095Y-146785714D01*
X108385714Y-146595238D01*
X108480952Y-146500000D01*
X108576190Y-146452380D01*
X109385714Y-147404761D02*
X109528571Y-147452380D01*
X109766666Y-147452380D01*
X109861904Y-147404761D01*
X109909523Y-147357142D01*
X109957142Y-147261904D01*
X109957142Y-147166666D01*
X109909523Y-147071428D01*
X109861904Y-147023809D01*
X109766666Y-146976190D01*
X109576190Y-146928571D01*
X109480952Y-146880952D01*
X109433333Y-146833333D01*
X109385714Y-146738095D01*
X109385714Y-146642857D01*
X109433333Y-146547619D01*
X109480952Y-146500000D01*
X109576190Y-146452380D01*
X109814285Y-146452380D01*
X109957142Y-146500000D01*
X110290476Y-146452380D02*
X110957142Y-146452380D01*
X110528571Y-147452380D01*
X111766666Y-146785714D02*
X111766666Y-147452380D01*
X111528571Y-146404761D02*
X111290476Y-147119047D01*
X111909523Y-147119047D01*
X105735714Y-149352380D02*
X105164285Y-149352380D01*
X105450000Y-149352380D02*
X105450000Y-148352380D01*
X105354761Y-148495238D01*
X105259523Y-148590476D01*
X105164285Y-148638095D01*
%TO.C,POS49*%
X187885714Y-27752380D02*
X187885714Y-26752380D01*
X188266666Y-26752380D01*
X188361904Y-26800000D01*
X188409523Y-26847619D01*
X188457142Y-26942857D01*
X188457142Y-27085714D01*
X188409523Y-27180952D01*
X188361904Y-27228571D01*
X188266666Y-27276190D01*
X187885714Y-27276190D01*
X189076190Y-26752380D02*
X189266666Y-26752380D01*
X189361904Y-26800000D01*
X189457142Y-26895238D01*
X189504761Y-27085714D01*
X189504761Y-27419047D01*
X189457142Y-27609523D01*
X189361904Y-27704761D01*
X189266666Y-27752380D01*
X189076190Y-27752380D01*
X188980952Y-27704761D01*
X188885714Y-27609523D01*
X188838095Y-27419047D01*
X188838095Y-27085714D01*
X188885714Y-26895238D01*
X188980952Y-26800000D01*
X189076190Y-26752380D01*
X189885714Y-27704761D02*
X190028571Y-27752380D01*
X190266666Y-27752380D01*
X190361904Y-27704761D01*
X190409523Y-27657142D01*
X190457142Y-27561904D01*
X190457142Y-27466666D01*
X190409523Y-27371428D01*
X190361904Y-27323809D01*
X190266666Y-27276190D01*
X190076190Y-27228571D01*
X189980952Y-27180952D01*
X189933333Y-27133333D01*
X189885714Y-27038095D01*
X189885714Y-26942857D01*
X189933333Y-26847619D01*
X189980952Y-26800000D01*
X190076190Y-26752380D01*
X190314285Y-26752380D01*
X190457142Y-26800000D01*
X191314285Y-27085714D02*
X191314285Y-27752380D01*
X191076190Y-26704761D02*
X190838095Y-27419047D01*
X191457142Y-27419047D01*
X191885714Y-27752380D02*
X192076190Y-27752380D01*
X192171428Y-27704761D01*
X192219047Y-27657142D01*
X192314285Y-27514285D01*
X192361904Y-27323809D01*
X192361904Y-26942857D01*
X192314285Y-26847619D01*
X192266666Y-26800000D01*
X192171428Y-26752380D01*
X191980952Y-26752380D01*
X191885714Y-26800000D01*
X191838095Y-26847619D01*
X191790476Y-26942857D01*
X191790476Y-27180952D01*
X191838095Y-27276190D01*
X191885714Y-27323809D01*
X191980952Y-27371428D01*
X192171428Y-27371428D01*
X192266666Y-27323809D01*
X192314285Y-27276190D01*
X192361904Y-27180952D01*
X194535714Y-25852380D02*
X193964285Y-25852380D01*
X194250000Y-25852380D02*
X194250000Y-24852380D01*
X194154761Y-24995238D01*
X194059523Y-25090476D01*
X193964285Y-25138095D01*
D11*
%TO.C,POS32*%
X128749989Y-139049996D02*
X136049989Y-139049996D01*
X128749989Y-144549996D02*
X136049989Y-144549996D01*
X136049989Y-144549996D02*
X136049989Y-143399996D01*
%TO.C,POS26*%
X200149988Y-80849996D02*
X192849988Y-80849996D01*
X200149988Y-75349996D02*
X192849988Y-75349996D01*
X192849988Y-75349996D02*
X192849988Y-76499996D01*
%TO.C,POS20*%
X93349997Y-74549996D02*
X93349997Y-81849996D01*
X87849997Y-74549996D02*
X87849997Y-81849996D01*
X87849997Y-81849996D02*
X88999997Y-81849996D01*
%TO.C,POS46*%
X159950000Y-44650000D02*
X159950000Y-51950000D01*
X154450000Y-44650000D02*
X154450000Y-51950000D01*
X154450000Y-51950000D02*
X155600000Y-51950000D01*
%TO.C,POS70*%
X140150000Y-105550000D02*
X147450000Y-105550000D01*
X140150000Y-111050000D02*
X147450000Y-111050000D01*
X147450000Y-111050000D02*
X147450000Y-109900000D01*
%TO.C,FIN2*%
X113750000Y-53350000D02*
X113750000Y-60650000D01*
X108250000Y-53350000D02*
X108250000Y-60650000D01*
X108250000Y-60650000D02*
X109400000Y-60650000D01*
%TO.C,POS55*%
X181550000Y-73250000D02*
X188850000Y-73250000D01*
X181550000Y-78750000D02*
X188850000Y-78750000D01*
X188850000Y-78750000D02*
X188850000Y-77600000D01*
%TO.C,POS19*%
X93349997Y-85900011D02*
X93349997Y-93200011D01*
X87849997Y-85900011D02*
X87849997Y-93200011D01*
X87849997Y-93200011D02*
X88999997Y-93200011D01*
%TO.C,POS63*%
X205750000Y-149850000D02*
X205750000Y-142550000D01*
X211250000Y-149850000D02*
X211250000Y-142550000D01*
X211250000Y-142550000D02*
X210100000Y-142550000D01*
%TO.C,R2*%
X112437258Y-73877500D02*
X111962742Y-73877500D01*
X112437258Y-74922500D02*
X111962742Y-74922500D01*
%TO.C,POS76*%
X89203033Y-150217677D02*
X89203033Y-157517677D01*
X83703033Y-150217677D02*
X83703033Y-157517677D01*
X83703033Y-157517677D02*
X84853033Y-157517677D01*
%TO.C,POS17*%
X99249999Y-93149999D02*
X99249999Y-85849999D01*
X104749999Y-93149999D02*
X104749999Y-85849999D01*
X104749999Y-85849999D02*
X103599999Y-85849999D01*
%TO.C,POS56*%
X169950000Y-80650000D02*
X177250000Y-80650000D01*
X169950000Y-86150000D02*
X177250000Y-86150000D01*
X177250000Y-86150000D02*
X177250000Y-85000000D01*
%TO.C,POS54*%
X193650000Y-69850000D02*
X193650000Y-62550000D01*
X199150000Y-69850000D02*
X199150000Y-62550000D01*
X199150000Y-62550000D02*
X198000000Y-62550000D01*
%TO.C,POS52*%
X206950000Y-46850000D02*
X206950000Y-39550000D01*
X212450000Y-46850000D02*
X212450000Y-39550000D01*
X212450000Y-39550000D02*
X211300000Y-39550000D01*
%TO.C,R3*%
X130877500Y-78662742D02*
X130877500Y-79137258D01*
X131922500Y-78662742D02*
X131922500Y-79137258D01*
%TO.C,POS31*%
X140046969Y-139049996D02*
X147346969Y-139049996D01*
X140046969Y-144549996D02*
X147346969Y-144549996D01*
X147346969Y-144549996D02*
X147346969Y-143399996D01*
%TO.C,POS18*%
X93349997Y-97150000D02*
X93349997Y-104450000D01*
X87849997Y-97150000D02*
X87849997Y-104450000D01*
X87849997Y-104450000D02*
X88999997Y-104450000D01*
%TO.C,POS50*%
X204750000Y-27717677D02*
X197450000Y-27717677D01*
X204750000Y-22217677D02*
X197450000Y-22217677D01*
X197450000Y-22217677D02*
X197450000Y-23367677D01*
%TO.C,POS40*%
X113250000Y-31050000D02*
X105950000Y-31050000D01*
X113250000Y-25550000D02*
X105950000Y-25550000D01*
X105950000Y-25550000D02*
X105950000Y-26700000D01*
%TO.C,POS53*%
X202650000Y-58850000D02*
X202650000Y-51550000D01*
X208150000Y-58850000D02*
X208150000Y-51550000D01*
X208150000Y-51550000D02*
X207000000Y-51550000D01*
%TO.C,POS24*%
X157849995Y-33450000D02*
X157849995Y-40750000D01*
X152349995Y-33450000D02*
X152349995Y-40750000D01*
X152349995Y-40750000D02*
X153499995Y-40750000D01*
%TO.C,POS80*%
X86950000Y-109750000D02*
X86950000Y-110900000D01*
X94250000Y-109750000D02*
X86950000Y-109750000D01*
X94250000Y-115250000D02*
X86950000Y-115250000D01*
%TO.C,POS47*%
X169650000Y-33450000D02*
X169650000Y-40750000D01*
X164150000Y-33450000D02*
X164150000Y-40750000D01*
X164150000Y-40750000D02*
X165300000Y-40750000D01*
%TO.C,POS30*%
X152249995Y-145449996D02*
X152249995Y-138149996D01*
X157749995Y-145449996D02*
X157749995Y-138149996D01*
X157749995Y-138149996D02*
X156599995Y-138149996D01*
%TO.C,FIN8*%
X188050000Y-39250000D02*
X188050000Y-40400000D01*
X195350000Y-39250000D02*
X188050000Y-39250000D01*
X195350000Y-44750000D02*
X188050000Y-44750000D01*
%TO.C,FIN12*%
X188950000Y-140650000D02*
X188950000Y-133350000D01*
X194450000Y-140650000D02*
X194450000Y-133350000D01*
X194450000Y-133350000D02*
X193300000Y-133350000D01*
%TO.C,FIN16*%
X92250000Y-134250000D02*
X99550000Y-134250000D01*
X92250000Y-139750000D02*
X99550000Y-139750000D01*
X99550000Y-139750000D02*
X99550000Y-138600000D01*
%TO.C,FIN11*%
X181450000Y-133150000D02*
X181450000Y-125850000D01*
X186950000Y-133150000D02*
X186950000Y-125850000D01*
X186950000Y-125850000D02*
X185800000Y-125850000D01*
%TO.C,POS27*%
X192849988Y-86746976D02*
X200149988Y-86746976D01*
X192849988Y-92246976D02*
X200149988Y-92246976D01*
X200149988Y-92246976D02*
X200149988Y-91096976D01*
%TO.C,POS77*%
X81550000Y-142617677D02*
X81550000Y-149917677D01*
X76050000Y-142617677D02*
X76050000Y-149917677D01*
X76050000Y-149917677D02*
X77200000Y-149917677D01*
%TO.C,FIN7*%
X180550000Y-46750000D02*
X180550000Y-47900000D01*
X187850000Y-46750000D02*
X180550000Y-46750000D01*
X187850000Y-52250000D02*
X180550000Y-52250000D01*
%TO.C,POS23*%
X141100004Y-40750000D02*
X141100004Y-33450000D01*
X146600004Y-40750000D02*
X146600004Y-33450000D01*
X146600004Y-33450000D02*
X145450004Y-33450000D01*
%TO.C,POS45*%
X152750000Y-55950000D02*
X152750000Y-63250000D01*
X147250000Y-55950000D02*
X147250000Y-63250000D01*
X147250000Y-63250000D02*
X148400000Y-63250000D01*
%TO.C,FIN5*%
X165300000Y-61750000D02*
X165300000Y-62900000D01*
X172600000Y-61750000D02*
X165300000Y-61750000D01*
X172600000Y-67250000D02*
X165300000Y-67250000D01*
%TO.C,POS72*%
X127750000Y-134150000D02*
X127750000Y-126850000D01*
X133250000Y-134150000D02*
X133250000Y-126850000D01*
X133250000Y-126850000D02*
X132100000Y-126850000D01*
%TO.C,POS61*%
X202649996Y-127150000D02*
X202649996Y-119850000D01*
X208149996Y-127150000D02*
X208149996Y-119850000D01*
X208149996Y-119850000D02*
X206999996Y-119850000D01*
%TO.C,POS29*%
X140149992Y-127732315D02*
X147449992Y-127732315D01*
X140149992Y-133232315D02*
X147449992Y-133232315D01*
X147449992Y-133232315D02*
X147449992Y-132082315D01*
%TO.C,FIN14*%
X107350000Y-119350000D02*
X114650000Y-119350000D01*
X107350000Y-124850000D02*
X114650000Y-124850000D01*
X114650000Y-124850000D02*
X114650000Y-123700000D01*
%TO.C,POS48*%
X181850000Y-30950000D02*
X174550000Y-30950000D01*
X181850000Y-25450000D02*
X174550000Y-25450000D01*
X174550000Y-25450000D02*
X174550000Y-26600000D01*
%TO.C,POS41*%
X117950000Y-40750000D02*
X117950000Y-33450000D01*
X123450000Y-40750000D02*
X123450000Y-33450000D01*
X123450000Y-33450000D02*
X122300000Y-33450000D01*
%TO.C,FIN3*%
X106350000Y-45850000D02*
X106350000Y-53150000D01*
X100850000Y-45850000D02*
X100850000Y-53150000D01*
X100850000Y-53150000D02*
X102000000Y-53150000D01*
%TO.C,POS33*%
X98349999Y-73250000D02*
X105649999Y-73250000D01*
X98349999Y-78750000D02*
X105649999Y-78750000D01*
X105649999Y-78750000D02*
X105649999Y-77600000D01*
%TO.C,POS69*%
X152750000Y-115350000D02*
X152750000Y-122650000D01*
X147250000Y-115350000D02*
X147250000Y-122650000D01*
X147250000Y-122650000D02*
X148400000Y-122650000D01*
%TO.C,POS84*%
X110150000Y-80650000D02*
X117450000Y-80650000D01*
X110150000Y-86150000D02*
X117450000Y-86150000D01*
X117450000Y-86150000D02*
X117450000Y-85000000D01*
%TO.C,POS79*%
X85750000Y-126250000D02*
X78450000Y-126250000D01*
X85750000Y-120750000D02*
X78450000Y-120750000D01*
X78450000Y-120750000D02*
X78450000Y-121900000D01*
%TO.C,POS78*%
X80150000Y-131850000D02*
X80150000Y-139150000D01*
X74650000Y-131850000D02*
X74650000Y-139150000D01*
X74650000Y-139150000D02*
X75800000Y-139150000D01*
%TO.C,POS64*%
X197432322Y-151050000D02*
X204732322Y-151050000D01*
X197432322Y-156550000D02*
X204732322Y-156550000D01*
X204732322Y-156550000D02*
X204732322Y-155400000D01*
%TO.C,POS43*%
X134850000Y-63250000D02*
X134850000Y-55950000D01*
X140350000Y-63250000D02*
X140350000Y-55950000D01*
X140350000Y-55950000D02*
X139200000Y-55950000D01*
%TO.C,POS21*%
X140200004Y-45650005D02*
X147500004Y-45650005D01*
X140200004Y-51150005D02*
X147500004Y-51150005D01*
X147500004Y-51150005D02*
X147500004Y-50000005D01*
%TO.C,POS39*%
X101150000Y-26550000D02*
X93850000Y-26550000D01*
X101150000Y-21050000D02*
X93850000Y-21050000D01*
X93850000Y-21050000D02*
X93850000Y-22200000D01*
%TO.C,FIN1*%
X121450000Y-60850000D02*
X121450000Y-68150000D01*
X115950000Y-60850000D02*
X115950000Y-68150000D01*
X115950000Y-68150000D02*
X117100000Y-68150000D01*
%TO.C,FIN4*%
X98650000Y-38350000D02*
X98650000Y-45650000D01*
X93150000Y-38350000D02*
X93150000Y-45650000D01*
X93150000Y-45650000D02*
X94300000Y-45650000D01*
%TO.C,POS62*%
X206850000Y-138850000D02*
X206850000Y-131550000D01*
X212350000Y-138850000D02*
X212350000Y-131550000D01*
X212350000Y-131550000D02*
X211200000Y-131550000D01*
%TO.C,POS73*%
X117950000Y-145450000D02*
X117950000Y-138150000D01*
X123450000Y-145450000D02*
X123450000Y-138150000D01*
X123450000Y-138150000D02*
X122300000Y-138150000D01*
%TO.C,POS58*%
X177250000Y-98250000D02*
X169950000Y-98250000D01*
X177250000Y-92750000D02*
X169950000Y-92750000D01*
X169950000Y-92750000D02*
X169950000Y-93900000D01*
%TO.C,POS71*%
X140350000Y-115250000D02*
X139200000Y-115250000D01*
X140350000Y-122550000D02*
X140350000Y-115250000D01*
X134850000Y-122550000D02*
X134850000Y-115250000D01*
%TO.C,POS42*%
X127750000Y-51950000D02*
X127750000Y-44650000D01*
X133250000Y-51950000D02*
X133250000Y-44650000D01*
X133250000Y-44650000D02*
X132100000Y-44650000D01*
%TO.C,POS66*%
X180950000Y-146850000D02*
X180950000Y-154150000D01*
X175450000Y-146850000D02*
X175450000Y-154150000D01*
X175450000Y-154150000D02*
X176600000Y-154150000D01*
%TO.C,POS83*%
X127650000Y-85950000D02*
X127650000Y-93250000D01*
X122150000Y-85950000D02*
X122150000Y-93250000D01*
X122150000Y-93250000D02*
X123300000Y-93250000D01*
%TO.C,POS35*%
X84850000Y-51550000D02*
X84850000Y-58850000D01*
X79350000Y-51550000D02*
X79350000Y-58850000D01*
X79350000Y-58850000D02*
X80500000Y-58850000D01*
%TO.C,POS68*%
X159950000Y-126750000D02*
X159950000Y-134050000D01*
X154450000Y-126750000D02*
X154450000Y-134050000D01*
X154450000Y-134050000D02*
X155600000Y-134050000D01*
%TO.C,POS51*%
X205850000Y-36114644D02*
X205850000Y-28814644D01*
X211350000Y-36114644D02*
X211350000Y-28814644D01*
X211350000Y-28814644D02*
X210200000Y-28814644D01*
%TO.C,FIN10*%
X173850000Y-125650000D02*
X173850000Y-118350000D01*
X179350000Y-125650000D02*
X179350000Y-118350000D01*
X179350000Y-118350000D02*
X178200000Y-118350000D01*
%TO.C,POS38*%
X90050000Y-27750000D02*
X82750000Y-27750000D01*
X90050000Y-22250000D02*
X82750000Y-22250000D01*
X82750000Y-22250000D02*
X82750000Y-23400000D01*
%TO.C,POS34*%
X93350000Y-62550000D02*
X93350000Y-69850000D01*
X87850000Y-62550000D02*
X87850000Y-69850000D01*
X87850000Y-69850000D02*
X89000000Y-69850000D01*
%TO.C,POS60*%
X193749988Y-116150000D02*
X193749988Y-108850000D01*
X199249988Y-116150000D02*
X199249988Y-108850000D01*
X199249988Y-108850000D02*
X198099988Y-108850000D01*
%TO.C,POS81*%
X105650000Y-105450000D02*
X98350000Y-105450000D01*
X105650000Y-99950000D02*
X98350000Y-99950000D01*
X98350000Y-99950000D02*
X98350000Y-101100000D01*
%TO.C,POS65*%
X186550000Y-152250000D02*
X193850000Y-152250000D01*
X186550000Y-157750000D02*
X193850000Y-157750000D01*
X193850000Y-157750000D02*
X193850000Y-156600000D01*
%TO.C,R4*%
X121537258Y-77877500D02*
X121062742Y-77877500D01*
X121537258Y-78922500D02*
X121062742Y-78922500D01*
%TO.C,POS36*%
X80250000Y-39550000D02*
X80250000Y-46850000D01*
X74750000Y-39550000D02*
X74750000Y-46850000D01*
X74750000Y-46850000D02*
X75900000Y-46850000D01*
%TO.C,FIN15*%
X99950000Y-126750000D02*
X107250000Y-126750000D01*
X99950000Y-132250000D02*
X107250000Y-132250000D01*
X107250000Y-132250000D02*
X107250000Y-131100000D01*
%TO.C,POS25*%
X182432332Y-93149999D02*
X182432332Y-85849999D01*
X187932332Y-93149999D02*
X187932332Y-85849999D01*
X187932332Y-85849999D02*
X186782332Y-85849999D01*
%TO.C,POS37*%
X81550000Y-28850000D02*
X81550000Y-36150000D01*
X76050000Y-28850000D02*
X76050000Y-36150000D01*
X76050000Y-36150000D02*
X77200000Y-36150000D01*
%TO.C,POS75*%
X93850000Y-152250000D02*
X101150000Y-152250000D01*
X93850000Y-157750000D02*
X101150000Y-157750000D01*
X101150000Y-157750000D02*
X101150000Y-156600000D01*
%TO.C,POS44*%
X147450000Y-73550000D02*
X140150000Y-73550000D01*
X147450000Y-68050000D02*
X140150000Y-68050000D01*
X140150000Y-68050000D02*
X140150000Y-69200000D01*
%TO.C,FIN13*%
X122250000Y-117250000D02*
X122250000Y-116100000D01*
X114950000Y-117250000D02*
X122250000Y-117250000D01*
X114950000Y-111750000D02*
X122250000Y-111750000D01*
%TO.C,POS59*%
X182400000Y-106350000D02*
X182400000Y-99050000D01*
X187900000Y-106350000D02*
X187900000Y-99050000D01*
X187900000Y-99050000D02*
X186750000Y-99050000D01*
%TO.C,POS57*%
X159950000Y-93150000D02*
X159950000Y-85850000D01*
X165450000Y-93150000D02*
X165450000Y-85850000D01*
X165450000Y-85850000D02*
X164300000Y-85850000D01*
%TO.C,POS28*%
X192849988Y-98150001D02*
X200149988Y-98150001D01*
X192849988Y-103650001D02*
X200149988Y-103650001D01*
X200149988Y-103650001D02*
X200149988Y-102500001D01*
%TO.C,R1*%
X122137258Y-70177500D02*
X121662742Y-70177500D01*
X122137258Y-71222500D02*
X121662742Y-71222500D01*
%TO.C,POS82*%
X117450000Y-98250000D02*
X110150000Y-98250000D01*
X117450000Y-92750000D02*
X110150000Y-92750000D01*
X110150000Y-92750000D02*
X110150000Y-93900000D01*
%TO.C,FIN6*%
X180250000Y-59750000D02*
X172950000Y-59750000D01*
X180250000Y-54250000D02*
X172950000Y-54250000D01*
X172950000Y-54250000D02*
X172950000Y-55400000D01*
%TO.C,FIN9*%
X166250000Y-118150000D02*
X166250000Y-110850000D01*
X171750000Y-118150000D02*
X171750000Y-110850000D01*
X171750000Y-110850000D02*
X170600000Y-110850000D01*
%TO.C,POS67*%
X164150000Y-145350000D02*
X165300000Y-145350000D01*
X164150000Y-138050000D02*
X164150000Y-145350000D01*
X169650000Y-138050000D02*
X169650000Y-145350000D01*
%TO.C,POS22*%
X135349989Y-33450000D02*
X135349989Y-40750000D01*
X129849989Y-33450000D02*
X129849989Y-40750000D01*
X129849989Y-40750000D02*
X130999989Y-40750000D01*
%TO.C,POS74*%
X105950000Y-147750000D02*
X113250000Y-147750000D01*
X105950000Y-153250000D02*
X113250000Y-153250000D01*
X113250000Y-153250000D02*
X113250000Y-152100000D01*
%TO.C,POS49*%
X193750000Y-26550000D02*
X186450000Y-26550000D01*
X193750000Y-21050000D02*
X186450000Y-21050000D01*
X186450000Y-21050000D02*
X186450000Y-22200000D01*
%TD*%
M02*
