%TF.GenerationSoftware,KiCad,Pcbnew,(6.0.4)*%
%TF.CreationDate,2022-04-26T19:16:40+02:00*%
%TF.ProjectId,FieldBoard,4669656c-6442-46f6-9172-642e6b696361,rev?*%
%TF.SameCoordinates,Original*%
%TF.FileFunction,Copper,L2,Bot*%
%TF.FilePolarity,Positive*%
%FSLAX46Y46*%
G04 Gerber Fmt 4.6, Leading zero omitted, Abs format (unit mm)*
G04 Created by KiCad (PCBNEW (6.0.4)) date 2022-04-26 19:16:40*
%MOMM*%
%LPD*%
G01*
G04 APERTURE LIST*
%TA.AperFunction,ComponentPad*%
%ADD10R,2.600000X2.600000*%
%TD*%
%TA.AperFunction,ComponentPad*%
%ADD11C,2.600000*%
%TD*%
%TA.AperFunction,ComponentPad*%
%ADD12R,1.700000X1.700000*%
%TD*%
%TA.AperFunction,ComponentPad*%
%ADD13O,1.700000X1.700000*%
%TD*%
%TA.AperFunction,ViaPad*%
%ADD14C,0.800000*%
%TD*%
G04 APERTURE END LIST*
D10*
%TO.P,J1,1,Pin_1*%
%TO.N,VDD*%
X126005000Y-100855000D03*
D11*
%TO.P,J1,2,Pin_2*%
%TO.N,GND*%
X126005000Y-105935000D03*
%TD*%
D12*
%TO.P,J2,1,Pin_1*%
%TO.N,GND*%
X126300000Y-80875000D03*
D13*
%TO.P,J2,2,Pin_2*%
%TO.N,Net-(R4-Pad1)*%
X126300000Y-78335000D03*
%TO.P,J2,3,Pin_3*%
%TO.N,Net-(R3-Pad1)*%
X126300000Y-75795000D03*
%TO.P,J2,4,Pin_4*%
%TO.N,Net-(R2-Pad1)*%
X126300000Y-73255000D03*
%TO.P,J2,5,Pin_5*%
%TO.N,Net-(R1-Pad1)*%
X126300000Y-70715000D03*
%TD*%
D14*
%TO.N,GND*%
X146000000Y-88000000D03*
X134600000Y-88700000D03*
X139400000Y-97900000D03*
X142900000Y-98800000D03*
X153000000Y-96500000D03*
X153000000Y-90400000D03*
X150700000Y-80300000D03*
X144700000Y-80400000D03*
X134600000Y-82700000D03*
X122900000Y-116100000D03*
X115300000Y-123700000D03*
X107900000Y-131100000D03*
X100200000Y-138600000D03*
X136700000Y-143400000D03*
X148000000Y-143400000D03*
X156600000Y-137500000D03*
X148100000Y-132100000D03*
X192200000Y-76500000D03*
X186800000Y-85200000D03*
X200800000Y-91100000D03*
X200800000Y-102500000D03*
X193300000Y-132700000D03*
X185800000Y-125200000D03*
X178200000Y-117700000D03*
X170600000Y-110200000D03*
X187400000Y-40400000D03*
X179900000Y-47900000D03*
X164600000Y-62900000D03*
X172300000Y-55400000D03*
X169300000Y-93900000D03*
X186800000Y-98400000D03*
X198100000Y-108200000D03*
X207000000Y-119200000D03*
X211200000Y-130900000D03*
X210100000Y-141900000D03*
X205400000Y-155400000D03*
X194500000Y-156600000D03*
X176600000Y-154800000D03*
X165300000Y-146000000D03*
X155600000Y-134700000D03*
X148400000Y-123300000D03*
X148100000Y-109900000D03*
X139200000Y-114600000D03*
X132100000Y-126200000D03*
X122300000Y-137500000D03*
X113900000Y-152100000D03*
X101800000Y-156700000D03*
X84900000Y-158200000D03*
X77200000Y-150600000D03*
X75800000Y-139800000D03*
X77800000Y-121900000D03*
X86300000Y-110900000D03*
X97700000Y-101100000D03*
X123300000Y-93900000D03*
X118100000Y-85000000D03*
X109500000Y-93900000D03*
X189500000Y-77600000D03*
X177900000Y-85000000D03*
X164300000Y-85200000D03*
X210200000Y-28200000D03*
X211300000Y-38900000D03*
X207000000Y-50900000D03*
X198000000Y-61900000D03*
X173900000Y-26600000D03*
X185800000Y-22200000D03*
X196800000Y-23400000D03*
X131000000Y-41400000D03*
X148200000Y-50000000D03*
X145500000Y-32800000D03*
X153500000Y-41400000D03*
X165300000Y-41400000D03*
X155600000Y-52600000D03*
X148400000Y-63900000D03*
X139200000Y-55300000D03*
X139500000Y-69200000D03*
X109400000Y-61300000D03*
X102000000Y-53800000D03*
X94300000Y-46300000D03*
X132100000Y-44000000D03*
X122300000Y-32800000D03*
X105300000Y-26700000D03*
X93200000Y-22200000D03*
X82100000Y-23400000D03*
X77200000Y-36800000D03*
X75900000Y-47500000D03*
X80500000Y-59500000D03*
X89000000Y-70500000D03*
X117100000Y-68800000D03*
X106400000Y-77600000D03*
X89000000Y-82500000D03*
X89000000Y-93900000D03*
X89000000Y-105100000D03*
X103600000Y-85200000D03*
%TD*%
%TA.AperFunction,Conductor*%
%TO.N,GND*%
G36*
X194505276Y-14644086D02*
G01*
X198856731Y-14658861D01*
X198857687Y-14658873D01*
X198857864Y-14658946D01*
X198858030Y-14658877D01*
X198859052Y-14658890D01*
X199368289Y-14670001D01*
X199727470Y-14677838D01*
X199732951Y-14678078D01*
X200570333Y-14732963D01*
X200599675Y-14734941D01*
X200604841Y-14735399D01*
X201296561Y-14811154D01*
X201478875Y-14831696D01*
X201483878Y-14832362D01*
X202106605Y-14928209D01*
X202106735Y-14928229D01*
X202352947Y-14967225D01*
X202357762Y-14968085D01*
X202720032Y-15040145D01*
X202939781Y-15083856D01*
X202940473Y-15083996D01*
X203220104Y-15141251D01*
X203224778Y-15142301D01*
X203653230Y-15247142D01*
X203778882Y-15277888D01*
X203779591Y-15278064D01*
X203899865Y-15308370D01*
X204078695Y-15353432D01*
X204083166Y-15354647D01*
X204615812Y-15509899D01*
X204616791Y-15510188D01*
X204722852Y-15542036D01*
X204927028Y-15603347D01*
X204931206Y-15604683D01*
X205401254Y-15764243D01*
X205446110Y-15779470D01*
X205447223Y-15779854D01*
X205763335Y-15890466D01*
X205767387Y-15891962D01*
X206266553Y-16086077D01*
X206267472Y-16086440D01*
X206586171Y-16214280D01*
X206589952Y-16215869D01*
X207074163Y-16428927D01*
X207075494Y-16429522D01*
X207393779Y-16574094D01*
X207397399Y-16575808D01*
X207867302Y-16807539D01*
X207868777Y-16808278D01*
X208184652Y-16969224D01*
X208188048Y-16971021D01*
X208644110Y-17221224D01*
X208645511Y-17222006D01*
X208957203Y-17398866D01*
X208960351Y-17400713D01*
X209402465Y-17668994D01*
X209404097Y-17670003D01*
X209709922Y-17862166D01*
X209712888Y-17864088D01*
X210140870Y-18150055D01*
X210142623Y-18151248D01*
X210441370Y-18358221D01*
X210444120Y-18360181D01*
X210857788Y-18663496D01*
X210859612Y-18664859D01*
X211150071Y-18886014D01*
X211152608Y-18887997D01*
X211551678Y-19208284D01*
X211553562Y-19209827D01*
X211834718Y-19444552D01*
X211836961Y-19446471D01*
X212221086Y-19783340D01*
X212223016Y-19785069D01*
X212493838Y-20032611D01*
X212495938Y-20034575D01*
X212727261Y-20256018D01*
X212864691Y-20387579D01*
X212866655Y-20389501D01*
X213126218Y-20649063D01*
X213128141Y-20651028D01*
X213481167Y-21019804D01*
X213483152Y-21021927D01*
X213730625Y-21292675D01*
X213732354Y-21294605D01*
X214069237Y-21678745D01*
X214071228Y-21681073D01*
X214305915Y-21962183D01*
X214307435Y-21964040D01*
X214627741Y-22363131D01*
X214629673Y-22365603D01*
X214850899Y-22656155D01*
X214852262Y-22657979D01*
X215155545Y-23071604D01*
X215157505Y-23074354D01*
X215364488Y-23373116D01*
X215365681Y-23374869D01*
X215651642Y-23802841D01*
X215653564Y-23805807D01*
X215845715Y-24111614D01*
X215846728Y-24113253D01*
X216115024Y-24555392D01*
X216116875Y-24558546D01*
X216293663Y-24870110D01*
X216294488Y-24871587D01*
X216425012Y-25109501D01*
X216544706Y-25327675D01*
X216546505Y-25331076D01*
X216707461Y-25646969D01*
X216708200Y-25648444D01*
X216939920Y-26118327D01*
X216941634Y-26121947D01*
X217086216Y-26440254D01*
X217086817Y-26441598D01*
X217299850Y-26925753D01*
X217301427Y-26929501D01*
X217301445Y-26929546D01*
X217429294Y-27248272D01*
X217429784Y-27249513D01*
X217623755Y-27748308D01*
X217625251Y-27752360D01*
X217735904Y-28068588D01*
X217736286Y-28069696D01*
X217911027Y-28584465D01*
X217911029Y-28584472D01*
X217912393Y-28588736D01*
X218005535Y-28898914D01*
X218005824Y-28899893D01*
X218161088Y-29432580D01*
X218162301Y-29437045D01*
X218237627Y-29735980D01*
X218237628Y-29735985D01*
X218237804Y-29736695D01*
X218237835Y-29736819D01*
X218237836Y-29736824D01*
X218373429Y-30290949D01*
X218374479Y-30295623D01*
X218431748Y-30575326D01*
X218431888Y-30576019D01*
X218547634Y-31157911D01*
X218548504Y-31162781D01*
X218587486Y-31408900D01*
X218587546Y-31409282D01*
X218683368Y-32031850D01*
X218684034Y-32036853D01*
X218704564Y-32219060D01*
X218704620Y-32219565D01*
X218704620Y-32219566D01*
X218780330Y-32910870D01*
X218780789Y-32916053D01*
X218782749Y-32945114D01*
X218837652Y-33782772D01*
X218837892Y-33788264D01*
X218856837Y-34656526D01*
X218856851Y-34657697D01*
X218856782Y-34657864D01*
X218856855Y-34658041D01*
X218856867Y-34659006D01*
X218889635Y-50022301D01*
X218869778Y-50090465D01*
X218863417Y-50099508D01*
X203815098Y-69614907D01*
X203814963Y-69614963D01*
X203814856Y-69615220D01*
X203814815Y-69615274D01*
X203814779Y-69615406D01*
X203814728Y-69615530D01*
X203814728Y-69615596D01*
X203814655Y-69615867D01*
X203814728Y-69615994D01*
X203814728Y-108015462D01*
X203814655Y-108015589D01*
X203814728Y-108015859D01*
X203814728Y-108015926D01*
X203814780Y-108016051D01*
X203814815Y-108016181D01*
X203814855Y-108016234D01*
X203814963Y-108016493D01*
X203815099Y-108016549D01*
X203824561Y-108028831D01*
X205111838Y-109699734D01*
X218888397Y-127581891D01*
X218914125Y-127648059D01*
X218914581Y-127659203D01*
X218909178Y-129250339D01*
X218856867Y-144656731D01*
X218856855Y-144657687D01*
X218856782Y-144657864D01*
X218856851Y-144658030D01*
X218856838Y-144659052D01*
X218837890Y-145527464D01*
X218837650Y-145532951D01*
X218782755Y-146370482D01*
X218780787Y-146399675D01*
X218780329Y-146404841D01*
X218704584Y-147096472D01*
X218684033Y-147278868D01*
X218683366Y-147283878D01*
X218587547Y-147906428D01*
X218587499Y-147906735D01*
X218548503Y-148152947D01*
X218547643Y-148157762D01*
X218475583Y-148520032D01*
X218431872Y-148739781D01*
X218431732Y-148740473D01*
X218374477Y-149020104D01*
X218373427Y-149024778D01*
X218237858Y-149578808D01*
X218237650Y-149579647D01*
X218162296Y-149878695D01*
X218161081Y-149883166D01*
X218005829Y-150415812D01*
X218005540Y-150416791D01*
X217912394Y-150726984D01*
X217911030Y-150731249D01*
X217736252Y-151246126D01*
X217735868Y-151247239D01*
X217625259Y-151563343D01*
X217623763Y-151567395D01*
X217429750Y-152066296D01*
X217429260Y-152067538D01*
X217301449Y-152386170D01*
X217299835Y-152390007D01*
X217086815Y-152874132D01*
X217086220Y-152875464D01*
X216941631Y-153193785D01*
X216939923Y-153197393D01*
X216939920Y-153197400D01*
X216708196Y-153667289D01*
X216707476Y-153668726D01*
X216565888Y-153946607D01*
X216546506Y-153984647D01*
X216544707Y-153988049D01*
X216294533Y-154444056D01*
X216293652Y-154445633D01*
X216116868Y-154757190D01*
X216115000Y-154760373D01*
X215846746Y-155202443D01*
X215845714Y-155204114D01*
X215653563Y-155509921D01*
X215651641Y-155512887D01*
X215365680Y-155940859D01*
X215364487Y-155942612D01*
X215157506Y-156241371D01*
X215155546Y-156244121D01*
X214852226Y-156657795D01*
X214850863Y-156659619D01*
X214629695Y-156950095D01*
X214627711Y-156952632D01*
X214307471Y-157351643D01*
X214305929Y-157353527D01*
X214071180Y-157634712D01*
X214069251Y-157636966D01*
X213904974Y-157824288D01*
X213732359Y-158021117D01*
X213730630Y-158023047D01*
X213483151Y-158293801D01*
X213481166Y-158295924D01*
X213128111Y-158664730D01*
X213126188Y-158666694D01*
X212866694Y-158926188D01*
X212864730Y-158928111D01*
X212495924Y-159281166D01*
X212493801Y-159283151D01*
X212223047Y-159530630D01*
X212221117Y-159532359D01*
X212024288Y-159704974D01*
X211836966Y-159869251D01*
X211834712Y-159871180D01*
X211652128Y-160023612D01*
X211553527Y-160105929D01*
X211551643Y-160107471D01*
X211152632Y-160427711D01*
X211150095Y-160429695D01*
X210859619Y-160650863D01*
X210857795Y-160652226D01*
X210444121Y-160955546D01*
X210441371Y-160957506D01*
X210142612Y-161164487D01*
X210140870Y-161165673D01*
X210140849Y-161165687D01*
X209712887Y-161451641D01*
X209709921Y-161453563D01*
X209404114Y-161645714D01*
X209402443Y-161646746D01*
X208960373Y-161915000D01*
X208957190Y-161916868D01*
X208645633Y-162093652D01*
X208644056Y-162094533D01*
X208188049Y-162344707D01*
X208184653Y-162346503D01*
X207868742Y-162507468D01*
X207867330Y-162508175D01*
X207397423Y-162739908D01*
X207397399Y-162739920D01*
X207393779Y-162741634D01*
X207075494Y-162886206D01*
X207074163Y-162886801D01*
X206589985Y-163099844D01*
X206586196Y-163101438D01*
X206486695Y-163141351D01*
X206267538Y-163229260D01*
X206266296Y-163229750D01*
X205767395Y-163423763D01*
X205763343Y-163425259D01*
X205447239Y-163535868D01*
X205446126Y-163536252D01*
X204931249Y-163711030D01*
X204926984Y-163712394D01*
X204616791Y-163805540D01*
X204615812Y-163805829D01*
X204083166Y-163961081D01*
X204078695Y-163962296D01*
X203899865Y-164007358D01*
X203779591Y-164037664D01*
X203778909Y-164037833D01*
X203653230Y-164068586D01*
X203224778Y-164173427D01*
X203220104Y-164174477D01*
X202940473Y-164231732D01*
X202939781Y-164231872D01*
X202720032Y-164275583D01*
X202357762Y-164347643D01*
X202352947Y-164348503D01*
X202106735Y-164387499D01*
X202106605Y-164387519D01*
X201483878Y-164483366D01*
X201478875Y-164484032D01*
X201296561Y-164504574D01*
X200604841Y-164580329D01*
X200599675Y-164580787D01*
X200570333Y-164582765D01*
X199732951Y-164637650D01*
X199727470Y-164637890D01*
X199428326Y-164644417D01*
X198859095Y-164656837D01*
X198858028Y-164656850D01*
X198857864Y-164656782D01*
X198857691Y-164656854D01*
X198856615Y-164656867D01*
X183493427Y-164689635D01*
X183425263Y-164669778D01*
X183416217Y-164663415D01*
X183410422Y-164658946D01*
X166342565Y-151497926D01*
X163905906Y-149619019D01*
X163900821Y-149615098D01*
X163900765Y-149614963D01*
X163900508Y-149614856D01*
X163900454Y-149614815D01*
X163900322Y-149614779D01*
X163900198Y-149614728D01*
X163900132Y-149614728D01*
X163899861Y-149614655D01*
X163899734Y-149614728D01*
X125500266Y-149614728D01*
X125500139Y-149614655D01*
X125499868Y-149614728D01*
X125499802Y-149614728D01*
X125499678Y-149614779D01*
X125499546Y-149614815D01*
X125499492Y-149614856D01*
X125499235Y-149614963D01*
X125499179Y-149615098D01*
X105933838Y-164688397D01*
X105867670Y-164714125D01*
X105856526Y-164714581D01*
X93210504Y-164671642D01*
X88858997Y-164656867D01*
X88858041Y-164656855D01*
X88857864Y-164656782D01*
X88857698Y-164656851D01*
X88856676Y-164656838D01*
X88347439Y-164645727D01*
X87988258Y-164637890D01*
X87982777Y-164637650D01*
X87145395Y-164582765D01*
X87116053Y-164580787D01*
X87110887Y-164580329D01*
X86419304Y-164504589D01*
X86236864Y-164484033D01*
X86231828Y-164483362D01*
X85609374Y-164387558D01*
X85609081Y-164387512D01*
X85435532Y-164360025D01*
X85362782Y-164348502D01*
X85357912Y-164347632D01*
X84776019Y-164231886D01*
X84775326Y-164231746D01*
X84495623Y-164174477D01*
X84490949Y-164173427D01*
X84287660Y-164123683D01*
X83936503Y-164037755D01*
X83936180Y-164037675D01*
X83637047Y-163962300D01*
X83632581Y-163961086D01*
X83632564Y-163961081D01*
X83099875Y-163805817D01*
X83098968Y-163805549D01*
X82788695Y-163712378D01*
X82784499Y-163711036D01*
X82269696Y-163536284D01*
X82268582Y-163535900D01*
X81952369Y-163425252D01*
X81948317Y-163423756D01*
X81449497Y-163229775D01*
X81448255Y-163229285D01*
X81231712Y-163142424D01*
X81129514Y-163101430D01*
X81125719Y-163099833D01*
X80641598Y-162886815D01*
X80640364Y-162886264D01*
X80321901Y-162741611D01*
X80318328Y-162739919D01*
X79848399Y-162508175D01*
X79847044Y-162507497D01*
X79719996Y-162442763D01*
X79531077Y-162346503D01*
X79527676Y-162344704D01*
X79309502Y-162225010D01*
X79071589Y-162094487D01*
X79070176Y-162093697D01*
X78907302Y-162001280D01*
X78758543Y-161916870D01*
X78755360Y-161915002D01*
X78464567Y-161738546D01*
X78313284Y-161646745D01*
X78311684Y-161645757D01*
X78005788Y-161453549D01*
X78002822Y-161451627D01*
X77832480Y-161337808D01*
X77574839Y-161165658D01*
X77573171Y-161164523D01*
X77427643Y-161063701D01*
X77274354Y-160957502D01*
X77271604Y-160955542D01*
X76857975Y-160652257D01*
X76856151Y-160650894D01*
X76565639Y-160429698D01*
X76563102Y-160427714D01*
X76164041Y-160107434D01*
X76162235Y-160105957D01*
X75881017Y-159871179D01*
X75878729Y-159869221D01*
X75494665Y-159532406D01*
X75492735Y-159530677D01*
X75221869Y-159283095D01*
X75219770Y-159281132D01*
X74851039Y-158928149D01*
X74849075Y-158926226D01*
X74589512Y-158666663D01*
X74587589Y-158664699D01*
X74234583Y-158295945D01*
X74232598Y-158293822D01*
X73985088Y-158023034D01*
X73983359Y-158021104D01*
X73646496Y-157636986D01*
X73644505Y-157634658D01*
X73409815Y-157353544D01*
X73408273Y-157351661D01*
X73408259Y-157351643D01*
X73088001Y-156952610D01*
X73086062Y-156950130D01*
X72864820Y-156659557D01*
X72863457Y-156657733D01*
X72560189Y-156244127D01*
X72558229Y-156241377D01*
X72351231Y-155942593D01*
X72350038Y-155940840D01*
X72064111Y-155512921D01*
X72062189Y-155509955D01*
X71869977Y-155204051D01*
X71868945Y-155202381D01*
X71600694Y-154760315D01*
X71598890Y-154757241D01*
X71422065Y-154445612D01*
X71421205Y-154444070D01*
X71171011Y-153988028D01*
X71169223Y-153984647D01*
X71065410Y-153780902D01*
X71008286Y-153668788D01*
X71007547Y-153667314D01*
X70775811Y-153197400D01*
X70774097Y-153193780D01*
X70629515Y-152875473D01*
X70628906Y-152874111D01*
X70415893Y-152390002D01*
X70414280Y-152386165D01*
X70286486Y-152067580D01*
X70285995Y-152066338D01*
X70091965Y-151567389D01*
X70090469Y-151563337D01*
X69979853Y-151247212D01*
X69979469Y-151246099D01*
X69804707Y-150731269D01*
X69803343Y-150727005D01*
X69710179Y-150416757D01*
X69709890Y-150415777D01*
X69554644Y-149883150D01*
X69553429Y-149878679D01*
X69550243Y-149866037D01*
X69478055Y-149579547D01*
X69477939Y-149579079D01*
X69411532Y-149307697D01*
X69342303Y-149024778D01*
X69341253Y-149020104D01*
X69283998Y-148740473D01*
X69283858Y-148739781D01*
X69246988Y-148554424D01*
X69168085Y-148157754D01*
X69167229Y-148152956D01*
X69128201Y-147906544D01*
X69128183Y-147906428D01*
X69032368Y-147283907D01*
X69031697Y-147278868D01*
X69011127Y-147096300D01*
X69011084Y-147095910D01*
X68935402Y-146404858D01*
X68934943Y-146399675D01*
X68932975Y-146370482D01*
X68878080Y-145532951D01*
X68877840Y-145527463D01*
X68858891Y-144658987D01*
X68858879Y-144658024D01*
X68858946Y-144657864D01*
X68858875Y-144657694D01*
X68858861Y-144656508D01*
X68826093Y-129293426D01*
X68845950Y-129225262D01*
X68852313Y-129216216D01*
X70086549Y-127615599D01*
X83900630Y-109700821D01*
X83900765Y-109700765D01*
X83900872Y-109700508D01*
X83900913Y-109700454D01*
X83900949Y-109700322D01*
X83901000Y-109700198D01*
X83901000Y-109700132D01*
X83901073Y-109699861D01*
X83901000Y-109699734D01*
X83901000Y-107379906D01*
X124924839Y-107379906D01*
X124933553Y-107391427D01*
X125040452Y-107469809D01*
X125048351Y-107474745D01*
X125277905Y-107595519D01*
X125286454Y-107599236D01*
X125531327Y-107684749D01*
X125540336Y-107687163D01*
X125795166Y-107735544D01*
X125804423Y-107736598D01*
X126063607Y-107746783D01*
X126072921Y-107746457D01*
X126330753Y-107718220D01*
X126339930Y-107716519D01*
X126590758Y-107650481D01*
X126599574Y-107647445D01*
X126837880Y-107545062D01*
X126846167Y-107540748D01*
X127066718Y-107404266D01*
X127074268Y-107398780D01*
X127079559Y-107394301D01*
X127087997Y-107381497D01*
X127081935Y-107371145D01*
X126017812Y-106307022D01*
X126003868Y-106299408D01*
X126002035Y-106299539D01*
X125995420Y-106303790D01*
X124931497Y-107367713D01*
X124924839Y-107379906D01*
X83901000Y-107379906D01*
X83901000Y-105892211D01*
X124192775Y-105892211D01*
X124205220Y-106151288D01*
X124206356Y-106160543D01*
X124256961Y-106414945D01*
X124259449Y-106423917D01*
X124347095Y-106668033D01*
X124350895Y-106676568D01*
X124473658Y-106905042D01*
X124478666Y-106912904D01*
X124548720Y-107006716D01*
X124559979Y-107015165D01*
X124572397Y-107008393D01*
X125632978Y-105947812D01*
X125639356Y-105936132D01*
X126369408Y-105936132D01*
X126369539Y-105937965D01*
X126373790Y-105944580D01*
X127441094Y-107011884D01*
X127453474Y-107018644D01*
X127461815Y-107012400D01*
X127595832Y-106804048D01*
X127600275Y-106795864D01*
X127706807Y-106559370D01*
X127709997Y-106550605D01*
X127780402Y-106300972D01*
X127782262Y-106291830D01*
X127815187Y-106033019D01*
X127815668Y-106026733D01*
X127817987Y-105938160D01*
X127817836Y-105931851D01*
X127798501Y-105671663D01*
X127797125Y-105662457D01*
X127739878Y-105409467D01*
X127737154Y-105400556D01*
X127643143Y-105158806D01*
X127639132Y-105150397D01*
X127510422Y-104925202D01*
X127505211Y-104917476D01*
X127461996Y-104862658D01*
X127450071Y-104854187D01*
X127438537Y-104860673D01*
X126377022Y-105922188D01*
X126369408Y-105936132D01*
X125639356Y-105936132D01*
X125640592Y-105933868D01*
X125640461Y-105932035D01*
X125636210Y-105925420D01*
X124570816Y-104860026D01*
X124557507Y-104852758D01*
X124547472Y-104859878D01*
X124531937Y-104878556D01*
X124526531Y-104886135D01*
X124391965Y-105107891D01*
X124387736Y-105116192D01*
X124287432Y-105355389D01*
X124284471Y-105364239D01*
X124220628Y-105615625D01*
X124219006Y-105624822D01*
X124193020Y-105882885D01*
X124192775Y-105892211D01*
X83901000Y-105892211D01*
X83901000Y-104487689D01*
X124922102Y-104487689D01*
X124926675Y-104497465D01*
X125992188Y-105562978D01*
X126006132Y-105570592D01*
X126007965Y-105570461D01*
X126014580Y-105566210D01*
X127079349Y-104501441D01*
X127085733Y-104489751D01*
X127076321Y-104477641D01*
X126929045Y-104375471D01*
X126921010Y-104370738D01*
X126688376Y-104256016D01*
X126679743Y-104252528D01*
X126432703Y-104173450D01*
X126423643Y-104171274D01*
X126167630Y-104129580D01*
X126158343Y-104128768D01*
X125898992Y-104125373D01*
X125889681Y-104125943D01*
X125632682Y-104160919D01*
X125623546Y-104162860D01*
X125374543Y-104235439D01*
X125365800Y-104238707D01*
X125130252Y-104347296D01*
X125122097Y-104351816D01*
X124931240Y-104476947D01*
X124922102Y-104487689D01*
X83901000Y-104487689D01*
X83901000Y-102174748D01*
X124504500Y-102174748D01*
X124516133Y-102233231D01*
X124560448Y-102299552D01*
X124626769Y-102343867D01*
X124638938Y-102346288D01*
X124638939Y-102346288D01*
X124679184Y-102354293D01*
X124685252Y-102355500D01*
X127324748Y-102355500D01*
X127330816Y-102354293D01*
X127371061Y-102346288D01*
X127371062Y-102346288D01*
X127383231Y-102343867D01*
X127449552Y-102299552D01*
X127493867Y-102233231D01*
X127505500Y-102174748D01*
X127505500Y-99535252D01*
X127493867Y-99476769D01*
X127449552Y-99410448D01*
X127383231Y-99366133D01*
X127371062Y-99363712D01*
X127371061Y-99363712D01*
X127330816Y-99355707D01*
X127324748Y-99354500D01*
X124685252Y-99354500D01*
X124679184Y-99355707D01*
X124638939Y-99363712D01*
X124638938Y-99363712D01*
X124626769Y-99366133D01*
X124560448Y-99410448D01*
X124516133Y-99476769D01*
X124504500Y-99535252D01*
X124504500Y-102174748D01*
X83901000Y-102174748D01*
X83901000Y-81769669D01*
X124942001Y-81769669D01*
X124942371Y-81776490D01*
X124947895Y-81827352D01*
X124951521Y-81842604D01*
X124996676Y-81963054D01*
X125005214Y-81978649D01*
X125081715Y-82080724D01*
X125094276Y-82093285D01*
X125196351Y-82169786D01*
X125211946Y-82178324D01*
X125332394Y-82223478D01*
X125347649Y-82227105D01*
X125398514Y-82232631D01*
X125405328Y-82233000D01*
X126027885Y-82233000D01*
X126043124Y-82228525D01*
X126044329Y-82227135D01*
X126046000Y-82219452D01*
X126046000Y-82214884D01*
X126554000Y-82214884D01*
X126558475Y-82230123D01*
X126559865Y-82231328D01*
X126567548Y-82232999D01*
X127194669Y-82232999D01*
X127201490Y-82232629D01*
X127252352Y-82227105D01*
X127267604Y-82223479D01*
X127388054Y-82178324D01*
X127403649Y-82169786D01*
X127505724Y-82093285D01*
X127518285Y-82080724D01*
X127594786Y-81978649D01*
X127603324Y-81963054D01*
X127648478Y-81842606D01*
X127652105Y-81827351D01*
X127657631Y-81776486D01*
X127658000Y-81769672D01*
X127658000Y-81147115D01*
X127653525Y-81131876D01*
X127652135Y-81130671D01*
X127644452Y-81129000D01*
X126572115Y-81129000D01*
X126556876Y-81133475D01*
X126555671Y-81134865D01*
X126554000Y-81142548D01*
X126554000Y-82214884D01*
X126046000Y-82214884D01*
X126046000Y-81147115D01*
X126041525Y-81131876D01*
X126040135Y-81130671D01*
X126032452Y-81129000D01*
X124960116Y-81129000D01*
X124944877Y-81133475D01*
X124943672Y-81134865D01*
X124942001Y-81142548D01*
X124942001Y-81769669D01*
X83901000Y-81769669D01*
X83901000Y-80602885D01*
X124942000Y-80602885D01*
X124946475Y-80618124D01*
X124947865Y-80619329D01*
X124955548Y-80621000D01*
X127639884Y-80621000D01*
X127655123Y-80616525D01*
X127656328Y-80615135D01*
X127657999Y-80607452D01*
X127657999Y-79980331D01*
X127657629Y-79973510D01*
X127652105Y-79922648D01*
X127648479Y-79907396D01*
X127603324Y-79786946D01*
X127594786Y-79771351D01*
X127518285Y-79669276D01*
X127505724Y-79656715D01*
X127403649Y-79580214D01*
X127388054Y-79571676D01*
X127267606Y-79526522D01*
X127252351Y-79522895D01*
X127201486Y-79517369D01*
X127194672Y-79517000D01*
X126818932Y-79517000D01*
X126750811Y-79496998D01*
X126704318Y-79443342D01*
X126694214Y-79373068D01*
X126723708Y-79308488D01*
X126762121Y-79278534D01*
X126860116Y-79229033D01*
X126865610Y-79226258D01*
X127027951Y-79099424D01*
X127162564Y-78943472D01*
X127183387Y-78906818D01*
X127261276Y-78769707D01*
X127264323Y-78764344D01*
X127329351Y-78568863D01*
X127355171Y-78364474D01*
X127355583Y-78335000D01*
X127335480Y-78129970D01*
X127275935Y-77932749D01*
X127179218Y-77750849D01*
X127105859Y-77660902D01*
X127052906Y-77595975D01*
X127052903Y-77595972D01*
X127049011Y-77591200D01*
X127031786Y-77576950D01*
X126895025Y-77463811D01*
X126895021Y-77463809D01*
X126890275Y-77459882D01*
X126709055Y-77361897D01*
X126512254Y-77300977D01*
X126506129Y-77300333D01*
X126506128Y-77300333D01*
X126313498Y-77280087D01*
X126313496Y-77280087D01*
X126307369Y-77279443D01*
X126220529Y-77287346D01*
X126108342Y-77297555D01*
X126108339Y-77297556D01*
X126102203Y-77298114D01*
X125904572Y-77356280D01*
X125722002Y-77451726D01*
X125717201Y-77455586D01*
X125717198Y-77455588D01*
X125706971Y-77463811D01*
X125561447Y-77580815D01*
X125429024Y-77738630D01*
X125426056Y-77744028D01*
X125426053Y-77744033D01*
X125419315Y-77756290D01*
X125329776Y-77919162D01*
X125267484Y-78115532D01*
X125266798Y-78121649D01*
X125266797Y-78121653D01*
X125245207Y-78314137D01*
X125244520Y-78320262D01*
X125261759Y-78525553D01*
X125318544Y-78723586D01*
X125321359Y-78729063D01*
X125321360Y-78729066D01*
X125342247Y-78769707D01*
X125412712Y-78906818D01*
X125540677Y-79068270D01*
X125697564Y-79201791D01*
X125746308Y-79229033D01*
X125839315Y-79281013D01*
X125889020Y-79331707D01*
X125903428Y-79401226D01*
X125877964Y-79467499D01*
X125820713Y-79509484D01*
X125777844Y-79517001D01*
X125405331Y-79517001D01*
X125398510Y-79517371D01*
X125347648Y-79522895D01*
X125332396Y-79526521D01*
X125211946Y-79571676D01*
X125196351Y-79580214D01*
X125094276Y-79656715D01*
X125081715Y-79669276D01*
X125005214Y-79771351D01*
X124996676Y-79786946D01*
X124951522Y-79907394D01*
X124947895Y-79922649D01*
X124942369Y-79973514D01*
X124942000Y-79980328D01*
X124942000Y-80602885D01*
X83901000Y-80602885D01*
X83901000Y-75780262D01*
X125244520Y-75780262D01*
X125261759Y-75985553D01*
X125318544Y-76183586D01*
X125321359Y-76189063D01*
X125321360Y-76189066D01*
X125342247Y-76229707D01*
X125412712Y-76366818D01*
X125540677Y-76528270D01*
X125697564Y-76661791D01*
X125877398Y-76762297D01*
X125972238Y-76793113D01*
X126067471Y-76824056D01*
X126067475Y-76824057D01*
X126073329Y-76825959D01*
X126277894Y-76850351D01*
X126284029Y-76849879D01*
X126284031Y-76849879D01*
X126340039Y-76845569D01*
X126483300Y-76834546D01*
X126489230Y-76832890D01*
X126489232Y-76832890D01*
X126675797Y-76780800D01*
X126675796Y-76780800D01*
X126681725Y-76779145D01*
X126687214Y-76776372D01*
X126687220Y-76776370D01*
X126860116Y-76689033D01*
X126865610Y-76686258D01*
X127027951Y-76559424D01*
X127162564Y-76403472D01*
X127183387Y-76366818D01*
X127261276Y-76229707D01*
X127264323Y-76224344D01*
X127329351Y-76028863D01*
X127355171Y-75824474D01*
X127355583Y-75795000D01*
X127335480Y-75589970D01*
X127275935Y-75392749D01*
X127179218Y-75210849D01*
X127105859Y-75120902D01*
X127052906Y-75055975D01*
X127052903Y-75055972D01*
X127049011Y-75051200D01*
X127031786Y-75036950D01*
X126895025Y-74923811D01*
X126895021Y-74923809D01*
X126890275Y-74919882D01*
X126709055Y-74821897D01*
X126512254Y-74760977D01*
X126506129Y-74760333D01*
X126506128Y-74760333D01*
X126313498Y-74740087D01*
X126313496Y-74740087D01*
X126307369Y-74739443D01*
X126220529Y-74747346D01*
X126108342Y-74757555D01*
X126108339Y-74757556D01*
X126102203Y-74758114D01*
X125904572Y-74816280D01*
X125722002Y-74911726D01*
X125717201Y-74915586D01*
X125717198Y-74915588D01*
X125706971Y-74923811D01*
X125561447Y-75040815D01*
X125429024Y-75198630D01*
X125426056Y-75204028D01*
X125426053Y-75204033D01*
X125419315Y-75216290D01*
X125329776Y-75379162D01*
X125267484Y-75575532D01*
X125266798Y-75581649D01*
X125266797Y-75581653D01*
X125245207Y-75774137D01*
X125244520Y-75780262D01*
X83901000Y-75780262D01*
X83901000Y-73240262D01*
X125244520Y-73240262D01*
X125261759Y-73445553D01*
X125318544Y-73643586D01*
X125321359Y-73649063D01*
X125321360Y-73649066D01*
X125342247Y-73689707D01*
X125412712Y-73826818D01*
X125540677Y-73988270D01*
X125697564Y-74121791D01*
X125877398Y-74222297D01*
X125972238Y-74253112D01*
X126067471Y-74284056D01*
X126067475Y-74284057D01*
X126073329Y-74285959D01*
X126277894Y-74310351D01*
X126284029Y-74309879D01*
X126284031Y-74309879D01*
X126340039Y-74305569D01*
X126483300Y-74294546D01*
X126489230Y-74292890D01*
X126489232Y-74292890D01*
X126675797Y-74240800D01*
X126675796Y-74240800D01*
X126681725Y-74239145D01*
X126687214Y-74236372D01*
X126687220Y-74236370D01*
X126860116Y-74149033D01*
X126865610Y-74146258D01*
X127027951Y-74019424D01*
X127162564Y-73863472D01*
X127183387Y-73826818D01*
X127261276Y-73689707D01*
X127264323Y-73684344D01*
X127329351Y-73488863D01*
X127355171Y-73284474D01*
X127355583Y-73255000D01*
X127335480Y-73049970D01*
X127275935Y-72852749D01*
X127179218Y-72670849D01*
X127105859Y-72580902D01*
X127052906Y-72515975D01*
X127052903Y-72515972D01*
X127049011Y-72511200D01*
X127031786Y-72496950D01*
X126895025Y-72383811D01*
X126895021Y-72383809D01*
X126890275Y-72379882D01*
X126709055Y-72281897D01*
X126512254Y-72220977D01*
X126506129Y-72220333D01*
X126506128Y-72220333D01*
X126313498Y-72200087D01*
X126313496Y-72200087D01*
X126307369Y-72199443D01*
X126220529Y-72207346D01*
X126108342Y-72217555D01*
X126108339Y-72217556D01*
X126102203Y-72218114D01*
X125904572Y-72276280D01*
X125722002Y-72371726D01*
X125717201Y-72375586D01*
X125717198Y-72375588D01*
X125706971Y-72383811D01*
X125561447Y-72500815D01*
X125429024Y-72658630D01*
X125426056Y-72664028D01*
X125426053Y-72664033D01*
X125419315Y-72676290D01*
X125329776Y-72839162D01*
X125267484Y-73035532D01*
X125266798Y-73041649D01*
X125266797Y-73041653D01*
X125245207Y-73234137D01*
X125244520Y-73240262D01*
X83901000Y-73240262D01*
X83901000Y-71300266D01*
X83901073Y-71300139D01*
X83901000Y-71299868D01*
X83901000Y-71299802D01*
X83900949Y-71299678D01*
X83900913Y-71299546D01*
X83900872Y-71299492D01*
X83900765Y-71299235D01*
X83900630Y-71299179D01*
X83439219Y-70700262D01*
X125244520Y-70700262D01*
X125261759Y-70905553D01*
X125318544Y-71103586D01*
X125321359Y-71109063D01*
X125321360Y-71109066D01*
X125342247Y-71149707D01*
X125412712Y-71286818D01*
X125540677Y-71448270D01*
X125697564Y-71581791D01*
X125877398Y-71682297D01*
X125972238Y-71713113D01*
X126067471Y-71744056D01*
X126067475Y-71744057D01*
X126073329Y-71745959D01*
X126277894Y-71770351D01*
X126284029Y-71769879D01*
X126284031Y-71769879D01*
X126340039Y-71765569D01*
X126483300Y-71754546D01*
X126489230Y-71752890D01*
X126489232Y-71752890D01*
X126675797Y-71700800D01*
X126675796Y-71700800D01*
X126681725Y-71699145D01*
X126687214Y-71696372D01*
X126687220Y-71696370D01*
X126860116Y-71609033D01*
X126865610Y-71606258D01*
X127027951Y-71479424D01*
X127162564Y-71323472D01*
X127172419Y-71306125D01*
X127261276Y-71149707D01*
X127264323Y-71144344D01*
X127329351Y-70948863D01*
X127355171Y-70744474D01*
X127355583Y-70715000D01*
X127335480Y-70509970D01*
X127275935Y-70312749D01*
X127179218Y-70130849D01*
X127105859Y-70040902D01*
X127052906Y-69975975D01*
X127052903Y-69975972D01*
X127049011Y-69971200D01*
X127031786Y-69956950D01*
X126895025Y-69843811D01*
X126895021Y-69843809D01*
X126890275Y-69839882D01*
X126709055Y-69741897D01*
X126512254Y-69680977D01*
X126506129Y-69680333D01*
X126506128Y-69680333D01*
X126313498Y-69660087D01*
X126313496Y-69660087D01*
X126307369Y-69659443D01*
X126220529Y-69667346D01*
X126108342Y-69677555D01*
X126108339Y-69677556D01*
X126102203Y-69678114D01*
X125904572Y-69736280D01*
X125722002Y-69831726D01*
X125717201Y-69835586D01*
X125717198Y-69835588D01*
X125706971Y-69843811D01*
X125561447Y-69960815D01*
X125429024Y-70118630D01*
X125426056Y-70124028D01*
X125426053Y-70124033D01*
X125419315Y-70136290D01*
X125329776Y-70299162D01*
X125267484Y-70495532D01*
X125266798Y-70501649D01*
X125266797Y-70501653D01*
X125245207Y-70694137D01*
X125244520Y-70700262D01*
X83439219Y-70700262D01*
X68827331Y-51733838D01*
X68801603Y-51667670D01*
X68801147Y-51656515D01*
X68806465Y-50090465D01*
X68858861Y-34658997D01*
X68858873Y-34658041D01*
X68858946Y-34657864D01*
X68858877Y-34657698D01*
X68858890Y-34656676D01*
X68877838Y-33788264D01*
X68878078Y-33782772D01*
X68932982Y-32945104D01*
X68934941Y-32916053D01*
X68935400Y-32910870D01*
X69011169Y-32219033D01*
X69031693Y-32036882D01*
X69031695Y-32036864D01*
X69032367Y-32031818D01*
X69128153Y-31409483D01*
X69128238Y-31408939D01*
X69167226Y-31162782D01*
X69168096Y-31157912D01*
X69283842Y-30576019D01*
X69283982Y-30575326D01*
X69341251Y-30295623D01*
X69342301Y-30290949D01*
X69392045Y-30087660D01*
X69477973Y-29736503D01*
X69478053Y-29736180D01*
X69553428Y-29437047D01*
X69554642Y-29432581D01*
X69709899Y-28899917D01*
X69710188Y-28898938D01*
X69710195Y-28898914D01*
X69803350Y-28588695D01*
X69804701Y-28584472D01*
X69979444Y-28069696D01*
X69979828Y-28068582D01*
X70090476Y-27752367D01*
X70091972Y-27748315D01*
X70285958Y-27249481D01*
X70286448Y-27248239D01*
X70414300Y-26929508D01*
X70415882Y-26925747D01*
X70628908Y-26441609D01*
X70629511Y-26440260D01*
X70629514Y-26440254D01*
X70774113Y-26121910D01*
X70775800Y-26118347D01*
X71007553Y-25648399D01*
X71008269Y-25646969D01*
X71169224Y-25331078D01*
X71171023Y-25327677D01*
X71240784Y-25200519D01*
X71421237Y-24871596D01*
X71422013Y-24870206D01*
X71598866Y-24558528D01*
X71600734Y-24555345D01*
X71868950Y-24113337D01*
X71869982Y-24111666D01*
X72062179Y-23805786D01*
X72064101Y-23802820D01*
X72350049Y-23374870D01*
X72351242Y-23373117D01*
X72558225Y-23074355D01*
X72560185Y-23071605D01*
X72863456Y-22657995D01*
X72864819Y-22656170D01*
X73086062Y-22365597D01*
X73088046Y-22363061D01*
X73408278Y-21964060D01*
X73409820Y-21962176D01*
X73644537Y-21681031D01*
X73646439Y-21678807D01*
X73983374Y-21294605D01*
X73985072Y-21292710D01*
X74232627Y-21021874D01*
X74234579Y-21019786D01*
X74587572Y-20651045D01*
X74589495Y-20649081D01*
X74849081Y-20389495D01*
X74851045Y-20387572D01*
X74851936Y-20386719D01*
X75219786Y-20034579D01*
X75221874Y-20032627D01*
X75492710Y-19785072D01*
X75494640Y-19783343D01*
X75878807Y-19446438D01*
X75881055Y-19444516D01*
X76162178Y-19209819D01*
X76164060Y-19208278D01*
X76563061Y-18888046D01*
X76565597Y-18886062D01*
X76856170Y-18664819D01*
X76857995Y-18663456D01*
X77271605Y-18360185D01*
X77274355Y-18358225D01*
X77573117Y-18151242D01*
X77574870Y-18150049D01*
X77751717Y-18031884D01*
X78002841Y-17864088D01*
X78005763Y-17862194D01*
X78311709Y-17669956D01*
X78313303Y-17668971D01*
X78755345Y-17400734D01*
X78758528Y-17398866D01*
X78819130Y-17364479D01*
X79070206Y-17222013D01*
X79071596Y-17221237D01*
X79400519Y-17040784D01*
X79527677Y-16971023D01*
X79531078Y-16969224D01*
X79681648Y-16892505D01*
X79847011Y-16808248D01*
X79848426Y-16807539D01*
X80318347Y-16575800D01*
X80321910Y-16574113D01*
X80640274Y-16429505D01*
X80641622Y-16428902D01*
X81125749Y-16215881D01*
X81129508Y-16214300D01*
X81448260Y-16086440D01*
X81449481Y-16085958D01*
X81948342Y-15891962D01*
X81952348Y-15890483D01*
X82268582Y-15779828D01*
X82269696Y-15779444D01*
X82294730Y-15770946D01*
X82784499Y-15604692D01*
X82788695Y-15603350D01*
X83098968Y-15510179D01*
X83099875Y-15509911D01*
X83632586Y-15354641D01*
X83637052Y-15353427D01*
X83936180Y-15278053D01*
X83936503Y-15277973D01*
X84287660Y-15192045D01*
X84490949Y-15142301D01*
X84495623Y-15141251D01*
X84775326Y-15083982D01*
X84776019Y-15083842D01*
X85357912Y-14968096D01*
X85362782Y-14967226D01*
X85435532Y-14955703D01*
X85609081Y-14928216D01*
X85609374Y-14928170D01*
X86231828Y-14832366D01*
X86236864Y-14831695D01*
X86419304Y-14811139D01*
X87110887Y-14735399D01*
X87116053Y-14734941D01*
X87145395Y-14732963D01*
X87982777Y-14678078D01*
X87988258Y-14677838D01*
X88295060Y-14671144D01*
X88856633Y-14658891D01*
X88857700Y-14658878D01*
X88857864Y-14658946D01*
X88858037Y-14658874D01*
X88859113Y-14658861D01*
X104222302Y-14626093D01*
X104290466Y-14645950D01*
X104299508Y-14652311D01*
X118557921Y-25646969D01*
X123528772Y-29479991D01*
X123814907Y-29700630D01*
X123814963Y-29700765D01*
X123815220Y-29700872D01*
X123815274Y-29700913D01*
X123815406Y-29700949D01*
X123815530Y-29701000D01*
X123815596Y-29701000D01*
X123815867Y-29701073D01*
X123815994Y-29701000D01*
X162215462Y-29701000D01*
X162215589Y-29701073D01*
X162215859Y-29701000D01*
X162215926Y-29701000D01*
X162216051Y-29700948D01*
X162216181Y-29700913D01*
X162216234Y-29700873D01*
X162216493Y-29700765D01*
X162216549Y-29700629D01*
X181781891Y-14627331D01*
X181848059Y-14601603D01*
X181859203Y-14601147D01*
X194505276Y-14644086D01*
G37*
%TD.AperFunction*%
%TD*%
M02*
