%TF.GenerationSoftware,KiCad,Pcbnew,9.0.4*%
%TF.CreationDate,2025-08-20T12:15:09+02:00*%
%TF.ProjectId,BoardGame,426f6172-6447-4616-9d65-2e6b69636164,rev?*%
%TF.SameCoordinates,Original*%
%TF.FileFunction,Paste,Bot*%
%TF.FilePolarity,Positive*%
%FSLAX46Y46*%
G04 Gerber Fmt 4.6, Leading zero omitted, Abs format (unit mm)*
G04 Created by KiCad (PCBNEW 9.0.4) date 2025-08-20 12:15:09*
%MOMM*%
%LPD*%
G01*
G04 APERTURE LIST*
G04 Aperture macros list*
%AMRoundRect*
0 Rectangle with rounded corners*
0 $1 Rounding radius*
0 $2 $3 $4 $5 $6 $7 $8 $9 X,Y pos of 4 corners*
0 Add a 4 corners polygon primitive as box body*
4,1,4,$2,$3,$4,$5,$6,$7,$8,$9,$2,$3,0*
0 Add four circle primitives for the rounded corners*
1,1,$1+$1,$2,$3*
1,1,$1+$1,$4,$5*
1,1,$1+$1,$6,$7*
1,1,$1+$1,$8,$9*
0 Add four rect primitives between the rounded corners*
20,1,$1+$1,$2,$3,$4,$5,0*
20,1,$1+$1,$4,$5,$6,$7,0*
20,1,$1+$1,$6,$7,$8,$9,0*
20,1,$1+$1,$8,$9,$2,$3,0*%
G04 Aperture macros list end*
%ADD10RoundRect,0.225000X-0.250000X0.225000X-0.250000X-0.225000X0.250000X-0.225000X0.250000X0.225000X0*%
%ADD11RoundRect,0.200000X0.200000X0.275000X-0.200000X0.275000X-0.200000X-0.275000X0.200000X-0.275000X0*%
%ADD12RoundRect,0.200000X0.275000X-0.200000X0.275000X0.200000X-0.275000X0.200000X-0.275000X-0.200000X0*%
%ADD13R,3.000000X3.000000*%
%ADD14RoundRect,0.137500X-0.137500X0.600000X-0.137500X-0.600000X0.137500X-0.600000X0.137500X0.600000X0*%
%ADD15RoundRect,0.137500X-0.600000X0.137500X-0.600000X-0.137500X0.600000X-0.137500X0.600000X0.137500X0*%
%ADD16RoundRect,0.200000X-0.275000X0.200000X-0.275000X-0.200000X0.275000X-0.200000X0.275000X0.200000X0*%
%ADD17RoundRect,0.200000X-0.200000X-0.275000X0.200000X-0.275000X0.200000X0.275000X-0.200000X0.275000X0*%
%ADD18RoundRect,0.250000X1.100000X-0.325000X1.100000X0.325000X-1.100000X0.325000X-1.100000X-0.325000X0*%
%ADD19RoundRect,0.225000X0.225000X0.250000X-0.225000X0.250000X-0.225000X-0.250000X0.225000X-0.250000X0*%
%ADD20RoundRect,0.250000X-0.420000X-0.945000X0.420000X-0.945000X0.420000X0.945000X-0.420000X0.945000X0*%
%ADD21RoundRect,0.250000X1.000000X0.650000X-1.000000X0.650000X-1.000000X-0.650000X1.000000X-0.650000X0*%
%ADD22RoundRect,0.500000X-2.000000X0.500000X-2.000000X-0.500000X2.000000X-0.500000X2.000000X0.500000X0*%
%ADD23RoundRect,0.250000X-0.250000X-0.475000X0.250000X-0.475000X0.250000X0.475000X-0.250000X0.475000X0*%
%ADD24RoundRect,0.225000X-0.225000X-0.250000X0.225000X-0.250000X0.225000X0.250000X-0.225000X0.250000X0*%
%ADD25R,0.600000X1.450000*%
%ADD26R,0.300000X1.450000*%
%ADD27RoundRect,0.225000X0.250000X-0.225000X0.250000X0.225000X-0.250000X0.225000X-0.250000X-0.225000X0*%
%ADD28RoundRect,0.150000X0.150000X-0.512500X0.150000X0.512500X-0.150000X0.512500X-0.150000X-0.512500X0*%
%ADD29RoundRect,0.250000X-0.945000X0.420000X-0.945000X-0.420000X0.945000X-0.420000X0.945000X0.420000X0*%
%ADD30RoundRect,0.150000X0.825000X0.150000X-0.825000X0.150000X-0.825000X-0.150000X0.825000X-0.150000X0*%
%ADD31R,1.700000X1.000000*%
%ADD32RoundRect,0.250000X-0.785000X-1.045000X0.785000X-1.045000X0.785000X1.045000X-0.785000X1.045000X0*%
%ADD33RoundRect,0.250000X-1.100000X0.325000X-1.100000X-0.325000X1.100000X-0.325000X1.100000X0.325000X0*%
%ADD34RoundRect,0.150000X-0.150000X0.875000X-0.150000X-0.875000X0.150000X-0.875000X0.150000X0.875000X0*%
%ADD35R,0.600000X1.700000*%
%ADD36R,0.400000X1.700000*%
%ADD37RoundRect,0.250000X0.255000X-0.255000X0.255000X0.255000X-0.255000X0.255000X-0.255000X-0.255000X0*%
%ADD38RoundRect,0.062500X0.062500X-0.350000X0.062500X0.350000X-0.062500X0.350000X-0.062500X-0.350000X0*%
%ADD39RoundRect,0.062500X0.350000X-0.062500X0.350000X0.062500X-0.350000X0.062500X-0.350000X-0.062500X0*%
%ADD40RoundRect,0.250000X-0.475000X0.250000X-0.475000X-0.250000X0.475000X-0.250000X0.475000X0.250000X0*%
%ADD41R,2.400000X0.740000*%
G04 APERTURE END LIST*
D10*
%TO.C,C1006*%
X142360000Y-92425000D03*
X142360000Y-93975000D03*
%TD*%
D11*
%TO.C,R303*%
X172825000Y-146750000D03*
X171175000Y-146750000D03*
%TD*%
%TO.C,R201*%
X103825000Y-125200000D03*
X102175000Y-125200000D03*
%TD*%
%TO.C,R401*%
X103020000Y-111397500D03*
X101370000Y-111397500D03*
%TD*%
%TO.C,R1006*%
X135325000Y-126700000D03*
X133675000Y-126700000D03*
%TD*%
D12*
%TO.C,R202*%
X106425378Y-146825000D03*
X106425378Y-145175000D03*
%TD*%
D13*
%TO.C,LS501*%
X208800000Y-105900000D03*
X208800000Y-92900000D03*
%TD*%
D14*
%TO.C,U501*%
X142200000Y-116587500D03*
X143000000Y-116587500D03*
X143800000Y-116587500D03*
X144600000Y-116587500D03*
X145400000Y-116587500D03*
X146200000Y-116587500D03*
X147000000Y-116587500D03*
X147800000Y-116587500D03*
D15*
X149162500Y-117950000D03*
X149162500Y-118750000D03*
X149162500Y-119550000D03*
X149162500Y-120350000D03*
X149162500Y-121150000D03*
X149162500Y-121950000D03*
X149162500Y-122750000D03*
X149162500Y-123550000D03*
D14*
X147800000Y-124912500D03*
X147000000Y-124912500D03*
X146200000Y-124912500D03*
X145400000Y-124912500D03*
X144600000Y-124912500D03*
X143800000Y-124912500D03*
X143000000Y-124912500D03*
X142200000Y-124912500D03*
D15*
X140837500Y-123550000D03*
X140837500Y-122750000D03*
X140837500Y-121950000D03*
X140837500Y-121150000D03*
X140837500Y-120350000D03*
X140837500Y-119550000D03*
X140837500Y-118750000D03*
X140837500Y-117950000D03*
%TD*%
D16*
%TO.C,R602*%
X131600000Y-149175000D03*
X131600000Y-150825000D03*
%TD*%
D17*
%TO.C,R1002*%
X154675000Y-119550000D03*
X156325000Y-119550000D03*
%TD*%
D11*
%TO.C,R204*%
X103825000Y-127200000D03*
X102175000Y-127200000D03*
%TD*%
D18*
%TO.C,C602*%
X150500000Y-145225000D03*
X150500000Y-142275000D03*
%TD*%
D11*
%TO.C,R501*%
X131325000Y-116500000D03*
X129675000Y-116500000D03*
%TD*%
D19*
%TO.C,C501*%
X145000000Y-113750000D03*
X143450000Y-113750000D03*
%TD*%
D17*
%TO.C,R1004*%
X154675000Y-116000000D03*
X156325000Y-116000000D03*
%TD*%
D20*
%TO.C,C203*%
X94307500Y-120000000D03*
X97387500Y-120000000D03*
%TD*%
D10*
%TO.C,C1007*%
X136170000Y-92425000D03*
X136170000Y-93975000D03*
%TD*%
D21*
%TO.C,D601*%
X146250000Y-150000000D03*
X142250000Y-150000000D03*
%TD*%
D19*
%TO.C,C401*%
X98210000Y-105147500D03*
X96660000Y-105147500D03*
%TD*%
D22*
%TO.C,L601*%
X144250000Y-141750000D03*
X144250000Y-145750000D03*
%TD*%
D11*
%TO.C,R301*%
X172825000Y-148750000D03*
X171175000Y-148750000D03*
%TD*%
D12*
%TO.C,R1001*%
X139000000Y-112325000D03*
X139000000Y-110675000D03*
%TD*%
D23*
%TO.C,C303*%
X179800000Y-144750000D03*
X181700000Y-144750000D03*
%TD*%
D24*
%TO.C,C1009*%
X143225000Y-88600000D03*
X144775000Y-88600000D03*
%TD*%
%TO.C,C1005*%
X149425000Y-94800000D03*
X150975000Y-94800000D03*
%TD*%
D25*
%TO.C,J201*%
X113675378Y-153955000D03*
X112875378Y-153955000D03*
D26*
X111675378Y-153955000D03*
X110675378Y-153955000D03*
X110175378Y-153955000D03*
X109175378Y-153955000D03*
D25*
X107975378Y-153955000D03*
X107175378Y-153955000D03*
X107175378Y-153955000D03*
X107975378Y-153955000D03*
D26*
X108675378Y-153955000D03*
X109675378Y-153955000D03*
X111175378Y-153955000D03*
X112175378Y-153955000D03*
D25*
X112875378Y-153955000D03*
X113675378Y-153955000D03*
%TD*%
D24*
%TO.C,C201*%
X102225000Y-129400000D03*
X103775000Y-129400000D03*
%TD*%
D12*
%TO.C,FB201*%
X115175378Y-146825000D03*
X115175378Y-145175000D03*
%TD*%
D27*
%TO.C,C1008*%
X139400000Y-87775000D03*
X139400000Y-86225000D03*
%TD*%
D11*
%TO.C,R307*%
X172825000Y-144750000D03*
X171175000Y-144750000D03*
%TD*%
D28*
%TO.C,U601*%
X138950000Y-144887500D03*
X138000000Y-144887500D03*
X137050000Y-144887500D03*
X137050000Y-142612500D03*
X138000000Y-142612500D03*
X138950000Y-142612500D03*
%TD*%
D29*
%TO.C,C301*%
X185500000Y-138755500D03*
X185500000Y-141835500D03*
%TD*%
D30*
%TO.C,U202*%
X98300000Y-124660000D03*
X98300000Y-125930000D03*
X98300000Y-127200000D03*
X98300000Y-128470000D03*
X98300000Y-129740000D03*
X98300000Y-131010000D03*
X98300000Y-132280000D03*
X98300000Y-133550000D03*
X93350000Y-133550000D03*
X93350000Y-132280000D03*
X93350000Y-131010000D03*
X93350000Y-129740000D03*
X93350000Y-128470000D03*
X93350000Y-127200000D03*
X93350000Y-125930000D03*
X93350000Y-124660000D03*
%TD*%
D28*
%TO.C,U201*%
X110625378Y-146887500D03*
X109675378Y-146887500D03*
X108725378Y-146887500D03*
X108725378Y-144612500D03*
X109675378Y-144612500D03*
X110625378Y-144612500D03*
%TD*%
D21*
%TO.C,D501*%
X117000000Y-108750000D03*
X113000000Y-108750000D03*
%TD*%
D31*
%TO.C,SW501*%
X133400000Y-110350000D03*
X127100000Y-110350000D03*
X133400000Y-114150000D03*
X127100000Y-114150000D03*
%TD*%
D12*
%TO.C,R601*%
X134100000Y-150825000D03*
X134100000Y-149175000D03*
%TD*%
D24*
%TO.C,C204*%
X89225000Y-128470000D03*
X90775000Y-128470000D03*
%TD*%
D32*
%TO.C,C502*%
X141880000Y-106800000D03*
X148120000Y-106800000D03*
%TD*%
D12*
%TO.C,R310*%
X182500000Y-137825000D03*
X182500000Y-136175000D03*
%TD*%
D11*
%TO.C,R305*%
X172825000Y-134250000D03*
X171175000Y-134250000D03*
%TD*%
%TO.C,R302*%
X172825000Y-132000000D03*
X171175000Y-132000000D03*
%TD*%
D33*
%TO.C,C601*%
X132500000Y-142275000D03*
X132500000Y-145225000D03*
%TD*%
D11*
%TO.C,R308*%
X172825000Y-136750000D03*
X171175000Y-136750000D03*
%TD*%
D27*
%TO.C,C1001*%
X139450000Y-81575000D03*
X139450000Y-80025000D03*
%TD*%
D24*
%TO.C,C1003*%
X149425000Y-82400000D03*
X150975000Y-82400000D03*
%TD*%
%TO.C,C202*%
X95050000Y-122750000D03*
X96600000Y-122750000D03*
%TD*%
D34*
%TO.C,U401*%
X98210000Y-93247500D03*
X99480000Y-93247500D03*
X100750000Y-93247500D03*
X102020000Y-93247500D03*
X103290000Y-93247500D03*
X104560000Y-93247500D03*
X105830000Y-93247500D03*
X107100000Y-93247500D03*
X108370000Y-93247500D03*
X109640000Y-93247500D03*
X110910000Y-93247500D03*
X112180000Y-93247500D03*
X112180000Y-102547500D03*
X110910000Y-102547500D03*
X109640000Y-102547500D03*
X108370000Y-102547500D03*
X107100000Y-102547500D03*
X105830000Y-102547500D03*
X104560000Y-102547500D03*
X103290000Y-102547500D03*
X102020000Y-102547500D03*
X100750000Y-102547500D03*
X99480000Y-102547500D03*
X98210000Y-102547500D03*
%TD*%
D35*
%TO.C,Y501*%
X148350000Y-111500000D03*
D36*
X147400000Y-111500000D03*
D35*
X146450000Y-111500000D03*
%TD*%
D37*
%TO.C,U301*%
X178040000Y-139948000D03*
X176790000Y-139948000D03*
X178040000Y-138698000D03*
X176790000Y-138698000D03*
D38*
X178415000Y-141260500D03*
X177915000Y-141260500D03*
X177415000Y-141260500D03*
X176915000Y-141260500D03*
X176415000Y-141260500D03*
D39*
X175477500Y-140323000D03*
X175477500Y-139823000D03*
X175477500Y-139323000D03*
X175477500Y-138823000D03*
X175477500Y-138323000D03*
D38*
X176415000Y-137385500D03*
X176915000Y-137385500D03*
X177415000Y-137385500D03*
X177915000Y-137385500D03*
X178415000Y-137385500D03*
D39*
X179352500Y-138323000D03*
X179352500Y-138823000D03*
X179352500Y-139323000D03*
X179352500Y-139823000D03*
X179352500Y-140323000D03*
%TD*%
D40*
%TO.C,C302*%
X182650000Y-139600000D03*
X182650000Y-141500000D03*
%TD*%
D17*
%TO.C,R402*%
X97370000Y-111397500D03*
X99020000Y-111397500D03*
%TD*%
D41*
%TO.C,J501*%
X158700000Y-122980000D03*
X154800000Y-122980000D03*
X158700000Y-124250000D03*
X154800000Y-124250000D03*
X158700000Y-125520000D03*
X154800000Y-125520000D03*
%TD*%
D17*
%TO.C,R1003*%
X154675000Y-117750000D03*
X156325000Y-117750000D03*
%TD*%
D27*
%TO.C,C1002*%
X145640000Y-81575000D03*
X145640000Y-80025000D03*
%TD*%
D10*
%TO.C,C1004*%
X148550000Y-86225000D03*
X148550000Y-87775000D03*
%TD*%
D12*
%TO.C,R1005*%
X140750000Y-112325000D03*
X140750000Y-110675000D03*
%TD*%
D23*
%TO.C,C304*%
X178550000Y-134250000D03*
X180450000Y-134250000D03*
%TD*%
D12*
%TO.C,R203*%
X112925378Y-146825000D03*
X112925378Y-145175000D03*
%TD*%
M02*
