M48
; DRILL file {KiCad 9.0.4} date 2025-08-20T12:32:00+0200
; FORMAT={-:-/ absolute / metric / decimal}
; #@! TF.CreationDate,2025-08-20T12:32:00+02:00
; #@! TF.GenerationSoftware,Kicad,Pcbnew,9.0.4
; #@! TF.FileFunction,Plated,1,2,PTH
FMAT,2
METRIC
; #@! TA.AperFunction,Plated,PTH,ViaDrill
T1C0.400
; #@! TA.AperFunction,Plated,PTH,ComponentDrill
T2C0.600
; #@! TA.AperFunction,Plated,PTH,ComponentDrill
T3C0.650
; #@! TA.AperFunction,Plated,PTH,ComponentDrill
T4C0.700
; #@! TA.AperFunction,Plated,PTH,ComponentDrill
T5C0.762
; #@! TA.AperFunction,Plated,PTH,ComponentDrill
T6C1.000
%
G90
G05
T1
X72.0Y-83.65
X72.0Y-90.5
X75.0Y-64.25
X78.5Y-111.4
X79.9Y-108.1
X85.0Y-159.0
X85.1Y-111.4
X86.0Y-83.5
X86.0Y-91.0
X86.0Y-98.5
X89.75Y-159.0
X95.3Y-39.6
X95.4Y-105.15
X97.4Y-113.9
X98.6Y-149.9
X98.7Y-120.0
X102.3Y-136.8
X102.925Y-151.5
X102.925Y-152.5
X102.925Y-153.5
X103.65Y-138.3
X103.925Y-151.5
X103.925Y-152.5
X103.925Y-153.5
X104.2Y-111.4
X104.5Y-95.5
X104.925Y-151.5
X104.925Y-152.5
X105.0Y-129.4
X105.0Y-157.1
X105.925Y-151.6
X105.925Y-152.5
X106.475Y-143.95
X106.65Y-137.0
X106.9Y-132.2
X107.1Y-104.9
X109.25Y-110.25
X109.25Y-112.5
X109.675Y-148.35
X109.7Y-142.0
X111.75Y-120.25
X111.75Y-131.25
X111.75Y-133.25
X111.8Y-128.2
X112.18Y-91.5
X112.95Y-143.95
X113.1Y-41.3
X113.7Y-125.1
X114.65Y-94.2
X114.65Y-98.85
X114.65Y-104.7
X115.25Y-140.2
X116.425Y-151.4
X116.425Y-152.4
X116.7Y-124.4
X116.9Y-120.1
X117.425Y-151.4
X117.425Y-152.4
X118.0Y-94.5
X118.0Y-98.5
X118.1Y-46.3
X118.4Y-148.6
X118.425Y-151.4
X118.425Y-152.4
X118.425Y-153.4
X118.5Y-118.3
X119.4Y-87.0
X119.425Y-151.4
X119.425Y-152.4
X119.425Y-153.4
X119.5Y-35.0
X120.5Y-104.4
X120.5Y-108.5
X121.0Y-66.5
X121.25Y-21.25
X122.6Y-87.0
X124.25Y-118.25
X124.25Y-124.5
X125.5Y-110.4
X125.6Y-136.4
X125.6Y-143.0
X127.0Y-138.0
X127.0Y-143.0
X127.1Y-91.0
X127.5Y-98.25
X129.25Y-143.5
X129.25Y-144.5
X129.25Y-145.5
X129.25Y-146.5
X129.3Y-99.8
X130.25Y-143.5
X130.25Y-144.5
X130.25Y-145.5
X130.25Y-146.5
X130.5Y-35.0
X131.25Y-146.5
X131.6Y-152.0
X131.75Y-110.3
X131.8Y-101.2
X132.25Y-146.5
X132.75Y-105.25
X133.0Y-32.5
X133.25Y-146.5
X134.05Y-81.7
X134.25Y-112.75
X134.25Y-146.5
X134.5Y-98.3
X134.5Y-101.25
X136.9Y-97.7
X137.0Y-146.5
X137.0Y-147.5
X137.8Y-92.4
X137.8Y-94.0
X137.9Y-80.0
X137.9Y-81.7
X137.9Y-86.2
X137.9Y-87.8
X138.0Y-146.5
X138.0Y-147.5
X138.4Y-99.9
X139.0Y-113.5
X139.0Y-146.5
X139.0Y-147.5
X139.7Y-105.5
X139.7Y-108.3
X140.0Y-146.5
X140.0Y-147.5
X140.35Y-14.95
X140.5Y-116.25
X141.0Y-68.4
X141.5Y-46.0
X142.3Y-113.7
X142.4Y-68.4
X142.75Y-119.25
X143.2Y-87.0
X144.0Y-80.0
X144.0Y-81.7
X144.0Y-92.4
X144.0Y-94.0
X144.6Y-123.4
X144.8Y-87.0
X145.4Y-118.75
X146.0Y-121.0
X146.5Y-127.6
X147.25Y-123.0
X147.4Y-109.8
X148.75Y-141.0
X149.25Y-126.5
X149.4Y-80.8
X149.4Y-93.2
X149.75Y-140.0
X149.75Y-141.0
X149.9Y-106.1
X149.9Y-107.0
X149.9Y-107.9
X150.2Y-86.2
X150.2Y-87.8
X150.75Y-140.0
X150.75Y-141.0
X151.0Y-80.8
X151.0Y-93.2
X151.75Y-140.0
X151.75Y-141.0
X152.8Y-125.5
X156.5Y-95.0
X156.5Y-97.75
X163.7Y-60.3
X166.75Y-18.0
X167.15Y-107.8
X169.5Y-137.8
X169.5Y-155.75
X170.0Y-132.0
X170.0Y-134.25
X170.0Y-144.75
X170.0Y-148.75
X172.0Y-104.5
X173.7Y-135.5
X174.6Y-135.5
X174.6Y-136.4
X175.5Y-136.4
X177.415Y-139.323
X177.9Y-110.4
X180.0Y-87.0
X180.5Y-60.0
X180.5Y-65.5
X180.8Y-132.7
X180.9Y-113.4
X181.6Y-143.2
X181.7Y-132.7
X181.7Y-133.7
X181.7Y-134.6
X182.4Y-114.9
X182.6Y-133.7
X182.6Y-134.6
X182.6Y-143.2
X183.5Y-82.5
X183.6Y-143.2
X184.6Y-143.2
X185.6Y-143.2
X186.5Y-87.0
X186.6Y-143.2
X186.9Y-119.4
X187.6Y-142.2
X187.6Y-143.2
X189.1Y-121.6
X189.55Y-87.0
X191.7Y-69.2
X191.7Y-79.3
X193.45Y-87.0
X194.0Y-136.5
X195.4Y-38.3
X200.3Y-74.35
X207.25Y-77.1
X207.25Y-83.85
X208.15Y-87.0
X208.8Y-95.2
X209.75Y-64.25
X212.45Y-87.0
X213.0Y-109.75
X216.1Y-85.05
T3
X131.98Y-87.0
X133.25Y-87.0
X144.0Y-74.98
X144.0Y-76.25
X144.0Y-97.75
X144.0Y-99.02
X154.75Y-87.0
X156.02Y-87.0
T4
X70.68Y-95.965
X70.68Y-97.235
X71.95Y-95.965
X71.95Y-97.235
X73.22Y-95.965
X73.22Y-97.235
X133.715Y-13.68
X133.715Y-14.95
X133.715Y-16.22
X134.985Y-13.68
X134.985Y-14.95
X134.985Y-16.22
X152.965Y-157.73
X152.965Y-159.0
X152.965Y-160.27
X154.235Y-157.73
X154.235Y-159.0
X154.235Y-160.27
X214.78Y-76.765
X214.78Y-78.035
X216.05Y-76.765
X216.05Y-78.035
X217.32Y-76.765
X217.32Y-78.035
T5
X206.399Y-114.0
X211.399Y-114.0
T6
X182.0Y-147.5
X194.5Y-144.25
T2
G00X106.105Y-155.42
M15
G01X106.105Y-154.32
M16
G05
G00X106.105Y-159.35
M15
G01X106.105Y-158.75
M16
G05
G00X114.745Y-155.42
M15
G01X114.745Y-154.32
M16
G05
G00X114.745Y-159.35
M15
G01X114.745Y-158.75
M16
G05
M30
