%TF.GenerationSoftware,KiCad,Pcbnew,(6.0.8)*%
%TF.CreationDate,2022-11-08T14:12:11+01:00*%
%TF.ProjectId,Touchpad,546f7563-6870-4616-942e-6b696361645f,rev?*%
%TF.SameCoordinates,Original*%
%TF.FileFunction,Legend,Bot*%
%TF.FilePolarity,Positive*%
%FSLAX46Y46*%
G04 Gerber Fmt 4.6, Leading zero omitted, Abs format (unit mm)*
G04 Created by KiCad (PCBNEW (6.0.8)) date 2022-11-08 14:12:11*
%MOMM*%
%LPD*%
G01*
G04 APERTURE LIST*
G04 Aperture macros list*
%AMRoundRect*
0 Rectangle with rounded corners*
0 $1 Rounding radius*
0 $2 $3 $4 $5 $6 $7 $8 $9 X,Y pos of 4 corners*
0 Add a 4 corners polygon primitive as box body*
4,1,4,$2,$3,$4,$5,$6,$7,$8,$9,$2,$3,0*
0 Add four circle primitives for the rounded corners*
1,1,$1+$1,$2,$3*
1,1,$1+$1,$4,$5*
1,1,$1+$1,$6,$7*
1,1,$1+$1,$8,$9*
0 Add four rect primitives between the rounded corners*
20,1,$1+$1,$2,$3,$4,$5,0*
20,1,$1+$1,$4,$5,$6,$7,0*
20,1,$1+$1,$6,$7,$8,$9,0*
20,1,$1+$1,$8,$9,$2,$3,0*%
%AMRotRect*
0 Rectangle, with rotation*
0 The origin of the aperture is its center*
0 $1 length*
0 $2 width*
0 $3 Rotation angle, in degrees counterclockwise*
0 Add horizontal line*
21,1,$1,$2,0,0,$3*%
G04 Aperture macros list end*
%ADD10C,0.150000*%
%ADD11C,0.120000*%
%ADD12C,5.600000*%
%ADD13RoundRect,0.225000X0.225000X0.250000X-0.225000X0.250000X-0.225000X-0.250000X0.225000X-0.250000X0*%
%ADD14RoundRect,0.225000X0.017678X-0.335876X0.335876X-0.017678X-0.017678X0.335876X-0.335876X0.017678X0*%
%ADD15RotRect,1.060000X0.650000X225.000000*%
%ADD16RoundRect,0.225000X0.335876X0.017678X0.017678X0.335876X-0.335876X-0.017678X-0.017678X-0.335876X0*%
%ADD17R,0.650000X1.060000*%
%ADD18RoundRect,0.225000X-0.017678X0.335876X-0.335876X0.017678X0.017678X-0.335876X0.335876X-0.017678X0*%
%ADD19RotRect,1.060000X0.650000X315.000000*%
%ADD20R,2.400000X0.740000*%
G04 APERTURE END LIST*
D10*
X182269047Y-76552380D02*
X182269047Y-77266666D01*
X182316666Y-77409523D01*
X182411904Y-77504761D01*
X182554761Y-77552380D01*
X182650000Y-77552380D01*
X181316666Y-77552380D02*
X181792857Y-77552380D01*
X181792857Y-76552380D01*
X180411904Y-77457142D02*
X180459523Y-77504761D01*
X180602380Y-77552380D01*
X180697619Y-77552380D01*
X180840476Y-77504761D01*
X180935714Y-77409523D01*
X180983333Y-77314285D01*
X181030952Y-77123809D01*
X181030952Y-76980952D01*
X180983333Y-76790476D01*
X180935714Y-76695238D01*
X180840476Y-76600000D01*
X180697619Y-76552380D01*
X180602380Y-76552380D01*
X180459523Y-76600000D01*
X180411904Y-76647619D01*
X179697619Y-76552380D02*
X179697619Y-77266666D01*
X179745238Y-77409523D01*
X179840476Y-77504761D01*
X179983333Y-77552380D01*
X180078571Y-77552380D01*
X178745238Y-77552380D02*
X179221428Y-77552380D01*
X179221428Y-76552380D01*
X177840476Y-77457142D02*
X177888095Y-77504761D01*
X178030952Y-77552380D01*
X178126190Y-77552380D01*
X178269047Y-77504761D01*
X178364285Y-77409523D01*
X178411904Y-77314285D01*
X178459523Y-77123809D01*
X178459523Y-76980952D01*
X178411904Y-76790476D01*
X178364285Y-76695238D01*
X178269047Y-76600000D01*
X178126190Y-76552380D01*
X178030952Y-76552380D01*
X177888095Y-76600000D01*
X177840476Y-76647619D01*
X177126190Y-76552380D02*
X177126190Y-77266666D01*
X177173809Y-77409523D01*
X177269047Y-77504761D01*
X177411904Y-77552380D01*
X177507142Y-77552380D01*
X176173809Y-77552380D02*
X176650000Y-77552380D01*
X176650000Y-76552380D01*
X175269047Y-77457142D02*
X175316666Y-77504761D01*
X175459523Y-77552380D01*
X175554761Y-77552380D01*
X175697619Y-77504761D01*
X175792857Y-77409523D01*
X175840476Y-77314285D01*
X175888095Y-77123809D01*
X175888095Y-76980952D01*
X175840476Y-76790476D01*
X175792857Y-76695238D01*
X175697619Y-76600000D01*
X175554761Y-76552380D01*
X175459523Y-76552380D01*
X175316666Y-76600000D01*
X175269047Y-76647619D01*
X174554761Y-76552380D02*
X174554761Y-77266666D01*
X174602380Y-77409523D01*
X174697619Y-77504761D01*
X174840476Y-77552380D01*
X174935714Y-77552380D01*
X173602380Y-77552380D02*
X174078571Y-77552380D01*
X174078571Y-76552380D01*
X172697619Y-77457142D02*
X172745238Y-77504761D01*
X172888095Y-77552380D01*
X172983333Y-77552380D01*
X173126190Y-77504761D01*
X173221428Y-77409523D01*
X173269047Y-77314285D01*
X173316666Y-77123809D01*
X173316666Y-76980952D01*
X173269047Y-76790476D01*
X173221428Y-76695238D01*
X173126190Y-76600000D01*
X172983333Y-76552380D01*
X172888095Y-76552380D01*
X172745238Y-76600000D01*
X172697619Y-76647619D01*
D11*
%TO.C,C3*%
X188794625Y-67285000D02*
X188513465Y-67285000D01*
X188794625Y-66265000D02*
X188513465Y-66265000D01*
%TO.C,C2*%
X207011219Y-69660030D02*
X207210030Y-69461219D01*
X206289970Y-68938781D02*
X206488781Y-68739970D01*
%TO.C,U3*%
X210125162Y-66697954D02*
X211857574Y-64965543D01*
X213674838Y-67702046D02*
X212402046Y-68974838D01*
%TO.C,C4*%
X188794625Y-72265000D02*
X188513465Y-72265000D01*
X188794625Y-73285000D02*
X188513465Y-73285000D01*
%TO.C,C6*%
X209638781Y-69660030D02*
X209439970Y-69461219D01*
X210360030Y-68938781D02*
X210161219Y-68739970D01*
%TO.C,U2*%
X190264045Y-68875000D02*
X190264045Y-70675000D01*
X187044045Y-70675000D02*
X187044045Y-68225000D01*
%TO.C,C1*%
X202488781Y-64739970D02*
X202289970Y-64938781D01*
X203210030Y-65461219D02*
X203011219Y-65660030D01*
%TO.C,U1*%
X205252046Y-65425162D02*
X206524838Y-66697954D01*
X204247954Y-68974838D02*
X202515543Y-67242426D01*
%TO.C,J1*%
X206535000Y-78115000D02*
X210065000Y-78115000D01*
X210065000Y-74250000D02*
X210065000Y-74185000D01*
X206535000Y-78115000D02*
X206535000Y-78050000D01*
X206535000Y-74250000D02*
X206535000Y-74185000D01*
X206535000Y-74185000D02*
X210065000Y-74185000D01*
X205210000Y-78050000D02*
X206535000Y-78050000D01*
X210065000Y-78115000D02*
X210065000Y-78050000D01*
%TO.C,C5*%
X213638781Y-65660030D02*
X213439970Y-65461219D01*
X214360030Y-64938781D02*
X214161219Y-64739970D01*
%TD*%
%LPC*%
D12*
%TO.C,TP1*%
X201400000Y-71500000D02*
G75*
G03*
X201400000Y-71500000I-2700000J0D01*
G01*
%TD*%
D13*
%TO.C,C3*%
X189429045Y-66775000D03*
X187879045Y-66775000D03*
%TD*%
D14*
%TO.C,C2*%
X206201992Y-69748008D03*
X207298008Y-68651992D03*
%TD*%
D15*
%TO.C,U3*%
X212006066Y-65750431D03*
X212677817Y-66422183D03*
X213349569Y-67093934D03*
X211793934Y-68649569D03*
X211122183Y-67977817D03*
X210450431Y-67306066D03*
%TD*%
D13*
%TO.C,C4*%
X189429045Y-72775000D03*
X187879045Y-72775000D03*
%TD*%
D16*
%TO.C,C6*%
X210448008Y-69748008D03*
X209351992Y-68651992D03*
%TD*%
D17*
%TO.C,U2*%
X187704045Y-68675000D03*
X188654045Y-68675000D03*
X189604045Y-68675000D03*
X189604045Y-70875000D03*
X188654045Y-70875000D03*
X187704045Y-70875000D03*
%TD*%
D18*
%TO.C,C1*%
X203298008Y-64651992D03*
X202201992Y-65748008D03*
%TD*%
D19*
%TO.C,U1*%
X203300431Y-67093934D03*
X203972183Y-66422183D03*
X204643934Y-65750431D03*
X206199569Y-67306066D03*
X205527817Y-67977817D03*
X204856066Y-68649569D03*
%TD*%
D20*
%TO.C,J1*%
X206350000Y-77420000D03*
X210250000Y-77420000D03*
X206350000Y-76150000D03*
X210250000Y-76150000D03*
X206350000Y-74880000D03*
X210250000Y-74880000D03*
%TD*%
D16*
%TO.C,C5*%
X214448008Y-65748008D03*
X213351992Y-64651992D03*
%TD*%
M02*
