%TF.GenerationSoftware,KiCad,Pcbnew,(6.0.8)*%
%TF.CreationDate,2022-11-08T14:12:11+01:00*%
%TF.ProjectId,Touchpad,546f7563-6870-4616-942e-6b696361645f,rev?*%
%TF.SameCoordinates,Original*%
%TF.FileFunction,Copper,L2,Bot*%
%TF.FilePolarity,Positive*%
%FSLAX46Y46*%
G04 Gerber Fmt 4.6, Leading zero omitted, Abs format (unit mm)*
G04 Created by KiCad (PCBNEW (6.0.8)) date 2022-11-08 14:12:11*
%MOMM*%
%LPD*%
G01*
G04 APERTURE LIST*
G04 Aperture macros list*
%AMRoundRect*
0 Rectangle with rounded corners*
0 $1 Rounding radius*
0 $2 $3 $4 $5 $6 $7 $8 $9 X,Y pos of 4 corners*
0 Add a 4 corners polygon primitive as box body*
4,1,4,$2,$3,$4,$5,$6,$7,$8,$9,$2,$3,0*
0 Add four circle primitives for the rounded corners*
1,1,$1+$1,$2,$3*
1,1,$1+$1,$4,$5*
1,1,$1+$1,$6,$7*
1,1,$1+$1,$8,$9*
0 Add four rect primitives between the rounded corners*
20,1,$1+$1,$2,$3,$4,$5,0*
20,1,$1+$1,$4,$5,$6,$7,0*
20,1,$1+$1,$6,$7,$8,$9,0*
20,1,$1+$1,$8,$9,$2,$3,0*%
%AMRotRect*
0 Rectangle, with rotation*
0 The origin of the aperture is its center*
0 $1 length*
0 $2 width*
0 $3 Rotation angle, in degrees counterclockwise*
0 Add horizontal line*
21,1,$1,$2,0,0,$3*%
G04 Aperture macros list end*
%TA.AperFunction,SMDPad,CuDef*%
%ADD10RoundRect,0.225000X0.225000X0.250000X-0.225000X0.250000X-0.225000X-0.250000X0.225000X-0.250000X0*%
%TD*%
%TA.AperFunction,SMDPad,CuDef*%
%ADD11RoundRect,0.225000X0.017678X-0.335876X0.335876X-0.017678X-0.017678X0.335876X-0.335876X0.017678X0*%
%TD*%
%TA.AperFunction,SMDPad,CuDef*%
%ADD12RotRect,1.060000X0.650000X225.000000*%
%TD*%
%TA.AperFunction,SMDPad,CuDef*%
%ADD13RoundRect,0.225000X0.335876X0.017678X0.017678X0.335876X-0.335876X-0.017678X-0.017678X-0.335876X0*%
%TD*%
%TA.AperFunction,SMDPad,CuDef*%
%ADD14R,0.650000X1.060000*%
%TD*%
%TA.AperFunction,SMDPad,CuDef*%
%ADD15RoundRect,0.225000X-0.017678X0.335876X-0.335876X0.017678X0.017678X-0.335876X0.335876X-0.017678X0*%
%TD*%
%TA.AperFunction,SMDPad,CuDef*%
%ADD16RotRect,1.060000X0.650000X315.000000*%
%TD*%
%TA.AperFunction,SMDPad,CuDef*%
%ADD17R,2.400000X0.740000*%
%TD*%
%TA.AperFunction,ViaPad*%
%ADD18C,0.800000*%
%TD*%
%TA.AperFunction,Conductor*%
%ADD19C,0.355600*%
%TD*%
%TA.AperFunction,Conductor*%
%ADD20C,0.254000*%
%TD*%
G04 APERTURE END LIST*
D10*
%TO.P,C3,1*%
%TO.N,Net-(C3-Pad1)*%
X189429045Y-66775000D03*
%TO.P,C3,2*%
%TO.N,GND*%
X187879045Y-66775000D03*
%TD*%
D11*
%TO.P,C2,1*%
%TO.N,+5V*%
X206201992Y-69748008D03*
%TO.P,C2,2*%
%TO.N,GND*%
X207298008Y-68651992D03*
%TD*%
D12*
%TO.P,U3,1,Q*%
%TO.N,TP3*%
X212006066Y-65750431D03*
%TO.P,U3,2,VSS*%
%TO.N,GND*%
X212677817Y-66422183D03*
%TO.P,U3,3,I*%
%TO.N,Net-(C5-Pad1)*%
X213349569Y-67093934D03*
%TO.P,U3,4,AHLB*%
%TO.N,unconnected-(U3-Pad4)*%
X211793934Y-68649569D03*
%TO.P,U3,5,VDD*%
%TO.N,+5V*%
X211122183Y-67977817D03*
%TO.P,U3,6,TOG*%
%TO.N,unconnected-(U3-Pad6)*%
X210450431Y-67306066D03*
%TD*%
D10*
%TO.P,C4,1*%
%TO.N,+5V*%
X189429045Y-72775000D03*
%TO.P,C4,2*%
%TO.N,GND*%
X187879045Y-72775000D03*
%TD*%
D13*
%TO.P,C6,1*%
%TO.N,+5V*%
X210448008Y-69748008D03*
%TO.P,C6,2*%
%TO.N,GND*%
X209351992Y-68651992D03*
%TD*%
D14*
%TO.P,U2,1,Q*%
%TO.N,TP2*%
X187704045Y-68675000D03*
%TO.P,U2,2,VSS*%
%TO.N,GND*%
X188654045Y-68675000D03*
%TO.P,U2,3,I*%
%TO.N,Net-(C3-Pad1)*%
X189604045Y-68675000D03*
%TO.P,U2,4,AHLB*%
%TO.N,unconnected-(U2-Pad4)*%
X189604045Y-70875000D03*
%TO.P,U2,5,VDD*%
%TO.N,+5V*%
X188654045Y-70875000D03*
%TO.P,U2,6,TOG*%
%TO.N,unconnected-(U2-Pad6)*%
X187704045Y-70875000D03*
%TD*%
D15*
%TO.P,C1,1*%
%TO.N,Net-(C1-Pad1)*%
X203298008Y-64651992D03*
%TO.P,C1,2*%
%TO.N,GND*%
X202201992Y-65748008D03*
%TD*%
D16*
%TO.P,U1,1,Q*%
%TO.N,TP1*%
X203300431Y-67093934D03*
%TO.P,U1,2,VSS*%
%TO.N,GND*%
X203972183Y-66422183D03*
%TO.P,U1,3,I*%
%TO.N,Net-(C1-Pad1)*%
X204643934Y-65750431D03*
%TO.P,U1,4,AHLB*%
%TO.N,unconnected-(U1-Pad4)*%
X206199569Y-67306066D03*
%TO.P,U1,5,VDD*%
%TO.N,+5V*%
X205527817Y-67977817D03*
%TO.P,U1,6,TOG*%
%TO.N,unconnected-(U1-Pad6)*%
X204856066Y-68649569D03*
%TD*%
D17*
%TO.P,J1,1,Pin_1*%
%TO.N,TP2*%
X206350000Y-77420000D03*
%TO.P,J1,2,Pin_2*%
%TO.N,TP3*%
X210250000Y-77420000D03*
%TO.P,J1,3,Pin_3*%
%TO.N,+5V*%
X206350000Y-76150000D03*
%TO.P,J1,4,Pin_4*%
X210250000Y-76150000D03*
%TO.P,J1,5,Pin_5*%
%TO.N,TP1*%
X206350000Y-74880000D03*
%TO.P,J1,6,Pin_6*%
%TO.N,GND*%
X210250000Y-74880000D03*
%TD*%
D13*
%TO.P,C5,1*%
%TO.N,Net-(C5-Pad1)*%
X214448008Y-65748008D03*
%TO.P,C5,2*%
%TO.N,GND*%
X213351992Y-64651992D03*
%TD*%
D18*
%TO.N,Net-(C5-Pad1)*%
X216100000Y-64950000D03*
%TO.N,TP2*%
X186300000Y-68650000D03*
X204000000Y-77450000D03*
%TO.N,TP3*%
X210100000Y-65750000D03*
X212550000Y-77450000D03*
%TO.N,+5V*%
X207300000Y-70850000D03*
X214250000Y-78100000D03*
%TO.N,Net-(C1-Pad1)*%
X200650000Y-64450000D03*
%TO.N,Net-(C3-Pad1)*%
X189450000Y-65500000D03*
%TO.N,TP1*%
X206350000Y-73350000D03*
X207100000Y-66100000D03*
%TD*%
D19*
%TO.N,GND*%
X209600000Y-64400000D02*
X213100000Y-64400000D01*
X208850000Y-67100000D02*
X208850000Y-65150000D01*
D20*
X202500000Y-66050000D02*
X203600000Y-66050000D01*
D19*
X208850000Y-65150000D02*
X209600000Y-64400000D01*
D20*
X188654045Y-68079045D02*
X187879045Y-67304045D01*
X213050000Y-64953984D02*
X213351992Y-64651992D01*
X213050000Y-66050000D02*
X213050000Y-64953984D01*
X202201992Y-65748008D02*
X202201992Y-65751992D01*
D19*
X207298008Y-68651992D02*
X208850000Y-67100000D01*
X213100000Y-64400000D02*
X213351992Y-64651992D01*
D20*
X202201992Y-65751992D02*
X202500000Y-66050000D01*
X187879045Y-67304045D02*
X187879045Y-66775000D01*
X188654045Y-68675000D02*
X188654045Y-68079045D01*
X212677817Y-66422183D02*
X213050000Y-66050000D01*
X203600000Y-66050000D02*
X203972183Y-66422183D01*
D19*
%TO.N,Net-(C5-Pad1)*%
X214448008Y-65748008D02*
X214451992Y-65748008D01*
X214448008Y-65995495D02*
X213349569Y-67093934D01*
X214451992Y-65748008D02*
X215050000Y-65150000D01*
X214448008Y-65748008D02*
X214448008Y-65995495D01*
X215050000Y-65150000D02*
X215250000Y-64950000D01*
X215250000Y-64950000D02*
X216100000Y-64950000D01*
%TO.N,TP2*%
X206350000Y-77420000D02*
X204030000Y-77420000D01*
X204030000Y-77420000D02*
X204000000Y-77450000D01*
X187679045Y-68650000D02*
X187704045Y-68675000D01*
X186300000Y-68650000D02*
X187679045Y-68650000D01*
D20*
%TO.N,TP3*%
X212006066Y-65750431D02*
X210100431Y-65750431D01*
X210280000Y-77450000D02*
X210250000Y-77420000D01*
X210100431Y-65750431D02*
X210100000Y-65750000D01*
X212550000Y-77450000D02*
X210280000Y-77450000D01*
D19*
%TO.N,+5V*%
X206198008Y-69748008D02*
X205950000Y-69500000D01*
X201350000Y-78300000D02*
X203500000Y-76150000D01*
X205950000Y-68400000D02*
X205527817Y-67977817D01*
X212550000Y-75800000D02*
X212550000Y-74750000D01*
X206201992Y-69748008D02*
X206201992Y-69751992D01*
X210250000Y-76150000D02*
X212200000Y-76150000D01*
X189429045Y-72775000D02*
X189429045Y-72125000D01*
X189429045Y-72125000D02*
X189204045Y-71900000D01*
X214250000Y-77500000D02*
X212550000Y-75800000D01*
X189429045Y-72775000D02*
X189429045Y-74679045D01*
X193050000Y-78300000D02*
X201350000Y-78300000D01*
X203500000Y-76150000D02*
X206350000Y-76150000D01*
X188654045Y-70875000D02*
X188654045Y-71700000D01*
D20*
X210451992Y-69748008D02*
X210800000Y-69400000D01*
D19*
X206350000Y-76150000D02*
X210250000Y-76150000D01*
X211300000Y-70600000D02*
X210448008Y-69748008D01*
X188854045Y-71900000D02*
X189204045Y-71900000D01*
X206201992Y-69748008D02*
X206198008Y-69748008D01*
X206201992Y-69751992D02*
X207300000Y-70850000D01*
X212200000Y-76150000D02*
X212550000Y-75800000D01*
X214250000Y-78100000D02*
X214250000Y-77500000D01*
X188654045Y-71700000D02*
X188854045Y-71900000D01*
D20*
X210800000Y-68300000D02*
X211122183Y-67977817D01*
D19*
X189429045Y-74679045D02*
X193050000Y-78300000D01*
D20*
X210800000Y-69400000D02*
X210800000Y-68300000D01*
D19*
X211300000Y-73500000D02*
X211300000Y-70600000D01*
X212550000Y-74750000D02*
X211300000Y-73500000D01*
X205950000Y-69500000D02*
X205950000Y-68400000D01*
%TO.N,Net-(C1-Pad1)*%
X203100000Y-64450000D02*
X200650000Y-64450000D01*
D20*
X203298008Y-64648008D02*
X203100000Y-64450000D01*
X203298008Y-64651992D02*
X203545495Y-64651992D01*
X203298008Y-64651992D02*
X203298008Y-64648008D01*
D19*
X203545495Y-64651992D02*
X204643934Y-65750431D01*
%TO.N,Net-(C3-Pad1)*%
X189429045Y-65504045D02*
X189425000Y-65500000D01*
X189429045Y-65520955D02*
X189450000Y-65500000D01*
X189604045Y-68675000D02*
X189604045Y-66950000D01*
X189429045Y-66775000D02*
X189429045Y-65520955D01*
X189604045Y-66950000D02*
X189429045Y-66775000D01*
D20*
%TO.N,TP1*%
X207100000Y-66100000D02*
X205800000Y-66100000D01*
X206350000Y-74880000D02*
X206350000Y-73350000D01*
X205800000Y-66100000D02*
X204225000Y-67675000D01*
X203881497Y-67675000D02*
X204225000Y-67675000D01*
X203300431Y-67093934D02*
X203881497Y-67675000D01*
%TD*%
%TA.AperFunction,Conductor*%
%TO.N,GND*%
G36*
X199925284Y-63678502D02*
G01*
X199971777Y-63732158D01*
X199981881Y-63802432D01*
X199950801Y-63868808D01*
X199910960Y-63913056D01*
X199907659Y-63918774D01*
X199836011Y-64042872D01*
X199815473Y-64078444D01*
X199756458Y-64260072D01*
X199755768Y-64266633D01*
X199755768Y-64266635D01*
X199744340Y-64375364D01*
X199736496Y-64450000D01*
X199737186Y-64456565D01*
X199755675Y-64632474D01*
X199756458Y-64639928D01*
X199815473Y-64821556D01*
X199818776Y-64827278D01*
X199818777Y-64827279D01*
X199821812Y-64832535D01*
X199910960Y-64986944D01*
X199915378Y-64991851D01*
X199915379Y-64991852D01*
X200026200Y-65114931D01*
X200038747Y-65128866D01*
X200193248Y-65241118D01*
X200199276Y-65243802D01*
X200199278Y-65243803D01*
X200345449Y-65308882D01*
X200367712Y-65318794D01*
X200461112Y-65338647D01*
X200548056Y-65357128D01*
X200548061Y-65357128D01*
X200554513Y-65358500D01*
X200745487Y-65358500D01*
X200751939Y-65357128D01*
X200751944Y-65357128D01*
X200838888Y-65338647D01*
X200932288Y-65318794D01*
X200938315Y-65316111D01*
X200938323Y-65316108D01*
X201022837Y-65278480D01*
X201093204Y-65269046D01*
X201157501Y-65299153D01*
X201195314Y-65359242D01*
X201194638Y-65430235D01*
X201186797Y-65449908D01*
X201175466Y-65472584D01*
X201170514Y-65486262D01*
X201134694Y-65638385D01*
X201133023Y-65652827D01*
X201133160Y-65809116D01*
X201134855Y-65823551D01*
X201170943Y-65975616D01*
X201175916Y-65989281D01*
X201246213Y-66129354D01*
X201253643Y-66140840D01*
X201311338Y-66211708D01*
X201315646Y-66216479D01*
X201332166Y-66232999D01*
X201346110Y-66240613D01*
X201347945Y-66240482D01*
X201354558Y-66236232D01*
X202112897Y-65477893D01*
X202175209Y-65443867D01*
X202246024Y-65448932D01*
X202291087Y-65477893D01*
X202472107Y-65658913D01*
X202506133Y-65721225D01*
X202501068Y-65792040D01*
X202472107Y-65837103D01*
X201716998Y-66592212D01*
X201709386Y-66606152D01*
X201709518Y-66607988D01*
X201713767Y-66614600D01*
X201733487Y-66634320D01*
X201738328Y-66638685D01*
X201810225Y-66697064D01*
X201821740Y-66704488D01*
X201961920Y-66774532D01*
X201975602Y-66779486D01*
X202086683Y-66805642D01*
X202148406Y-66840725D01*
X202181363Y-66903609D01*
X202182118Y-66931115D01*
X202183399Y-66931115D01*
X202183399Y-66940088D01*
X202182126Y-66948977D01*
X202183399Y-66957866D01*
X202200454Y-67076953D01*
X202202775Y-67093163D01*
X202206488Y-67101329D01*
X202206489Y-67101333D01*
X202218275Y-67127254D01*
X202228261Y-67197545D01*
X202198660Y-67262077D01*
X202138870Y-67300360D01*
X202067874Y-67300242D01*
X202023259Y-67276490D01*
X201953142Y-67218484D01*
X201953136Y-67218480D01*
X201951118Y-67216810D01*
X201581308Y-66959785D01*
X201191287Y-66734607D01*
X200783792Y-66542854D01*
X200781325Y-66541937D01*
X200781319Y-66541934D01*
X200364141Y-66386787D01*
X200361681Y-66385872D01*
X200359151Y-66385166D01*
X200359143Y-66385163D01*
X199930459Y-66265472D01*
X199930446Y-66265469D01*
X199927914Y-66264762D01*
X199485534Y-66180374D01*
X199037644Y-66133299D01*
X198750266Y-66127279D01*
X198590025Y-66123922D01*
X198590018Y-66123922D01*
X198587386Y-66123867D01*
X198137918Y-66152145D01*
X198135300Y-66152532D01*
X198135296Y-66152532D01*
X197695012Y-66217548D01*
X197695009Y-66217548D01*
X197692392Y-66217935D01*
X197689820Y-66218538D01*
X197689816Y-66218539D01*
X197647859Y-66228380D01*
X197253934Y-66320774D01*
X197251423Y-66321590D01*
X197251419Y-66321591D01*
X196921261Y-66428866D01*
X196825619Y-66459942D01*
X196823191Y-66460963D01*
X196823190Y-66460963D01*
X196794325Y-66473097D01*
X196410452Y-66634463D01*
X196408119Y-66635683D01*
X196408114Y-66635685D01*
X196370047Y-66655586D01*
X196011344Y-66843111D01*
X196009116Y-66844525D01*
X195633332Y-67083005D01*
X195633326Y-67083009D01*
X195631095Y-67084425D01*
X195272372Y-67356710D01*
X194937692Y-67658057D01*
X194935888Y-67659978D01*
X194935884Y-67659982D01*
X194854915Y-67746206D01*
X194629401Y-67986354D01*
X194349663Y-68339295D01*
X194348209Y-68341484D01*
X194348205Y-68341489D01*
X194112653Y-68696024D01*
X194100439Y-68714407D01*
X193883478Y-69109058D01*
X193700302Y-69520479D01*
X193552194Y-69945786D01*
X193551539Y-69948337D01*
X193551536Y-69948347D01*
X193440851Y-70379438D01*
X193440195Y-70381994D01*
X193365090Y-70826044D01*
X193364870Y-70828661D01*
X193364870Y-70828663D01*
X193332406Y-71215271D01*
X193327405Y-71274822D01*
X193327405Y-71725178D01*
X193327625Y-71727796D01*
X193327625Y-71727800D01*
X193347157Y-71960400D01*
X193365090Y-72173956D01*
X193440195Y-72618006D01*
X193440850Y-72620556D01*
X193440851Y-72620562D01*
X193549199Y-73042548D01*
X193552194Y-73054214D01*
X193700302Y-73479521D01*
X193883478Y-73890942D01*
X194100439Y-74285593D01*
X194101891Y-74287779D01*
X194101895Y-74287785D01*
X194348205Y-74658511D01*
X194349663Y-74660705D01*
X194629401Y-75013646D01*
X194845993Y-75244293D01*
X194899743Y-75301531D01*
X194937692Y-75341943D01*
X195272372Y-75643290D01*
X195631095Y-75915575D01*
X195633326Y-75916991D01*
X195633332Y-75916995D01*
X195829577Y-76041536D01*
X196011344Y-76156889D01*
X196216371Y-76264074D01*
X196408114Y-76364315D01*
X196408119Y-76364317D01*
X196410452Y-76365537D01*
X196825619Y-76540058D01*
X196828127Y-76540873D01*
X196828130Y-76540874D01*
X197251419Y-76678409D01*
X197251423Y-76678410D01*
X197253934Y-76679226D01*
X197567252Y-76752714D01*
X197689816Y-76781461D01*
X197689820Y-76781462D01*
X197692392Y-76782065D01*
X197695009Y-76782452D01*
X197695012Y-76782452D01*
X198135296Y-76847468D01*
X198135300Y-76847468D01*
X198137918Y-76847855D01*
X198587386Y-76876133D01*
X198590018Y-76876078D01*
X198590025Y-76876078D01*
X198761511Y-76872485D01*
X199037644Y-76866701D01*
X199485534Y-76819626D01*
X199927914Y-76735238D01*
X199930446Y-76734531D01*
X199930459Y-76734528D01*
X200359143Y-76614837D01*
X200359151Y-76614834D01*
X200361681Y-76614128D01*
X200563594Y-76539037D01*
X200781319Y-76458066D01*
X200781325Y-76458063D01*
X200783792Y-76457146D01*
X201191287Y-76265393D01*
X201581308Y-76040215D01*
X201951118Y-75783190D01*
X202164296Y-75606834D01*
X202296100Y-75497797D01*
X202296108Y-75497790D01*
X202298124Y-75496122D01*
X202619892Y-75181023D01*
X202623946Y-75176327D01*
X202902712Y-74853372D01*
X202914164Y-74840105D01*
X202915716Y-74837969D01*
X202915723Y-74837960D01*
X203177328Y-74477891D01*
X203178877Y-74475759D01*
X203185195Y-74465328D01*
X203295439Y-74283293D01*
X203412174Y-74090540D01*
X203460855Y-73992474D01*
X203611245Y-73689515D01*
X203612419Y-73687150D01*
X203778206Y-73268419D01*
X203908374Y-72837283D01*
X203912309Y-72818774D01*
X204001461Y-72399341D01*
X204002008Y-72396768D01*
X204058453Y-71949962D01*
X204066370Y-71761081D01*
X204077201Y-71502648D01*
X204077312Y-71500000D01*
X204071763Y-71367608D01*
X204058564Y-71052683D01*
X204058564Y-71052680D01*
X204058453Y-71050038D01*
X204002008Y-70603232D01*
X203954439Y-70379438D01*
X203908920Y-70165284D01*
X203908918Y-70165276D01*
X203908374Y-70162717D01*
X203778206Y-69731581D01*
X203612419Y-69312850D01*
X203537608Y-69162144D01*
X203413351Y-68911831D01*
X203412174Y-68909460D01*
X203254450Y-68649027D01*
X203180243Y-68526496D01*
X203180239Y-68526491D01*
X203178877Y-68524241D01*
X203137024Y-68466635D01*
X203038435Y-68330939D01*
X203014576Y-68264071D01*
X203030657Y-68194920D01*
X203081571Y-68145439D01*
X203151154Y-68131340D01*
X203192522Y-68142177D01*
X203293032Y-68187876D01*
X203293036Y-68187877D01*
X203301202Y-68191590D01*
X203310085Y-68192862D01*
X203310088Y-68192863D01*
X203436499Y-68210966D01*
X203445388Y-68212239D01*
X203472479Y-68208359D01*
X203542745Y-68218501D01*
X203550612Y-68222612D01*
X203555430Y-68226349D01*
X203562707Y-68229498D01*
X203596147Y-68243969D01*
X203606808Y-68249192D01*
X203638744Y-68266749D01*
X203638749Y-68266751D01*
X203645694Y-68270569D01*
X203657416Y-68273579D01*
X203660242Y-68275261D01*
X203660743Y-68275459D01*
X203660711Y-68275540D01*
X203718423Y-68309891D01*
X203750114Y-68373422D01*
X203750812Y-68413481D01*
X203737761Y-68504612D01*
X203739034Y-68513501D01*
X203757033Y-68639181D01*
X203758410Y-68648798D01*
X203762124Y-68656966D01*
X203762124Y-68656967D01*
X203779882Y-68696024D01*
X203818697Y-68781394D01*
X203823644Y-68787547D01*
X203823646Y-68787550D01*
X203844434Y-68813404D01*
X203857890Y-68830140D01*
X204675495Y-69647745D01*
X204681175Y-69652312D01*
X204718085Y-69681989D01*
X204718088Y-69681991D01*
X204724241Y-69686938D01*
X204731429Y-69690206D01*
X204842926Y-69740900D01*
X204856837Y-69747225D01*
X204865720Y-69748497D01*
X204865723Y-69748498D01*
X204935832Y-69758538D01*
X205001023Y-69767874D01*
X205009908Y-69766602D01*
X205018889Y-69766602D01*
X205018889Y-69769803D01*
X205073549Y-69777688D01*
X205127183Y-69824206D01*
X205143747Y-69863183D01*
X205172160Y-69982910D01*
X205175442Y-69989449D01*
X205175442Y-69989450D01*
X205229791Y-70097746D01*
X205248879Y-70135780D01*
X205253221Y-70141113D01*
X205253222Y-70141115D01*
X205310964Y-70212040D01*
X205310970Y-70212046D01*
X205312995Y-70214534D01*
X205735466Y-70637005D01*
X205737998Y-70639061D01*
X205809944Y-70697482D01*
X205809947Y-70697484D01*
X205815298Y-70701829D01*
X205821462Y-70704909D01*
X205821467Y-70704912D01*
X205961759Y-70775011D01*
X205961761Y-70775012D01*
X205968302Y-70778280D01*
X206000031Y-70785751D01*
X206127665Y-70815805D01*
X206127669Y-70815805D01*
X206134789Y-70817482D01*
X206142105Y-70817476D01*
X206142108Y-70817476D01*
X206186363Y-70817437D01*
X206244513Y-70817386D01*
X206312649Y-70837328D01*
X206333716Y-70854291D01*
X206361648Y-70882223D01*
X206395674Y-70944535D01*
X206397863Y-70958145D01*
X206406458Y-71039928D01*
X206465473Y-71221556D01*
X206560960Y-71386944D01*
X206565378Y-71391851D01*
X206565379Y-71391852D01*
X206684325Y-71523955D01*
X206688747Y-71528866D01*
X206843248Y-71641118D01*
X206849276Y-71643802D01*
X206849278Y-71643803D01*
X207011681Y-71716109D01*
X207017712Y-71718794D01*
X207111113Y-71738647D01*
X207198056Y-71757128D01*
X207198061Y-71757128D01*
X207204513Y-71758500D01*
X207395487Y-71758500D01*
X207401939Y-71757128D01*
X207401944Y-71757128D01*
X207488887Y-71738647D01*
X207582288Y-71718794D01*
X207588319Y-71716109D01*
X207750722Y-71643803D01*
X207750724Y-71643802D01*
X207756752Y-71641118D01*
X207911253Y-71528866D01*
X207915675Y-71523955D01*
X208034621Y-71391852D01*
X208034622Y-71391851D01*
X208039040Y-71386944D01*
X208134527Y-71221556D01*
X208193542Y-71039928D01*
X208213504Y-70850000D01*
X208209910Y-70815805D01*
X208194232Y-70666635D01*
X208194232Y-70666633D01*
X208193542Y-70660072D01*
X208134527Y-70478444D01*
X208039040Y-70313056D01*
X208024463Y-70296866D01*
X207915675Y-70176045D01*
X207915674Y-70176044D01*
X207911253Y-70171134D01*
X207810999Y-70098295D01*
X207762094Y-70062763D01*
X207762093Y-70062762D01*
X207756752Y-70058882D01*
X207750724Y-70056198D01*
X207750722Y-70056197D01*
X207588319Y-69983891D01*
X207588318Y-69983891D01*
X207582288Y-69981206D01*
X207456264Y-69954419D01*
X207393792Y-69920691D01*
X207359470Y-69858541D01*
X207364198Y-69787702D01*
X207406474Y-69730664D01*
X207453368Y-69708577D01*
X207560971Y-69683041D01*
X207574636Y-69678068D01*
X207714709Y-69607771D01*
X207726195Y-69600341D01*
X207797063Y-69542646D01*
X207800798Y-69539273D01*
X207808291Y-69525551D01*
X207808160Y-69523718D01*
X207803909Y-69517103D01*
X207027893Y-68741087D01*
X206993867Y-68678775D01*
X206995702Y-68653124D01*
X207662416Y-68653124D01*
X207662547Y-68654958D01*
X207666798Y-68661572D01*
X208159887Y-69154661D01*
X208173831Y-69162275D01*
X208175664Y-69162144D01*
X208182279Y-69157893D01*
X208184313Y-69155859D01*
X208188697Y-69150997D01*
X208227131Y-69103663D01*
X208285598Y-69063388D01*
X208356559Y-69061117D01*
X208417482Y-69097570D01*
X208422658Y-69103536D01*
X208461336Y-69151045D01*
X208464711Y-69154782D01*
X208478433Y-69162275D01*
X208480266Y-69162144D01*
X208486881Y-69157893D01*
X208979970Y-68664804D01*
X208987584Y-68650860D01*
X208987453Y-68649027D01*
X208983202Y-68642412D01*
X208507786Y-68166997D01*
X208493848Y-68159386D01*
X208492012Y-68159518D01*
X208485400Y-68163767D01*
X208465680Y-68183487D01*
X208461305Y-68188339D01*
X208422868Y-68235676D01*
X208364401Y-68275951D01*
X208293440Y-68278222D01*
X208232517Y-68241769D01*
X208227340Y-68235801D01*
X208188670Y-68188301D01*
X208184354Y-68183521D01*
X208167834Y-68167001D01*
X208153890Y-68159387D01*
X208152055Y-68159518D01*
X208145445Y-68163766D01*
X207670029Y-68639181D01*
X207662416Y-68653124D01*
X206995702Y-68653124D01*
X206998932Y-68607960D01*
X207027893Y-68562897D01*
X207298008Y-68292782D01*
X207782999Y-67807790D01*
X207790613Y-67793846D01*
X207790482Y-67792013D01*
X207786231Y-67785398D01*
X207766513Y-67765680D01*
X207761672Y-67761315D01*
X207689775Y-67702936D01*
X207678260Y-67695512D01*
X207538080Y-67625468D01*
X207524398Y-67620514D01*
X207413317Y-67594358D01*
X207351594Y-67559275D01*
X207318637Y-67496391D01*
X207317882Y-67468885D01*
X207316601Y-67468885D01*
X207316601Y-67459912D01*
X207317874Y-67451023D01*
X207314341Y-67426354D01*
X207298498Y-67315723D01*
X207298497Y-67315720D01*
X207297225Y-67306837D01*
X207276874Y-67262077D01*
X207240209Y-67181434D01*
X207240206Y-67181429D01*
X207236938Y-67174241D01*
X207234163Y-67170789D01*
X207215879Y-67103782D01*
X207237187Y-67036058D01*
X207291727Y-66990605D01*
X207315658Y-66982958D01*
X207375824Y-66970169D01*
X207375833Y-66970166D01*
X207382288Y-66968794D01*
X207397303Y-66962109D01*
X207550722Y-66893803D01*
X207550724Y-66893802D01*
X207556752Y-66891118D01*
X207711253Y-66778866D01*
X207752115Y-66733484D01*
X207834621Y-66641852D01*
X207834622Y-66641851D01*
X207839040Y-66636944D01*
X207929921Y-66479534D01*
X207931223Y-66477279D01*
X207931224Y-66477278D01*
X207934527Y-66471556D01*
X207993542Y-66289928D01*
X207996113Y-66265472D01*
X208012814Y-66106565D01*
X208013504Y-66100000D01*
X207993542Y-65910072D01*
X207934527Y-65728444D01*
X207839040Y-65563056D01*
X207830701Y-65553794D01*
X207715675Y-65426045D01*
X207715674Y-65426044D01*
X207711253Y-65421134D01*
X207556752Y-65308882D01*
X207550724Y-65306198D01*
X207550722Y-65306197D01*
X207388319Y-65233891D01*
X207388318Y-65233891D01*
X207382288Y-65231206D01*
X207288887Y-65211353D01*
X207201944Y-65192872D01*
X207201939Y-65192872D01*
X207195487Y-65191500D01*
X207004513Y-65191500D01*
X206998061Y-65192872D01*
X206998056Y-65192872D01*
X206911113Y-65211353D01*
X206817712Y-65231206D01*
X206811682Y-65233891D01*
X206811681Y-65233891D01*
X206649278Y-65306197D01*
X206649276Y-65306198D01*
X206643248Y-65308882D01*
X206637907Y-65312762D01*
X206637906Y-65312763D01*
X206538854Y-65384729D01*
X206488747Y-65421134D01*
X206484332Y-65426037D01*
X206479420Y-65430460D01*
X206477779Y-65428638D01*
X206426790Y-65460050D01*
X206393601Y-65464500D01*
X205879020Y-65464500D01*
X205867791Y-65463971D01*
X205860281Y-65462292D01*
X205852355Y-65462541D01*
X205852354Y-65462541D01*
X205792002Y-65464438D01*
X205788044Y-65464500D01*
X205760017Y-65464500D01*
X205755971Y-65465011D01*
X205744143Y-65465942D01*
X205699795Y-65467336D01*
X205692177Y-65469549D01*
X205692178Y-65469549D01*
X205680254Y-65473013D01*
X205660894Y-65477022D01*
X205648566Y-65478579D01*
X205648563Y-65478580D01*
X205640701Y-65479573D01*
X205638118Y-65480596D01*
X205569453Y-65478242D01*
X205519978Y-65447728D01*
X204824505Y-64752255D01*
X204807769Y-64738799D01*
X204781915Y-64718011D01*
X204781912Y-64718009D01*
X204775759Y-64713062D01*
X204643163Y-64652775D01*
X204634280Y-64651503D01*
X204634277Y-64651502D01*
X204537291Y-64637613D01*
X204472694Y-64608156D01*
X204466058Y-64601981D01*
X204367616Y-64503539D01*
X204334116Y-64443536D01*
X204329530Y-64424212D01*
X204327840Y-64417090D01*
X204323353Y-64408148D01*
X204254207Y-64270369D01*
X204254207Y-64270368D01*
X204251121Y-64264220D01*
X204242633Y-64253794D01*
X204189036Y-64187960D01*
X204189030Y-64187954D01*
X204187005Y-64185466D01*
X203875134Y-63873595D01*
X203841108Y-63811283D01*
X203846173Y-63740468D01*
X203888720Y-63683632D01*
X203955240Y-63658821D01*
X203964229Y-63658500D01*
X212732234Y-63658500D01*
X212800355Y-63678502D01*
X212846848Y-63732158D01*
X212857913Y-63775510D01*
X212859518Y-63797944D01*
X212863766Y-63804555D01*
X213339181Y-64279971D01*
X213353124Y-64287584D01*
X213354958Y-64287453D01*
X213361572Y-64283202D01*
X213854661Y-63790113D01*
X213870596Y-63760931D01*
X213878604Y-63724116D01*
X213928806Y-63673913D01*
X213989193Y-63658500D01*
X216650633Y-63658500D01*
X216670018Y-63660000D01*
X216684851Y-63662310D01*
X216684855Y-63662310D01*
X216693724Y-63663691D01*
X216702626Y-63662527D01*
X216702628Y-63662527D01*
X216711681Y-63661343D01*
X216716837Y-63660669D01*
X216737129Y-63659667D01*
X217292018Y-63677105D01*
X217299918Y-63677602D01*
X217635516Y-63709325D01*
X217885666Y-63732971D01*
X217893501Y-63733961D01*
X218474624Y-63826002D01*
X218482392Y-63827485D01*
X219056582Y-63955832D01*
X219064249Y-63957800D01*
X219334892Y-64036429D01*
X219629245Y-64121946D01*
X219636748Y-64124384D01*
X220190344Y-64323690D01*
X220197672Y-64326592D01*
X220737663Y-64560267D01*
X220744795Y-64563623D01*
X221031672Y-64709794D01*
X221269036Y-64830737D01*
X221275972Y-64834550D01*
X221782394Y-65134047D01*
X221789077Y-65138289D01*
X222275698Y-65468996D01*
X222282100Y-65473648D01*
X222404736Y-65568774D01*
X222746976Y-65834243D01*
X222753075Y-65839288D01*
X223194414Y-66228380D01*
X223200184Y-66233799D01*
X223616201Y-66649816D01*
X223621620Y-66655586D01*
X224010712Y-67096925D01*
X224015757Y-67103024D01*
X224343385Y-67525398D01*
X224376351Y-67567898D01*
X224381004Y-67574302D01*
X224711711Y-68060923D01*
X224715953Y-68067606D01*
X225015450Y-68574028D01*
X225019263Y-68580964D01*
X225286377Y-69105205D01*
X225289733Y-69112337D01*
X225523408Y-69652328D01*
X225526310Y-69659656D01*
X225719568Y-70196451D01*
X225725612Y-70213239D01*
X225728054Y-70220755D01*
X225774156Y-70379438D01*
X225892200Y-70785751D01*
X225894168Y-70793418D01*
X226022515Y-71367608D01*
X226023998Y-71375376D01*
X226105743Y-71891489D01*
X226116038Y-71956490D01*
X226117029Y-71964334D01*
X226135259Y-72157192D01*
X226172398Y-72550082D01*
X226172895Y-72557982D01*
X226190095Y-73105300D01*
X226188657Y-73128642D01*
X226187690Y-73134850D01*
X226187690Y-73134855D01*
X226186309Y-73143724D01*
X226187473Y-73152626D01*
X226187473Y-73152628D01*
X226190436Y-73175283D01*
X226191500Y-73191621D01*
X226191500Y-78515500D01*
X226171498Y-78583621D01*
X226117842Y-78630114D01*
X226065500Y-78641500D01*
X215202130Y-78641500D01*
X215134009Y-78621498D01*
X215087516Y-78567842D01*
X215077412Y-78497568D01*
X215084884Y-78471672D01*
X215084527Y-78471556D01*
X215141502Y-78296206D01*
X215143542Y-78289928D01*
X215159636Y-78136807D01*
X215162814Y-78106565D01*
X215163504Y-78100000D01*
X215152137Y-77991852D01*
X215144232Y-77916635D01*
X215144232Y-77916633D01*
X215143542Y-77910072D01*
X215084527Y-77728444D01*
X215050708Y-77669867D01*
X214992341Y-77568774D01*
X214989040Y-77563056D01*
X214971794Y-77543902D01*
X214941077Y-77479894D01*
X214939988Y-77469760D01*
X214940393Y-77463818D01*
X214929769Y-77402947D01*
X214928807Y-77396425D01*
X214922297Y-77342632D01*
X214921385Y-77335092D01*
X214918700Y-77327987D01*
X214917568Y-77323377D01*
X214914519Y-77312229D01*
X214913139Y-77307661D01*
X214911834Y-77300181D01*
X214886998Y-77243603D01*
X214884517Y-77237523D01*
X214865353Y-77186806D01*
X214865352Y-77186803D01*
X214862669Y-77179704D01*
X214858368Y-77173446D01*
X214856168Y-77169238D01*
X214850564Y-77159168D01*
X214848119Y-77155034D01*
X214845066Y-77148079D01*
X214807454Y-77099061D01*
X214803593Y-77093747D01*
X214768583Y-77042808D01*
X214723596Y-77002726D01*
X214718321Y-76997746D01*
X214014480Y-76293905D01*
X213273205Y-75552631D01*
X213239180Y-75490319D01*
X213236300Y-75463536D01*
X213236300Y-75270490D01*
X213256302Y-75202369D01*
X213309958Y-75155876D01*
X213380232Y-75145772D01*
X213444812Y-75175266D01*
X213451395Y-75181395D01*
X213880000Y-75610000D01*
X213883574Y-75612680D01*
X213883578Y-75612684D01*
X214285300Y-75913975D01*
X214880000Y-76360000D01*
X216380000Y-76860000D01*
X218130000Y-76860000D01*
X219130000Y-76610000D01*
X220630000Y-75860000D01*
X221630000Y-74860000D01*
X221716864Y-74715227D01*
X222375201Y-73617999D01*
X222375202Y-73617997D01*
X222380000Y-73610000D01*
X222630000Y-72610000D01*
X222630000Y-70610000D01*
X222504895Y-70234684D01*
X222381413Y-69864238D01*
X222381411Y-69864234D01*
X222380000Y-69860000D01*
X222378003Y-69856006D01*
X221882533Y-68865065D01*
X221882530Y-68865061D01*
X221880000Y-68860000D01*
X221421894Y-68249192D01*
X221132684Y-67863578D01*
X221132680Y-67863574D01*
X221130000Y-67860000D01*
X220630000Y-67360000D01*
X218630000Y-66360000D01*
X216130000Y-66360000D01*
X216120364Y-66363212D01*
X215384238Y-66608587D01*
X215384234Y-66608589D01*
X215380000Y-66610000D01*
X215197552Y-66701224D01*
X215127678Y-66713798D01*
X215062098Y-66686599D01*
X215021633Y-66628263D01*
X215019131Y-66557310D01*
X215052108Y-66499431D01*
X215337005Y-66214534D01*
X215387351Y-66152532D01*
X215397482Y-66140056D01*
X215397484Y-66140053D01*
X215401829Y-66134702D01*
X215404910Y-66128537D01*
X215404912Y-66128533D01*
X215475011Y-65988241D01*
X215475012Y-65988239D01*
X215478280Y-65981698D01*
X215508259Y-65854381D01*
X215510329Y-65845590D01*
X215545412Y-65783867D01*
X215608295Y-65750910D01*
X215684223Y-65759362D01*
X215811677Y-65816108D01*
X215811685Y-65816111D01*
X215817712Y-65818794D01*
X215903849Y-65837103D01*
X215998056Y-65857128D01*
X215998061Y-65857128D01*
X216004513Y-65858500D01*
X216195487Y-65858500D01*
X216201939Y-65857128D01*
X216201944Y-65857128D01*
X216296151Y-65837103D01*
X216382288Y-65818794D01*
X216390336Y-65815211D01*
X216550722Y-65743803D01*
X216550724Y-65743802D01*
X216556752Y-65741118D01*
X216591356Y-65715977D01*
X216677713Y-65653234D01*
X216711253Y-65628866D01*
X216790378Y-65540989D01*
X216834621Y-65491852D01*
X216834622Y-65491851D01*
X216839040Y-65486944D01*
X216913197Y-65358500D01*
X216931223Y-65327279D01*
X216931224Y-65327278D01*
X216934527Y-65321556D01*
X216993542Y-65139928D01*
X216999793Y-65080459D01*
X217012814Y-64956565D01*
X217013504Y-64950000D01*
X217006129Y-64879834D01*
X216994232Y-64766635D01*
X216994232Y-64766633D01*
X216993542Y-64760072D01*
X216934527Y-64578444D01*
X216924029Y-64560260D01*
X216864160Y-64456565D01*
X216839040Y-64413056D01*
X216781766Y-64349446D01*
X216715675Y-64276045D01*
X216715674Y-64276044D01*
X216711253Y-64271134D01*
X216556752Y-64158882D01*
X216550724Y-64156198D01*
X216550722Y-64156197D01*
X216388319Y-64083891D01*
X216388318Y-64083891D01*
X216382288Y-64081206D01*
X216288888Y-64061353D01*
X216201944Y-64042872D01*
X216201939Y-64042872D01*
X216195487Y-64041500D01*
X216004513Y-64041500D01*
X215998061Y-64042872D01*
X215998056Y-64042872D01*
X215911112Y-64061353D01*
X215817712Y-64081206D01*
X215811682Y-64083891D01*
X215811681Y-64083891D01*
X215649278Y-64156197D01*
X215649276Y-64156198D01*
X215643248Y-64158882D01*
X215637907Y-64162762D01*
X215637906Y-64162763D01*
X215532100Y-64239636D01*
X215465232Y-64263494D01*
X215458039Y-64263700D01*
X215278147Y-64263700D01*
X215269578Y-64263408D01*
X215221394Y-64260123D01*
X215221390Y-64260123D01*
X215213818Y-64259607D01*
X215206341Y-64260912D01*
X215206339Y-64260912D01*
X215187386Y-64264220D01*
X215152947Y-64270231D01*
X215146429Y-64271192D01*
X215085092Y-64278615D01*
X215077987Y-64281300D01*
X215073377Y-64282432D01*
X215062218Y-64285484D01*
X215057656Y-64286861D01*
X215050181Y-64288166D01*
X215043232Y-64291216D01*
X215043230Y-64291217D01*
X214993611Y-64312998D01*
X214987504Y-64315490D01*
X214962268Y-64325026D01*
X214929704Y-64337331D01*
X214923441Y-64341635D01*
X214919209Y-64343848D01*
X214909152Y-64349446D01*
X214905038Y-64351879D01*
X214898080Y-64354933D01*
X214892053Y-64359558D01*
X214892049Y-64359560D01*
X214849062Y-64392545D01*
X214843737Y-64396414D01*
X214823170Y-64410550D01*
X214801269Y-64425602D01*
X214792808Y-64431417D01*
X214787756Y-64437087D01*
X214787755Y-64437088D01*
X214752726Y-64476404D01*
X214747745Y-64481680D01*
X214630341Y-64599084D01*
X214568029Y-64633110D01*
X214497214Y-64628045D01*
X214440378Y-64585498D01*
X214418651Y-64539082D01*
X214383042Y-64389030D01*
X214378068Y-64375364D01*
X214307771Y-64235291D01*
X214300341Y-64223805D01*
X214242646Y-64152937D01*
X214239273Y-64149202D01*
X214225551Y-64141709D01*
X214223718Y-64141840D01*
X214217103Y-64146091D01*
X213441087Y-64922107D01*
X213378775Y-64956133D01*
X213307960Y-64951068D01*
X213262897Y-64922107D01*
X212507788Y-64166998D01*
X212493848Y-64159386D01*
X212492012Y-64159518D01*
X212485400Y-64163767D01*
X212465680Y-64183487D01*
X212461315Y-64188328D01*
X212402936Y-64260225D01*
X212395512Y-64271740D01*
X212325468Y-64411920D01*
X212320514Y-64425602D01*
X212294358Y-64536683D01*
X212259275Y-64598406D01*
X212196391Y-64631363D01*
X212168885Y-64632118D01*
X212168885Y-64633399D01*
X212159912Y-64633399D01*
X212151023Y-64632126D01*
X212142134Y-64633399D01*
X212015723Y-64651502D01*
X212015720Y-64651503D01*
X212006837Y-64652775D01*
X211874241Y-64713062D01*
X211868088Y-64718009D01*
X211868085Y-64718011D01*
X211842231Y-64738799D01*
X211825495Y-64752255D01*
X211499724Y-65078026D01*
X211437412Y-65112052D01*
X211410629Y-65114931D01*
X210806786Y-65114931D01*
X210738665Y-65094929D01*
X210721038Y-65079947D01*
X210720577Y-65080459D01*
X210715675Y-65076045D01*
X210711253Y-65071134D01*
X210556752Y-64958882D01*
X210550724Y-64956198D01*
X210550722Y-64956197D01*
X210388319Y-64883891D01*
X210388318Y-64883891D01*
X210382288Y-64881206D01*
X210288887Y-64861353D01*
X210201944Y-64842872D01*
X210201939Y-64842872D01*
X210195487Y-64841500D01*
X210004513Y-64841500D01*
X209998061Y-64842872D01*
X209998056Y-64842872D01*
X209911113Y-64861353D01*
X209817712Y-64881206D01*
X209811682Y-64883891D01*
X209811681Y-64883891D01*
X209649278Y-64956197D01*
X209649276Y-64956198D01*
X209643248Y-64958882D01*
X209488747Y-65071134D01*
X209484326Y-65076044D01*
X209484325Y-65076045D01*
X209430287Y-65136061D01*
X209360960Y-65213056D01*
X209265473Y-65378444D01*
X209206458Y-65560072D01*
X209205768Y-65566633D01*
X209205768Y-65566635D01*
X209192897Y-65689100D01*
X209186496Y-65750000D01*
X209187186Y-65756565D01*
X209200397Y-65882256D01*
X209206458Y-65939928D01*
X209265473Y-66121556D01*
X209268776Y-66127278D01*
X209268777Y-66127279D01*
X209283357Y-66152532D01*
X209360960Y-66286944D01*
X209365378Y-66291851D01*
X209365379Y-66291852D01*
X209446720Y-66382190D01*
X209488747Y-66428866D01*
X209532925Y-66460963D01*
X209611600Y-66518124D01*
X209643248Y-66541118D01*
X209649276Y-66543802D01*
X209649278Y-66543803D01*
X209747962Y-66587740D01*
X209802058Y-66633721D01*
X209822707Y-66701648D01*
X209803354Y-66769956D01*
X209785808Y-66791942D01*
X209452255Y-67125495D01*
X209450115Y-67128157D01*
X209418011Y-67168085D01*
X209418009Y-67168088D01*
X209413062Y-67174241D01*
X209352775Y-67306837D01*
X209351503Y-67315720D01*
X209351502Y-67315723D01*
X209335659Y-67426354D01*
X209332126Y-67451023D01*
X209333399Y-67459912D01*
X209333399Y-67468885D01*
X209330342Y-67468885D01*
X209322383Y-67524048D01*
X209275863Y-67577681D01*
X209236888Y-67594244D01*
X209124385Y-67620942D01*
X209110719Y-67625916D01*
X208970646Y-67696213D01*
X208959160Y-67703643D01*
X208888292Y-67761338D01*
X208883521Y-67765646D01*
X208867001Y-67782166D01*
X208859387Y-67796110D01*
X208859518Y-67797945D01*
X208863768Y-67804558D01*
X209622107Y-68562897D01*
X209656133Y-68625209D01*
X209651068Y-68696024D01*
X209622107Y-68741087D01*
X208849323Y-69513871D01*
X208841709Y-69527815D01*
X208841840Y-69529648D01*
X208846091Y-69536263D01*
X208848125Y-69538297D01*
X208852987Y-69542681D01*
X208924866Y-69601045D01*
X208936385Y-69608473D01*
X209076564Y-69678516D01*
X209090246Y-69683470D01*
X209242369Y-69719290D01*
X209264083Y-69721802D01*
X209263799Y-69724254D01*
X209320696Y-69740900D01*
X209367242Y-69794510D01*
X209376611Y-69837397D01*
X209377822Y-69837255D01*
X209378677Y-69844529D01*
X209378683Y-69851847D01*
X209418176Y-70018265D01*
X209421458Y-70024804D01*
X209421458Y-70024805D01*
X209491808Y-70164985D01*
X209491811Y-70164989D01*
X209494895Y-70171135D01*
X209499238Y-70176470D01*
X209499239Y-70176471D01*
X209540608Y-70227285D01*
X209559011Y-70249890D01*
X209946126Y-70637005D01*
X209948646Y-70639051D01*
X210020606Y-70697482D01*
X210025959Y-70701829D01*
X210178962Y-70778280D01*
X210243252Y-70793418D01*
X210338326Y-70815805D01*
X210338330Y-70815805D01*
X210345450Y-70817482D01*
X210352766Y-70817476D01*
X210352769Y-70817476D01*
X210444474Y-70817396D01*
X210487591Y-70817358D01*
X210555728Y-70837301D01*
X210602268Y-70890916D01*
X210613700Y-70943358D01*
X210613700Y-73471856D01*
X210613408Y-73480426D01*
X210612853Y-73488574D01*
X210609607Y-73536182D01*
X210610912Y-73543659D01*
X210610912Y-73543660D01*
X210620230Y-73597049D01*
X210621192Y-73603571D01*
X210628615Y-73664908D01*
X210631300Y-73672013D01*
X210632432Y-73676623D01*
X210635481Y-73687771D01*
X210636861Y-73692339D01*
X210638166Y-73699819D01*
X210663002Y-73756397D01*
X210665483Y-73762477D01*
X210687331Y-73820296D01*
X210687562Y-73820632D01*
X210700797Y-73887264D01*
X210674786Y-73953324D01*
X210617188Y-73994834D01*
X210575302Y-74002000D01*
X210522115Y-74002000D01*
X210506876Y-74006475D01*
X210505671Y-74007865D01*
X210504000Y-74015548D01*
X210504000Y-75008000D01*
X210483998Y-75076121D01*
X210430342Y-75122614D01*
X210378000Y-75134000D01*
X208560116Y-75134000D01*
X208544877Y-75138475D01*
X208543672Y-75139865D01*
X208542001Y-75147548D01*
X208542001Y-75294669D01*
X208542370Y-75301486D01*
X208544826Y-75324093D01*
X208532297Y-75393976D01*
X208483976Y-75445991D01*
X208419563Y-75463700D01*
X208180943Y-75463700D01*
X208112822Y-75443698D01*
X208066329Y-75390042D01*
X208055680Y-75324092D01*
X208058131Y-75301531D01*
X208058500Y-75298134D01*
X208058500Y-74607885D01*
X208542000Y-74607885D01*
X208546475Y-74623124D01*
X208547865Y-74624329D01*
X208555548Y-74626000D01*
X209977885Y-74626000D01*
X209993124Y-74621525D01*
X209994329Y-74620135D01*
X209996000Y-74612452D01*
X209996000Y-74020116D01*
X209991525Y-74004877D01*
X209990135Y-74003672D01*
X209982452Y-74002001D01*
X209005331Y-74002001D01*
X208998510Y-74002371D01*
X208947648Y-74007895D01*
X208932396Y-74011521D01*
X208811946Y-74056676D01*
X208796351Y-74065214D01*
X208694276Y-74141715D01*
X208681715Y-74154276D01*
X208605214Y-74256351D01*
X208596676Y-74271946D01*
X208551522Y-74392394D01*
X208547895Y-74407649D01*
X208542369Y-74458514D01*
X208542000Y-74465328D01*
X208542000Y-74607885D01*
X208058500Y-74607885D01*
X208058500Y-74461866D01*
X208051745Y-74399684D01*
X208000615Y-74263295D01*
X207913261Y-74146739D01*
X207796705Y-74059385D01*
X207660316Y-74008255D01*
X207598134Y-74001500D01*
X207241139Y-74001500D01*
X207173018Y-73981498D01*
X207126525Y-73927842D01*
X207116421Y-73857568D01*
X207132020Y-73812500D01*
X207181223Y-73727279D01*
X207181224Y-73727278D01*
X207184527Y-73721556D01*
X207243542Y-73539928D01*
X207248940Y-73488574D01*
X207262814Y-73356565D01*
X207263504Y-73350000D01*
X207254664Y-73265895D01*
X207244232Y-73166635D01*
X207244232Y-73166633D01*
X207243542Y-73160072D01*
X207184527Y-72978444D01*
X207089040Y-72813056D01*
X206961253Y-72671134D01*
X206806752Y-72558882D01*
X206800724Y-72556198D01*
X206800722Y-72556197D01*
X206638319Y-72483891D01*
X206638318Y-72483891D01*
X206632288Y-72481206D01*
X206538887Y-72461353D01*
X206451944Y-72442872D01*
X206451939Y-72442872D01*
X206445487Y-72441500D01*
X206254513Y-72441500D01*
X206248061Y-72442872D01*
X206248056Y-72442872D01*
X206161113Y-72461353D01*
X206067712Y-72481206D01*
X206061682Y-72483891D01*
X206061681Y-72483891D01*
X205899278Y-72556197D01*
X205899276Y-72556198D01*
X205893248Y-72558882D01*
X205738747Y-72671134D01*
X205610960Y-72813056D01*
X205515473Y-72978444D01*
X205456458Y-73160072D01*
X205455768Y-73166633D01*
X205455768Y-73166635D01*
X205445336Y-73265895D01*
X205436496Y-73350000D01*
X205437186Y-73356565D01*
X205451061Y-73488574D01*
X205456458Y-73539928D01*
X205515473Y-73721556D01*
X205518776Y-73727278D01*
X205518777Y-73727279D01*
X205567980Y-73812500D01*
X205584718Y-73881495D01*
X205561498Y-73948587D01*
X205505691Y-73992474D01*
X205458861Y-74001500D01*
X205101866Y-74001500D01*
X205039684Y-74008255D01*
X204903295Y-74059385D01*
X204786739Y-74146739D01*
X204699385Y-74263295D01*
X204648255Y-74399684D01*
X204641500Y-74461866D01*
X204641500Y-75298134D01*
X204641869Y-75301531D01*
X204644320Y-75324092D01*
X204631792Y-75393974D01*
X204583472Y-75445990D01*
X204519057Y-75463700D01*
X203528144Y-75463700D01*
X203519574Y-75463408D01*
X203471394Y-75460123D01*
X203471390Y-75460123D01*
X203463818Y-75459607D01*
X203456341Y-75460912D01*
X203456340Y-75460912D01*
X203440366Y-75463700D01*
X203402947Y-75470231D01*
X203396429Y-75471192D01*
X203335092Y-75478615D01*
X203327987Y-75481300D01*
X203323377Y-75482432D01*
X203312229Y-75485481D01*
X203307661Y-75486861D01*
X203300181Y-75488166D01*
X203243603Y-75513002D01*
X203237523Y-75515483D01*
X203186806Y-75534647D01*
X203186803Y-75534648D01*
X203179704Y-75537331D01*
X203173446Y-75541632D01*
X203169238Y-75543832D01*
X203159162Y-75549440D01*
X203155035Y-75551880D01*
X203148079Y-75554934D01*
X203142054Y-75559557D01*
X203142049Y-75559560D01*
X203099076Y-75592534D01*
X203093741Y-75596410D01*
X203049073Y-75627110D01*
X203049067Y-75627115D01*
X203042808Y-75631417D01*
X203002719Y-75676412D01*
X202997738Y-75681688D01*
X201102631Y-77576795D01*
X201040319Y-77610821D01*
X201013536Y-77613700D01*
X193386465Y-77613700D01*
X193318344Y-77593698D01*
X193297370Y-77576795D01*
X190152250Y-74431676D01*
X190118224Y-74369364D01*
X190115345Y-74342581D01*
X190115345Y-73653287D01*
X190135347Y-73585166D01*
X190152172Y-73564269D01*
X190228426Y-73487882D01*
X190233597Y-73482702D01*
X190323347Y-73337101D01*
X190377194Y-73174757D01*
X190378943Y-73157693D01*
X190383921Y-73109099D01*
X190387545Y-73073732D01*
X190387545Y-72476268D01*
X190376932Y-72373981D01*
X190322801Y-72211732D01*
X190232797Y-72066287D01*
X190190736Y-72024299D01*
X190156657Y-71962019D01*
X190161660Y-71891198D01*
X190204189Y-71834301D01*
X190285126Y-71773642D01*
X190292306Y-71768261D01*
X190379660Y-71651705D01*
X190430790Y-71515316D01*
X190437545Y-71453134D01*
X190437545Y-70296866D01*
X190430790Y-70234684D01*
X190379660Y-70098295D01*
X190292306Y-69981739D01*
X190175750Y-69894385D01*
X190167342Y-69891233D01*
X190159470Y-69886923D01*
X190160773Y-69884543D01*
X190115241Y-69850336D01*
X190090544Y-69783773D01*
X190105754Y-69714425D01*
X190156042Y-69664309D01*
X190163142Y-69661067D01*
X190167344Y-69658766D01*
X190175750Y-69655615D01*
X190292306Y-69568261D01*
X190379660Y-69451705D01*
X190430790Y-69315316D01*
X190437545Y-69253134D01*
X190437545Y-68096866D01*
X190430790Y-68034684D01*
X190379660Y-67898295D01*
X190315519Y-67812712D01*
X190290671Y-67746206D01*
X190290345Y-67737147D01*
X190290345Y-67426354D01*
X190309085Y-67360238D01*
X190319507Y-67343331D01*
X190319508Y-67343329D01*
X190323347Y-67337101D01*
X190377194Y-67174757D01*
X190387545Y-67073732D01*
X190387545Y-66476268D01*
X190385767Y-66459126D01*
X190382117Y-66423955D01*
X190376932Y-66373981D01*
X190349531Y-66291852D01*
X190325118Y-66218676D01*
X190325117Y-66218674D01*
X190322801Y-66211732D01*
X190303227Y-66180100D01*
X190241038Y-66079604D01*
X190222200Y-66011152D01*
X190239062Y-65950302D01*
X190284527Y-65871556D01*
X190343542Y-65689928D01*
X190347442Y-65652827D01*
X190362814Y-65506565D01*
X190363504Y-65500000D01*
X190361217Y-65478242D01*
X190344232Y-65316635D01*
X190344232Y-65316633D01*
X190343542Y-65310072D01*
X190284527Y-65128444D01*
X190189040Y-64963056D01*
X190183196Y-64956565D01*
X190065675Y-64826045D01*
X190065674Y-64826044D01*
X190061253Y-64821134D01*
X189919317Y-64718011D01*
X189912094Y-64712763D01*
X189912093Y-64712762D01*
X189906752Y-64708882D01*
X189900724Y-64706198D01*
X189900722Y-64706197D01*
X189738319Y-64633891D01*
X189738318Y-64633891D01*
X189732288Y-64631206D01*
X189623847Y-64608156D01*
X189551944Y-64592872D01*
X189551939Y-64592872D01*
X189545487Y-64591500D01*
X189354513Y-64591500D01*
X189348061Y-64592872D01*
X189348056Y-64592872D01*
X189276153Y-64608156D01*
X189167712Y-64631206D01*
X189161682Y-64633891D01*
X189161681Y-64633891D01*
X188999278Y-64706197D01*
X188999276Y-64706198D01*
X188993248Y-64708882D01*
X188987907Y-64712762D01*
X188987906Y-64712763D01*
X188980683Y-64718011D01*
X188838747Y-64821134D01*
X188834326Y-64826044D01*
X188834325Y-64826045D01*
X188716805Y-64956565D01*
X188710960Y-64963056D01*
X188615473Y-65128444D01*
X188556458Y-65310072D01*
X188555768Y-65316633D01*
X188555768Y-65316635D01*
X188538783Y-65478242D01*
X188536496Y-65500000D01*
X188537186Y-65506565D01*
X188552559Y-65652827D01*
X188556458Y-65689928D01*
X188558497Y-65696205D01*
X188559871Y-65702666D01*
X188557301Y-65703212D01*
X188559001Y-65762452D01*
X188522346Y-65823254D01*
X188458638Y-65854588D01*
X188397469Y-65850029D01*
X188260234Y-65804510D01*
X188246855Y-65801642D01*
X188155948Y-65792328D01*
X188150919Y-65792071D01*
X188135921Y-65796475D01*
X188134716Y-65797865D01*
X188133045Y-65805548D01*
X188133045Y-66903000D01*
X188113043Y-66971121D01*
X188059387Y-67017614D01*
X188007045Y-67029000D01*
X186939160Y-67029000D01*
X186923921Y-67033475D01*
X186922716Y-67034865D01*
X186921045Y-67042548D01*
X186921045Y-67070438D01*
X186921382Y-67076953D01*
X186930939Y-67169057D01*
X186933833Y-67182456D01*
X186983426Y-67331107D01*
X186989600Y-67344286D01*
X187071833Y-67477173D01*
X187080869Y-67488574D01*
X187117757Y-67525398D01*
X187151836Y-67587681D01*
X187146833Y-67658501D01*
X187104304Y-67715397D01*
X187015784Y-67781739D01*
X187010403Y-67788919D01*
X186961482Y-67854194D01*
X186904623Y-67896709D01*
X186833804Y-67901735D01*
X186786597Y-67880566D01*
X186756752Y-67858882D01*
X186750724Y-67856198D01*
X186750722Y-67856197D01*
X186588319Y-67783891D01*
X186588318Y-67783891D01*
X186582288Y-67781206D01*
X186488709Y-67761315D01*
X186401944Y-67742872D01*
X186401939Y-67742872D01*
X186395487Y-67741500D01*
X186204513Y-67741500D01*
X186198061Y-67742872D01*
X186198056Y-67742872D01*
X186111291Y-67761315D01*
X186017712Y-67781206D01*
X186011682Y-67783891D01*
X186011681Y-67783891D01*
X185849278Y-67856197D01*
X185849276Y-67856198D01*
X185843248Y-67858882D01*
X185837909Y-67862761D01*
X185837906Y-67862763D01*
X185791184Y-67896709D01*
X185688747Y-67971134D01*
X185684326Y-67976044D01*
X185684325Y-67976045D01*
X185575538Y-68096866D01*
X185560960Y-68113056D01*
X185531683Y-68163766D01*
X185470020Y-68270569D01*
X185465473Y-68278444D01*
X185406458Y-68460072D01*
X185405768Y-68466633D01*
X185405768Y-68466635D01*
X185389102Y-68625209D01*
X185386496Y-68650000D01*
X185387186Y-68656565D01*
X185396070Y-68741087D01*
X185406458Y-68839928D01*
X185465473Y-69021556D01*
X185560960Y-69186944D01*
X185565378Y-69191851D01*
X185565379Y-69191852D01*
X185684325Y-69323955D01*
X185688747Y-69328866D01*
X185731924Y-69360236D01*
X185834701Y-69434908D01*
X185843248Y-69441118D01*
X185849276Y-69443802D01*
X185849278Y-69443803D01*
X186008027Y-69514482D01*
X186017712Y-69518794D01*
X186099897Y-69536263D01*
X186198056Y-69557128D01*
X186198061Y-69557128D01*
X186204513Y-69558500D01*
X186395487Y-69558500D01*
X186401939Y-69557128D01*
X186401944Y-69557128D01*
X186500103Y-69536263D01*
X186582288Y-69518794D01*
X186591973Y-69514482D01*
X186750722Y-69443803D01*
X186750724Y-69443802D01*
X186756752Y-69441118D01*
X186762333Y-69437063D01*
X186762494Y-69437006D01*
X186767811Y-69433936D01*
X186768372Y-69434908D01*
X186829198Y-69413205D01*
X186898350Y-69429284D01*
X186937220Y-69463434D01*
X187010402Y-69561080D01*
X187015784Y-69568261D01*
X187132340Y-69655615D01*
X187140748Y-69658767D01*
X187148620Y-69663077D01*
X187147317Y-69665457D01*
X187192849Y-69699664D01*
X187217546Y-69766227D01*
X187202336Y-69835575D01*
X187152048Y-69885691D01*
X187144948Y-69888933D01*
X187140746Y-69891234D01*
X187132340Y-69894385D01*
X187015784Y-69981739D01*
X186928430Y-70098295D01*
X186877300Y-70234684D01*
X186870545Y-70296866D01*
X186870545Y-71453134D01*
X186877300Y-71515316D01*
X186928430Y-71651705D01*
X187015784Y-71768261D01*
X187022964Y-71773642D01*
X187104340Y-71834630D01*
X187146855Y-71891489D01*
X187151881Y-71962308D01*
X187117948Y-72024474D01*
X187080059Y-72062429D01*
X187071047Y-72073840D01*
X186989041Y-72206880D01*
X186982894Y-72220061D01*
X186933554Y-72368814D01*
X186930687Y-72382190D01*
X186921373Y-72473097D01*
X186921045Y-72479514D01*
X186921045Y-72502885D01*
X186925520Y-72518124D01*
X186926910Y-72519329D01*
X186934593Y-72521000D01*
X188007045Y-72521000D01*
X188075166Y-72541002D01*
X188121659Y-72594658D01*
X188133045Y-72647000D01*
X188133045Y-73739885D01*
X188137520Y-73755124D01*
X188138910Y-73756329D01*
X188146593Y-73758000D01*
X188149483Y-73758000D01*
X188155998Y-73757663D01*
X188248102Y-73748106D01*
X188261501Y-73745212D01*
X188410152Y-73695619D01*
X188423330Y-73689445D01*
X188550442Y-73610786D01*
X188618894Y-73591948D01*
X188686663Y-73613109D01*
X188732235Y-73667550D01*
X188742745Y-73717930D01*
X188742745Y-74650901D01*
X188742453Y-74659471D01*
X188738652Y-74715227D01*
X188739957Y-74722704D01*
X188739957Y-74722705D01*
X188749275Y-74776094D01*
X188750237Y-74782616D01*
X188757660Y-74843953D01*
X188760345Y-74851058D01*
X188761477Y-74855668D01*
X188764526Y-74866816D01*
X188765906Y-74871384D01*
X188767211Y-74878864D01*
X188792047Y-74935442D01*
X188794528Y-74941522D01*
X188816376Y-74999341D01*
X188820677Y-75005599D01*
X188822877Y-75009807D01*
X188828481Y-75019877D01*
X188830926Y-75024011D01*
X188833979Y-75030966D01*
X188838605Y-75036994D01*
X188838605Y-75036995D01*
X188871586Y-75079977D01*
X188875452Y-75085298D01*
X188910462Y-75136237D01*
X188916129Y-75141286D01*
X188916135Y-75141293D01*
X188955457Y-75176327D01*
X188960733Y-75181308D01*
X192205830Y-78426405D01*
X192239856Y-78488717D01*
X192234791Y-78559532D01*
X192192244Y-78616368D01*
X192125724Y-78641179D01*
X192116735Y-78641500D01*
X171334500Y-78641500D01*
X171266379Y-78621498D01*
X171219886Y-78567842D01*
X171208500Y-78515500D01*
X171208500Y-73203250D01*
X171210246Y-73182345D01*
X171212770Y-73167344D01*
X171212770Y-73167341D01*
X171213576Y-73162552D01*
X171213729Y-73150000D01*
X171210995Y-73130912D01*
X171209785Y-73109099D01*
X171209905Y-73105300D01*
X171211643Y-73050000D01*
X174800000Y-73050000D01*
X175550000Y-74550000D01*
X176550000Y-75550000D01*
X176553574Y-75552680D01*
X176553578Y-75552684D01*
X176953753Y-75852815D01*
X177550000Y-76300000D01*
X179050000Y-76800000D01*
X180800000Y-76800000D01*
X181800000Y-76550000D01*
X183300000Y-75800000D01*
X184300000Y-74800000D01*
X184350864Y-74715227D01*
X185045201Y-73557999D01*
X185045202Y-73557997D01*
X185050000Y-73550000D01*
X185169891Y-73070438D01*
X186921045Y-73070438D01*
X186921382Y-73076953D01*
X186930939Y-73169057D01*
X186933833Y-73182456D01*
X186983426Y-73331107D01*
X186989600Y-73344286D01*
X187071833Y-73477173D01*
X187080869Y-73488574D01*
X187191474Y-73598986D01*
X187202885Y-73607998D01*
X187335925Y-73690004D01*
X187349106Y-73696151D01*
X187497859Y-73745491D01*
X187511235Y-73748358D01*
X187602142Y-73757672D01*
X187607171Y-73757929D01*
X187622169Y-73753525D01*
X187623374Y-73752135D01*
X187625045Y-73744452D01*
X187625045Y-73047115D01*
X187620570Y-73031876D01*
X187619180Y-73030671D01*
X187611497Y-73029000D01*
X186939160Y-73029000D01*
X186923921Y-73033475D01*
X186922716Y-73034865D01*
X186921045Y-73042548D01*
X186921045Y-73070438D01*
X185169891Y-73070438D01*
X185300000Y-72550000D01*
X185300000Y-70550000D01*
X185173712Y-70171135D01*
X185051413Y-69804238D01*
X185051411Y-69804234D01*
X185050000Y-69800000D01*
X185043851Y-69787702D01*
X184552533Y-68805065D01*
X184552530Y-68805061D01*
X184550000Y-68800000D01*
X184094647Y-68192863D01*
X183802684Y-67803578D01*
X183802680Y-67803574D01*
X183800000Y-67800000D01*
X183300000Y-67300000D01*
X181705770Y-66502885D01*
X186921045Y-66502885D01*
X186925520Y-66518124D01*
X186926910Y-66519329D01*
X186934593Y-66521000D01*
X187606930Y-66521000D01*
X187622169Y-66516525D01*
X187623374Y-66515135D01*
X187625045Y-66507452D01*
X187625045Y-65810115D01*
X187620570Y-65794876D01*
X187619180Y-65793671D01*
X187611497Y-65792000D01*
X187608607Y-65792000D01*
X187602092Y-65792337D01*
X187509988Y-65801894D01*
X187496589Y-65804788D01*
X187347938Y-65854381D01*
X187334759Y-65860555D01*
X187201872Y-65942788D01*
X187190471Y-65951824D01*
X187080059Y-66062429D01*
X187071047Y-66073840D01*
X186989041Y-66206880D01*
X186982894Y-66220061D01*
X186933554Y-66368814D01*
X186930687Y-66382190D01*
X186921373Y-66473097D01*
X186921045Y-66479514D01*
X186921045Y-66502885D01*
X181705770Y-66502885D01*
X181300000Y-66300000D01*
X178800000Y-66300000D01*
X178790364Y-66303212D01*
X178054238Y-66548587D01*
X178054234Y-66548589D01*
X178050000Y-66550000D01*
X178046006Y-66551997D01*
X177055065Y-67047467D01*
X177055061Y-67047470D01*
X177050000Y-67050000D01*
X176050000Y-67800000D01*
X176044630Y-67807160D01*
X175309338Y-68787550D01*
X175300000Y-68800000D01*
X175117388Y-69256531D01*
X174826444Y-69983891D01*
X174800000Y-70050000D01*
X174800000Y-73050000D01*
X171211643Y-73050000D01*
X171219243Y-72808148D01*
X171227105Y-72557982D01*
X171227602Y-72550082D01*
X171264741Y-72157192D01*
X171282971Y-71964334D01*
X171283962Y-71956490D01*
X171294258Y-71891489D01*
X171376002Y-71375376D01*
X171377485Y-71367608D01*
X171505832Y-70793418D01*
X171507800Y-70785751D01*
X171625844Y-70379438D01*
X171671946Y-70220755D01*
X171674388Y-70213239D01*
X171680432Y-70196451D01*
X171873690Y-69659656D01*
X171876592Y-69652328D01*
X172110267Y-69112337D01*
X172113623Y-69105205D01*
X172380737Y-68580964D01*
X172384550Y-68574028D01*
X172684047Y-68067606D01*
X172688289Y-68060923D01*
X173018996Y-67574302D01*
X173023649Y-67567898D01*
X173056616Y-67525398D01*
X173384243Y-67103024D01*
X173389288Y-67096925D01*
X173778380Y-66655586D01*
X173783799Y-66649816D01*
X174199816Y-66233799D01*
X174205586Y-66228380D01*
X174646925Y-65839288D01*
X174653024Y-65834243D01*
X174995264Y-65568774D01*
X175117900Y-65473648D01*
X175124302Y-65468996D01*
X175610923Y-65138289D01*
X175617606Y-65134047D01*
X176124028Y-64834550D01*
X176130964Y-64830737D01*
X176368328Y-64709794D01*
X176655205Y-64563623D01*
X176662337Y-64560267D01*
X177202328Y-64326592D01*
X177209656Y-64323690D01*
X177763252Y-64124384D01*
X177770755Y-64121946D01*
X178065108Y-64036429D01*
X178335751Y-63957800D01*
X178343418Y-63955832D01*
X178917608Y-63827485D01*
X178925376Y-63826002D01*
X179506499Y-63733961D01*
X179514334Y-63732971D01*
X179764484Y-63709325D01*
X180100082Y-63677602D01*
X180107982Y-63677105D01*
X180655300Y-63659905D01*
X180678642Y-63661343D01*
X180684850Y-63662310D01*
X180684855Y-63662310D01*
X180693724Y-63663691D01*
X180702626Y-63662527D01*
X180702628Y-63662527D01*
X180717677Y-63660559D01*
X180725286Y-63659564D01*
X180741621Y-63658500D01*
X199857163Y-63658500D01*
X199925284Y-63678502D01*
G37*
%TD.AperFunction*%
%TD*%
M02*
