%TF.GenerationSoftware,KiCad,Pcbnew,(6.0.0)*%
%TF.CreationDate,2022-01-22T08:46:37+01:00*%
%TF.ProjectId,CNLJS_test_LEDice_dual,434e4c4a-535f-4746-9573-745f4c454469,rev?*%
%TF.SameCoordinates,Original*%
%TF.FileFunction,Soldermask,Top*%
%TF.FilePolarity,Negative*%
%FSLAX46Y46*%
G04 Gerber Fmt 4.6, Leading zero omitted, Abs format (unit mm)*
G04 Created by KiCad (PCBNEW (6.0.0)) date 2022-01-22 08:46:37*
%MOMM*%
%LPD*%
G01*
G04 APERTURE LIST*
G04 Aperture macros list*
%AMRoundRect*
0 Rectangle with rounded corners*
0 $1 Rounding radius*
0 $2 $3 $4 $5 $6 $7 $8 $9 X,Y pos of 4 corners*
0 Add a 4 corners polygon primitive as box body*
4,1,4,$2,$3,$4,$5,$6,$7,$8,$9,$2,$3,0*
0 Add four circle primitives for the rounded corners*
1,1,$1+$1,$2,$3*
1,1,$1+$1,$4,$5*
1,1,$1+$1,$6,$7*
1,1,$1+$1,$8,$9*
0 Add four rect primitives between the rounded corners*
20,1,$1+$1,$2,$3,$4,$5,0*
20,1,$1+$1,$4,$5,$6,$7,0*
20,1,$1+$1,$6,$7,$8,$9,0*
20,1,$1+$1,$8,$9,$2,$3,0*%
G04 Aperture macros list end*
%ADD10C,6.000000*%
%ADD11C,5.000000*%
%ADD12C,4.000000*%
%ADD13C,3.000000*%
%ADD14R,0.420000X1.300000*%
%ADD15R,1.700000X1.700000*%
%ADD16O,1.700000X1.700000*%
%ADD17RoundRect,0.250000X-0.262500X-0.450000X0.262500X-0.450000X0.262500X0.450000X-0.262500X0.450000X0*%
G04 APERTURE END LIST*
D10*
%TO.C,U23*%
X202900000Y-61800000D02*
G75*
G03*
X202900000Y-61800000I-3000000J0D01*
G01*
%TO.C,U22*%
X185900000Y-61800000D02*
G75*
G03*
X185900000Y-61800000I-3000000J0D01*
G01*
%TO.C,U21*%
X169800000Y-61800000D02*
G75*
G03*
X169800000Y-61800000I-3000000J0D01*
G01*
%TO.C,U20*%
X154600000Y-61800000D02*
G75*
G03*
X154600000Y-61800000I-3000000J0D01*
G01*
%TO.C,U19*%
X140700000Y-61800000D02*
G75*
G03*
X140700000Y-61800000I-3000000J0D01*
G01*
D11*
%TO.C,U18*%
X194600000Y-84400000D02*
G75*
G03*
X194600000Y-84400000I-2500000J0D01*
G01*
%TO.C,U17*%
X179600000Y-84400000D02*
G75*
G03*
X179600000Y-84400000I-2500000J0D01*
G01*
%TO.C,U16*%
X165400000Y-84400000D02*
G75*
G03*
X165400000Y-84400000I-2500000J0D01*
G01*
%TO.C,U15*%
X152200000Y-84400000D02*
G75*
G03*
X152200000Y-84400000I-2500000J0D01*
G01*
%TO.C,U14*%
X140250000Y-84400000D02*
G75*
G03*
X140250000Y-84400000I-2500000J0D01*
G01*
D12*
%TO.C,U13*%
X199800000Y-105100000D02*
G75*
G03*
X199800000Y-105100000I-2000000J0D01*
G01*
%TO.C,U7*%
D13*
X201850000Y-123750000D02*
G75*
G03*
X201850000Y-123750000I-1500000J0D01*
G01*
%TO.C,U5*%
X177150000Y-123750000D02*
G75*
G03*
X177150000Y-123750000I-1500000J0D01*
G01*
%TO.C,U3*%
X156250000Y-123750000D02*
G75*
G03*
X156250000Y-123750000I-1500000J0D01*
G01*
%TO.C,U1*%
X139250000Y-123698000D02*
G75*
G03*
X139250000Y-123698000I-1500000J0D01*
G01*
%TO.C,U2*%
X147100000Y-123700000D02*
G75*
G03*
X147100000Y-123700000I-1500000J0D01*
G01*
%TO.C,U4*%
X166300000Y-123750000D02*
G75*
G03*
X166300000Y-123750000I-1500000J0D01*
G01*
D12*
%TO.C,U10*%
X160800000Y-105100000D02*
G75*
G03*
X160800000Y-105100000I-2000000J0D01*
G01*
%TO.C,U9*%
X149600000Y-105100000D02*
G75*
G03*
X149600000Y-105100000I-2000000J0D01*
G01*
%TO.C,U12*%
X185900000Y-105100000D02*
G75*
G03*
X185900000Y-105100000I-2000000J0D01*
G01*
%TO.C,U6*%
D13*
X189000000Y-123750000D02*
G75*
G03*
X189000000Y-123750000I-1500000J0D01*
G01*
D12*
%TO.C,U8*%
X139700000Y-105100000D02*
G75*
G03*
X139700000Y-105100000I-2000000J0D01*
G01*
%TO.C,U11*%
X173000000Y-105100000D02*
G75*
G03*
X173000000Y-105100000I-2000000J0D01*
G01*
%TD*%
D14*
%TO.C,U23*%
X201200000Y-69300000D03*
X199500000Y-54300000D03*
X200350000Y-69300000D03*
X198650000Y-54300000D03*
X199500000Y-69300000D03*
X201200000Y-54300000D03*
X198650000Y-69300000D03*
X200350000Y-54300000D03*
%TD*%
%TO.C,U22*%
X184200000Y-69300000D03*
X182500000Y-54300000D03*
X183350000Y-69300000D03*
X181650000Y-54300000D03*
X182500000Y-69300000D03*
X184200000Y-54300000D03*
X181650000Y-69300000D03*
X183350000Y-54300000D03*
%TD*%
%TO.C,U21*%
X168100000Y-69300000D03*
X166400000Y-54300000D03*
X167250000Y-69300000D03*
X165550000Y-54300000D03*
X166400000Y-69300000D03*
X168100000Y-54300000D03*
X165550000Y-69300000D03*
X167250000Y-54300000D03*
%TD*%
%TO.C,U20*%
X152900000Y-69300000D03*
X151200000Y-54300000D03*
X152050000Y-69300000D03*
X150350000Y-54300000D03*
X151200000Y-69300000D03*
X152900000Y-54300000D03*
X150350000Y-69300000D03*
X152050000Y-54300000D03*
%TD*%
%TO.C,U19*%
X139000000Y-69300000D03*
X137300000Y-54300000D03*
X138150000Y-69300000D03*
X136450000Y-54300000D03*
X137300000Y-69300000D03*
X139000000Y-54300000D03*
X136450000Y-69300000D03*
X138150000Y-54300000D03*
%TD*%
%TO.C,U18*%
X193400000Y-91000000D03*
X191700000Y-77800000D03*
X192550000Y-91000000D03*
X190850000Y-77800000D03*
X191700000Y-91000000D03*
X193400000Y-77800000D03*
X190850000Y-91000000D03*
X192550000Y-77800000D03*
%TD*%
%TO.C,U17*%
X178400000Y-91000000D03*
X176700000Y-77800000D03*
X177550000Y-91000000D03*
X175850000Y-77800000D03*
X176700000Y-91000000D03*
X178400000Y-77800000D03*
X175850000Y-91000000D03*
X177550000Y-77800000D03*
%TD*%
%TO.C,U16*%
X164200000Y-91000000D03*
X162500000Y-77800000D03*
X163350000Y-91000000D03*
X161650000Y-77800000D03*
X162500000Y-91000000D03*
X164200000Y-77800000D03*
X161650000Y-91000000D03*
X163350000Y-77800000D03*
%TD*%
%TO.C,U15*%
X151000000Y-91000000D03*
X149300000Y-77800000D03*
X150150000Y-91000000D03*
X148450000Y-77800000D03*
X149300000Y-91000000D03*
X151000000Y-77800000D03*
X148450000Y-91000000D03*
X150150000Y-77800000D03*
%TD*%
%TO.C,U14*%
X139050000Y-91000000D03*
X137350000Y-77800000D03*
X138200000Y-91000000D03*
X136500000Y-77800000D03*
X137350000Y-91000000D03*
X139050000Y-77800000D03*
X136500000Y-91000000D03*
X138200000Y-77800000D03*
%TD*%
%TO.C,U13*%
X199100000Y-111000000D03*
X197400000Y-99200000D03*
X198250000Y-111000000D03*
X196550000Y-99200000D03*
X197400000Y-111000000D03*
X199100000Y-99200000D03*
X196550000Y-111000000D03*
X198250000Y-99200000D03*
%TD*%
%TO.C,U7*%
X200800000Y-119250000D03*
X199100000Y-128250000D03*
X201650000Y-119250000D03*
X199950000Y-128250000D03*
X199100000Y-119250000D03*
X199950000Y-119250000D03*
X200800000Y-128250000D03*
X201650000Y-128250000D03*
%TD*%
%TO.C,U5*%
X176100000Y-119250000D03*
X174400000Y-128250000D03*
X176950000Y-119250000D03*
X175250000Y-128250000D03*
X174400000Y-119250000D03*
X175250000Y-119250000D03*
X176100000Y-128250000D03*
X176950000Y-128250000D03*
%TD*%
%TO.C,U3*%
X155200000Y-119250000D03*
X156050000Y-119250000D03*
X153500000Y-128250000D03*
X153500000Y-119250000D03*
X154350000Y-128250000D03*
X154350000Y-119250000D03*
X155200000Y-128250000D03*
X156050000Y-128250000D03*
%TD*%
%TO.C,U1*%
X139050000Y-128198000D03*
X137350000Y-119198000D03*
X138200000Y-128198000D03*
X136500000Y-119198000D03*
X137350000Y-128198000D03*
X136500000Y-128198000D03*
X139050000Y-119198000D03*
X138200000Y-119198000D03*
%TD*%
%TO.C,U2*%
X146900000Y-128200000D03*
X145200000Y-119200000D03*
X146050000Y-128200000D03*
X144350000Y-119200000D03*
X145200000Y-128200000D03*
X146900000Y-119200000D03*
X144350000Y-128200000D03*
X146050000Y-119200000D03*
%TD*%
%TO.C,U4*%
X165250000Y-119250000D03*
X163550000Y-128250000D03*
X166100000Y-119250000D03*
X163550000Y-119250000D03*
X164400000Y-128250000D03*
X164400000Y-119250000D03*
X165250000Y-128250000D03*
X166100000Y-128250000D03*
%TD*%
%TO.C,U10*%
X160100000Y-111000000D03*
X158400000Y-99200000D03*
X159250000Y-111000000D03*
X158400000Y-111000000D03*
X157550000Y-99200000D03*
X157550000Y-111000000D03*
X160100000Y-99200000D03*
X159250000Y-99200000D03*
%TD*%
%TO.C,U9*%
X148050000Y-99200000D03*
X148900000Y-99200000D03*
X146350000Y-111000000D03*
X147200000Y-111000000D03*
X146350000Y-99200000D03*
X148050000Y-111000000D03*
X147200000Y-99200000D03*
X148900000Y-111000000D03*
%TD*%
%TO.C,U12*%
X185200000Y-111000000D03*
X184350000Y-111000000D03*
X183500000Y-99200000D03*
X183500000Y-111000000D03*
X182650000Y-99200000D03*
X185200000Y-99200000D03*
X182650000Y-111000000D03*
X184350000Y-99200000D03*
%TD*%
D15*
%TO.C,J1*%
X119094000Y-119380000D03*
D16*
X119094000Y-121920000D03*
X119094000Y-124460000D03*
%TD*%
D17*
%TO.C,R1*%
X124023500Y-121920000D03*
X125848500Y-121920000D03*
%TD*%
D14*
%TO.C,U6*%
X187950000Y-119250000D03*
X186250000Y-128250000D03*
X188800000Y-119250000D03*
X186250000Y-119250000D03*
X187100000Y-128250000D03*
X187100000Y-119250000D03*
X187950000Y-128250000D03*
X188800000Y-128250000D03*
%TD*%
%TO.C,U8*%
X139000000Y-111000000D03*
X137300000Y-99200000D03*
X138150000Y-111000000D03*
X137300000Y-111000000D03*
X136450000Y-99200000D03*
X139000000Y-99200000D03*
X136450000Y-111000000D03*
X138150000Y-99200000D03*
%TD*%
%TO.C,U11*%
X172300000Y-111000000D03*
X171450000Y-111000000D03*
X170600000Y-99200000D03*
X170600000Y-111000000D03*
X169750000Y-99200000D03*
X172300000Y-99200000D03*
X169750000Y-111000000D03*
X171450000Y-99200000D03*
%TD*%
M02*
