%TF.GenerationSoftware,KiCad,Pcbnew,(6.0.0)*%
%TF.CreationDate,2022-01-22T08:46:37+01:00*%
%TF.ProjectId,CNLJS_test_LEDice_dual,434e4c4a-535f-4746-9573-745f4c454469,rev?*%
%TF.SameCoordinates,Original*%
%TF.FileFunction,Copper,L1,Top*%
%TF.FilePolarity,Positive*%
%FSLAX46Y46*%
G04 Gerber Fmt 4.6, Leading zero omitted, Abs format (unit mm)*
G04 Created by KiCad (PCBNEW (6.0.0)) date 2022-01-22 08:46:37*
%MOMM*%
%LPD*%
G01*
G04 APERTURE LIST*
G04 Aperture macros list*
%AMRoundRect*
0 Rectangle with rounded corners*
0 $1 Rounding radius*
0 $2 $3 $4 $5 $6 $7 $8 $9 X,Y pos of 4 corners*
0 Add a 4 corners polygon primitive as box body*
4,1,4,$2,$3,$4,$5,$6,$7,$8,$9,$2,$3,0*
0 Add four circle primitives for the rounded corners*
1,1,$1+$1,$2,$3*
1,1,$1+$1,$4,$5*
1,1,$1+$1,$6,$7*
1,1,$1+$1,$8,$9*
0 Add four rect primitives between the rounded corners*
20,1,$1+$1,$2,$3,$4,$5,0*
20,1,$1+$1,$4,$5,$6,$7,0*
20,1,$1+$1,$6,$7,$8,$9,0*
20,1,$1+$1,$8,$9,$2,$3,0*%
G04 Aperture macros list end*
%TA.AperFunction,SMDPad,CuDef*%
%ADD10R,0.420000X1.300000*%
%TD*%
%TA.AperFunction,ComponentPad*%
%ADD11R,1.700000X1.700000*%
%TD*%
%TA.AperFunction,ComponentPad*%
%ADD12O,1.700000X1.700000*%
%TD*%
%TA.AperFunction,SMDPad,CuDef*%
%ADD13RoundRect,0.250000X-0.262500X-0.450000X0.262500X-0.450000X0.262500X0.450000X-0.262500X0.450000X0*%
%TD*%
%TA.AperFunction,ViaPad*%
%ADD14C,0.800000*%
%TD*%
%TA.AperFunction,Conductor*%
%ADD15C,0.254000*%
%TD*%
%TA.AperFunction,Conductor*%
%ADD16C,0.355600*%
%TD*%
%TA.AperFunction,Conductor*%
%ADD17C,1.524000*%
%TD*%
G04 APERTURE END LIST*
D10*
%TO.P,U23,1,DIN*%
%TO.N,Net-(U22-Pad5)*%
X201200000Y-69300000D03*
%TO.P,U23,2,VDD*%
%TO.N,VDD*%
X199500000Y-54300000D03*
X200350000Y-69300000D03*
%TO.P,U23,3*%
%TO.N,N/C*%
X198650000Y-54300000D03*
X199500000Y-69300000D03*
%TO.P,U23,4,VSS*%
%TO.N,GND*%
X201200000Y-54300000D03*
X198650000Y-69300000D03*
%TO.P,U23,5,DOUT*%
%TO.N,unconnected-(U23-Pad5)*%
X200350000Y-54300000D03*
%TD*%
%TO.P,U22,1,DIN*%
%TO.N,Net-(U21-Pad5)*%
X184200000Y-69300000D03*
%TO.P,U22,2,VDD*%
%TO.N,VDD*%
X182500000Y-54300000D03*
X183350000Y-69300000D03*
%TO.P,U22,3*%
%TO.N,N/C*%
X181650000Y-54300000D03*
X182500000Y-69300000D03*
%TO.P,U22,4,VSS*%
%TO.N,GND*%
X184200000Y-54300000D03*
X181650000Y-69300000D03*
%TO.P,U22,5,DOUT*%
%TO.N,Net-(U22-Pad5)*%
X183350000Y-54300000D03*
%TD*%
%TO.P,U21,1,DIN*%
%TO.N,Net-(U20-Pad5)*%
X168100000Y-69300000D03*
%TO.P,U21,2,VDD*%
%TO.N,VDD*%
X166400000Y-54300000D03*
X167250000Y-69300000D03*
%TO.P,U21,3*%
%TO.N,N/C*%
X165550000Y-54300000D03*
X166400000Y-69300000D03*
%TO.P,U21,4,VSS*%
%TO.N,GND*%
X168100000Y-54300000D03*
X165550000Y-69300000D03*
%TO.P,U21,5,DOUT*%
%TO.N,Net-(U21-Pad5)*%
X167250000Y-54300000D03*
%TD*%
%TO.P,U20,1,DIN*%
%TO.N,Net-(U19-Pad5)*%
X152900000Y-69300000D03*
%TO.P,U20,2,VDD*%
%TO.N,VDD*%
X151200000Y-54300000D03*
X152050000Y-69300000D03*
%TO.P,U20,3*%
%TO.N,N/C*%
X150350000Y-54300000D03*
X151200000Y-69300000D03*
%TO.P,U20,4,VSS*%
%TO.N,GND*%
X152900000Y-54300000D03*
X150350000Y-69300000D03*
%TO.P,U20,5,DOUT*%
%TO.N,Net-(U20-Pad5)*%
X152050000Y-54300000D03*
%TD*%
%TO.P,U19,1,DIN*%
%TO.N,Net-(R1-Pad2)*%
X139000000Y-69300000D03*
%TO.P,U19,2,VDD*%
%TO.N,VDD*%
X137300000Y-54300000D03*
X138150000Y-69300000D03*
%TO.P,U19,3*%
%TO.N,N/C*%
X136450000Y-54300000D03*
X137300000Y-69300000D03*
%TO.P,U19,4,VSS*%
%TO.N,GND*%
X139000000Y-54300000D03*
X136450000Y-69300000D03*
%TO.P,U19,5,DOUT*%
%TO.N,Net-(U19-Pad5)*%
X138150000Y-54300000D03*
%TD*%
%TO.P,U18,1,DIN*%
%TO.N,Net-(U17-Pad5)*%
X193400000Y-91000000D03*
%TO.P,U18,2,VDD*%
%TO.N,VDD*%
X191700000Y-77800000D03*
X192550000Y-91000000D03*
%TO.P,U18,3*%
%TO.N,N/C*%
X190850000Y-77800000D03*
X191700000Y-91000000D03*
%TO.P,U18,4,VSS*%
%TO.N,GND*%
X193400000Y-77800000D03*
X190850000Y-91000000D03*
%TO.P,U18,5,DOUT*%
%TO.N,unconnected-(U18-Pad5)*%
X192550000Y-77800000D03*
%TD*%
%TO.P,U17,1,DIN*%
%TO.N,Net-(U16-Pad5)*%
X178400000Y-91000000D03*
%TO.P,U17,2,VDD*%
%TO.N,VDD*%
X176700000Y-77800000D03*
X177550000Y-91000000D03*
%TO.P,U17,3*%
%TO.N,N/C*%
X175850000Y-77800000D03*
X176700000Y-91000000D03*
%TO.P,U17,4,VSS*%
%TO.N,GND*%
X178400000Y-77800000D03*
X175850000Y-91000000D03*
%TO.P,U17,5,DOUT*%
%TO.N,Net-(U17-Pad5)*%
X177550000Y-77800000D03*
%TD*%
%TO.P,U16,1,DIN*%
%TO.N,Net-(U15-Pad5)*%
X164200000Y-91000000D03*
%TO.P,U16,2,VDD*%
%TO.N,VDD*%
X162500000Y-77800000D03*
X163350000Y-91000000D03*
%TO.P,U16,3*%
%TO.N,N/C*%
X161650000Y-77800000D03*
X162500000Y-91000000D03*
%TO.P,U16,4,VSS*%
%TO.N,GND*%
X164200000Y-77800000D03*
X161650000Y-91000000D03*
%TO.P,U16,5,DOUT*%
%TO.N,Net-(U16-Pad5)*%
X163350000Y-77800000D03*
%TD*%
%TO.P,U15,1,DIN*%
%TO.N,Net-(U14-Pad5)*%
X151000000Y-91000000D03*
%TO.P,U15,2,VDD*%
%TO.N,VDD*%
X149300000Y-77800000D03*
X150150000Y-91000000D03*
%TO.P,U15,3*%
%TO.N,N/C*%
X148450000Y-77800000D03*
X149300000Y-91000000D03*
%TO.P,U15,4,VSS*%
%TO.N,GND*%
X151000000Y-77800000D03*
X148450000Y-91000000D03*
%TO.P,U15,5,DOUT*%
%TO.N,Net-(U15-Pad5)*%
X150150000Y-77800000D03*
%TD*%
%TO.P,U14,1,DIN*%
%TO.N,Net-(R1-Pad2)*%
X139050000Y-91000000D03*
%TO.P,U14,2,VDD*%
%TO.N,VDD*%
X137350000Y-77800000D03*
X138200000Y-91000000D03*
%TO.P,U14,3*%
%TO.N,N/C*%
X136500000Y-77800000D03*
X137350000Y-91000000D03*
%TO.P,U14,4,VSS*%
%TO.N,GND*%
X139050000Y-77800000D03*
X136500000Y-91000000D03*
%TO.P,U14,5,DOUT*%
%TO.N,Net-(U14-Pad5)*%
X138200000Y-77800000D03*
%TD*%
%TO.P,U13,1,DIN*%
%TO.N,Net-(U12-Pad5)*%
X199100000Y-111000000D03*
%TO.P,U13,2,VDD*%
%TO.N,VDD*%
X197400000Y-99200000D03*
X198250000Y-111000000D03*
%TO.P,U13,3*%
%TO.N,N/C*%
X196550000Y-99200000D03*
X197400000Y-111000000D03*
%TO.P,U13,4,VSS*%
%TO.N,GND*%
X199100000Y-99200000D03*
X196550000Y-111000000D03*
%TO.P,U13,5,DOUT*%
%TO.N,unconnected-(U13-Pad5)*%
X198250000Y-99200000D03*
%TD*%
%TO.P,U7,5,DOUT*%
%TO.N,unconnected-(U7-Pad5)*%
X200800000Y-119250000D03*
%TO.P,U7,4,VSS*%
%TO.N,GND*%
X199100000Y-128250000D03*
X201650000Y-119250000D03*
%TO.P,U7,3*%
%TO.N,N/C*%
X199950000Y-128250000D03*
X199100000Y-119250000D03*
%TO.P,U7,2,VDD*%
%TO.N,VDD*%
X199950000Y-119250000D03*
X200800000Y-128250000D03*
%TO.P,U7,1,DIN*%
%TO.N,Net-(U6-Pad5)*%
X201650000Y-128250000D03*
%TD*%
%TO.P,U5,5,DOUT*%
%TO.N,Net-(U5-Pad5)*%
X176100000Y-119250000D03*
%TO.P,U5,4,VSS*%
%TO.N,GND*%
X174400000Y-128250000D03*
X176950000Y-119250000D03*
%TO.P,U5,3*%
%TO.N,N/C*%
X175250000Y-128250000D03*
X174400000Y-119250000D03*
%TO.P,U5,2,VDD*%
%TO.N,VDD*%
X175250000Y-119250000D03*
X176100000Y-128250000D03*
%TO.P,U5,1,DIN*%
%TO.N,Net-(U4-Pad5)*%
X176950000Y-128250000D03*
%TD*%
%TO.P,U3,5,DOUT*%
%TO.N,Net-(U3-Pad5)*%
X155200000Y-119250000D03*
%TO.P,U3,4,VSS*%
%TO.N,GND*%
X156050000Y-119250000D03*
X153500000Y-128250000D03*
%TO.P,U3,3*%
%TO.N,N/C*%
X153500000Y-119250000D03*
X154350000Y-128250000D03*
%TO.P,U3,2,VDD*%
%TO.N,VDD*%
X154350000Y-119250000D03*
X155200000Y-128250000D03*
%TO.P,U3,1,DIN*%
%TO.N,Net-(U2-Pad5)*%
X156050000Y-128250000D03*
%TD*%
%TO.P,U1,1,DIN*%
%TO.N,Net-(R1-Pad2)*%
X139050000Y-128198000D03*
%TO.P,U1,2,VDD*%
%TO.N,VDD*%
X137350000Y-119198000D03*
X138200000Y-128198000D03*
%TO.P,U1,3*%
%TO.N,N/C*%
X136500000Y-119198000D03*
X137350000Y-128198000D03*
%TO.P,U1,4,VSS*%
%TO.N,GND*%
X136500000Y-128198000D03*
X139050000Y-119198000D03*
%TO.P,U1,5,DOUT*%
%TO.N,Net-(U1-Pad5)*%
X138200000Y-119198000D03*
%TD*%
%TO.P,U2,1,DIN*%
%TO.N,Net-(U1-Pad5)*%
X146900000Y-128200000D03*
%TO.P,U2,2,VDD*%
%TO.N,VDD*%
X145200000Y-119200000D03*
X146050000Y-128200000D03*
%TO.P,U2,3*%
%TO.N,N/C*%
X144350000Y-119200000D03*
X145200000Y-128200000D03*
%TO.P,U2,4,VSS*%
%TO.N,GND*%
X146900000Y-119200000D03*
X144350000Y-128200000D03*
%TO.P,U2,5,DOUT*%
%TO.N,Net-(U2-Pad5)*%
X146050000Y-119200000D03*
%TD*%
%TO.P,U4,5,DOUT*%
%TO.N,Net-(U4-Pad5)*%
X165250000Y-119250000D03*
%TO.P,U4,4,VSS*%
%TO.N,GND*%
X163550000Y-128250000D03*
X166100000Y-119250000D03*
%TO.P,U4,3*%
%TO.N,N/C*%
X163550000Y-119250000D03*
X164400000Y-128250000D03*
%TO.P,U4,2,VDD*%
%TO.N,VDD*%
X164400000Y-119250000D03*
X165250000Y-128250000D03*
%TO.P,U4,1,DIN*%
%TO.N,Net-(U3-Pad5)*%
X166100000Y-128250000D03*
%TD*%
%TO.P,U10,1,DIN*%
%TO.N,Net-(U10-Pad1)*%
X160100000Y-111000000D03*
%TO.P,U10,2,VDD*%
%TO.N,VDD*%
X158400000Y-99200000D03*
X159250000Y-111000000D03*
%TO.P,U10,3*%
%TO.N,N/C*%
X158400000Y-111000000D03*
X157550000Y-99200000D03*
%TO.P,U10,4,VSS*%
%TO.N,GND*%
X157550000Y-111000000D03*
X160100000Y-99200000D03*
%TO.P,U10,5,DOUT*%
%TO.N,Net-(U10-Pad5)*%
X159250000Y-99200000D03*
%TD*%
%TO.P,U9,5,DOUT*%
%TO.N,Net-(U10-Pad1)*%
X148050000Y-99200000D03*
%TO.P,U9,4,VSS*%
%TO.N,GND*%
X148900000Y-99200000D03*
X146350000Y-111000000D03*
%TO.P,U9,3*%
%TO.N,N/C*%
X147200000Y-111000000D03*
X146350000Y-99200000D03*
%TO.P,U9,2,VDD*%
%TO.N,VDD*%
X148050000Y-111000000D03*
X147200000Y-99200000D03*
%TO.P,U9,1,DIN*%
%TO.N,Net-(U8-Pad5)*%
X148900000Y-111000000D03*
%TD*%
%TO.P,U12,1,DIN*%
%TO.N,Net-(U11-Pad5)*%
X185200000Y-111000000D03*
%TO.P,U12,2,VDD*%
%TO.N,VDD*%
X184350000Y-111000000D03*
X183500000Y-99200000D03*
%TO.P,U12,3*%
%TO.N,N/C*%
X183500000Y-111000000D03*
X182650000Y-99200000D03*
%TO.P,U12,4,VSS*%
%TO.N,GND*%
X185200000Y-99200000D03*
X182650000Y-111000000D03*
%TO.P,U12,5,DOUT*%
%TO.N,Net-(U12-Pad5)*%
X184350000Y-99200000D03*
%TD*%
D11*
%TO.P,J1,1,Pin_1*%
%TO.N,VDD*%
X119094000Y-119380000D03*
D12*
%TO.P,J1,2,Pin_2*%
%TO.N,Net-(J1-Pad2)*%
X119094000Y-121920000D03*
%TO.P,J1,3,Pin_3*%
%TO.N,GND*%
X119094000Y-124460000D03*
%TD*%
D13*
%TO.P,R1,1*%
%TO.N,Net-(J1-Pad2)*%
X124023500Y-121920000D03*
%TO.P,R1,2*%
%TO.N,Net-(R1-Pad2)*%
X125848500Y-121920000D03*
%TD*%
D10*
%TO.P,U6,5,DOUT*%
%TO.N,Net-(U6-Pad5)*%
X187950000Y-119250000D03*
%TO.P,U6,4,VSS*%
%TO.N,GND*%
X186250000Y-128250000D03*
X188800000Y-119250000D03*
%TO.P,U6,3*%
%TO.N,N/C*%
X186250000Y-119250000D03*
X187100000Y-128250000D03*
%TO.P,U6,2,VDD*%
%TO.N,VDD*%
X187100000Y-119250000D03*
X187950000Y-128250000D03*
%TO.P,U6,1,DIN*%
%TO.N,Net-(U5-Pad5)*%
X188800000Y-128250000D03*
%TD*%
%TO.P,U8,1,DIN*%
%TO.N,Net-(R1-Pad2)*%
X139000000Y-111000000D03*
%TO.P,U8,2,VDD*%
%TO.N,VDD*%
X137300000Y-99200000D03*
X138150000Y-111000000D03*
%TO.P,U8,3*%
%TO.N,N/C*%
X137300000Y-111000000D03*
X136450000Y-99200000D03*
%TO.P,U8,4,VSS*%
%TO.N,GND*%
X139000000Y-99200000D03*
X136450000Y-111000000D03*
%TO.P,U8,5,DOUT*%
%TO.N,Net-(U8-Pad5)*%
X138150000Y-99200000D03*
%TD*%
%TO.P,U11,1,DIN*%
%TO.N,Net-(U10-Pad5)*%
X172300000Y-111000000D03*
%TO.P,U11,2,VDD*%
%TO.N,VDD*%
X171450000Y-111000000D03*
X170600000Y-99200000D03*
%TO.P,U11,3*%
%TO.N,N/C*%
X170600000Y-111000000D03*
X169750000Y-99200000D03*
%TO.P,U11,4,VSS*%
%TO.N,GND*%
X172300000Y-99200000D03*
X169750000Y-111000000D03*
%TO.P,U11,5,DOUT*%
%TO.N,Net-(U11-Pad5)*%
X171450000Y-99200000D03*
%TD*%
D14*
%TO.N,GND*%
X150350000Y-71152000D03*
X165550000Y-71152000D03*
X181650000Y-71152000D03*
X198650000Y-71152000D03*
X201200000Y-52448000D03*
X184200000Y-52448000D03*
X168100000Y-52448000D03*
X152900000Y-52448000D03*
X139000000Y-52448000D03*
X136450000Y-71152000D03*
X136450000Y-112862000D03*
X139050000Y-75949000D03*
X151000000Y-75924000D03*
X164200000Y-75999000D03*
X178400000Y-76049000D03*
X193400000Y-75999000D03*
X190850000Y-92826000D03*
X175850000Y-92851000D03*
X161650000Y-92851000D03*
X148450000Y-92851000D03*
X136500000Y-92851000D03*
X139000000Y-97349000D03*
X148900000Y-97349000D03*
X160100000Y-97349000D03*
X172300000Y-97374000D03*
X185200000Y-97424000D03*
X199100000Y-97449000D03*
X196550000Y-112851000D03*
X182650000Y-112851000D03*
X169750000Y-112851000D03*
X157550000Y-112876000D03*
X146350000Y-112851000D03*
X188800000Y-117400000D03*
X186250000Y-130100000D03*
X153500000Y-130150000D03*
X156050000Y-117400000D03*
X146900000Y-117350000D03*
X144350000Y-130050000D03*
X136500000Y-130050000D03*
X199100000Y-130150000D03*
X201650000Y-117400000D03*
X163550000Y-130100000D03*
X166100000Y-117350000D03*
X176950000Y-117400000D03*
X174400000Y-130100000D03*
X139050000Y-117400000D03*
%TD*%
D15*
%TO.N,*%
X197700000Y-54300000D02*
X198650000Y-54300000D01*
X199300000Y-68100000D02*
X195700000Y-68100000D01*
X195700000Y-68100000D02*
X193200000Y-65600000D01*
X199500000Y-68300000D02*
X199300000Y-68100000D01*
X193200000Y-58800000D02*
X197700000Y-54300000D01*
X199500000Y-69300000D02*
X199500000Y-68300000D01*
X193200000Y-65600000D02*
X193200000Y-58800000D01*
X180500000Y-54300000D02*
X181650000Y-54300000D01*
X176200000Y-58600000D02*
X180500000Y-54300000D01*
X179100000Y-68100000D02*
X176200000Y-65200000D01*
X182200000Y-68100000D02*
X179100000Y-68100000D01*
X176200000Y-65200000D02*
X176200000Y-58600000D01*
X182500000Y-69300000D02*
X182500000Y-68400000D01*
X182500000Y-68400000D02*
X182200000Y-68100000D01*
X164700000Y-54300000D02*
X165550000Y-54300000D01*
X162600000Y-68100000D02*
X160200000Y-65700000D01*
X166200000Y-68100000D02*
X162600000Y-68100000D01*
X160200000Y-65700000D02*
X160200000Y-58800000D01*
X160200000Y-58800000D02*
X164700000Y-54300000D01*
X166400000Y-69300000D02*
X166400000Y-68300000D01*
X166400000Y-68300000D02*
X166200000Y-68100000D01*
X149200000Y-54300000D02*
X150350000Y-54300000D01*
X145200000Y-66000000D02*
X145200000Y-58300000D01*
X145200000Y-58300000D02*
X149200000Y-54300000D01*
X150900000Y-68100000D02*
X147300000Y-68100000D01*
X151200000Y-68400000D02*
X150900000Y-68100000D01*
X151200000Y-69300000D02*
X151200000Y-68400000D01*
X147300000Y-68100000D02*
X145200000Y-66000000D01*
X134600000Y-54300000D02*
X136450000Y-54300000D01*
X130400000Y-65800000D02*
X130400000Y-58500000D01*
X130400000Y-58500000D02*
X134600000Y-54300000D01*
X132700000Y-68100000D02*
X130400000Y-65800000D01*
X137300000Y-69300000D02*
X137300000Y-68400000D01*
X137300000Y-68400000D02*
X137000000Y-68100000D01*
X137000000Y-68100000D02*
X132700000Y-68100000D01*
%TO.N,Net-(U22-Pad5)*%
X201200000Y-71400000D02*
X201200000Y-69300000D01*
X189600000Y-68000000D02*
X193700000Y-72100000D01*
X186800000Y-55500000D02*
X189600000Y-58300000D01*
X189600000Y-58300000D02*
X189600000Y-68000000D01*
X200500000Y-72100000D02*
X201200000Y-71400000D01*
X183700000Y-55500000D02*
X186800000Y-55500000D01*
X183350000Y-55150000D02*
X183700000Y-55500000D01*
X193700000Y-72100000D02*
X200500000Y-72100000D01*
X183350000Y-54300000D02*
X183350000Y-55150000D01*
%TO.N,Net-(U21-Pad5)*%
X167250000Y-55350000D02*
X167250000Y-54300000D01*
X167400000Y-55500000D02*
X167250000Y-55350000D01*
X173400000Y-67500000D02*
X173400000Y-58900000D01*
X173400000Y-58900000D02*
X170000000Y-55500000D01*
X170000000Y-55500000D02*
X167400000Y-55500000D01*
X183300000Y-72000000D02*
X177900000Y-72000000D01*
X177900000Y-72000000D02*
X173400000Y-67500000D01*
X184200000Y-69300000D02*
X184200000Y-71100000D01*
X184200000Y-71100000D02*
X183300000Y-72000000D01*
%TO.N,Net-(U20-Pad5)*%
X168100000Y-71100000D02*
X168100000Y-69300000D01*
X167200000Y-72000000D02*
X168100000Y-71100000D01*
X161100000Y-72000000D02*
X167200000Y-72000000D01*
X158200000Y-69100000D02*
X161100000Y-72000000D01*
X158200000Y-58500000D02*
X158200000Y-69100000D01*
X155200000Y-55500000D02*
X158200000Y-58500000D01*
X152300000Y-55500000D02*
X155200000Y-55500000D01*
X152050000Y-55250000D02*
X152300000Y-55500000D01*
X152050000Y-54300000D02*
X152050000Y-55250000D01*
%TO.N,Net-(U19-Pad5)*%
X152900000Y-70800000D02*
X152900000Y-69300000D01*
X151600000Y-72100000D02*
X152900000Y-70800000D01*
X147800000Y-72100000D02*
X151600000Y-72100000D01*
X144100000Y-68400000D02*
X147800000Y-72100000D01*
X144100000Y-58800000D02*
X144100000Y-68400000D01*
X140800000Y-55500000D02*
X144100000Y-58800000D01*
X138400000Y-55500000D02*
X140800000Y-55500000D01*
X138150000Y-55250000D02*
X138400000Y-55500000D01*
X138150000Y-54300000D02*
X138150000Y-55250000D01*
D16*
%TO.N,Net-(R1-Pad2)*%
X128905000Y-80395000D02*
X128905000Y-102095000D01*
X139000000Y-70300000D02*
X128905000Y-80395000D01*
X139000000Y-69300000D02*
X139000000Y-70300000D01*
%TO.N,VDD*%
X201900000Y-68000000D02*
X203000000Y-69100000D01*
D17*
X191400000Y-73400000D02*
X203000000Y-73400000D01*
D16*
X203000000Y-69100000D02*
X203000000Y-73400000D01*
X200800000Y-68000000D02*
X201900000Y-68000000D01*
X200350000Y-68450000D02*
X200800000Y-68000000D01*
X200350000Y-69300000D02*
X200350000Y-68450000D01*
D17*
X203000000Y-73400000D02*
X207900000Y-73400000D01*
D16*
X187100000Y-69500000D02*
X187100000Y-73400000D01*
D17*
X187100000Y-73400000D02*
X191400000Y-73400000D01*
X176900000Y-73400000D02*
X187100000Y-73400000D01*
D16*
X183700000Y-68000000D02*
X185600000Y-68000000D01*
X183350000Y-68350000D02*
X183700000Y-68000000D01*
X185600000Y-68000000D02*
X187100000Y-69500000D01*
X183350000Y-69300000D02*
X183350000Y-68350000D01*
D17*
X171600000Y-73400000D02*
X176900000Y-73400000D01*
D16*
X170700000Y-68000000D02*
X171600000Y-68900000D01*
D17*
X162900000Y-73400000D02*
X171600000Y-73400000D01*
D16*
X167700000Y-68000000D02*
X170700000Y-68000000D01*
X171600000Y-68900000D02*
X171600000Y-73400000D01*
X167250000Y-68450000D02*
X167700000Y-68000000D01*
X167250000Y-69300000D02*
X167250000Y-68450000D01*
X154600000Y-68000000D02*
X155900000Y-69300000D01*
X155900000Y-69300000D02*
X155900000Y-73400000D01*
D17*
X155900000Y-73400000D02*
X162900000Y-73400000D01*
X149500000Y-73400000D02*
X155900000Y-73400000D01*
D16*
X152500000Y-68000000D02*
X154600000Y-68000000D01*
X152050000Y-68450000D02*
X152500000Y-68000000D01*
X152050000Y-69300000D02*
X152050000Y-68450000D01*
X143100000Y-69600000D02*
X143100000Y-73400000D01*
X141500000Y-68000000D02*
X143100000Y-69600000D01*
X138600000Y-68000000D02*
X141500000Y-68000000D01*
X138150000Y-68450000D02*
X138600000Y-68000000D01*
X138150000Y-69300000D02*
X138150000Y-68450000D01*
D17*
X138200000Y-73400000D02*
X143100000Y-73400000D01*
X143100000Y-73400000D02*
X149500000Y-73400000D01*
X207900000Y-73400000D02*
X208200000Y-73100000D01*
X208200000Y-73100000D02*
X208200000Y-52400000D01*
X208200000Y-78400000D02*
X208200000Y-73100000D01*
D16*
X199500000Y-50200000D02*
X199300000Y-50000000D01*
D17*
X199300000Y-50000000D02*
X182400000Y-50000000D01*
X205800000Y-50000000D02*
X199300000Y-50000000D01*
D16*
X199500000Y-54300000D02*
X199500000Y-50200000D01*
X182500000Y-54300000D02*
X182500000Y-50100000D01*
D17*
X182400000Y-50000000D02*
X165900000Y-50000000D01*
D16*
X182500000Y-50100000D02*
X182400000Y-50000000D01*
X166400000Y-50500000D02*
X165900000Y-50000000D01*
X166400000Y-54300000D02*
X166400000Y-50500000D01*
D17*
X165900000Y-50000000D02*
X151100000Y-50000000D01*
D16*
X151200000Y-54300000D02*
X151200000Y-50100000D01*
X151200000Y-50100000D02*
X151100000Y-50000000D01*
D17*
X151100000Y-50000000D02*
X138300000Y-50000000D01*
D16*
X137300000Y-51000000D02*
X138300000Y-50000000D01*
X137300000Y-54300000D02*
X137300000Y-51000000D01*
D17*
X208200000Y-52400000D02*
X205800000Y-50000000D01*
D16*
%TO.N,GND*%
X150350000Y-69300000D02*
X150350000Y-71152000D01*
X165550000Y-69300000D02*
X165550000Y-71152000D01*
X181650000Y-69300000D02*
X181650000Y-71152000D01*
X198650000Y-69300000D02*
X198650000Y-71152000D01*
X201200000Y-54300000D02*
X201200000Y-52448000D01*
X184200000Y-54300000D02*
X184200000Y-52448000D01*
X168100000Y-54300000D02*
X168100000Y-52448000D01*
X152900000Y-54300000D02*
X152900000Y-52448000D01*
X139000000Y-54300000D02*
X139000000Y-52448000D01*
X136450000Y-69300000D02*
X136450000Y-71152000D01*
D15*
%TO.N,*%
X189630000Y-77800000D02*
X190850000Y-77800000D01*
X186130000Y-81300000D02*
X189630000Y-77800000D01*
X186130000Y-87790000D02*
X186130000Y-81300000D01*
X188140000Y-89800000D02*
X186130000Y-87790000D01*
X191430000Y-89800000D02*
X188140000Y-89800000D01*
X191700000Y-90070000D02*
X191430000Y-89800000D01*
X191700000Y-91000000D02*
X191700000Y-90070000D01*
X173280000Y-77800000D02*
X175850000Y-77800000D01*
X176300000Y-89760000D02*
X172900000Y-89760000D01*
X171350000Y-88210000D02*
X171350000Y-79730000D01*
X176700000Y-90160000D02*
X176300000Y-89760000D01*
X172900000Y-89760000D02*
X171350000Y-88210000D01*
X171350000Y-79730000D02*
X173280000Y-77800000D01*
X176700000Y-91000000D02*
X176700000Y-90160000D01*
X159600000Y-89810000D02*
X157330000Y-87540000D01*
X157330000Y-87540000D02*
X157330000Y-80990000D01*
X162240000Y-89810000D02*
X159600000Y-89810000D01*
X162500000Y-90070000D02*
X162240000Y-89810000D01*
X160520000Y-77800000D02*
X161650000Y-77800000D01*
X162500000Y-91000000D02*
X162500000Y-90070000D01*
X157330000Y-80990000D02*
X160520000Y-77800000D01*
X147530000Y-77800000D02*
X148450000Y-77800000D01*
X144140000Y-81190000D02*
X147530000Y-77800000D01*
X148900000Y-89780000D02*
X145990000Y-89780000D01*
X149300000Y-90180000D02*
X148900000Y-89780000D01*
X149300000Y-91000000D02*
X149300000Y-90180000D01*
X145990000Y-89780000D02*
X144140000Y-87930000D01*
X144140000Y-87930000D02*
X144140000Y-81190000D01*
%TO.N,Net-(U17-Pad5)*%
X193400000Y-93010000D02*
X193400000Y-91000000D01*
X185960000Y-93640000D02*
X192770000Y-93640000D01*
X182770000Y-90450000D02*
X185960000Y-93640000D01*
X182770000Y-81590000D02*
X182770000Y-90450000D01*
X177830000Y-79030000D02*
X180210000Y-79030000D01*
X180210000Y-79030000D02*
X182770000Y-81590000D01*
X177550000Y-78750000D02*
X177830000Y-79030000D01*
X192770000Y-93640000D02*
X193400000Y-93010000D01*
X177550000Y-77800000D02*
X177550000Y-78750000D01*
%TO.N,Net-(U16-Pad5)*%
X178400000Y-92790000D02*
X178400000Y-91000000D01*
X177450000Y-93740000D02*
X178400000Y-92790000D01*
X172050000Y-93740000D02*
X177450000Y-93740000D01*
X168630000Y-90320000D02*
X172050000Y-93740000D01*
X168630000Y-81640000D02*
X168630000Y-90320000D01*
X166040000Y-79050000D02*
X168630000Y-81640000D01*
X163610000Y-79050000D02*
X166040000Y-79050000D01*
X163350000Y-78790000D02*
X163610000Y-79050000D01*
X163350000Y-77800000D02*
X163350000Y-78790000D01*
%TO.N,Net-(U15-Pad5)*%
X164200000Y-92690000D02*
X164200000Y-91000000D01*
X163100000Y-93790000D02*
X164200000Y-92690000D01*
X155240000Y-88650000D02*
X160380000Y-93790000D01*
X155240000Y-81480000D02*
X155240000Y-88650000D01*
X160380000Y-93790000D02*
X163100000Y-93790000D01*
X150150000Y-78740000D02*
X150440000Y-79030000D01*
X150440000Y-79030000D02*
X152790000Y-79030000D01*
X152790000Y-79030000D02*
X155240000Y-81480000D01*
X150150000Y-77800000D02*
X150150000Y-78740000D01*
%TO.N,Net-(U14-Pad5)*%
X151000000Y-92860000D02*
X151000000Y-91000000D01*
X150100000Y-93760000D02*
X151000000Y-92860000D01*
X147320000Y-93760000D02*
X150100000Y-93760000D01*
X143140000Y-81610000D02*
X143140000Y-89580000D01*
X143140000Y-89580000D02*
X147320000Y-93760000D01*
X138430000Y-79040000D02*
X140570000Y-79040000D01*
X140570000Y-79040000D02*
X143140000Y-81610000D01*
X138200000Y-78810000D02*
X138430000Y-79040000D01*
X138200000Y-77800000D02*
X138200000Y-78810000D01*
%TO.N,*%
X137300000Y-111000000D02*
X137300000Y-110000000D01*
D16*
%TO.N,GND*%
X136450000Y-111010000D02*
X136450000Y-112862000D01*
%TO.N,VDD*%
X191700000Y-73700000D02*
X191400000Y-73400000D01*
X191700000Y-77800000D02*
X191700000Y-73700000D01*
X176700000Y-77800000D02*
X176700000Y-73600000D01*
X176700000Y-73600000D02*
X176900000Y-73400000D01*
X162500000Y-73800000D02*
X162900000Y-73400000D01*
X162500000Y-77800000D02*
X162500000Y-73800000D01*
X149300000Y-73600000D02*
X149500000Y-73400000D01*
X149300000Y-77800000D02*
X149300000Y-73600000D01*
X137350000Y-74250000D02*
X138200000Y-73400000D01*
X137350000Y-77800000D02*
X137350000Y-74250000D01*
D17*
X183350000Y-95100000D02*
X208100000Y-95100000D01*
X208200000Y-95000000D02*
X208200000Y-97700000D01*
X208100000Y-95100000D02*
X208200000Y-95000000D01*
X208200000Y-78400000D02*
X208200000Y-95000000D01*
D16*
X196375000Y-90975000D02*
X196375000Y-95100000D01*
X195150000Y-89750000D02*
X196375000Y-90975000D01*
X192550000Y-90075000D02*
X192875000Y-89750000D01*
X192550000Y-91000000D02*
X192550000Y-90075000D01*
X192875000Y-89750000D02*
X195150000Y-89750000D01*
X181375000Y-90975000D02*
X181375000Y-95100000D01*
X180150000Y-89750000D02*
X181375000Y-90975000D01*
X177550000Y-90075000D02*
X177875000Y-89750000D01*
X177550000Y-91000000D02*
X177550000Y-90075000D01*
X177875000Y-89750000D02*
X180150000Y-89750000D01*
X167175000Y-90975000D02*
X167175000Y-95100000D01*
X165950000Y-89750000D02*
X167175000Y-90975000D01*
X163350000Y-90075000D02*
X163675000Y-89750000D01*
X163350000Y-91000000D02*
X163350000Y-90075000D01*
X163675000Y-89750000D02*
X165950000Y-89750000D01*
X153975000Y-90975000D02*
X153975000Y-95100000D01*
X152750000Y-89750000D02*
X153975000Y-90975000D01*
X150150000Y-90075000D02*
X150475000Y-89750000D01*
X150150000Y-91000000D02*
X150150000Y-90075000D01*
X150475000Y-89750000D02*
X152750000Y-89750000D01*
D17*
X147075000Y-95100000D02*
X142025000Y-95100000D01*
D16*
X142025000Y-90975000D02*
X142025000Y-95100000D01*
X138525000Y-89750000D02*
X140800000Y-89750000D01*
X138200000Y-90075000D02*
X138525000Y-89750000D01*
X140800000Y-89750000D02*
X142025000Y-90975000D01*
X138200000Y-91000000D02*
X138200000Y-90075000D01*
D17*
X142025000Y-95100000D02*
X138150000Y-95100000D01*
D16*
%TO.N,Net-(R1-Pad2)*%
X128905000Y-102095000D02*
X128905000Y-121920000D01*
X139050000Y-91950000D02*
X128905000Y-102095000D01*
X139050000Y-91000000D02*
X139050000Y-91950000D01*
%TO.N,GND*%
X139050000Y-77801000D02*
X139050000Y-75949000D01*
X151000000Y-77776000D02*
X151000000Y-75924000D01*
X164200000Y-77851000D02*
X164200000Y-75999000D01*
X178400000Y-77901000D02*
X178400000Y-76049000D01*
X193400000Y-77851000D02*
X193400000Y-75999000D01*
X190850000Y-90974000D02*
X190850000Y-92826000D01*
X175850000Y-90999000D02*
X175850000Y-92851000D01*
X161650000Y-90999000D02*
X161650000Y-92851000D01*
X148450000Y-90999000D02*
X148450000Y-92851000D01*
X136500000Y-90999000D02*
X136500000Y-92851000D01*
%TO.N,VDD*%
X197400000Y-95325000D02*
X197175000Y-95100000D01*
X197400000Y-99200000D02*
X197400000Y-95325000D01*
X183500000Y-99200000D02*
X183500000Y-95250000D01*
X183500000Y-95250000D02*
X183350000Y-95100000D01*
D17*
X183350000Y-95100000D02*
X170700000Y-95100000D01*
D16*
X170600000Y-99200000D02*
X170600000Y-95200000D01*
X170600000Y-95200000D02*
X170700000Y-95100000D01*
D17*
X170700000Y-95100000D02*
X158950000Y-95100000D01*
D16*
X158400000Y-95650000D02*
X158950000Y-95100000D01*
X158400000Y-99200000D02*
X158400000Y-95650000D01*
D17*
X158950000Y-95100000D02*
X147075000Y-95100000D01*
D16*
X147200000Y-95225000D02*
X147075000Y-95100000D01*
X147200000Y-99200000D02*
X147200000Y-95225000D01*
X137300000Y-95950000D02*
X138150000Y-95100000D01*
X137300000Y-99200000D02*
X137300000Y-95950000D01*
D15*
%TO.N,Net-(U12-Pad5)*%
X199100000Y-113100000D02*
X199100000Y-111000000D01*
X198400000Y-113800000D02*
X199100000Y-113100000D01*
X192675000Y-113800000D02*
X198400000Y-113800000D01*
X189975000Y-111100000D02*
X192675000Y-113800000D01*
X189975000Y-103225000D02*
X189975000Y-111100000D01*
X187150000Y-100400000D02*
X189975000Y-103225000D01*
X184650000Y-100400000D02*
X187150000Y-100400000D01*
X184350000Y-100100000D02*
X184650000Y-100400000D01*
X184350000Y-99200000D02*
X184350000Y-100100000D01*
%TO.N,Net-(U11-Pad5)*%
X185200000Y-113300000D02*
X185200000Y-111000000D01*
X184700000Y-113800000D02*
X185200000Y-113300000D01*
X180675000Y-113800000D02*
X184700000Y-113800000D01*
X176275000Y-109400000D02*
X180675000Y-113800000D01*
X176275000Y-102425000D02*
X176275000Y-109400000D01*
X174250000Y-100400000D02*
X176275000Y-102425000D01*
X171725000Y-100400000D02*
X174250000Y-100400000D01*
X171450000Y-100125000D02*
X171725000Y-100400000D01*
X171450000Y-99200000D02*
X171450000Y-100125000D01*
%TO.N,Net-(U10-Pad5)*%
X172300000Y-112875000D02*
X172300000Y-111000000D01*
X171325000Y-113850000D02*
X172300000Y-112875000D01*
X168075000Y-113850000D02*
X171325000Y-113850000D01*
X163700000Y-109475000D02*
X168075000Y-113850000D01*
X163700000Y-101825000D02*
X163700000Y-109475000D01*
X159700000Y-100425000D02*
X162300000Y-100425000D01*
X159250000Y-99975000D02*
X159700000Y-100425000D01*
X159250000Y-99200000D02*
X159250000Y-99975000D01*
X162300000Y-100425000D02*
X163700000Y-101825000D01*
%TO.N,Net-(U10-Pad1)*%
X160100000Y-113100000D02*
X160100000Y-111000000D01*
X159350000Y-113850000D02*
X160100000Y-113100000D01*
X155475000Y-113850000D02*
X159350000Y-113850000D01*
X154450000Y-112825000D02*
X155475000Y-113850000D01*
X154450000Y-111675000D02*
X154450000Y-112825000D01*
X152225000Y-109450000D02*
X154450000Y-111675000D01*
X152225000Y-102125000D02*
X152225000Y-109450000D01*
X150525000Y-100425000D02*
X152225000Y-102125000D01*
X148350000Y-100425000D02*
X150525000Y-100425000D01*
X148050000Y-100125000D02*
X148350000Y-100425000D01*
X148050000Y-99200000D02*
X148050000Y-100125000D01*
%TO.N,*%
X146975000Y-109775000D02*
X147200000Y-110000000D01*
X144625000Y-109775000D02*
X146975000Y-109775000D01*
X143087500Y-101862500D02*
X143087500Y-108237500D01*
X143087500Y-108237500D02*
X144625000Y-109775000D01*
X147200000Y-110000000D02*
X147200000Y-111000000D01*
X145750000Y-99200000D02*
X143087500Y-101862500D01*
X146350000Y-99200000D02*
X145750000Y-99200000D01*
%TO.N,Net-(U8-Pad5)*%
X148900000Y-113075000D02*
X148900000Y-111000000D01*
X148100000Y-113875000D02*
X148900000Y-113075000D01*
X145100000Y-113875000D02*
X148100000Y-113875000D01*
X144075000Y-111725000D02*
X144075000Y-112850000D01*
X142150000Y-109800000D02*
X144075000Y-111725000D01*
X142150000Y-102825000D02*
X142150000Y-109800000D01*
X144075000Y-112850000D02*
X145100000Y-113875000D01*
X139725000Y-100400000D02*
X142150000Y-102825000D01*
X138450000Y-100400000D02*
X139725000Y-100400000D01*
X138150000Y-100100000D02*
X138450000Y-100400000D01*
X138150000Y-99200000D02*
X138150000Y-100100000D01*
D16*
%TO.N,Net-(R1-Pad2)*%
X129000000Y-125050000D02*
X129000000Y-121825000D01*
X139050000Y-128198000D02*
X139050000Y-130000000D01*
X129162500Y-121662500D02*
X137825000Y-113000000D01*
X138100000Y-130950000D02*
X134900000Y-130950000D01*
X129000000Y-121825000D02*
X129162500Y-121662500D01*
X128905000Y-121920000D02*
X129162500Y-121662500D01*
X139050000Y-130000000D02*
X138100000Y-130950000D01*
X134900000Y-130950000D02*
X129000000Y-125050000D01*
X139000000Y-112775000D02*
X139000000Y-111000000D01*
X138775000Y-113000000D02*
X139000000Y-112775000D01*
X137825000Y-113000000D02*
X138775000Y-113000000D01*
X127470000Y-121920000D02*
X128905000Y-121920000D01*
D15*
%TO.N,*%
X192925000Y-107875000D02*
X192925000Y-102175000D01*
X197150000Y-109750000D02*
X194800000Y-109750000D01*
X197375000Y-110975000D02*
X197375000Y-109975000D01*
X192925000Y-102175000D02*
X195925000Y-99175000D01*
X194800000Y-109750000D02*
X192925000Y-107875000D01*
X197375000Y-109975000D02*
X197150000Y-109750000D01*
X195925000Y-99175000D02*
X196525000Y-99175000D01*
X179050000Y-107850000D02*
X179050000Y-102150000D01*
X183275000Y-109725000D02*
X180925000Y-109725000D01*
X183500000Y-110950000D02*
X183500000Y-109950000D01*
X179050000Y-102150000D02*
X182050000Y-99150000D01*
X180925000Y-109725000D02*
X179050000Y-107850000D01*
X183500000Y-109950000D02*
X183275000Y-109725000D01*
X182050000Y-99150000D02*
X182650000Y-99150000D01*
X166150000Y-107900000D02*
X166150000Y-102200000D01*
X170375000Y-109775000D02*
X168025000Y-109775000D01*
X170600000Y-111000000D02*
X170600000Y-110000000D01*
X166150000Y-102200000D02*
X169150000Y-99200000D01*
X168025000Y-109775000D02*
X166150000Y-107900000D01*
X170600000Y-110000000D02*
X170375000Y-109775000D01*
X169150000Y-99200000D02*
X169750000Y-99200000D01*
X153950000Y-107900000D02*
X153950000Y-102200000D01*
X158175000Y-109775000D02*
X155825000Y-109775000D01*
X158400000Y-111000000D02*
X158400000Y-110000000D01*
X153950000Y-102200000D02*
X156950000Y-99200000D01*
X155825000Y-109775000D02*
X153950000Y-107900000D01*
X158400000Y-110000000D02*
X158175000Y-109775000D01*
X156950000Y-99200000D02*
X157550000Y-99200000D01*
X135850000Y-99200000D02*
X136450000Y-99200000D01*
X132850000Y-102200000D02*
X135850000Y-99200000D01*
X132850000Y-107900000D02*
X132850000Y-102200000D01*
X137075000Y-109775000D02*
X134725000Y-109775000D01*
X137300000Y-110000000D02*
X137075000Y-109775000D01*
X134725000Y-109775000D02*
X132850000Y-107900000D01*
D16*
%TO.N,VDD*%
X198600000Y-109752000D02*
X198250000Y-110102000D01*
X201950000Y-114952000D02*
X201950000Y-111302000D01*
X201950000Y-111302000D02*
X200400000Y-109752000D01*
X198250000Y-110102000D02*
X198250000Y-111000000D01*
X200400000Y-109752000D02*
X198600000Y-109752000D01*
X184700000Y-109752000D02*
X184350000Y-110102000D01*
X188050000Y-114952000D02*
X188050000Y-111302000D01*
X188050000Y-111302000D02*
X186500000Y-109752000D01*
X184350000Y-110102000D02*
X184350000Y-111000000D01*
X186500000Y-109752000D02*
X184700000Y-109752000D01*
X171800000Y-109752000D02*
X171450000Y-110102000D01*
X175150000Y-114952000D02*
X175150000Y-111302000D01*
X175150000Y-111302000D02*
X173600000Y-109752000D01*
X171450000Y-110102000D02*
X171450000Y-111000000D01*
X173600000Y-109752000D02*
X171800000Y-109752000D01*
X159600000Y-109752000D02*
X159250000Y-110102000D01*
X162950000Y-114952000D02*
X162950000Y-111302000D01*
X162950000Y-111302000D02*
X161400000Y-109752000D01*
X159250000Y-110102000D02*
X159250000Y-111000000D01*
X161400000Y-109752000D02*
X159600000Y-109752000D01*
X148400000Y-109752000D02*
X148050000Y-110102000D01*
X151750000Y-114952000D02*
X151750000Y-111302000D01*
X151750000Y-111302000D02*
X150200000Y-109752000D01*
X148050000Y-110102000D02*
X148050000Y-111000000D01*
X150200000Y-109752000D02*
X148400000Y-109752000D01*
X138500000Y-109727000D02*
X138150000Y-110077000D01*
X141850000Y-114927000D02*
X141850000Y-111277000D01*
X141850000Y-111277000D02*
X140300000Y-109727000D01*
X138150000Y-110077000D02*
X138150000Y-110975000D01*
X140300000Y-109727000D02*
X138500000Y-109727000D01*
D15*
%TO.N,Net-(U3-Pad5)*%
X166100000Y-130250000D02*
X166100000Y-128250000D01*
X165300000Y-131050000D02*
X166100000Y-130250000D01*
X162550000Y-131050000D02*
X165300000Y-131050000D01*
X161012500Y-129512500D02*
X162550000Y-131050000D01*
X161012500Y-128437500D02*
X161012500Y-129512500D01*
X159000000Y-126425000D02*
X161012500Y-128437500D01*
X159000000Y-122450000D02*
X159000000Y-126425000D01*
X156950000Y-120400000D02*
X159000000Y-122450000D01*
X155350000Y-120400000D02*
X156950000Y-120400000D01*
X155200000Y-120250000D02*
X155350000Y-120400000D01*
X155200000Y-119250000D02*
X155200000Y-120250000D01*
D16*
%TO.N,GND*%
X139000000Y-99201000D02*
X139000000Y-97349000D01*
X148900000Y-99201000D02*
X148900000Y-97349000D01*
X160100000Y-99201000D02*
X160100000Y-97349000D01*
X172300000Y-99226000D02*
X172300000Y-97374000D01*
X185200000Y-99276000D02*
X185200000Y-97424000D01*
X199100000Y-99301000D02*
X199100000Y-97449000D01*
X196550000Y-110999000D02*
X196550000Y-112851000D01*
X182650000Y-110999000D02*
X182650000Y-112851000D01*
X169750000Y-110999000D02*
X169750000Y-112851000D01*
X157550000Y-111024000D02*
X157550000Y-112876000D01*
X146350000Y-110999000D02*
X146350000Y-112851000D01*
D17*
%TO.N,VDD*%
X200100000Y-115200000D02*
X208200000Y-115200000D01*
X208200000Y-115200000D02*
X208200000Y-97700000D01*
X208200000Y-130300000D02*
X208200000Y-115200000D01*
X198600000Y-115200000D02*
X184300000Y-115200000D01*
X200100000Y-115200000D02*
X198600000Y-115200000D01*
D16*
X198250000Y-114850000D02*
X198600000Y-115200000D01*
X184350000Y-115150000D02*
X184300000Y-115200000D01*
D17*
X184300000Y-115200000D02*
X171900000Y-115200000D01*
D16*
X171450000Y-114750000D02*
X171900000Y-115200000D01*
D17*
X171900000Y-115200000D02*
X159200000Y-115200000D01*
D16*
X159250000Y-115150000D02*
X159200000Y-115200000D01*
D17*
X159200000Y-115200000D02*
X148700000Y-115200000D01*
D16*
X148050000Y-114550000D02*
X148700000Y-115200000D01*
D17*
X148700000Y-115200000D02*
X137800000Y-115200000D01*
D16*
X138150000Y-114850000D02*
X137800000Y-115200000D01*
D17*
X206150000Y-132350000D02*
X208200000Y-130300000D01*
X202400000Y-132350000D02*
X206150000Y-132350000D01*
D16*
X199950000Y-115350000D02*
X200100000Y-115200000D01*
X199950000Y-119250000D02*
X199950000Y-115350000D01*
D17*
X202400000Y-132350000D02*
X149100000Y-132350000D01*
D15*
%TO.N,Net-(U6-Pad5)*%
X190000000Y-120400000D02*
X189700000Y-120400000D01*
X192600000Y-123000000D02*
X190000000Y-120400000D01*
X192600000Y-126100000D02*
X192600000Y-123000000D01*
X197550000Y-131050000D02*
X192600000Y-126100000D01*
X201650000Y-128250000D02*
X201650000Y-130250000D01*
X201650000Y-130250000D02*
X200850000Y-131050000D01*
X200850000Y-131050000D02*
X197550000Y-131050000D01*
%TO.N,Net-(U5-Pad5)*%
X188800000Y-130250000D02*
X188800000Y-128250000D01*
X181600000Y-128400000D02*
X184250000Y-131050000D01*
X181600000Y-124150000D02*
X181600000Y-128400000D01*
X177850000Y-120400000D02*
X181600000Y-124150000D01*
X188000000Y-131050000D02*
X188800000Y-130250000D01*
X176250000Y-120400000D02*
X177850000Y-120400000D01*
X176100000Y-120250000D02*
X176250000Y-120400000D01*
X176100000Y-119250000D02*
X176100000Y-120250000D01*
X184250000Y-131050000D02*
X188000000Y-131050000D01*
%TO.N,Net-(U4-Pad5)*%
X176950000Y-130250000D02*
X176950000Y-128250000D01*
X173550000Y-131050000D02*
X176150000Y-131050000D01*
X169500000Y-127000000D02*
X173550000Y-131050000D01*
X176150000Y-131050000D02*
X176950000Y-130250000D01*
X169500000Y-122900000D02*
X169500000Y-127000000D01*
X165400000Y-120400000D02*
X167000000Y-120400000D01*
X165250000Y-120250000D02*
X165400000Y-120400000D01*
X165250000Y-119250000D02*
X165250000Y-120250000D01*
X167000000Y-120400000D02*
X169500000Y-122900000D01*
%TO.N,Net-(U2-Pad5)*%
X149100000Y-125300000D02*
X149100000Y-124200000D01*
X152100000Y-128300000D02*
X149100000Y-125300000D01*
X152100000Y-130500000D02*
X152100000Y-128300000D01*
X155250000Y-131050000D02*
X152650000Y-131050000D01*
X156050000Y-130250000D02*
X155250000Y-131050000D01*
X156050000Y-128250000D02*
X156050000Y-130250000D01*
X152650000Y-131050000D02*
X152100000Y-130500000D01*
X149100000Y-124200000D02*
X149100000Y-121650000D01*
%TO.N,*%
X154350000Y-127352000D02*
X154350000Y-128250000D01*
X185552000Y-127002000D02*
X186750000Y-127002000D01*
X136500000Y-119200000D02*
X135902000Y-119200000D01*
X183900000Y-121002000D02*
X183900000Y-125350000D01*
X199100000Y-119250000D02*
X198502000Y-119250000D01*
X164400000Y-127352000D02*
X164400000Y-128250000D01*
X134150000Y-120952000D02*
X134150000Y-125300000D01*
X186250000Y-119250000D02*
X185652000Y-119250000D01*
X135902000Y-119200000D02*
X134150000Y-120952000D01*
X142000000Y-125300000D02*
X143652000Y-126952000D01*
X172050000Y-125350000D02*
X173702000Y-127002000D01*
X199950000Y-127352000D02*
X199950000Y-128250000D01*
X173702000Y-127002000D02*
X174900000Y-127002000D01*
X196750000Y-121002000D02*
X196750000Y-125350000D01*
X143652000Y-126952000D02*
X144850000Y-126952000D01*
X186750000Y-127002000D02*
X187100000Y-127352000D01*
X144350000Y-119200000D02*
X143752000Y-119200000D01*
X173802000Y-119250000D02*
X172050000Y-121002000D01*
X154000000Y-127002000D02*
X154350000Y-127352000D01*
X187100000Y-127352000D02*
X187100000Y-128250000D01*
X161200000Y-121002000D02*
X161200000Y-125350000D01*
X144850000Y-126952000D02*
X145200000Y-127302000D01*
X198402000Y-127002000D02*
X199600000Y-127002000D01*
X164050000Y-127002000D02*
X164400000Y-127352000D01*
X153500000Y-119250000D02*
X152902000Y-119250000D01*
X137000000Y-126952000D02*
X137350000Y-127302000D01*
X185652000Y-119250000D02*
X183900000Y-121002000D01*
X174400000Y-119250000D02*
X173802000Y-119250000D01*
X137350000Y-127302000D02*
X137350000Y-128200000D01*
X162852000Y-127002000D02*
X164050000Y-127002000D01*
X145200000Y-127302000D02*
X145200000Y-128200000D01*
X134150000Y-125300000D02*
X135802000Y-126952000D01*
X142000000Y-120952000D02*
X142000000Y-125300000D01*
X143752000Y-119200000D02*
X142000000Y-120952000D01*
X162952000Y-119250000D02*
X161200000Y-121002000D01*
X161200000Y-125350000D02*
X162852000Y-127002000D01*
X175250000Y-127352000D02*
X175250000Y-128250000D01*
X151150000Y-125350000D02*
X152802000Y-127002000D01*
X196750000Y-125350000D02*
X198402000Y-127002000D01*
X183900000Y-125350000D02*
X185552000Y-127002000D01*
X152902000Y-119250000D02*
X151150000Y-121002000D01*
X199600000Y-127002000D02*
X199950000Y-127352000D01*
X198502000Y-119250000D02*
X196750000Y-121002000D01*
X152802000Y-127002000D02*
X154000000Y-127002000D01*
X174900000Y-127002000D02*
X175250000Y-127352000D01*
X163550000Y-119250000D02*
X162952000Y-119250000D01*
X135802000Y-126952000D02*
X137000000Y-126952000D01*
X151150000Y-121002000D02*
X151150000Y-125350000D01*
X172050000Y-121002000D02*
X172050000Y-125350000D01*
D16*
%TO.N,Net-(R1-Pad2)*%
X125848500Y-121920000D02*
X127470000Y-121920000D01*
%TO.N,VDD*%
X146250000Y-126950000D02*
X148100000Y-126950000D01*
X137350000Y-115650000D02*
X137800000Y-115200000D01*
X190000000Y-127000000D02*
X191000000Y-128000000D01*
X167300000Y-127000000D02*
X168300000Y-128000000D01*
X165450000Y-127000000D02*
X167300000Y-127000000D01*
X203000000Y-131750000D02*
X202400000Y-132350000D01*
X141900000Y-128500000D02*
X140350000Y-126950000D01*
X165250000Y-128250000D02*
X165250000Y-127200000D01*
D17*
X115320000Y-119380000D02*
X114400000Y-120300000D01*
D16*
X176300000Y-127000000D02*
X178150000Y-127000000D01*
X179150000Y-128000000D02*
X179150000Y-132400000D01*
D17*
X119750000Y-132350000D02*
X141700000Y-132350000D01*
D16*
X154350000Y-119250000D02*
X154350000Y-115200000D01*
X148100000Y-126950000D02*
X149100000Y-127950000D01*
X165250000Y-127200000D02*
X165450000Y-127000000D01*
X140350000Y-126950000D02*
X138550000Y-126950000D01*
X178150000Y-127000000D02*
X179150000Y-128000000D01*
X187950000Y-128250000D02*
X187950000Y-127200000D01*
X138200000Y-127300000D02*
X138200000Y-128198000D01*
X203000000Y-127500000D02*
X203000000Y-131750000D01*
X202500000Y-127000000D02*
X203000000Y-127500000D01*
X201044400Y-127000000D02*
X202500000Y-127000000D01*
X164400000Y-115250000D02*
X164450000Y-115200000D01*
X145200000Y-119200000D02*
X145200000Y-115450000D01*
X187100000Y-119250000D02*
X187100000Y-115450000D01*
X155200000Y-128250000D02*
X155200000Y-127200000D01*
X202400000Y-132350000D02*
X200000000Y-132350000D01*
X155400000Y-127000000D02*
X157250000Y-127000000D01*
X149100000Y-127950000D02*
X149100000Y-132350000D01*
D17*
X114400000Y-127000000D02*
X119750000Y-132350000D01*
X141700000Y-132350000D02*
X149100000Y-132350000D01*
D16*
X175250000Y-119250000D02*
X175250000Y-115400000D01*
X158250000Y-128000000D02*
X158250000Y-132400000D01*
X164400000Y-119250000D02*
X164400000Y-115250000D01*
X168300000Y-128000000D02*
X168300000Y-132400000D01*
X176100000Y-127200000D02*
X176300000Y-127000000D01*
X141900000Y-132150000D02*
X141900000Y-128500000D01*
X138550000Y-126950000D02*
X138200000Y-127300000D01*
X200800000Y-127244400D02*
X201044400Y-127000000D01*
X176100000Y-128250000D02*
X176100000Y-127200000D01*
X155200000Y-127200000D02*
X155400000Y-127000000D01*
X145200000Y-115450000D02*
X144950000Y-115200000D01*
X137350000Y-119198000D02*
X137350000Y-115650000D01*
D17*
X119094000Y-119380000D02*
X115320000Y-119380000D01*
D16*
X188150000Y-127000000D02*
X190000000Y-127000000D01*
X187100000Y-115450000D02*
X187350000Y-115200000D01*
D17*
X114400000Y-120300000D02*
X114400000Y-127000000D01*
D16*
X141700000Y-132350000D02*
X141900000Y-132150000D01*
X200800000Y-128250000D02*
X200800000Y-127244400D01*
X191000000Y-128000000D02*
X191000000Y-132400000D01*
X187950000Y-127200000D02*
X188150000Y-127000000D01*
X157250000Y-127000000D02*
X158250000Y-128000000D01*
X146050000Y-127150000D02*
X146250000Y-126950000D01*
X146050000Y-128200000D02*
X146050000Y-127150000D01*
X175250000Y-115400000D02*
X175050000Y-115200000D01*
%TO.N,GND*%
X163550000Y-128248000D02*
X163550000Y-130100000D01*
X144350000Y-128198000D02*
X144350000Y-130050000D01*
X186250000Y-128248000D02*
X186250000Y-130100000D01*
X153500000Y-128298000D02*
X153500000Y-130150000D01*
X139050000Y-119252000D02*
X139050000Y-117400000D01*
X136500000Y-128198000D02*
X136500000Y-130050000D01*
X156050000Y-119252000D02*
X156050000Y-117400000D01*
X146900000Y-119202000D02*
X146900000Y-117350000D01*
X199100000Y-128298000D02*
X199100000Y-130150000D01*
X166100000Y-119202000D02*
X166100000Y-117350000D01*
X174400000Y-128248000D02*
X174400000Y-130100000D01*
X201650000Y-119252000D02*
X201650000Y-117400000D01*
X176950000Y-119252000D02*
X176950000Y-117400000D01*
X188800000Y-119252000D02*
X188800000Y-117400000D01*
D15*
%TO.N,Net-(U1-Pad5)*%
X143500000Y-131000000D02*
X142950000Y-130450000D01*
X138200000Y-120200000D02*
X138200000Y-119198000D01*
X146900000Y-130200000D02*
X146100000Y-131000000D01*
X146100000Y-131000000D02*
X143500000Y-131000000D01*
X138350000Y-120350000D02*
X138200000Y-120200000D01*
X146900000Y-128200000D02*
X146900000Y-130200000D01*
X141200000Y-121600000D02*
X139950000Y-120350000D01*
X139950000Y-120350000D02*
X138350000Y-120350000D01*
X141200000Y-126500000D02*
X141200000Y-121600000D01*
X142950000Y-128250000D02*
X141200000Y-126500000D01*
X142950000Y-130450000D02*
X142950000Y-128250000D01*
%TO.N,Net-(U2-Pad5)*%
X149100000Y-121650000D02*
X147850000Y-120400000D01*
X147850000Y-120400000D02*
X146250000Y-120400000D01*
X146050000Y-120200000D02*
X146050000Y-119200000D01*
X146250000Y-120400000D02*
X146050000Y-120200000D01*
%TO.N,Net-(U6-Pad5)*%
X189700000Y-120400000D02*
X188100000Y-120400000D01*
X187950000Y-119250000D02*
X187950000Y-120250000D01*
X187950000Y-120250000D02*
X188100000Y-120400000D01*
D16*
%TO.N,Net-(J1-Pad2)*%
X119094000Y-121920000D02*
X124023500Y-121920000D01*
%TD*%
M02*
