%TF.GenerationSoftware,KiCad,Pcbnew,(6.0.0)*%
%TF.CreationDate,2022-01-22T08:46:37+01:00*%
%TF.ProjectId,CNLJS_test_LEDice_dual,434e4c4a-535f-4746-9573-745f4c454469,rev?*%
%TF.SameCoordinates,Original*%
%TF.FileFunction,Legend,Bot*%
%TF.FilePolarity,Positive*%
%FSLAX46Y46*%
G04 Gerber Fmt 4.6, Leading zero omitted, Abs format (unit mm)*
G04 Created by KiCad (PCBNEW (6.0.0)) date 2022-01-22 08:46:37*
%MOMM*%
%LPD*%
G01*
G04 APERTURE LIST*
%ADD10C,0.400000*%
G04 APERTURE END LIST*
D10*
X189110000Y-61800000D02*
X193540000Y-61800000D01*
X173010000Y-61800000D02*
X176640000Y-61800000D01*
X157810000Y-61800000D02*
X160515000Y-61801000D01*
X143910000Y-61800000D02*
X145340000Y-61802000D01*
X182340000Y-84400000D02*
X186770000Y-84400000D01*
X168140000Y-84400000D02*
X171770000Y-84400000D01*
X154940000Y-84400000D02*
X157645000Y-84401000D01*
X142990000Y-84400000D02*
X144420000Y-84402000D01*
X188100000Y-105100000D02*
X193530000Y-105100000D01*
X175200000Y-105100000D02*
X179630000Y-105100000D01*
X163000000Y-105100000D02*
X166630000Y-105100000D01*
X151800000Y-105100000D02*
X154505000Y-105101000D01*
X141900000Y-105100000D02*
X143330000Y-105102000D01*
X140960000Y-123698000D02*
X142390000Y-123700000D01*
X148810000Y-123700000D02*
X151515000Y-123701000D01*
X190710000Y-123750000D02*
X197140000Y-123750000D01*
X168010000Y-123750000D02*
X172440000Y-123750000D01*
X178860000Y-123750000D02*
X184290000Y-123750000D01*
X157960000Y-123750000D02*
X161590000Y-123750000D01*
%TO.C,U23*%
X206110000Y-61800000D02*
G75*
G03*
X206110000Y-61800000I-6210000J0D01*
G01*
%TO.C,U22*%
X189110000Y-61800000D02*
G75*
G03*
X189110000Y-61800000I-6210000J0D01*
G01*
%TO.C,U21*%
X173010000Y-61800000D02*
G75*
G03*
X173010000Y-61800000I-6210000J0D01*
G01*
%TO.C,U20*%
X157810000Y-61800000D02*
G75*
G03*
X157810000Y-61800000I-6210000J0D01*
G01*
%TO.C,U19*%
X143910000Y-61800000D02*
G75*
G03*
X143910000Y-61800000I-6210000J0D01*
G01*
%TO.C,U18*%
X197340000Y-84400000D02*
G75*
G03*
X197340000Y-84400000I-5240000J0D01*
G01*
%TO.C,U17*%
X182340000Y-84400000D02*
G75*
G03*
X182340000Y-84400000I-5240000J0D01*
G01*
%TO.C,U16*%
X168140000Y-84400000D02*
G75*
G03*
X168140000Y-84400000I-5240000J0D01*
G01*
%TO.C,U15*%
X154940000Y-84400000D02*
G75*
G03*
X154940000Y-84400000I-5240000J0D01*
G01*
%TO.C,U14*%
X142990000Y-84400000D02*
G75*
G03*
X142990000Y-84400000I-5240000J0D01*
G01*
%TO.C,U13*%
X202000000Y-105100000D02*
G75*
G03*
X202000000Y-105100000I-4200000J0D01*
G01*
%TO.C,U7*%
X203560000Y-123750000D02*
G75*
G03*
X203560000Y-123750000I-3210000J0D01*
G01*
%TO.C,U5*%
X178860000Y-123750000D02*
G75*
G03*
X178860000Y-123750000I-3210000J0D01*
G01*
%TO.C,U3*%
X157960000Y-123750000D02*
G75*
G03*
X157960000Y-123750000I-3210000J0D01*
G01*
%TO.C,U1*%
X140960000Y-123698000D02*
G75*
G03*
X140960000Y-123698000I-3210000J0D01*
G01*
%TO.C,U2*%
X148810000Y-123700000D02*
G75*
G03*
X148810000Y-123700000I-3210000J0D01*
G01*
%TO.C,U4*%
X168010000Y-123750000D02*
G75*
G03*
X168010000Y-123750000I-3210000J0D01*
G01*
%TO.C,U10*%
X163000000Y-105100000D02*
G75*
G03*
X163000000Y-105100000I-4200000J0D01*
G01*
%TO.C,U9*%
X151800000Y-105100000D02*
G75*
G03*
X151800000Y-105100000I-4200000J0D01*
G01*
%TO.C,U12*%
X188100000Y-105100000D02*
G75*
G03*
X188100000Y-105100000I-4200000J0D01*
G01*
%TO.C,U6*%
X190710000Y-123750000D02*
G75*
G03*
X190710000Y-123750000I-3210000J0D01*
G01*
%TO.C,U8*%
X141900000Y-105100000D02*
G75*
G03*
X141900000Y-105100000I-4200000J0D01*
G01*
%TO.C,U11*%
X175200000Y-105100000D02*
G75*
G03*
X175200000Y-105100000I-4200000J0D01*
G01*
%TD*%
M02*
