M48
; DRILL file {KiCad (6.0.0)} date Sat Jan 22 08:46:35 2022
; FORMAT={-:-/ absolute / inch / decimal}
; #@! TF.CreationDate,2022-01-22T08:46:35+01:00
; #@! TF.GenerationSoftware,Kicad,Pcbnew,(6.0.0)
; #@! TF.FileFunction,Plated,1,2,PTH
FMAT,2
INCH
; #@! TA.AperFunction,Plated,PTH,ViaDrill
T1C0.0157
; #@! TA.AperFunction,Plated,PTH,ComponentDrill
T2C0.0394
%
G90
G05
T1
X5.372Y-2.8013
X5.372Y-4.4434
X5.374Y-3.6556
X5.374Y-5.1201
X5.4724Y-2.0649
X5.4724Y-3.8326
X5.4744Y-2.9901
X5.4744Y-4.622
X5.6831Y-5.1201
X5.7618Y-4.443
X5.7835Y-4.6201
X5.8445Y-3.6556
X5.8622Y-3.8326
X5.9193Y-2.8013
X5.9449Y-2.9891
X6.0197Y-2.0649
X6.0433Y-5.124
X6.1437Y-4.622
X6.2028Y-4.4439
X6.3031Y-3.8326
X6.3642Y-3.6556
X6.439Y-5.122
X6.4646Y-2.9921
X6.5177Y-2.8013
X6.5394Y-4.6201
X6.6181Y-2.0649
X6.6831Y-4.443
X6.7835Y-3.8336
X6.8661Y-5.122
X6.9232Y-3.6556
X6.9665Y-4.622
X7.0236Y-2.9941
X7.1516Y-2.8013
X7.1909Y-4.443
X7.252Y-2.0649
X7.2913Y-3.8356
X7.3327Y-5.122
X7.4331Y-4.622
X7.5138Y-3.6546
X7.6142Y-2.9921
X7.7382Y-4.443
X7.8209Y-2.8013
X7.8386Y-3.8366
X7.8386Y-5.124
X7.9213Y-2.0649
X7.939Y-4.622
T2
X4.6887Y-4.7
X4.6887Y-4.8
X4.6887Y-4.9
T0
M30
