%TF.GenerationSoftware,KiCad,Pcbnew,(6.0.0)*%
%TF.CreationDate,2022-01-22T08:46:37+01:00*%
%TF.ProjectId,CNLJS_test_LEDice_dual,434e4c4a-535f-4746-9573-745f4c454469,rev?*%
%TF.SameCoordinates,Original*%
%TF.FileFunction,Legend,Top*%
%TF.FilePolarity,Positive*%
%FSLAX46Y46*%
G04 Gerber Fmt 4.6, Leading zero omitted, Abs format (unit mm)*
G04 Created by KiCad (PCBNEW (6.0.0)) date 2022-01-22 08:46:37*
%MOMM*%
%LPD*%
G01*
G04 APERTURE LIST*
%ADD10C,0.200000*%
%ADD11C,0.150000*%
%ADD12C,0.120000*%
G04 APERTURE END LIST*
D10*
X118442857Y-113242857D02*
X119300000Y-113242857D01*
X119471428Y-113300000D01*
X119585714Y-113414285D01*
X119642857Y-113585714D01*
X119642857Y-113700000D01*
X119642857Y-112100000D02*
X119642857Y-112671428D01*
X118442857Y-112671428D01*
X119528571Y-111014285D02*
X119585714Y-111071428D01*
X119642857Y-111242857D01*
X119642857Y-111357142D01*
X119585714Y-111528571D01*
X119471428Y-111642857D01*
X119357142Y-111700000D01*
X119128571Y-111757142D01*
X118957142Y-111757142D01*
X118728571Y-111700000D01*
X118614285Y-111642857D01*
X118500000Y-111528571D01*
X118442857Y-111357142D01*
X118442857Y-111242857D01*
X118500000Y-111071428D01*
X118557142Y-111014285D01*
X118442857Y-110157142D02*
X119300000Y-110157142D01*
X119471428Y-110214285D01*
X119585714Y-110328571D01*
X119642857Y-110500000D01*
X119642857Y-110614285D01*
X119642857Y-109014285D02*
X119642857Y-109585714D01*
X118442857Y-109585714D01*
X119528571Y-107928571D02*
X119585714Y-107985714D01*
X119642857Y-108157142D01*
X119642857Y-108271428D01*
X119585714Y-108442857D01*
X119471428Y-108557142D01*
X119357142Y-108614285D01*
X119128571Y-108671428D01*
X118957142Y-108671428D01*
X118728571Y-108614285D01*
X118614285Y-108557142D01*
X118500000Y-108442857D01*
X118442857Y-108271428D01*
X118442857Y-108157142D01*
X118500000Y-107985714D01*
X118557142Y-107928571D01*
X118442857Y-107071428D02*
X119300000Y-107071428D01*
X119471428Y-107128571D01*
X119585714Y-107242857D01*
X119642857Y-107414285D01*
X119642857Y-107528571D01*
X119642857Y-105928571D02*
X119642857Y-106500000D01*
X118442857Y-106500000D01*
X119528571Y-104842857D02*
X119585714Y-104900000D01*
X119642857Y-105071428D01*
X119642857Y-105185714D01*
X119585714Y-105357142D01*
X119471428Y-105471428D01*
X119357142Y-105528571D01*
X119128571Y-105585714D01*
X118957142Y-105585714D01*
X118728571Y-105528571D01*
X118614285Y-105471428D01*
X118500000Y-105357142D01*
X118442857Y-105185714D01*
X118442857Y-105071428D01*
X118500000Y-104900000D01*
X118557142Y-104842857D01*
X118442857Y-103985714D02*
X119300000Y-103985714D01*
X119471428Y-104042857D01*
X119585714Y-104157142D01*
X119642857Y-104328571D01*
X119642857Y-104442857D01*
X119642857Y-102842857D02*
X119642857Y-103414285D01*
X118442857Y-103414285D01*
X119528571Y-101757142D02*
X119585714Y-101814285D01*
X119642857Y-101985714D01*
X119642857Y-102100000D01*
X119585714Y-102271428D01*
X119471428Y-102385714D01*
X119357142Y-102442857D01*
X119128571Y-102500000D01*
X118957142Y-102500000D01*
X118728571Y-102442857D01*
X118614285Y-102385714D01*
X118500000Y-102271428D01*
X118442857Y-102100000D01*
X118442857Y-101985714D01*
X118500000Y-101814285D01*
X118557142Y-101757142D01*
D11*
X114838095Y-124100000D02*
X114742857Y-124052380D01*
X114600000Y-124052380D01*
X114457142Y-124100000D01*
X114361904Y-124195238D01*
X114314285Y-124290476D01*
X114266666Y-124480952D01*
X114266666Y-124623809D01*
X114314285Y-124814285D01*
X114361904Y-124909523D01*
X114457142Y-125004761D01*
X114600000Y-125052380D01*
X114695238Y-125052380D01*
X114838095Y-125004761D01*
X114885714Y-124957142D01*
X114885714Y-124623809D01*
X114695238Y-124623809D01*
X115314285Y-125052380D02*
X115314285Y-124052380D01*
X115885714Y-125052380D01*
X115885714Y-124052380D01*
X116361904Y-125052380D02*
X116361904Y-124052380D01*
X116600000Y-124052380D01*
X116742857Y-124100000D01*
X116838095Y-124195238D01*
X116885714Y-124290476D01*
X116933333Y-124480952D01*
X116933333Y-124623809D01*
X116885714Y-124814285D01*
X116838095Y-124909523D01*
X116742857Y-125004761D01*
X116600000Y-125052380D01*
X116361904Y-125052380D01*
X115676190Y-122252380D02*
X115676190Y-121252380D01*
X116152380Y-122252380D02*
X116152380Y-121252380D01*
X116723809Y-122252380D01*
X116723809Y-121252380D01*
X114366666Y-118852380D02*
X114700000Y-119852380D01*
X115033333Y-118852380D01*
X115366666Y-119852380D02*
X115366666Y-118852380D01*
X115604761Y-118852380D01*
X115747619Y-118900000D01*
X115842857Y-118995238D01*
X115890476Y-119090476D01*
X115938095Y-119280952D01*
X115938095Y-119423809D01*
X115890476Y-119614285D01*
X115842857Y-119709523D01*
X115747619Y-119804761D01*
X115604761Y-119852380D01*
X115366666Y-119852380D01*
X116366666Y-119852380D02*
X116366666Y-118852380D01*
X116604761Y-118852380D01*
X116747619Y-118900000D01*
X116842857Y-118995238D01*
X116890476Y-119090476D01*
X116938095Y-119280952D01*
X116938095Y-119423809D01*
X116890476Y-119614285D01*
X116842857Y-119709523D01*
X116747619Y-119804761D01*
X116604761Y-119852380D01*
X116366666Y-119852380D01*
%TO.C,J1*%
X118760666Y-116502380D02*
X118760666Y-117216666D01*
X118713047Y-117359523D01*
X118617809Y-117454761D01*
X118474952Y-117502380D01*
X118379714Y-117502380D01*
X119760666Y-117502380D02*
X119189238Y-117502380D01*
X119474952Y-117502380D02*
X119474952Y-116502380D01*
X119379714Y-116645238D01*
X119284476Y-116740476D01*
X119189238Y-116788095D01*
%TO.C,R1*%
X124769333Y-120722380D02*
X124436000Y-120246190D01*
X124197904Y-120722380D02*
X124197904Y-119722380D01*
X124578857Y-119722380D01*
X124674095Y-119770000D01*
X124721714Y-119817619D01*
X124769333Y-119912857D01*
X124769333Y-120055714D01*
X124721714Y-120150952D01*
X124674095Y-120198571D01*
X124578857Y-120246190D01*
X124197904Y-120246190D01*
X125721714Y-120722380D02*
X125150285Y-120722380D01*
X125436000Y-120722380D02*
X125436000Y-119722380D01*
X125340761Y-119865238D01*
X125245523Y-119960476D01*
X125150285Y-120008095D01*
D12*
%TO.C,J1*%
X117764000Y-120650000D02*
X120424000Y-120650000D01*
X117764000Y-125790000D02*
X120424000Y-125790000D01*
X117764000Y-118050000D02*
X119094000Y-118050000D01*
X117764000Y-119380000D02*
X117764000Y-118050000D01*
X120424000Y-120650000D02*
X120424000Y-125790000D01*
X117764000Y-120650000D02*
X117764000Y-125790000D01*
%TO.C,R1*%
X124708936Y-122655000D02*
X125163064Y-122655000D01*
X124708936Y-121185000D02*
X125163064Y-121185000D01*
%TD*%
M02*
