%TF.GenerationSoftware,KiCad,Pcbnew,(6.0.0)*%
%TF.CreationDate,2022-01-22T08:46:37+01:00*%
%TF.ProjectId,CNLJS_test_LEDice_dual,434e4c4a-535f-4746-9573-745f4c454469,rev?*%
%TF.SameCoordinates,Original*%
%TF.FileFunction,Soldermask,Bot*%
%TF.FilePolarity,Negative*%
%FSLAX46Y46*%
G04 Gerber Fmt 4.6, Leading zero omitted, Abs format (unit mm)*
G04 Created by KiCad (PCBNEW (6.0.0)) date 2022-01-22 08:46:37*
%MOMM*%
%LPD*%
G01*
G04 APERTURE LIST*
%ADD10C,6.000000*%
%ADD11C,5.000000*%
%ADD12C,4.000000*%
%ADD13C,3.000000*%
%ADD14R,1.700000X1.700000*%
%ADD15O,1.700000X1.700000*%
G04 APERTURE END LIST*
D10*
%TO.C,U23*%
X202900000Y-61800000D02*
G75*
G03*
X202900000Y-61800000I-3000000J0D01*
G01*
%TO.C,U22*%
X185900000Y-61800000D02*
G75*
G03*
X185900000Y-61800000I-3000000J0D01*
G01*
%TO.C,U21*%
X169800000Y-61800000D02*
G75*
G03*
X169800000Y-61800000I-3000000J0D01*
G01*
%TO.C,U20*%
X154600000Y-61800000D02*
G75*
G03*
X154600000Y-61800000I-3000000J0D01*
G01*
%TO.C,U19*%
X140700000Y-61800000D02*
G75*
G03*
X140700000Y-61800000I-3000000J0D01*
G01*
D11*
%TO.C,U18*%
X194600000Y-84400000D02*
G75*
G03*
X194600000Y-84400000I-2500000J0D01*
G01*
%TO.C,U17*%
X179600000Y-84400000D02*
G75*
G03*
X179600000Y-84400000I-2500000J0D01*
G01*
%TO.C,U16*%
X165400000Y-84400000D02*
G75*
G03*
X165400000Y-84400000I-2500000J0D01*
G01*
%TO.C,U15*%
X152200000Y-84400000D02*
G75*
G03*
X152200000Y-84400000I-2500000J0D01*
G01*
%TO.C,U14*%
X140250000Y-84400000D02*
G75*
G03*
X140250000Y-84400000I-2500000J0D01*
G01*
D12*
%TO.C,U13*%
X199800000Y-105100000D02*
G75*
G03*
X199800000Y-105100000I-2000000J0D01*
G01*
%TO.C,U7*%
D13*
X201850000Y-123750000D02*
G75*
G03*
X201850000Y-123750000I-1500000J0D01*
G01*
%TO.C,U5*%
X177150000Y-123750000D02*
G75*
G03*
X177150000Y-123750000I-1500000J0D01*
G01*
%TO.C,U3*%
X156250000Y-123750000D02*
G75*
G03*
X156250000Y-123750000I-1500000J0D01*
G01*
%TO.C,U1*%
X139250000Y-123698000D02*
G75*
G03*
X139250000Y-123698000I-1500000J0D01*
G01*
%TO.C,U2*%
X147100000Y-123700000D02*
G75*
G03*
X147100000Y-123700000I-1500000J0D01*
G01*
%TO.C,U4*%
X166300000Y-123750000D02*
G75*
G03*
X166300000Y-123750000I-1500000J0D01*
G01*
D12*
%TO.C,U10*%
X160800000Y-105100000D02*
G75*
G03*
X160800000Y-105100000I-2000000J0D01*
G01*
%TO.C,U9*%
X149600000Y-105100000D02*
G75*
G03*
X149600000Y-105100000I-2000000J0D01*
G01*
%TO.C,U12*%
X185900000Y-105100000D02*
G75*
G03*
X185900000Y-105100000I-2000000J0D01*
G01*
%TO.C,U6*%
D13*
X189000000Y-123750000D02*
G75*
G03*
X189000000Y-123750000I-1500000J0D01*
G01*
D12*
%TO.C,U8*%
X139700000Y-105100000D02*
G75*
G03*
X139700000Y-105100000I-2000000J0D01*
G01*
%TO.C,U11*%
X173000000Y-105100000D02*
G75*
G03*
X173000000Y-105100000I-2000000J0D01*
G01*
%TD*%
D14*
%TO.C,J1*%
X119094000Y-119380000D03*
D15*
X119094000Y-121920000D03*
X119094000Y-124460000D03*
%TD*%
M02*
