%TF.GenerationSoftware,KiCad,Pcbnew,(6.0.0)*%
%TF.CreationDate,2022-01-22T08:46:37+01:00*%
%TF.ProjectId,CNLJS_test_LEDice_dual,434e4c4a-535f-4746-9573-745f4c454469,rev?*%
%TF.SameCoordinates,Original*%
%TF.FileFunction,Copper,L2,Bot*%
%TF.FilePolarity,Positive*%
%FSLAX46Y46*%
G04 Gerber Fmt 4.6, Leading zero omitted, Abs format (unit mm)*
G04 Created by KiCad (PCBNEW (6.0.0)) date 2022-01-22 08:46:37*
%MOMM*%
%LPD*%
G01*
G04 APERTURE LIST*
%TA.AperFunction,ComponentPad*%
%ADD10R,1.700000X1.700000*%
%TD*%
%TA.AperFunction,ComponentPad*%
%ADD11O,1.700000X1.700000*%
%TD*%
%TA.AperFunction,ViaPad*%
%ADD12C,0.800000*%
%TD*%
G04 APERTURE END LIST*
D10*
%TO.P,J1,1,Pin_1*%
%TO.N,VDD*%
X119094000Y-119380000D03*
D11*
%TO.P,J1,2,Pin_2*%
%TO.N,Net-(J1-Pad2)*%
X119094000Y-121920000D03*
%TO.P,J1,3,Pin_3*%
%TO.N,GND*%
X119094000Y-124460000D03*
%TD*%
D12*
%TO.N,GND*%
X150350000Y-71152000D03*
X165550000Y-71152000D03*
X181650000Y-71152000D03*
X198650000Y-71152000D03*
X201200000Y-52448000D03*
X184200000Y-52448000D03*
X168100000Y-52448000D03*
X152900000Y-52448000D03*
X139000000Y-52448000D03*
X136450000Y-71152000D03*
X136450000Y-112862000D03*
X139050000Y-75949000D03*
X151000000Y-75924000D03*
X164200000Y-75999000D03*
X178400000Y-76049000D03*
X193400000Y-75999000D03*
X190850000Y-92826000D03*
X175850000Y-92851000D03*
X161650000Y-92851000D03*
X148450000Y-92851000D03*
X136500000Y-92851000D03*
X139000000Y-97349000D03*
X148900000Y-97349000D03*
X160100000Y-97349000D03*
X172300000Y-97374000D03*
X185200000Y-97424000D03*
X199100000Y-97449000D03*
X196550000Y-112851000D03*
X182650000Y-112851000D03*
X169750000Y-112851000D03*
X157550000Y-112876000D03*
X146350000Y-112851000D03*
X188800000Y-117400000D03*
X186250000Y-130100000D03*
X153500000Y-130150000D03*
X156050000Y-117400000D03*
X146900000Y-117350000D03*
X144350000Y-130050000D03*
X136500000Y-130050000D03*
X199100000Y-130150000D03*
X201650000Y-117400000D03*
X163550000Y-130100000D03*
X166100000Y-117350000D03*
X176950000Y-117400000D03*
X174400000Y-130100000D03*
X139050000Y-117400000D03*
%TD*%
%TA.AperFunction,Conductor*%
%TO.N,GND*%
G36*
X211534121Y-35503002D02*
G01*
X211580614Y-35556658D01*
X211592000Y-35609000D01*
X211592000Y-134191000D01*
X211571998Y-134259121D01*
X211518342Y-134305614D01*
X211466000Y-134317000D01*
X112884000Y-134317000D01*
X112815879Y-134296998D01*
X112769386Y-134243342D01*
X112758000Y-134191000D01*
X112758000Y-123778000D01*
X134750000Y-123778000D01*
X134810000Y-124298000D01*
X134940000Y-124748000D01*
X135100000Y-125108000D01*
X135102967Y-125112450D01*
X135102970Y-125112456D01*
X135137637Y-125164456D01*
X135400000Y-125558000D01*
X135730000Y-125908000D01*
X135734007Y-125911075D01*
X135734008Y-125911076D01*
X136119988Y-126207293D01*
X136160000Y-126238000D01*
X136590000Y-126458000D01*
X136592708Y-126459083D01*
X136592712Y-126459085D01*
X136786189Y-126536476D01*
X136786194Y-126536478D01*
X136790000Y-126538000D01*
X137220000Y-126648000D01*
X137223544Y-126648489D01*
X137223550Y-126648490D01*
X137381031Y-126670211D01*
X137510000Y-126688000D01*
X137750000Y-126698000D01*
X137752880Y-126697856D01*
X137948541Y-126688073D01*
X137948543Y-126688073D01*
X137950000Y-126688000D01*
X137951448Y-126687860D01*
X137951460Y-126687859D01*
X138255343Y-126658451D01*
X138255347Y-126658450D01*
X138260000Y-126658000D01*
X138660000Y-126558000D01*
X138663721Y-126556548D01*
X138663730Y-126556545D01*
X139064727Y-126400058D01*
X139064729Y-126400057D01*
X139070000Y-126398000D01*
X139460000Y-126158000D01*
X139463294Y-126155298D01*
X139463300Y-126155293D01*
X139845503Y-125841690D01*
X139845504Y-125841689D01*
X139850000Y-125838000D01*
X140220000Y-125398000D01*
X140470000Y-124948000D01*
X140539474Y-124750000D01*
X140668247Y-124382997D01*
X140668248Y-124382993D01*
X140670000Y-124378000D01*
X140731839Y-124015800D01*
X140739293Y-123972143D01*
X140739294Y-123972138D01*
X140740000Y-123968000D01*
X140746714Y-123780000D01*
X142600000Y-123780000D01*
X142660000Y-124300000D01*
X142790000Y-124750000D01*
X142791755Y-124753950D01*
X142791757Y-124753954D01*
X142875760Y-124942961D01*
X142950000Y-125110000D01*
X142952967Y-125114450D01*
X142952970Y-125114456D01*
X143138473Y-125392710D01*
X143250000Y-125560000D01*
X143580000Y-125910000D01*
X143584007Y-125913075D01*
X143584008Y-125913076D01*
X143905758Y-126160000D01*
X144010000Y-126240000D01*
X144015099Y-126242609D01*
X144015101Y-126242610D01*
X144192911Y-126333582D01*
X144440000Y-126460000D01*
X144442708Y-126461083D01*
X144442712Y-126461085D01*
X144636189Y-126538476D01*
X144636194Y-126538478D01*
X144640000Y-126540000D01*
X145070000Y-126650000D01*
X145073544Y-126650489D01*
X145073550Y-126650490D01*
X145231031Y-126672211D01*
X145360000Y-126690000D01*
X145600000Y-126700000D01*
X145642880Y-126697856D01*
X145798541Y-126690073D01*
X145798543Y-126690073D01*
X145800000Y-126690000D01*
X145801448Y-126689860D01*
X145801460Y-126689859D01*
X146105343Y-126660451D01*
X146105347Y-126660450D01*
X146110000Y-126660000D01*
X146510000Y-126560000D01*
X146513721Y-126558548D01*
X146513730Y-126558545D01*
X146914727Y-126402058D01*
X146914729Y-126402057D01*
X146920000Y-126400000D01*
X147310000Y-126160000D01*
X147313294Y-126157298D01*
X147313300Y-126157293D01*
X147695503Y-125843690D01*
X147695504Y-125843689D01*
X147700000Y-125840000D01*
X148070000Y-125400000D01*
X148320000Y-124950000D01*
X148389490Y-124751954D01*
X148518247Y-124384997D01*
X148518248Y-124384993D01*
X148520000Y-124380000D01*
X148580756Y-124024143D01*
X148589293Y-123974143D01*
X148589294Y-123974138D01*
X148590000Y-123970000D01*
X148595000Y-123830000D01*
X151750000Y-123830000D01*
X151810000Y-124350000D01*
X151940000Y-124800000D01*
X152100000Y-125160000D01*
X152102967Y-125164450D01*
X152102970Y-125164456D01*
X152255140Y-125392710D01*
X152400000Y-125610000D01*
X152730000Y-125960000D01*
X152734007Y-125963075D01*
X152734008Y-125963076D01*
X153092242Y-126238000D01*
X153160000Y-126290000D01*
X153590000Y-126510000D01*
X153592708Y-126511083D01*
X153592712Y-126511085D01*
X153786189Y-126588476D01*
X153786194Y-126588478D01*
X153790000Y-126590000D01*
X154220000Y-126700000D01*
X154223544Y-126700489D01*
X154223550Y-126700490D01*
X154381031Y-126722211D01*
X154510000Y-126740000D01*
X154750000Y-126750000D01*
X154752880Y-126749856D01*
X154948541Y-126740073D01*
X154948543Y-126740073D01*
X154950000Y-126740000D01*
X154951448Y-126739860D01*
X154951460Y-126739859D01*
X155255343Y-126710451D01*
X155255347Y-126710450D01*
X155260000Y-126710000D01*
X155660000Y-126610000D01*
X155663721Y-126608548D01*
X155663730Y-126608545D01*
X156064727Y-126452058D01*
X156064729Y-126452057D01*
X156070000Y-126450000D01*
X156460000Y-126210000D01*
X156463294Y-126207298D01*
X156463300Y-126207293D01*
X156845503Y-125893690D01*
X156845504Y-125893689D01*
X156850000Y-125890000D01*
X157220000Y-125450000D01*
X157470000Y-125000000D01*
X157538788Y-124803954D01*
X157668247Y-124434997D01*
X157668248Y-124434993D01*
X157670000Y-124430000D01*
X157740000Y-124020000D01*
X157746786Y-123830000D01*
X161800000Y-123830000D01*
X161860000Y-124350000D01*
X161990000Y-124800000D01*
X162150000Y-125160000D01*
X162152967Y-125164450D01*
X162152970Y-125164456D01*
X162305140Y-125392710D01*
X162450000Y-125610000D01*
X162780000Y-125960000D01*
X162784007Y-125963075D01*
X162784008Y-125963076D01*
X163142242Y-126238000D01*
X163210000Y-126290000D01*
X163640000Y-126510000D01*
X163642708Y-126511083D01*
X163642712Y-126511085D01*
X163836189Y-126588476D01*
X163836194Y-126588478D01*
X163840000Y-126590000D01*
X164270000Y-126700000D01*
X164273544Y-126700489D01*
X164273550Y-126700490D01*
X164431031Y-126722211D01*
X164560000Y-126740000D01*
X164800000Y-126750000D01*
X164802880Y-126749856D01*
X164998541Y-126740073D01*
X164998543Y-126740073D01*
X165000000Y-126740000D01*
X165001448Y-126739860D01*
X165001460Y-126739859D01*
X165305343Y-126710451D01*
X165305347Y-126710450D01*
X165310000Y-126710000D01*
X165710000Y-126610000D01*
X165713721Y-126608548D01*
X165713730Y-126608545D01*
X166114727Y-126452058D01*
X166114729Y-126452057D01*
X166120000Y-126450000D01*
X166510000Y-126210000D01*
X166513294Y-126207298D01*
X166513300Y-126207293D01*
X166895503Y-125893690D01*
X166895504Y-125893689D01*
X166900000Y-125890000D01*
X167270000Y-125450000D01*
X167520000Y-125000000D01*
X167588788Y-124803954D01*
X167718247Y-124434997D01*
X167718248Y-124434993D01*
X167720000Y-124430000D01*
X167790000Y-124020000D01*
X167796786Y-123830000D01*
X172650000Y-123830000D01*
X172710000Y-124350000D01*
X172840000Y-124800000D01*
X173000000Y-125160000D01*
X173002967Y-125164450D01*
X173002970Y-125164456D01*
X173155140Y-125392710D01*
X173300000Y-125610000D01*
X173630000Y-125960000D01*
X173634007Y-125963075D01*
X173634008Y-125963076D01*
X173992242Y-126238000D01*
X174060000Y-126290000D01*
X174490000Y-126510000D01*
X174492708Y-126511083D01*
X174492712Y-126511085D01*
X174686189Y-126588476D01*
X174686194Y-126588478D01*
X174690000Y-126590000D01*
X175120000Y-126700000D01*
X175123544Y-126700489D01*
X175123550Y-126700490D01*
X175281031Y-126722211D01*
X175410000Y-126740000D01*
X175650000Y-126750000D01*
X175652880Y-126749856D01*
X175848541Y-126740073D01*
X175848543Y-126740073D01*
X175850000Y-126740000D01*
X175851448Y-126739860D01*
X175851460Y-126739859D01*
X176155343Y-126710451D01*
X176155347Y-126710450D01*
X176160000Y-126710000D01*
X176560000Y-126610000D01*
X176563721Y-126608548D01*
X176563730Y-126608545D01*
X176964727Y-126452058D01*
X176964729Y-126452057D01*
X176970000Y-126450000D01*
X177360000Y-126210000D01*
X177363294Y-126207298D01*
X177363300Y-126207293D01*
X177745503Y-125893690D01*
X177745504Y-125893689D01*
X177750000Y-125890000D01*
X178120000Y-125450000D01*
X178370000Y-125000000D01*
X178438788Y-124803954D01*
X178568247Y-124434997D01*
X178568248Y-124434993D01*
X178570000Y-124430000D01*
X178640000Y-124020000D01*
X178646786Y-123830000D01*
X184500000Y-123830000D01*
X184560000Y-124350000D01*
X184690000Y-124800000D01*
X184850000Y-125160000D01*
X184852967Y-125164450D01*
X184852970Y-125164456D01*
X185005140Y-125392710D01*
X185150000Y-125610000D01*
X185480000Y-125960000D01*
X185484007Y-125963075D01*
X185484008Y-125963076D01*
X185842242Y-126238000D01*
X185910000Y-126290000D01*
X186340000Y-126510000D01*
X186342708Y-126511083D01*
X186342712Y-126511085D01*
X186536189Y-126588476D01*
X186536194Y-126588478D01*
X186540000Y-126590000D01*
X186970000Y-126700000D01*
X186973544Y-126700489D01*
X186973550Y-126700490D01*
X187131031Y-126722211D01*
X187260000Y-126740000D01*
X187500000Y-126750000D01*
X187502880Y-126749856D01*
X187698541Y-126740073D01*
X187698543Y-126740073D01*
X187700000Y-126740000D01*
X187701448Y-126739860D01*
X187701460Y-126739859D01*
X188005343Y-126710451D01*
X188005347Y-126710450D01*
X188010000Y-126710000D01*
X188410000Y-126610000D01*
X188413721Y-126608548D01*
X188413730Y-126608545D01*
X188814727Y-126452058D01*
X188814729Y-126452057D01*
X188820000Y-126450000D01*
X189210000Y-126210000D01*
X189213294Y-126207298D01*
X189213300Y-126207293D01*
X189595503Y-125893690D01*
X189595504Y-125893689D01*
X189600000Y-125890000D01*
X189970000Y-125450000D01*
X190220000Y-125000000D01*
X190288788Y-124803954D01*
X190418247Y-124434997D01*
X190418248Y-124434993D01*
X190420000Y-124430000D01*
X190490000Y-124020000D01*
X190496786Y-123830000D01*
X197350000Y-123830000D01*
X197410000Y-124350000D01*
X197540000Y-124800000D01*
X197700000Y-125160000D01*
X197702967Y-125164450D01*
X197702970Y-125164456D01*
X197855140Y-125392710D01*
X198000000Y-125610000D01*
X198330000Y-125960000D01*
X198334007Y-125963075D01*
X198334008Y-125963076D01*
X198692242Y-126238000D01*
X198760000Y-126290000D01*
X199190000Y-126510000D01*
X199192708Y-126511083D01*
X199192712Y-126511085D01*
X199386189Y-126588476D01*
X199386194Y-126588478D01*
X199390000Y-126590000D01*
X199820000Y-126700000D01*
X199823544Y-126700489D01*
X199823550Y-126700490D01*
X199981031Y-126722211D01*
X200110000Y-126740000D01*
X200350000Y-126750000D01*
X200352880Y-126749856D01*
X200548541Y-126740073D01*
X200548543Y-126740073D01*
X200550000Y-126740000D01*
X200551448Y-126739860D01*
X200551460Y-126739859D01*
X200855343Y-126710451D01*
X200855347Y-126710450D01*
X200860000Y-126710000D01*
X201260000Y-126610000D01*
X201263721Y-126608548D01*
X201263730Y-126608545D01*
X201664727Y-126452058D01*
X201664729Y-126452057D01*
X201670000Y-126450000D01*
X202060000Y-126210000D01*
X202063294Y-126207298D01*
X202063300Y-126207293D01*
X202445503Y-125893690D01*
X202445504Y-125893689D01*
X202450000Y-125890000D01*
X202820000Y-125450000D01*
X203070000Y-125000000D01*
X203138788Y-124803954D01*
X203268247Y-124434997D01*
X203268248Y-124434993D01*
X203270000Y-124430000D01*
X203340000Y-124020000D01*
X203350000Y-123740000D01*
X203346534Y-123688000D01*
X203330148Y-123442217D01*
X203330147Y-123442211D01*
X203330000Y-123440000D01*
X203327425Y-123421329D01*
X203290609Y-123154413D01*
X203290608Y-123154409D01*
X203290000Y-123150000D01*
X203275715Y-123100000D01*
X203190997Y-122803489D01*
X203170000Y-122730000D01*
X202950000Y-122250000D01*
X202710000Y-121900000D01*
X202702757Y-121891851D01*
X202472448Y-121632754D01*
X202470000Y-121630000D01*
X202266718Y-121449305D01*
X202202949Y-121392621D01*
X202202946Y-121392619D01*
X202200000Y-121390000D01*
X201850000Y-121150000D01*
X201560000Y-121000000D01*
X201261905Y-120900635D01*
X201112971Y-120850990D01*
X201112965Y-120850988D01*
X201110000Y-120850000D01*
X201106955Y-120849313D01*
X201106950Y-120849311D01*
X200804039Y-120780912D01*
X200800000Y-120780000D01*
X200795880Y-120779625D01*
X200795877Y-120779625D01*
X200687316Y-120769756D01*
X200580000Y-120760000D01*
X200476030Y-120755480D01*
X200353065Y-120750133D01*
X200353060Y-120750133D01*
X200350000Y-120750000D01*
X199980000Y-120770000D01*
X199975573Y-120770885D01*
X199633598Y-120839280D01*
X199633591Y-120839282D01*
X199630000Y-120840000D01*
X199260000Y-120960000D01*
X198830000Y-121160000D01*
X198825473Y-121163169D01*
X198825471Y-121163170D01*
X198498717Y-121391898D01*
X198430000Y-121440000D01*
X198060000Y-121810000D01*
X197790000Y-122180000D01*
X197626572Y-122513962D01*
X197575935Y-122617438D01*
X197560000Y-122650000D01*
X197558547Y-122654723D01*
X197558546Y-122654725D01*
X197536896Y-122725088D01*
X197440000Y-123040000D01*
X197439305Y-123044267D01*
X197439304Y-123044273D01*
X197416087Y-123186895D01*
X197370000Y-123470000D01*
X197369815Y-123473328D01*
X197369815Y-123473329D01*
X197352481Y-123785335D01*
X197350000Y-123830000D01*
X190496786Y-123830000D01*
X190500000Y-123740000D01*
X190496534Y-123688000D01*
X190480148Y-123442217D01*
X190480147Y-123442211D01*
X190480000Y-123440000D01*
X190477425Y-123421329D01*
X190440609Y-123154413D01*
X190440608Y-123154409D01*
X190440000Y-123150000D01*
X190425715Y-123100000D01*
X190340997Y-122803489D01*
X190320000Y-122730000D01*
X190100000Y-122250000D01*
X189860000Y-121900000D01*
X189852757Y-121891851D01*
X189622448Y-121632754D01*
X189620000Y-121630000D01*
X189416718Y-121449305D01*
X189352949Y-121392621D01*
X189352946Y-121392619D01*
X189350000Y-121390000D01*
X189000000Y-121150000D01*
X188710000Y-121000000D01*
X188411905Y-120900635D01*
X188262971Y-120850990D01*
X188262965Y-120850988D01*
X188260000Y-120850000D01*
X188256955Y-120849313D01*
X188256950Y-120849311D01*
X187954039Y-120780912D01*
X187950000Y-120780000D01*
X187945880Y-120779625D01*
X187945877Y-120779625D01*
X187837316Y-120769756D01*
X187730000Y-120760000D01*
X187626030Y-120755480D01*
X187503065Y-120750133D01*
X187503060Y-120750133D01*
X187500000Y-120750000D01*
X187130000Y-120770000D01*
X187125573Y-120770885D01*
X186783598Y-120839280D01*
X186783591Y-120839282D01*
X186780000Y-120840000D01*
X186410000Y-120960000D01*
X185980000Y-121160000D01*
X185975473Y-121163169D01*
X185975471Y-121163170D01*
X185648717Y-121391898D01*
X185580000Y-121440000D01*
X185210000Y-121810000D01*
X184940000Y-122180000D01*
X184776572Y-122513962D01*
X184725935Y-122617438D01*
X184710000Y-122650000D01*
X184708547Y-122654723D01*
X184708546Y-122654725D01*
X184686896Y-122725088D01*
X184590000Y-123040000D01*
X184589305Y-123044267D01*
X184589304Y-123044273D01*
X184566087Y-123186895D01*
X184520000Y-123470000D01*
X184519815Y-123473328D01*
X184519815Y-123473329D01*
X184502481Y-123785335D01*
X184500000Y-123830000D01*
X178646786Y-123830000D01*
X178650000Y-123740000D01*
X178646534Y-123688000D01*
X178630148Y-123442217D01*
X178630147Y-123442211D01*
X178630000Y-123440000D01*
X178627425Y-123421329D01*
X178590609Y-123154413D01*
X178590608Y-123154409D01*
X178590000Y-123150000D01*
X178575715Y-123100000D01*
X178490997Y-122803489D01*
X178470000Y-122730000D01*
X178250000Y-122250000D01*
X178010000Y-121900000D01*
X178002757Y-121891851D01*
X177772448Y-121632754D01*
X177770000Y-121630000D01*
X177566718Y-121449305D01*
X177502949Y-121392621D01*
X177502946Y-121392619D01*
X177500000Y-121390000D01*
X177150000Y-121150000D01*
X176860000Y-121000000D01*
X176561905Y-120900635D01*
X176412971Y-120850990D01*
X176412965Y-120850988D01*
X176410000Y-120850000D01*
X176406955Y-120849313D01*
X176406950Y-120849311D01*
X176104039Y-120780912D01*
X176100000Y-120780000D01*
X176095880Y-120779625D01*
X176095877Y-120779625D01*
X175987316Y-120769756D01*
X175880000Y-120760000D01*
X175776030Y-120755480D01*
X175653065Y-120750133D01*
X175653060Y-120750133D01*
X175650000Y-120750000D01*
X175280000Y-120770000D01*
X175275573Y-120770885D01*
X174933598Y-120839280D01*
X174933591Y-120839282D01*
X174930000Y-120840000D01*
X174560000Y-120960000D01*
X174130000Y-121160000D01*
X174125473Y-121163169D01*
X174125471Y-121163170D01*
X173798717Y-121391898D01*
X173730000Y-121440000D01*
X173360000Y-121810000D01*
X173090000Y-122180000D01*
X172926572Y-122513962D01*
X172875935Y-122617438D01*
X172860000Y-122650000D01*
X172858547Y-122654723D01*
X172858546Y-122654725D01*
X172836896Y-122725088D01*
X172740000Y-123040000D01*
X172739305Y-123044267D01*
X172739304Y-123044273D01*
X172716087Y-123186895D01*
X172670000Y-123470000D01*
X172669815Y-123473328D01*
X172669815Y-123473329D01*
X172652481Y-123785335D01*
X172650000Y-123830000D01*
X167796786Y-123830000D01*
X167800000Y-123740000D01*
X167796534Y-123688000D01*
X167780148Y-123442217D01*
X167780147Y-123442211D01*
X167780000Y-123440000D01*
X167777425Y-123421329D01*
X167740609Y-123154413D01*
X167740608Y-123154409D01*
X167740000Y-123150000D01*
X167725715Y-123100000D01*
X167640997Y-122803489D01*
X167620000Y-122730000D01*
X167400000Y-122250000D01*
X167160000Y-121900000D01*
X167152757Y-121891851D01*
X166922448Y-121632754D01*
X166920000Y-121630000D01*
X166716718Y-121449305D01*
X166652949Y-121392621D01*
X166652946Y-121392619D01*
X166650000Y-121390000D01*
X166300000Y-121150000D01*
X166010000Y-121000000D01*
X165711905Y-120900635D01*
X165562971Y-120850990D01*
X165562965Y-120850988D01*
X165560000Y-120850000D01*
X165556955Y-120849313D01*
X165556950Y-120849311D01*
X165254039Y-120780912D01*
X165250000Y-120780000D01*
X165245880Y-120779625D01*
X165245877Y-120779625D01*
X165137316Y-120769756D01*
X165030000Y-120760000D01*
X164926030Y-120755480D01*
X164803065Y-120750133D01*
X164803060Y-120750133D01*
X164800000Y-120750000D01*
X164430000Y-120770000D01*
X164425573Y-120770885D01*
X164083598Y-120839280D01*
X164083591Y-120839282D01*
X164080000Y-120840000D01*
X163710000Y-120960000D01*
X163280000Y-121160000D01*
X163275473Y-121163169D01*
X163275471Y-121163170D01*
X162948717Y-121391898D01*
X162880000Y-121440000D01*
X162510000Y-121810000D01*
X162240000Y-122180000D01*
X162076572Y-122513962D01*
X162025935Y-122617438D01*
X162010000Y-122650000D01*
X162008547Y-122654723D01*
X162008546Y-122654725D01*
X161986896Y-122725088D01*
X161890000Y-123040000D01*
X161889305Y-123044267D01*
X161889304Y-123044273D01*
X161866087Y-123186895D01*
X161820000Y-123470000D01*
X161819815Y-123473328D01*
X161819815Y-123473329D01*
X161802481Y-123785335D01*
X161800000Y-123830000D01*
X157746786Y-123830000D01*
X157750000Y-123740000D01*
X157746534Y-123688000D01*
X157730148Y-123442217D01*
X157730147Y-123442211D01*
X157730000Y-123440000D01*
X157727425Y-123421329D01*
X157690609Y-123154413D01*
X157690608Y-123154409D01*
X157690000Y-123150000D01*
X157675715Y-123100000D01*
X157590997Y-122803489D01*
X157570000Y-122730000D01*
X157350000Y-122250000D01*
X157110000Y-121900000D01*
X157102757Y-121891851D01*
X156872448Y-121632754D01*
X156870000Y-121630000D01*
X156666718Y-121449305D01*
X156602949Y-121392621D01*
X156602946Y-121392619D01*
X156600000Y-121390000D01*
X156250000Y-121150000D01*
X155960000Y-121000000D01*
X155661905Y-120900635D01*
X155512971Y-120850990D01*
X155512965Y-120850988D01*
X155510000Y-120850000D01*
X155506955Y-120849313D01*
X155506950Y-120849311D01*
X155204039Y-120780912D01*
X155200000Y-120780000D01*
X155195880Y-120779625D01*
X155195877Y-120779625D01*
X155087316Y-120769756D01*
X154980000Y-120760000D01*
X154876030Y-120755480D01*
X154753065Y-120750133D01*
X154753060Y-120750133D01*
X154750000Y-120750000D01*
X154380000Y-120770000D01*
X154375573Y-120770885D01*
X154033598Y-120839280D01*
X154033591Y-120839282D01*
X154030000Y-120840000D01*
X153660000Y-120960000D01*
X153230000Y-121160000D01*
X153225473Y-121163169D01*
X153225471Y-121163170D01*
X152898717Y-121391898D01*
X152830000Y-121440000D01*
X152460000Y-121810000D01*
X152190000Y-122180000D01*
X152026572Y-122513962D01*
X151975935Y-122617438D01*
X151960000Y-122650000D01*
X151958547Y-122654723D01*
X151958546Y-122654725D01*
X151936896Y-122725088D01*
X151840000Y-123040000D01*
X151839305Y-123044267D01*
X151839304Y-123044273D01*
X151816087Y-123186895D01*
X151770000Y-123470000D01*
X151769815Y-123473328D01*
X151769815Y-123473329D01*
X151752481Y-123785335D01*
X151750000Y-123830000D01*
X148595000Y-123830000D01*
X148600000Y-123690000D01*
X148599653Y-123684786D01*
X148580148Y-123392217D01*
X148580147Y-123392211D01*
X148580000Y-123390000D01*
X148579420Y-123385795D01*
X148540609Y-123104413D01*
X148540608Y-123104409D01*
X148540000Y-123100000D01*
X148538206Y-123093718D01*
X148456325Y-122807137D01*
X148420000Y-122680000D01*
X148200000Y-122200000D01*
X147960000Y-121850000D01*
X147924445Y-121810000D01*
X147722448Y-121582754D01*
X147720000Y-121580000D01*
X147558945Y-121436840D01*
X147452949Y-121342621D01*
X147452946Y-121342619D01*
X147450000Y-121340000D01*
X147100000Y-121100000D01*
X146810000Y-120950000D01*
X146477840Y-120839280D01*
X146362971Y-120800990D01*
X146362965Y-120800988D01*
X146360000Y-120800000D01*
X146356955Y-120799313D01*
X146356950Y-120799311D01*
X146054039Y-120730912D01*
X146050000Y-120730000D01*
X146045880Y-120729625D01*
X146045877Y-120729625D01*
X145915316Y-120717756D01*
X145830000Y-120710000D01*
X145726030Y-120705480D01*
X145603065Y-120700133D01*
X145603060Y-120700133D01*
X145600000Y-120700000D01*
X145230000Y-120720000D01*
X145225573Y-120720885D01*
X144883598Y-120789280D01*
X144883591Y-120789282D01*
X144880000Y-120790000D01*
X144510000Y-120910000D01*
X144080000Y-121110000D01*
X144075473Y-121113169D01*
X144075471Y-121113170D01*
X143750541Y-121340621D01*
X143680000Y-121390000D01*
X143310000Y-121760000D01*
X143307125Y-121763940D01*
X143307124Y-121763941D01*
X143270638Y-121813941D01*
X143040000Y-122130000D01*
X142810000Y-122600000D01*
X142808547Y-122604723D01*
X142808546Y-122604725D01*
X142787336Y-122673659D01*
X142690000Y-122990000D01*
X142689305Y-122994267D01*
X142689304Y-122994273D01*
X142664486Y-123146731D01*
X142620000Y-123420000D01*
X142600000Y-123780000D01*
X140746714Y-123780000D01*
X140750000Y-123688000D01*
X140735248Y-123466710D01*
X140730148Y-123390217D01*
X140730147Y-123390211D01*
X140730000Y-123388000D01*
X140715255Y-123281097D01*
X140690609Y-123102413D01*
X140690608Y-123102409D01*
X140690000Y-123098000D01*
X140687971Y-123090896D01*
X140604655Y-122799292D01*
X140570000Y-122678000D01*
X140350000Y-122198000D01*
X140110000Y-121848000D01*
X140079726Y-121813941D01*
X139872448Y-121580754D01*
X139870000Y-121578000D01*
X139711195Y-121436840D01*
X139602949Y-121340621D01*
X139602946Y-121340619D01*
X139600000Y-121338000D01*
X139250000Y-121098000D01*
X138960000Y-120948000D01*
X138633840Y-120839280D01*
X138512971Y-120798990D01*
X138512965Y-120798988D01*
X138510000Y-120798000D01*
X138506955Y-120797313D01*
X138506950Y-120797311D01*
X138204039Y-120728912D01*
X138200000Y-120728000D01*
X138195880Y-120727625D01*
X138195877Y-120727625D01*
X138087316Y-120717756D01*
X137980000Y-120708000D01*
X137876030Y-120703480D01*
X137753065Y-120698133D01*
X137753060Y-120698133D01*
X137750000Y-120698000D01*
X137380000Y-120718000D01*
X137375573Y-120718885D01*
X137033598Y-120787280D01*
X137033591Y-120787282D01*
X137030000Y-120788000D01*
X136660000Y-120908000D01*
X136230000Y-121108000D01*
X136225473Y-121111169D01*
X136225471Y-121111170D01*
X135898571Y-121340000D01*
X135830000Y-121388000D01*
X135460000Y-121758000D01*
X135457125Y-121761940D01*
X135457124Y-121761941D01*
X135422054Y-121810000D01*
X135190000Y-122128000D01*
X135046220Y-122421811D01*
X134988863Y-122539020D01*
X134960000Y-122598000D01*
X134840000Y-122988000D01*
X134839305Y-122992267D01*
X134839304Y-122992273D01*
X134807622Y-123186895D01*
X134770000Y-123418000D01*
X134750000Y-123778000D01*
X112758000Y-123778000D01*
X112758000Y-121886695D01*
X117731251Y-121886695D01*
X117731548Y-121891848D01*
X117731548Y-121891851D01*
X117737011Y-121986590D01*
X117744110Y-122109715D01*
X117745247Y-122114761D01*
X117745248Y-122114767D01*
X117763454Y-122195551D01*
X117793222Y-122327639D01*
X117877266Y-122534616D01*
X117879965Y-122539020D01*
X117965132Y-122678000D01*
X117993987Y-122725088D01*
X118140250Y-122893938D01*
X118312126Y-123036632D01*
X118505000Y-123149338D01*
X118713692Y-123229030D01*
X118718760Y-123230061D01*
X118718763Y-123230062D01*
X118826017Y-123251883D01*
X118932597Y-123273567D01*
X118937772Y-123273757D01*
X118937774Y-123273757D01*
X119150673Y-123281564D01*
X119150677Y-123281564D01*
X119155837Y-123281753D01*
X119160957Y-123281097D01*
X119160959Y-123281097D01*
X119372288Y-123254025D01*
X119372289Y-123254025D01*
X119377416Y-123253368D01*
X119382366Y-123251883D01*
X119586429Y-123190661D01*
X119586434Y-123190659D01*
X119591384Y-123189174D01*
X119791994Y-123090896D01*
X119973860Y-122961173D01*
X120132096Y-122803489D01*
X120191594Y-122720689D01*
X120259435Y-122626277D01*
X120262453Y-122622077D01*
X120272018Y-122602725D01*
X120359136Y-122426453D01*
X120359137Y-122426451D01*
X120361430Y-122421811D01*
X120426370Y-122208069D01*
X120455529Y-121986590D01*
X120457156Y-121920000D01*
X120438852Y-121697361D01*
X120384431Y-121480702D01*
X120295354Y-121275840D01*
X120255906Y-121214862D01*
X120176822Y-121092617D01*
X120176820Y-121092614D01*
X120174014Y-121088277D01*
X120170532Y-121084450D01*
X120026798Y-120926488D01*
X119995746Y-120862642D01*
X120004141Y-120792143D01*
X120049317Y-120737375D01*
X120075761Y-120723706D01*
X120182297Y-120683767D01*
X120190705Y-120680615D01*
X120307261Y-120593261D01*
X120394615Y-120476705D01*
X120445745Y-120340316D01*
X120452500Y-120278134D01*
X120452500Y-118481866D01*
X120445745Y-118419684D01*
X120394615Y-118283295D01*
X120307261Y-118166739D01*
X120190705Y-118079385D01*
X120054316Y-118028255D01*
X119992134Y-118021500D01*
X118195866Y-118021500D01*
X118133684Y-118028255D01*
X117997295Y-118079385D01*
X117880739Y-118166739D01*
X117793385Y-118283295D01*
X117742255Y-118419684D01*
X117735500Y-118481866D01*
X117735500Y-120278134D01*
X117742255Y-120340316D01*
X117793385Y-120476705D01*
X117880739Y-120593261D01*
X117997295Y-120680615D01*
X118005704Y-120683767D01*
X118005705Y-120683768D01*
X118114451Y-120724535D01*
X118171216Y-120767176D01*
X118195916Y-120833738D01*
X118180709Y-120903087D01*
X118161316Y-120929568D01*
X118094010Y-121000000D01*
X118034629Y-121062138D01*
X118031715Y-121066410D01*
X118031714Y-121066411D01*
X118010025Y-121098206D01*
X117908743Y-121246680D01*
X117865137Y-121340621D01*
X117844612Y-121384840D01*
X117814688Y-121449305D01*
X117754989Y-121664570D01*
X117731251Y-121886695D01*
X112758000Y-121886695D01*
X112758000Y-105220000D01*
X133700000Y-105220000D01*
X133720000Y-105510000D01*
X133760000Y-105780000D01*
X133790000Y-105950000D01*
X133790712Y-105952655D01*
X133790715Y-105952667D01*
X133888063Y-106315506D01*
X133900000Y-106360000D01*
X134040000Y-106720000D01*
X134041302Y-106722604D01*
X134041306Y-106722613D01*
X134218457Y-107076915D01*
X134220000Y-107080000D01*
X134420000Y-107390000D01*
X134750000Y-107810000D01*
X134753153Y-107813032D01*
X134753156Y-107813035D01*
X134869177Y-107924593D01*
X135010000Y-108060000D01*
X135112986Y-108145821D01*
X135248024Y-108258354D01*
X135248034Y-108258362D01*
X135250000Y-108260000D01*
X135520000Y-108450000D01*
X135521820Y-108451105D01*
X135618824Y-108510000D01*
X135800000Y-108620000D01*
X135802933Y-108621389D01*
X135802938Y-108621392D01*
X136052396Y-108739556D01*
X136180000Y-108800000D01*
X136630000Y-108960000D01*
X137070000Y-109050000D01*
X137073115Y-109050320D01*
X137073125Y-109050321D01*
X137420950Y-109085995D01*
X137460000Y-109090000D01*
X137462438Y-109090061D01*
X137462439Y-109090061D01*
X137482128Y-109090553D01*
X137860000Y-109100000D01*
X137863769Y-109099641D01*
X137863771Y-109099641D01*
X137952172Y-109091222D01*
X138280000Y-109060000D01*
X138283615Y-109059220D01*
X138283617Y-109059220D01*
X138786426Y-108950771D01*
X138786428Y-108950770D01*
X138790000Y-108950000D01*
X139230000Y-108800000D01*
X139800000Y-108510000D01*
X140210000Y-108210000D01*
X140590000Y-107870000D01*
X140645301Y-107804330D01*
X140907493Y-107492978D01*
X140907499Y-107492970D01*
X140910000Y-107490000D01*
X141170000Y-107090000D01*
X141171434Y-107087221D01*
X141171439Y-107087213D01*
X141328506Y-106782894D01*
X141330000Y-106780000D01*
X141510000Y-106320000D01*
X141634418Y-105780857D01*
X141658899Y-105674773D01*
X141658900Y-105674767D01*
X141660000Y-105670000D01*
X141660349Y-105665117D01*
X141692143Y-105220000D01*
X143600000Y-105220000D01*
X143620000Y-105510000D01*
X143660000Y-105780000D01*
X143690000Y-105950000D01*
X143690712Y-105952655D01*
X143690715Y-105952667D01*
X143788063Y-106315506D01*
X143800000Y-106360000D01*
X143940000Y-106720000D01*
X143941302Y-106722604D01*
X143941306Y-106722613D01*
X144118457Y-107076915D01*
X144120000Y-107080000D01*
X144320000Y-107390000D01*
X144650000Y-107810000D01*
X144653153Y-107813032D01*
X144653156Y-107813035D01*
X144769177Y-107924593D01*
X144910000Y-108060000D01*
X145012986Y-108145821D01*
X145148024Y-108258354D01*
X145148034Y-108258362D01*
X145150000Y-108260000D01*
X145420000Y-108450000D01*
X145421820Y-108451105D01*
X145518824Y-108510000D01*
X145700000Y-108620000D01*
X145702933Y-108621389D01*
X145702938Y-108621392D01*
X145952396Y-108739556D01*
X146080000Y-108800000D01*
X146530000Y-108960000D01*
X146970000Y-109050000D01*
X146973115Y-109050320D01*
X146973125Y-109050321D01*
X147320950Y-109085995D01*
X147360000Y-109090000D01*
X147362438Y-109090061D01*
X147362439Y-109090061D01*
X147382128Y-109090553D01*
X147760000Y-109100000D01*
X147763769Y-109099641D01*
X147763771Y-109099641D01*
X147852172Y-109091222D01*
X148180000Y-109060000D01*
X148183615Y-109059220D01*
X148183617Y-109059220D01*
X148686426Y-108950771D01*
X148686428Y-108950770D01*
X148690000Y-108950000D01*
X149130000Y-108800000D01*
X149700000Y-108510000D01*
X150110000Y-108210000D01*
X150490000Y-107870000D01*
X150545301Y-107804330D01*
X150807493Y-107492978D01*
X150807499Y-107492970D01*
X150810000Y-107490000D01*
X151070000Y-107090000D01*
X151071434Y-107087221D01*
X151071439Y-107087213D01*
X151228506Y-106782894D01*
X151230000Y-106780000D01*
X151410000Y-106320000D01*
X151534418Y-105780857D01*
X151558899Y-105674773D01*
X151558900Y-105674767D01*
X151560000Y-105670000D01*
X151560349Y-105665117D01*
X151592143Y-105220000D01*
X154800000Y-105220000D01*
X154820000Y-105510000D01*
X154860000Y-105780000D01*
X154890000Y-105950000D01*
X154890712Y-105952655D01*
X154890715Y-105952667D01*
X154988063Y-106315506D01*
X155000000Y-106360000D01*
X155140000Y-106720000D01*
X155141302Y-106722604D01*
X155141306Y-106722613D01*
X155318457Y-107076915D01*
X155320000Y-107080000D01*
X155520000Y-107390000D01*
X155850000Y-107810000D01*
X155853153Y-107813032D01*
X155853156Y-107813035D01*
X155969177Y-107924593D01*
X156110000Y-108060000D01*
X156212986Y-108145821D01*
X156348024Y-108258354D01*
X156348034Y-108258362D01*
X156350000Y-108260000D01*
X156620000Y-108450000D01*
X156621820Y-108451105D01*
X156718824Y-108510000D01*
X156900000Y-108620000D01*
X156902933Y-108621389D01*
X156902938Y-108621392D01*
X157152396Y-108739556D01*
X157280000Y-108800000D01*
X157730000Y-108960000D01*
X158170000Y-109050000D01*
X158173115Y-109050320D01*
X158173125Y-109050321D01*
X158520950Y-109085995D01*
X158560000Y-109090000D01*
X158562438Y-109090061D01*
X158562439Y-109090061D01*
X158582128Y-109090553D01*
X158960000Y-109100000D01*
X158963769Y-109099641D01*
X158963771Y-109099641D01*
X159052172Y-109091222D01*
X159380000Y-109060000D01*
X159383615Y-109059220D01*
X159383617Y-109059220D01*
X159886426Y-108950771D01*
X159886428Y-108950770D01*
X159890000Y-108950000D01*
X160330000Y-108800000D01*
X160900000Y-108510000D01*
X161310000Y-108210000D01*
X161690000Y-107870000D01*
X161745301Y-107804330D01*
X162007493Y-107492978D01*
X162007499Y-107492970D01*
X162010000Y-107490000D01*
X162270000Y-107090000D01*
X162271434Y-107087221D01*
X162271439Y-107087213D01*
X162428506Y-106782894D01*
X162430000Y-106780000D01*
X162610000Y-106320000D01*
X162734418Y-105780857D01*
X162758899Y-105674773D01*
X162758900Y-105674767D01*
X162760000Y-105670000D01*
X162760349Y-105665117D01*
X162792143Y-105220000D01*
X167000000Y-105220000D01*
X167020000Y-105510000D01*
X167060000Y-105780000D01*
X167090000Y-105950000D01*
X167090712Y-105952655D01*
X167090715Y-105952667D01*
X167188063Y-106315506D01*
X167200000Y-106360000D01*
X167340000Y-106720000D01*
X167341302Y-106722604D01*
X167341306Y-106722613D01*
X167518457Y-107076915D01*
X167520000Y-107080000D01*
X167720000Y-107390000D01*
X168050000Y-107810000D01*
X168053153Y-107813032D01*
X168053156Y-107813035D01*
X168169177Y-107924593D01*
X168310000Y-108060000D01*
X168412986Y-108145821D01*
X168548024Y-108258354D01*
X168548034Y-108258362D01*
X168550000Y-108260000D01*
X168820000Y-108450000D01*
X168821820Y-108451105D01*
X168918824Y-108510000D01*
X169100000Y-108620000D01*
X169102933Y-108621389D01*
X169102938Y-108621392D01*
X169352396Y-108739556D01*
X169480000Y-108800000D01*
X169930000Y-108960000D01*
X170370000Y-109050000D01*
X170373115Y-109050320D01*
X170373125Y-109050321D01*
X170720950Y-109085995D01*
X170760000Y-109090000D01*
X170762438Y-109090061D01*
X170762439Y-109090061D01*
X170782128Y-109090553D01*
X171160000Y-109100000D01*
X171163769Y-109099641D01*
X171163771Y-109099641D01*
X171252172Y-109091222D01*
X171580000Y-109060000D01*
X171583615Y-109059220D01*
X171583617Y-109059220D01*
X172086426Y-108950771D01*
X172086428Y-108950770D01*
X172090000Y-108950000D01*
X172530000Y-108800000D01*
X173100000Y-108510000D01*
X173510000Y-108210000D01*
X173890000Y-107870000D01*
X173945301Y-107804330D01*
X174207493Y-107492978D01*
X174207499Y-107492970D01*
X174210000Y-107490000D01*
X174470000Y-107090000D01*
X174471434Y-107087221D01*
X174471439Y-107087213D01*
X174628506Y-106782894D01*
X174630000Y-106780000D01*
X174810000Y-106320000D01*
X174934418Y-105780857D01*
X174958899Y-105674773D01*
X174958900Y-105674767D01*
X174960000Y-105670000D01*
X174960349Y-105665117D01*
X174992143Y-105220000D01*
X179900000Y-105220000D01*
X179920000Y-105510000D01*
X179960000Y-105780000D01*
X179990000Y-105950000D01*
X179990712Y-105952655D01*
X179990715Y-105952667D01*
X180088063Y-106315506D01*
X180100000Y-106360000D01*
X180240000Y-106720000D01*
X180241302Y-106722604D01*
X180241306Y-106722613D01*
X180418457Y-107076915D01*
X180420000Y-107080000D01*
X180620000Y-107390000D01*
X180950000Y-107810000D01*
X180953153Y-107813032D01*
X180953156Y-107813035D01*
X181069177Y-107924593D01*
X181210000Y-108060000D01*
X181312986Y-108145821D01*
X181448024Y-108258354D01*
X181448034Y-108258362D01*
X181450000Y-108260000D01*
X181720000Y-108450000D01*
X181721820Y-108451105D01*
X181818824Y-108510000D01*
X182000000Y-108620000D01*
X182002933Y-108621389D01*
X182002938Y-108621392D01*
X182252396Y-108739556D01*
X182380000Y-108800000D01*
X182830000Y-108960000D01*
X183270000Y-109050000D01*
X183273115Y-109050320D01*
X183273125Y-109050321D01*
X183620950Y-109085995D01*
X183660000Y-109090000D01*
X183662438Y-109090061D01*
X183662439Y-109090061D01*
X183682128Y-109090553D01*
X184060000Y-109100000D01*
X184063769Y-109099641D01*
X184063771Y-109099641D01*
X184152172Y-109091222D01*
X184480000Y-109060000D01*
X184483615Y-109059220D01*
X184483617Y-109059220D01*
X184986426Y-108950771D01*
X184986428Y-108950770D01*
X184990000Y-108950000D01*
X185430000Y-108800000D01*
X186000000Y-108510000D01*
X186410000Y-108210000D01*
X186790000Y-107870000D01*
X186845301Y-107804330D01*
X187107493Y-107492978D01*
X187107499Y-107492970D01*
X187110000Y-107490000D01*
X187370000Y-107090000D01*
X187371434Y-107087221D01*
X187371439Y-107087213D01*
X187528506Y-106782894D01*
X187530000Y-106780000D01*
X187710000Y-106320000D01*
X187834418Y-105780857D01*
X187858899Y-105674773D01*
X187858900Y-105674767D01*
X187860000Y-105670000D01*
X187860349Y-105665117D01*
X187892143Y-105220000D01*
X193800000Y-105220000D01*
X193820000Y-105510000D01*
X193860000Y-105780000D01*
X193890000Y-105950000D01*
X193890712Y-105952655D01*
X193890715Y-105952667D01*
X193988063Y-106315506D01*
X194000000Y-106360000D01*
X194140000Y-106720000D01*
X194141302Y-106722604D01*
X194141306Y-106722613D01*
X194318457Y-107076915D01*
X194320000Y-107080000D01*
X194520000Y-107390000D01*
X194850000Y-107810000D01*
X194853153Y-107813032D01*
X194853156Y-107813035D01*
X194969177Y-107924593D01*
X195110000Y-108060000D01*
X195212986Y-108145821D01*
X195348024Y-108258354D01*
X195348034Y-108258362D01*
X195350000Y-108260000D01*
X195620000Y-108450000D01*
X195621820Y-108451105D01*
X195718824Y-108510000D01*
X195900000Y-108620000D01*
X195902933Y-108621389D01*
X195902938Y-108621392D01*
X196152396Y-108739556D01*
X196280000Y-108800000D01*
X196730000Y-108960000D01*
X197170000Y-109050000D01*
X197173115Y-109050320D01*
X197173125Y-109050321D01*
X197520950Y-109085995D01*
X197560000Y-109090000D01*
X197562438Y-109090061D01*
X197562439Y-109090061D01*
X197582128Y-109090553D01*
X197960000Y-109100000D01*
X197963769Y-109099641D01*
X197963771Y-109099641D01*
X198052172Y-109091222D01*
X198380000Y-109060000D01*
X198383615Y-109059220D01*
X198383617Y-109059220D01*
X198886426Y-108950771D01*
X198886428Y-108950770D01*
X198890000Y-108950000D01*
X199330000Y-108800000D01*
X199900000Y-108510000D01*
X200310000Y-108210000D01*
X200690000Y-107870000D01*
X200745301Y-107804330D01*
X201007493Y-107492978D01*
X201007499Y-107492970D01*
X201010000Y-107490000D01*
X201270000Y-107090000D01*
X201271434Y-107087221D01*
X201271439Y-107087213D01*
X201428506Y-106782894D01*
X201430000Y-106780000D01*
X201610000Y-106320000D01*
X201734418Y-105780857D01*
X201758899Y-105674773D01*
X201758900Y-105674767D01*
X201760000Y-105670000D01*
X201760349Y-105665117D01*
X201799688Y-105114371D01*
X201799688Y-105114368D01*
X201800000Y-105110000D01*
X201779990Y-104814852D01*
X201760277Y-104524082D01*
X201760276Y-104524078D01*
X201760000Y-104520000D01*
X201670000Y-104070000D01*
X201510000Y-103610000D01*
X201360000Y-103280000D01*
X201160000Y-102910000D01*
X200880000Y-102540000D01*
X200679370Y-102333948D01*
X200512395Y-102162459D01*
X200512388Y-102162453D01*
X200510000Y-102160000D01*
X200339782Y-102019570D01*
X200113071Y-101832533D01*
X200113065Y-101832529D01*
X200110000Y-101830000D01*
X199730000Y-101590000D01*
X199725941Y-101588177D01*
X199725938Y-101588176D01*
X199243284Y-101371474D01*
X199243277Y-101371471D01*
X199240000Y-101370000D01*
X198800000Y-101230000D01*
X198440000Y-101160000D01*
X198437889Y-101159736D01*
X198437882Y-101159735D01*
X198042585Y-101110323D01*
X198042582Y-101110323D01*
X198040000Y-101110000D01*
X197903159Y-101104298D01*
X197802478Y-101100103D01*
X197802472Y-101100103D01*
X197800000Y-101100000D01*
X197530000Y-101110000D01*
X197110000Y-101160000D01*
X196660000Y-101270000D01*
X196657822Y-101270703D01*
X196657817Y-101270704D01*
X196581787Y-101295230D01*
X196350000Y-101370000D01*
X196346486Y-101371635D01*
X196346482Y-101371636D01*
X196125611Y-101474367D01*
X195920000Y-101570000D01*
X195640000Y-101740000D01*
X195638211Y-101741266D01*
X195638204Y-101741270D01*
X195509177Y-101832533D01*
X195230000Y-102030000D01*
X195226456Y-102033457D01*
X195226453Y-102033460D01*
X194822451Y-102427608D01*
X194822444Y-102427616D01*
X194820000Y-102430000D01*
X194680000Y-102600000D01*
X194678968Y-102601404D01*
X194432248Y-102936942D01*
X194432244Y-102936948D01*
X194430000Y-102940000D01*
X194428134Y-102943308D01*
X194211633Y-103327104D01*
X194211628Y-103327113D01*
X194210000Y-103330000D01*
X194050000Y-103700000D01*
X193970000Y-103950000D01*
X193870000Y-104350000D01*
X193820000Y-104710000D01*
X193800000Y-104950000D01*
X193800000Y-105220000D01*
X187892143Y-105220000D01*
X187899688Y-105114371D01*
X187899688Y-105114368D01*
X187900000Y-105110000D01*
X187879990Y-104814852D01*
X187860277Y-104524082D01*
X187860276Y-104524078D01*
X187860000Y-104520000D01*
X187770000Y-104070000D01*
X187610000Y-103610000D01*
X187460000Y-103280000D01*
X187260000Y-102910000D01*
X186980000Y-102540000D01*
X186779370Y-102333948D01*
X186612395Y-102162459D01*
X186612388Y-102162453D01*
X186610000Y-102160000D01*
X186439782Y-102019570D01*
X186213071Y-101832533D01*
X186213065Y-101832529D01*
X186210000Y-101830000D01*
X185830000Y-101590000D01*
X185825941Y-101588177D01*
X185825938Y-101588176D01*
X185343284Y-101371474D01*
X185343277Y-101371471D01*
X185340000Y-101370000D01*
X184900000Y-101230000D01*
X184540000Y-101160000D01*
X184537889Y-101159736D01*
X184537882Y-101159735D01*
X184142585Y-101110323D01*
X184142582Y-101110323D01*
X184140000Y-101110000D01*
X184003159Y-101104298D01*
X183902478Y-101100103D01*
X183902472Y-101100103D01*
X183900000Y-101100000D01*
X183630000Y-101110000D01*
X183210000Y-101160000D01*
X182760000Y-101270000D01*
X182757822Y-101270703D01*
X182757817Y-101270704D01*
X182681787Y-101295230D01*
X182450000Y-101370000D01*
X182446486Y-101371635D01*
X182446482Y-101371636D01*
X182225611Y-101474367D01*
X182020000Y-101570000D01*
X181740000Y-101740000D01*
X181738211Y-101741266D01*
X181738204Y-101741270D01*
X181609177Y-101832533D01*
X181330000Y-102030000D01*
X181326456Y-102033457D01*
X181326453Y-102033460D01*
X180922451Y-102427608D01*
X180922444Y-102427616D01*
X180920000Y-102430000D01*
X180780000Y-102600000D01*
X180778968Y-102601404D01*
X180532248Y-102936942D01*
X180532244Y-102936948D01*
X180530000Y-102940000D01*
X180528134Y-102943308D01*
X180311633Y-103327104D01*
X180311628Y-103327113D01*
X180310000Y-103330000D01*
X180150000Y-103700000D01*
X180070000Y-103950000D01*
X179970000Y-104350000D01*
X179920000Y-104710000D01*
X179900000Y-104950000D01*
X179900000Y-105220000D01*
X174992143Y-105220000D01*
X174999688Y-105114371D01*
X174999688Y-105114368D01*
X175000000Y-105110000D01*
X174979990Y-104814852D01*
X174960277Y-104524082D01*
X174960276Y-104524078D01*
X174960000Y-104520000D01*
X174870000Y-104070000D01*
X174710000Y-103610000D01*
X174560000Y-103280000D01*
X174360000Y-102910000D01*
X174080000Y-102540000D01*
X173879370Y-102333948D01*
X173712395Y-102162459D01*
X173712388Y-102162453D01*
X173710000Y-102160000D01*
X173539782Y-102019570D01*
X173313071Y-101832533D01*
X173313065Y-101832529D01*
X173310000Y-101830000D01*
X172930000Y-101590000D01*
X172925941Y-101588177D01*
X172925938Y-101588176D01*
X172443284Y-101371474D01*
X172443277Y-101371471D01*
X172440000Y-101370000D01*
X172000000Y-101230000D01*
X171640000Y-101160000D01*
X171637889Y-101159736D01*
X171637882Y-101159735D01*
X171242585Y-101110323D01*
X171242582Y-101110323D01*
X171240000Y-101110000D01*
X171103159Y-101104298D01*
X171002478Y-101100103D01*
X171002472Y-101100103D01*
X171000000Y-101100000D01*
X170730000Y-101110000D01*
X170310000Y-101160000D01*
X169860000Y-101270000D01*
X169857822Y-101270703D01*
X169857817Y-101270704D01*
X169781787Y-101295230D01*
X169550000Y-101370000D01*
X169546486Y-101371635D01*
X169546482Y-101371636D01*
X169325611Y-101474367D01*
X169120000Y-101570000D01*
X168840000Y-101740000D01*
X168838211Y-101741266D01*
X168838204Y-101741270D01*
X168709177Y-101832533D01*
X168430000Y-102030000D01*
X168426456Y-102033457D01*
X168426453Y-102033460D01*
X168022451Y-102427608D01*
X168022444Y-102427616D01*
X168020000Y-102430000D01*
X167880000Y-102600000D01*
X167878968Y-102601404D01*
X167632248Y-102936942D01*
X167632244Y-102936948D01*
X167630000Y-102940000D01*
X167628134Y-102943308D01*
X167411633Y-103327104D01*
X167411628Y-103327113D01*
X167410000Y-103330000D01*
X167250000Y-103700000D01*
X167170000Y-103950000D01*
X167070000Y-104350000D01*
X167020000Y-104710000D01*
X167000000Y-104950000D01*
X167000000Y-105220000D01*
X162792143Y-105220000D01*
X162799688Y-105114371D01*
X162799688Y-105114368D01*
X162800000Y-105110000D01*
X162779990Y-104814852D01*
X162760277Y-104524082D01*
X162760276Y-104524078D01*
X162760000Y-104520000D01*
X162670000Y-104070000D01*
X162510000Y-103610000D01*
X162360000Y-103280000D01*
X162160000Y-102910000D01*
X161880000Y-102540000D01*
X161679370Y-102333948D01*
X161512395Y-102162459D01*
X161512388Y-102162453D01*
X161510000Y-102160000D01*
X161339782Y-102019570D01*
X161113071Y-101832533D01*
X161113065Y-101832529D01*
X161110000Y-101830000D01*
X160730000Y-101590000D01*
X160725941Y-101588177D01*
X160725938Y-101588176D01*
X160243284Y-101371474D01*
X160243277Y-101371471D01*
X160240000Y-101370000D01*
X159800000Y-101230000D01*
X159440000Y-101160000D01*
X159437889Y-101159736D01*
X159437882Y-101159735D01*
X159042585Y-101110323D01*
X159042582Y-101110323D01*
X159040000Y-101110000D01*
X158903159Y-101104298D01*
X158802478Y-101100103D01*
X158802472Y-101100103D01*
X158800000Y-101100000D01*
X158530000Y-101110000D01*
X158110000Y-101160000D01*
X157660000Y-101270000D01*
X157657822Y-101270703D01*
X157657817Y-101270704D01*
X157581787Y-101295230D01*
X157350000Y-101370000D01*
X157346486Y-101371635D01*
X157346482Y-101371636D01*
X157125611Y-101474367D01*
X156920000Y-101570000D01*
X156640000Y-101740000D01*
X156638211Y-101741266D01*
X156638204Y-101741270D01*
X156509177Y-101832533D01*
X156230000Y-102030000D01*
X156226456Y-102033457D01*
X156226453Y-102033460D01*
X155822451Y-102427608D01*
X155822444Y-102427616D01*
X155820000Y-102430000D01*
X155680000Y-102600000D01*
X155678968Y-102601404D01*
X155432248Y-102936942D01*
X155432244Y-102936948D01*
X155430000Y-102940000D01*
X155428134Y-102943308D01*
X155211633Y-103327104D01*
X155211628Y-103327113D01*
X155210000Y-103330000D01*
X155050000Y-103700000D01*
X154970000Y-103950000D01*
X154870000Y-104350000D01*
X154820000Y-104710000D01*
X154800000Y-104950000D01*
X154800000Y-105220000D01*
X151592143Y-105220000D01*
X151599688Y-105114371D01*
X151599688Y-105114368D01*
X151600000Y-105110000D01*
X151579990Y-104814852D01*
X151560277Y-104524082D01*
X151560276Y-104524078D01*
X151560000Y-104520000D01*
X151470000Y-104070000D01*
X151310000Y-103610000D01*
X151160000Y-103280000D01*
X150960000Y-102910000D01*
X150680000Y-102540000D01*
X150479370Y-102333948D01*
X150312395Y-102162459D01*
X150312388Y-102162453D01*
X150310000Y-102160000D01*
X150139782Y-102019570D01*
X149913071Y-101832533D01*
X149913065Y-101832529D01*
X149910000Y-101830000D01*
X149530000Y-101590000D01*
X149525941Y-101588177D01*
X149525938Y-101588176D01*
X149043284Y-101371474D01*
X149043277Y-101371471D01*
X149040000Y-101370000D01*
X148600000Y-101230000D01*
X148240000Y-101160000D01*
X148237889Y-101159736D01*
X148237882Y-101159735D01*
X147842585Y-101110323D01*
X147842582Y-101110323D01*
X147840000Y-101110000D01*
X147703159Y-101104298D01*
X147602478Y-101100103D01*
X147602472Y-101100103D01*
X147600000Y-101100000D01*
X147330000Y-101110000D01*
X146910000Y-101160000D01*
X146460000Y-101270000D01*
X146457822Y-101270703D01*
X146457817Y-101270704D01*
X146381787Y-101295230D01*
X146150000Y-101370000D01*
X146146486Y-101371635D01*
X146146482Y-101371636D01*
X145925611Y-101474367D01*
X145720000Y-101570000D01*
X145440000Y-101740000D01*
X145438211Y-101741266D01*
X145438204Y-101741270D01*
X145309177Y-101832533D01*
X145030000Y-102030000D01*
X145026456Y-102033457D01*
X145026453Y-102033460D01*
X144622451Y-102427608D01*
X144622444Y-102427616D01*
X144620000Y-102430000D01*
X144480000Y-102600000D01*
X144478968Y-102601404D01*
X144232248Y-102936942D01*
X144232244Y-102936948D01*
X144230000Y-102940000D01*
X144228134Y-102943308D01*
X144011633Y-103327104D01*
X144011628Y-103327113D01*
X144010000Y-103330000D01*
X143850000Y-103700000D01*
X143770000Y-103950000D01*
X143670000Y-104350000D01*
X143620000Y-104710000D01*
X143600000Y-104950000D01*
X143600000Y-105220000D01*
X141692143Y-105220000D01*
X141699688Y-105114371D01*
X141699688Y-105114368D01*
X141700000Y-105110000D01*
X141679990Y-104814852D01*
X141660277Y-104524082D01*
X141660276Y-104524078D01*
X141660000Y-104520000D01*
X141570000Y-104070000D01*
X141410000Y-103610000D01*
X141260000Y-103280000D01*
X141060000Y-102910000D01*
X140780000Y-102540000D01*
X140579370Y-102333948D01*
X140412395Y-102162459D01*
X140412388Y-102162453D01*
X140410000Y-102160000D01*
X140239782Y-102019570D01*
X140013071Y-101832533D01*
X140013065Y-101832529D01*
X140010000Y-101830000D01*
X139630000Y-101590000D01*
X139625941Y-101588177D01*
X139625938Y-101588176D01*
X139143284Y-101371474D01*
X139143277Y-101371471D01*
X139140000Y-101370000D01*
X138700000Y-101230000D01*
X138340000Y-101160000D01*
X138337889Y-101159736D01*
X138337882Y-101159735D01*
X137942585Y-101110323D01*
X137942582Y-101110323D01*
X137940000Y-101110000D01*
X137803159Y-101104298D01*
X137702478Y-101100103D01*
X137702472Y-101100103D01*
X137700000Y-101100000D01*
X137430000Y-101110000D01*
X137010000Y-101160000D01*
X136560000Y-101270000D01*
X136557822Y-101270703D01*
X136557817Y-101270704D01*
X136481787Y-101295230D01*
X136250000Y-101370000D01*
X136246486Y-101371635D01*
X136246482Y-101371636D01*
X136025611Y-101474367D01*
X135820000Y-101570000D01*
X135540000Y-101740000D01*
X135538211Y-101741266D01*
X135538204Y-101741270D01*
X135409177Y-101832533D01*
X135130000Y-102030000D01*
X135126456Y-102033457D01*
X135126453Y-102033460D01*
X134722451Y-102427608D01*
X134722444Y-102427616D01*
X134720000Y-102430000D01*
X134580000Y-102600000D01*
X134578968Y-102601404D01*
X134332248Y-102936942D01*
X134332244Y-102936948D01*
X134330000Y-102940000D01*
X134328134Y-102943308D01*
X134111633Y-103327104D01*
X134111628Y-103327113D01*
X134110000Y-103330000D01*
X133950000Y-103700000D01*
X133870000Y-103950000D01*
X133770000Y-104350000D01*
X133720000Y-104710000D01*
X133700000Y-104950000D01*
X133700000Y-105220000D01*
X112758000Y-105220000D01*
X112758000Y-84460000D01*
X132725000Y-84460000D01*
X132765000Y-85030000D01*
X132845000Y-85470000D01*
X133015000Y-86080000D01*
X133215000Y-86560000D01*
X133505000Y-87080000D01*
X133825000Y-87530000D01*
X134032255Y-87759072D01*
X134201343Y-87945958D01*
X134205000Y-87950000D01*
X134525000Y-88240000D01*
X134965000Y-88570000D01*
X135525000Y-88890000D01*
X135955000Y-89080000D01*
X135957817Y-89080939D01*
X136312404Y-89199135D01*
X136312411Y-89199137D01*
X136315000Y-89200000D01*
X136642369Y-89278284D01*
X136772252Y-89309343D01*
X136772255Y-89309344D01*
X136775000Y-89310000D01*
X136777795Y-89310408D01*
X136777797Y-89310408D01*
X136890655Y-89326866D01*
X137255000Y-89380000D01*
X137725000Y-89400000D01*
X138035000Y-89390000D01*
X138036276Y-89389905D01*
X138036285Y-89389905D01*
X138226179Y-89375839D01*
X138305000Y-89370000D01*
X138426276Y-89349787D01*
X138663166Y-89310306D01*
X138663177Y-89310304D01*
X138665000Y-89310000D01*
X139015000Y-89230000D01*
X139705000Y-88990000D01*
X140316693Y-88655702D01*
X140559542Y-88522983D01*
X140559543Y-88522982D01*
X140565000Y-88520000D01*
X141245000Y-87950000D01*
X141602314Y-87530000D01*
X141811506Y-87284107D01*
X141815000Y-87280000D01*
X142205000Y-86620000D01*
X142422494Y-86076265D01*
X142483581Y-85923549D01*
X142483584Y-85923540D01*
X142485000Y-85920000D01*
X142615000Y-85430000D01*
X142675000Y-85110000D01*
X142705000Y-84850000D01*
X142725000Y-84550000D01*
X142725000Y-84460000D01*
X144675000Y-84460000D01*
X144715000Y-85030000D01*
X144795000Y-85470000D01*
X144965000Y-86080000D01*
X145165000Y-86560000D01*
X145455000Y-87080000D01*
X145775000Y-87530000D01*
X145982255Y-87759072D01*
X146151343Y-87945958D01*
X146155000Y-87950000D01*
X146475000Y-88240000D01*
X146915000Y-88570000D01*
X147475000Y-88890000D01*
X147905000Y-89080000D01*
X147907817Y-89080939D01*
X148262404Y-89199135D01*
X148262411Y-89199137D01*
X148265000Y-89200000D01*
X148592369Y-89278284D01*
X148722252Y-89309343D01*
X148722255Y-89309344D01*
X148725000Y-89310000D01*
X148727795Y-89310408D01*
X148727797Y-89310408D01*
X148840655Y-89326866D01*
X149205000Y-89380000D01*
X149675000Y-89400000D01*
X149985000Y-89390000D01*
X149986276Y-89389905D01*
X149986285Y-89389905D01*
X150176179Y-89375839D01*
X150255000Y-89370000D01*
X150376276Y-89349787D01*
X150613166Y-89310306D01*
X150613177Y-89310304D01*
X150615000Y-89310000D01*
X150965000Y-89230000D01*
X151655000Y-88990000D01*
X152266693Y-88655702D01*
X152509542Y-88522983D01*
X152509543Y-88522982D01*
X152515000Y-88520000D01*
X153195000Y-87950000D01*
X153552314Y-87530000D01*
X153761506Y-87284107D01*
X153765000Y-87280000D01*
X154155000Y-86620000D01*
X154372494Y-86076265D01*
X154433581Y-85923549D01*
X154433584Y-85923540D01*
X154435000Y-85920000D01*
X154565000Y-85430000D01*
X154625000Y-85110000D01*
X154655000Y-84850000D01*
X154675000Y-84550000D01*
X154675000Y-84460000D01*
X157875000Y-84460000D01*
X157915000Y-85030000D01*
X157995000Y-85470000D01*
X158165000Y-86080000D01*
X158365000Y-86560000D01*
X158655000Y-87080000D01*
X158975000Y-87530000D01*
X159182255Y-87759072D01*
X159351343Y-87945958D01*
X159355000Y-87950000D01*
X159675000Y-88240000D01*
X160115000Y-88570000D01*
X160675000Y-88890000D01*
X161105000Y-89080000D01*
X161107817Y-89080939D01*
X161462404Y-89199135D01*
X161462411Y-89199137D01*
X161465000Y-89200000D01*
X161792369Y-89278284D01*
X161922252Y-89309343D01*
X161922255Y-89309344D01*
X161925000Y-89310000D01*
X161927795Y-89310408D01*
X161927797Y-89310408D01*
X162040655Y-89326866D01*
X162405000Y-89380000D01*
X162875000Y-89400000D01*
X163185000Y-89390000D01*
X163186276Y-89389905D01*
X163186285Y-89389905D01*
X163376179Y-89375839D01*
X163455000Y-89370000D01*
X163576276Y-89349787D01*
X163813166Y-89310306D01*
X163813177Y-89310304D01*
X163815000Y-89310000D01*
X164165000Y-89230000D01*
X164855000Y-88990000D01*
X165466693Y-88655702D01*
X165709542Y-88522983D01*
X165709543Y-88522982D01*
X165715000Y-88520000D01*
X166395000Y-87950000D01*
X166752314Y-87530000D01*
X166961506Y-87284107D01*
X166965000Y-87280000D01*
X167355000Y-86620000D01*
X167572494Y-86076265D01*
X167633581Y-85923549D01*
X167633584Y-85923540D01*
X167635000Y-85920000D01*
X167765000Y-85430000D01*
X167825000Y-85110000D01*
X167855000Y-84850000D01*
X167875000Y-84550000D01*
X167875000Y-84460000D01*
X172075000Y-84460000D01*
X172115000Y-85030000D01*
X172195000Y-85470000D01*
X172365000Y-86080000D01*
X172565000Y-86560000D01*
X172855000Y-87080000D01*
X173175000Y-87530000D01*
X173382255Y-87759072D01*
X173551343Y-87945958D01*
X173555000Y-87950000D01*
X173875000Y-88240000D01*
X174315000Y-88570000D01*
X174875000Y-88890000D01*
X175305000Y-89080000D01*
X175307817Y-89080939D01*
X175662404Y-89199135D01*
X175662411Y-89199137D01*
X175665000Y-89200000D01*
X175992369Y-89278284D01*
X176122252Y-89309343D01*
X176122255Y-89309344D01*
X176125000Y-89310000D01*
X176127795Y-89310408D01*
X176127797Y-89310408D01*
X176240655Y-89326866D01*
X176605000Y-89380000D01*
X177075000Y-89400000D01*
X177385000Y-89390000D01*
X177386276Y-89389905D01*
X177386285Y-89389905D01*
X177576179Y-89375839D01*
X177655000Y-89370000D01*
X177776276Y-89349787D01*
X178013166Y-89310306D01*
X178013177Y-89310304D01*
X178015000Y-89310000D01*
X178365000Y-89230000D01*
X179055000Y-88990000D01*
X179666693Y-88655702D01*
X179909542Y-88522983D01*
X179909543Y-88522982D01*
X179915000Y-88520000D01*
X180595000Y-87950000D01*
X180952314Y-87530000D01*
X181161506Y-87284107D01*
X181165000Y-87280000D01*
X181555000Y-86620000D01*
X181772494Y-86076265D01*
X181833581Y-85923549D01*
X181833584Y-85923540D01*
X181835000Y-85920000D01*
X181965000Y-85430000D01*
X182025000Y-85110000D01*
X182055000Y-84850000D01*
X182075000Y-84550000D01*
X182075000Y-84460000D01*
X187075000Y-84460000D01*
X187115000Y-85030000D01*
X187195000Y-85470000D01*
X187365000Y-86080000D01*
X187565000Y-86560000D01*
X187855000Y-87080000D01*
X188175000Y-87530000D01*
X188382255Y-87759072D01*
X188551343Y-87945958D01*
X188555000Y-87950000D01*
X188875000Y-88240000D01*
X189315000Y-88570000D01*
X189875000Y-88890000D01*
X190305000Y-89080000D01*
X190307817Y-89080939D01*
X190662404Y-89199135D01*
X190662411Y-89199137D01*
X190665000Y-89200000D01*
X190992369Y-89278284D01*
X191122252Y-89309343D01*
X191122255Y-89309344D01*
X191125000Y-89310000D01*
X191127795Y-89310408D01*
X191127797Y-89310408D01*
X191240655Y-89326866D01*
X191605000Y-89380000D01*
X192075000Y-89400000D01*
X192385000Y-89390000D01*
X192386276Y-89389905D01*
X192386285Y-89389905D01*
X192576179Y-89375839D01*
X192655000Y-89370000D01*
X192776276Y-89349787D01*
X193013166Y-89310306D01*
X193013177Y-89310304D01*
X193015000Y-89310000D01*
X193365000Y-89230000D01*
X194055000Y-88990000D01*
X194666693Y-88655702D01*
X194909542Y-88522983D01*
X194909543Y-88522982D01*
X194915000Y-88520000D01*
X195595000Y-87950000D01*
X195952314Y-87530000D01*
X196161506Y-87284107D01*
X196165000Y-87280000D01*
X196555000Y-86620000D01*
X196772494Y-86076265D01*
X196833581Y-85923549D01*
X196833584Y-85923540D01*
X196835000Y-85920000D01*
X196965000Y-85430000D01*
X197025000Y-85110000D01*
X197055000Y-84850000D01*
X197075000Y-84550000D01*
X197075000Y-84300000D01*
X197065000Y-84060000D01*
X197035000Y-83770000D01*
X197005000Y-83560000D01*
X196985000Y-83450000D01*
X196974811Y-83403130D01*
X196935351Y-83221613D01*
X196935348Y-83221600D01*
X196935000Y-83220000D01*
X196875000Y-83000000D01*
X196795000Y-82750000D01*
X196755000Y-82640000D01*
X196754841Y-82639587D01*
X196754821Y-82639533D01*
X196705427Y-82511110D01*
X196705426Y-82511106D01*
X196705000Y-82510000D01*
X196704537Y-82508921D01*
X196704527Y-82508895D01*
X196667479Y-82422450D01*
X196645000Y-82370000D01*
X196585000Y-82240000D01*
X196515000Y-82100000D01*
X196435000Y-81950000D01*
X196315000Y-81750000D01*
X196205000Y-81580000D01*
X196045000Y-81360000D01*
X195915000Y-81200000D01*
X195715000Y-80970000D01*
X195485000Y-80740000D01*
X195315000Y-80590000D01*
X195115000Y-80430000D01*
X195052366Y-80384069D01*
X194966142Y-80320837D01*
X194966128Y-80320827D01*
X194965000Y-80320000D01*
X194874645Y-80259763D01*
X194785449Y-80200299D01*
X194785000Y-80200000D01*
X194645000Y-80110000D01*
X194485000Y-80020000D01*
X194469778Y-80011941D01*
X194428090Y-79989871D01*
X194315000Y-79930000D01*
X194235000Y-79890000D01*
X194234152Y-79889609D01*
X194234132Y-79889599D01*
X194106045Y-79830482D01*
X194106031Y-79830476D01*
X194105000Y-79830000D01*
X194103972Y-79829572D01*
X194103950Y-79829562D01*
X193985663Y-79780276D01*
X193985645Y-79780269D01*
X193985000Y-79780000D01*
X193984361Y-79779751D01*
X193984325Y-79779737D01*
X193805628Y-79710244D01*
X193805611Y-79710238D01*
X193805000Y-79710000D01*
X193695000Y-79670000D01*
X193694192Y-79669731D01*
X193694170Y-79669723D01*
X193605882Y-79640294D01*
X193605000Y-79640000D01*
X193505000Y-79610000D01*
X193504665Y-79609904D01*
X193504596Y-79609884D01*
X193366032Y-79570295D01*
X193365000Y-79570000D01*
X193165000Y-79520000D01*
X193163540Y-79519708D01*
X193015511Y-79490102D01*
X193015489Y-79490098D01*
X193015000Y-79490000D01*
X193014516Y-79489912D01*
X192905448Y-79470081D01*
X192905396Y-79470072D01*
X192905000Y-79470000D01*
X192785000Y-79450000D01*
X192783718Y-79449840D01*
X192783706Y-79449838D01*
X192626059Y-79430132D01*
X192626037Y-79430130D01*
X192625000Y-79430000D01*
X192587723Y-79426611D01*
X192406567Y-79410142D01*
X192406549Y-79410141D01*
X192405000Y-79410000D01*
X192403431Y-79409937D01*
X192403412Y-79409936D01*
X192156287Y-79400051D01*
X192156263Y-79400051D01*
X192155000Y-79400000D01*
X192075000Y-79400000D01*
X192074173Y-79400024D01*
X192074146Y-79400024D01*
X191863503Y-79406043D01*
X191725000Y-79410000D01*
X191721942Y-79410390D01*
X191721934Y-79410391D01*
X191257185Y-79469721D01*
X191257183Y-79469721D01*
X191255000Y-79470000D01*
X191252840Y-79470432D01*
X191252834Y-79470433D01*
X191055607Y-79509879D01*
X190855000Y-79550000D01*
X190851715Y-79551040D01*
X190851712Y-79551041D01*
X190259085Y-79738706D01*
X190259080Y-79738708D01*
X190255000Y-79740000D01*
X190251137Y-79741830D01*
X190251129Y-79741833D01*
X190063982Y-79830482D01*
X189685000Y-80010000D01*
X189478751Y-80138906D01*
X189207892Y-80308192D01*
X189207886Y-80308196D01*
X189205000Y-80310000D01*
X189191234Y-80320837D01*
X188738204Y-80677477D01*
X188738198Y-80677483D01*
X188735000Y-80680000D01*
X188285000Y-81140000D01*
X188282838Y-81142769D01*
X188282838Y-81142770D01*
X188238171Y-81200000D01*
X187965000Y-81550000D01*
X187705000Y-81960000D01*
X187485000Y-82420000D01*
X187295000Y-82920000D01*
X187294097Y-82923611D01*
X187294096Y-82923615D01*
X187275000Y-83000000D01*
X187175000Y-83400000D01*
X187174545Y-83403120D01*
X187174543Y-83403130D01*
X187105423Y-83877096D01*
X187105422Y-83877107D01*
X187105000Y-83880000D01*
X187075000Y-84460000D01*
X182075000Y-84460000D01*
X182075000Y-84300000D01*
X182065000Y-84060000D01*
X182035000Y-83770000D01*
X182005000Y-83560000D01*
X181985000Y-83450000D01*
X181974811Y-83403130D01*
X181935351Y-83221613D01*
X181935348Y-83221600D01*
X181935000Y-83220000D01*
X181875000Y-83000000D01*
X181795000Y-82750000D01*
X181755000Y-82640000D01*
X181754841Y-82639587D01*
X181754821Y-82639533D01*
X181705427Y-82511110D01*
X181705426Y-82511106D01*
X181705000Y-82510000D01*
X181704537Y-82508921D01*
X181704527Y-82508895D01*
X181667479Y-82422450D01*
X181645000Y-82370000D01*
X181585000Y-82240000D01*
X181515000Y-82100000D01*
X181435000Y-81950000D01*
X181315000Y-81750000D01*
X181205000Y-81580000D01*
X181045000Y-81360000D01*
X180915000Y-81200000D01*
X180715000Y-80970000D01*
X180485000Y-80740000D01*
X180315000Y-80590000D01*
X180115000Y-80430000D01*
X180052366Y-80384069D01*
X179966142Y-80320837D01*
X179966128Y-80320827D01*
X179965000Y-80320000D01*
X179874645Y-80259763D01*
X179785449Y-80200299D01*
X179785000Y-80200000D01*
X179645000Y-80110000D01*
X179485000Y-80020000D01*
X179469778Y-80011941D01*
X179428090Y-79989871D01*
X179315000Y-79930000D01*
X179235000Y-79890000D01*
X179234152Y-79889609D01*
X179234132Y-79889599D01*
X179106045Y-79830482D01*
X179106031Y-79830476D01*
X179105000Y-79830000D01*
X179103972Y-79829572D01*
X179103950Y-79829562D01*
X178985663Y-79780276D01*
X178985645Y-79780269D01*
X178985000Y-79780000D01*
X178984361Y-79779751D01*
X178984325Y-79779737D01*
X178805628Y-79710244D01*
X178805611Y-79710238D01*
X178805000Y-79710000D01*
X178695000Y-79670000D01*
X178694192Y-79669731D01*
X178694170Y-79669723D01*
X178605882Y-79640294D01*
X178605000Y-79640000D01*
X178505000Y-79610000D01*
X178504665Y-79609904D01*
X178504596Y-79609884D01*
X178366032Y-79570295D01*
X178365000Y-79570000D01*
X178165000Y-79520000D01*
X178163540Y-79519708D01*
X178015511Y-79490102D01*
X178015489Y-79490098D01*
X178015000Y-79490000D01*
X178014516Y-79489912D01*
X177905448Y-79470081D01*
X177905396Y-79470072D01*
X177905000Y-79470000D01*
X177785000Y-79450000D01*
X177783718Y-79449840D01*
X177783706Y-79449838D01*
X177626059Y-79430132D01*
X177626037Y-79430130D01*
X177625000Y-79430000D01*
X177587723Y-79426611D01*
X177406567Y-79410142D01*
X177406549Y-79410141D01*
X177405000Y-79410000D01*
X177403431Y-79409937D01*
X177403412Y-79409936D01*
X177156287Y-79400051D01*
X177156263Y-79400051D01*
X177155000Y-79400000D01*
X177075000Y-79400000D01*
X177074173Y-79400024D01*
X177074146Y-79400024D01*
X176863503Y-79406043D01*
X176725000Y-79410000D01*
X176721942Y-79410390D01*
X176721934Y-79410391D01*
X176257185Y-79469721D01*
X176257183Y-79469721D01*
X176255000Y-79470000D01*
X176252840Y-79470432D01*
X176252834Y-79470433D01*
X176055607Y-79509879D01*
X175855000Y-79550000D01*
X175851715Y-79551040D01*
X175851712Y-79551041D01*
X175259085Y-79738706D01*
X175259080Y-79738708D01*
X175255000Y-79740000D01*
X175251137Y-79741830D01*
X175251129Y-79741833D01*
X175063982Y-79830482D01*
X174685000Y-80010000D01*
X174478751Y-80138906D01*
X174207892Y-80308192D01*
X174207886Y-80308196D01*
X174205000Y-80310000D01*
X174191234Y-80320837D01*
X173738204Y-80677477D01*
X173738198Y-80677483D01*
X173735000Y-80680000D01*
X173285000Y-81140000D01*
X173282838Y-81142769D01*
X173282838Y-81142770D01*
X173238171Y-81200000D01*
X172965000Y-81550000D01*
X172705000Y-81960000D01*
X172485000Y-82420000D01*
X172295000Y-82920000D01*
X172294097Y-82923611D01*
X172294096Y-82923615D01*
X172275000Y-83000000D01*
X172175000Y-83400000D01*
X172174545Y-83403120D01*
X172174543Y-83403130D01*
X172105423Y-83877096D01*
X172105422Y-83877107D01*
X172105000Y-83880000D01*
X172075000Y-84460000D01*
X167875000Y-84460000D01*
X167875000Y-84300000D01*
X167865000Y-84060000D01*
X167835000Y-83770000D01*
X167805000Y-83560000D01*
X167785000Y-83450000D01*
X167774811Y-83403130D01*
X167735351Y-83221613D01*
X167735348Y-83221600D01*
X167735000Y-83220000D01*
X167675000Y-83000000D01*
X167595000Y-82750000D01*
X167555000Y-82640000D01*
X167554841Y-82639587D01*
X167554821Y-82639533D01*
X167505427Y-82511110D01*
X167505426Y-82511106D01*
X167505000Y-82510000D01*
X167504537Y-82508921D01*
X167504527Y-82508895D01*
X167467479Y-82422450D01*
X167445000Y-82370000D01*
X167385000Y-82240000D01*
X167315000Y-82100000D01*
X167235000Y-81950000D01*
X167115000Y-81750000D01*
X167005000Y-81580000D01*
X166845000Y-81360000D01*
X166715000Y-81200000D01*
X166515000Y-80970000D01*
X166285000Y-80740000D01*
X166115000Y-80590000D01*
X165915000Y-80430000D01*
X165852366Y-80384069D01*
X165766142Y-80320837D01*
X165766128Y-80320827D01*
X165765000Y-80320000D01*
X165674645Y-80259763D01*
X165585449Y-80200299D01*
X165585000Y-80200000D01*
X165445000Y-80110000D01*
X165285000Y-80020000D01*
X165269778Y-80011941D01*
X165228090Y-79989871D01*
X165115000Y-79930000D01*
X165035000Y-79890000D01*
X165034152Y-79889609D01*
X165034132Y-79889599D01*
X164906045Y-79830482D01*
X164906031Y-79830476D01*
X164905000Y-79830000D01*
X164903972Y-79829572D01*
X164903950Y-79829562D01*
X164785663Y-79780276D01*
X164785645Y-79780269D01*
X164785000Y-79780000D01*
X164784361Y-79779751D01*
X164784325Y-79779737D01*
X164605628Y-79710244D01*
X164605611Y-79710238D01*
X164605000Y-79710000D01*
X164495000Y-79670000D01*
X164494192Y-79669731D01*
X164494170Y-79669723D01*
X164405882Y-79640294D01*
X164405000Y-79640000D01*
X164305000Y-79610000D01*
X164304665Y-79609904D01*
X164304596Y-79609884D01*
X164166032Y-79570295D01*
X164165000Y-79570000D01*
X163965000Y-79520000D01*
X163963540Y-79519708D01*
X163815511Y-79490102D01*
X163815489Y-79490098D01*
X163815000Y-79490000D01*
X163814516Y-79489912D01*
X163705448Y-79470081D01*
X163705396Y-79470072D01*
X163705000Y-79470000D01*
X163585000Y-79450000D01*
X163583718Y-79449840D01*
X163583706Y-79449838D01*
X163426059Y-79430132D01*
X163426037Y-79430130D01*
X163425000Y-79430000D01*
X163387723Y-79426611D01*
X163206567Y-79410142D01*
X163206549Y-79410141D01*
X163205000Y-79410000D01*
X163203431Y-79409937D01*
X163203412Y-79409936D01*
X162956287Y-79400051D01*
X162956263Y-79400051D01*
X162955000Y-79400000D01*
X162875000Y-79400000D01*
X162874173Y-79400024D01*
X162874146Y-79400024D01*
X162663503Y-79406043D01*
X162525000Y-79410000D01*
X162521942Y-79410390D01*
X162521934Y-79410391D01*
X162057185Y-79469721D01*
X162057183Y-79469721D01*
X162055000Y-79470000D01*
X162052840Y-79470432D01*
X162052834Y-79470433D01*
X161855607Y-79509879D01*
X161655000Y-79550000D01*
X161651715Y-79551040D01*
X161651712Y-79551041D01*
X161059085Y-79738706D01*
X161059080Y-79738708D01*
X161055000Y-79740000D01*
X161051137Y-79741830D01*
X161051129Y-79741833D01*
X160863982Y-79830482D01*
X160485000Y-80010000D01*
X160278751Y-80138906D01*
X160007892Y-80308192D01*
X160007886Y-80308196D01*
X160005000Y-80310000D01*
X159991234Y-80320837D01*
X159538204Y-80677477D01*
X159538198Y-80677483D01*
X159535000Y-80680000D01*
X159085000Y-81140000D01*
X159082838Y-81142769D01*
X159082838Y-81142770D01*
X159038171Y-81200000D01*
X158765000Y-81550000D01*
X158505000Y-81960000D01*
X158285000Y-82420000D01*
X158095000Y-82920000D01*
X158094097Y-82923611D01*
X158094096Y-82923615D01*
X158075000Y-83000000D01*
X157975000Y-83400000D01*
X157974545Y-83403120D01*
X157974543Y-83403130D01*
X157905423Y-83877096D01*
X157905422Y-83877107D01*
X157905000Y-83880000D01*
X157875000Y-84460000D01*
X154675000Y-84460000D01*
X154675000Y-84300000D01*
X154665000Y-84060000D01*
X154635000Y-83770000D01*
X154605000Y-83560000D01*
X154585000Y-83450000D01*
X154574811Y-83403130D01*
X154535351Y-83221613D01*
X154535348Y-83221600D01*
X154535000Y-83220000D01*
X154475000Y-83000000D01*
X154395000Y-82750000D01*
X154355000Y-82640000D01*
X154354841Y-82639587D01*
X154354821Y-82639533D01*
X154305427Y-82511110D01*
X154305426Y-82511106D01*
X154305000Y-82510000D01*
X154304537Y-82508921D01*
X154304527Y-82508895D01*
X154267479Y-82422450D01*
X154245000Y-82370000D01*
X154185000Y-82240000D01*
X154115000Y-82100000D01*
X154035000Y-81950000D01*
X153915000Y-81750000D01*
X153805000Y-81580000D01*
X153645000Y-81360000D01*
X153515000Y-81200000D01*
X153315000Y-80970000D01*
X153085000Y-80740000D01*
X152915000Y-80590000D01*
X152715000Y-80430000D01*
X152652366Y-80384069D01*
X152566142Y-80320837D01*
X152566128Y-80320827D01*
X152565000Y-80320000D01*
X152474645Y-80259763D01*
X152385449Y-80200299D01*
X152385000Y-80200000D01*
X152245000Y-80110000D01*
X152085000Y-80020000D01*
X152069778Y-80011941D01*
X152028090Y-79989871D01*
X151915000Y-79930000D01*
X151835000Y-79890000D01*
X151834152Y-79889609D01*
X151834132Y-79889599D01*
X151706045Y-79830482D01*
X151706031Y-79830476D01*
X151705000Y-79830000D01*
X151703972Y-79829572D01*
X151703950Y-79829562D01*
X151585663Y-79780276D01*
X151585645Y-79780269D01*
X151585000Y-79780000D01*
X151584361Y-79779751D01*
X151584325Y-79779737D01*
X151405628Y-79710244D01*
X151405611Y-79710238D01*
X151405000Y-79710000D01*
X151295000Y-79670000D01*
X151294192Y-79669731D01*
X151294170Y-79669723D01*
X151205882Y-79640294D01*
X151205000Y-79640000D01*
X151105000Y-79610000D01*
X151104665Y-79609904D01*
X151104596Y-79609884D01*
X150966032Y-79570295D01*
X150965000Y-79570000D01*
X150765000Y-79520000D01*
X150763540Y-79519708D01*
X150615511Y-79490102D01*
X150615489Y-79490098D01*
X150615000Y-79490000D01*
X150614516Y-79489912D01*
X150505448Y-79470081D01*
X150505396Y-79470072D01*
X150505000Y-79470000D01*
X150385000Y-79450000D01*
X150383718Y-79449840D01*
X150383706Y-79449838D01*
X150226059Y-79430132D01*
X150226037Y-79430130D01*
X150225000Y-79430000D01*
X150187723Y-79426611D01*
X150006567Y-79410142D01*
X150006549Y-79410141D01*
X150005000Y-79410000D01*
X150003431Y-79409937D01*
X150003412Y-79409936D01*
X149756287Y-79400051D01*
X149756263Y-79400051D01*
X149755000Y-79400000D01*
X149675000Y-79400000D01*
X149674173Y-79400024D01*
X149674146Y-79400024D01*
X149463503Y-79406043D01*
X149325000Y-79410000D01*
X149321942Y-79410390D01*
X149321934Y-79410391D01*
X148857185Y-79469721D01*
X148857183Y-79469721D01*
X148855000Y-79470000D01*
X148852840Y-79470432D01*
X148852834Y-79470433D01*
X148655607Y-79509879D01*
X148455000Y-79550000D01*
X148451715Y-79551040D01*
X148451712Y-79551041D01*
X147859085Y-79738706D01*
X147859080Y-79738708D01*
X147855000Y-79740000D01*
X147851137Y-79741830D01*
X147851129Y-79741833D01*
X147663982Y-79830482D01*
X147285000Y-80010000D01*
X147078751Y-80138906D01*
X146807892Y-80308192D01*
X146807886Y-80308196D01*
X146805000Y-80310000D01*
X146791234Y-80320837D01*
X146338204Y-80677477D01*
X146338198Y-80677483D01*
X146335000Y-80680000D01*
X145885000Y-81140000D01*
X145882838Y-81142769D01*
X145882838Y-81142770D01*
X145838171Y-81200000D01*
X145565000Y-81550000D01*
X145305000Y-81960000D01*
X145085000Y-82420000D01*
X144895000Y-82920000D01*
X144894097Y-82923611D01*
X144894096Y-82923615D01*
X144875000Y-83000000D01*
X144775000Y-83400000D01*
X144774545Y-83403120D01*
X144774543Y-83403130D01*
X144705423Y-83877096D01*
X144705422Y-83877107D01*
X144705000Y-83880000D01*
X144675000Y-84460000D01*
X142725000Y-84460000D01*
X142725000Y-84300000D01*
X142715000Y-84060000D01*
X142685000Y-83770000D01*
X142655000Y-83560000D01*
X142635000Y-83450000D01*
X142624811Y-83403130D01*
X142585351Y-83221613D01*
X142585348Y-83221600D01*
X142585000Y-83220000D01*
X142525000Y-83000000D01*
X142445000Y-82750000D01*
X142405000Y-82640000D01*
X142404841Y-82639587D01*
X142404821Y-82639533D01*
X142355427Y-82511110D01*
X142355426Y-82511106D01*
X142355000Y-82510000D01*
X142354537Y-82508921D01*
X142354527Y-82508895D01*
X142317479Y-82422450D01*
X142295000Y-82370000D01*
X142235000Y-82240000D01*
X142165000Y-82100000D01*
X142085000Y-81950000D01*
X141965000Y-81750000D01*
X141855000Y-81580000D01*
X141695000Y-81360000D01*
X141565000Y-81200000D01*
X141365000Y-80970000D01*
X141135000Y-80740000D01*
X140965000Y-80590000D01*
X140765000Y-80430000D01*
X140702366Y-80384069D01*
X140616142Y-80320837D01*
X140616128Y-80320827D01*
X140615000Y-80320000D01*
X140524645Y-80259763D01*
X140435449Y-80200299D01*
X140435000Y-80200000D01*
X140295000Y-80110000D01*
X140135000Y-80020000D01*
X140119778Y-80011941D01*
X140078090Y-79989871D01*
X139965000Y-79930000D01*
X139885000Y-79890000D01*
X139884152Y-79889609D01*
X139884132Y-79889599D01*
X139756045Y-79830482D01*
X139756031Y-79830476D01*
X139755000Y-79830000D01*
X139753972Y-79829572D01*
X139753950Y-79829562D01*
X139635663Y-79780276D01*
X139635645Y-79780269D01*
X139635000Y-79780000D01*
X139634361Y-79779751D01*
X139634325Y-79779737D01*
X139455628Y-79710244D01*
X139455611Y-79710238D01*
X139455000Y-79710000D01*
X139345000Y-79670000D01*
X139344192Y-79669731D01*
X139344170Y-79669723D01*
X139255882Y-79640294D01*
X139255000Y-79640000D01*
X139155000Y-79610000D01*
X139154665Y-79609904D01*
X139154596Y-79609884D01*
X139016032Y-79570295D01*
X139015000Y-79570000D01*
X138815000Y-79520000D01*
X138813540Y-79519708D01*
X138665511Y-79490102D01*
X138665489Y-79490098D01*
X138665000Y-79490000D01*
X138664516Y-79489912D01*
X138555448Y-79470081D01*
X138555396Y-79470072D01*
X138555000Y-79470000D01*
X138435000Y-79450000D01*
X138433718Y-79449840D01*
X138433706Y-79449838D01*
X138276059Y-79430132D01*
X138276037Y-79430130D01*
X138275000Y-79430000D01*
X138237723Y-79426611D01*
X138056567Y-79410142D01*
X138056549Y-79410141D01*
X138055000Y-79410000D01*
X138053431Y-79409937D01*
X138053412Y-79409936D01*
X137806287Y-79400051D01*
X137806263Y-79400051D01*
X137805000Y-79400000D01*
X137725000Y-79400000D01*
X137724173Y-79400024D01*
X137724146Y-79400024D01*
X137513503Y-79406043D01*
X137375000Y-79410000D01*
X137371942Y-79410390D01*
X137371934Y-79410391D01*
X136907185Y-79469721D01*
X136907183Y-79469721D01*
X136905000Y-79470000D01*
X136902840Y-79470432D01*
X136902834Y-79470433D01*
X136705607Y-79509879D01*
X136505000Y-79550000D01*
X136501715Y-79551040D01*
X136501712Y-79551041D01*
X135909085Y-79738706D01*
X135909080Y-79738708D01*
X135905000Y-79740000D01*
X135901137Y-79741830D01*
X135901129Y-79741833D01*
X135713982Y-79830482D01*
X135335000Y-80010000D01*
X135128751Y-80138906D01*
X134857892Y-80308192D01*
X134857886Y-80308196D01*
X134855000Y-80310000D01*
X134841234Y-80320837D01*
X134388204Y-80677477D01*
X134388198Y-80677483D01*
X134385000Y-80680000D01*
X133935000Y-81140000D01*
X133932838Y-81142769D01*
X133932838Y-81142770D01*
X133888171Y-81200000D01*
X133615000Y-81550000D01*
X133355000Y-81960000D01*
X133135000Y-82420000D01*
X132945000Y-82920000D01*
X132944097Y-82923611D01*
X132944096Y-82923615D01*
X132925000Y-83000000D01*
X132825000Y-83400000D01*
X132824545Y-83403120D01*
X132824543Y-83403130D01*
X132755423Y-83877096D01*
X132755422Y-83877107D01*
X132755000Y-83880000D01*
X132725000Y-84460000D01*
X112758000Y-84460000D01*
X112758000Y-61840000D01*
X131700000Y-61840000D01*
X131700184Y-61843126D01*
X131715159Y-62097695D01*
X131740000Y-62520000D01*
X131740575Y-62523384D01*
X131740575Y-62523387D01*
X131776710Y-62736179D01*
X131830000Y-63050000D01*
X131980000Y-63610000D01*
X132210000Y-64220000D01*
X132520000Y-64830000D01*
X132840000Y-65320000D01*
X133280000Y-65860000D01*
X133282568Y-65862507D01*
X133282570Y-65862509D01*
X133363854Y-65941857D01*
X133700000Y-66270000D01*
X133910000Y-66450000D01*
X133910634Y-66450515D01*
X133910653Y-66450531D01*
X133971538Y-66500000D01*
X134070000Y-66580000D01*
X134071457Y-66581052D01*
X134249055Y-66709318D01*
X134249072Y-66709330D01*
X134250000Y-66710000D01*
X134278578Y-66729052D01*
X134459105Y-66849404D01*
X134459132Y-66849422D01*
X134460000Y-66850000D01*
X134670000Y-66980000D01*
X134850000Y-67080000D01*
X134980107Y-67145054D01*
X135108979Y-67209490D01*
X135109001Y-67209500D01*
X135110000Y-67210000D01*
X135330000Y-67310000D01*
X135331110Y-67310454D01*
X135331126Y-67310461D01*
X135524649Y-67389629D01*
X135550000Y-67400000D01*
X135551167Y-67400424D01*
X135551179Y-67400429D01*
X135657951Y-67439255D01*
X135770000Y-67480000D01*
X135829324Y-67498876D01*
X135989109Y-67549717D01*
X135989139Y-67549726D01*
X135990000Y-67550000D01*
X135990885Y-67550253D01*
X135990912Y-67550261D01*
X136146954Y-67594844D01*
X136200000Y-67610000D01*
X136360000Y-67650000D01*
X136361460Y-67650292D01*
X136609489Y-67699898D01*
X136609511Y-67699902D01*
X136610000Y-67700000D01*
X136610484Y-67700088D01*
X136719168Y-67719849D01*
X136719187Y-67719852D01*
X136720000Y-67720000D01*
X136777961Y-67728917D01*
X136849354Y-67739901D01*
X136849390Y-67739906D01*
X136850000Y-67740000D01*
X137000000Y-67760000D01*
X137220000Y-67780000D01*
X137590000Y-67800000D01*
X137730000Y-67800000D01*
X137731018Y-67799966D01*
X137731022Y-67799966D01*
X138028803Y-67790040D01*
X138028808Y-67790040D01*
X138030000Y-67790000D01*
X138110374Y-67784259D01*
X138308339Y-67770119D01*
X138308352Y-67770118D01*
X138310000Y-67770000D01*
X138311652Y-67769793D01*
X138311657Y-67769793D01*
X138359037Y-67763870D01*
X138550000Y-67740000D01*
X138781490Y-67700088D01*
X138838916Y-67690187D01*
X138838922Y-67690186D01*
X138840000Y-67690000D01*
X138940954Y-67668968D01*
X139078303Y-67640354D01*
X139078319Y-67640350D01*
X139080000Y-67640000D01*
X139081670Y-67639555D01*
X139081677Y-67639553D01*
X139259901Y-67592026D01*
X139380000Y-67560000D01*
X139381267Y-67559604D01*
X139381281Y-67559600D01*
X139447176Y-67539007D01*
X139540000Y-67510000D01*
X139540520Y-67509827D01*
X139748129Y-67440624D01*
X139750000Y-67440000D01*
X139751838Y-67439255D01*
X140118553Y-67290587D01*
X140118566Y-67290581D01*
X140120000Y-67290000D01*
X140121406Y-67289347D01*
X140121418Y-67289342D01*
X140398296Y-67160791D01*
X140400000Y-67160000D01*
X140660000Y-67020000D01*
X140661051Y-67019379D01*
X140878542Y-66890862D01*
X140878554Y-66890854D01*
X140880000Y-66890000D01*
X140881403Y-66889065D01*
X140881420Y-66889054D01*
X141118672Y-66730886D01*
X141118690Y-66730873D01*
X141120000Y-66730000D01*
X141146069Y-66710659D01*
X141428389Y-66501195D01*
X141430000Y-66500000D01*
X141578287Y-66374526D01*
X141688359Y-66281389D01*
X141688367Y-66281382D01*
X141690000Y-66280000D01*
X142040000Y-65940000D01*
X142440000Y-65480000D01*
X142441358Y-65478190D01*
X142441368Y-65478177D01*
X142559101Y-65321199D01*
X142559106Y-65321192D01*
X142560000Y-65320000D01*
X142560824Y-65318784D01*
X142560838Y-65318764D01*
X142768580Y-65012097D01*
X142768586Y-65012087D01*
X142770000Y-65010000D01*
X143070000Y-64480000D01*
X143290000Y-63980000D01*
X143490000Y-63380000D01*
X143630000Y-62740000D01*
X143690000Y-62100000D01*
X143695200Y-61840000D01*
X145600000Y-61840000D01*
X145600184Y-61843126D01*
X145615159Y-62097695D01*
X145640000Y-62520000D01*
X145640575Y-62523384D01*
X145640575Y-62523387D01*
X145676710Y-62736179D01*
X145730000Y-63050000D01*
X145880000Y-63610000D01*
X146110000Y-64220000D01*
X146420000Y-64830000D01*
X146740000Y-65320000D01*
X147180000Y-65860000D01*
X147182568Y-65862507D01*
X147182570Y-65862509D01*
X147263854Y-65941857D01*
X147600000Y-66270000D01*
X147810000Y-66450000D01*
X147810634Y-66450515D01*
X147810653Y-66450531D01*
X147871538Y-66500000D01*
X147970000Y-66580000D01*
X147971457Y-66581052D01*
X148149055Y-66709318D01*
X148149072Y-66709330D01*
X148150000Y-66710000D01*
X148178578Y-66729052D01*
X148359105Y-66849404D01*
X148359132Y-66849422D01*
X148360000Y-66850000D01*
X148570000Y-66980000D01*
X148750000Y-67080000D01*
X148880107Y-67145054D01*
X149008979Y-67209490D01*
X149009001Y-67209500D01*
X149010000Y-67210000D01*
X149230000Y-67310000D01*
X149231110Y-67310454D01*
X149231126Y-67310461D01*
X149424649Y-67389629D01*
X149450000Y-67400000D01*
X149451167Y-67400424D01*
X149451179Y-67400429D01*
X149557951Y-67439255D01*
X149670000Y-67480000D01*
X149729324Y-67498876D01*
X149889109Y-67549717D01*
X149889139Y-67549726D01*
X149890000Y-67550000D01*
X149890885Y-67550253D01*
X149890912Y-67550261D01*
X150046954Y-67594844D01*
X150100000Y-67610000D01*
X150260000Y-67650000D01*
X150261460Y-67650292D01*
X150509489Y-67699898D01*
X150509511Y-67699902D01*
X150510000Y-67700000D01*
X150510484Y-67700088D01*
X150619168Y-67719849D01*
X150619187Y-67719852D01*
X150620000Y-67720000D01*
X150677961Y-67728917D01*
X150749354Y-67739901D01*
X150749390Y-67739906D01*
X150750000Y-67740000D01*
X150900000Y-67760000D01*
X151120000Y-67780000D01*
X151490000Y-67800000D01*
X151630000Y-67800000D01*
X151631018Y-67799966D01*
X151631022Y-67799966D01*
X151928803Y-67790040D01*
X151928808Y-67790040D01*
X151930000Y-67790000D01*
X152010374Y-67784259D01*
X152208339Y-67770119D01*
X152208352Y-67770118D01*
X152210000Y-67770000D01*
X152211652Y-67769793D01*
X152211657Y-67769793D01*
X152259037Y-67763870D01*
X152450000Y-67740000D01*
X152681490Y-67700088D01*
X152738916Y-67690187D01*
X152738922Y-67690186D01*
X152740000Y-67690000D01*
X152840954Y-67668968D01*
X152978303Y-67640354D01*
X152978319Y-67640350D01*
X152980000Y-67640000D01*
X152981670Y-67639555D01*
X152981677Y-67639553D01*
X153159901Y-67592026D01*
X153280000Y-67560000D01*
X153281267Y-67559604D01*
X153281281Y-67559600D01*
X153347176Y-67539007D01*
X153440000Y-67510000D01*
X153440520Y-67509827D01*
X153648129Y-67440624D01*
X153650000Y-67440000D01*
X153651838Y-67439255D01*
X154018553Y-67290587D01*
X154018566Y-67290581D01*
X154020000Y-67290000D01*
X154021406Y-67289347D01*
X154021418Y-67289342D01*
X154298296Y-67160791D01*
X154300000Y-67160000D01*
X154560000Y-67020000D01*
X154561051Y-67019379D01*
X154778542Y-66890862D01*
X154778554Y-66890854D01*
X154780000Y-66890000D01*
X154781403Y-66889065D01*
X154781420Y-66889054D01*
X155018672Y-66730886D01*
X155018690Y-66730873D01*
X155020000Y-66730000D01*
X155046069Y-66710659D01*
X155328389Y-66501195D01*
X155330000Y-66500000D01*
X155478287Y-66374526D01*
X155588359Y-66281389D01*
X155588367Y-66281382D01*
X155590000Y-66280000D01*
X155940000Y-65940000D01*
X156340000Y-65480000D01*
X156341358Y-65478190D01*
X156341368Y-65478177D01*
X156459101Y-65321199D01*
X156459106Y-65321192D01*
X156460000Y-65320000D01*
X156460824Y-65318784D01*
X156460838Y-65318764D01*
X156668580Y-65012097D01*
X156668586Y-65012087D01*
X156670000Y-65010000D01*
X156970000Y-64480000D01*
X157190000Y-63980000D01*
X157390000Y-63380000D01*
X157530000Y-62740000D01*
X157590000Y-62100000D01*
X157595200Y-61840000D01*
X160800000Y-61840000D01*
X160800184Y-61843126D01*
X160815159Y-62097695D01*
X160840000Y-62520000D01*
X160840575Y-62523384D01*
X160840575Y-62523387D01*
X160876710Y-62736179D01*
X160930000Y-63050000D01*
X161080000Y-63610000D01*
X161310000Y-64220000D01*
X161620000Y-64830000D01*
X161940000Y-65320000D01*
X162380000Y-65860000D01*
X162382568Y-65862507D01*
X162382570Y-65862509D01*
X162463854Y-65941857D01*
X162800000Y-66270000D01*
X163010000Y-66450000D01*
X163010634Y-66450515D01*
X163010653Y-66450531D01*
X163071538Y-66500000D01*
X163170000Y-66580000D01*
X163171457Y-66581052D01*
X163349055Y-66709318D01*
X163349072Y-66709330D01*
X163350000Y-66710000D01*
X163378578Y-66729052D01*
X163559105Y-66849404D01*
X163559132Y-66849422D01*
X163560000Y-66850000D01*
X163770000Y-66980000D01*
X163950000Y-67080000D01*
X164080107Y-67145054D01*
X164208979Y-67209490D01*
X164209001Y-67209500D01*
X164210000Y-67210000D01*
X164430000Y-67310000D01*
X164431110Y-67310454D01*
X164431126Y-67310461D01*
X164624649Y-67389629D01*
X164650000Y-67400000D01*
X164651167Y-67400424D01*
X164651179Y-67400429D01*
X164757951Y-67439255D01*
X164870000Y-67480000D01*
X164929324Y-67498876D01*
X165089109Y-67549717D01*
X165089139Y-67549726D01*
X165090000Y-67550000D01*
X165090885Y-67550253D01*
X165090912Y-67550261D01*
X165246954Y-67594844D01*
X165300000Y-67610000D01*
X165460000Y-67650000D01*
X165461460Y-67650292D01*
X165709489Y-67699898D01*
X165709511Y-67699902D01*
X165710000Y-67700000D01*
X165710484Y-67700088D01*
X165819168Y-67719849D01*
X165819187Y-67719852D01*
X165820000Y-67720000D01*
X165877961Y-67728917D01*
X165949354Y-67739901D01*
X165949390Y-67739906D01*
X165950000Y-67740000D01*
X166100000Y-67760000D01*
X166320000Y-67780000D01*
X166690000Y-67800000D01*
X166830000Y-67800000D01*
X166831018Y-67799966D01*
X166831022Y-67799966D01*
X167128803Y-67790040D01*
X167128808Y-67790040D01*
X167130000Y-67790000D01*
X167210374Y-67784259D01*
X167408339Y-67770119D01*
X167408352Y-67770118D01*
X167410000Y-67770000D01*
X167411652Y-67769793D01*
X167411657Y-67769793D01*
X167459037Y-67763870D01*
X167650000Y-67740000D01*
X167881490Y-67700088D01*
X167938916Y-67690187D01*
X167938922Y-67690186D01*
X167940000Y-67690000D01*
X168040954Y-67668968D01*
X168178303Y-67640354D01*
X168178319Y-67640350D01*
X168180000Y-67640000D01*
X168181670Y-67639555D01*
X168181677Y-67639553D01*
X168359901Y-67592026D01*
X168480000Y-67560000D01*
X168481267Y-67559604D01*
X168481281Y-67559600D01*
X168547176Y-67539007D01*
X168640000Y-67510000D01*
X168640520Y-67509827D01*
X168848129Y-67440624D01*
X168850000Y-67440000D01*
X168851838Y-67439255D01*
X169218553Y-67290587D01*
X169218566Y-67290581D01*
X169220000Y-67290000D01*
X169221406Y-67289347D01*
X169221418Y-67289342D01*
X169498296Y-67160791D01*
X169500000Y-67160000D01*
X169760000Y-67020000D01*
X169761051Y-67019379D01*
X169978542Y-66890862D01*
X169978554Y-66890854D01*
X169980000Y-66890000D01*
X169981403Y-66889065D01*
X169981420Y-66889054D01*
X170218672Y-66730886D01*
X170218690Y-66730873D01*
X170220000Y-66730000D01*
X170246069Y-66710659D01*
X170528389Y-66501195D01*
X170530000Y-66500000D01*
X170678287Y-66374526D01*
X170788359Y-66281389D01*
X170788367Y-66281382D01*
X170790000Y-66280000D01*
X171140000Y-65940000D01*
X171540000Y-65480000D01*
X171541358Y-65478190D01*
X171541368Y-65478177D01*
X171659101Y-65321199D01*
X171659106Y-65321192D01*
X171660000Y-65320000D01*
X171660824Y-65318784D01*
X171660838Y-65318764D01*
X171868580Y-65012097D01*
X171868586Y-65012087D01*
X171870000Y-65010000D01*
X172170000Y-64480000D01*
X172390000Y-63980000D01*
X172590000Y-63380000D01*
X172730000Y-62740000D01*
X172790000Y-62100000D01*
X172795200Y-61840000D01*
X176900000Y-61840000D01*
X176900184Y-61843126D01*
X176915159Y-62097695D01*
X176940000Y-62520000D01*
X176940575Y-62523384D01*
X176940575Y-62523387D01*
X176976710Y-62736179D01*
X177030000Y-63050000D01*
X177180000Y-63610000D01*
X177410000Y-64220000D01*
X177720000Y-64830000D01*
X178040000Y-65320000D01*
X178480000Y-65860000D01*
X178482568Y-65862507D01*
X178482570Y-65862509D01*
X178563854Y-65941857D01*
X178900000Y-66270000D01*
X179110000Y-66450000D01*
X179110634Y-66450515D01*
X179110653Y-66450531D01*
X179171538Y-66500000D01*
X179270000Y-66580000D01*
X179271457Y-66581052D01*
X179449055Y-66709318D01*
X179449072Y-66709330D01*
X179450000Y-66710000D01*
X179478578Y-66729052D01*
X179659105Y-66849404D01*
X179659132Y-66849422D01*
X179660000Y-66850000D01*
X179870000Y-66980000D01*
X180050000Y-67080000D01*
X180180107Y-67145054D01*
X180308979Y-67209490D01*
X180309001Y-67209500D01*
X180310000Y-67210000D01*
X180530000Y-67310000D01*
X180531110Y-67310454D01*
X180531126Y-67310461D01*
X180724649Y-67389629D01*
X180750000Y-67400000D01*
X180751167Y-67400424D01*
X180751179Y-67400429D01*
X180857951Y-67439255D01*
X180970000Y-67480000D01*
X181029324Y-67498876D01*
X181189109Y-67549717D01*
X181189139Y-67549726D01*
X181190000Y-67550000D01*
X181190885Y-67550253D01*
X181190912Y-67550261D01*
X181346954Y-67594844D01*
X181400000Y-67610000D01*
X181560000Y-67650000D01*
X181561460Y-67650292D01*
X181809489Y-67699898D01*
X181809511Y-67699902D01*
X181810000Y-67700000D01*
X181810484Y-67700088D01*
X181919168Y-67719849D01*
X181919187Y-67719852D01*
X181920000Y-67720000D01*
X181977961Y-67728917D01*
X182049354Y-67739901D01*
X182049390Y-67739906D01*
X182050000Y-67740000D01*
X182200000Y-67760000D01*
X182420000Y-67780000D01*
X182790000Y-67800000D01*
X182930000Y-67800000D01*
X182931018Y-67799966D01*
X182931022Y-67799966D01*
X183228803Y-67790040D01*
X183228808Y-67790040D01*
X183230000Y-67790000D01*
X183310374Y-67784259D01*
X183508339Y-67770119D01*
X183508352Y-67770118D01*
X183510000Y-67770000D01*
X183511652Y-67769793D01*
X183511657Y-67769793D01*
X183559037Y-67763870D01*
X183750000Y-67740000D01*
X183981490Y-67700088D01*
X184038916Y-67690187D01*
X184038922Y-67690186D01*
X184040000Y-67690000D01*
X184140954Y-67668968D01*
X184278303Y-67640354D01*
X184278319Y-67640350D01*
X184280000Y-67640000D01*
X184281670Y-67639555D01*
X184281677Y-67639553D01*
X184459901Y-67592026D01*
X184580000Y-67560000D01*
X184581267Y-67559604D01*
X184581281Y-67559600D01*
X184647176Y-67539007D01*
X184740000Y-67510000D01*
X184740520Y-67509827D01*
X184948129Y-67440624D01*
X184950000Y-67440000D01*
X184951838Y-67439255D01*
X185318553Y-67290587D01*
X185318566Y-67290581D01*
X185320000Y-67290000D01*
X185321406Y-67289347D01*
X185321418Y-67289342D01*
X185598296Y-67160791D01*
X185600000Y-67160000D01*
X185860000Y-67020000D01*
X185861051Y-67019379D01*
X186078542Y-66890862D01*
X186078554Y-66890854D01*
X186080000Y-66890000D01*
X186081403Y-66889065D01*
X186081420Y-66889054D01*
X186318672Y-66730886D01*
X186318690Y-66730873D01*
X186320000Y-66730000D01*
X186346069Y-66710659D01*
X186628389Y-66501195D01*
X186630000Y-66500000D01*
X186778287Y-66374526D01*
X186888359Y-66281389D01*
X186888367Y-66281382D01*
X186890000Y-66280000D01*
X187240000Y-65940000D01*
X187640000Y-65480000D01*
X187641358Y-65478190D01*
X187641368Y-65478177D01*
X187759101Y-65321199D01*
X187759106Y-65321192D01*
X187760000Y-65320000D01*
X187760824Y-65318784D01*
X187760838Y-65318764D01*
X187968580Y-65012097D01*
X187968586Y-65012087D01*
X187970000Y-65010000D01*
X188270000Y-64480000D01*
X188490000Y-63980000D01*
X188690000Y-63380000D01*
X188830000Y-62740000D01*
X188890000Y-62100000D01*
X188895200Y-61840000D01*
X193900000Y-61840000D01*
X193900184Y-61843126D01*
X193915159Y-62097695D01*
X193940000Y-62520000D01*
X193940575Y-62523384D01*
X193940575Y-62523387D01*
X193976710Y-62736179D01*
X194030000Y-63050000D01*
X194180000Y-63610000D01*
X194410000Y-64220000D01*
X194720000Y-64830000D01*
X195040000Y-65320000D01*
X195480000Y-65860000D01*
X195482568Y-65862507D01*
X195482570Y-65862509D01*
X195563854Y-65941857D01*
X195900000Y-66270000D01*
X196110000Y-66450000D01*
X196110634Y-66450515D01*
X196110653Y-66450531D01*
X196171538Y-66500000D01*
X196270000Y-66580000D01*
X196271457Y-66581052D01*
X196449055Y-66709318D01*
X196449072Y-66709330D01*
X196450000Y-66710000D01*
X196478578Y-66729052D01*
X196659105Y-66849404D01*
X196659132Y-66849422D01*
X196660000Y-66850000D01*
X196870000Y-66980000D01*
X197050000Y-67080000D01*
X197180107Y-67145054D01*
X197308979Y-67209490D01*
X197309001Y-67209500D01*
X197310000Y-67210000D01*
X197530000Y-67310000D01*
X197531110Y-67310454D01*
X197531126Y-67310461D01*
X197724649Y-67389629D01*
X197750000Y-67400000D01*
X197751167Y-67400424D01*
X197751179Y-67400429D01*
X197857951Y-67439255D01*
X197970000Y-67480000D01*
X198029324Y-67498876D01*
X198189109Y-67549717D01*
X198189139Y-67549726D01*
X198190000Y-67550000D01*
X198190885Y-67550253D01*
X198190912Y-67550261D01*
X198346954Y-67594844D01*
X198400000Y-67610000D01*
X198560000Y-67650000D01*
X198561460Y-67650292D01*
X198809489Y-67699898D01*
X198809511Y-67699902D01*
X198810000Y-67700000D01*
X198810484Y-67700088D01*
X198919168Y-67719849D01*
X198919187Y-67719852D01*
X198920000Y-67720000D01*
X198977961Y-67728917D01*
X199049354Y-67739901D01*
X199049390Y-67739906D01*
X199050000Y-67740000D01*
X199200000Y-67760000D01*
X199420000Y-67780000D01*
X199790000Y-67800000D01*
X199930000Y-67800000D01*
X199931018Y-67799966D01*
X199931022Y-67799966D01*
X200228803Y-67790040D01*
X200228808Y-67790040D01*
X200230000Y-67790000D01*
X200310374Y-67784259D01*
X200508339Y-67770119D01*
X200508352Y-67770118D01*
X200510000Y-67770000D01*
X200511652Y-67769793D01*
X200511657Y-67769793D01*
X200559037Y-67763870D01*
X200750000Y-67740000D01*
X200981490Y-67700088D01*
X201038916Y-67690187D01*
X201038922Y-67690186D01*
X201040000Y-67690000D01*
X201140954Y-67668968D01*
X201278303Y-67640354D01*
X201278319Y-67640350D01*
X201280000Y-67640000D01*
X201281670Y-67639555D01*
X201281677Y-67639553D01*
X201459901Y-67592026D01*
X201580000Y-67560000D01*
X201581267Y-67559604D01*
X201581281Y-67559600D01*
X201647176Y-67539007D01*
X201740000Y-67510000D01*
X201740520Y-67509827D01*
X201948129Y-67440624D01*
X201950000Y-67440000D01*
X201951838Y-67439255D01*
X202318553Y-67290587D01*
X202318566Y-67290581D01*
X202320000Y-67290000D01*
X202321406Y-67289347D01*
X202321418Y-67289342D01*
X202598296Y-67160791D01*
X202600000Y-67160000D01*
X202860000Y-67020000D01*
X202861051Y-67019379D01*
X203078542Y-66890862D01*
X203078554Y-66890854D01*
X203080000Y-66890000D01*
X203081403Y-66889065D01*
X203081420Y-66889054D01*
X203318672Y-66730886D01*
X203318690Y-66730873D01*
X203320000Y-66730000D01*
X203346069Y-66710659D01*
X203628389Y-66501195D01*
X203630000Y-66500000D01*
X203778287Y-66374526D01*
X203888359Y-66281389D01*
X203888367Y-66281382D01*
X203890000Y-66280000D01*
X204240000Y-65940000D01*
X204640000Y-65480000D01*
X204641358Y-65478190D01*
X204641368Y-65478177D01*
X204759101Y-65321199D01*
X204759106Y-65321192D01*
X204760000Y-65320000D01*
X204760824Y-65318784D01*
X204760838Y-65318764D01*
X204968580Y-65012097D01*
X204968586Y-65012087D01*
X204970000Y-65010000D01*
X205270000Y-64480000D01*
X205490000Y-63980000D01*
X205690000Y-63380000D01*
X205830000Y-62740000D01*
X205890000Y-62100000D01*
X205900000Y-61600000D01*
X205880000Y-61310000D01*
X205770000Y-60570000D01*
X205650000Y-60080000D01*
X205390000Y-59370000D01*
X205121880Y-58842697D01*
X205091730Y-58783402D01*
X205091729Y-58783400D01*
X205090000Y-58780000D01*
X204755870Y-58282880D01*
X204682055Y-58173057D01*
X204682052Y-58173054D01*
X204680000Y-58170000D01*
X204260000Y-57680000D01*
X203920000Y-57350000D01*
X203490000Y-56990000D01*
X203487480Y-56988276D01*
X203487475Y-56988272D01*
X203141771Y-56751738D01*
X203110000Y-56730000D01*
X202460000Y-56370000D01*
X201840000Y-56120000D01*
X201836907Y-56119108D01*
X201836896Y-56119104D01*
X201322366Y-55970682D01*
X201322354Y-55970679D01*
X201320000Y-55970000D01*
X200930000Y-55890000D01*
X200710256Y-55860058D01*
X200491394Y-55830236D01*
X200491382Y-55830235D01*
X200489314Y-55829953D01*
X200199314Y-55809953D01*
X200064020Y-55805454D01*
X199902180Y-55800072D01*
X199902166Y-55800072D01*
X199900000Y-55800000D01*
X199897844Y-55800077D01*
X199897830Y-55800077D01*
X199712988Y-55806679D01*
X199620000Y-55810000D01*
X199619442Y-55810031D01*
X199619420Y-55810032D01*
X199262944Y-55829836D01*
X199262935Y-55829837D01*
X199260000Y-55830000D01*
X199257090Y-55830436D01*
X199257085Y-55830437D01*
X198861993Y-55889701D01*
X198860000Y-55890000D01*
X198490000Y-55970000D01*
X198489438Y-55970134D01*
X198489393Y-55970144D01*
X198282692Y-56019359D01*
X198280000Y-56020000D01*
X198277378Y-56020874D01*
X198277371Y-56020876D01*
X198069484Y-56090172D01*
X197860000Y-56160000D01*
X197530000Y-56290000D01*
X197160000Y-56460000D01*
X196660000Y-56750000D01*
X196450000Y-56900000D01*
X195950000Y-57280000D01*
X195420000Y-57810000D01*
X195040000Y-58280000D01*
X195038153Y-58282873D01*
X195038148Y-58282880D01*
X194848012Y-58578648D01*
X194680000Y-58840000D01*
X194500000Y-59190000D01*
X194280000Y-59700000D01*
X194279038Y-59703046D01*
X194279037Y-59703049D01*
X194160000Y-60080000D01*
X194100000Y-60270000D01*
X193980000Y-60820000D01*
X193920000Y-61350000D01*
X193900000Y-61840000D01*
X188895200Y-61840000D01*
X188900000Y-61600000D01*
X188880000Y-61310000D01*
X188770000Y-60570000D01*
X188650000Y-60080000D01*
X188390000Y-59370000D01*
X188121880Y-58842697D01*
X188091730Y-58783402D01*
X188091729Y-58783400D01*
X188090000Y-58780000D01*
X187755870Y-58282880D01*
X187682055Y-58173057D01*
X187682052Y-58173054D01*
X187680000Y-58170000D01*
X187260000Y-57680000D01*
X186920000Y-57350000D01*
X186490000Y-56990000D01*
X186487480Y-56988276D01*
X186487475Y-56988272D01*
X186141771Y-56751738D01*
X186110000Y-56730000D01*
X185460000Y-56370000D01*
X184840000Y-56120000D01*
X184836907Y-56119108D01*
X184836896Y-56119104D01*
X184322366Y-55970682D01*
X184322354Y-55970679D01*
X184320000Y-55970000D01*
X183930000Y-55890000D01*
X183710256Y-55860058D01*
X183491394Y-55830236D01*
X183491382Y-55830235D01*
X183489314Y-55829953D01*
X183199314Y-55809953D01*
X183064020Y-55805454D01*
X182902180Y-55800072D01*
X182902166Y-55800072D01*
X182900000Y-55800000D01*
X182897844Y-55800077D01*
X182897830Y-55800077D01*
X182712988Y-55806679D01*
X182620000Y-55810000D01*
X182619442Y-55810031D01*
X182619420Y-55810032D01*
X182262944Y-55829836D01*
X182262935Y-55829837D01*
X182260000Y-55830000D01*
X182257090Y-55830436D01*
X182257085Y-55830437D01*
X181861993Y-55889701D01*
X181860000Y-55890000D01*
X181490000Y-55970000D01*
X181489438Y-55970134D01*
X181489393Y-55970144D01*
X181282692Y-56019359D01*
X181280000Y-56020000D01*
X181277378Y-56020874D01*
X181277371Y-56020876D01*
X181069484Y-56090172D01*
X180860000Y-56160000D01*
X180530000Y-56290000D01*
X180160000Y-56460000D01*
X179660000Y-56750000D01*
X179450000Y-56900000D01*
X178950000Y-57280000D01*
X178420000Y-57810000D01*
X178040000Y-58280000D01*
X178038153Y-58282873D01*
X178038148Y-58282880D01*
X177848012Y-58578648D01*
X177680000Y-58840000D01*
X177500000Y-59190000D01*
X177280000Y-59700000D01*
X177279038Y-59703046D01*
X177279037Y-59703049D01*
X177160000Y-60080000D01*
X177100000Y-60270000D01*
X176980000Y-60820000D01*
X176920000Y-61350000D01*
X176900000Y-61840000D01*
X172795200Y-61840000D01*
X172800000Y-61600000D01*
X172780000Y-61310000D01*
X172670000Y-60570000D01*
X172550000Y-60080000D01*
X172290000Y-59370000D01*
X172021880Y-58842697D01*
X171991730Y-58783402D01*
X171991729Y-58783400D01*
X171990000Y-58780000D01*
X171655870Y-58282880D01*
X171582055Y-58173057D01*
X171582052Y-58173054D01*
X171580000Y-58170000D01*
X171160000Y-57680000D01*
X170820000Y-57350000D01*
X170390000Y-56990000D01*
X170387480Y-56988276D01*
X170387475Y-56988272D01*
X170041771Y-56751738D01*
X170010000Y-56730000D01*
X169360000Y-56370000D01*
X168740000Y-56120000D01*
X168736907Y-56119108D01*
X168736896Y-56119104D01*
X168222366Y-55970682D01*
X168222354Y-55970679D01*
X168220000Y-55970000D01*
X167830000Y-55890000D01*
X167610256Y-55860058D01*
X167391394Y-55830236D01*
X167391382Y-55830235D01*
X167389314Y-55829953D01*
X167099314Y-55809953D01*
X166964020Y-55805454D01*
X166802180Y-55800072D01*
X166802166Y-55800072D01*
X166800000Y-55800000D01*
X166797844Y-55800077D01*
X166797830Y-55800077D01*
X166612988Y-55806679D01*
X166520000Y-55810000D01*
X166519442Y-55810031D01*
X166519420Y-55810032D01*
X166162944Y-55829836D01*
X166162935Y-55829837D01*
X166160000Y-55830000D01*
X166157090Y-55830436D01*
X166157085Y-55830437D01*
X165761993Y-55889701D01*
X165760000Y-55890000D01*
X165390000Y-55970000D01*
X165389438Y-55970134D01*
X165389393Y-55970144D01*
X165182692Y-56019359D01*
X165180000Y-56020000D01*
X165177378Y-56020874D01*
X165177371Y-56020876D01*
X164969484Y-56090172D01*
X164760000Y-56160000D01*
X164430000Y-56290000D01*
X164060000Y-56460000D01*
X163560000Y-56750000D01*
X163350000Y-56900000D01*
X162850000Y-57280000D01*
X162320000Y-57810000D01*
X161940000Y-58280000D01*
X161938153Y-58282873D01*
X161938148Y-58282880D01*
X161748012Y-58578648D01*
X161580000Y-58840000D01*
X161400000Y-59190000D01*
X161180000Y-59700000D01*
X161179038Y-59703046D01*
X161179037Y-59703049D01*
X161060000Y-60080000D01*
X161000000Y-60270000D01*
X160880000Y-60820000D01*
X160820000Y-61350000D01*
X160800000Y-61840000D01*
X157595200Y-61840000D01*
X157600000Y-61600000D01*
X157580000Y-61310000D01*
X157470000Y-60570000D01*
X157350000Y-60080000D01*
X157090000Y-59370000D01*
X156821880Y-58842697D01*
X156791730Y-58783402D01*
X156791729Y-58783400D01*
X156790000Y-58780000D01*
X156455870Y-58282880D01*
X156382055Y-58173057D01*
X156382052Y-58173054D01*
X156380000Y-58170000D01*
X155960000Y-57680000D01*
X155620000Y-57350000D01*
X155190000Y-56990000D01*
X155187480Y-56988276D01*
X155187475Y-56988272D01*
X154841771Y-56751738D01*
X154810000Y-56730000D01*
X154160000Y-56370000D01*
X153540000Y-56120000D01*
X153536907Y-56119108D01*
X153536896Y-56119104D01*
X153022366Y-55970682D01*
X153022354Y-55970679D01*
X153020000Y-55970000D01*
X152630000Y-55890000D01*
X152410256Y-55860058D01*
X152191394Y-55830236D01*
X152191382Y-55830235D01*
X152189314Y-55829953D01*
X151899314Y-55809953D01*
X151764020Y-55805454D01*
X151602180Y-55800072D01*
X151602166Y-55800072D01*
X151600000Y-55800000D01*
X151597844Y-55800077D01*
X151597830Y-55800077D01*
X151412988Y-55806679D01*
X151320000Y-55810000D01*
X151319442Y-55810031D01*
X151319420Y-55810032D01*
X150962944Y-55829836D01*
X150962935Y-55829837D01*
X150960000Y-55830000D01*
X150957090Y-55830436D01*
X150957085Y-55830437D01*
X150561993Y-55889701D01*
X150560000Y-55890000D01*
X150190000Y-55970000D01*
X150189438Y-55970134D01*
X150189393Y-55970144D01*
X149982692Y-56019359D01*
X149980000Y-56020000D01*
X149977378Y-56020874D01*
X149977371Y-56020876D01*
X149769484Y-56090172D01*
X149560000Y-56160000D01*
X149230000Y-56290000D01*
X148860000Y-56460000D01*
X148360000Y-56750000D01*
X148150000Y-56900000D01*
X147650000Y-57280000D01*
X147120000Y-57810000D01*
X146740000Y-58280000D01*
X146738153Y-58282873D01*
X146738148Y-58282880D01*
X146548012Y-58578648D01*
X146380000Y-58840000D01*
X146200000Y-59190000D01*
X145980000Y-59700000D01*
X145979038Y-59703046D01*
X145979037Y-59703049D01*
X145860000Y-60080000D01*
X145800000Y-60270000D01*
X145680000Y-60820000D01*
X145620000Y-61350000D01*
X145600000Y-61840000D01*
X143695200Y-61840000D01*
X143700000Y-61600000D01*
X143680000Y-61310000D01*
X143570000Y-60570000D01*
X143450000Y-60080000D01*
X143190000Y-59370000D01*
X142921880Y-58842697D01*
X142891730Y-58783402D01*
X142891729Y-58783400D01*
X142890000Y-58780000D01*
X142555870Y-58282880D01*
X142482055Y-58173057D01*
X142482052Y-58173054D01*
X142480000Y-58170000D01*
X142060000Y-57680000D01*
X141720000Y-57350000D01*
X141290000Y-56990000D01*
X141287480Y-56988276D01*
X141287475Y-56988272D01*
X140941771Y-56751738D01*
X140910000Y-56730000D01*
X140260000Y-56370000D01*
X139640000Y-56120000D01*
X139636907Y-56119108D01*
X139636896Y-56119104D01*
X139122366Y-55970682D01*
X139122354Y-55970679D01*
X139120000Y-55970000D01*
X138730000Y-55890000D01*
X138510256Y-55860058D01*
X138291394Y-55830236D01*
X138291382Y-55830235D01*
X138289314Y-55829953D01*
X137999314Y-55809953D01*
X137864020Y-55805454D01*
X137702180Y-55800072D01*
X137702166Y-55800072D01*
X137700000Y-55800000D01*
X137697844Y-55800077D01*
X137697830Y-55800077D01*
X137512988Y-55806679D01*
X137420000Y-55810000D01*
X137419442Y-55810031D01*
X137419420Y-55810032D01*
X137062944Y-55829836D01*
X137062935Y-55829837D01*
X137060000Y-55830000D01*
X137057090Y-55830436D01*
X137057085Y-55830437D01*
X136661993Y-55889701D01*
X136660000Y-55890000D01*
X136290000Y-55970000D01*
X136289438Y-55970134D01*
X136289393Y-55970144D01*
X136082692Y-56019359D01*
X136080000Y-56020000D01*
X136077378Y-56020874D01*
X136077371Y-56020876D01*
X135869484Y-56090172D01*
X135660000Y-56160000D01*
X135330000Y-56290000D01*
X134960000Y-56460000D01*
X134460000Y-56750000D01*
X134250000Y-56900000D01*
X133750000Y-57280000D01*
X133220000Y-57810000D01*
X132840000Y-58280000D01*
X132838153Y-58282873D01*
X132838148Y-58282880D01*
X132648012Y-58578648D01*
X132480000Y-58840000D01*
X132300000Y-59190000D01*
X132080000Y-59700000D01*
X132079038Y-59703046D01*
X132079037Y-59703049D01*
X131960000Y-60080000D01*
X131900000Y-60270000D01*
X131780000Y-60820000D01*
X131720000Y-61350000D01*
X131700000Y-61840000D01*
X112758000Y-61840000D01*
X112758000Y-35609000D01*
X112778002Y-35540879D01*
X112831658Y-35494386D01*
X112884000Y-35483000D01*
X211466000Y-35483000D01*
X211534121Y-35503002D01*
G37*
%TD.AperFunction*%
%TD*%
M02*
