%TF.GenerationSoftware,KiCad,Pcbnew,9.0.7*%
%TF.CreationDate,2026-01-26T10:07:13+01:00*%
%TF.ProjectId,Dice,44696365-2e6b-4696-9361-645f70636258,rev?*%
%TF.SameCoordinates,Original*%
%TF.FileFunction,Copper,L2,Bot*%
%TF.FilePolarity,Positive*%
%FSLAX46Y46*%
G04 Gerber Fmt 4.6, Leading zero omitted, Abs format (unit mm)*
G04 Created by KiCad (PCBNEW 9.0.7) date 2026-01-26 10:07:13*
%MOMM*%
%LPD*%
G01*
G04 APERTURE LIST*
G04 Aperture macros list*
%AMRoundRect*
0 Rectangle with rounded corners*
0 $1 Rounding radius*
0 $2 $3 $4 $5 $6 $7 $8 $9 X,Y pos of 4 corners*
0 Add a 4 corners polygon primitive as box body*
4,1,4,$2,$3,$4,$5,$6,$7,$8,$9,$2,$3,0*
0 Add four circle primitives for the rounded corners*
1,1,$1+$1,$2,$3*
1,1,$1+$1,$4,$5*
1,1,$1+$1,$6,$7*
1,1,$1+$1,$8,$9*
0 Add four rect primitives between the rounded corners*
20,1,$1+$1,$2,$3,$4,$5,0*
20,1,$1+$1,$4,$5,$6,$7,0*
20,1,$1+$1,$6,$7,$8,$9,0*
20,1,$1+$1,$8,$9,$2,$3,0*%
G04 Aperture macros list end*
%TA.AperFunction,SMDPad,CuDef*%
%ADD10R,3.000000X0.650000*%
%TD*%
%TA.AperFunction,SMDPad,CuDef*%
%ADD11R,0.650000X3.000000*%
%TD*%
%TA.AperFunction,SMDPad,CuDef*%
%ADD12RoundRect,0.150000X-0.150000X0.512500X-0.150000X-0.512500X0.150000X-0.512500X0.150000X0.512500X0*%
%TD*%
%TA.AperFunction,SMDPad,CuDef*%
%ADD13RoundRect,0.225000X0.250000X-0.225000X0.250000X0.225000X-0.250000X0.225000X-0.250000X-0.225000X0*%
%TD*%
%TA.AperFunction,SMDPad,CuDef*%
%ADD14RoundRect,0.225000X-0.225000X-0.250000X0.225000X-0.250000X0.225000X0.250000X-0.225000X0.250000X0*%
%TD*%
%TA.AperFunction,ViaPad*%
%ADD15C,0.800000*%
%TD*%
%TA.AperFunction,Conductor*%
%ADD16C,0.250000*%
%TD*%
G04 APERTURE END LIST*
D10*
%TO.P,J1,1,Pin_1*%
%TO.N,unconnected-(J1-Pad1)*%
X156300000Y-83335000D03*
%TO.P,J1,2,Pin_2*%
%TO.N,unconnected-(J1-Pad2)*%
X159300000Y-82065000D03*
%TD*%
D11*
%TO.P,J4,1,Pin_1*%
%TO.N,GND*%
X168565000Y-92600000D03*
%TO.P,J4,2,Pin_2*%
X169835000Y-95600000D03*
%TD*%
D10*
%TO.P,J3,1,Pin_1*%
%TO.N,+5V*%
X159300000Y-104865000D03*
%TO.P,J3,2,Pin_2*%
X156300000Y-106135000D03*
%TD*%
D11*
%TO.P,J2,1,Pin_1*%
%TO.N,/TP_OUT*%
X147035000Y-95600000D03*
%TO.P,J2,2,Pin_2*%
X145765000Y-92600000D03*
%TD*%
D12*
%TO.P,U1,1,Q*%
%TO.N,/TP_OUT*%
X145800000Y-98912500D03*
%TO.P,U1,2,VSS*%
%TO.N,GND*%
X146750000Y-98912500D03*
%TO.P,U1,3,I*%
%TO.N,/TP*%
X147700000Y-98912500D03*
%TO.P,U1,4,AHLB*%
%TO.N,unconnected-(U1-Pad4)*%
X147700000Y-101187500D03*
%TO.P,U1,5,VDD*%
%TO.N,+5V*%
X146750000Y-101187500D03*
%TO.P,U1,6,TOG*%
%TO.N,unconnected-(U1-Pad6)*%
X145800000Y-101187500D03*
%TD*%
D13*
%TO.P,C2,1*%
%TO.N,/TP*%
X147750000Y-91325000D03*
%TO.P,C2,2*%
%TO.N,GND*%
X147750000Y-89775000D03*
%TD*%
D14*
%TO.P,C1,1*%
%TO.N,+5V*%
X147525000Y-103650000D03*
%TO.P,C1,2*%
%TO.N,GND*%
X149075000Y-103650000D03*
%TD*%
D15*
%TO.N,/TP*%
X149300000Y-91000000D03*
X149300000Y-97200000D03*
%TD*%
D16*
%TO.N,+5V*%
X159300000Y-105900000D02*
X159065000Y-106135000D01*
X149935000Y-106135000D02*
X146750000Y-102950000D01*
X159300000Y-104865000D02*
X159300000Y-105900000D01*
X146750000Y-102950000D02*
X146750000Y-101187500D01*
X156300000Y-106135000D02*
X149935000Y-106135000D01*
X159065000Y-106135000D02*
X156300000Y-106135000D01*
%TO.N,GND*%
X168565000Y-92600000D02*
X169400000Y-92600000D01*
X148550000Y-100600000D02*
X148000000Y-100050000D01*
X169835000Y-93035000D02*
X169835000Y-95600000D01*
X147750000Y-86450000D02*
X149800000Y-84400000D01*
X169400000Y-92600000D02*
X169835000Y-93035000D01*
X147000000Y-100050000D02*
X148000000Y-100050000D01*
X162550000Y-104650000D02*
X166300000Y-104650000D01*
X166300000Y-104650000D02*
X169835000Y-101115000D01*
X149075000Y-102575000D02*
X149075000Y-103650000D01*
X169835000Y-101115000D02*
X169835000Y-95600000D01*
X146750000Y-99800000D02*
X147000000Y-100050000D01*
X168565000Y-87415000D02*
X168565000Y-92600000D01*
X146750000Y-98912500D02*
X146750000Y-99800000D01*
X148550000Y-102050000D02*
X149075000Y-102575000D01*
X149800000Y-84400000D02*
X165550000Y-84400000D01*
X161550000Y-103650000D02*
X162550000Y-104650000D01*
X165550000Y-84400000D02*
X168565000Y-87415000D01*
X149075000Y-103650000D02*
X161550000Y-103650000D01*
X148550000Y-100600000D02*
X148550000Y-102050000D01*
X147750000Y-89775000D02*
X147750000Y-86450000D01*
%TO.N,/TP*%
X148700000Y-91000000D02*
X148375000Y-91325000D01*
X147700000Y-98000000D02*
X148300000Y-97400000D01*
X149300000Y-91000000D02*
X148700000Y-91000000D01*
X149300000Y-97200000D02*
X148350000Y-97200000D01*
X148375000Y-91325000D02*
X147750000Y-91325000D01*
X147700000Y-98912500D02*
X147700000Y-98000000D01*
X148300000Y-97250000D02*
X148300000Y-92850000D01*
X148300000Y-92850000D02*
X147750000Y-92300000D01*
X147750000Y-92300000D02*
X147750000Y-91325000D01*
X148300000Y-97400000D02*
X148300000Y-97250000D01*
X148350000Y-97200000D02*
X148300000Y-97250000D01*
%TO.N,/TP_OUT*%
X145765000Y-98877500D02*
X145765000Y-95665000D01*
X145800000Y-98912500D02*
X145765000Y-98877500D01*
X145830000Y-95600000D02*
X145765000Y-95665000D01*
X147035000Y-95600000D02*
X145830000Y-95600000D01*
X145765000Y-95665000D02*
X145765000Y-92600000D01*
%TD*%
%TA.AperFunction,Conductor*%
%TO.N,/TP*%
G36*
X164001656Y-81100561D02*
G01*
X164455948Y-81117560D01*
X164459551Y-81117769D01*
X164567888Y-81126295D01*
X164570833Y-81126578D01*
X164968688Y-81171405D01*
X164972607Y-81171936D01*
X165075595Y-81188248D01*
X165078044Y-81188673D01*
X165476683Y-81264100D01*
X165480900Y-81265004D01*
X165574396Y-81287451D01*
X165576590Y-81288008D01*
X165976871Y-81395263D01*
X165981257Y-81396562D01*
X166060523Y-81422317D01*
X166062243Y-81422897D01*
X166466139Y-81564226D01*
X166470712Y-81565972D01*
X166529174Y-81590188D01*
X166530491Y-81590748D01*
X166941507Y-81770073D01*
X166946267Y-81772321D01*
X166973909Y-81786405D01*
X166974821Y-81786878D01*
X167396818Y-82009910D01*
X167402560Y-82013225D01*
X167600856Y-82137823D01*
X167827473Y-82280216D01*
X167832972Y-82283965D01*
X168236737Y-82581957D01*
X168241934Y-82586102D01*
X168622310Y-82913442D01*
X168627189Y-82917968D01*
X168982031Y-83272810D01*
X168986557Y-83277689D01*
X169313897Y-83658065D01*
X169318044Y-83663266D01*
X169334138Y-83685072D01*
X169616034Y-84067027D01*
X169619783Y-84072526D01*
X169886767Y-84497428D01*
X169890093Y-84503189D01*
X170047132Y-84800322D01*
X170113047Y-84925038D01*
X170113661Y-84926221D01*
X170127664Y-84953704D01*
X170129938Y-84958518D01*
X170309204Y-85369400D01*
X170309855Y-85370931D01*
X170334008Y-85429241D01*
X170335789Y-85433905D01*
X170477072Y-85837670D01*
X170477710Y-85839562D01*
X170503424Y-85918701D01*
X170504747Y-85923169D01*
X170611979Y-86323367D01*
X170612553Y-86325626D01*
X170634993Y-86419097D01*
X170635900Y-86423327D01*
X170711309Y-86821867D01*
X170711765Y-86824491D01*
X170728059Y-86927373D01*
X170728595Y-86931330D01*
X170773418Y-87329147D01*
X170773704Y-87332129D01*
X170782227Y-87440422D01*
X170782439Y-87444077D01*
X170799438Y-87898343D01*
X170799500Y-87901671D01*
X170799500Y-100298328D01*
X170799438Y-100301656D01*
X170782439Y-100755921D01*
X170782227Y-100759576D01*
X170773704Y-100867869D01*
X170773418Y-100870851D01*
X170728595Y-101268668D01*
X170728059Y-101272625D01*
X170711765Y-101375507D01*
X170711309Y-101378131D01*
X170635900Y-101776671D01*
X170634993Y-101780901D01*
X170612553Y-101874372D01*
X170611979Y-101876631D01*
X170504747Y-102276829D01*
X170503424Y-102281297D01*
X170477710Y-102360436D01*
X170477072Y-102362328D01*
X170335789Y-102766093D01*
X170334008Y-102770757D01*
X170309855Y-102829067D01*
X170309204Y-102830598D01*
X170129938Y-103241480D01*
X170127665Y-103246293D01*
X170118216Y-103264838D01*
X170115332Y-103270500D01*
X170113662Y-103273777D01*
X170113047Y-103274961D01*
X169890095Y-103696807D01*
X169886767Y-103702571D01*
X169619783Y-104127473D01*
X169616034Y-104132972D01*
X169318047Y-104536730D01*
X169313897Y-104541934D01*
X168986557Y-104922310D01*
X168982031Y-104927189D01*
X168627189Y-105282031D01*
X168622310Y-105286557D01*
X168241934Y-105613897D01*
X168236730Y-105618047D01*
X167832972Y-105916034D01*
X167827473Y-105919783D01*
X167402571Y-106186767D01*
X167396807Y-106190095D01*
X166974961Y-106413047D01*
X166973803Y-106413648D01*
X166964838Y-106418216D01*
X166946293Y-106427665D01*
X166941480Y-106429938D01*
X166530598Y-106609204D01*
X166529067Y-106609855D01*
X166470757Y-106634008D01*
X166466093Y-106635789D01*
X166062328Y-106777072D01*
X166060436Y-106777710D01*
X165981297Y-106803424D01*
X165976829Y-106804747D01*
X165576631Y-106911979D01*
X165574372Y-106912553D01*
X165480901Y-106934993D01*
X165476671Y-106935900D01*
X165078131Y-107011309D01*
X165075507Y-107011765D01*
X164972625Y-107028059D01*
X164968668Y-107028595D01*
X164570851Y-107073418D01*
X164567869Y-107073704D01*
X164459576Y-107082227D01*
X164455921Y-107082439D01*
X164001657Y-107099438D01*
X163998329Y-107099500D01*
X151601671Y-107099500D01*
X151598343Y-107099438D01*
X151144077Y-107082439D01*
X151140422Y-107082227D01*
X151032129Y-107073704D01*
X151029147Y-107073418D01*
X150631330Y-107028595D01*
X150627373Y-107028059D01*
X150524491Y-107011765D01*
X150521867Y-107011309D01*
X150123327Y-106935900D01*
X150119097Y-106934993D01*
X150025626Y-106912553D01*
X150023367Y-106911979D01*
X149623169Y-106804747D01*
X149618701Y-106803424D01*
X149539562Y-106777710D01*
X149537670Y-106777072D01*
X149155899Y-106643485D01*
X149133899Y-106635786D01*
X149129249Y-106634011D01*
X149070930Y-106609854D01*
X149069400Y-106609204D01*
X148658518Y-106429938D01*
X148653704Y-106427664D01*
X148652318Y-106426958D01*
X148626191Y-106413645D01*
X148625069Y-106413063D01*
X148203189Y-106190093D01*
X148197428Y-106186767D01*
X148111885Y-106133017D01*
X147894394Y-105996358D01*
X147772526Y-105919783D01*
X147767027Y-105916034D01*
X147455763Y-105686311D01*
X147363266Y-105618044D01*
X147358065Y-105613897D01*
X146977689Y-105286557D01*
X146972810Y-105282031D01*
X146617968Y-104927189D01*
X146613442Y-104922310D01*
X146286102Y-104541934D01*
X146281952Y-104536730D01*
X146265861Y-104514928D01*
X145983965Y-104132972D01*
X145980216Y-104127473D01*
X145901987Y-104002973D01*
X145713225Y-103702560D01*
X145709910Y-103696818D01*
X145486878Y-103274821D01*
X145486405Y-103273909D01*
X145472328Y-103246280D01*
X145470073Y-103241507D01*
X145290748Y-102830491D01*
X145290188Y-102829174D01*
X145265972Y-102770712D01*
X145264226Y-102766139D01*
X145122897Y-102362243D01*
X145122317Y-102360523D01*
X145096562Y-102281257D01*
X145095263Y-102276871D01*
X144988008Y-101876591D01*
X144987445Y-101874372D01*
X144984882Y-101863697D01*
X144965004Y-101780900D01*
X144964098Y-101776671D01*
X144888673Y-101378044D01*
X144888248Y-101375595D01*
X144871936Y-101272607D01*
X144871403Y-101268668D01*
X144870593Y-101261482D01*
X144826578Y-100870833D01*
X144826294Y-100867869D01*
X144817769Y-100759551D01*
X144817560Y-100755948D01*
X144800562Y-100301656D01*
X144800500Y-100298328D01*
X144800500Y-91074928D01*
X145185500Y-91074928D01*
X145185500Y-94125060D01*
X145185502Y-94125072D01*
X145200265Y-94199300D01*
X145216107Y-94223009D01*
X145256516Y-94283484D01*
X145340699Y-94339734D01*
X145340701Y-94339734D01*
X145345946Y-94343239D01*
X145381944Y-94392335D01*
X145385500Y-94417240D01*
X145385500Y-95615034D01*
X145385499Y-95615038D01*
X145385499Y-95714962D01*
X145385500Y-95714965D01*
X145385500Y-98055585D01*
X145364678Y-98112793D01*
X145359433Y-98118517D01*
X145318674Y-98159276D01*
X145260502Y-98273444D01*
X145260500Y-98273450D01*
X145245500Y-98368165D01*
X145245500Y-99456834D01*
X145260500Y-99551549D01*
X145260502Y-99551555D01*
X145318674Y-99665723D01*
X145409277Y-99756326D01*
X145523445Y-99814498D01*
X145523448Y-99814498D01*
X145523450Y-99814499D01*
X145618165Y-99829500D01*
X145618166Y-99829500D01*
X145981835Y-99829500D01*
X146076549Y-99814499D01*
X146076549Y-99814498D01*
X146076555Y-99814498D01*
X146190723Y-99756326D01*
X146212066Y-99734982D01*
X146233017Y-99725212D01*
X146251957Y-99711948D01*
X146259960Y-99712647D01*
X146267240Y-99709253D01*
X146289573Y-99715236D01*
X146312606Y-99717250D01*
X146322225Y-99723984D01*
X146326046Y-99725008D01*
X146337927Y-99734977D01*
X146344427Y-99741476D01*
X146370160Y-99796649D01*
X146370499Y-99804413D01*
X146370499Y-99849962D01*
X146384850Y-99903518D01*
X146396362Y-99946482D01*
X146446324Y-100033019D01*
X146516981Y-100103676D01*
X146516983Y-100103677D01*
X146544481Y-100131175D01*
X146570209Y-100186351D01*
X146554453Y-100245156D01*
X146504583Y-100280075D01*
X146495473Y-100282012D01*
X146473449Y-100285500D01*
X146473444Y-100285502D01*
X146359276Y-100343674D01*
X146337931Y-100365019D01*
X146282755Y-100390746D01*
X146223950Y-100374989D01*
X146212069Y-100365019D01*
X146190723Y-100343674D01*
X146076555Y-100285502D01*
X146076549Y-100285500D01*
X145981835Y-100270500D01*
X145981834Y-100270500D01*
X145618166Y-100270500D01*
X145618165Y-100270500D01*
X145523450Y-100285500D01*
X145523444Y-100285502D01*
X145409278Y-100343673D01*
X145318673Y-100434278D01*
X145260502Y-100548444D01*
X145260500Y-100548450D01*
X145245500Y-100643165D01*
X145245500Y-101731834D01*
X145260500Y-101826549D01*
X145260502Y-101826555D01*
X145318674Y-101940723D01*
X145409277Y-102031326D01*
X145523445Y-102089498D01*
X145523448Y-102089498D01*
X145523450Y-102089499D01*
X145618165Y-102104500D01*
X145618166Y-102104500D01*
X145981835Y-102104500D01*
X146076549Y-102089499D01*
X146076549Y-102089498D01*
X146076555Y-102089498D01*
X146190723Y-102031326D01*
X146212066Y-102009982D01*
X146233017Y-102000212D01*
X146251957Y-101986948D01*
X146259960Y-101987647D01*
X146267240Y-101984253D01*
X146289573Y-101990236D01*
X146312606Y-101992250D01*
X146322225Y-101998984D01*
X146326046Y-102000008D01*
X146337927Y-102009977D01*
X146344428Y-102016477D01*
X146370161Y-102071650D01*
X146370500Y-102079414D01*
X146370500Y-102894571D01*
X146370499Y-102894589D01*
X146370499Y-102900038D01*
X146370499Y-102999962D01*
X146382748Y-103045674D01*
X146396362Y-103096482D01*
X146446324Y-103183019D01*
X146516981Y-103253676D01*
X146516983Y-103253677D01*
X146794433Y-103531127D01*
X146820161Y-103586303D01*
X146820500Y-103594060D01*
X146820500Y-103945873D01*
X146826639Y-104002970D01*
X146826639Y-104002972D01*
X146826640Y-104002973D01*
X146844300Y-104050322D01*
X146874825Y-104132163D01*
X146874826Y-104132165D01*
X146957453Y-104242540D01*
X146957456Y-104242544D01*
X147067837Y-104325175D01*
X147197027Y-104373360D01*
X147239340Y-104377909D01*
X147254126Y-104379499D01*
X147254127Y-104379499D01*
X147254136Y-104379500D01*
X147605940Y-104379500D01*
X147663148Y-104400322D01*
X147668873Y-104405567D01*
X149631322Y-106368016D01*
X149631324Y-106368019D01*
X149701981Y-106438676D01*
X149782331Y-106485066D01*
X149788518Y-106488638D01*
X149885038Y-106514501D01*
X149885042Y-106514501D01*
X149990412Y-106514501D01*
X149990428Y-106514500D01*
X154482759Y-106514500D01*
X154539967Y-106535322D01*
X154556759Y-106554054D01*
X154616511Y-106643478D01*
X154616513Y-106643480D01*
X154616516Y-106643484D01*
X154616519Y-106643486D01*
X154616521Y-106643488D01*
X154700695Y-106699732D01*
X154700697Y-106699733D01*
X154700699Y-106699734D01*
X154774933Y-106714500D01*
X157825066Y-106714499D01*
X157899301Y-106699734D01*
X157983484Y-106643484D01*
X157992844Y-106629476D01*
X158043241Y-106554054D01*
X158092337Y-106518055D01*
X158117241Y-106514500D01*
X159009572Y-106514500D01*
X159009588Y-106514501D01*
X159015038Y-106514501D01*
X159114962Y-106514501D01*
X159191084Y-106494103D01*
X159211482Y-106488638D01*
X159298019Y-106438676D01*
X159368676Y-106368019D01*
X159368677Y-106368016D01*
X159533016Y-106203677D01*
X159533019Y-106203676D01*
X159603676Y-106133019D01*
X159653638Y-106046482D01*
X159669169Y-105988519D01*
X159679501Y-105949962D01*
X159679501Y-105850038D01*
X159679500Y-105850034D01*
X159679500Y-105533499D01*
X159700322Y-105476291D01*
X159753045Y-105445851D01*
X159768500Y-105444499D01*
X160825061Y-105444499D01*
X160825066Y-105444499D01*
X160899301Y-105429734D01*
X160983484Y-105373484D01*
X161039734Y-105289301D01*
X161054500Y-105215067D01*
X161054499Y-104514934D01*
X161039734Y-104440699D01*
X160983484Y-104356516D01*
X160983480Y-104356513D01*
X160983478Y-104356511D01*
X160899304Y-104300267D01*
X160899302Y-104300266D01*
X160825067Y-104285500D01*
X157774939Y-104285500D01*
X157774927Y-104285502D01*
X157700699Y-104300265D01*
X157616518Y-104356514D01*
X157616511Y-104356521D01*
X157560267Y-104440695D01*
X157560266Y-104440697D01*
X157545500Y-104514928D01*
X157545500Y-105215060D01*
X157545502Y-105215072D01*
X157560265Y-105289300D01*
X157560268Y-105289304D01*
X157616516Y-105373484D01*
X157616519Y-105373486D01*
X157644974Y-105392500D01*
X157680972Y-105441597D01*
X157676989Y-105502346D01*
X157634889Y-105546322D01*
X157595527Y-105555500D01*
X154774939Y-105555500D01*
X154774927Y-105555502D01*
X154700699Y-105570265D01*
X154616518Y-105626514D01*
X154616511Y-105626521D01*
X154556759Y-105715946D01*
X154507663Y-105751945D01*
X154482759Y-105755500D01*
X150129060Y-105755500D01*
X150071852Y-105734678D01*
X150066127Y-105729433D01*
X148868127Y-104531433D01*
X148842399Y-104476257D01*
X148858155Y-104417452D01*
X148908025Y-104382533D01*
X148931060Y-104379500D01*
X149345858Y-104379500D01*
X149345864Y-104379500D01*
X149402973Y-104373360D01*
X149532163Y-104325175D01*
X149642544Y-104242544D01*
X149725175Y-104132163D01*
X149729612Y-104120265D01*
X149741872Y-104087398D01*
X149781373Y-104041073D01*
X149825260Y-104029500D01*
X161355940Y-104029500D01*
X161413148Y-104050322D01*
X161418873Y-104055567D01*
X162246322Y-104883016D01*
X162246324Y-104883019D01*
X162316981Y-104953676D01*
X162366944Y-104982522D01*
X162403518Y-105003639D01*
X162423900Y-105009100D01*
X162500038Y-105029501D01*
X162500040Y-105029501D01*
X162605412Y-105029501D01*
X162605428Y-105029500D01*
X166244572Y-105029500D01*
X166244588Y-105029501D01*
X166250038Y-105029501D01*
X166349962Y-105029501D01*
X166426084Y-105009103D01*
X166446482Y-105003638D01*
X166533019Y-104953676D01*
X166603676Y-104883019D01*
X166603676Y-104883017D01*
X166611003Y-104875691D01*
X166611004Y-104875688D01*
X170138676Y-101348019D01*
X170188638Y-101261482D01*
X170194103Y-101241084D01*
X170214501Y-101164962D01*
X170214501Y-101065038D01*
X170214501Y-101059589D01*
X170214500Y-101059571D01*
X170214500Y-97417240D01*
X170235322Y-97360032D01*
X170254054Y-97343239D01*
X170259298Y-97339734D01*
X170259301Y-97339734D01*
X170343484Y-97283484D01*
X170399734Y-97199301D01*
X170414500Y-97125067D01*
X170414499Y-94074934D01*
X170399734Y-94000699D01*
X170343484Y-93916516D01*
X170343480Y-93916513D01*
X170343478Y-93916511D01*
X170254054Y-93856759D01*
X170218055Y-93807663D01*
X170214500Y-93782759D01*
X170214500Y-93092142D01*
X170214501Y-93092129D01*
X170214501Y-92985037D01*
X170194103Y-92908915D01*
X170194102Y-92908913D01*
X170188638Y-92888518D01*
X170138676Y-92801981D01*
X170068019Y-92731324D01*
X170068016Y-92731322D01*
X169703677Y-92366983D01*
X169703676Y-92366981D01*
X169633019Y-92296324D01*
X169546482Y-92246362D01*
X169546479Y-92246361D01*
X169526084Y-92240896D01*
X169526084Y-92240895D01*
X169449962Y-92220499D01*
X169350038Y-92220499D01*
X169344588Y-92220499D01*
X169344572Y-92220500D01*
X169233499Y-92220500D01*
X169176291Y-92199678D01*
X169145851Y-92146955D01*
X169144499Y-92131500D01*
X169144499Y-91074939D01*
X169144499Y-91074934D01*
X169129734Y-91000699D01*
X169073484Y-90916516D01*
X169073480Y-90916513D01*
X169073478Y-90916511D01*
X168984054Y-90856759D01*
X168948055Y-90807663D01*
X168944500Y-90782759D01*
X168944500Y-87472142D01*
X168944501Y-87472129D01*
X168944501Y-87365036D01*
X168921671Y-87279836D01*
X168921670Y-87279835D01*
X168918638Y-87268519D01*
X168918638Y-87268518D01*
X168904671Y-87244326D01*
X168868679Y-87181985D01*
X168868677Y-87181983D01*
X168868676Y-87181981D01*
X168798019Y-87111324D01*
X168798016Y-87111322D01*
X165853677Y-84166983D01*
X165853676Y-84166981D01*
X165783019Y-84096324D01*
X165696482Y-84046362D01*
X165696479Y-84046361D01*
X165676084Y-84040896D01*
X165676084Y-84040895D01*
X165599962Y-84020499D01*
X165500038Y-84020499D01*
X165494588Y-84020499D01*
X165494572Y-84020500D01*
X158011955Y-84020500D01*
X157954747Y-83999678D01*
X157924307Y-83946955D01*
X157934879Y-83887000D01*
X157962509Y-83857500D01*
X157983478Y-83843488D01*
X157983477Y-83843488D01*
X157983484Y-83843484D01*
X158039734Y-83759301D01*
X158054500Y-83685067D01*
X158054499Y-82984934D01*
X158039734Y-82910699D01*
X157983484Y-82826516D01*
X157970363Y-82817749D01*
X157955024Y-82807499D01*
X157919027Y-82758402D01*
X157923010Y-82697653D01*
X157965110Y-82653676D01*
X158004468Y-82644499D01*
X160825066Y-82644499D01*
X160899301Y-82629734D01*
X160983484Y-82573484D01*
X161039734Y-82489301D01*
X161054500Y-82415067D01*
X161054499Y-81714934D01*
X161039734Y-81640699D01*
X160983484Y-81556516D01*
X160983480Y-81556513D01*
X160983478Y-81556511D01*
X160899304Y-81500267D01*
X160899302Y-81500266D01*
X160825067Y-81485500D01*
X157774939Y-81485500D01*
X157774927Y-81485502D01*
X157700699Y-81500265D01*
X157616518Y-81556514D01*
X157616511Y-81556521D01*
X157560267Y-81640695D01*
X157560266Y-81640697D01*
X157545500Y-81714928D01*
X157545500Y-82415060D01*
X157545502Y-82415072D01*
X157560265Y-82489300D01*
X157560268Y-82489304D01*
X157616516Y-82573484D01*
X157616519Y-82573486D01*
X157644974Y-82592500D01*
X157680972Y-82641597D01*
X157676989Y-82702346D01*
X157634889Y-82746322D01*
X157595527Y-82755500D01*
X154774939Y-82755500D01*
X154774927Y-82755502D01*
X154700699Y-82770265D01*
X154616518Y-82826514D01*
X154616511Y-82826521D01*
X154560267Y-82910695D01*
X154560266Y-82910697D01*
X154545500Y-82984928D01*
X154545500Y-83685060D01*
X154545502Y-83685072D01*
X154560265Y-83759300D01*
X154560268Y-83759304D01*
X154616516Y-83843484D01*
X154616519Y-83843486D01*
X154616521Y-83843488D01*
X154637491Y-83857500D01*
X154673490Y-83906596D01*
X154669507Y-83967345D01*
X154627408Y-84011322D01*
X154588045Y-84020500D01*
X149855428Y-84020500D01*
X149855412Y-84020499D01*
X149849962Y-84020499D01*
X149750038Y-84020499D01*
X149673915Y-84040895D01*
X149673915Y-84040896D01*
X149657830Y-84045206D01*
X149653514Y-84046363D01*
X149566983Y-84096321D01*
X149566981Y-84096323D01*
X149496323Y-84166980D01*
X149496324Y-84166981D01*
X149496322Y-84166983D01*
X147516983Y-86146322D01*
X147516981Y-86146324D01*
X147516980Y-86146323D01*
X147446323Y-86216981D01*
X147446321Y-86216983D01*
X147396363Y-86303515D01*
X147393330Y-86314835D01*
X147393329Y-86314836D01*
X147370499Y-86400036D01*
X147370499Y-86507129D01*
X147370500Y-86507142D01*
X147370500Y-89024739D01*
X147349678Y-89081947D01*
X147312603Y-89108127D01*
X147267838Y-89124823D01*
X147267837Y-89124824D01*
X147157459Y-89207453D01*
X147157453Y-89207459D01*
X147074826Y-89317834D01*
X147074825Y-89317836D01*
X147026639Y-89447029D01*
X147020500Y-89504126D01*
X147020500Y-90045873D01*
X147026639Y-90102970D01*
X147026639Y-90102972D01*
X147026640Y-90102973D01*
X147074825Y-90232163D01*
X147157456Y-90342544D01*
X147267837Y-90425175D01*
X147397027Y-90473360D01*
X147439340Y-90477909D01*
X147454126Y-90479499D01*
X147454127Y-90479499D01*
X147454136Y-90479500D01*
X147454142Y-90479500D01*
X148045858Y-90479500D01*
X148045864Y-90479500D01*
X148102973Y-90473360D01*
X148232163Y-90425175D01*
X148342544Y-90342544D01*
X148425175Y-90232163D01*
X148473360Y-90102973D01*
X148479500Y-90045864D01*
X148479500Y-89504136D01*
X148473360Y-89447027D01*
X148425175Y-89317837D01*
X148342544Y-89207456D01*
X148232163Y-89124825D01*
X148232162Y-89124824D01*
X148232161Y-89124823D01*
X148187397Y-89108127D01*
X148141073Y-89068625D01*
X148129500Y-89024739D01*
X148129500Y-87745799D01*
X148854326Y-87745799D01*
X148854326Y-88054200D01*
X148888853Y-88360632D01*
X148888854Y-88360639D01*
X148888855Y-88360642D01*
X148957477Y-88661298D01*
X149059331Y-88952379D01*
X149059333Y-88952384D01*
X149193135Y-89230227D01*
X149357207Y-89491346D01*
X149549477Y-89732445D01*
X149549480Y-89732448D01*
X149549484Y-89732453D01*
X149767547Y-89950516D01*
X149767551Y-89950519D01*
X149767554Y-89950522D01*
X150008653Y-90142792D01*
X150269772Y-90306864D01*
X150269771Y-90306864D01*
X150515443Y-90425173D01*
X150547621Y-90440669D01*
X150838702Y-90542523D01*
X151139358Y-90611145D01*
X151445801Y-90645673D01*
X151445804Y-90645674D01*
X151445806Y-90645674D01*
X151754196Y-90645674D01*
X151754197Y-90645673D01*
X152060642Y-90611145D01*
X152361298Y-90542523D01*
X152652379Y-90440669D01*
X152930227Y-90306864D01*
X153191346Y-90142792D01*
X153432453Y-89950516D01*
X153650516Y-89732453D01*
X153842792Y-89491346D01*
X154006864Y-89230227D01*
X154140669Y-88952379D01*
X154242523Y-88661298D01*
X154311145Y-88360642D01*
X154345674Y-88054194D01*
X154345674Y-87745806D01*
X154345673Y-87745799D01*
X155054326Y-87745799D01*
X155054326Y-88054200D01*
X155088853Y-88360632D01*
X155088854Y-88360639D01*
X155088855Y-88360642D01*
X155157477Y-88661298D01*
X155259331Y-88952379D01*
X155259333Y-88952384D01*
X155393135Y-89230227D01*
X155557207Y-89491346D01*
X155749477Y-89732445D01*
X155749480Y-89732448D01*
X155749484Y-89732453D01*
X155967547Y-89950516D01*
X155967551Y-89950519D01*
X155967554Y-89950522D01*
X156208653Y-90142792D01*
X156469772Y-90306864D01*
X156469771Y-90306864D01*
X156715443Y-90425173D01*
X156747621Y-90440669D01*
X157038702Y-90542523D01*
X157339358Y-90611145D01*
X157645801Y-90645673D01*
X157645804Y-90645674D01*
X157645806Y-90645674D01*
X157954196Y-90645674D01*
X157954197Y-90645673D01*
X158260642Y-90611145D01*
X158561298Y-90542523D01*
X158852379Y-90440669D01*
X159130227Y-90306864D01*
X159391346Y-90142792D01*
X159632453Y-89950516D01*
X159850516Y-89732453D01*
X160042792Y-89491346D01*
X160206864Y-89230227D01*
X160340669Y-88952379D01*
X160442523Y-88661298D01*
X160511145Y-88360642D01*
X160545674Y-88054194D01*
X160545674Y-87745806D01*
X160545673Y-87745799D01*
X161254326Y-87745799D01*
X161254326Y-88054200D01*
X161288853Y-88360632D01*
X161288854Y-88360639D01*
X161288855Y-88360642D01*
X161357477Y-88661298D01*
X161459331Y-88952379D01*
X161459333Y-88952384D01*
X161593135Y-89230227D01*
X161757207Y-89491346D01*
X161949477Y-89732445D01*
X161949480Y-89732448D01*
X161949484Y-89732453D01*
X162167547Y-89950516D01*
X162167551Y-89950519D01*
X162167554Y-89950522D01*
X162408653Y-90142792D01*
X162669772Y-90306864D01*
X162669771Y-90306864D01*
X162915443Y-90425173D01*
X162947621Y-90440669D01*
X163238702Y-90542523D01*
X163539358Y-90611145D01*
X163845801Y-90645673D01*
X163845804Y-90645674D01*
X163845806Y-90645674D01*
X164154196Y-90645674D01*
X164154197Y-90645673D01*
X164460642Y-90611145D01*
X164761298Y-90542523D01*
X165052379Y-90440669D01*
X165330227Y-90306864D01*
X165591346Y-90142792D01*
X165832453Y-89950516D01*
X166050516Y-89732453D01*
X166242792Y-89491346D01*
X166406864Y-89230227D01*
X166540669Y-88952379D01*
X166642523Y-88661298D01*
X166711145Y-88360642D01*
X166745674Y-88054194D01*
X166745674Y-87745806D01*
X166711145Y-87439358D01*
X166642523Y-87138702D01*
X166540669Y-86847621D01*
X166406864Y-86569773D01*
X166406864Y-86569772D01*
X166242792Y-86308653D01*
X166050522Y-86067554D01*
X166050519Y-86067551D01*
X166050516Y-86067547D01*
X165832453Y-85849484D01*
X165832448Y-85849480D01*
X165832445Y-85849477D01*
X165591346Y-85657207D01*
X165330227Y-85493135D01*
X165330228Y-85493135D01*
X165052384Y-85359333D01*
X165052380Y-85359331D01*
X165052379Y-85359331D01*
X164761298Y-85257477D01*
X164460642Y-85188855D01*
X164460639Y-85188854D01*
X164460632Y-85188853D01*
X164154200Y-85154326D01*
X164154194Y-85154326D01*
X163845806Y-85154326D01*
X163845799Y-85154326D01*
X163539367Y-85188853D01*
X163539358Y-85188854D01*
X163539358Y-85188855D01*
X163238702Y-85257477D01*
X163005638Y-85339029D01*
X162947615Y-85359333D01*
X162669772Y-85493135D01*
X162408653Y-85657207D01*
X162167554Y-85849477D01*
X161949477Y-86067554D01*
X161757207Y-86308653D01*
X161593135Y-86569772D01*
X161459333Y-86847615D01*
X161459331Y-86847621D01*
X161431425Y-86927373D01*
X161357476Y-87138706D01*
X161288853Y-87439367D01*
X161254326Y-87745799D01*
X160545673Y-87745799D01*
X160511145Y-87439358D01*
X160442523Y-87138702D01*
X160340669Y-86847621D01*
X160206864Y-86569773D01*
X160206864Y-86569772D01*
X160042792Y-86308653D01*
X159850522Y-86067554D01*
X159850519Y-86067551D01*
X159850516Y-86067547D01*
X159632453Y-85849484D01*
X159632448Y-85849480D01*
X159632445Y-85849477D01*
X159391346Y-85657207D01*
X159130227Y-85493135D01*
X159130228Y-85493135D01*
X158852384Y-85359333D01*
X158852380Y-85359331D01*
X158852379Y-85359331D01*
X158561298Y-85257477D01*
X158260642Y-85188855D01*
X158260639Y-85188854D01*
X158260632Y-85188853D01*
X157954200Y-85154326D01*
X157954194Y-85154326D01*
X157645806Y-85154326D01*
X157645799Y-85154326D01*
X157339367Y-85188853D01*
X157339358Y-85188854D01*
X157339358Y-85188855D01*
X157038702Y-85257477D01*
X156805638Y-85339029D01*
X156747615Y-85359333D01*
X156469772Y-85493135D01*
X156208653Y-85657207D01*
X155967554Y-85849477D01*
X155749477Y-86067554D01*
X155557207Y-86308653D01*
X155393135Y-86569772D01*
X155259333Y-86847615D01*
X155259331Y-86847621D01*
X155231425Y-86927373D01*
X155157476Y-87138706D01*
X155088853Y-87439367D01*
X155054326Y-87745799D01*
X154345673Y-87745799D01*
X154311145Y-87439358D01*
X154242523Y-87138702D01*
X154140669Y-86847621D01*
X154006864Y-86569773D01*
X154006864Y-86569772D01*
X153842792Y-86308653D01*
X153650522Y-86067554D01*
X153650519Y-86067551D01*
X153650516Y-86067547D01*
X153432453Y-85849484D01*
X153432448Y-85849480D01*
X153432445Y-85849477D01*
X153191346Y-85657207D01*
X152930227Y-85493135D01*
X152930228Y-85493135D01*
X152652384Y-85359333D01*
X152652380Y-85359331D01*
X152652379Y-85359331D01*
X152361298Y-85257477D01*
X152060642Y-85188855D01*
X152060639Y-85188854D01*
X152060632Y-85188853D01*
X151754200Y-85154326D01*
X151754194Y-85154326D01*
X151445806Y-85154326D01*
X151445799Y-85154326D01*
X151139367Y-85188853D01*
X151139358Y-85188854D01*
X151139358Y-85188855D01*
X150838702Y-85257477D01*
X150605638Y-85339029D01*
X150547615Y-85359333D01*
X150269772Y-85493135D01*
X150008653Y-85657207D01*
X149767554Y-85849477D01*
X149549477Y-86067554D01*
X149357207Y-86308653D01*
X149193135Y-86569772D01*
X149059333Y-86847615D01*
X149059331Y-86847621D01*
X149031425Y-86927373D01*
X148957476Y-87138706D01*
X148888853Y-87439367D01*
X148854326Y-87745799D01*
X148129500Y-87745799D01*
X148129500Y-86644060D01*
X148150322Y-86586852D01*
X148155567Y-86581127D01*
X149931127Y-84805567D01*
X149986303Y-84779839D01*
X149994060Y-84779500D01*
X165355940Y-84779500D01*
X165413148Y-84800322D01*
X165418873Y-84805567D01*
X168159433Y-87546127D01*
X168185161Y-87601303D01*
X168185500Y-87609060D01*
X168185500Y-90782759D01*
X168164678Y-90839967D01*
X168145946Y-90856759D01*
X168056521Y-90916511D01*
X168056511Y-90916521D01*
X168000267Y-91000695D01*
X168000266Y-91000697D01*
X167985500Y-91074928D01*
X167985500Y-94125060D01*
X167985502Y-94125072D01*
X168000265Y-94199300D01*
X168016107Y-94223009D01*
X168056516Y-94283484D01*
X168056519Y-94283486D01*
X168056521Y-94283488D01*
X168140695Y-94339732D01*
X168140697Y-94339733D01*
X168140699Y-94339734D01*
X168214933Y-94354500D01*
X168915066Y-94354499D01*
X168989301Y-94339734D01*
X169073484Y-94283484D01*
X169092499Y-94255025D01*
X169141596Y-94219027D01*
X169202345Y-94223009D01*
X169246322Y-94265109D01*
X169255500Y-94304472D01*
X169255500Y-97125060D01*
X169255502Y-97125072D01*
X169270265Y-97199300D01*
X169270268Y-97199304D01*
X169326516Y-97283484D01*
X169410699Y-97339734D01*
X169410701Y-97339734D01*
X169415946Y-97343239D01*
X169451944Y-97392335D01*
X169455500Y-97417240D01*
X169455500Y-100920940D01*
X169434678Y-100978148D01*
X169429433Y-100983872D01*
X166168874Y-104244432D01*
X166113698Y-104270161D01*
X166105941Y-104270500D01*
X162744060Y-104270500D01*
X162686852Y-104249678D01*
X162681127Y-104244433D01*
X161853677Y-103416983D01*
X161853676Y-103416981D01*
X161783019Y-103346324D01*
X161696482Y-103296362D01*
X161696479Y-103296361D01*
X161676084Y-103290896D01*
X161676084Y-103290895D01*
X161599962Y-103270499D01*
X161500038Y-103270499D01*
X161494588Y-103270499D01*
X161494572Y-103270500D01*
X149825260Y-103270500D01*
X149768052Y-103249678D01*
X149741872Y-103212602D01*
X149725177Y-103167842D01*
X149725173Y-103167834D01*
X149671759Y-103096482D01*
X149642544Y-103057456D01*
X149580682Y-103011146D01*
X149532162Y-102974824D01*
X149532161Y-102974823D01*
X149512397Y-102967452D01*
X149466073Y-102927951D01*
X149454500Y-102884064D01*
X149454500Y-102632142D01*
X149454501Y-102632129D01*
X149454501Y-102525036D01*
X149431246Y-102438249D01*
X149428638Y-102428517D01*
X149378679Y-102341985D01*
X149378677Y-102341983D01*
X149378676Y-102341981D01*
X149308019Y-102271324D01*
X149308016Y-102271322D01*
X148955567Y-101918873D01*
X148929839Y-101863697D01*
X148929500Y-101855940D01*
X148929500Y-101472717D01*
X148950322Y-101415509D01*
X149003045Y-101385069D01*
X149063000Y-101395641D01*
X149098686Y-101434101D01*
X149193135Y-101630227D01*
X149357207Y-101891346D01*
X149549477Y-102132445D01*
X149549480Y-102132448D01*
X149549484Y-102132453D01*
X149767547Y-102350516D01*
X149767551Y-102350519D01*
X149767554Y-102350522D01*
X150008653Y-102542792D01*
X150269772Y-102706864D01*
X150269771Y-102706864D01*
X150502361Y-102818873D01*
X150547621Y-102840669D01*
X150838702Y-102942523D01*
X151139358Y-103011145D01*
X151445801Y-103045673D01*
X151445804Y-103045674D01*
X151445806Y-103045674D01*
X151754196Y-103045674D01*
X151754197Y-103045673D01*
X152060642Y-103011145D01*
X152361298Y-102942523D01*
X152652379Y-102840669D01*
X152930227Y-102706864D01*
X153191346Y-102542792D01*
X153432453Y-102350516D01*
X153650516Y-102132453D01*
X153842792Y-101891346D01*
X154006864Y-101630227D01*
X154140669Y-101352379D01*
X154242523Y-101061298D01*
X154311145Y-100760642D01*
X154345674Y-100454194D01*
X154345674Y-100145806D01*
X154345673Y-100145799D01*
X155054326Y-100145799D01*
X155054326Y-100454200D01*
X155088853Y-100760632D01*
X155088854Y-100760639D01*
X155088855Y-100760642D01*
X155157477Y-101061298D01*
X155259331Y-101352379D01*
X155259333Y-101352384D01*
X155393135Y-101630227D01*
X155557207Y-101891346D01*
X155749477Y-102132445D01*
X155749480Y-102132448D01*
X155749484Y-102132453D01*
X155967547Y-102350516D01*
X155967551Y-102350519D01*
X155967554Y-102350522D01*
X156208653Y-102542792D01*
X156469772Y-102706864D01*
X156469771Y-102706864D01*
X156702361Y-102818873D01*
X156747621Y-102840669D01*
X157038702Y-102942523D01*
X157339358Y-103011145D01*
X157645801Y-103045673D01*
X157645804Y-103045674D01*
X157645806Y-103045674D01*
X157954196Y-103045674D01*
X157954197Y-103045673D01*
X158260642Y-103011145D01*
X158561298Y-102942523D01*
X158852379Y-102840669D01*
X159130227Y-102706864D01*
X159391346Y-102542792D01*
X159632453Y-102350516D01*
X159850516Y-102132453D01*
X160042792Y-101891346D01*
X160206864Y-101630227D01*
X160340669Y-101352379D01*
X160442523Y-101061298D01*
X160511145Y-100760642D01*
X160545674Y-100454194D01*
X160545674Y-100145806D01*
X160545673Y-100145799D01*
X161254326Y-100145799D01*
X161254326Y-100454200D01*
X161288853Y-100760632D01*
X161288854Y-100760639D01*
X161288855Y-100760642D01*
X161357477Y-101061298D01*
X161459331Y-101352379D01*
X161459333Y-101352384D01*
X161593135Y-101630227D01*
X161757207Y-101891346D01*
X161949477Y-102132445D01*
X161949480Y-102132448D01*
X161949484Y-102132453D01*
X162167547Y-102350516D01*
X162167551Y-102350519D01*
X162167554Y-102350522D01*
X162408653Y-102542792D01*
X162669772Y-102706864D01*
X162669771Y-102706864D01*
X162902361Y-102818873D01*
X162947621Y-102840669D01*
X163238702Y-102942523D01*
X163539358Y-103011145D01*
X163845801Y-103045673D01*
X163845804Y-103045674D01*
X163845806Y-103045674D01*
X164154196Y-103045674D01*
X164154197Y-103045673D01*
X164460642Y-103011145D01*
X164761298Y-102942523D01*
X165052379Y-102840669D01*
X165330227Y-102706864D01*
X165591346Y-102542792D01*
X165832453Y-102350516D01*
X166050516Y-102132453D01*
X166242792Y-101891346D01*
X166406864Y-101630227D01*
X166540669Y-101352379D01*
X166642523Y-101061298D01*
X166711145Y-100760642D01*
X166745674Y-100454194D01*
X166745674Y-100145806D01*
X166711145Y-99839358D01*
X166642523Y-99538702D01*
X166540669Y-99247621D01*
X166406864Y-98969773D01*
X166406864Y-98969772D01*
X166242792Y-98708653D01*
X166050522Y-98467554D01*
X166050519Y-98467551D01*
X166050516Y-98467547D01*
X165832453Y-98249484D01*
X165832448Y-98249480D01*
X165832445Y-98249477D01*
X165591346Y-98057207D01*
X165330227Y-97893135D01*
X165330228Y-97893135D01*
X165052384Y-97759333D01*
X165052380Y-97759331D01*
X165052379Y-97759331D01*
X164761298Y-97657477D01*
X164460642Y-97588855D01*
X164460639Y-97588854D01*
X164460632Y-97588853D01*
X164154200Y-97554326D01*
X164154194Y-97554326D01*
X163845806Y-97554326D01*
X163845799Y-97554326D01*
X163539367Y-97588853D01*
X163539358Y-97588854D01*
X163539358Y-97588855D01*
X163238702Y-97657477D01*
X163005638Y-97739029D01*
X162947615Y-97759333D01*
X162669772Y-97893135D01*
X162408653Y-98057207D01*
X162167554Y-98249477D01*
X161949477Y-98467554D01*
X161757207Y-98708653D01*
X161593135Y-98969772D01*
X161459333Y-99247615D01*
X161357476Y-99538706D01*
X161288853Y-99839367D01*
X161254326Y-100145799D01*
X160545673Y-100145799D01*
X160511145Y-99839358D01*
X160442523Y-99538702D01*
X160340669Y-99247621D01*
X160206864Y-98969773D01*
X160206864Y-98969772D01*
X160042792Y-98708653D01*
X159850522Y-98467554D01*
X159850519Y-98467551D01*
X159850516Y-98467547D01*
X159632453Y-98249484D01*
X159632448Y-98249480D01*
X159632445Y-98249477D01*
X159391346Y-98057207D01*
X159130227Y-97893135D01*
X159130228Y-97893135D01*
X158852384Y-97759333D01*
X158852380Y-97759331D01*
X158852379Y-97759331D01*
X158561298Y-97657477D01*
X158260642Y-97588855D01*
X158260639Y-97588854D01*
X158260632Y-97588853D01*
X157954200Y-97554326D01*
X157954194Y-97554326D01*
X157645806Y-97554326D01*
X157645799Y-97554326D01*
X157339367Y-97588853D01*
X157339358Y-97588854D01*
X157339358Y-97588855D01*
X157038702Y-97657477D01*
X156805638Y-97739029D01*
X156747615Y-97759333D01*
X156469772Y-97893135D01*
X156208653Y-98057207D01*
X155967554Y-98249477D01*
X155749477Y-98467554D01*
X155557207Y-98708653D01*
X155393135Y-98969772D01*
X155259333Y-99247615D01*
X155157476Y-99538706D01*
X155088853Y-99839367D01*
X155054326Y-100145799D01*
X154345673Y-100145799D01*
X154311145Y-99839358D01*
X154242523Y-99538702D01*
X154140669Y-99247621D01*
X154006864Y-98969773D01*
X154006864Y-98969772D01*
X153842792Y-98708653D01*
X153650522Y-98467554D01*
X153650519Y-98467551D01*
X153650516Y-98467547D01*
X153432453Y-98249484D01*
X153432448Y-98249480D01*
X153432445Y-98249477D01*
X153191346Y-98057207D01*
X152930227Y-97893135D01*
X152930228Y-97893135D01*
X152652384Y-97759333D01*
X152652380Y-97759331D01*
X152652379Y-97759331D01*
X152361298Y-97657477D01*
X152060642Y-97588855D01*
X152060639Y-97588854D01*
X152060632Y-97588853D01*
X151754200Y-97554326D01*
X151754194Y-97554326D01*
X151445806Y-97554326D01*
X151445799Y-97554326D01*
X151139367Y-97588853D01*
X151139358Y-97588854D01*
X151139358Y-97588855D01*
X150838702Y-97657477D01*
X150605638Y-97739029D01*
X150547615Y-97759333D01*
X150269772Y-97893135D01*
X150008653Y-98057207D01*
X149767554Y-98249477D01*
X149549477Y-98467554D01*
X149357207Y-98708653D01*
X149193135Y-98969772D01*
X149059333Y-99247615D01*
X148957476Y-99538706D01*
X148888853Y-99839367D01*
X148854326Y-100145799D01*
X148854326Y-100152766D01*
X148833504Y-100209974D01*
X148780781Y-100240414D01*
X148720826Y-100229842D01*
X148702393Y-100215699D01*
X148303677Y-99816983D01*
X148303676Y-99816981D01*
X148233019Y-99746324D01*
X148146482Y-99696362D01*
X148146479Y-99696361D01*
X148126084Y-99690896D01*
X148126084Y-99690895D01*
X148049962Y-99670499D01*
X147950038Y-99670499D01*
X147944588Y-99670499D01*
X147944572Y-99670500D01*
X147373348Y-99670500D01*
X147316140Y-99649678D01*
X147285700Y-99596955D01*
X147288707Y-99553990D01*
X147289499Y-99551552D01*
X147304500Y-99456834D01*
X147304500Y-98368165D01*
X147289499Y-98273450D01*
X147289498Y-98273448D01*
X147289498Y-98273445D01*
X147231326Y-98159277D01*
X147140723Y-98068674D01*
X147026555Y-98010502D01*
X147026549Y-98010500D01*
X146931835Y-97995500D01*
X146931834Y-97995500D01*
X146568166Y-97995500D01*
X146568165Y-97995500D01*
X146473450Y-98010500D01*
X146473444Y-98010502D01*
X146359276Y-98068674D01*
X146337931Y-98090019D01*
X146319428Y-98098646D01*
X146303485Y-98111404D01*
X146292610Y-98111150D01*
X146282755Y-98115746D01*
X146263033Y-98110461D01*
X146242622Y-98109986D01*
X146229670Y-98101521D01*
X146223950Y-98099989D01*
X146216220Y-98093913D01*
X146214077Y-98092028D01*
X146190723Y-98068674D01*
X146183121Y-98064800D01*
X146174720Y-98057411D01*
X146165159Y-98039924D01*
X146151570Y-98025347D01*
X146148240Y-98008977D01*
X146145516Y-98003993D01*
X146146365Y-97999755D01*
X146144500Y-97990583D01*
X146144500Y-96068500D01*
X146165322Y-96011292D01*
X146218045Y-95980852D01*
X146233500Y-95979500D01*
X146366501Y-95979500D01*
X146423709Y-96000322D01*
X146454149Y-96053045D01*
X146455501Y-96068500D01*
X146455501Y-97125066D01*
X146455501Y-97125070D01*
X146455502Y-97125072D01*
X146470265Y-97199300D01*
X146470268Y-97199304D01*
X146526516Y-97283484D01*
X146526519Y-97283486D01*
X146526521Y-97283488D01*
X146610695Y-97339732D01*
X146610697Y-97339733D01*
X146610699Y-97339734D01*
X146684933Y-97354500D01*
X147385066Y-97354499D01*
X147459301Y-97339734D01*
X147543484Y-97283484D01*
X147599734Y-97199301D01*
X147614500Y-97125067D01*
X147614499Y-94074934D01*
X147599734Y-94000699D01*
X147594424Y-93992753D01*
X147594424Y-93992750D01*
X147563051Y-93945799D01*
X148854326Y-93945799D01*
X148854326Y-94254200D01*
X148888853Y-94560632D01*
X148888854Y-94560639D01*
X148888855Y-94560642D01*
X148957477Y-94861298D01*
X149052025Y-95131500D01*
X149059333Y-95152384D01*
X149193135Y-95430227D01*
X149357207Y-95691346D01*
X149549477Y-95932445D01*
X149549480Y-95932448D01*
X149549484Y-95932453D01*
X149767547Y-96150516D01*
X149767551Y-96150519D01*
X149767554Y-96150522D01*
X150008653Y-96342792D01*
X150269772Y-96506864D01*
X150269771Y-96506864D01*
X150519009Y-96626890D01*
X150547621Y-96640669D01*
X150838702Y-96742523D01*
X151139358Y-96811145D01*
X151445801Y-96845673D01*
X151445804Y-96845674D01*
X151445806Y-96845674D01*
X151754196Y-96845674D01*
X151754197Y-96845673D01*
X152060642Y-96811145D01*
X152361298Y-96742523D01*
X152652379Y-96640669D01*
X152930227Y-96506864D01*
X153191346Y-96342792D01*
X153432453Y-96150516D01*
X153650516Y-95932453D01*
X153842792Y-95691346D01*
X154006864Y-95430227D01*
X154140669Y-95152379D01*
X154242523Y-94861298D01*
X154311145Y-94560642D01*
X154345674Y-94254194D01*
X154345674Y-93945806D01*
X154345673Y-93945799D01*
X155054326Y-93945799D01*
X155054326Y-94254200D01*
X155088853Y-94560632D01*
X155088854Y-94560639D01*
X155088855Y-94560642D01*
X155157477Y-94861298D01*
X155252025Y-95131500D01*
X155259333Y-95152384D01*
X155393135Y-95430227D01*
X155557207Y-95691346D01*
X155749477Y-95932445D01*
X155749480Y-95932448D01*
X155749484Y-95932453D01*
X155967547Y-96150516D01*
X155967551Y-96150519D01*
X155967554Y-96150522D01*
X156208653Y-96342792D01*
X156469772Y-96506864D01*
X156469771Y-96506864D01*
X156719009Y-96626890D01*
X156747621Y-96640669D01*
X157038702Y-96742523D01*
X157339358Y-96811145D01*
X157645801Y-96845673D01*
X157645804Y-96845674D01*
X157645806Y-96845674D01*
X157954196Y-96845674D01*
X157954197Y-96845673D01*
X158260642Y-96811145D01*
X158561298Y-96742523D01*
X158852379Y-96640669D01*
X159130227Y-96506864D01*
X159391346Y-96342792D01*
X159632453Y-96150516D01*
X159850516Y-95932453D01*
X160042792Y-95691346D01*
X160206864Y-95430227D01*
X160340669Y-95152379D01*
X160442523Y-94861298D01*
X160511145Y-94560642D01*
X160545674Y-94254194D01*
X160545674Y-93945806D01*
X160545673Y-93945799D01*
X161254326Y-93945799D01*
X161254326Y-94254200D01*
X161288853Y-94560632D01*
X161288854Y-94560639D01*
X161288855Y-94560642D01*
X161357477Y-94861298D01*
X161452025Y-95131500D01*
X161459333Y-95152384D01*
X161593135Y-95430227D01*
X161757207Y-95691346D01*
X161949477Y-95932445D01*
X161949480Y-95932448D01*
X161949484Y-95932453D01*
X162167547Y-96150516D01*
X162167551Y-96150519D01*
X162167554Y-96150522D01*
X162408653Y-96342792D01*
X162669772Y-96506864D01*
X162669771Y-96506864D01*
X162919009Y-96626890D01*
X162947621Y-96640669D01*
X163238702Y-96742523D01*
X163539358Y-96811145D01*
X163845801Y-96845673D01*
X163845804Y-96845674D01*
X163845806Y-96845674D01*
X164154196Y-96845674D01*
X164154197Y-96845673D01*
X164460642Y-96811145D01*
X164761298Y-96742523D01*
X165052379Y-96640669D01*
X165330227Y-96506864D01*
X165591346Y-96342792D01*
X165832453Y-96150516D01*
X166050516Y-95932453D01*
X166242792Y-95691346D01*
X166406864Y-95430227D01*
X166540669Y-95152379D01*
X166642523Y-94861298D01*
X166711145Y-94560642D01*
X166745674Y-94254194D01*
X166745674Y-93945806D01*
X166711145Y-93639358D01*
X166642523Y-93338702D01*
X166540669Y-93047621D01*
X166507864Y-92979500D01*
X166406864Y-92769772D01*
X166242792Y-92508653D01*
X166050522Y-92267554D01*
X166050519Y-92267551D01*
X166050516Y-92267547D01*
X165832453Y-92049484D01*
X165832448Y-92049480D01*
X165832445Y-92049477D01*
X165591346Y-91857207D01*
X165330227Y-91693135D01*
X165330228Y-91693135D01*
X165052384Y-91559333D01*
X165052380Y-91559331D01*
X165052379Y-91559331D01*
X164761298Y-91457477D01*
X164460642Y-91388855D01*
X164460639Y-91388854D01*
X164460632Y-91388853D01*
X164154200Y-91354326D01*
X164154194Y-91354326D01*
X163845806Y-91354326D01*
X163845799Y-91354326D01*
X163539367Y-91388853D01*
X163539358Y-91388854D01*
X163539358Y-91388855D01*
X163238702Y-91457477D01*
X163005638Y-91539029D01*
X162947615Y-91559333D01*
X162669772Y-91693135D01*
X162408653Y-91857207D01*
X162167554Y-92049477D01*
X161949477Y-92267554D01*
X161757207Y-92508653D01*
X161593135Y-92769772D01*
X161459333Y-93047615D01*
X161357476Y-93338706D01*
X161288853Y-93639367D01*
X161254326Y-93945799D01*
X160545673Y-93945799D01*
X160511145Y-93639358D01*
X160442523Y-93338702D01*
X160340669Y-93047621D01*
X160307864Y-92979500D01*
X160206864Y-92769772D01*
X160042792Y-92508653D01*
X159850522Y-92267554D01*
X159850519Y-92267551D01*
X159850516Y-92267547D01*
X159632453Y-92049484D01*
X159632448Y-92049480D01*
X159632445Y-92049477D01*
X159391346Y-91857207D01*
X159130227Y-91693135D01*
X159130228Y-91693135D01*
X158852384Y-91559333D01*
X158852380Y-91559331D01*
X158852379Y-91559331D01*
X158561298Y-91457477D01*
X158260642Y-91388855D01*
X158260639Y-91388854D01*
X158260632Y-91388853D01*
X157954200Y-91354326D01*
X157954194Y-91354326D01*
X157645806Y-91354326D01*
X157645799Y-91354326D01*
X157339367Y-91388853D01*
X157339358Y-91388854D01*
X157339358Y-91388855D01*
X157038702Y-91457477D01*
X156805638Y-91539029D01*
X156747615Y-91559333D01*
X156469772Y-91693135D01*
X156208653Y-91857207D01*
X155967554Y-92049477D01*
X155749477Y-92267554D01*
X155557207Y-92508653D01*
X155393135Y-92769772D01*
X155259333Y-93047615D01*
X155157476Y-93338706D01*
X155088853Y-93639367D01*
X155054326Y-93945799D01*
X154345673Y-93945799D01*
X154311145Y-93639358D01*
X154242523Y-93338702D01*
X154140669Y-93047621D01*
X154107864Y-92979500D01*
X154006864Y-92769772D01*
X153842792Y-92508653D01*
X153650522Y-92267554D01*
X153650519Y-92267551D01*
X153650516Y-92267547D01*
X153432453Y-92049484D01*
X153432448Y-92049480D01*
X153432445Y-92049477D01*
X153191346Y-91857207D01*
X152930227Y-91693135D01*
X152930228Y-91693135D01*
X152652384Y-91559333D01*
X152652380Y-91559331D01*
X152652379Y-91559331D01*
X152361298Y-91457477D01*
X152060642Y-91388855D01*
X152060639Y-91388854D01*
X152060632Y-91388853D01*
X151754200Y-91354326D01*
X151754194Y-91354326D01*
X151445806Y-91354326D01*
X151445799Y-91354326D01*
X151139367Y-91388853D01*
X151139358Y-91388854D01*
X151139358Y-91388855D01*
X150838702Y-91457477D01*
X150605638Y-91539029D01*
X150547615Y-91559333D01*
X150269772Y-91693135D01*
X150008653Y-91857207D01*
X149767554Y-92049477D01*
X149549477Y-92267554D01*
X149357207Y-92508653D01*
X149193135Y-92769772D01*
X149059333Y-93047615D01*
X148957476Y-93338706D01*
X148888853Y-93639367D01*
X148854326Y-93945799D01*
X147563051Y-93945799D01*
X147543488Y-93916521D01*
X147543485Y-93916518D01*
X147543484Y-93916516D01*
X147543480Y-93916513D01*
X147543478Y-93916511D01*
X147459304Y-93860267D01*
X147459302Y-93860266D01*
X147385067Y-93845500D01*
X146684939Y-93845500D01*
X146684927Y-93845502D01*
X146610699Y-93860265D01*
X146526518Y-93916514D01*
X146526513Y-93916519D01*
X146507498Y-93944976D01*
X146458401Y-93980972D01*
X146397651Y-93976988D01*
X146353676Y-93934888D01*
X146344499Y-93895530D01*
X146344499Y-91074934D01*
X146329734Y-91000699D01*
X146273484Y-90916516D01*
X146273480Y-90916513D01*
X146273478Y-90916511D01*
X146189304Y-90860267D01*
X146189302Y-90860266D01*
X146115067Y-90845500D01*
X145414939Y-90845500D01*
X145414927Y-90845502D01*
X145340699Y-90860265D01*
X145256518Y-90916514D01*
X145256511Y-90916521D01*
X145200267Y-91000695D01*
X145200266Y-91000697D01*
X145185500Y-91074928D01*
X144800500Y-91074928D01*
X144800500Y-87901671D01*
X144800562Y-87898343D01*
X144817560Y-87444045D01*
X144817769Y-87440454D01*
X144826296Y-87332100D01*
X144826576Y-87329178D01*
X144871407Y-86931299D01*
X144871934Y-86927404D01*
X144888251Y-86824382D01*
X144888669Y-86821980D01*
X144964103Y-86423299D01*
X144965005Y-86419097D01*
X144987460Y-86325566D01*
X144987998Y-86323446D01*
X145095269Y-85923107D01*
X145096555Y-85918762D01*
X145122335Y-85839422D01*
X145122878Y-85837809D01*
X145264235Y-85433836D01*
X145265963Y-85429311D01*
X145290220Y-85370748D01*
X145290711Y-85369592D01*
X145470084Y-84958465D01*
X145472308Y-84953757D01*
X145486461Y-84925980D01*
X145486807Y-84925314D01*
X145709917Y-84503169D01*
X145713218Y-84497451D01*
X145980221Y-84072517D01*
X145983965Y-84067027D01*
X145999216Y-84046363D01*
X146281967Y-83663249D01*
X146286102Y-83658065D01*
X146613442Y-83277689D01*
X146617955Y-83272823D01*
X146972823Y-82917955D01*
X146977689Y-82913442D01*
X147290205Y-82644500D01*
X147358068Y-82586099D01*
X147363249Y-82581967D01*
X147767035Y-82283959D01*
X147772517Y-82280221D01*
X148197451Y-82013218D01*
X148203169Y-82009917D01*
X148625314Y-81786807D01*
X148625980Y-81786461D01*
X148653757Y-81772308D01*
X148658465Y-81770084D01*
X149069592Y-81590711D01*
X149070748Y-81590220D01*
X149129311Y-81565963D01*
X149133836Y-81564235D01*
X149537809Y-81422878D01*
X149539422Y-81422335D01*
X149618762Y-81396555D01*
X149623107Y-81395269D01*
X150023446Y-81287998D01*
X150025566Y-81287460D01*
X150119116Y-81265000D01*
X150123299Y-81264103D01*
X150521980Y-81188669D01*
X150524382Y-81188251D01*
X150627404Y-81171934D01*
X150631299Y-81171407D01*
X151029178Y-81126576D01*
X151032100Y-81126296D01*
X151140454Y-81117769D01*
X151144045Y-81117560D01*
X151598343Y-81100561D01*
X151601671Y-81100500D01*
X163998329Y-81100500D01*
X164001656Y-81100561D01*
G37*
%TD.AperFunction*%
%TD*%
M02*
