%TF.GenerationSoftware,KiCad,Pcbnew,9.0.7*%
%TF.CreationDate,2026-01-26T10:07:13+01:00*%
%TF.ProjectId,Dice,44696365-2e6b-4696-9361-645f70636258,rev?*%
%TF.SameCoordinates,Original*%
%TF.FileFunction,Legend,Bot*%
%TF.FilePolarity,Positive*%
%FSLAX46Y46*%
G04 Gerber Fmt 4.6, Leading zero omitted, Abs format (unit mm)*
G04 Created by KiCad (PCBNEW 9.0.7) date 2026-01-26 10:07:13*
%MOMM*%
%LPD*%
G01*
G04 APERTURE LIST*
%ADD10C,0.150000*%
%ADD11C,0.120000*%
G04 APERTURE END LIST*
D10*
X167308557Y-96042858D02*
X167951414Y-96042858D01*
X167951414Y-96042858D02*
X168079985Y-96000001D01*
X168079985Y-96000001D02*
X168165700Y-95914287D01*
X168165700Y-95914287D02*
X168208557Y-95785715D01*
X168208557Y-95785715D02*
X168208557Y-95700001D01*
X168208557Y-96900001D02*
X168208557Y-96471429D01*
X168208557Y-96471429D02*
X167308557Y-96471429D01*
X168122842Y-97714286D02*
X168165700Y-97671429D01*
X168165700Y-97671429D02*
X168208557Y-97542857D01*
X168208557Y-97542857D02*
X168208557Y-97457143D01*
X168208557Y-97457143D02*
X168165700Y-97328572D01*
X168165700Y-97328572D02*
X168079985Y-97242857D01*
X168079985Y-97242857D02*
X167994271Y-97200000D01*
X167994271Y-97200000D02*
X167822842Y-97157143D01*
X167822842Y-97157143D02*
X167694271Y-97157143D01*
X167694271Y-97157143D02*
X167522842Y-97200000D01*
X167522842Y-97200000D02*
X167437128Y-97242857D01*
X167437128Y-97242857D02*
X167351414Y-97328572D01*
X167351414Y-97328572D02*
X167308557Y-97457143D01*
X167308557Y-97457143D02*
X167308557Y-97542857D01*
X167308557Y-97542857D02*
X167351414Y-97671429D01*
X167351414Y-97671429D02*
X167394271Y-97714286D01*
X167308557Y-98357143D02*
X167951414Y-98357143D01*
X167951414Y-98357143D02*
X168079985Y-98314286D01*
X168079985Y-98314286D02*
X168165700Y-98228572D01*
X168165700Y-98228572D02*
X168208557Y-98100000D01*
X168208557Y-98100000D02*
X168208557Y-98014286D01*
X168208557Y-99214286D02*
X168208557Y-98785714D01*
X168208557Y-98785714D02*
X167308557Y-98785714D01*
X168122842Y-100028571D02*
X168165700Y-99985714D01*
X168165700Y-99985714D02*
X168208557Y-99857142D01*
X168208557Y-99857142D02*
X168208557Y-99771428D01*
X168208557Y-99771428D02*
X168165700Y-99642857D01*
X168165700Y-99642857D02*
X168079985Y-99557142D01*
X168079985Y-99557142D02*
X167994271Y-99514285D01*
X167994271Y-99514285D02*
X167822842Y-99471428D01*
X167822842Y-99471428D02*
X167694271Y-99471428D01*
X167694271Y-99471428D02*
X167522842Y-99514285D01*
X167522842Y-99514285D02*
X167437128Y-99557142D01*
X167437128Y-99557142D02*
X167351414Y-99642857D01*
X167351414Y-99642857D02*
X167308557Y-99771428D01*
X167308557Y-99771428D02*
X167308557Y-99857142D01*
X167308557Y-99857142D02*
X167351414Y-99985714D01*
X167351414Y-99985714D02*
X167394271Y-100028571D01*
X167308557Y-100671428D02*
X167951414Y-100671428D01*
X167951414Y-100671428D02*
X168079985Y-100628571D01*
X168079985Y-100628571D02*
X168165700Y-100542857D01*
X168165700Y-100542857D02*
X168208557Y-100414285D01*
X168208557Y-100414285D02*
X168208557Y-100328571D01*
X168208557Y-101528571D02*
X168208557Y-101099999D01*
X168208557Y-101099999D02*
X167308557Y-101099999D01*
X168122842Y-102342856D02*
X168165700Y-102299999D01*
X168165700Y-102299999D02*
X168208557Y-102171427D01*
X168208557Y-102171427D02*
X168208557Y-102085713D01*
X168208557Y-102085713D02*
X168165700Y-101957142D01*
X168165700Y-101957142D02*
X168079985Y-101871427D01*
X168079985Y-101871427D02*
X167994271Y-101828570D01*
X167994271Y-101828570D02*
X167822842Y-101785713D01*
X167822842Y-101785713D02*
X167694271Y-101785713D01*
X167694271Y-101785713D02*
X167522842Y-101828570D01*
X167522842Y-101828570D02*
X167437128Y-101871427D01*
X167437128Y-101871427D02*
X167351414Y-101957142D01*
X167351414Y-101957142D02*
X167308557Y-102085713D01*
X167308557Y-102085713D02*
X167308557Y-102171427D01*
X167308557Y-102171427D02*
X167351414Y-102299999D01*
X167351414Y-102299999D02*
X167394271Y-102342856D01*
X167308557Y-102985713D02*
X167951414Y-102985713D01*
X167951414Y-102985713D02*
X168079985Y-102942856D01*
X168079985Y-102942856D02*
X168165700Y-102857142D01*
X168165700Y-102857142D02*
X168208557Y-102728570D01*
X168208557Y-102728570D02*
X168208557Y-102642856D01*
X168208557Y-103842856D02*
X168208557Y-103414284D01*
X168208557Y-103414284D02*
X167308557Y-103414284D01*
X168122842Y-104657141D02*
X168165700Y-104614284D01*
X168165700Y-104614284D02*
X168208557Y-104485712D01*
X168208557Y-104485712D02*
X168208557Y-104399998D01*
X168208557Y-104399998D02*
X168165700Y-104271427D01*
X168165700Y-104271427D02*
X168079985Y-104185712D01*
X168079985Y-104185712D02*
X167994271Y-104142855D01*
X167994271Y-104142855D02*
X167822842Y-104099998D01*
X167822842Y-104099998D02*
X167694271Y-104099998D01*
X167694271Y-104099998D02*
X167522842Y-104142855D01*
X167522842Y-104142855D02*
X167437128Y-104185712D01*
X167437128Y-104185712D02*
X167351414Y-104271427D01*
X167351414Y-104271427D02*
X167308557Y-104399998D01*
X167308557Y-104399998D02*
X167308557Y-104485712D01*
X167308557Y-104485712D02*
X167351414Y-104614284D01*
X167351414Y-104614284D02*
X167394271Y-104657141D01*
D11*
%TO.C,J1*%
X156690000Y-81370000D02*
X158910000Y-81370000D01*
X156690000Y-82750000D02*
X156690000Y-81380000D01*
X156690000Y-83920000D02*
X154860000Y-83920000D01*
X156690000Y-84030000D02*
X156690000Y-83920000D01*
X156690000Y-84030000D02*
X158910000Y-84030000D01*
X158910000Y-81480000D02*
X158910000Y-81370000D01*
X158910000Y-84020000D02*
X158910000Y-82650000D01*
%TO.C,J4*%
X167870000Y-92990000D02*
X167870000Y-95210000D01*
X167870000Y-92990000D02*
X167980000Y-92990000D01*
X167880000Y-95210000D02*
X169250000Y-95210000D01*
X167980000Y-92990000D02*
X167980000Y-91160000D01*
X169150000Y-92990000D02*
X170520000Y-92990000D01*
X170420000Y-95210000D02*
X170530000Y-95210000D01*
X170530000Y-92990000D02*
X170530000Y-95210000D01*
%TO.C,J3*%
X156690000Y-104180000D02*
X156690000Y-105550000D01*
X156690000Y-106720000D02*
X156690000Y-106830000D01*
X158910000Y-104170000D02*
X156690000Y-104170000D01*
X158910000Y-104170000D02*
X158910000Y-104280000D01*
X158910000Y-104280000D02*
X160740000Y-104280000D01*
X158910000Y-105450000D02*
X158910000Y-106820000D01*
X158910000Y-106830000D02*
X156690000Y-106830000D01*
%TO.C,J2*%
X145070000Y-95210000D02*
X145070000Y-92990000D01*
X145180000Y-92990000D02*
X145070000Y-92990000D01*
X146450000Y-95210000D02*
X145080000Y-95210000D01*
X147620000Y-95210000D02*
X147620000Y-97040000D01*
X147720000Y-92990000D02*
X146350000Y-92990000D01*
X147730000Y-95210000D02*
X147620000Y-95210000D01*
X147730000Y-95210000D02*
X147730000Y-92990000D01*
%TO.C,U1*%
X145190000Y-100050000D02*
X145190000Y-98250000D01*
X145190000Y-100050000D02*
X145190000Y-100850000D01*
X148310000Y-100050000D02*
X148310000Y-99250000D01*
X148310000Y-100050000D02*
X148310000Y-100850000D01*
%TO.C,C2*%
X147240000Y-90690580D02*
X147240000Y-90409420D01*
X148260000Y-90690580D02*
X148260000Y-90409420D01*
%TO.C,C1*%
X148159420Y-103140000D02*
X148440580Y-103140000D01*
X148159420Y-104160000D02*
X148440580Y-104160000D01*
%TD*%
M02*
