%TF.GenerationSoftware,KiCad,Pcbnew,9.0.7*%
%TF.CreationDate,2026-01-26T10:07:13+01:00*%
%TF.ProjectId,Dice,44696365-2e6b-4696-9361-645f70636258,rev?*%
%TF.SameCoordinates,Original*%
%TF.FileFunction,Copper,L1,Top*%
%TF.FilePolarity,Positive*%
%FSLAX46Y46*%
G04 Gerber Fmt 4.6, Leading zero omitted, Abs format (unit mm)*
G04 Created by KiCad (PCBNEW 9.0.7) date 2026-01-26 10:07:13*
%MOMM*%
%LPD*%
G01*
G04 APERTURE LIST*
%TA.AperFunction,ViaPad*%
%ADD10C,0.800000*%
%TD*%
G04 APERTURE END LIST*
D10*
%TO.N,/TP*%
X149300000Y-91000000D03*
X149300000Y-97200000D03*
%TD*%
%TA.AperFunction,Conductor*%
%TO.N,/TP*%
G36*
X164001656Y-81100561D02*
G01*
X164455948Y-81117560D01*
X164459551Y-81117769D01*
X164567888Y-81126295D01*
X164570833Y-81126578D01*
X164968688Y-81171405D01*
X164972607Y-81171936D01*
X165075595Y-81188248D01*
X165078044Y-81188673D01*
X165476683Y-81264100D01*
X165480900Y-81265004D01*
X165574396Y-81287451D01*
X165576590Y-81288008D01*
X165976871Y-81395263D01*
X165981257Y-81396562D01*
X166060523Y-81422317D01*
X166062243Y-81422897D01*
X166466139Y-81564226D01*
X166470712Y-81565972D01*
X166529174Y-81590188D01*
X166530491Y-81590748D01*
X166941507Y-81770073D01*
X166946267Y-81772321D01*
X166973909Y-81786405D01*
X166974821Y-81786878D01*
X167396818Y-82009910D01*
X167402560Y-82013225D01*
X167600856Y-82137823D01*
X167827473Y-82280216D01*
X167832972Y-82283965D01*
X168236737Y-82581957D01*
X168241934Y-82586102D01*
X168622310Y-82913442D01*
X168627189Y-82917968D01*
X168982031Y-83272810D01*
X168986557Y-83277689D01*
X169313897Y-83658065D01*
X169318047Y-83663269D01*
X169616034Y-84067027D01*
X169619783Y-84072526D01*
X169886767Y-84497428D01*
X169890093Y-84503189D01*
X170004742Y-84720116D01*
X170113047Y-84925038D01*
X170113661Y-84926221D01*
X170127664Y-84953704D01*
X170129938Y-84958518D01*
X170309204Y-85369400D01*
X170309855Y-85370931D01*
X170334008Y-85429241D01*
X170335786Y-85433899D01*
X170346741Y-85465205D01*
X170477072Y-85837670D01*
X170477710Y-85839562D01*
X170503424Y-85918701D01*
X170504747Y-85923169D01*
X170611979Y-86323367D01*
X170612553Y-86325626D01*
X170634993Y-86419097D01*
X170635900Y-86423327D01*
X170711309Y-86821867D01*
X170711765Y-86824491D01*
X170728059Y-86927373D01*
X170728595Y-86931330D01*
X170773418Y-87329147D01*
X170773704Y-87332129D01*
X170782227Y-87440422D01*
X170782439Y-87444077D01*
X170799438Y-87898343D01*
X170799500Y-87901671D01*
X170799500Y-100298328D01*
X170799438Y-100301656D01*
X170782439Y-100755921D01*
X170782227Y-100759576D01*
X170773704Y-100867869D01*
X170773418Y-100870851D01*
X170728595Y-101268668D01*
X170728059Y-101272625D01*
X170711765Y-101375507D01*
X170711309Y-101378131D01*
X170635900Y-101776671D01*
X170634993Y-101780901D01*
X170612553Y-101874372D01*
X170611979Y-101876631D01*
X170504747Y-102276829D01*
X170503424Y-102281297D01*
X170477710Y-102360436D01*
X170477072Y-102362328D01*
X170335789Y-102766093D01*
X170334008Y-102770757D01*
X170309855Y-102829067D01*
X170309204Y-102830598D01*
X170129938Y-103241480D01*
X170127665Y-103246293D01*
X170113662Y-103273777D01*
X170113047Y-103274961D01*
X169890095Y-103696807D01*
X169886767Y-103702571D01*
X169619783Y-104127473D01*
X169616034Y-104132972D01*
X169318047Y-104536730D01*
X169313897Y-104541934D01*
X168986557Y-104922310D01*
X168982031Y-104927189D01*
X168627189Y-105282031D01*
X168622310Y-105286557D01*
X168241934Y-105613897D01*
X168236730Y-105618047D01*
X167832972Y-105916034D01*
X167827473Y-105919783D01*
X167402571Y-106186767D01*
X167396807Y-106190095D01*
X166974961Y-106413047D01*
X166973803Y-106413648D01*
X166964838Y-106418216D01*
X166946293Y-106427665D01*
X166941480Y-106429938D01*
X166530598Y-106609204D01*
X166529067Y-106609855D01*
X166470757Y-106634008D01*
X166466093Y-106635789D01*
X166062328Y-106777072D01*
X166060436Y-106777710D01*
X165981297Y-106803424D01*
X165976829Y-106804747D01*
X165576631Y-106911979D01*
X165574372Y-106912553D01*
X165480901Y-106934993D01*
X165476671Y-106935900D01*
X165078131Y-107011309D01*
X165075507Y-107011765D01*
X164972625Y-107028059D01*
X164968668Y-107028595D01*
X164570851Y-107073418D01*
X164567869Y-107073704D01*
X164459576Y-107082227D01*
X164455921Y-107082439D01*
X164001657Y-107099438D01*
X163998329Y-107099500D01*
X151601671Y-107099500D01*
X151598343Y-107099438D01*
X151144077Y-107082439D01*
X151140422Y-107082227D01*
X151032129Y-107073704D01*
X151029147Y-107073418D01*
X150631330Y-107028595D01*
X150627373Y-107028059D01*
X150524491Y-107011765D01*
X150521867Y-107011309D01*
X150123327Y-106935900D01*
X150119097Y-106934993D01*
X150025626Y-106912553D01*
X150023367Y-106911979D01*
X149623169Y-106804747D01*
X149618701Y-106803424D01*
X149539562Y-106777710D01*
X149537670Y-106777072D01*
X149307865Y-106696660D01*
X149133899Y-106635786D01*
X149129249Y-106634011D01*
X149070930Y-106609854D01*
X149069400Y-106609204D01*
X148658518Y-106429938D01*
X148653704Y-106427664D01*
X148652318Y-106426958D01*
X148626191Y-106413645D01*
X148625069Y-106413063D01*
X148203189Y-106190093D01*
X148197428Y-106186767D01*
X147772526Y-105919783D01*
X147767027Y-105916034D01*
X147363269Y-105618047D01*
X147358065Y-105613897D01*
X146977689Y-105286557D01*
X146972810Y-105282031D01*
X146617968Y-104927189D01*
X146613442Y-104922310D01*
X146286102Y-104541934D01*
X146281952Y-104536730D01*
X146137570Y-104341100D01*
X145983965Y-104132972D01*
X145980216Y-104127473D01*
X145850239Y-103920616D01*
X145713225Y-103702560D01*
X145709910Y-103696818D01*
X145486878Y-103274821D01*
X145486405Y-103273909D01*
X145472328Y-103246280D01*
X145470073Y-103241507D01*
X145290748Y-102830491D01*
X145290188Y-102829174D01*
X145265972Y-102770712D01*
X145264226Y-102766139D01*
X145122897Y-102362243D01*
X145122317Y-102360523D01*
X145096562Y-102281257D01*
X145095263Y-102276871D01*
X144988008Y-101876591D01*
X144987445Y-101874372D01*
X144978376Y-101836598D01*
X144965004Y-101780900D01*
X144964098Y-101776671D01*
X144888673Y-101378044D01*
X144888248Y-101375595D01*
X144871936Y-101272607D01*
X144871403Y-101268668D01*
X144868938Y-101246791D01*
X144826578Y-100870833D01*
X144826294Y-100867869D01*
X144817769Y-100759551D01*
X144817560Y-100755948D01*
X144800562Y-100301656D01*
X144800500Y-100298328D01*
X144800500Y-100271150D01*
X148845125Y-100271150D01*
X148861612Y-100602321D01*
X148917765Y-100929113D01*
X148942871Y-101013060D01*
X149012769Y-101246788D01*
X149012770Y-101246791D01*
X149145252Y-101550751D01*
X149145260Y-101550767D01*
X149313290Y-101836594D01*
X149313292Y-101836598D01*
X149313294Y-101836601D01*
X149313295Y-101836602D01*
X149514459Y-102100191D01*
X149514465Y-102100197D01*
X149745834Y-102337704D01*
X149745835Y-102337705D01*
X150004059Y-102545694D01*
X150004061Y-102545696D01*
X150285407Y-102721160D01*
X150285415Y-102721164D01*
X150585807Y-102861558D01*
X150900890Y-102964848D01*
X151226100Y-103029536D01*
X151556726Y-103054686D01*
X151887979Y-103039934D01*
X152215060Y-102985492D01*
X152533232Y-102892151D01*
X152837886Y-102761261D01*
X152837888Y-102761259D01*
X152837890Y-102761259D01*
X152924874Y-102710734D01*
X153124608Y-102594720D01*
X153389246Y-102394938D01*
X153627967Y-102164811D01*
X153837311Y-101907671D01*
X154014248Y-101627244D01*
X154050480Y-101550767D01*
X154156208Y-101327602D01*
X154156208Y-101327600D01*
X154156213Y-101327591D01*
X154261151Y-101013053D01*
X154327541Y-100688187D01*
X154354422Y-100357697D01*
X154355026Y-100300000D01*
X154353287Y-100271150D01*
X155045125Y-100271150D01*
X155061612Y-100602321D01*
X155117765Y-100929113D01*
X155142871Y-101013060D01*
X155212769Y-101246788D01*
X155212770Y-101246791D01*
X155345252Y-101550751D01*
X155345260Y-101550767D01*
X155513290Y-101836594D01*
X155513292Y-101836598D01*
X155513294Y-101836601D01*
X155513295Y-101836602D01*
X155714459Y-102100191D01*
X155714465Y-102100197D01*
X155945834Y-102337704D01*
X155945835Y-102337705D01*
X156204059Y-102545694D01*
X156204061Y-102545696D01*
X156485407Y-102721160D01*
X156485415Y-102721164D01*
X156785807Y-102861558D01*
X157100890Y-102964848D01*
X157426100Y-103029536D01*
X157756726Y-103054686D01*
X158087979Y-103039934D01*
X158415060Y-102985492D01*
X158733232Y-102892151D01*
X159037886Y-102761261D01*
X159037888Y-102761259D01*
X159037890Y-102761259D01*
X159124874Y-102710734D01*
X159324608Y-102594720D01*
X159589246Y-102394938D01*
X159827967Y-102164811D01*
X160037311Y-101907671D01*
X160214248Y-101627244D01*
X160250480Y-101550767D01*
X160356208Y-101327602D01*
X160356208Y-101327600D01*
X160356213Y-101327591D01*
X160461151Y-101013053D01*
X160527541Y-100688187D01*
X160554422Y-100357697D01*
X160555026Y-100300000D01*
X160553287Y-100271150D01*
X161245125Y-100271150D01*
X161261612Y-100602321D01*
X161317765Y-100929113D01*
X161342871Y-101013060D01*
X161412769Y-101246788D01*
X161412770Y-101246791D01*
X161545252Y-101550751D01*
X161545260Y-101550767D01*
X161713290Y-101836594D01*
X161713292Y-101836598D01*
X161713294Y-101836601D01*
X161713295Y-101836602D01*
X161914459Y-102100191D01*
X161914465Y-102100197D01*
X162145834Y-102337704D01*
X162145835Y-102337705D01*
X162404059Y-102545694D01*
X162404061Y-102545696D01*
X162685407Y-102721160D01*
X162685415Y-102721164D01*
X162985807Y-102861558D01*
X163300890Y-102964848D01*
X163626100Y-103029536D01*
X163956726Y-103054686D01*
X164287979Y-103039934D01*
X164615060Y-102985492D01*
X164933232Y-102892151D01*
X165237886Y-102761261D01*
X165237888Y-102761259D01*
X165237890Y-102761259D01*
X165324874Y-102710734D01*
X165524608Y-102594720D01*
X165789246Y-102394938D01*
X166027967Y-102164811D01*
X166237311Y-101907671D01*
X166414248Y-101627244D01*
X166450480Y-101550767D01*
X166556208Y-101327602D01*
X166556208Y-101327600D01*
X166556213Y-101327591D01*
X166661151Y-101013053D01*
X166727541Y-100688187D01*
X166754422Y-100357697D01*
X166755026Y-100300000D01*
X166735072Y-99969020D01*
X166675500Y-99642834D01*
X166577173Y-99326168D01*
X166441514Y-99023607D01*
X166270489Y-98739536D01*
X166066575Y-98478069D01*
X166045146Y-98456527D01*
X165832729Y-98242993D01*
X165572339Y-98037719D01*
X165572322Y-98037707D01*
X165289168Y-97865208D01*
X165289163Y-97865205D01*
X165259768Y-97851840D01*
X164987313Y-97727962D01*
X164987311Y-97727961D01*
X164987303Y-97727958D01*
X164671168Y-97627977D01*
X164345291Y-97566697D01*
X164014436Y-97545012D01*
X164014430Y-97545012D01*
X164014427Y-97545012D01*
X164014425Y-97545012D01*
X163683345Y-97563232D01*
X163683340Y-97563232D01*
X163683336Y-97563233D01*
X163356861Y-97621093D01*
X163039671Y-97717765D01*
X162736400Y-97851840D01*
X162451453Y-98021366D01*
X162451448Y-98021370D01*
X162188920Y-98223907D01*
X162188909Y-98223918D01*
X161952617Y-98456527D01*
X161745974Y-98715849D01*
X161571983Y-98998114D01*
X161433167Y-99299229D01*
X161331526Y-99614859D01*
X161326115Y-99642829D01*
X161268544Y-99940397D01*
X161245125Y-100271150D01*
X160553287Y-100271150D01*
X160535072Y-99969020D01*
X160475500Y-99642834D01*
X160377173Y-99326168D01*
X160241514Y-99023607D01*
X160070489Y-98739536D01*
X159866575Y-98478069D01*
X159845146Y-98456527D01*
X159632729Y-98242993D01*
X159372339Y-98037719D01*
X159372322Y-98037707D01*
X159089168Y-97865208D01*
X159089163Y-97865205D01*
X159059768Y-97851840D01*
X158787313Y-97727962D01*
X158787311Y-97727961D01*
X158787303Y-97727958D01*
X158471168Y-97627977D01*
X158145291Y-97566697D01*
X157814436Y-97545012D01*
X157814430Y-97545012D01*
X157814427Y-97545012D01*
X157814425Y-97545012D01*
X157483345Y-97563232D01*
X157483340Y-97563232D01*
X157483336Y-97563233D01*
X157156861Y-97621093D01*
X156839671Y-97717765D01*
X156536400Y-97851840D01*
X156251453Y-98021366D01*
X156251448Y-98021370D01*
X155988920Y-98223907D01*
X155988909Y-98223918D01*
X155752617Y-98456527D01*
X155545974Y-98715849D01*
X155371983Y-98998114D01*
X155233167Y-99299229D01*
X155131526Y-99614859D01*
X155126115Y-99642829D01*
X155068544Y-99940397D01*
X155045125Y-100271150D01*
X154353287Y-100271150D01*
X154335072Y-99969020D01*
X154275500Y-99642834D01*
X154177173Y-99326168D01*
X154041514Y-99023607D01*
X153870489Y-98739536D01*
X153666575Y-98478069D01*
X153645146Y-98456527D01*
X153432729Y-98242993D01*
X153172339Y-98037719D01*
X153172322Y-98037707D01*
X152889168Y-97865208D01*
X152889163Y-97865205D01*
X152859768Y-97851840D01*
X152587313Y-97727962D01*
X152587311Y-97727961D01*
X152587303Y-97727958D01*
X152271168Y-97627977D01*
X151945291Y-97566697D01*
X151614436Y-97545012D01*
X151614430Y-97545012D01*
X151614427Y-97545012D01*
X151614425Y-97545012D01*
X151283345Y-97563232D01*
X151283340Y-97563232D01*
X151283336Y-97563233D01*
X150956861Y-97621093D01*
X150639671Y-97717765D01*
X150336400Y-97851840D01*
X150051453Y-98021366D01*
X150051448Y-98021370D01*
X149788920Y-98223907D01*
X149788909Y-98223918D01*
X149552617Y-98456527D01*
X149345974Y-98715849D01*
X149171983Y-98998114D01*
X149033167Y-99299229D01*
X148931526Y-99614859D01*
X148926115Y-99642829D01*
X148868544Y-99940397D01*
X148845125Y-100271150D01*
X144800500Y-100271150D01*
X144800500Y-94071150D01*
X148845125Y-94071150D01*
X148861612Y-94402321D01*
X148917765Y-94729113D01*
X148942871Y-94813060D01*
X149012769Y-95046788D01*
X149012770Y-95046791D01*
X149145252Y-95350751D01*
X149145260Y-95350767D01*
X149313290Y-95636594D01*
X149313292Y-95636598D01*
X149313294Y-95636601D01*
X149313295Y-95636602D01*
X149514459Y-95900191D01*
X149514465Y-95900197D01*
X149745834Y-96137704D01*
X149745835Y-96137705D01*
X150004059Y-96345694D01*
X150004061Y-96345696D01*
X150285407Y-96521160D01*
X150285415Y-96521164D01*
X150585807Y-96661558D01*
X150900890Y-96764848D01*
X151226100Y-96829536D01*
X151556726Y-96854686D01*
X151887979Y-96839934D01*
X152215060Y-96785492D01*
X152533232Y-96692151D01*
X152837886Y-96561261D01*
X152837888Y-96561259D01*
X152837890Y-96561259D01*
X152924874Y-96510734D01*
X153124608Y-96394720D01*
X153389246Y-96194938D01*
X153627967Y-95964811D01*
X153837311Y-95707671D01*
X154014248Y-95427244D01*
X154050480Y-95350767D01*
X154156208Y-95127602D01*
X154156208Y-95127600D01*
X154156213Y-95127591D01*
X154261151Y-94813053D01*
X154327541Y-94488187D01*
X154354422Y-94157697D01*
X154355026Y-94100000D01*
X154353287Y-94071150D01*
X155045125Y-94071150D01*
X155061612Y-94402321D01*
X155117765Y-94729113D01*
X155142871Y-94813060D01*
X155212769Y-95046788D01*
X155212770Y-95046791D01*
X155345252Y-95350751D01*
X155345260Y-95350767D01*
X155513290Y-95636594D01*
X155513292Y-95636598D01*
X155513294Y-95636601D01*
X155513295Y-95636602D01*
X155714459Y-95900191D01*
X155714465Y-95900197D01*
X155945834Y-96137704D01*
X155945835Y-96137705D01*
X156204059Y-96345694D01*
X156204061Y-96345696D01*
X156485407Y-96521160D01*
X156485415Y-96521164D01*
X156785807Y-96661558D01*
X157100890Y-96764848D01*
X157426100Y-96829536D01*
X157756726Y-96854686D01*
X158087979Y-96839934D01*
X158415060Y-96785492D01*
X158733232Y-96692151D01*
X159037886Y-96561261D01*
X159037888Y-96561259D01*
X159037890Y-96561259D01*
X159124874Y-96510734D01*
X159324608Y-96394720D01*
X159589246Y-96194938D01*
X159827967Y-95964811D01*
X160037311Y-95707671D01*
X160214248Y-95427244D01*
X160250480Y-95350767D01*
X160356208Y-95127602D01*
X160356208Y-95127600D01*
X160356213Y-95127591D01*
X160461151Y-94813053D01*
X160527541Y-94488187D01*
X160554422Y-94157697D01*
X160555026Y-94100000D01*
X160553287Y-94071150D01*
X161245125Y-94071150D01*
X161261612Y-94402321D01*
X161317765Y-94729113D01*
X161342871Y-94813060D01*
X161412769Y-95046788D01*
X161412770Y-95046791D01*
X161545252Y-95350751D01*
X161545260Y-95350767D01*
X161713290Y-95636594D01*
X161713292Y-95636598D01*
X161713294Y-95636601D01*
X161713295Y-95636602D01*
X161914459Y-95900191D01*
X161914465Y-95900197D01*
X162145834Y-96137704D01*
X162145835Y-96137705D01*
X162404059Y-96345694D01*
X162404061Y-96345696D01*
X162685407Y-96521160D01*
X162685415Y-96521164D01*
X162985807Y-96661558D01*
X163300890Y-96764848D01*
X163626100Y-96829536D01*
X163956726Y-96854686D01*
X164287979Y-96839934D01*
X164615060Y-96785492D01*
X164933232Y-96692151D01*
X165237886Y-96561261D01*
X165237888Y-96561259D01*
X165237890Y-96561259D01*
X165324874Y-96510734D01*
X165524608Y-96394720D01*
X165789246Y-96194938D01*
X166027967Y-95964811D01*
X166237311Y-95707671D01*
X166414248Y-95427244D01*
X166450480Y-95350767D01*
X166556208Y-95127602D01*
X166556208Y-95127600D01*
X166556213Y-95127591D01*
X166661151Y-94813053D01*
X166727541Y-94488187D01*
X166754422Y-94157697D01*
X166755026Y-94100000D01*
X166735072Y-93769020D01*
X166675500Y-93442834D01*
X166577173Y-93126168D01*
X166441514Y-92823607D01*
X166270489Y-92539536D01*
X166066575Y-92278069D01*
X166045146Y-92256527D01*
X165832729Y-92042993D01*
X165572339Y-91837719D01*
X165572322Y-91837707D01*
X165289168Y-91665208D01*
X165289163Y-91665205D01*
X165259768Y-91651840D01*
X164987313Y-91527962D01*
X164987311Y-91527961D01*
X164987303Y-91527958D01*
X164671168Y-91427977D01*
X164345291Y-91366697D01*
X164014436Y-91345012D01*
X164014430Y-91345012D01*
X164014427Y-91345012D01*
X164014425Y-91345012D01*
X163683345Y-91363232D01*
X163683340Y-91363232D01*
X163683336Y-91363233D01*
X163356861Y-91421093D01*
X163039671Y-91517765D01*
X162736400Y-91651840D01*
X162451453Y-91821366D01*
X162451448Y-91821370D01*
X162188920Y-92023907D01*
X162188909Y-92023918D01*
X161952617Y-92256527D01*
X161745974Y-92515849D01*
X161571983Y-92798114D01*
X161433167Y-93099229D01*
X161331526Y-93414859D01*
X161326115Y-93442829D01*
X161268544Y-93740397D01*
X161245125Y-94071150D01*
X160553287Y-94071150D01*
X160535072Y-93769020D01*
X160475500Y-93442834D01*
X160377173Y-93126168D01*
X160241514Y-92823607D01*
X160070489Y-92539536D01*
X159866575Y-92278069D01*
X159845146Y-92256527D01*
X159632729Y-92042993D01*
X159372339Y-91837719D01*
X159372322Y-91837707D01*
X159089168Y-91665208D01*
X159089163Y-91665205D01*
X159059768Y-91651840D01*
X158787313Y-91527962D01*
X158787311Y-91527961D01*
X158787303Y-91527958D01*
X158471168Y-91427977D01*
X158145291Y-91366697D01*
X157814436Y-91345012D01*
X157814430Y-91345012D01*
X157814427Y-91345012D01*
X157814425Y-91345012D01*
X157483345Y-91363232D01*
X157483340Y-91363232D01*
X157483336Y-91363233D01*
X157156861Y-91421093D01*
X156839671Y-91517765D01*
X156536400Y-91651840D01*
X156251453Y-91821366D01*
X156251448Y-91821370D01*
X155988920Y-92023907D01*
X155988909Y-92023918D01*
X155752617Y-92256527D01*
X155545974Y-92515849D01*
X155371983Y-92798114D01*
X155233167Y-93099229D01*
X155131526Y-93414859D01*
X155126115Y-93442829D01*
X155068544Y-93740397D01*
X155045125Y-94071150D01*
X154353287Y-94071150D01*
X154335072Y-93769020D01*
X154275500Y-93442834D01*
X154177173Y-93126168D01*
X154041514Y-92823607D01*
X153870489Y-92539536D01*
X153666575Y-92278069D01*
X153645146Y-92256527D01*
X153432729Y-92042993D01*
X153172339Y-91837719D01*
X153172322Y-91837707D01*
X152889168Y-91665208D01*
X152889163Y-91665205D01*
X152859768Y-91651840D01*
X152587313Y-91527962D01*
X152587311Y-91527961D01*
X152587303Y-91527958D01*
X152271168Y-91427977D01*
X151945291Y-91366697D01*
X151614436Y-91345012D01*
X151614430Y-91345012D01*
X151614427Y-91345012D01*
X151614425Y-91345012D01*
X151283345Y-91363232D01*
X151283340Y-91363232D01*
X151283336Y-91363233D01*
X150956861Y-91421093D01*
X150639671Y-91517765D01*
X150336400Y-91651840D01*
X150051453Y-91821366D01*
X150051448Y-91821370D01*
X149788920Y-92023907D01*
X149788909Y-92023918D01*
X149552617Y-92256527D01*
X149345974Y-92515849D01*
X149171983Y-92798114D01*
X149033167Y-93099229D01*
X148931526Y-93414859D01*
X148926115Y-93442829D01*
X148868544Y-93740397D01*
X148845125Y-94071150D01*
X144800500Y-94071150D01*
X144800500Y-87901671D01*
X144800562Y-87898342D01*
X144801580Y-87871150D01*
X148845125Y-87871150D01*
X148861612Y-88202321D01*
X148917765Y-88529113D01*
X148942871Y-88613060D01*
X149012769Y-88846788D01*
X149012770Y-88846791D01*
X149145252Y-89150751D01*
X149145260Y-89150767D01*
X149313290Y-89436594D01*
X149313292Y-89436598D01*
X149313294Y-89436601D01*
X149313295Y-89436602D01*
X149514459Y-89700191D01*
X149514465Y-89700197D01*
X149745834Y-89937704D01*
X149745835Y-89937705D01*
X150004059Y-90145694D01*
X150004061Y-90145696D01*
X150285407Y-90321160D01*
X150285415Y-90321164D01*
X150585807Y-90461558D01*
X150900890Y-90564848D01*
X151226100Y-90629536D01*
X151556726Y-90654686D01*
X151887979Y-90639934D01*
X152215060Y-90585492D01*
X152533232Y-90492151D01*
X152837886Y-90361261D01*
X152837888Y-90361259D01*
X152837890Y-90361259D01*
X152924874Y-90310734D01*
X153124608Y-90194720D01*
X153389246Y-89994938D01*
X153627967Y-89764811D01*
X153837311Y-89507671D01*
X154014248Y-89227244D01*
X154050480Y-89150767D01*
X154156208Y-88927602D01*
X154156208Y-88927600D01*
X154156213Y-88927591D01*
X154261151Y-88613053D01*
X154327541Y-88288187D01*
X154354422Y-87957697D01*
X154355026Y-87900000D01*
X154353287Y-87871150D01*
X155045125Y-87871150D01*
X155061612Y-88202321D01*
X155117765Y-88529113D01*
X155142871Y-88613060D01*
X155212769Y-88846788D01*
X155212770Y-88846791D01*
X155345252Y-89150751D01*
X155345260Y-89150767D01*
X155513290Y-89436594D01*
X155513292Y-89436598D01*
X155513294Y-89436601D01*
X155513295Y-89436602D01*
X155714459Y-89700191D01*
X155714465Y-89700197D01*
X155945834Y-89937704D01*
X155945835Y-89937705D01*
X156204059Y-90145694D01*
X156204061Y-90145696D01*
X156485407Y-90321160D01*
X156485415Y-90321164D01*
X156785807Y-90461558D01*
X157100890Y-90564848D01*
X157426100Y-90629536D01*
X157756726Y-90654686D01*
X158087979Y-90639934D01*
X158415060Y-90585492D01*
X158733232Y-90492151D01*
X159037886Y-90361261D01*
X159037888Y-90361259D01*
X159037890Y-90361259D01*
X159124874Y-90310734D01*
X159324608Y-90194720D01*
X159589246Y-89994938D01*
X159827967Y-89764811D01*
X160037311Y-89507671D01*
X160214248Y-89227244D01*
X160250480Y-89150767D01*
X160356208Y-88927602D01*
X160356208Y-88927600D01*
X160356213Y-88927591D01*
X160461151Y-88613053D01*
X160527541Y-88288187D01*
X160554422Y-87957697D01*
X160555026Y-87900000D01*
X160553287Y-87871150D01*
X161245125Y-87871150D01*
X161261612Y-88202321D01*
X161317765Y-88529113D01*
X161342871Y-88613060D01*
X161412769Y-88846788D01*
X161412770Y-88846791D01*
X161545252Y-89150751D01*
X161545260Y-89150767D01*
X161713290Y-89436594D01*
X161713292Y-89436598D01*
X161713294Y-89436601D01*
X161713295Y-89436602D01*
X161914459Y-89700191D01*
X161914465Y-89700197D01*
X162145834Y-89937704D01*
X162145835Y-89937705D01*
X162404059Y-90145694D01*
X162404061Y-90145696D01*
X162685407Y-90321160D01*
X162685415Y-90321164D01*
X162985807Y-90461558D01*
X163300890Y-90564848D01*
X163626100Y-90629536D01*
X163956726Y-90654686D01*
X164287979Y-90639934D01*
X164615060Y-90585492D01*
X164933232Y-90492151D01*
X165237886Y-90361261D01*
X165237888Y-90361259D01*
X165237890Y-90361259D01*
X165324874Y-90310734D01*
X165524608Y-90194720D01*
X165789246Y-89994938D01*
X166027967Y-89764811D01*
X166237311Y-89507671D01*
X166414248Y-89227244D01*
X166450480Y-89150767D01*
X166556208Y-88927602D01*
X166556208Y-88927600D01*
X166556213Y-88927591D01*
X166661151Y-88613053D01*
X166727541Y-88288187D01*
X166754422Y-87957697D01*
X166755026Y-87900000D01*
X166735072Y-87569020D01*
X166675500Y-87242834D01*
X166577173Y-86926168D01*
X166441514Y-86623607D01*
X166270489Y-86339536D01*
X166066575Y-86078069D01*
X165912485Y-85923169D01*
X165832729Y-85842993D01*
X165572339Y-85637719D01*
X165572322Y-85637707D01*
X165289168Y-85465208D01*
X165289163Y-85465205D01*
X165259768Y-85451840D01*
X164987313Y-85327962D01*
X164987311Y-85327961D01*
X164987303Y-85327958D01*
X164671168Y-85227977D01*
X164345291Y-85166697D01*
X164014436Y-85145012D01*
X164014430Y-85145012D01*
X164014427Y-85145012D01*
X164014425Y-85145012D01*
X163683345Y-85163232D01*
X163683340Y-85163232D01*
X163683336Y-85163233D01*
X163356861Y-85221093D01*
X163039671Y-85317765D01*
X162736400Y-85451840D01*
X162451453Y-85621366D01*
X162451448Y-85621370D01*
X162188920Y-85823907D01*
X162188909Y-85823918D01*
X161952617Y-86056527D01*
X161745974Y-86315849D01*
X161571983Y-86598114D01*
X161433167Y-86899229D01*
X161331526Y-87214859D01*
X161308838Y-87332129D01*
X161268544Y-87540397D01*
X161245125Y-87871150D01*
X160553287Y-87871150D01*
X160535072Y-87569020D01*
X160475500Y-87242834D01*
X160377173Y-86926168D01*
X160241514Y-86623607D01*
X160070489Y-86339536D01*
X159866575Y-86078069D01*
X159712485Y-85923169D01*
X159632729Y-85842993D01*
X159372339Y-85637719D01*
X159372322Y-85637707D01*
X159089168Y-85465208D01*
X159089163Y-85465205D01*
X159059768Y-85451840D01*
X158787313Y-85327962D01*
X158787311Y-85327961D01*
X158787303Y-85327958D01*
X158471168Y-85227977D01*
X158145291Y-85166697D01*
X157814436Y-85145012D01*
X157814430Y-85145012D01*
X157814427Y-85145012D01*
X157814425Y-85145012D01*
X157483345Y-85163232D01*
X157483340Y-85163232D01*
X157483336Y-85163233D01*
X157156861Y-85221093D01*
X156839671Y-85317765D01*
X156536400Y-85451840D01*
X156251453Y-85621366D01*
X156251448Y-85621370D01*
X155988920Y-85823907D01*
X155988909Y-85823918D01*
X155752617Y-86056527D01*
X155545974Y-86315849D01*
X155371983Y-86598114D01*
X155233167Y-86899229D01*
X155131526Y-87214859D01*
X155108838Y-87332129D01*
X155068544Y-87540397D01*
X155045125Y-87871150D01*
X154353287Y-87871150D01*
X154335072Y-87569020D01*
X154275500Y-87242834D01*
X154177173Y-86926168D01*
X154041514Y-86623607D01*
X153870489Y-86339536D01*
X153666575Y-86078069D01*
X153512485Y-85923169D01*
X153432729Y-85842993D01*
X153172339Y-85637719D01*
X153172322Y-85637707D01*
X152889168Y-85465208D01*
X152889163Y-85465205D01*
X152859768Y-85451840D01*
X152587313Y-85327962D01*
X152587311Y-85327961D01*
X152587303Y-85327958D01*
X152271168Y-85227977D01*
X151945291Y-85166697D01*
X151614436Y-85145012D01*
X151614430Y-85145012D01*
X151614427Y-85145012D01*
X151614425Y-85145012D01*
X151283345Y-85163232D01*
X151283340Y-85163232D01*
X151283336Y-85163233D01*
X150956861Y-85221093D01*
X150639671Y-85317765D01*
X150336400Y-85451840D01*
X150051453Y-85621366D01*
X150051448Y-85621370D01*
X149788920Y-85823907D01*
X149788909Y-85823918D01*
X149552617Y-86056527D01*
X149345974Y-86315849D01*
X149171983Y-86598114D01*
X149033167Y-86899229D01*
X148931526Y-87214859D01*
X148908838Y-87332129D01*
X148868544Y-87540397D01*
X148845125Y-87871150D01*
X144801580Y-87871150D01*
X144801639Y-87869569D01*
X144801639Y-87869568D01*
X144810021Y-87645543D01*
X144817560Y-87444045D01*
X144817769Y-87440454D01*
X144826296Y-87332100D01*
X144826576Y-87329178D01*
X144871407Y-86931299D01*
X144871934Y-86927404D01*
X144888251Y-86824382D01*
X144888669Y-86821980D01*
X144964103Y-86423299D01*
X144965005Y-86419097D01*
X144987460Y-86325566D01*
X144987998Y-86323446D01*
X145095269Y-85923107D01*
X145096555Y-85918762D01*
X145122335Y-85839422D01*
X145122878Y-85837809D01*
X145264235Y-85433836D01*
X145265963Y-85429311D01*
X145290220Y-85370748D01*
X145290711Y-85369592D01*
X145470084Y-84958465D01*
X145472308Y-84953757D01*
X145486461Y-84925980D01*
X145486807Y-84925314D01*
X145709917Y-84503169D01*
X145713218Y-84497451D01*
X145980221Y-84072517D01*
X145983965Y-84067027D01*
X146281967Y-83663249D01*
X146286102Y-83658065D01*
X146613442Y-83277689D01*
X146617955Y-83272823D01*
X146972823Y-82917955D01*
X146977689Y-82913442D01*
X147358065Y-82586102D01*
X147363249Y-82581967D01*
X147767035Y-82283959D01*
X147772517Y-82280221D01*
X148197451Y-82013218D01*
X148203169Y-82009917D01*
X148625314Y-81786807D01*
X148625980Y-81786461D01*
X148653757Y-81772308D01*
X148658465Y-81770084D01*
X149069592Y-81590711D01*
X149070748Y-81590220D01*
X149129311Y-81565963D01*
X149133836Y-81564235D01*
X149537809Y-81422878D01*
X149539422Y-81422335D01*
X149618762Y-81396555D01*
X149623107Y-81395269D01*
X150023446Y-81287998D01*
X150025566Y-81287460D01*
X150119116Y-81265000D01*
X150123299Y-81264103D01*
X150521980Y-81188669D01*
X150524382Y-81188251D01*
X150627404Y-81171934D01*
X150631299Y-81171407D01*
X151029178Y-81126576D01*
X151032100Y-81126296D01*
X151140454Y-81117769D01*
X151144045Y-81117560D01*
X151598343Y-81100561D01*
X151601671Y-81100500D01*
X163998329Y-81100500D01*
X164001656Y-81100561D01*
G37*
%TD.AperFunction*%
%TD*%
M02*
