%TF.GenerationSoftware,KiCad,Pcbnew,9.0.7*%
%TF.CreationDate,2026-01-26T10:07:13+01:00*%
%TF.ProjectId,Dice,44696365-2e6b-4696-9361-645f70636258,rev?*%
%TF.SameCoordinates,Original*%
%TF.FileFunction,Soldermask,Bot*%
%TF.FilePolarity,Negative*%
%FSLAX46Y46*%
G04 Gerber Fmt 4.6, Leading zero omitted, Abs format (unit mm)*
G04 Created by KiCad (PCBNEW 9.0.7) date 2026-01-26 10:07:13*
%MOMM*%
%LPD*%
G01*
G04 APERTURE LIST*
G04 Aperture macros list*
%AMRoundRect*
0 Rectangle with rounded corners*
0 $1 Rounding radius*
0 $2 $3 $4 $5 $6 $7 $8 $9 X,Y pos of 4 corners*
0 Add a 4 corners polygon primitive as box body*
4,1,4,$2,$3,$4,$5,$6,$7,$8,$9,$2,$3,0*
0 Add four circle primitives for the rounded corners*
1,1,$1+$1,$2,$3*
1,1,$1+$1,$4,$5*
1,1,$1+$1,$6,$7*
1,1,$1+$1,$8,$9*
0 Add four rect primitives between the rounded corners*
20,1,$1+$1,$2,$3,$4,$5,0*
20,1,$1+$1,$4,$5,$6,$7,0*
20,1,$1+$1,$6,$7,$8,$9,0*
20,1,$1+$1,$8,$9,$2,$3,0*%
G04 Aperture macros list end*
%ADD10C,2.800000*%
%ADD11C,2.750500*%
%ADD12R,3.000000X0.650000*%
%ADD13R,0.650000X3.000000*%
%ADD14RoundRect,0.150000X-0.150000X0.512500X-0.150000X-0.512500X0.150000X-0.512500X0.150000X0.512500X0*%
%ADD15RoundRect,0.225000X0.250000X-0.225000X0.250000X0.225000X-0.250000X0.225000X-0.250000X-0.225000X0*%
%ADD16RoundRect,0.225000X-0.225000X-0.250000X0.225000X-0.250000X0.225000X0.250000X-0.225000X0.250000X0*%
G04 APERTURE END LIST*
D10*
X165400000Y-87900000D02*
G75*
G02*
X162600000Y-87900000I-1400000J0D01*
G01*
X162600000Y-87900000D02*
G75*
G02*
X165400000Y-87900000I1400000J0D01*
G01*
X153000000Y-100300000D02*
G75*
G02*
X150200000Y-100300000I-1400000J0D01*
G01*
X150200000Y-100300000D02*
G75*
G02*
X153000000Y-100300000I1400000J0D01*
G01*
X159200000Y-100300000D02*
G75*
G02*
X156400000Y-100300000I-1400000J0D01*
G01*
X156400000Y-100300000D02*
G75*
G02*
X159200000Y-100300000I1400000J0D01*
G01*
X165400000Y-100300000D02*
G75*
G02*
X162600000Y-100300000I-1400000J0D01*
G01*
X162600000Y-100300000D02*
G75*
G02*
X165400000Y-100300000I1400000J0D01*
G01*
X165400000Y-94100000D02*
G75*
G02*
X162600000Y-94100000I-1400000J0D01*
G01*
X162600000Y-94100000D02*
G75*
G02*
X165400000Y-94100000I1400000J0D01*
G01*
X159200000Y-87900000D02*
G75*
G02*
X156400000Y-87900000I-1400000J0D01*
G01*
X156400000Y-87900000D02*
G75*
G02*
X159200000Y-87900000I1400000J0D01*
G01*
X153000000Y-94100000D02*
G75*
G02*
X150200000Y-94100000I-1400000J0D01*
G01*
X150200000Y-94100000D02*
G75*
G02*
X153000000Y-94100000I1400000J0D01*
G01*
D11*
X152975250Y-87900000D02*
G75*
G02*
X150224750Y-87900000I-1375250J0D01*
G01*
X150224750Y-87900000D02*
G75*
G02*
X152975250Y-87900000I1375250J0D01*
G01*
D10*
X159200000Y-94100000D02*
G75*
G02*
X156400000Y-94100000I-1400000J0D01*
G01*
X156400000Y-94100000D02*
G75*
G02*
X159200000Y-94100000I1400000J0D01*
G01*
D12*
%TO.C,J1*%
X156300000Y-83335000D03*
X159300000Y-82065000D03*
%TD*%
D13*
%TO.C,J4*%
X168565000Y-92600000D03*
X169835000Y-95600000D03*
%TD*%
D12*
%TO.C,J3*%
X159300000Y-104865000D03*
X156300000Y-106135000D03*
%TD*%
D13*
%TO.C,J2*%
X147035000Y-95600000D03*
X145765000Y-92600000D03*
%TD*%
D14*
%TO.C,U1*%
X145800000Y-98912500D03*
X146750000Y-98912500D03*
X147700000Y-98912500D03*
X147700000Y-101187500D03*
X146750000Y-101187500D03*
X145800000Y-101187500D03*
%TD*%
D15*
%TO.C,C2*%
X147750000Y-91325000D03*
X147750000Y-89775000D03*
%TD*%
D16*
%TO.C,C1*%
X147525000Y-103650000D03*
X149075000Y-103650000D03*
%TD*%
M02*
