%TF.GenerationSoftware,KiCad,Pcbnew,(5.1.10)-1*%
%TF.CreationDate,2021-12-20T17:30:05+01:00*%
%TF.ProjectId,Touchpad,546f7563-6870-4616-942e-6b696361645f,rev?*%
%TF.SameCoordinates,Original*%
%TF.FileFunction,Soldermask,Bot*%
%TF.FilePolarity,Negative*%
%FSLAX46Y46*%
G04 Gerber Fmt 4.6, Leading zero omitted, Abs format (unit mm)*
G04 Created by KiCad (PCBNEW (5.1.10)-1) date 2021-12-20 17:30:05*
%MOMM*%
%LPD*%
G01*
G04 APERTURE LIST*
%ADD10C,6.000000*%
%ADD11C,3.200000*%
%ADD12R,1.700000X1.700000*%
%ADD13O,1.700000X1.700000*%
%ADD14C,0.100000*%
%ADD15R,0.420000X1.300000*%
G04 APERTURE END LIST*
D10*
X117200000Y-89200000D02*
G75*
G03*
X117200000Y-89200000I-2200000J0D01*
G01*
X133900000Y-89300000D02*
G75*
G03*
X133900000Y-89300000I-2200000J0D01*
G01*
X150000000Y-89200000D02*
G75*
G03*
X150000000Y-89200000I-2200000J0D01*
G01*
X166000000Y-89300000D02*
G75*
G03*
X166000000Y-89300000I-2200000J0D01*
G01*
X182000000Y-89000000D02*
G75*
G03*
X182000000Y-89000000I-2200000J0D01*
G01*
X197200000Y-89000000D02*
G75*
G03*
X197200000Y-89000000I-2200000J0D01*
G01*
D11*
%TO.C,H1*%
X108500000Y-102750000D03*
%TD*%
%TO.C,H2*%
X201500000Y-58500000D03*
%TD*%
%TO.C,H3*%
X201500000Y-102750000D03*
%TD*%
%TO.C,H4*%
X108500000Y-58500000D03*
%TD*%
D12*
%TO.C,J1*%
X145000000Y-60000000D03*
D13*
X147540000Y-60000000D03*
X150080000Y-60000000D03*
X152620000Y-60000000D03*
X155160000Y-60000000D03*
X157700000Y-60000000D03*
X160240000Y-60000000D03*
X162780000Y-60000000D03*
%TD*%
%TO.C,C13*%
G36*
G01*
X187362913Y-81777533D02*
X187716467Y-82131087D01*
G75*
G02*
X187716467Y-82449285I-159099J-159099D01*
G01*
X187398269Y-82767483D01*
G75*
G02*
X187080071Y-82767483I-159099J159099D01*
G01*
X186726517Y-82413929D01*
G75*
G02*
X186726517Y-82095731I159099J159099D01*
G01*
X187044715Y-81777533D01*
G75*
G02*
X187362913Y-81777533I159099J-159099D01*
G01*
G37*
G36*
G01*
X188458929Y-80681517D02*
X188812483Y-81035071D01*
G75*
G02*
X188812483Y-81353269I-159099J-159099D01*
G01*
X188494285Y-81671467D01*
G75*
G02*
X188176087Y-81671467I-159099J159099D01*
G01*
X187822533Y-81317913D01*
G75*
G02*
X187822533Y-80999715I159099J159099D01*
G01*
X188140731Y-80681517D01*
G75*
G02*
X188458929Y-80681517I159099J-159099D01*
G01*
G37*
%TD*%
%TO.C,C14*%
G36*
G01*
X187632033Y-96228087D02*
X187985587Y-95874533D01*
G75*
G02*
X188303785Y-95874533I159099J-159099D01*
G01*
X188621983Y-96192731D01*
G75*
G02*
X188621983Y-96510929I-159099J-159099D01*
G01*
X188268429Y-96864483D01*
G75*
G02*
X187950231Y-96864483I-159099J159099D01*
G01*
X187632033Y-96546285D01*
G75*
G02*
X187632033Y-96228087I159099J159099D01*
G01*
G37*
G36*
G01*
X186536017Y-95132071D02*
X186889571Y-94778517D01*
G75*
G02*
X187207769Y-94778517I159099J-159099D01*
G01*
X187525967Y-95096715D01*
G75*
G02*
X187525967Y-95414913I-159099J-159099D01*
G01*
X187172413Y-95768467D01*
G75*
G02*
X186854215Y-95768467I-159099J159099D01*
G01*
X186536017Y-95450269D01*
G75*
G02*
X186536017Y-95132071I159099J159099D01*
G01*
G37*
%TD*%
%TO.C,C15*%
G36*
G01*
X201812071Y-96737483D02*
X201458517Y-96383929D01*
G75*
G02*
X201458517Y-96065731I159099J159099D01*
G01*
X201776715Y-95747533D01*
G75*
G02*
X202094913Y-95747533I159099J-159099D01*
G01*
X202448467Y-96101087D01*
G75*
G02*
X202448467Y-96419285I-159099J-159099D01*
G01*
X202130269Y-96737483D01*
G75*
G02*
X201812071Y-96737483I-159099J159099D01*
G01*
G37*
G36*
G01*
X202908087Y-95641467D02*
X202554533Y-95287913D01*
G75*
G02*
X202554533Y-94969715I159099J159099D01*
G01*
X202872731Y-94651517D01*
G75*
G02*
X203190929Y-94651517I159099J-159099D01*
G01*
X203544483Y-95005071D01*
G75*
G02*
X203544483Y-95323269I-159099J-159099D01*
G01*
X203226285Y-95641467D01*
G75*
G02*
X202908087Y-95641467I-159099J159099D01*
G01*
G37*
%TD*%
%TO.C,C16*%
G36*
G01*
X202972983Y-82921929D02*
X202619429Y-83275483D01*
G75*
G02*
X202301231Y-83275483I-159099J159099D01*
G01*
X201983033Y-82957285D01*
G75*
G02*
X201983033Y-82639087I159099J159099D01*
G01*
X202336587Y-82285533D01*
G75*
G02*
X202654785Y-82285533I159099J-159099D01*
G01*
X202972983Y-82603731D01*
G75*
G02*
X202972983Y-82921929I-159099J-159099D01*
G01*
G37*
G36*
G01*
X201876967Y-81825913D02*
X201523413Y-82179467D01*
G75*
G02*
X201205215Y-82179467I-159099J159099D01*
G01*
X200887017Y-81861269D01*
G75*
G02*
X200887017Y-81543071I159099J159099D01*
G01*
X201240571Y-81189517D01*
G75*
G02*
X201558769Y-81189517I159099J-159099D01*
G01*
X201876967Y-81507715D01*
G75*
G02*
X201876967Y-81825913I-159099J-159099D01*
G01*
G37*
%TD*%
D14*
%TO.C,D7*%
G36*
X191268188Y-83717051D02*
G01*
X190348949Y-82797812D01*
X190645934Y-82500827D01*
X191565173Y-83420066D01*
X191268188Y-83717051D01*
G37*
G36*
X190667147Y-84318092D02*
G01*
X189747908Y-83398853D01*
X190044893Y-83101868D01*
X190964132Y-84021107D01*
X190667147Y-84318092D01*
G37*
G36*
X190066107Y-84919132D02*
G01*
X189146868Y-83999893D01*
X189443853Y-83702908D01*
X190363092Y-84622147D01*
X190066107Y-84919132D01*
G37*
G36*
X189465066Y-85520173D02*
G01*
X188545827Y-84600934D01*
X188842812Y-84303949D01*
X189762051Y-85223188D01*
X189465066Y-85520173D01*
G37*
%TD*%
%TO.C,D8*%
G36*
X191374673Y-94125934D02*
G01*
X190455434Y-95045173D01*
X190158449Y-94748188D01*
X191077688Y-93828949D01*
X191374673Y-94125934D01*
G37*
G36*
X190773632Y-93524893D02*
G01*
X189854393Y-94444132D01*
X189557408Y-94147147D01*
X190476647Y-93227908D01*
X190773632Y-93524893D01*
G37*
G36*
X190172592Y-92923853D02*
G01*
X189253353Y-93843092D01*
X188956368Y-93546107D01*
X189875607Y-92626868D01*
X190172592Y-92923853D01*
G37*
G36*
X189571551Y-92322812D02*
G01*
X188652312Y-93242051D01*
X188355327Y-92945066D01*
X189274566Y-92025827D01*
X189571551Y-92322812D01*
G37*
%TD*%
%TO.C,D9*%
G36*
X199066312Y-93765449D02*
G01*
X199985551Y-94684688D01*
X199688566Y-94981673D01*
X198769327Y-94062434D01*
X199066312Y-93765449D01*
G37*
G36*
X199667353Y-93164408D02*
G01*
X200586592Y-94083647D01*
X200289607Y-94380632D01*
X199370368Y-93461393D01*
X199667353Y-93164408D01*
G37*
G36*
X200268393Y-92563368D02*
G01*
X201187632Y-93482607D01*
X200890647Y-93779592D01*
X199971408Y-92860353D01*
X200268393Y-92563368D01*
G37*
G36*
X200869434Y-91962327D02*
G01*
X201788673Y-92881566D01*
X201491688Y-93178551D01*
X200572449Y-92259312D01*
X200869434Y-91962327D01*
G37*
%TD*%
%TO.C,D10*%
G36*
X198388327Y-83674066D02*
G01*
X199307566Y-82754827D01*
X199604551Y-83051812D01*
X198685312Y-83971051D01*
X198388327Y-83674066D01*
G37*
G36*
X198989368Y-84275107D02*
G01*
X199908607Y-83355868D01*
X200205592Y-83652853D01*
X199286353Y-84572092D01*
X198989368Y-84275107D01*
G37*
G36*
X199590408Y-84876147D02*
G01*
X200509647Y-83956908D01*
X200806632Y-84253893D01*
X199887393Y-85173132D01*
X199590408Y-84876147D01*
G37*
G36*
X200191449Y-85477188D02*
G01*
X201110688Y-84557949D01*
X201407673Y-84854934D01*
X200488434Y-85774173D01*
X200191449Y-85477188D01*
G37*
%TD*%
D12*
%TO.C,J2*%
X202057000Y-69596000D03*
D13*
X202057000Y-67056000D03*
X202057000Y-64516000D03*
%TD*%
%TO.C,C17*%
G36*
G01*
X137920994Y-93064118D02*
X138354006Y-92814118D01*
G75*
G02*
X138661362Y-92896474I112500J-194856D01*
G01*
X138886362Y-93286186D01*
G75*
G02*
X138804006Y-93593542I-194856J-112500D01*
G01*
X138370994Y-93843542D01*
G75*
G02*
X138063638Y-93761186I-112500J194856D01*
G01*
X137838638Y-93371474D01*
G75*
G02*
X137920994Y-93064118I194856J112500D01*
G01*
G37*
G36*
G01*
X138695994Y-94406458D02*
X139129006Y-94156458D01*
G75*
G02*
X139436362Y-94238814I112500J-194856D01*
G01*
X139661362Y-94628526D01*
G75*
G02*
X139579006Y-94935882I-194856J-112500D01*
G01*
X139145994Y-95185882D01*
G75*
G02*
X138838638Y-95103526I-112500J194856D01*
G01*
X138613638Y-94713814D01*
G75*
G02*
X138695994Y-94406458I194856J112500D01*
G01*
G37*
%TD*%
%TO.C,C18*%
G36*
G01*
X157129006Y-94093542D02*
X156695994Y-93843542D01*
G75*
G02*
X156613638Y-93536186I112500J194856D01*
G01*
X156838638Y-93146474D01*
G75*
G02*
X157145994Y-93064118I194856J-112500D01*
G01*
X157579006Y-93314118D01*
G75*
G02*
X157661362Y-93621474I-112500J-194856D01*
G01*
X157436362Y-94011186D01*
G75*
G02*
X157129006Y-94093542I-194856J112500D01*
G01*
G37*
G36*
G01*
X156354006Y-95435882D02*
X155920994Y-95185882D01*
G75*
G02*
X155838638Y-94878526I112500J194856D01*
G01*
X156063638Y-94488814D01*
G75*
G02*
X156370994Y-94406458I194856J-112500D01*
G01*
X156804006Y-94656458D01*
G75*
G02*
X156886362Y-94963814I-112500J-194856D01*
G01*
X156661362Y-95353526D01*
G75*
G02*
X156354006Y-95435882I-194856J112500D01*
G01*
G37*
%TD*%
%TO.C,C19*%
G36*
G01*
X148975000Y-79250000D02*
X148975000Y-79750000D01*
G75*
G02*
X148750000Y-79975000I-225000J0D01*
G01*
X148300000Y-79975000D01*
G75*
G02*
X148075000Y-79750000I0J225000D01*
G01*
X148075000Y-79250000D01*
G75*
G02*
X148300000Y-79025000I225000J0D01*
G01*
X148750000Y-79025000D01*
G75*
G02*
X148975000Y-79250000I0J-225000D01*
G01*
G37*
G36*
G01*
X147425000Y-79250000D02*
X147425000Y-79750000D01*
G75*
G02*
X147200000Y-79975000I-225000J0D01*
G01*
X146750000Y-79975000D01*
G75*
G02*
X146525000Y-79750000I0J225000D01*
G01*
X146525000Y-79250000D01*
G75*
G02*
X146750000Y-79025000I225000J0D01*
G01*
X147200000Y-79025000D01*
G75*
G02*
X147425000Y-79250000I0J-225000D01*
G01*
G37*
%TD*%
%TO.C,C20*%
G36*
G01*
X162525000Y-99000000D02*
X162525000Y-98500000D01*
G75*
G02*
X162750000Y-98275000I225000J0D01*
G01*
X163200000Y-98275000D01*
G75*
G02*
X163425000Y-98500000I0J-225000D01*
G01*
X163425000Y-99000000D01*
G75*
G02*
X163200000Y-99225000I-225000J0D01*
G01*
X162750000Y-99225000D01*
G75*
G02*
X162525000Y-99000000I0J225000D01*
G01*
G37*
G36*
G01*
X164075000Y-99000000D02*
X164075000Y-98500000D01*
G75*
G02*
X164300000Y-98275000I225000J0D01*
G01*
X164750000Y-98275000D01*
G75*
G02*
X164975000Y-98500000I0J-225000D01*
G01*
X164975000Y-99000000D01*
G75*
G02*
X164750000Y-99225000I-225000J0D01*
G01*
X164300000Y-99225000D01*
G75*
G02*
X164075000Y-99000000I0J225000D01*
G01*
G37*
%TD*%
%TO.C,C21*%
G36*
G01*
X163425000Y-79250000D02*
X163425000Y-79750000D01*
G75*
G02*
X163200000Y-79975000I-225000J0D01*
G01*
X162750000Y-79975000D01*
G75*
G02*
X162525000Y-79750000I0J225000D01*
G01*
X162525000Y-79250000D01*
G75*
G02*
X162750000Y-79025000I225000J0D01*
G01*
X163200000Y-79025000D01*
G75*
G02*
X163425000Y-79250000I0J-225000D01*
G01*
G37*
G36*
G01*
X164975000Y-79250000D02*
X164975000Y-79750000D01*
G75*
G02*
X164750000Y-79975000I-225000J0D01*
G01*
X164300000Y-79975000D01*
G75*
G02*
X164075000Y-79750000I0J225000D01*
G01*
X164075000Y-79250000D01*
G75*
G02*
X164300000Y-79025000I225000J0D01*
G01*
X164750000Y-79025000D01*
G75*
G02*
X164975000Y-79250000I0J-225000D01*
G01*
G37*
%TD*%
%TO.C,C22*%
G36*
G01*
X179425000Y-79250000D02*
X179425000Y-79750000D01*
G75*
G02*
X179200000Y-79975000I-225000J0D01*
G01*
X178750000Y-79975000D01*
G75*
G02*
X178525000Y-79750000I0J225000D01*
G01*
X178525000Y-79250000D01*
G75*
G02*
X178750000Y-79025000I225000J0D01*
G01*
X179200000Y-79025000D01*
G75*
G02*
X179425000Y-79250000I0J-225000D01*
G01*
G37*
G36*
G01*
X180975000Y-79250000D02*
X180975000Y-79750000D01*
G75*
G02*
X180750000Y-79975000I-225000J0D01*
G01*
X180300000Y-79975000D01*
G75*
G02*
X180075000Y-79750000I0J225000D01*
G01*
X180075000Y-79250000D01*
G75*
G02*
X180300000Y-79025000I225000J0D01*
G01*
X180750000Y-79025000D01*
G75*
G02*
X180975000Y-79250000I0J-225000D01*
G01*
G37*
%TD*%
D14*
%TO.C,D11*%
G36*
X142805417Y-93461047D02*
G01*
X141679583Y-94111047D01*
X141469583Y-93747317D01*
X142595417Y-93097317D01*
X142805417Y-93461047D01*
G37*
G36*
X142380417Y-92724926D02*
G01*
X141254583Y-93374926D01*
X141044583Y-93011196D01*
X142170417Y-92361196D01*
X142380417Y-92724926D01*
G37*
G36*
X141955417Y-91988804D02*
G01*
X140829583Y-92638804D01*
X140619583Y-92275074D01*
X141745417Y-91625074D01*
X141955417Y-91988804D01*
G37*
G36*
X141530417Y-91252683D02*
G01*
X140404583Y-91902683D01*
X140194583Y-91538953D01*
X141320417Y-90888953D01*
X141530417Y-91252683D01*
G37*
%TD*%
%TO.C,D12*%
G36*
X152654583Y-93097317D02*
G01*
X153780417Y-93747317D01*
X153570417Y-94111047D01*
X152444583Y-93461047D01*
X152654583Y-93097317D01*
G37*
G36*
X153079583Y-92361196D02*
G01*
X154205417Y-93011196D01*
X153995417Y-93374926D01*
X152869583Y-92724926D01*
X153079583Y-92361196D01*
G37*
G36*
X153504583Y-91625074D02*
G01*
X154630417Y-92275074D01*
X154420417Y-92638804D01*
X153294583Y-91988804D01*
X153504583Y-91625074D01*
G37*
G36*
X153929583Y-90888953D02*
G01*
X155055417Y-91538953D01*
X154845417Y-91902683D01*
X153719583Y-91252683D01*
X153929583Y-90888953D01*
G37*
%TD*%
D15*
%TO.C,D13*%
X146475000Y-82500000D03*
X147325000Y-82500000D03*
X148175000Y-82500000D03*
X149025000Y-82500000D03*
%TD*%
%TO.C,D14*%
X162475000Y-96000000D03*
X163325000Y-96000000D03*
X164175000Y-96000000D03*
X165025000Y-96000000D03*
%TD*%
%TO.C,D15*%
X162475000Y-82500000D03*
X163325000Y-82500000D03*
X164175000Y-82500000D03*
X165025000Y-82500000D03*
%TD*%
%TO.C,D16*%
X181025000Y-82250000D03*
X180175000Y-82250000D03*
X179325000Y-82250000D03*
X178475000Y-82250000D03*
%TD*%
M02*
