%TF.GenerationSoftware,KiCad,Pcbnew,(6.0.5)*%
%TF.CreationDate,2022-06-20T13:03:10+02:00*%
%TF.ProjectId,Touchpad,546f7563-6870-4616-942e-6b696361645f,rev?*%
%TF.SameCoordinates,Original*%
%TF.FileFunction,Copper,L2,Bot*%
%TF.FilePolarity,Positive*%
%FSLAX46Y46*%
G04 Gerber Fmt 4.6, Leading zero omitted, Abs format (unit mm)*
G04 Created by KiCad (PCBNEW (6.0.5)) date 2022-06-20 13:03:10*
%MOMM*%
%LPD*%
G01*
G04 APERTURE LIST*
G04 Aperture macros list*
%AMRoundRect*
0 Rectangle with rounded corners*
0 $1 Rounding radius*
0 $2 $3 $4 $5 $6 $7 $8 $9 X,Y pos of 4 corners*
0 Add a 4 corners polygon primitive as box body*
4,1,4,$2,$3,$4,$5,$6,$7,$8,$9,$2,$3,0*
0 Add four circle primitives for the rounded corners*
1,1,$1+$1,$2,$3*
1,1,$1+$1,$4,$5*
1,1,$1+$1,$6,$7*
1,1,$1+$1,$8,$9*
0 Add four rect primitives between the rounded corners*
20,1,$1+$1,$2,$3,$4,$5,0*
20,1,$1+$1,$4,$5,$6,$7,0*
20,1,$1+$1,$6,$7,$8,$9,0*
20,1,$1+$1,$8,$9,$2,$3,0*%
%AMRotRect*
0 Rectangle, with rotation*
0 The origin of the aperture is its center*
0 $1 length*
0 $2 width*
0 $3 Rotation angle, in degrees counterclockwise*
0 Add horizontal line*
21,1,$1,$2,0,0,$3*%
G04 Aperture macros list end*
%TA.AperFunction,SMDPad,CuDef*%
%ADD10R,2.400000X0.740000*%
%TD*%
%TA.AperFunction,SMDPad,CuDef*%
%ADD11RotRect,1.060000X0.650000X315.000000*%
%TD*%
%TA.AperFunction,SMDPad,CuDef*%
%ADD12RotRect,1.060000X0.650000X225.000000*%
%TD*%
%TA.AperFunction,SMDPad,CuDef*%
%ADD13R,0.650000X1.060000*%
%TD*%
%TA.AperFunction,SMDPad,CuDef*%
%ADD14RoundRect,0.225000X-0.017678X0.335876X-0.335876X0.017678X0.017678X-0.335876X0.335876X-0.017678X0*%
%TD*%
%TA.AperFunction,SMDPad,CuDef*%
%ADD15RoundRect,0.225000X0.225000X0.250000X-0.225000X0.250000X-0.225000X-0.250000X0.225000X-0.250000X0*%
%TD*%
%TA.AperFunction,SMDPad,CuDef*%
%ADD16RoundRect,0.225000X0.335876X0.017678X0.017678X0.335876X-0.335876X-0.017678X-0.017678X-0.335876X0*%
%TD*%
%TA.AperFunction,SMDPad,CuDef*%
%ADD17RoundRect,0.225000X0.017678X-0.335876X0.335876X-0.017678X-0.017678X0.335876X-0.335876X0.017678X0*%
%TD*%
%TA.AperFunction,ComponentPad*%
%ADD18R,1.700000X1.700000*%
%TD*%
%TA.AperFunction,ComponentPad*%
%ADD19O,1.700000X1.700000*%
%TD*%
%TA.AperFunction,ComponentPad*%
%ADD20R,1.000000X1.000000*%
%TD*%
%TA.AperFunction,ComponentPad*%
%ADD21O,1.000000X1.000000*%
%TD*%
%TA.AperFunction,ViaPad*%
%ADD22C,0.800000*%
%TD*%
%TA.AperFunction,Conductor*%
%ADD23C,0.254000*%
%TD*%
%TA.AperFunction,Conductor*%
%ADD24C,0.355600*%
%TD*%
%TA.AperFunction,Conductor*%
%ADD25C,0.609600*%
%TD*%
G04 APERTURE END LIST*
D10*
%TO.P,J1,1,Pin_1*%
%TO.N,TP2*%
X206350000Y-77420000D03*
%TO.P,J1,2,Pin_2*%
%TO.N,TP3*%
X210250000Y-77420000D03*
%TO.P,J1,3,Pin_3*%
%TO.N,+5V*%
X206350000Y-76150000D03*
%TO.P,J1,4,Pin_4*%
X210250000Y-76150000D03*
%TO.P,J1,5,Pin_5*%
%TO.N,TP1*%
X206350000Y-74880000D03*
%TO.P,J1,6,Pin_6*%
%TO.N,GND*%
X210250000Y-74880000D03*
%TD*%
D11*
%TO.P,U1,6,TOG*%
%TO.N,unconnected-(U1-Pad6)*%
X204856066Y-68649569D03*
%TO.P,U1,5,VDD*%
%TO.N,+5V*%
X205527817Y-67977817D03*
%TO.P,U1,4,AHLB*%
%TO.N,unconnected-(U1-Pad4)*%
X206199569Y-67306066D03*
%TO.P,U1,3,I*%
%TO.N,Net-(C1-Pad1)*%
X204643934Y-65750431D03*
%TO.P,U1,2,VSS*%
%TO.N,GND*%
X203972183Y-66422183D03*
%TO.P,U1,1,Q*%
%TO.N,TP1*%
X203300431Y-67093934D03*
%TD*%
D12*
%TO.P,U3,6,TOG*%
%TO.N,unconnected-(U3-Pad6)*%
X210450431Y-67306066D03*
%TO.P,U3,5,VDD*%
%TO.N,+5V*%
X211122183Y-67977817D03*
%TO.P,U3,4,AHLB*%
%TO.N,unconnected-(U3-Pad4)*%
X211793934Y-68649569D03*
%TO.P,U3,3,I*%
%TO.N,Net-(C5-Pad1)*%
X213349569Y-67093934D03*
%TO.P,U3,2,VSS*%
%TO.N,GND*%
X212677817Y-66422183D03*
%TO.P,U3,1,Q*%
%TO.N,TP3*%
X212006066Y-65750431D03*
%TD*%
D13*
%TO.P,U2,1,Q*%
%TO.N,TP2*%
X187704045Y-68675000D03*
%TO.P,U2,2,VSS*%
%TO.N,GND*%
X188654045Y-68675000D03*
%TO.P,U2,3,I*%
%TO.N,Net-(C3-Pad1)*%
X189604045Y-68675000D03*
%TO.P,U2,4,AHLB*%
%TO.N,unconnected-(U2-Pad4)*%
X189604045Y-70875000D03*
%TO.P,U2,5,VDD*%
%TO.N,+5V*%
X188654045Y-70875000D03*
%TO.P,U2,6,TOG*%
%TO.N,unconnected-(U2-Pad6)*%
X187704045Y-70875000D03*
%TD*%
D14*
%TO.P,C1,2*%
%TO.N,GND*%
X202201992Y-65748008D03*
%TO.P,C1,1*%
%TO.N,Net-(C1-Pad1)*%
X203298008Y-64651992D03*
%TD*%
D15*
%TO.P,C4,2*%
%TO.N,GND*%
X187879045Y-72775000D03*
%TO.P,C4,1*%
%TO.N,+5V*%
X189429045Y-72775000D03*
%TD*%
%TO.P,C3,2*%
%TO.N,GND*%
X187879045Y-66775000D03*
%TO.P,C3,1*%
%TO.N,Net-(C3-Pad1)*%
X189429045Y-66775000D03*
%TD*%
D16*
%TO.P,C6,2*%
%TO.N,GND*%
X209351992Y-68651992D03*
%TO.P,C6,1*%
%TO.N,+5V*%
X210448008Y-69748008D03*
%TD*%
D17*
%TO.P,C2,2*%
%TO.N,GND*%
X207298008Y-68651992D03*
%TO.P,C2,1*%
%TO.N,+5V*%
X206201992Y-69748008D03*
%TD*%
D16*
%TO.P,C5,2*%
%TO.N,GND*%
X213351992Y-64651992D03*
%TO.P,C5,1*%
%TO.N,Net-(C5-Pad1)*%
X214448008Y-65748008D03*
%TD*%
D18*
%TO.P,J3,1,Pin_1*%
%TO.N,+5V*%
X191350000Y-83200000D03*
D19*
%TO.P,J3,2,Pin_2*%
%TO.N,Net-(D1-Pad4)*%
X193890000Y-83200000D03*
%TO.P,J3,3,Pin_3*%
%TO.N,TP1*%
X196430000Y-83200000D03*
%TO.P,J3,4,Pin_4*%
%TO.N,TP2*%
X198970000Y-83200000D03*
%TO.P,J3,5,Pin_5*%
%TO.N,TP3*%
X201510000Y-83200000D03*
%TO.P,J3,6,Pin_6*%
%TO.N,Net-(D3-Pad2)*%
X204050000Y-83200000D03*
%TO.P,J3,7,Pin_7*%
%TO.N,GND*%
X206590000Y-83200000D03*
%TD*%
D20*
%TO.P,J2,1,Pin_1*%
%TO.N,TP2*%
X207925000Y-92375000D03*
D21*
%TO.P,J2,2,Pin_2*%
%TO.N,TP3*%
X209195000Y-92375000D03*
%TO.P,J2,3,Pin_3*%
%TO.N,+5V*%
X207925000Y-93645000D03*
%TO.P,J2,4,Pin_4*%
X209195000Y-93645000D03*
%TO.P,J2,5,Pin_5*%
%TO.N,TP1*%
X207925000Y-94915000D03*
%TO.P,J2,6,Pin_6*%
%TO.N,GND*%
X209195000Y-94915000D03*
%TD*%
D11*
%TO.P,U1,6,TOG*%
%TO.N,unconnected-(U1-Pad6)*%
X205056066Y-103649569D03*
%TO.P,U1,5,VDD*%
%TO.N,+5V*%
X205727817Y-102977817D03*
%TO.P,U1,4,AHLB*%
%TO.N,unconnected-(U1-Pad4)*%
X206399569Y-102306066D03*
%TO.P,U1,3,I*%
%TO.N,Net-(C1-Pad1)*%
X204843934Y-100750431D03*
%TO.P,U1,2,VSS*%
%TO.N,GND*%
X204172183Y-101422183D03*
%TO.P,U1,1,Q*%
%TO.N,TP1*%
X203500431Y-102093934D03*
%TD*%
D16*
%TO.P,C5,2*%
%TO.N,GND*%
X213551992Y-99651992D03*
%TO.P,C5,1*%
%TO.N,Net-(C5-Pad1)*%
X214648008Y-100748008D03*
%TD*%
D17*
%TO.P,C2,2*%
%TO.N,GND*%
X207498008Y-103651992D03*
%TO.P,C2,1*%
%TO.N,+5V*%
X206401992Y-104748008D03*
%TD*%
D16*
%TO.P,C6,2*%
%TO.N,GND*%
X209551992Y-103651992D03*
%TO.P,C6,1*%
%TO.N,+5V*%
X210648008Y-104748008D03*
%TD*%
D15*
%TO.P,C3,2*%
%TO.N,GND*%
X188079045Y-101775000D03*
%TO.P,C3,1*%
%TO.N,Net-(C3-Pad1)*%
X189629045Y-101775000D03*
%TD*%
%TO.P,C4,2*%
%TO.N,GND*%
X188079045Y-107775000D03*
%TO.P,C4,1*%
%TO.N,+5V*%
X189629045Y-107775000D03*
%TD*%
D14*
%TO.P,C1,2*%
%TO.N,GND*%
X202401992Y-100748008D03*
%TO.P,C1,1*%
%TO.N,Net-(C1-Pad1)*%
X203498008Y-99651992D03*
%TD*%
D13*
%TO.P,U2,1,Q*%
%TO.N,TP2*%
X187904045Y-103675000D03*
%TO.P,U2,2,VSS*%
%TO.N,GND*%
X188854045Y-103675000D03*
%TO.P,U2,3,I*%
%TO.N,Net-(C3-Pad1)*%
X189804045Y-103675000D03*
%TO.P,U2,4,AHLB*%
%TO.N,unconnected-(U2-Pad4)*%
X189804045Y-105875000D03*
%TO.P,U2,5,VDD*%
%TO.N,+5V*%
X188854045Y-105875000D03*
%TO.P,U2,6,TOG*%
%TO.N,unconnected-(U2-Pad6)*%
X187904045Y-105875000D03*
%TD*%
D12*
%TO.P,U3,6,TOG*%
%TO.N,unconnected-(U3-Pad6)*%
X210650431Y-102306066D03*
%TO.P,U3,5,VDD*%
%TO.N,+5V*%
X211322183Y-102977817D03*
%TO.P,U3,4,AHLB*%
%TO.N,unconnected-(U3-Pad4)*%
X211993934Y-103649569D03*
%TO.P,U3,3,I*%
%TO.N,Net-(C5-Pad1)*%
X213549569Y-102093934D03*
%TO.P,U3,2,VSS*%
%TO.N,GND*%
X212877817Y-101422183D03*
%TO.P,U3,1,Q*%
%TO.N,TP3*%
X212206066Y-100750431D03*
%TD*%
D10*
%TO.P,J1,1,Pin_1*%
%TO.N,TP2*%
X206550000Y-112420000D03*
%TO.P,J1,2,Pin_2*%
%TO.N,TP3*%
X210450000Y-112420000D03*
%TO.P,J1,3,Pin_3*%
%TO.N,+5V*%
X206550000Y-111150000D03*
%TO.P,J1,4,Pin_4*%
X210450000Y-111150000D03*
%TO.P,J1,5,Pin_5*%
%TO.N,TP1*%
X206550000Y-109880000D03*
%TO.P,J1,6,Pin_6*%
%TO.N,GND*%
X210450000Y-109880000D03*
%TD*%
D22*
%TO.N,Net-(C3-Pad1)*%
X189450000Y-65500000D03*
%TO.N,Net-(C5-Pad1)*%
X216100000Y-64950000D03*
%TO.N,Net-(C1-Pad1)*%
X200650000Y-64450000D03*
%TO.N,+5V*%
X207300000Y-70850000D03*
X214250000Y-78100000D03*
%TO.N,TP1*%
X207100000Y-66100000D03*
%TO.N,TP2*%
X204000000Y-77450000D03*
%TO.N,TP1*%
X206350000Y-73350000D03*
%TO.N,TP2*%
X186300000Y-68650000D03*
%TO.N,TP3*%
X210100000Y-65750000D03*
X212550000Y-77450000D03*
%TO.N,+5V*%
X194050000Y-87350000D03*
%TO.N,Net-(D3-Pad2)*%
X217550000Y-90600000D03*
%TO.N,+5V*%
X212850000Y-87400000D03*
%TO.N,Net-(C3-Pad1)*%
X189650000Y-100500000D03*
%TO.N,+5V*%
X214450000Y-113100000D03*
X207500000Y-105850000D03*
%TO.N,TP2*%
X186500000Y-103650000D03*
X204200000Y-112450000D03*
%TO.N,TP1*%
X207300000Y-101100000D03*
X206550000Y-108350000D03*
%TO.N,TP3*%
X212750000Y-112450000D03*
X210300000Y-100750000D03*
%TO.N,Net-(C5-Pad1)*%
X216300000Y-99950000D03*
%TO.N,Net-(C1-Pad1)*%
X200850000Y-99450000D03*
%TD*%
D23*
%TO.N,Net-(C1-Pad1)*%
X203298008Y-64648008D02*
X203100000Y-64450000D01*
D24*
%TO.N,+5V*%
X212200000Y-76150000D02*
X212550000Y-75800000D01*
%TO.N,Net-(C1-Pad1)*%
X203100000Y-64450000D02*
X200650000Y-64450000D01*
%TO.N,Net-(C3-Pad1)*%
X189604045Y-66950000D02*
X189429045Y-66775000D01*
D23*
%TO.N,Net-(C1-Pad1)*%
X203298008Y-64651992D02*
X203298008Y-64648008D01*
D24*
%TO.N,+5V*%
X210250000Y-76150000D02*
X212200000Y-76150000D01*
D23*
%TO.N,TP1*%
X207100000Y-66100000D02*
X205800000Y-66100000D01*
X206350000Y-74880000D02*
X206350000Y-73350000D01*
D24*
%TO.N,Net-(C3-Pad1)*%
X189604045Y-68675000D02*
X189604045Y-66950000D01*
%TO.N,+5V*%
X210250000Y-69946016D02*
X210448008Y-69748008D01*
X189429045Y-72125000D02*
X189204045Y-71900000D01*
X188854045Y-71900000D02*
X189204045Y-71900000D01*
X188654045Y-71700000D02*
X188854045Y-71900000D01*
X188654045Y-70875000D02*
X188654045Y-71700000D01*
X189429045Y-72775000D02*
X189429045Y-72125000D01*
%TO.N,TP2*%
X204030000Y-77420000D02*
X204000000Y-77450000D01*
%TO.N,+5V*%
X206201992Y-69748008D02*
X206201992Y-69751992D01*
%TO.N,TP2*%
X206350000Y-77420000D02*
X204030000Y-77420000D01*
%TO.N,+5V*%
X206201992Y-69751992D02*
X207300000Y-70850000D01*
%TO.N,Net-(C5-Pad1)*%
X214451992Y-65748008D02*
X215050000Y-65150000D01*
%TO.N,TP2*%
X187679045Y-68650000D02*
X187704045Y-68675000D01*
%TO.N,Net-(C5-Pad1)*%
X215250000Y-64950000D02*
X216100000Y-64950000D01*
%TO.N,+5V*%
X189429045Y-74679045D02*
X193050000Y-78300000D01*
D23*
X210448008Y-69748008D02*
X210448008Y-69701992D01*
D24*
%TO.N,TP2*%
X186300000Y-68650000D02*
X187679045Y-68650000D01*
%TO.N,+5V*%
X203500000Y-76150000D02*
X206350000Y-76150000D01*
%TO.N,Net-(C5-Pad1)*%
X215050000Y-65150000D02*
X215250000Y-64950000D01*
%TO.N,+5V*%
X193050000Y-78300000D02*
X201350000Y-78300000D01*
X201350000Y-78300000D02*
X203500000Y-76150000D01*
X189429045Y-72775000D02*
X189429045Y-74679045D01*
%TO.N,Net-(C5-Pad1)*%
X214448008Y-65748008D02*
X214451992Y-65748008D01*
D23*
%TO.N,TP1*%
X205800000Y-66100000D02*
X204225000Y-67675000D01*
%TO.N,GND*%
X202201992Y-65748008D02*
X202201992Y-65751992D01*
D24*
%TO.N,Net-(C5-Pad1)*%
X214448008Y-65748008D02*
X214448008Y-65995495D01*
D23*
%TO.N,GND*%
X203600000Y-66050000D02*
X203972183Y-66422183D01*
D24*
%TO.N,Net-(C5-Pad1)*%
X214448008Y-65995495D02*
X213349569Y-67093934D01*
D23*
%TO.N,GND*%
X202500000Y-66050000D02*
X203600000Y-66050000D01*
X202201992Y-65751992D02*
X202500000Y-66050000D01*
D24*
%TO.N,+5V*%
X214250000Y-78100000D02*
X214250000Y-77500000D01*
X214250000Y-77500000D02*
X212550000Y-75800000D01*
D23*
X210451992Y-69748008D02*
X210800000Y-69400000D01*
X210800000Y-68300000D02*
X211122183Y-67977817D01*
X210448008Y-69748008D02*
X210451992Y-69748008D01*
X210800000Y-69400000D02*
X210800000Y-68300000D01*
%TO.N,TP1*%
X203300431Y-67093934D02*
X203881497Y-67675000D01*
X203881497Y-67675000D02*
X204225000Y-67675000D01*
D24*
%TO.N,+5V*%
X211300000Y-70600000D02*
X210448008Y-69748008D01*
D23*
%TO.N,GND*%
X212677817Y-66422183D02*
X213050000Y-66050000D01*
D24*
%TO.N,+5V*%
X211300000Y-73500000D02*
X211300000Y-70600000D01*
D23*
%TO.N,GND*%
X213050000Y-64953984D02*
X213351992Y-64651992D01*
D24*
%TO.N,+5V*%
X212550000Y-75800000D02*
X212550000Y-74750000D01*
X212550000Y-74750000D02*
X211300000Y-73500000D01*
D23*
%TO.N,GND*%
X213050000Y-66050000D02*
X213050000Y-64953984D01*
D24*
%TO.N,Net-(C3-Pad1)*%
X189429045Y-66775000D02*
X189429045Y-65504045D01*
X189429045Y-65504045D02*
X189425000Y-65500000D01*
%TO.N,Net-(C1-Pad1)*%
X203545495Y-64651992D02*
X204643934Y-65750431D01*
D23*
X203298008Y-64651992D02*
X203545495Y-64651992D01*
%TO.N,TP3*%
X210280000Y-77450000D02*
X210250000Y-77420000D01*
X210100431Y-65750431D02*
X210100000Y-65750000D01*
X212006066Y-65750431D02*
X210100431Y-65750431D01*
X212550000Y-77450000D02*
X210280000Y-77450000D01*
D24*
%TO.N,+5V*%
X206201992Y-69748008D02*
X206198008Y-69748008D01*
%TO.N,GND*%
X213100000Y-64400000D02*
X213351992Y-64651992D01*
%TO.N,+5V*%
X206198008Y-69748008D02*
X205950000Y-69500000D01*
%TO.N,GND*%
X207298008Y-68651992D02*
X208850000Y-67100000D01*
%TO.N,+5V*%
X205950000Y-69500000D02*
X205950000Y-68400000D01*
%TO.N,GND*%
X209600000Y-64400000D02*
X213100000Y-64400000D01*
X208850000Y-65150000D02*
X209600000Y-64400000D01*
X208850000Y-67100000D02*
X208850000Y-65150000D01*
%TO.N,+5V*%
X205950000Y-68400000D02*
X205527817Y-67977817D01*
D23*
%TO.N,GND*%
X188654045Y-68079045D02*
X187879045Y-67304045D01*
X187879045Y-67304045D02*
X187879045Y-66775000D01*
X188654045Y-68675000D02*
X188654045Y-68079045D01*
D24*
%TO.N,+5V*%
X206350000Y-76150000D02*
X210250000Y-76150000D01*
%TO.N,TP3*%
X209195000Y-91195000D02*
X209195000Y-92375000D01*
X208250000Y-90250000D02*
X209195000Y-91195000D01*
X206850000Y-90250000D02*
X208250000Y-90250000D01*
X201510000Y-84910000D02*
X206850000Y-90250000D01*
X201510000Y-83200000D02*
X201510000Y-84910000D01*
%TO.N,TP2*%
X198970000Y-85670000D02*
X198970000Y-83200000D01*
X207925000Y-92375000D02*
X205675000Y-92375000D01*
X205675000Y-92375000D02*
X198970000Y-85670000D01*
%TO.N,TP1*%
X204565000Y-94915000D02*
X207925000Y-94915000D01*
X196430000Y-86780000D02*
X204565000Y-94915000D01*
X196430000Y-83200000D02*
X196430000Y-86780000D01*
D25*
%TO.N,+5V*%
X194050000Y-87350000D02*
X191350000Y-84650000D01*
X191350000Y-84650000D02*
X191350000Y-83200000D01*
D24*
%TO.N,Net-(D3-Pad2)*%
X214150000Y-86100000D02*
X217550000Y-89500000D01*
X204850000Y-86100000D02*
X214150000Y-86100000D01*
X217550000Y-89500000D02*
X217550000Y-90600000D01*
X204050000Y-85300000D02*
X204850000Y-86100000D01*
X204050000Y-83200000D02*
X204050000Y-85300000D01*
D25*
%TO.N,+5V*%
X212850000Y-92000000D02*
X212850000Y-87400000D01*
X211205000Y-93645000D02*
X212850000Y-92000000D01*
X209195000Y-93645000D02*
X211205000Y-93645000D01*
D24*
X211500000Y-105600000D02*
X210648008Y-104748008D01*
X212750000Y-109750000D02*
X211500000Y-108500000D01*
X212750000Y-110800000D02*
X212750000Y-109750000D01*
X211500000Y-108500000D02*
X211500000Y-105600000D01*
X214450000Y-112500000D02*
X212750000Y-110800000D01*
X214450000Y-113100000D02*
X214450000Y-112500000D01*
X206401992Y-104751992D02*
X207500000Y-105850000D01*
X206401992Y-104748008D02*
X206401992Y-104751992D01*
X206550000Y-111150000D02*
X210450000Y-111150000D01*
X203700000Y-111150000D02*
X206550000Y-111150000D01*
X193250000Y-113300000D02*
X201550000Y-113300000D01*
X189629045Y-109679045D02*
X193250000Y-113300000D01*
X201550000Y-113300000D02*
X203700000Y-111150000D01*
X189629045Y-107775000D02*
X189629045Y-109679045D01*
%TO.N,TP2*%
X187879045Y-103650000D02*
X187904045Y-103675000D01*
X186500000Y-103650000D02*
X187879045Y-103650000D01*
X204230000Y-112420000D02*
X204200000Y-112450000D01*
X206550000Y-112420000D02*
X204230000Y-112420000D01*
D23*
%TO.N,TP1*%
X206000000Y-101100000D02*
X204425000Y-102675000D01*
X203500431Y-102093934D02*
X204081497Y-102675000D01*
X204081497Y-102675000D02*
X204425000Y-102675000D01*
X207300000Y-101100000D02*
X206000000Y-101100000D01*
X206550000Y-109880000D02*
X206550000Y-108350000D01*
D24*
%TO.N,+5V*%
X212400000Y-111150000D02*
X212750000Y-110800000D01*
X210450000Y-111150000D02*
X212400000Y-111150000D01*
X210450000Y-104946016D02*
X210648008Y-104748008D01*
D23*
%TO.N,TP3*%
X210480000Y-112450000D02*
X210450000Y-112420000D01*
X212750000Y-112450000D02*
X210480000Y-112450000D01*
X210300431Y-100750431D02*
X210300000Y-100750000D01*
X212206066Y-100750431D02*
X210300431Y-100750431D01*
D24*
%TO.N,GND*%
X213300000Y-99400000D02*
X213551992Y-99651992D01*
X209800000Y-99400000D02*
X213300000Y-99400000D01*
X209050000Y-100150000D02*
X209800000Y-99400000D01*
X209050000Y-102100000D02*
X209050000Y-100150000D01*
X207498008Y-103651992D02*
X209050000Y-102100000D01*
D23*
%TO.N,+5V*%
X211000000Y-104400000D02*
X211000000Y-103300000D01*
X210651992Y-104748008D02*
X211000000Y-104400000D01*
X210648008Y-104748008D02*
X210651992Y-104748008D01*
X211000000Y-103300000D02*
X211322183Y-102977817D01*
X210648008Y-104748008D02*
X210648008Y-104701992D01*
%TO.N,GND*%
X213250000Y-99953984D02*
X213551992Y-99651992D01*
X213250000Y-101050000D02*
X213250000Y-99953984D01*
X212877817Y-101422183D02*
X213250000Y-101050000D01*
D24*
%TO.N,Net-(C5-Pad1)*%
X214648008Y-100748008D02*
X214648008Y-100995495D01*
X214648008Y-100995495D02*
X213549569Y-102093934D01*
X215450000Y-99950000D02*
X216300000Y-99950000D01*
X215250000Y-100150000D02*
X215450000Y-99950000D01*
X214651992Y-100748008D02*
X215250000Y-100150000D01*
X214648008Y-100748008D02*
X214651992Y-100748008D01*
%TO.N,+5V*%
X206150000Y-103400000D02*
X205727817Y-102977817D01*
X206398008Y-104748008D02*
X206150000Y-104500000D01*
X206401992Y-104748008D02*
X206398008Y-104748008D01*
X206150000Y-104500000D02*
X206150000Y-103400000D01*
%TO.N,Net-(C1-Pad1)*%
X203745495Y-99651992D02*
X204843934Y-100750431D01*
D23*
X203498008Y-99651992D02*
X203745495Y-99651992D01*
%TO.N,GND*%
X202700000Y-101050000D02*
X203800000Y-101050000D01*
X202401992Y-100751992D02*
X202700000Y-101050000D01*
X203800000Y-101050000D02*
X204172183Y-101422183D01*
X202401992Y-100748008D02*
X202401992Y-100751992D01*
D24*
%TO.N,Net-(C1-Pad1)*%
X203300000Y-99450000D02*
X200850000Y-99450000D01*
D23*
X203498008Y-99648008D02*
X203300000Y-99450000D01*
X203498008Y-99651992D02*
X203498008Y-99648008D01*
%TO.N,GND*%
X188079045Y-102304045D02*
X188079045Y-101775000D01*
X188854045Y-103675000D02*
X188854045Y-103079045D01*
X188854045Y-103079045D02*
X188079045Y-102304045D01*
D24*
%TO.N,Net-(C3-Pad1)*%
X189629045Y-100504045D02*
X189625000Y-100500000D01*
X189629045Y-101775000D02*
X189629045Y-100504045D01*
%TO.N,+5V*%
X189629045Y-107775000D02*
X189629045Y-107125000D01*
X189629045Y-107125000D02*
X189404045Y-106900000D01*
X189054045Y-106900000D02*
X189404045Y-106900000D01*
X188854045Y-106700000D02*
X189054045Y-106900000D01*
X188854045Y-105875000D02*
X188854045Y-106700000D01*
%TO.N,Net-(C3-Pad1)*%
X189804045Y-101950000D02*
X189629045Y-101775000D01*
X189804045Y-103675000D02*
X189804045Y-101950000D01*
%TD*%
%TA.AperFunction,Conductor*%
%TO.N,GND*%
G36*
X209468182Y-99000371D02*
G01*
X209673290Y-99085329D01*
X209682406Y-99089105D01*
X209762609Y-99108360D01*
X209908476Y-99143380D01*
X209908482Y-99143381D01*
X209913289Y-99144535D01*
X210116296Y-99160512D01*
X210127316Y-99161871D01*
X210132644Y-99162768D01*
X210132649Y-99162768D01*
X210137448Y-99163576D01*
X210143941Y-99163655D01*
X210145140Y-99163670D01*
X210145143Y-99163670D01*
X210150000Y-99163729D01*
X210177624Y-99159773D01*
X210195486Y-99158500D01*
X212448282Y-99158500D01*
X212516403Y-99178502D01*
X212562896Y-99232158D01*
X212573000Y-99302432D01*
X212560995Y-99340819D01*
X212525466Y-99411923D01*
X212520514Y-99425602D01*
X212494358Y-99536683D01*
X212459275Y-99598406D01*
X212396391Y-99631363D01*
X212368885Y-99632118D01*
X212368885Y-99633399D01*
X212359912Y-99633399D01*
X212351023Y-99632126D01*
X212342134Y-99633399D01*
X212215723Y-99651502D01*
X212215720Y-99651503D01*
X212206837Y-99652775D01*
X212074241Y-99713062D01*
X212068088Y-99718009D01*
X212068085Y-99718011D01*
X212042231Y-99738799D01*
X212025495Y-99752255D01*
X211699724Y-100078026D01*
X211637412Y-100112052D01*
X211610629Y-100114931D01*
X211006786Y-100114931D01*
X210938665Y-100094929D01*
X210921038Y-100079947D01*
X210920577Y-100080459D01*
X210915675Y-100076045D01*
X210911253Y-100071134D01*
X210756752Y-99958882D01*
X210750724Y-99956198D01*
X210750722Y-99956197D01*
X210588319Y-99883891D01*
X210588318Y-99883891D01*
X210582288Y-99881206D01*
X210488887Y-99861353D01*
X210401944Y-99842872D01*
X210401939Y-99842872D01*
X210395487Y-99841500D01*
X210204513Y-99841500D01*
X210198061Y-99842872D01*
X210198056Y-99842872D01*
X210111112Y-99861353D01*
X210017712Y-99881206D01*
X210011682Y-99883891D01*
X210011681Y-99883891D01*
X209849278Y-99956197D01*
X209849276Y-99956198D01*
X209843248Y-99958882D01*
X209688747Y-100071134D01*
X209560960Y-100213056D01*
X209465473Y-100378444D01*
X209406458Y-100560072D01*
X209405768Y-100566633D01*
X209405768Y-100566635D01*
X209392897Y-100689100D01*
X209386496Y-100750000D01*
X209387186Y-100756565D01*
X209400397Y-100882256D01*
X209406458Y-100939928D01*
X209465473Y-101121556D01*
X209468776Y-101127278D01*
X209468777Y-101127279D01*
X209483357Y-101152532D01*
X209560960Y-101286944D01*
X209565378Y-101291851D01*
X209565379Y-101291852D01*
X209646720Y-101382190D01*
X209688747Y-101428866D01*
X209732925Y-101460963D01*
X209811600Y-101518124D01*
X209843248Y-101541118D01*
X209849276Y-101543802D01*
X209849278Y-101543803D01*
X209947962Y-101587740D01*
X210002058Y-101633721D01*
X210022707Y-101701648D01*
X210003354Y-101769956D01*
X209985808Y-101791942D01*
X209652255Y-102125495D01*
X209650115Y-102128157D01*
X209618011Y-102168085D01*
X209618009Y-102168088D01*
X209613062Y-102174241D01*
X209552775Y-102306837D01*
X209551503Y-102315720D01*
X209551502Y-102315723D01*
X209535659Y-102426354D01*
X209532126Y-102451023D01*
X209533399Y-102459912D01*
X209533399Y-102468885D01*
X209530342Y-102468885D01*
X209522383Y-102524048D01*
X209475863Y-102577681D01*
X209436888Y-102594244D01*
X209324385Y-102620942D01*
X209310719Y-102625916D01*
X209170646Y-102696213D01*
X209159160Y-102703643D01*
X209088292Y-102761338D01*
X209083521Y-102765646D01*
X209067001Y-102782166D01*
X209059387Y-102796110D01*
X209059518Y-102797945D01*
X209063768Y-102804558D01*
X209822107Y-103562897D01*
X209856133Y-103625209D01*
X209851068Y-103696024D01*
X209822107Y-103741087D01*
X209049323Y-104513871D01*
X209041709Y-104527815D01*
X209041840Y-104529648D01*
X209046091Y-104536263D01*
X209048125Y-104538297D01*
X209052987Y-104542681D01*
X209124866Y-104601045D01*
X209136385Y-104608473D01*
X209276564Y-104678516D01*
X209290246Y-104683470D01*
X209442369Y-104719290D01*
X209464083Y-104721802D01*
X209463799Y-104724254D01*
X209520696Y-104740900D01*
X209567242Y-104794510D01*
X209576611Y-104837397D01*
X209577822Y-104837255D01*
X209578677Y-104844529D01*
X209578683Y-104851847D01*
X209618176Y-105018265D01*
X209621458Y-105024804D01*
X209621458Y-105024805D01*
X209691808Y-105164985D01*
X209691811Y-105164989D01*
X209694895Y-105171135D01*
X209699238Y-105176470D01*
X209699239Y-105176471D01*
X209740608Y-105227285D01*
X209759011Y-105249890D01*
X210146126Y-105637005D01*
X210148646Y-105639051D01*
X210220606Y-105697482D01*
X210225959Y-105701829D01*
X210378962Y-105778280D01*
X210443448Y-105793464D01*
X210538326Y-105815805D01*
X210538330Y-105815805D01*
X210545450Y-105817482D01*
X210552766Y-105817476D01*
X210552769Y-105817476D01*
X210644474Y-105817396D01*
X210687591Y-105817358D01*
X210755728Y-105837301D01*
X210802268Y-105890916D01*
X210813700Y-105943358D01*
X210813700Y-108471856D01*
X210813408Y-108480426D01*
X210812853Y-108488574D01*
X210809607Y-108536182D01*
X210810912Y-108543659D01*
X210810912Y-108543660D01*
X210820230Y-108597049D01*
X210821192Y-108603571D01*
X210828615Y-108664908D01*
X210831300Y-108672013D01*
X210832432Y-108676623D01*
X210835481Y-108687771D01*
X210836861Y-108692339D01*
X210838166Y-108699819D01*
X210863002Y-108756397D01*
X210865483Y-108762477D01*
X210887331Y-108820296D01*
X210887562Y-108820632D01*
X210900797Y-108887264D01*
X210874786Y-108953324D01*
X210817188Y-108994834D01*
X210775302Y-109002000D01*
X210722115Y-109002000D01*
X210706876Y-109006475D01*
X210705671Y-109007865D01*
X210704000Y-109015548D01*
X210704000Y-110008000D01*
X210683998Y-110076121D01*
X210630342Y-110122614D01*
X210578000Y-110134000D01*
X208760116Y-110134000D01*
X208744877Y-110138475D01*
X208743672Y-110139865D01*
X208742001Y-110147548D01*
X208742001Y-110294669D01*
X208742370Y-110301486D01*
X208744826Y-110324093D01*
X208732297Y-110393976D01*
X208683976Y-110445991D01*
X208619563Y-110463700D01*
X208380943Y-110463700D01*
X208312822Y-110443698D01*
X208266329Y-110390042D01*
X208255680Y-110324092D01*
X208258131Y-110301531D01*
X208258500Y-110298134D01*
X208258500Y-109607885D01*
X208742000Y-109607885D01*
X208746475Y-109623124D01*
X208747865Y-109624329D01*
X208755548Y-109626000D01*
X210177885Y-109626000D01*
X210193124Y-109621525D01*
X210194329Y-109620135D01*
X210196000Y-109612452D01*
X210196000Y-109020116D01*
X210191525Y-109004877D01*
X210190135Y-109003672D01*
X210182452Y-109002001D01*
X209205331Y-109002001D01*
X209198510Y-109002371D01*
X209147648Y-109007895D01*
X209132396Y-109011521D01*
X209011946Y-109056676D01*
X208996351Y-109065214D01*
X208894276Y-109141715D01*
X208881715Y-109154276D01*
X208805214Y-109256351D01*
X208796676Y-109271946D01*
X208751522Y-109392394D01*
X208747895Y-109407649D01*
X208742369Y-109458514D01*
X208742000Y-109465328D01*
X208742000Y-109607885D01*
X208258500Y-109607885D01*
X208258500Y-109461866D01*
X208251745Y-109399684D01*
X208200615Y-109263295D01*
X208113261Y-109146739D01*
X207996705Y-109059385D01*
X207860316Y-109008255D01*
X207798134Y-109001500D01*
X207441139Y-109001500D01*
X207373018Y-108981498D01*
X207326525Y-108927842D01*
X207316421Y-108857568D01*
X207332020Y-108812500D01*
X207381223Y-108727279D01*
X207381224Y-108727278D01*
X207384527Y-108721556D01*
X207443542Y-108539928D01*
X207448940Y-108488574D01*
X207462814Y-108356565D01*
X207463504Y-108350000D01*
X207454664Y-108265895D01*
X207444232Y-108166635D01*
X207444232Y-108166633D01*
X207443542Y-108160072D01*
X207384527Y-107978444D01*
X207289040Y-107813056D01*
X207161253Y-107671134D01*
X207006752Y-107558882D01*
X207000724Y-107556198D01*
X207000722Y-107556197D01*
X206838319Y-107483891D01*
X206838318Y-107483891D01*
X206832288Y-107481206D01*
X206738888Y-107461353D01*
X206651944Y-107442872D01*
X206651939Y-107442872D01*
X206645487Y-107441500D01*
X206454513Y-107441500D01*
X206448061Y-107442872D01*
X206448056Y-107442872D01*
X206361112Y-107461353D01*
X206267712Y-107481206D01*
X206261682Y-107483891D01*
X206261681Y-107483891D01*
X206099278Y-107556197D01*
X206099276Y-107556198D01*
X206093248Y-107558882D01*
X205938747Y-107671134D01*
X205810960Y-107813056D01*
X205715473Y-107978444D01*
X205656458Y-108160072D01*
X205655768Y-108166633D01*
X205655768Y-108166635D01*
X205645336Y-108265895D01*
X205636496Y-108350000D01*
X205637186Y-108356565D01*
X205651061Y-108488574D01*
X205656458Y-108539928D01*
X205715473Y-108721556D01*
X205718776Y-108727278D01*
X205718777Y-108727279D01*
X205767980Y-108812500D01*
X205784718Y-108881495D01*
X205761498Y-108948587D01*
X205705691Y-108992474D01*
X205658861Y-109001500D01*
X205301866Y-109001500D01*
X205239684Y-109008255D01*
X205103295Y-109059385D01*
X204986739Y-109146739D01*
X204899385Y-109263295D01*
X204848255Y-109399684D01*
X204841500Y-109461866D01*
X204841500Y-110298134D01*
X204841869Y-110301531D01*
X204844320Y-110324092D01*
X204831792Y-110393974D01*
X204783472Y-110445990D01*
X204719057Y-110463700D01*
X203728144Y-110463700D01*
X203719574Y-110463408D01*
X203671394Y-110460123D01*
X203671390Y-110460123D01*
X203663818Y-110459607D01*
X203656341Y-110460912D01*
X203656340Y-110460912D01*
X203640366Y-110463700D01*
X203602947Y-110470231D01*
X203596429Y-110471192D01*
X203535092Y-110478615D01*
X203527987Y-110481300D01*
X203523377Y-110482432D01*
X203512229Y-110485481D01*
X203507661Y-110486861D01*
X203500181Y-110488166D01*
X203443603Y-110513002D01*
X203437523Y-110515483D01*
X203386806Y-110534647D01*
X203386803Y-110534648D01*
X203379704Y-110537331D01*
X203373446Y-110541632D01*
X203369238Y-110543832D01*
X203359162Y-110549440D01*
X203355035Y-110551880D01*
X203348079Y-110554934D01*
X203342054Y-110559557D01*
X203342049Y-110559560D01*
X203299076Y-110592534D01*
X203293741Y-110596410D01*
X203249073Y-110627110D01*
X203249067Y-110627115D01*
X203242808Y-110631417D01*
X203202719Y-110676412D01*
X203197738Y-110681688D01*
X201302631Y-112576795D01*
X201240319Y-112610821D01*
X201213536Y-112613700D01*
X193586465Y-112613700D01*
X193518344Y-112593698D01*
X193497370Y-112576795D01*
X190352250Y-109431676D01*
X190318224Y-109369364D01*
X190315345Y-109342581D01*
X190315345Y-108653287D01*
X190335347Y-108585166D01*
X190352172Y-108564269D01*
X190428426Y-108487882D01*
X190433597Y-108482702D01*
X190523347Y-108337101D01*
X190577194Y-108174757D01*
X190587545Y-108073732D01*
X190587545Y-107476268D01*
X190576932Y-107373981D01*
X190522801Y-107211732D01*
X190432797Y-107066287D01*
X190390736Y-107024299D01*
X190356657Y-106962019D01*
X190361660Y-106891198D01*
X190404189Y-106834301D01*
X190485126Y-106773642D01*
X190492306Y-106768261D01*
X190579660Y-106651705D01*
X190630790Y-106515316D01*
X190637545Y-106453134D01*
X190637545Y-105296866D01*
X190630790Y-105234684D01*
X190579660Y-105098295D01*
X190492306Y-104981739D01*
X190375750Y-104894385D01*
X190367342Y-104891233D01*
X190359470Y-104886923D01*
X190360773Y-104884543D01*
X190315241Y-104850336D01*
X190290544Y-104783773D01*
X190305754Y-104714425D01*
X190356042Y-104664309D01*
X190363142Y-104661067D01*
X190367344Y-104658766D01*
X190375750Y-104655615D01*
X190492306Y-104568261D01*
X190579660Y-104451705D01*
X190630790Y-104315316D01*
X190637545Y-104253134D01*
X190637545Y-103096866D01*
X190630790Y-103034684D01*
X190579660Y-102898295D01*
X190515519Y-102812712D01*
X190490671Y-102746206D01*
X190490345Y-102737147D01*
X190490345Y-102426354D01*
X190509085Y-102360238D01*
X190519507Y-102343331D01*
X190519508Y-102343329D01*
X190523347Y-102337101D01*
X190577194Y-102174757D01*
X190587545Y-102073732D01*
X190587545Y-101476268D01*
X190585767Y-101459126D01*
X190582117Y-101423955D01*
X190576932Y-101373981D01*
X190549531Y-101291852D01*
X190525118Y-101218676D01*
X190525117Y-101218674D01*
X190522801Y-101211732D01*
X190486167Y-101152532D01*
X190441038Y-101079604D01*
X190422200Y-101011152D01*
X190439062Y-100950302D01*
X190484527Y-100871556D01*
X190543542Y-100689928D01*
X190547442Y-100652827D01*
X190562814Y-100506565D01*
X190563504Y-100500000D01*
X190561217Y-100478242D01*
X190544232Y-100316635D01*
X190544232Y-100316633D01*
X190543542Y-100310072D01*
X190484527Y-100128444D01*
X190389040Y-99963056D01*
X190383196Y-99956565D01*
X190265675Y-99826045D01*
X190265674Y-99826044D01*
X190261253Y-99821134D01*
X190119317Y-99718011D01*
X190112094Y-99712763D01*
X190112093Y-99712762D01*
X190106752Y-99708882D01*
X190100724Y-99706198D01*
X190100722Y-99706197D01*
X189938319Y-99633891D01*
X189938318Y-99633891D01*
X189932288Y-99631206D01*
X189823847Y-99608156D01*
X189751944Y-99592872D01*
X189751939Y-99592872D01*
X189745487Y-99591500D01*
X189554513Y-99591500D01*
X189548061Y-99592872D01*
X189548056Y-99592872D01*
X189476153Y-99608156D01*
X189367712Y-99631206D01*
X189361682Y-99633891D01*
X189361681Y-99633891D01*
X189199278Y-99706197D01*
X189199276Y-99706198D01*
X189193248Y-99708882D01*
X189187907Y-99712762D01*
X189187906Y-99712763D01*
X189180683Y-99718011D01*
X189038747Y-99821134D01*
X189034326Y-99826044D01*
X189034325Y-99826045D01*
X188916805Y-99956565D01*
X188910960Y-99963056D01*
X188815473Y-100128444D01*
X188756458Y-100310072D01*
X188755768Y-100316633D01*
X188755768Y-100316635D01*
X188738783Y-100478242D01*
X188736496Y-100500000D01*
X188737186Y-100506565D01*
X188752559Y-100652827D01*
X188756458Y-100689928D01*
X188758497Y-100696205D01*
X188759871Y-100702666D01*
X188757301Y-100703212D01*
X188759001Y-100762452D01*
X188722346Y-100823254D01*
X188658638Y-100854588D01*
X188597469Y-100850029D01*
X188460234Y-100804510D01*
X188446855Y-100801642D01*
X188355948Y-100792328D01*
X188350919Y-100792071D01*
X188335921Y-100796475D01*
X188334716Y-100797865D01*
X188333045Y-100805548D01*
X188333045Y-101903000D01*
X188313043Y-101971121D01*
X188259387Y-102017614D01*
X188207045Y-102029000D01*
X187139160Y-102029000D01*
X187123921Y-102033475D01*
X187122716Y-102034865D01*
X187121045Y-102042548D01*
X187121045Y-102070438D01*
X187121382Y-102076953D01*
X187130939Y-102169057D01*
X187133833Y-102182456D01*
X187183426Y-102331107D01*
X187189600Y-102344286D01*
X187271833Y-102477173D01*
X187280869Y-102488574D01*
X187317757Y-102525398D01*
X187351836Y-102587681D01*
X187346833Y-102658501D01*
X187304304Y-102715397D01*
X187215784Y-102781739D01*
X187210403Y-102788919D01*
X187161482Y-102854194D01*
X187104623Y-102896709D01*
X187033804Y-102901735D01*
X186986597Y-102880566D01*
X186956752Y-102858882D01*
X186950724Y-102856198D01*
X186950722Y-102856197D01*
X186788319Y-102783891D01*
X186788318Y-102783891D01*
X186782288Y-102781206D01*
X186688709Y-102761315D01*
X186601944Y-102742872D01*
X186601939Y-102742872D01*
X186595487Y-102741500D01*
X186404513Y-102741500D01*
X186398061Y-102742872D01*
X186398056Y-102742872D01*
X186311291Y-102761315D01*
X186217712Y-102781206D01*
X186211682Y-102783891D01*
X186211681Y-102783891D01*
X186049278Y-102856197D01*
X186049276Y-102856198D01*
X186043248Y-102858882D01*
X186037909Y-102862761D01*
X186037906Y-102862763D01*
X185991184Y-102896709D01*
X185888747Y-102971134D01*
X185884326Y-102976044D01*
X185884325Y-102976045D01*
X185775538Y-103096866D01*
X185760960Y-103113056D01*
X185731683Y-103163766D01*
X185670020Y-103270569D01*
X185665473Y-103278444D01*
X185606458Y-103460072D01*
X185605768Y-103466633D01*
X185605768Y-103466635D01*
X185589102Y-103625209D01*
X185586496Y-103650000D01*
X185587186Y-103656565D01*
X185596070Y-103741087D01*
X185606458Y-103839928D01*
X185665473Y-104021556D01*
X185760960Y-104186944D01*
X185765378Y-104191851D01*
X185765379Y-104191852D01*
X185884325Y-104323955D01*
X185888747Y-104328866D01*
X185931924Y-104360236D01*
X186034701Y-104434908D01*
X186043248Y-104441118D01*
X186049276Y-104443802D01*
X186049278Y-104443803D01*
X186208027Y-104514482D01*
X186217712Y-104518794D01*
X186299897Y-104536263D01*
X186398056Y-104557128D01*
X186398061Y-104557128D01*
X186404513Y-104558500D01*
X186595487Y-104558500D01*
X186601939Y-104557128D01*
X186601944Y-104557128D01*
X186700103Y-104536263D01*
X186782288Y-104518794D01*
X186791973Y-104514482D01*
X186950722Y-104443803D01*
X186950724Y-104443802D01*
X186956752Y-104441118D01*
X186962333Y-104437063D01*
X186962494Y-104437006D01*
X186967811Y-104433936D01*
X186968372Y-104434908D01*
X187029198Y-104413205D01*
X187098350Y-104429284D01*
X187137220Y-104463434D01*
X187210402Y-104561080D01*
X187215784Y-104568261D01*
X187332340Y-104655615D01*
X187340748Y-104658767D01*
X187348620Y-104663077D01*
X187347317Y-104665457D01*
X187392849Y-104699664D01*
X187417546Y-104766227D01*
X187402336Y-104835575D01*
X187352048Y-104885691D01*
X187344948Y-104888933D01*
X187340746Y-104891234D01*
X187332340Y-104894385D01*
X187215784Y-104981739D01*
X187128430Y-105098295D01*
X187077300Y-105234684D01*
X187070545Y-105296866D01*
X187070545Y-106453134D01*
X187077300Y-106515316D01*
X187128430Y-106651705D01*
X187215784Y-106768261D01*
X187222964Y-106773642D01*
X187304340Y-106834630D01*
X187346855Y-106891489D01*
X187351881Y-106962308D01*
X187317948Y-107024474D01*
X187280059Y-107062429D01*
X187271047Y-107073840D01*
X187189041Y-107206880D01*
X187182894Y-107220061D01*
X187133554Y-107368814D01*
X187130687Y-107382190D01*
X187121373Y-107473097D01*
X187121045Y-107479514D01*
X187121045Y-107502885D01*
X187125520Y-107518124D01*
X187126910Y-107519329D01*
X187134593Y-107521000D01*
X188207045Y-107521000D01*
X188275166Y-107541002D01*
X188321659Y-107594658D01*
X188333045Y-107647000D01*
X188333045Y-108739885D01*
X188337520Y-108755124D01*
X188338910Y-108756329D01*
X188346593Y-108758000D01*
X188349483Y-108758000D01*
X188355998Y-108757663D01*
X188448102Y-108748106D01*
X188461501Y-108745212D01*
X188610152Y-108695619D01*
X188623330Y-108689445D01*
X188750442Y-108610786D01*
X188818894Y-108591948D01*
X188886663Y-108613109D01*
X188932235Y-108667550D01*
X188942745Y-108717930D01*
X188942745Y-109650901D01*
X188942453Y-109659471D01*
X188938652Y-109715227D01*
X188939957Y-109722704D01*
X188939957Y-109722705D01*
X188949275Y-109776094D01*
X188950237Y-109782616D01*
X188957660Y-109843953D01*
X188960345Y-109851058D01*
X188961477Y-109855668D01*
X188964526Y-109866816D01*
X188965906Y-109871384D01*
X188967211Y-109878864D01*
X188992047Y-109935442D01*
X188994528Y-109941522D01*
X189016376Y-109999341D01*
X189020677Y-110005599D01*
X189022877Y-110009807D01*
X189028481Y-110019877D01*
X189030926Y-110024011D01*
X189033979Y-110030966D01*
X189038605Y-110036994D01*
X189038605Y-110036995D01*
X189071586Y-110079977D01*
X189075452Y-110085298D01*
X189110462Y-110136237D01*
X189116129Y-110141286D01*
X189116135Y-110141293D01*
X189155457Y-110176327D01*
X189160733Y-110181308D01*
X192405830Y-113426405D01*
X192439856Y-113488717D01*
X192434791Y-113559532D01*
X192392244Y-113616368D01*
X192325724Y-113641179D01*
X192316735Y-113641500D01*
X161683872Y-113641500D01*
X161615751Y-113621498D01*
X161569258Y-113567842D01*
X161559154Y-113497568D01*
X161588648Y-113432988D01*
X161607644Y-113415174D01*
X161682235Y-113358500D01*
X168668905Y-108050000D01*
X175000000Y-108050000D01*
X175750000Y-109550000D01*
X176750000Y-110550000D01*
X176753574Y-110552680D01*
X176753578Y-110552684D01*
X177153753Y-110852815D01*
X177750000Y-111300000D01*
X179250000Y-111800000D01*
X181000000Y-111800000D01*
X182000000Y-111550000D01*
X183500000Y-110800000D01*
X184500000Y-109800000D01*
X184550864Y-109715227D01*
X185245201Y-108557999D01*
X185245202Y-108557997D01*
X185250000Y-108550000D01*
X185369891Y-108070438D01*
X187121045Y-108070438D01*
X187121382Y-108076953D01*
X187130939Y-108169057D01*
X187133833Y-108182456D01*
X187183426Y-108331107D01*
X187189600Y-108344286D01*
X187271833Y-108477173D01*
X187280869Y-108488574D01*
X187391474Y-108598986D01*
X187402885Y-108607998D01*
X187535925Y-108690004D01*
X187549106Y-108696151D01*
X187697859Y-108745491D01*
X187711235Y-108748358D01*
X187802142Y-108757672D01*
X187807171Y-108757929D01*
X187822169Y-108753525D01*
X187823374Y-108752135D01*
X187825045Y-108744452D01*
X187825045Y-108047115D01*
X187820570Y-108031876D01*
X187819180Y-108030671D01*
X187811497Y-108029000D01*
X187139160Y-108029000D01*
X187123921Y-108033475D01*
X187122716Y-108034865D01*
X187121045Y-108042548D01*
X187121045Y-108070438D01*
X185369891Y-108070438D01*
X185500000Y-107550000D01*
X185500000Y-105550000D01*
X185373712Y-105171135D01*
X185251413Y-104804238D01*
X185251411Y-104804234D01*
X185250000Y-104800000D01*
X185243851Y-104787702D01*
X184752533Y-103805065D01*
X184752530Y-103805061D01*
X184750000Y-103800000D01*
X184294647Y-103192863D01*
X184002684Y-102803578D01*
X184002680Y-102803574D01*
X184000000Y-102800000D01*
X183500000Y-102300000D01*
X181905770Y-101502885D01*
X187121045Y-101502885D01*
X187125520Y-101518124D01*
X187126910Y-101519329D01*
X187134593Y-101521000D01*
X187806930Y-101521000D01*
X187822169Y-101516525D01*
X187823374Y-101515135D01*
X187825045Y-101507452D01*
X187825045Y-100810115D01*
X187820570Y-100794876D01*
X187819180Y-100793671D01*
X187811497Y-100792000D01*
X187808607Y-100792000D01*
X187802092Y-100792337D01*
X187709988Y-100801894D01*
X187696589Y-100804788D01*
X187547938Y-100854381D01*
X187534759Y-100860555D01*
X187401872Y-100942788D01*
X187390471Y-100951824D01*
X187280059Y-101062429D01*
X187271047Y-101073840D01*
X187189041Y-101206880D01*
X187182894Y-101220061D01*
X187133554Y-101368814D01*
X187130687Y-101382190D01*
X187121373Y-101473097D01*
X187121045Y-101479514D01*
X187121045Y-101502885D01*
X181905770Y-101502885D01*
X181500000Y-101300000D01*
X179000000Y-101300000D01*
X178990364Y-101303212D01*
X178254238Y-101548587D01*
X178254234Y-101548589D01*
X178250000Y-101550000D01*
X178246006Y-101551997D01*
X177255065Y-102047467D01*
X177255061Y-102047470D01*
X177250000Y-102050000D01*
X176250000Y-102800000D01*
X176244630Y-102807160D01*
X175509338Y-103787550D01*
X175500000Y-103800000D01*
X175317388Y-104256531D01*
X175026444Y-104983891D01*
X175000000Y-105050000D01*
X175000000Y-108050000D01*
X168668905Y-108050000D01*
X170699087Y-106507460D01*
X180337477Y-99184174D01*
X180403818Y-99158888D01*
X180413705Y-99158500D01*
X187496750Y-99158500D01*
X187517655Y-99160246D01*
X187532656Y-99162770D01*
X187532659Y-99162770D01*
X187537448Y-99163576D01*
X187543525Y-99163650D01*
X187545135Y-99163670D01*
X187545139Y-99163670D01*
X187550000Y-99163729D01*
X187554818Y-99163039D01*
X187554865Y-99163036D01*
X187562741Y-99162162D01*
X187786711Y-99144535D01*
X187791518Y-99143381D01*
X187791524Y-99143380D01*
X187937391Y-99108360D01*
X188017594Y-99089105D01*
X188026711Y-99085329D01*
X188230145Y-99001064D01*
X188300735Y-98993475D01*
X188359943Y-99021450D01*
X188376285Y-99035333D01*
X188425812Y-99060623D01*
X188527292Y-99112442D01*
X188527294Y-99112443D01*
X188533808Y-99115769D01*
X188540913Y-99117508D01*
X188540917Y-99117509D01*
X188623238Y-99137652D01*
X188705610Y-99157808D01*
X188711212Y-99158156D01*
X188711215Y-99158156D01*
X188714825Y-99158380D01*
X188714835Y-99158380D01*
X188716764Y-99158500D01*
X188844293Y-99158500D01*
X188914036Y-99150369D01*
X188968411Y-99144030D01*
X188968415Y-99144029D01*
X188975681Y-99143182D01*
X188982556Y-99140687D01*
X188982558Y-99140686D01*
X189135662Y-99085111D01*
X189206520Y-99080670D01*
X189235956Y-99091334D01*
X189277288Y-99112440D01*
X189277290Y-99112441D01*
X189283808Y-99115769D01*
X189455610Y-99157808D01*
X189461212Y-99158156D01*
X189461215Y-99158156D01*
X189464825Y-99158380D01*
X189464835Y-99158380D01*
X189466764Y-99158500D01*
X189594293Y-99158500D01*
X189664036Y-99150369D01*
X189718411Y-99144030D01*
X189718415Y-99144029D01*
X189725681Y-99143182D01*
X189732556Y-99140687D01*
X189732558Y-99140686D01*
X189885662Y-99085111D01*
X189956520Y-99080670D01*
X189985956Y-99091334D01*
X190027288Y-99112440D01*
X190027290Y-99112441D01*
X190033808Y-99115769D01*
X190205610Y-99157808D01*
X190211212Y-99158156D01*
X190211215Y-99158156D01*
X190214825Y-99158380D01*
X190214835Y-99158380D01*
X190216764Y-99158500D01*
X190344293Y-99158500D01*
X190414036Y-99150369D01*
X190468411Y-99144030D01*
X190468415Y-99144029D01*
X190475681Y-99143182D01*
X190482556Y-99140687D01*
X190482558Y-99140686D01*
X190635061Y-99085329D01*
X190635062Y-99085329D01*
X190641937Y-99082833D01*
X190648054Y-99078822D01*
X190648057Y-99078821D01*
X190750879Y-99011408D01*
X190818815Y-98990785D01*
X190868182Y-99000371D01*
X191073290Y-99085329D01*
X191082406Y-99089105D01*
X191162609Y-99108360D01*
X191308476Y-99143380D01*
X191308482Y-99143381D01*
X191313289Y-99144535D01*
X191516296Y-99160512D01*
X191527316Y-99161871D01*
X191532644Y-99162768D01*
X191532649Y-99162768D01*
X191537448Y-99163576D01*
X191543941Y-99163655D01*
X191545140Y-99163670D01*
X191545143Y-99163670D01*
X191550000Y-99163729D01*
X191577624Y-99159773D01*
X191595486Y-99158500D01*
X199827196Y-99158500D01*
X199895317Y-99178502D01*
X199941810Y-99232158D01*
X199952506Y-99297670D01*
X199942904Y-99389030D01*
X199936496Y-99450000D01*
X199937186Y-99456565D01*
X199955675Y-99632474D01*
X199956458Y-99639928D01*
X200015473Y-99821556D01*
X200110960Y-99986944D01*
X200115378Y-99991851D01*
X200115379Y-99991852D01*
X200226200Y-100114931D01*
X200238747Y-100128866D01*
X200393248Y-100241118D01*
X200399276Y-100243802D01*
X200399278Y-100243803D01*
X200545449Y-100308882D01*
X200567712Y-100318794D01*
X200661112Y-100338647D01*
X200748056Y-100357128D01*
X200748061Y-100357128D01*
X200754513Y-100358500D01*
X200945487Y-100358500D01*
X200951939Y-100357128D01*
X200951944Y-100357128D01*
X201038888Y-100338647D01*
X201132288Y-100318794D01*
X201138315Y-100316111D01*
X201138323Y-100316108D01*
X201222837Y-100278480D01*
X201293204Y-100269046D01*
X201357501Y-100299153D01*
X201395314Y-100359242D01*
X201394638Y-100430235D01*
X201386797Y-100449908D01*
X201375466Y-100472584D01*
X201370514Y-100486262D01*
X201334694Y-100638385D01*
X201333023Y-100652827D01*
X201333160Y-100809116D01*
X201334855Y-100823551D01*
X201370943Y-100975616D01*
X201375916Y-100989281D01*
X201446213Y-101129354D01*
X201453643Y-101140840D01*
X201511338Y-101211708D01*
X201515646Y-101216479D01*
X201532166Y-101232999D01*
X201546110Y-101240613D01*
X201547945Y-101240482D01*
X201554558Y-101236232D01*
X202312897Y-100477893D01*
X202375209Y-100443867D01*
X202446024Y-100448932D01*
X202491087Y-100477893D01*
X202672107Y-100658913D01*
X202706133Y-100721225D01*
X202701068Y-100792040D01*
X202672107Y-100837103D01*
X201916998Y-101592212D01*
X201909386Y-101606152D01*
X201909518Y-101607988D01*
X201913767Y-101614600D01*
X201933487Y-101634320D01*
X201938328Y-101638685D01*
X202010225Y-101697064D01*
X202021740Y-101704488D01*
X202161920Y-101774532D01*
X202175602Y-101779486D01*
X202286683Y-101805642D01*
X202348406Y-101840725D01*
X202381363Y-101903609D01*
X202382118Y-101931115D01*
X202383399Y-101931115D01*
X202383399Y-101940088D01*
X202382126Y-101948977D01*
X202383399Y-101957866D01*
X202400454Y-102076953D01*
X202402775Y-102093163D01*
X202406488Y-102101329D01*
X202406489Y-102101333D01*
X202418275Y-102127254D01*
X202428261Y-102197545D01*
X202398660Y-102262077D01*
X202338870Y-102300360D01*
X202267874Y-102300242D01*
X202223259Y-102276490D01*
X202153142Y-102218484D01*
X202153136Y-102218480D01*
X202151118Y-102216810D01*
X201781308Y-101959785D01*
X201391287Y-101734607D01*
X200983792Y-101542854D01*
X200981325Y-101541937D01*
X200981319Y-101541934D01*
X200564141Y-101386787D01*
X200561681Y-101385872D01*
X200559151Y-101385166D01*
X200559143Y-101385163D01*
X200130459Y-101265472D01*
X200130446Y-101265469D01*
X200127914Y-101264762D01*
X199685534Y-101180374D01*
X199237644Y-101133299D01*
X198950266Y-101127279D01*
X198790025Y-101123922D01*
X198790018Y-101123922D01*
X198787386Y-101123867D01*
X198337918Y-101152145D01*
X198335300Y-101152532D01*
X198335296Y-101152532D01*
X197895012Y-101217548D01*
X197895009Y-101217548D01*
X197892392Y-101217935D01*
X197889820Y-101218538D01*
X197889816Y-101218539D01*
X197828166Y-101232999D01*
X197453934Y-101320774D01*
X197451423Y-101321590D01*
X197451419Y-101321591D01*
X197121261Y-101428866D01*
X197025619Y-101459942D01*
X197023191Y-101460963D01*
X197023190Y-101460963D01*
X196994325Y-101473097D01*
X196610452Y-101634463D01*
X196608119Y-101635683D01*
X196608114Y-101635685D01*
X196602376Y-101638685D01*
X196211344Y-101843111D01*
X196209116Y-101844525D01*
X195833332Y-102083005D01*
X195833326Y-102083009D01*
X195831095Y-102084425D01*
X195472372Y-102356710D01*
X195137692Y-102658057D01*
X195135888Y-102659978D01*
X195135884Y-102659982D01*
X195054915Y-102746206D01*
X194829401Y-102986354D01*
X194549663Y-103339295D01*
X194548209Y-103341484D01*
X194548205Y-103341489D01*
X194312653Y-103696024D01*
X194300439Y-103714407D01*
X194083478Y-104109058D01*
X193900302Y-104520479D01*
X193752194Y-104945786D01*
X193751539Y-104948337D01*
X193751536Y-104948347D01*
X193640851Y-105379438D01*
X193640195Y-105381994D01*
X193565090Y-105826044D01*
X193564870Y-105828661D01*
X193564870Y-105828663D01*
X193532406Y-106215271D01*
X193527405Y-106274822D01*
X193527405Y-106725178D01*
X193527625Y-106727796D01*
X193527625Y-106727800D01*
X193547293Y-106962019D01*
X193565090Y-107173956D01*
X193640195Y-107618006D01*
X193640850Y-107620556D01*
X193640851Y-107620562D01*
X193749199Y-108042548D01*
X193752194Y-108054214D01*
X193900302Y-108479521D01*
X194083478Y-108890942D01*
X194300439Y-109285593D01*
X194301891Y-109287779D01*
X194301895Y-109287785D01*
X194548205Y-109658511D01*
X194549663Y-109660705D01*
X194829401Y-110013646D01*
X195045993Y-110244293D01*
X195099743Y-110301531D01*
X195137692Y-110341943D01*
X195472372Y-110643290D01*
X195831095Y-110915575D01*
X195833326Y-110916991D01*
X195833332Y-110916995D01*
X196029577Y-111041536D01*
X196211344Y-111156889D01*
X196416371Y-111264074D01*
X196608114Y-111364315D01*
X196608119Y-111364317D01*
X196610452Y-111365537D01*
X197025619Y-111540058D01*
X197028127Y-111540873D01*
X197028130Y-111540874D01*
X197451419Y-111678409D01*
X197451423Y-111678410D01*
X197453934Y-111679226D01*
X197767252Y-111752714D01*
X197889816Y-111781461D01*
X197889820Y-111781462D01*
X197892392Y-111782065D01*
X197895009Y-111782452D01*
X197895012Y-111782452D01*
X198335296Y-111847468D01*
X198335300Y-111847468D01*
X198337918Y-111847855D01*
X198787386Y-111876133D01*
X198790018Y-111876078D01*
X198790025Y-111876078D01*
X198961511Y-111872485D01*
X199237644Y-111866701D01*
X199685534Y-111819626D01*
X200127914Y-111735238D01*
X200130446Y-111734531D01*
X200130459Y-111734528D01*
X200559143Y-111614837D01*
X200559151Y-111614834D01*
X200561681Y-111614128D01*
X200763594Y-111539037D01*
X200981319Y-111458066D01*
X200981325Y-111458063D01*
X200983792Y-111457146D01*
X201391287Y-111265393D01*
X201781308Y-111040215D01*
X202151118Y-110783190D01*
X202364296Y-110606834D01*
X202496100Y-110497797D01*
X202496108Y-110497790D01*
X202498124Y-110496122D01*
X202819892Y-110181023D01*
X202823946Y-110176327D01*
X203102712Y-109853372D01*
X203114164Y-109840105D01*
X203115716Y-109837969D01*
X203115723Y-109837960D01*
X203377328Y-109477891D01*
X203378877Y-109475759D01*
X203385195Y-109465328D01*
X203495439Y-109283293D01*
X203612174Y-109090540D01*
X203660855Y-108992474D01*
X203811245Y-108689515D01*
X203812419Y-108687150D01*
X203978206Y-108268419D01*
X204108374Y-107837283D01*
X204112309Y-107818774D01*
X204201461Y-107399341D01*
X204202008Y-107396768D01*
X204258453Y-106949962D01*
X204266370Y-106761081D01*
X204277201Y-106502648D01*
X204277312Y-106500000D01*
X204272334Y-106381226D01*
X204258564Y-106052683D01*
X204258564Y-106052680D01*
X204258453Y-106050038D01*
X204202008Y-105603232D01*
X204154439Y-105379438D01*
X204108920Y-105165284D01*
X204108918Y-105165276D01*
X204108374Y-105162717D01*
X203978206Y-104731581D01*
X203812419Y-104312850D01*
X203737608Y-104162144D01*
X203613351Y-103911831D01*
X203612174Y-103909460D01*
X203454450Y-103649027D01*
X203380243Y-103526496D01*
X203380239Y-103526491D01*
X203378877Y-103524241D01*
X203337024Y-103466635D01*
X203238435Y-103330939D01*
X203214576Y-103264071D01*
X203230657Y-103194920D01*
X203281571Y-103145439D01*
X203351154Y-103131340D01*
X203392522Y-103142177D01*
X203493032Y-103187876D01*
X203493036Y-103187877D01*
X203501202Y-103191590D01*
X203510085Y-103192862D01*
X203510088Y-103192863D01*
X203636499Y-103210966D01*
X203645388Y-103212239D01*
X203672479Y-103208359D01*
X203742745Y-103218501D01*
X203750612Y-103222612D01*
X203755430Y-103226349D01*
X203762707Y-103229498D01*
X203796147Y-103243969D01*
X203806808Y-103249192D01*
X203838744Y-103266749D01*
X203838749Y-103266751D01*
X203845694Y-103270569D01*
X203857416Y-103273579D01*
X203860242Y-103275261D01*
X203860743Y-103275459D01*
X203860711Y-103275540D01*
X203918423Y-103309891D01*
X203950114Y-103373422D01*
X203950812Y-103413481D01*
X203937761Y-103504612D01*
X203939034Y-103513501D01*
X203957033Y-103639181D01*
X203958410Y-103648798D01*
X203962124Y-103656966D01*
X203962124Y-103656967D01*
X203979882Y-103696024D01*
X204018697Y-103781394D01*
X204023644Y-103787547D01*
X204023646Y-103787550D01*
X204044434Y-103813404D01*
X204057890Y-103830140D01*
X204875495Y-104647745D01*
X204885283Y-104655615D01*
X204918085Y-104681989D01*
X204918088Y-104681991D01*
X204924241Y-104686938D01*
X204931429Y-104690206D01*
X205042926Y-104740900D01*
X205056837Y-104747225D01*
X205065720Y-104748497D01*
X205065723Y-104748498D01*
X205135832Y-104758538D01*
X205201023Y-104767874D01*
X205209908Y-104766602D01*
X205218889Y-104766602D01*
X205218889Y-104769803D01*
X205273549Y-104777688D01*
X205327183Y-104824206D01*
X205343747Y-104863183D01*
X205372160Y-104982910D01*
X205375442Y-104989449D01*
X205375442Y-104989450D01*
X205429791Y-105097746D01*
X205448879Y-105135780D01*
X205453221Y-105141113D01*
X205453222Y-105141115D01*
X205510964Y-105212040D01*
X205510970Y-105212046D01*
X205512995Y-105214534D01*
X205935466Y-105637005D01*
X205937998Y-105639061D01*
X206009944Y-105697482D01*
X206009947Y-105697484D01*
X206015298Y-105701829D01*
X206021462Y-105704909D01*
X206021467Y-105704912D01*
X206161759Y-105775011D01*
X206161761Y-105775012D01*
X206168302Y-105778280D01*
X206233298Y-105793584D01*
X206327665Y-105815805D01*
X206327669Y-105815805D01*
X206334789Y-105817482D01*
X206342105Y-105817476D01*
X206342108Y-105817476D01*
X206386363Y-105817437D01*
X206444513Y-105817386D01*
X206512649Y-105837328D01*
X206533716Y-105854291D01*
X206561648Y-105882223D01*
X206595674Y-105944535D01*
X206597863Y-105958145D01*
X206606458Y-106039928D01*
X206665473Y-106221556D01*
X206760960Y-106386944D01*
X206765378Y-106391851D01*
X206765379Y-106391852D01*
X206884325Y-106523955D01*
X206888747Y-106528866D01*
X207043248Y-106641118D01*
X207049276Y-106643802D01*
X207049278Y-106643803D01*
X207211681Y-106716109D01*
X207217712Y-106718794D01*
X207311113Y-106738647D01*
X207398056Y-106757128D01*
X207398061Y-106757128D01*
X207404513Y-106758500D01*
X207595487Y-106758500D01*
X207601939Y-106757128D01*
X207601944Y-106757128D01*
X207688887Y-106738647D01*
X207782288Y-106718794D01*
X207788319Y-106716109D01*
X207950722Y-106643803D01*
X207950724Y-106643802D01*
X207956752Y-106641118D01*
X208111253Y-106528866D01*
X208115675Y-106523955D01*
X208234621Y-106391852D01*
X208234622Y-106391851D01*
X208239040Y-106386944D01*
X208334527Y-106221556D01*
X208393542Y-106039928D01*
X208413504Y-105850000D01*
X208409910Y-105815805D01*
X208394232Y-105666635D01*
X208394232Y-105666633D01*
X208393542Y-105660072D01*
X208334527Y-105478444D01*
X208239040Y-105313056D01*
X208224463Y-105296866D01*
X208115675Y-105176045D01*
X208115674Y-105176044D01*
X208111253Y-105171134D01*
X208010999Y-105098295D01*
X207962094Y-105062763D01*
X207962093Y-105062762D01*
X207956752Y-105058882D01*
X207950724Y-105056198D01*
X207950722Y-105056197D01*
X207788319Y-104983891D01*
X207788318Y-104983891D01*
X207782288Y-104981206D01*
X207656264Y-104954419D01*
X207593792Y-104920691D01*
X207559470Y-104858541D01*
X207564198Y-104787702D01*
X207606474Y-104730664D01*
X207653368Y-104708577D01*
X207760971Y-104683041D01*
X207774636Y-104678068D01*
X207914709Y-104607771D01*
X207926195Y-104600341D01*
X207997063Y-104542646D01*
X208000798Y-104539273D01*
X208008291Y-104525551D01*
X208008160Y-104523718D01*
X208003909Y-104517103D01*
X207227893Y-103741087D01*
X207193867Y-103678775D01*
X207195702Y-103653124D01*
X207862416Y-103653124D01*
X207862547Y-103654958D01*
X207866798Y-103661572D01*
X208359887Y-104154661D01*
X208373831Y-104162275D01*
X208375664Y-104162144D01*
X208382279Y-104157893D01*
X208384313Y-104155859D01*
X208388697Y-104150997D01*
X208427131Y-104103663D01*
X208485598Y-104063388D01*
X208556559Y-104061117D01*
X208617482Y-104097570D01*
X208622658Y-104103536D01*
X208661336Y-104151045D01*
X208664711Y-104154782D01*
X208678433Y-104162275D01*
X208680266Y-104162144D01*
X208686881Y-104157893D01*
X209179970Y-103664804D01*
X209187584Y-103650860D01*
X209187453Y-103649027D01*
X209183202Y-103642412D01*
X208707786Y-103166997D01*
X208693848Y-103159386D01*
X208692012Y-103159518D01*
X208685400Y-103163767D01*
X208665680Y-103183487D01*
X208661305Y-103188339D01*
X208622868Y-103235676D01*
X208564401Y-103275951D01*
X208493440Y-103278222D01*
X208432517Y-103241769D01*
X208427340Y-103235801D01*
X208388670Y-103188301D01*
X208384354Y-103183521D01*
X208367834Y-103167001D01*
X208353890Y-103159387D01*
X208352055Y-103159518D01*
X208345445Y-103163766D01*
X207870029Y-103639181D01*
X207862416Y-103653124D01*
X207195702Y-103653124D01*
X207198932Y-103607960D01*
X207227893Y-103562897D01*
X207498008Y-103292782D01*
X207982999Y-102807790D01*
X207990613Y-102793846D01*
X207990482Y-102792013D01*
X207986231Y-102785398D01*
X207966513Y-102765680D01*
X207961672Y-102761315D01*
X207889775Y-102702936D01*
X207878260Y-102695512D01*
X207738080Y-102625468D01*
X207724398Y-102620514D01*
X207613317Y-102594358D01*
X207551594Y-102559275D01*
X207518637Y-102496391D01*
X207517882Y-102468885D01*
X207516601Y-102468885D01*
X207516601Y-102459912D01*
X207517874Y-102451023D01*
X207514341Y-102426354D01*
X207498498Y-102315723D01*
X207498497Y-102315720D01*
X207497225Y-102306837D01*
X207476874Y-102262077D01*
X207440209Y-102181434D01*
X207440206Y-102181429D01*
X207436938Y-102174241D01*
X207434163Y-102170789D01*
X207415879Y-102103782D01*
X207437187Y-102036058D01*
X207491727Y-101990605D01*
X207515658Y-101982958D01*
X207575824Y-101970169D01*
X207575833Y-101970166D01*
X207582288Y-101968794D01*
X207597303Y-101962109D01*
X207750722Y-101893803D01*
X207750724Y-101893802D01*
X207756752Y-101891118D01*
X207911253Y-101778866D01*
X207952115Y-101733484D01*
X208034621Y-101641852D01*
X208034622Y-101641851D01*
X208039040Y-101636944D01*
X208129921Y-101479534D01*
X208131223Y-101477279D01*
X208131224Y-101477278D01*
X208134527Y-101471556D01*
X208193542Y-101289928D01*
X208196113Y-101265472D01*
X208212814Y-101106565D01*
X208213504Y-101100000D01*
X208193542Y-100910072D01*
X208134527Y-100728444D01*
X208039040Y-100563056D01*
X208030701Y-100553794D01*
X207915675Y-100426045D01*
X207915674Y-100426044D01*
X207911253Y-100421134D01*
X207756752Y-100308882D01*
X207750724Y-100306198D01*
X207750722Y-100306197D01*
X207588319Y-100233891D01*
X207588318Y-100233891D01*
X207582288Y-100231206D01*
X207488888Y-100211353D01*
X207401944Y-100192872D01*
X207401939Y-100192872D01*
X207395487Y-100191500D01*
X207204513Y-100191500D01*
X207198061Y-100192872D01*
X207198056Y-100192872D01*
X207111112Y-100211353D01*
X207017712Y-100231206D01*
X207011682Y-100233891D01*
X207011681Y-100233891D01*
X206849278Y-100306197D01*
X206849276Y-100306198D01*
X206843248Y-100308882D01*
X206837907Y-100312762D01*
X206837906Y-100312763D01*
X206738854Y-100384729D01*
X206688747Y-100421134D01*
X206684332Y-100426037D01*
X206679420Y-100430460D01*
X206677779Y-100428638D01*
X206626790Y-100460050D01*
X206593601Y-100464500D01*
X206079020Y-100464500D01*
X206067791Y-100463971D01*
X206060281Y-100462292D01*
X206052355Y-100462541D01*
X206052354Y-100462541D01*
X205992002Y-100464438D01*
X205988044Y-100464500D01*
X205960017Y-100464500D01*
X205955971Y-100465011D01*
X205944143Y-100465942D01*
X205899795Y-100467336D01*
X205892177Y-100469549D01*
X205892178Y-100469549D01*
X205880254Y-100473013D01*
X205860894Y-100477022D01*
X205848566Y-100478579D01*
X205848563Y-100478580D01*
X205840701Y-100479573D01*
X205838118Y-100480596D01*
X205769453Y-100478242D01*
X205719978Y-100447728D01*
X205024505Y-99752255D01*
X205007769Y-99738799D01*
X204981915Y-99718011D01*
X204981912Y-99718009D01*
X204975759Y-99713062D01*
X204843163Y-99652775D01*
X204834280Y-99651503D01*
X204834277Y-99651502D01*
X204737291Y-99637613D01*
X204672694Y-99608156D01*
X204666058Y-99601981D01*
X204567616Y-99503539D01*
X204534116Y-99443536D01*
X204529530Y-99424212D01*
X204527840Y-99417090D01*
X204524560Y-99410554D01*
X204524558Y-99410549D01*
X204489662Y-99341016D01*
X204476984Y-99271160D01*
X204504086Y-99205540D01*
X204562362Y-99164989D01*
X204602276Y-99158500D01*
X206096750Y-99158500D01*
X206117655Y-99160246D01*
X206132656Y-99162770D01*
X206132659Y-99162770D01*
X206137448Y-99163576D01*
X206143525Y-99163650D01*
X206145135Y-99163670D01*
X206145139Y-99163670D01*
X206150000Y-99163729D01*
X206154818Y-99163039D01*
X206154865Y-99163036D01*
X206162741Y-99162162D01*
X206386711Y-99144535D01*
X206391518Y-99143381D01*
X206391524Y-99143380D01*
X206537391Y-99108360D01*
X206617594Y-99089105D01*
X206626711Y-99085329D01*
X206830145Y-99001064D01*
X206900735Y-98993475D01*
X206959943Y-99021450D01*
X206976285Y-99035333D01*
X207025812Y-99060623D01*
X207127292Y-99112442D01*
X207127294Y-99112443D01*
X207133808Y-99115769D01*
X207140913Y-99117508D01*
X207140917Y-99117509D01*
X207223238Y-99137652D01*
X207305610Y-99157808D01*
X207311212Y-99158156D01*
X207311215Y-99158156D01*
X207314825Y-99158380D01*
X207314835Y-99158380D01*
X207316764Y-99158500D01*
X207444293Y-99158500D01*
X207514036Y-99150369D01*
X207568411Y-99144030D01*
X207568415Y-99144029D01*
X207575681Y-99143182D01*
X207582556Y-99140687D01*
X207582558Y-99140686D01*
X207735662Y-99085111D01*
X207806520Y-99080670D01*
X207835956Y-99091334D01*
X207877288Y-99112440D01*
X207877290Y-99112441D01*
X207883808Y-99115769D01*
X208055610Y-99157808D01*
X208061212Y-99158156D01*
X208061215Y-99158156D01*
X208064825Y-99158380D01*
X208064835Y-99158380D01*
X208066764Y-99158500D01*
X208194293Y-99158500D01*
X208264036Y-99150369D01*
X208318411Y-99144030D01*
X208318415Y-99144029D01*
X208325681Y-99143182D01*
X208332556Y-99140687D01*
X208332558Y-99140686D01*
X208485662Y-99085111D01*
X208556520Y-99080670D01*
X208585956Y-99091334D01*
X208627288Y-99112440D01*
X208627290Y-99112441D01*
X208633808Y-99115769D01*
X208805610Y-99157808D01*
X208811212Y-99158156D01*
X208811215Y-99158156D01*
X208814825Y-99158380D01*
X208814835Y-99158380D01*
X208816764Y-99158500D01*
X208944293Y-99158500D01*
X209014036Y-99150369D01*
X209068411Y-99144030D01*
X209068415Y-99144029D01*
X209075681Y-99143182D01*
X209082556Y-99140687D01*
X209082558Y-99140686D01*
X209235061Y-99085329D01*
X209235062Y-99085329D01*
X209241937Y-99082833D01*
X209248054Y-99078822D01*
X209248057Y-99078821D01*
X209350879Y-99011408D01*
X209418815Y-98990785D01*
X209468182Y-99000371D01*
G37*
%TD.AperFunction*%
%TD*%
%TA.AperFunction,Conductor*%
%TO.N,GND*%
G36*
X199695317Y-64178502D02*
G01*
X199741810Y-64232158D01*
X199752506Y-64297670D01*
X199742904Y-64389030D01*
X199736496Y-64450000D01*
X199737186Y-64456565D01*
X199755675Y-64632474D01*
X199756458Y-64639928D01*
X199815473Y-64821556D01*
X199910960Y-64986944D01*
X199915378Y-64991851D01*
X199915379Y-64991852D01*
X200026200Y-65114931D01*
X200038747Y-65128866D01*
X200193248Y-65241118D01*
X200199276Y-65243802D01*
X200199278Y-65243803D01*
X200345449Y-65308882D01*
X200367712Y-65318794D01*
X200461112Y-65338647D01*
X200548056Y-65357128D01*
X200548061Y-65357128D01*
X200554513Y-65358500D01*
X200745487Y-65358500D01*
X200751939Y-65357128D01*
X200751944Y-65357128D01*
X200838888Y-65338647D01*
X200932288Y-65318794D01*
X200938315Y-65316111D01*
X200938323Y-65316108D01*
X201022837Y-65278480D01*
X201093204Y-65269046D01*
X201157501Y-65299153D01*
X201195314Y-65359242D01*
X201194638Y-65430235D01*
X201186797Y-65449908D01*
X201175466Y-65472584D01*
X201170514Y-65486262D01*
X201134694Y-65638385D01*
X201133023Y-65652827D01*
X201133160Y-65809116D01*
X201134855Y-65823551D01*
X201170943Y-65975616D01*
X201175916Y-65989281D01*
X201246213Y-66129354D01*
X201253643Y-66140840D01*
X201311338Y-66211708D01*
X201315646Y-66216479D01*
X201332166Y-66232999D01*
X201346110Y-66240613D01*
X201347945Y-66240482D01*
X201354558Y-66236232D01*
X202112897Y-65477893D01*
X202175209Y-65443867D01*
X202246024Y-65448932D01*
X202291087Y-65477893D01*
X202472107Y-65658913D01*
X202506133Y-65721225D01*
X202501068Y-65792040D01*
X202472107Y-65837103D01*
X201716998Y-66592212D01*
X201709386Y-66606152D01*
X201709518Y-66607988D01*
X201713767Y-66614600D01*
X201733487Y-66634320D01*
X201738328Y-66638685D01*
X201810225Y-66697064D01*
X201821740Y-66704488D01*
X201961920Y-66774532D01*
X201975602Y-66779486D01*
X202086683Y-66805642D01*
X202148406Y-66840725D01*
X202181363Y-66903609D01*
X202182118Y-66931115D01*
X202183399Y-66931115D01*
X202183399Y-66940088D01*
X202182126Y-66948977D01*
X202183399Y-66957866D01*
X202200454Y-67076953D01*
X202202775Y-67093163D01*
X202206488Y-67101329D01*
X202206489Y-67101333D01*
X202218275Y-67127254D01*
X202228261Y-67197545D01*
X202198660Y-67262077D01*
X202138870Y-67300360D01*
X202067874Y-67300242D01*
X202023259Y-67276490D01*
X201953142Y-67218484D01*
X201953136Y-67218480D01*
X201951118Y-67216810D01*
X201581308Y-66959785D01*
X201191287Y-66734607D01*
X200783792Y-66542854D01*
X200781325Y-66541937D01*
X200781319Y-66541934D01*
X200364141Y-66386787D01*
X200361681Y-66385872D01*
X200359151Y-66385166D01*
X200359143Y-66385163D01*
X199930459Y-66265472D01*
X199930446Y-66265469D01*
X199927914Y-66264762D01*
X199485534Y-66180374D01*
X199037644Y-66133299D01*
X198750266Y-66127279D01*
X198590025Y-66123922D01*
X198590018Y-66123922D01*
X198587386Y-66123867D01*
X198137918Y-66152145D01*
X198135300Y-66152532D01*
X198135296Y-66152532D01*
X197695012Y-66217548D01*
X197695009Y-66217548D01*
X197692392Y-66217935D01*
X197689820Y-66218538D01*
X197689816Y-66218539D01*
X197628166Y-66232999D01*
X197253934Y-66320774D01*
X197251423Y-66321590D01*
X197251419Y-66321591D01*
X196921261Y-66428866D01*
X196825619Y-66459942D01*
X196823191Y-66460963D01*
X196823190Y-66460963D01*
X196794325Y-66473097D01*
X196410452Y-66634463D01*
X196408119Y-66635683D01*
X196408114Y-66635685D01*
X196402376Y-66638685D01*
X196011344Y-66843111D01*
X196009116Y-66844525D01*
X195633332Y-67083005D01*
X195633326Y-67083009D01*
X195631095Y-67084425D01*
X195272372Y-67356710D01*
X194937692Y-67658057D01*
X194935888Y-67659978D01*
X194935884Y-67659982D01*
X194854915Y-67746206D01*
X194629401Y-67986354D01*
X194349663Y-68339295D01*
X194348209Y-68341484D01*
X194348205Y-68341489D01*
X194112653Y-68696024D01*
X194100439Y-68714407D01*
X193883478Y-69109058D01*
X193700302Y-69520479D01*
X193552194Y-69945786D01*
X193551539Y-69948337D01*
X193551536Y-69948347D01*
X193440851Y-70379438D01*
X193440195Y-70381994D01*
X193365090Y-70826044D01*
X193364870Y-70828661D01*
X193364870Y-70828663D01*
X193332406Y-71215271D01*
X193327405Y-71274822D01*
X193327405Y-71725178D01*
X193327625Y-71727796D01*
X193327625Y-71727800D01*
X193347293Y-71962019D01*
X193365090Y-72173956D01*
X193440195Y-72618006D01*
X193440850Y-72620556D01*
X193440851Y-72620562D01*
X193549199Y-73042548D01*
X193552194Y-73054214D01*
X193700302Y-73479521D01*
X193883478Y-73890942D01*
X194100439Y-74285593D01*
X194101891Y-74287779D01*
X194101895Y-74287785D01*
X194348205Y-74658511D01*
X194349663Y-74660705D01*
X194629401Y-75013646D01*
X194845993Y-75244293D01*
X194899743Y-75301531D01*
X194937692Y-75341943D01*
X195272372Y-75643290D01*
X195631095Y-75915575D01*
X195633326Y-75916991D01*
X195633332Y-75916995D01*
X195829577Y-76041536D01*
X196011344Y-76156889D01*
X196216371Y-76264074D01*
X196408114Y-76364315D01*
X196408119Y-76364317D01*
X196410452Y-76365537D01*
X196825619Y-76540058D01*
X196828127Y-76540873D01*
X196828130Y-76540874D01*
X197251419Y-76678409D01*
X197251423Y-76678410D01*
X197253934Y-76679226D01*
X197567252Y-76752714D01*
X197689816Y-76781461D01*
X197689820Y-76781462D01*
X197692392Y-76782065D01*
X197695009Y-76782452D01*
X197695012Y-76782452D01*
X198135296Y-76847468D01*
X198135300Y-76847468D01*
X198137918Y-76847855D01*
X198587386Y-76876133D01*
X198590018Y-76876078D01*
X198590025Y-76876078D01*
X198761511Y-76872485D01*
X199037644Y-76866701D01*
X199485534Y-76819626D01*
X199927914Y-76735238D01*
X199930446Y-76734531D01*
X199930459Y-76734528D01*
X200359143Y-76614837D01*
X200359151Y-76614834D01*
X200361681Y-76614128D01*
X200563594Y-76539037D01*
X200781319Y-76458066D01*
X200781325Y-76458063D01*
X200783792Y-76457146D01*
X201191287Y-76265393D01*
X201581308Y-76040215D01*
X201951118Y-75783190D01*
X202164296Y-75606834D01*
X202296100Y-75497797D01*
X202296108Y-75497790D01*
X202298124Y-75496122D01*
X202619892Y-75181023D01*
X202623946Y-75176327D01*
X202902712Y-74853372D01*
X202914164Y-74840105D01*
X202915716Y-74837969D01*
X202915723Y-74837960D01*
X203177328Y-74477891D01*
X203178877Y-74475759D01*
X203185195Y-74465328D01*
X203295439Y-74283293D01*
X203412174Y-74090540D01*
X203460855Y-73992474D01*
X203611245Y-73689515D01*
X203612419Y-73687150D01*
X203778206Y-73268419D01*
X203908374Y-72837283D01*
X203912309Y-72818774D01*
X204001461Y-72399341D01*
X204002008Y-72396768D01*
X204058453Y-71949962D01*
X204066370Y-71761081D01*
X204077201Y-71502648D01*
X204077312Y-71500000D01*
X204072334Y-71381226D01*
X204058564Y-71052683D01*
X204058564Y-71052680D01*
X204058453Y-71050038D01*
X204002008Y-70603232D01*
X203954439Y-70379438D01*
X203908920Y-70165284D01*
X203908918Y-70165276D01*
X203908374Y-70162717D01*
X203778206Y-69731581D01*
X203612419Y-69312850D01*
X203537608Y-69162144D01*
X203413351Y-68911831D01*
X203412174Y-68909460D01*
X203254450Y-68649027D01*
X203180243Y-68526496D01*
X203180239Y-68526491D01*
X203178877Y-68524241D01*
X203137024Y-68466635D01*
X203038435Y-68330939D01*
X203014576Y-68264071D01*
X203030657Y-68194920D01*
X203081571Y-68145439D01*
X203151154Y-68131340D01*
X203192522Y-68142177D01*
X203293032Y-68187876D01*
X203293036Y-68187877D01*
X203301202Y-68191590D01*
X203310085Y-68192862D01*
X203310088Y-68192863D01*
X203436499Y-68210966D01*
X203445388Y-68212239D01*
X203472479Y-68208359D01*
X203542745Y-68218501D01*
X203550612Y-68222612D01*
X203555430Y-68226349D01*
X203562707Y-68229498D01*
X203596147Y-68243969D01*
X203606808Y-68249192D01*
X203638744Y-68266749D01*
X203638749Y-68266751D01*
X203645694Y-68270569D01*
X203657416Y-68273579D01*
X203660242Y-68275261D01*
X203660743Y-68275459D01*
X203660711Y-68275540D01*
X203718423Y-68309891D01*
X203750114Y-68373422D01*
X203750812Y-68413481D01*
X203737761Y-68504612D01*
X203739034Y-68513501D01*
X203757033Y-68639181D01*
X203758410Y-68648798D01*
X203762124Y-68656966D01*
X203762124Y-68656967D01*
X203779882Y-68696024D01*
X203818697Y-68781394D01*
X203823644Y-68787547D01*
X203823646Y-68787550D01*
X203844434Y-68813404D01*
X203857890Y-68830140D01*
X204675495Y-69647745D01*
X204685283Y-69655615D01*
X204718085Y-69681989D01*
X204718088Y-69681991D01*
X204724241Y-69686938D01*
X204731429Y-69690206D01*
X204842926Y-69740900D01*
X204856837Y-69747225D01*
X204865720Y-69748497D01*
X204865723Y-69748498D01*
X204935832Y-69758538D01*
X205001023Y-69767874D01*
X205009908Y-69766602D01*
X205018889Y-69766602D01*
X205018889Y-69769803D01*
X205073549Y-69777688D01*
X205127183Y-69824206D01*
X205143747Y-69863183D01*
X205172160Y-69982910D01*
X205175442Y-69989449D01*
X205175442Y-69989450D01*
X205229791Y-70097746D01*
X205248879Y-70135780D01*
X205253221Y-70141113D01*
X205253222Y-70141115D01*
X205310964Y-70212040D01*
X205310970Y-70212046D01*
X205312995Y-70214534D01*
X205735466Y-70637005D01*
X205737998Y-70639061D01*
X205809944Y-70697482D01*
X205809947Y-70697484D01*
X205815298Y-70701829D01*
X205821462Y-70704909D01*
X205821467Y-70704912D01*
X205961759Y-70775011D01*
X205961761Y-70775012D01*
X205968302Y-70778280D01*
X206033298Y-70793584D01*
X206127665Y-70815805D01*
X206127669Y-70815805D01*
X206134789Y-70817482D01*
X206142105Y-70817476D01*
X206142108Y-70817476D01*
X206186363Y-70817437D01*
X206244513Y-70817386D01*
X206312649Y-70837328D01*
X206333716Y-70854291D01*
X206361648Y-70882223D01*
X206395674Y-70944535D01*
X206397863Y-70958145D01*
X206406458Y-71039928D01*
X206465473Y-71221556D01*
X206560960Y-71386944D01*
X206565378Y-71391851D01*
X206565379Y-71391852D01*
X206684325Y-71523955D01*
X206688747Y-71528866D01*
X206843248Y-71641118D01*
X206849276Y-71643802D01*
X206849278Y-71643803D01*
X207011681Y-71716109D01*
X207017712Y-71718794D01*
X207111113Y-71738647D01*
X207198056Y-71757128D01*
X207198061Y-71757128D01*
X207204513Y-71758500D01*
X207395487Y-71758500D01*
X207401939Y-71757128D01*
X207401944Y-71757128D01*
X207488887Y-71738647D01*
X207582288Y-71718794D01*
X207588319Y-71716109D01*
X207750722Y-71643803D01*
X207750724Y-71643802D01*
X207756752Y-71641118D01*
X207911253Y-71528866D01*
X207915675Y-71523955D01*
X208034621Y-71391852D01*
X208034622Y-71391851D01*
X208039040Y-71386944D01*
X208134527Y-71221556D01*
X208193542Y-71039928D01*
X208213504Y-70850000D01*
X208209910Y-70815805D01*
X208194232Y-70666635D01*
X208194232Y-70666633D01*
X208193542Y-70660072D01*
X208134527Y-70478444D01*
X208039040Y-70313056D01*
X208024463Y-70296866D01*
X207915675Y-70176045D01*
X207915674Y-70176044D01*
X207911253Y-70171134D01*
X207810999Y-70098295D01*
X207762094Y-70062763D01*
X207762093Y-70062762D01*
X207756752Y-70058882D01*
X207750724Y-70056198D01*
X207750722Y-70056197D01*
X207588319Y-69983891D01*
X207588318Y-69983891D01*
X207582288Y-69981206D01*
X207456264Y-69954419D01*
X207393792Y-69920691D01*
X207359470Y-69858541D01*
X207364198Y-69787702D01*
X207406474Y-69730664D01*
X207453368Y-69708577D01*
X207560971Y-69683041D01*
X207574636Y-69678068D01*
X207714709Y-69607771D01*
X207726195Y-69600341D01*
X207797063Y-69542646D01*
X207800798Y-69539273D01*
X207808291Y-69525551D01*
X207808160Y-69523718D01*
X207803909Y-69517103D01*
X207027893Y-68741087D01*
X206993867Y-68678775D01*
X206995702Y-68653124D01*
X207662416Y-68653124D01*
X207662547Y-68654958D01*
X207666798Y-68661572D01*
X208159887Y-69154661D01*
X208173831Y-69162275D01*
X208175664Y-69162144D01*
X208182279Y-69157893D01*
X208184313Y-69155859D01*
X208188697Y-69150997D01*
X208227131Y-69103663D01*
X208285598Y-69063388D01*
X208356559Y-69061117D01*
X208417482Y-69097570D01*
X208422658Y-69103536D01*
X208461336Y-69151045D01*
X208464711Y-69154782D01*
X208478433Y-69162275D01*
X208480266Y-69162144D01*
X208486881Y-69157893D01*
X208979970Y-68664804D01*
X208987584Y-68650860D01*
X208987453Y-68649027D01*
X208983202Y-68642412D01*
X208507786Y-68166997D01*
X208493848Y-68159386D01*
X208492012Y-68159518D01*
X208485400Y-68163767D01*
X208465680Y-68183487D01*
X208461305Y-68188339D01*
X208422868Y-68235676D01*
X208364401Y-68275951D01*
X208293440Y-68278222D01*
X208232517Y-68241769D01*
X208227340Y-68235801D01*
X208188670Y-68188301D01*
X208184354Y-68183521D01*
X208167834Y-68167001D01*
X208153890Y-68159387D01*
X208152055Y-68159518D01*
X208145445Y-68163766D01*
X207670029Y-68639181D01*
X207662416Y-68653124D01*
X206995702Y-68653124D01*
X206998932Y-68607960D01*
X207027893Y-68562897D01*
X207298008Y-68292782D01*
X207782999Y-67807790D01*
X207790613Y-67793846D01*
X207790482Y-67792013D01*
X207786231Y-67785398D01*
X207766513Y-67765680D01*
X207761672Y-67761315D01*
X207689775Y-67702936D01*
X207678260Y-67695512D01*
X207538080Y-67625468D01*
X207524398Y-67620514D01*
X207413317Y-67594358D01*
X207351594Y-67559275D01*
X207318637Y-67496391D01*
X207317882Y-67468885D01*
X207316601Y-67468885D01*
X207316601Y-67459912D01*
X207317874Y-67451023D01*
X207314341Y-67426354D01*
X207298498Y-67315723D01*
X207298497Y-67315720D01*
X207297225Y-67306837D01*
X207276874Y-67262077D01*
X207240209Y-67181434D01*
X207240206Y-67181429D01*
X207236938Y-67174241D01*
X207234163Y-67170789D01*
X207215879Y-67103782D01*
X207237187Y-67036058D01*
X207291727Y-66990605D01*
X207315658Y-66982958D01*
X207375824Y-66970169D01*
X207375833Y-66970166D01*
X207382288Y-66968794D01*
X207397303Y-66962109D01*
X207550722Y-66893803D01*
X207550724Y-66893802D01*
X207556752Y-66891118D01*
X207711253Y-66778866D01*
X207752115Y-66733484D01*
X207834621Y-66641852D01*
X207834622Y-66641851D01*
X207839040Y-66636944D01*
X207929921Y-66479534D01*
X207931223Y-66477279D01*
X207931224Y-66477278D01*
X207934527Y-66471556D01*
X207993542Y-66289928D01*
X207996113Y-66265472D01*
X208012814Y-66106565D01*
X208013504Y-66100000D01*
X207993542Y-65910072D01*
X207934527Y-65728444D01*
X207839040Y-65563056D01*
X207830701Y-65553794D01*
X207715675Y-65426045D01*
X207715674Y-65426044D01*
X207711253Y-65421134D01*
X207556752Y-65308882D01*
X207550724Y-65306198D01*
X207550722Y-65306197D01*
X207388319Y-65233891D01*
X207388318Y-65233891D01*
X207382288Y-65231206D01*
X207288887Y-65211353D01*
X207201944Y-65192872D01*
X207201939Y-65192872D01*
X207195487Y-65191500D01*
X207004513Y-65191500D01*
X206998061Y-65192872D01*
X206998056Y-65192872D01*
X206911113Y-65211353D01*
X206817712Y-65231206D01*
X206811682Y-65233891D01*
X206811681Y-65233891D01*
X206649278Y-65306197D01*
X206649276Y-65306198D01*
X206643248Y-65308882D01*
X206637907Y-65312762D01*
X206637906Y-65312763D01*
X206538854Y-65384729D01*
X206488747Y-65421134D01*
X206484332Y-65426037D01*
X206479420Y-65430460D01*
X206477779Y-65428638D01*
X206426790Y-65460050D01*
X206393601Y-65464500D01*
X205879020Y-65464500D01*
X205867791Y-65463971D01*
X205860281Y-65462292D01*
X205852355Y-65462541D01*
X205852354Y-65462541D01*
X205792002Y-65464438D01*
X205788044Y-65464500D01*
X205760017Y-65464500D01*
X205755971Y-65465011D01*
X205744143Y-65465942D01*
X205699795Y-65467336D01*
X205692177Y-65469549D01*
X205692178Y-65469549D01*
X205680254Y-65473013D01*
X205660894Y-65477022D01*
X205648566Y-65478579D01*
X205648563Y-65478580D01*
X205640701Y-65479573D01*
X205638118Y-65480596D01*
X205569453Y-65478242D01*
X205519978Y-65447728D01*
X204824505Y-64752255D01*
X204807769Y-64738799D01*
X204781915Y-64718011D01*
X204781912Y-64718009D01*
X204775759Y-64713062D01*
X204643163Y-64652775D01*
X204634280Y-64651503D01*
X204634277Y-64651502D01*
X204537291Y-64637613D01*
X204472694Y-64608156D01*
X204466058Y-64601981D01*
X204367616Y-64503539D01*
X204334116Y-64443536D01*
X204329530Y-64424212D01*
X204327840Y-64417090D01*
X204324560Y-64410554D01*
X204324558Y-64410549D01*
X204289662Y-64341016D01*
X204276984Y-64271160D01*
X204304086Y-64205540D01*
X204362362Y-64164989D01*
X204402276Y-64158500D01*
X212248282Y-64158500D01*
X212316403Y-64178502D01*
X212362896Y-64232158D01*
X212373000Y-64302432D01*
X212360995Y-64340819D01*
X212325466Y-64411923D01*
X212320514Y-64425602D01*
X212294358Y-64536683D01*
X212259275Y-64598406D01*
X212196391Y-64631363D01*
X212168885Y-64632118D01*
X212168885Y-64633399D01*
X212159912Y-64633399D01*
X212151023Y-64632126D01*
X212142134Y-64633399D01*
X212015723Y-64651502D01*
X212015720Y-64651503D01*
X212006837Y-64652775D01*
X211874241Y-64713062D01*
X211868088Y-64718009D01*
X211868085Y-64718011D01*
X211842231Y-64738799D01*
X211825495Y-64752255D01*
X211499724Y-65078026D01*
X211437412Y-65112052D01*
X211410629Y-65114931D01*
X210806786Y-65114931D01*
X210738665Y-65094929D01*
X210721038Y-65079947D01*
X210720577Y-65080459D01*
X210715675Y-65076045D01*
X210711253Y-65071134D01*
X210556752Y-64958882D01*
X210550724Y-64956198D01*
X210550722Y-64956197D01*
X210388319Y-64883891D01*
X210388318Y-64883891D01*
X210382288Y-64881206D01*
X210288887Y-64861353D01*
X210201944Y-64842872D01*
X210201939Y-64842872D01*
X210195487Y-64841500D01*
X210004513Y-64841500D01*
X209998061Y-64842872D01*
X209998056Y-64842872D01*
X209911113Y-64861353D01*
X209817712Y-64881206D01*
X209811682Y-64883891D01*
X209811681Y-64883891D01*
X209649278Y-64956197D01*
X209649276Y-64956198D01*
X209643248Y-64958882D01*
X209488747Y-65071134D01*
X209360960Y-65213056D01*
X209265473Y-65378444D01*
X209206458Y-65560072D01*
X209205768Y-65566633D01*
X209205768Y-65566635D01*
X209192897Y-65689100D01*
X209186496Y-65750000D01*
X209187186Y-65756565D01*
X209200397Y-65882256D01*
X209206458Y-65939928D01*
X209265473Y-66121556D01*
X209268776Y-66127278D01*
X209268777Y-66127279D01*
X209283357Y-66152532D01*
X209360960Y-66286944D01*
X209365378Y-66291851D01*
X209365379Y-66291852D01*
X209446720Y-66382190D01*
X209488747Y-66428866D01*
X209532925Y-66460963D01*
X209611600Y-66518124D01*
X209643248Y-66541118D01*
X209649276Y-66543802D01*
X209649278Y-66543803D01*
X209747962Y-66587740D01*
X209802058Y-66633721D01*
X209822707Y-66701648D01*
X209803354Y-66769956D01*
X209785808Y-66791942D01*
X209452255Y-67125495D01*
X209450115Y-67128157D01*
X209418011Y-67168085D01*
X209418009Y-67168088D01*
X209413062Y-67174241D01*
X209352775Y-67306837D01*
X209351503Y-67315720D01*
X209351502Y-67315723D01*
X209335659Y-67426354D01*
X209332126Y-67451023D01*
X209333399Y-67459912D01*
X209333399Y-67468885D01*
X209330342Y-67468885D01*
X209322383Y-67524048D01*
X209275863Y-67577681D01*
X209236888Y-67594244D01*
X209124385Y-67620942D01*
X209110719Y-67625916D01*
X208970646Y-67696213D01*
X208959160Y-67703643D01*
X208888292Y-67761338D01*
X208883521Y-67765646D01*
X208867001Y-67782166D01*
X208859387Y-67796110D01*
X208859518Y-67797945D01*
X208863768Y-67804558D01*
X209622107Y-68562897D01*
X209656133Y-68625209D01*
X209651068Y-68696024D01*
X209622107Y-68741087D01*
X208849323Y-69513871D01*
X208841709Y-69527815D01*
X208841840Y-69529648D01*
X208846091Y-69536263D01*
X208848125Y-69538297D01*
X208852987Y-69542681D01*
X208924866Y-69601045D01*
X208936385Y-69608473D01*
X209076564Y-69678516D01*
X209090246Y-69683470D01*
X209242369Y-69719290D01*
X209264083Y-69721802D01*
X209263799Y-69724254D01*
X209320696Y-69740900D01*
X209367242Y-69794510D01*
X209376611Y-69837397D01*
X209377822Y-69837255D01*
X209378677Y-69844529D01*
X209378683Y-69851847D01*
X209418176Y-70018265D01*
X209421458Y-70024804D01*
X209421458Y-70024805D01*
X209491808Y-70164985D01*
X209491811Y-70164989D01*
X209494895Y-70171135D01*
X209499238Y-70176470D01*
X209499239Y-70176471D01*
X209540608Y-70227285D01*
X209559011Y-70249890D01*
X209946126Y-70637005D01*
X209948646Y-70639051D01*
X210020606Y-70697482D01*
X210025959Y-70701829D01*
X210178962Y-70778280D01*
X210243448Y-70793464D01*
X210338326Y-70815805D01*
X210338330Y-70815805D01*
X210345450Y-70817482D01*
X210352766Y-70817476D01*
X210352769Y-70817476D01*
X210444474Y-70817396D01*
X210487591Y-70817358D01*
X210555728Y-70837301D01*
X210602268Y-70890916D01*
X210613700Y-70943358D01*
X210613700Y-73471856D01*
X210613408Y-73480426D01*
X210612853Y-73488574D01*
X210609607Y-73536182D01*
X210610912Y-73543659D01*
X210610912Y-73543660D01*
X210620230Y-73597049D01*
X210621192Y-73603571D01*
X210628615Y-73664908D01*
X210631300Y-73672013D01*
X210632432Y-73676623D01*
X210635481Y-73687771D01*
X210636861Y-73692339D01*
X210638166Y-73699819D01*
X210663002Y-73756397D01*
X210665483Y-73762477D01*
X210687331Y-73820296D01*
X210687562Y-73820632D01*
X210700797Y-73887264D01*
X210674786Y-73953324D01*
X210617188Y-73994834D01*
X210575302Y-74002000D01*
X210522115Y-74002000D01*
X210506876Y-74006475D01*
X210505671Y-74007865D01*
X210504000Y-74015548D01*
X210504000Y-75008000D01*
X210483998Y-75076121D01*
X210430342Y-75122614D01*
X210378000Y-75134000D01*
X208560116Y-75134000D01*
X208544877Y-75138475D01*
X208543672Y-75139865D01*
X208542001Y-75147548D01*
X208542001Y-75294669D01*
X208542370Y-75301486D01*
X208544826Y-75324093D01*
X208532297Y-75393976D01*
X208483976Y-75445991D01*
X208419563Y-75463700D01*
X208180943Y-75463700D01*
X208112822Y-75443698D01*
X208066329Y-75390042D01*
X208055680Y-75324092D01*
X208058131Y-75301531D01*
X208058500Y-75298134D01*
X208058500Y-74607885D01*
X208542000Y-74607885D01*
X208546475Y-74623124D01*
X208547865Y-74624329D01*
X208555548Y-74626000D01*
X209977885Y-74626000D01*
X209993124Y-74621525D01*
X209994329Y-74620135D01*
X209996000Y-74612452D01*
X209996000Y-74020116D01*
X209991525Y-74004877D01*
X209990135Y-74003672D01*
X209982452Y-74002001D01*
X209005331Y-74002001D01*
X208998510Y-74002371D01*
X208947648Y-74007895D01*
X208932396Y-74011521D01*
X208811946Y-74056676D01*
X208796351Y-74065214D01*
X208694276Y-74141715D01*
X208681715Y-74154276D01*
X208605214Y-74256351D01*
X208596676Y-74271946D01*
X208551522Y-74392394D01*
X208547895Y-74407649D01*
X208542369Y-74458514D01*
X208542000Y-74465328D01*
X208542000Y-74607885D01*
X208058500Y-74607885D01*
X208058500Y-74461866D01*
X208051745Y-74399684D01*
X208000615Y-74263295D01*
X207913261Y-74146739D01*
X207796705Y-74059385D01*
X207660316Y-74008255D01*
X207598134Y-74001500D01*
X207241139Y-74001500D01*
X207173018Y-73981498D01*
X207126525Y-73927842D01*
X207116421Y-73857568D01*
X207132020Y-73812500D01*
X207181223Y-73727279D01*
X207181224Y-73727278D01*
X207184527Y-73721556D01*
X207243542Y-73539928D01*
X207248940Y-73488574D01*
X207262814Y-73356565D01*
X207263504Y-73350000D01*
X207254664Y-73265895D01*
X207244232Y-73166635D01*
X207244232Y-73166633D01*
X207243542Y-73160072D01*
X207184527Y-72978444D01*
X207089040Y-72813056D01*
X206961253Y-72671134D01*
X206806752Y-72558882D01*
X206800724Y-72556198D01*
X206800722Y-72556197D01*
X206638319Y-72483891D01*
X206638318Y-72483891D01*
X206632288Y-72481206D01*
X206538887Y-72461353D01*
X206451944Y-72442872D01*
X206451939Y-72442872D01*
X206445487Y-72441500D01*
X206254513Y-72441500D01*
X206248061Y-72442872D01*
X206248056Y-72442872D01*
X206161113Y-72461353D01*
X206067712Y-72481206D01*
X206061682Y-72483891D01*
X206061681Y-72483891D01*
X205899278Y-72556197D01*
X205899276Y-72556198D01*
X205893248Y-72558882D01*
X205738747Y-72671134D01*
X205610960Y-72813056D01*
X205515473Y-72978444D01*
X205456458Y-73160072D01*
X205455768Y-73166633D01*
X205455768Y-73166635D01*
X205445336Y-73265895D01*
X205436496Y-73350000D01*
X205437186Y-73356565D01*
X205451061Y-73488574D01*
X205456458Y-73539928D01*
X205515473Y-73721556D01*
X205518776Y-73727278D01*
X205518777Y-73727279D01*
X205567980Y-73812500D01*
X205584718Y-73881495D01*
X205561498Y-73948587D01*
X205505691Y-73992474D01*
X205458861Y-74001500D01*
X205101866Y-74001500D01*
X205039684Y-74008255D01*
X204903295Y-74059385D01*
X204786739Y-74146739D01*
X204699385Y-74263295D01*
X204648255Y-74399684D01*
X204641500Y-74461866D01*
X204641500Y-75298134D01*
X204641869Y-75301531D01*
X204644320Y-75324092D01*
X204631792Y-75393974D01*
X204583472Y-75445990D01*
X204519057Y-75463700D01*
X203528144Y-75463700D01*
X203519574Y-75463408D01*
X203471394Y-75460123D01*
X203471390Y-75460123D01*
X203463818Y-75459607D01*
X203456341Y-75460912D01*
X203456340Y-75460912D01*
X203440366Y-75463700D01*
X203402947Y-75470231D01*
X203396429Y-75471192D01*
X203335092Y-75478615D01*
X203327987Y-75481300D01*
X203323377Y-75482432D01*
X203312229Y-75485481D01*
X203307661Y-75486861D01*
X203300181Y-75488166D01*
X203243603Y-75513002D01*
X203237523Y-75515483D01*
X203186806Y-75534647D01*
X203186803Y-75534648D01*
X203179704Y-75537331D01*
X203173446Y-75541632D01*
X203169238Y-75543832D01*
X203159162Y-75549440D01*
X203155035Y-75551880D01*
X203148079Y-75554934D01*
X203142054Y-75559557D01*
X203142049Y-75559560D01*
X203099076Y-75592534D01*
X203093741Y-75596410D01*
X203049073Y-75627110D01*
X203049067Y-75627115D01*
X203042808Y-75631417D01*
X203002719Y-75676412D01*
X202997738Y-75681688D01*
X201102631Y-77576795D01*
X201040319Y-77610821D01*
X201013536Y-77613700D01*
X193386465Y-77613700D01*
X193318344Y-77593698D01*
X193297370Y-77576795D01*
X190152250Y-74431676D01*
X190118224Y-74369364D01*
X190115345Y-74342581D01*
X190115345Y-73653287D01*
X190135347Y-73585166D01*
X190152172Y-73564269D01*
X190228426Y-73487882D01*
X190233597Y-73482702D01*
X190323347Y-73337101D01*
X190377194Y-73174757D01*
X190387545Y-73073732D01*
X190387545Y-72476268D01*
X190376932Y-72373981D01*
X190322801Y-72211732D01*
X190232797Y-72066287D01*
X190190736Y-72024299D01*
X190156657Y-71962019D01*
X190161660Y-71891198D01*
X190204189Y-71834301D01*
X190285126Y-71773642D01*
X190292306Y-71768261D01*
X190379660Y-71651705D01*
X190430790Y-71515316D01*
X190437545Y-71453134D01*
X190437545Y-70296866D01*
X190430790Y-70234684D01*
X190379660Y-70098295D01*
X190292306Y-69981739D01*
X190175750Y-69894385D01*
X190167342Y-69891233D01*
X190159470Y-69886923D01*
X190160773Y-69884543D01*
X190115241Y-69850336D01*
X190090544Y-69783773D01*
X190105754Y-69714425D01*
X190156042Y-69664309D01*
X190163142Y-69661067D01*
X190167344Y-69658766D01*
X190175750Y-69655615D01*
X190292306Y-69568261D01*
X190379660Y-69451705D01*
X190430790Y-69315316D01*
X190437545Y-69253134D01*
X190437545Y-68096866D01*
X190430790Y-68034684D01*
X190379660Y-67898295D01*
X190315519Y-67812712D01*
X190290671Y-67746206D01*
X190290345Y-67737147D01*
X190290345Y-67426354D01*
X190309085Y-67360238D01*
X190319507Y-67343331D01*
X190319508Y-67343329D01*
X190323347Y-67337101D01*
X190377194Y-67174757D01*
X190387545Y-67073732D01*
X190387545Y-66476268D01*
X190385767Y-66459126D01*
X190382117Y-66423955D01*
X190376932Y-66373981D01*
X190349531Y-66291852D01*
X190325118Y-66218676D01*
X190325117Y-66218674D01*
X190322801Y-66211732D01*
X190286167Y-66152532D01*
X190241038Y-66079604D01*
X190222200Y-66011152D01*
X190239062Y-65950302D01*
X190284527Y-65871556D01*
X190343542Y-65689928D01*
X190347442Y-65652827D01*
X190362814Y-65506565D01*
X190363504Y-65500000D01*
X190361217Y-65478242D01*
X190344232Y-65316635D01*
X190344232Y-65316633D01*
X190343542Y-65310072D01*
X190284527Y-65128444D01*
X190189040Y-64963056D01*
X190183196Y-64956565D01*
X190065675Y-64826045D01*
X190065674Y-64826044D01*
X190061253Y-64821134D01*
X189919317Y-64718011D01*
X189912094Y-64712763D01*
X189912093Y-64712762D01*
X189906752Y-64708882D01*
X189900724Y-64706198D01*
X189900722Y-64706197D01*
X189738319Y-64633891D01*
X189738318Y-64633891D01*
X189732288Y-64631206D01*
X189623847Y-64608156D01*
X189551944Y-64592872D01*
X189551939Y-64592872D01*
X189545487Y-64591500D01*
X189354513Y-64591500D01*
X189348061Y-64592872D01*
X189348056Y-64592872D01*
X189276153Y-64608156D01*
X189167712Y-64631206D01*
X189161682Y-64633891D01*
X189161681Y-64633891D01*
X188999278Y-64706197D01*
X188999276Y-64706198D01*
X188993248Y-64708882D01*
X188987907Y-64712762D01*
X188987906Y-64712763D01*
X188980683Y-64718011D01*
X188838747Y-64821134D01*
X188834326Y-64826044D01*
X188834325Y-64826045D01*
X188716805Y-64956565D01*
X188710960Y-64963056D01*
X188615473Y-65128444D01*
X188556458Y-65310072D01*
X188555768Y-65316633D01*
X188555768Y-65316635D01*
X188538783Y-65478242D01*
X188536496Y-65500000D01*
X188537186Y-65506565D01*
X188552559Y-65652827D01*
X188556458Y-65689928D01*
X188558497Y-65696205D01*
X188559871Y-65702666D01*
X188557301Y-65703212D01*
X188559001Y-65762452D01*
X188522346Y-65823254D01*
X188458638Y-65854588D01*
X188397469Y-65850029D01*
X188260234Y-65804510D01*
X188246855Y-65801642D01*
X188155948Y-65792328D01*
X188150919Y-65792071D01*
X188135921Y-65796475D01*
X188134716Y-65797865D01*
X188133045Y-65805548D01*
X188133045Y-66903000D01*
X188113043Y-66971121D01*
X188059387Y-67017614D01*
X188007045Y-67029000D01*
X186939160Y-67029000D01*
X186923921Y-67033475D01*
X186922716Y-67034865D01*
X186921045Y-67042548D01*
X186921045Y-67070438D01*
X186921382Y-67076953D01*
X186930939Y-67169057D01*
X186933833Y-67182456D01*
X186983426Y-67331107D01*
X186989600Y-67344286D01*
X187071833Y-67477173D01*
X187080869Y-67488574D01*
X187117757Y-67525398D01*
X187151836Y-67587681D01*
X187146833Y-67658501D01*
X187104304Y-67715397D01*
X187015784Y-67781739D01*
X187010403Y-67788919D01*
X186961482Y-67854194D01*
X186904623Y-67896709D01*
X186833804Y-67901735D01*
X186786597Y-67880566D01*
X186756752Y-67858882D01*
X186750724Y-67856198D01*
X186750722Y-67856197D01*
X186588319Y-67783891D01*
X186588318Y-67783891D01*
X186582288Y-67781206D01*
X186488709Y-67761315D01*
X186401944Y-67742872D01*
X186401939Y-67742872D01*
X186395487Y-67741500D01*
X186204513Y-67741500D01*
X186198061Y-67742872D01*
X186198056Y-67742872D01*
X186111291Y-67761315D01*
X186017712Y-67781206D01*
X186011682Y-67783891D01*
X186011681Y-67783891D01*
X185849278Y-67856197D01*
X185849276Y-67856198D01*
X185843248Y-67858882D01*
X185837909Y-67862761D01*
X185837906Y-67862763D01*
X185791184Y-67896709D01*
X185688747Y-67971134D01*
X185684326Y-67976044D01*
X185684325Y-67976045D01*
X185575538Y-68096866D01*
X185560960Y-68113056D01*
X185531683Y-68163766D01*
X185470020Y-68270569D01*
X185465473Y-68278444D01*
X185406458Y-68460072D01*
X185405768Y-68466633D01*
X185405768Y-68466635D01*
X185389102Y-68625209D01*
X185386496Y-68650000D01*
X185387186Y-68656565D01*
X185396070Y-68741087D01*
X185406458Y-68839928D01*
X185465473Y-69021556D01*
X185560960Y-69186944D01*
X185565378Y-69191851D01*
X185565379Y-69191852D01*
X185684325Y-69323955D01*
X185688747Y-69328866D01*
X185731924Y-69360236D01*
X185834701Y-69434908D01*
X185843248Y-69441118D01*
X185849276Y-69443802D01*
X185849278Y-69443803D01*
X186008027Y-69514482D01*
X186017712Y-69518794D01*
X186099897Y-69536263D01*
X186198056Y-69557128D01*
X186198061Y-69557128D01*
X186204513Y-69558500D01*
X186395487Y-69558500D01*
X186401939Y-69557128D01*
X186401944Y-69557128D01*
X186500103Y-69536263D01*
X186582288Y-69518794D01*
X186591973Y-69514482D01*
X186750722Y-69443803D01*
X186750724Y-69443802D01*
X186756752Y-69441118D01*
X186762333Y-69437063D01*
X186762494Y-69437006D01*
X186767811Y-69433936D01*
X186768372Y-69434908D01*
X186829198Y-69413205D01*
X186898350Y-69429284D01*
X186937220Y-69463434D01*
X187010402Y-69561080D01*
X187015784Y-69568261D01*
X187132340Y-69655615D01*
X187140748Y-69658767D01*
X187148620Y-69663077D01*
X187147317Y-69665457D01*
X187192849Y-69699664D01*
X187217546Y-69766227D01*
X187202336Y-69835575D01*
X187152048Y-69885691D01*
X187144948Y-69888933D01*
X187140746Y-69891234D01*
X187132340Y-69894385D01*
X187015784Y-69981739D01*
X186928430Y-70098295D01*
X186877300Y-70234684D01*
X186870545Y-70296866D01*
X186870545Y-71453134D01*
X186877300Y-71515316D01*
X186928430Y-71651705D01*
X187015784Y-71768261D01*
X187022964Y-71773642D01*
X187104340Y-71834630D01*
X187146855Y-71891489D01*
X187151881Y-71962308D01*
X187117948Y-72024474D01*
X187080059Y-72062429D01*
X187071047Y-72073840D01*
X186989041Y-72206880D01*
X186982894Y-72220061D01*
X186933554Y-72368814D01*
X186930687Y-72382190D01*
X186921373Y-72473097D01*
X186921045Y-72479514D01*
X186921045Y-72502885D01*
X186925520Y-72518124D01*
X186926910Y-72519329D01*
X186934593Y-72521000D01*
X188007045Y-72521000D01*
X188075166Y-72541002D01*
X188121659Y-72594658D01*
X188133045Y-72647000D01*
X188133045Y-73739885D01*
X188137520Y-73755124D01*
X188138910Y-73756329D01*
X188146593Y-73758000D01*
X188149483Y-73758000D01*
X188155998Y-73757663D01*
X188248102Y-73748106D01*
X188261501Y-73745212D01*
X188410152Y-73695619D01*
X188423330Y-73689445D01*
X188550442Y-73610786D01*
X188618894Y-73591948D01*
X188686663Y-73613109D01*
X188732235Y-73667550D01*
X188742745Y-73717930D01*
X188742745Y-74650901D01*
X188742453Y-74659471D01*
X188738652Y-74715227D01*
X188739957Y-74722704D01*
X188739957Y-74722705D01*
X188749275Y-74776094D01*
X188750237Y-74782616D01*
X188757660Y-74843953D01*
X188760345Y-74851058D01*
X188761477Y-74855668D01*
X188764526Y-74866816D01*
X188765906Y-74871384D01*
X188767211Y-74878864D01*
X188792047Y-74935442D01*
X188794528Y-74941522D01*
X188816376Y-74999341D01*
X188820677Y-75005599D01*
X188822877Y-75009807D01*
X188828481Y-75019877D01*
X188830926Y-75024011D01*
X188833979Y-75030966D01*
X188838605Y-75036994D01*
X188838605Y-75036995D01*
X188871586Y-75079977D01*
X188875452Y-75085298D01*
X188910462Y-75136237D01*
X188916129Y-75141286D01*
X188916135Y-75141293D01*
X188955457Y-75176327D01*
X188960733Y-75181308D01*
X192205830Y-78426405D01*
X192239856Y-78488717D01*
X192234791Y-78559532D01*
X192192244Y-78616368D01*
X192125724Y-78641179D01*
X192116735Y-78641500D01*
X191503250Y-78641500D01*
X191482345Y-78639754D01*
X191467344Y-78637230D01*
X191467341Y-78637230D01*
X191462552Y-78636424D01*
X191456475Y-78636350D01*
X191454865Y-78636330D01*
X191454861Y-78636330D01*
X191450000Y-78636271D01*
X191445182Y-78636961D01*
X191445135Y-78636964D01*
X191437259Y-78637838D01*
X191213289Y-78655465D01*
X191208482Y-78656619D01*
X191208476Y-78656620D01*
X191079612Y-78687558D01*
X190982406Y-78710895D01*
X190977835Y-78712788D01*
X190977833Y-78712789D01*
X190769855Y-78798936D01*
X190699265Y-78806525D01*
X190640056Y-78778550D01*
X190629294Y-78769407D01*
X190623715Y-78764667D01*
X190514045Y-78708666D01*
X190472708Y-78687558D01*
X190472706Y-78687557D01*
X190466192Y-78684231D01*
X190459087Y-78682492D01*
X190459083Y-78682491D01*
X190353353Y-78656620D01*
X190294390Y-78642192D01*
X190288788Y-78641844D01*
X190288785Y-78641844D01*
X190285175Y-78641620D01*
X190285165Y-78641620D01*
X190283236Y-78641500D01*
X190155707Y-78641500D01*
X190085964Y-78649631D01*
X190031589Y-78655970D01*
X190031585Y-78655971D01*
X190024319Y-78656818D01*
X190017444Y-78659313D01*
X190017442Y-78659314D01*
X189864338Y-78714889D01*
X189793480Y-78719330D01*
X189764044Y-78708666D01*
X189722712Y-78687560D01*
X189722707Y-78687558D01*
X189716192Y-78684231D01*
X189544390Y-78642192D01*
X189538788Y-78641844D01*
X189538785Y-78641844D01*
X189535175Y-78641620D01*
X189535165Y-78641620D01*
X189533236Y-78641500D01*
X189405707Y-78641500D01*
X189335964Y-78649631D01*
X189281589Y-78655970D01*
X189281585Y-78655971D01*
X189274319Y-78656818D01*
X189267444Y-78659313D01*
X189267442Y-78659314D01*
X189114338Y-78714889D01*
X189043480Y-78719330D01*
X189014044Y-78708666D01*
X188972712Y-78687560D01*
X188972707Y-78687558D01*
X188966192Y-78684231D01*
X188794390Y-78642192D01*
X188788788Y-78641844D01*
X188788785Y-78641844D01*
X188785175Y-78641620D01*
X188785165Y-78641620D01*
X188783236Y-78641500D01*
X188655707Y-78641500D01*
X188585964Y-78649631D01*
X188531589Y-78655970D01*
X188531585Y-78655971D01*
X188524319Y-78656818D01*
X188517444Y-78659313D01*
X188517442Y-78659314D01*
X188370124Y-78712789D01*
X188358063Y-78717167D01*
X188351946Y-78721178D01*
X188351943Y-78721179D01*
X188249121Y-78788592D01*
X188181185Y-78809215D01*
X188131818Y-78799629D01*
X187922167Y-78712789D01*
X187922165Y-78712788D01*
X187917594Y-78710895D01*
X187820388Y-78687558D01*
X187691524Y-78656620D01*
X187691518Y-78656619D01*
X187686711Y-78655465D01*
X187483704Y-78639488D01*
X187472684Y-78638129D01*
X187467356Y-78637232D01*
X187467351Y-78637232D01*
X187462552Y-78636424D01*
X187456059Y-78636345D01*
X187454860Y-78636330D01*
X187454857Y-78636330D01*
X187450000Y-78636271D01*
X187425679Y-78639754D01*
X187422376Y-78640227D01*
X187404514Y-78641500D01*
X161483872Y-78641500D01*
X161415751Y-78621498D01*
X161369258Y-78567842D01*
X161359154Y-78497568D01*
X161388648Y-78432988D01*
X161407644Y-78415174D01*
X161482235Y-78358500D01*
X168468905Y-73050000D01*
X174800000Y-73050000D01*
X175550000Y-74550000D01*
X176550000Y-75550000D01*
X176553574Y-75552680D01*
X176553578Y-75552684D01*
X176953753Y-75852815D01*
X177550000Y-76300000D01*
X179050000Y-76800000D01*
X180800000Y-76800000D01*
X181800000Y-76550000D01*
X183300000Y-75800000D01*
X184300000Y-74800000D01*
X184350864Y-74715227D01*
X185045201Y-73557999D01*
X185045202Y-73557997D01*
X185050000Y-73550000D01*
X185169891Y-73070438D01*
X186921045Y-73070438D01*
X186921382Y-73076953D01*
X186930939Y-73169057D01*
X186933833Y-73182456D01*
X186983426Y-73331107D01*
X186989600Y-73344286D01*
X187071833Y-73477173D01*
X187080869Y-73488574D01*
X187191474Y-73598986D01*
X187202885Y-73607998D01*
X187335925Y-73690004D01*
X187349106Y-73696151D01*
X187497859Y-73745491D01*
X187511235Y-73748358D01*
X187602142Y-73757672D01*
X187607171Y-73757929D01*
X187622169Y-73753525D01*
X187623374Y-73752135D01*
X187625045Y-73744452D01*
X187625045Y-73047115D01*
X187620570Y-73031876D01*
X187619180Y-73030671D01*
X187611497Y-73029000D01*
X186939160Y-73029000D01*
X186923921Y-73033475D01*
X186922716Y-73034865D01*
X186921045Y-73042548D01*
X186921045Y-73070438D01*
X185169891Y-73070438D01*
X185300000Y-72550000D01*
X185300000Y-70550000D01*
X185173712Y-70171135D01*
X185051413Y-69804238D01*
X185051411Y-69804234D01*
X185050000Y-69800000D01*
X185043851Y-69787702D01*
X184552533Y-68805065D01*
X184552530Y-68805061D01*
X184550000Y-68800000D01*
X184094647Y-68192863D01*
X183802684Y-67803578D01*
X183802680Y-67803574D01*
X183800000Y-67800000D01*
X183300000Y-67300000D01*
X181705770Y-66502885D01*
X186921045Y-66502885D01*
X186925520Y-66518124D01*
X186926910Y-66519329D01*
X186934593Y-66521000D01*
X187606930Y-66521000D01*
X187622169Y-66516525D01*
X187623374Y-66515135D01*
X187625045Y-66507452D01*
X187625045Y-65810115D01*
X187620570Y-65794876D01*
X187619180Y-65793671D01*
X187611497Y-65792000D01*
X187608607Y-65792000D01*
X187602092Y-65792337D01*
X187509988Y-65801894D01*
X187496589Y-65804788D01*
X187347938Y-65854381D01*
X187334759Y-65860555D01*
X187201872Y-65942788D01*
X187190471Y-65951824D01*
X187080059Y-66062429D01*
X187071047Y-66073840D01*
X186989041Y-66206880D01*
X186982894Y-66220061D01*
X186933554Y-66368814D01*
X186930687Y-66382190D01*
X186921373Y-66473097D01*
X186921045Y-66479514D01*
X186921045Y-66502885D01*
X181705770Y-66502885D01*
X181300000Y-66300000D01*
X178800000Y-66300000D01*
X178790364Y-66303212D01*
X178054238Y-66548587D01*
X178054234Y-66548589D01*
X178050000Y-66550000D01*
X178046006Y-66551997D01*
X177055065Y-67047467D01*
X177055061Y-67047470D01*
X177050000Y-67050000D01*
X176050000Y-67800000D01*
X176044630Y-67807160D01*
X175309338Y-68787550D01*
X175300000Y-68800000D01*
X175117388Y-69256531D01*
X174826444Y-69983891D01*
X174800000Y-70050000D01*
X174800000Y-73050000D01*
X168468905Y-73050000D01*
X170499087Y-71507460D01*
X180137477Y-64184174D01*
X180203818Y-64158888D01*
X180213705Y-64158500D01*
X199627196Y-64158500D01*
X199695317Y-64178502D01*
G37*
%TD.AperFunction*%
%TD*%
M02*
