M48
; DRILL file {KiCad (6.0.5)} date Mon Jun 20 13:03:11 2022
; FORMAT={-:-/ absolute / inch / decimal}
; #@! TF.CreationDate,2022-06-20T13:03:11+02:00
; #@! TF.GenerationSoftware,Kicad,Pcbnew,(6.0.5)
; #@! TF.FileFunction,Plated,1,2,PTH
FMAT,2
INCH
; #@! TA.AperFunction,Plated,PTH,ViaDrill
T1C0.0157
; #@! TA.AperFunction,Plated,PTH,ComponentDrill
T2C0.0256
; #@! TA.AperFunction,Plated,PTH,ComponentDrill
T3C0.0394
%
G90
G05
T1
X7.3346Y-2.7028
X7.3425Y-4.0807
X7.4587Y-2.5787
X7.4665Y-3.9567
X7.6398Y-3.439
X7.8996Y-2.5374
X7.9075Y-3.9154
X8.0315Y-3.0492
X8.0394Y-4.4272
X8.124Y-2.8878
X8.1319Y-4.2657
X8.1535Y-2.6024
X8.1614Y-2.7894
X8.1614Y-3.9803
X8.1693Y-4.1673
X8.2717Y-2.5886
X8.2795Y-3.9665
X8.3681Y-3.0492
X8.376Y-4.4272
X8.3799Y-3.4409
X8.435Y-3.0748
X8.4429Y-4.4528
X8.5079Y-2.5571
X8.5157Y-3.935
X8.565Y-3.5669
T2
X8.186Y-3.6368
X8.186Y-3.6868
X8.186Y-3.7368
X8.236Y-3.6368
X8.236Y-3.6868
X8.236Y-3.7368
T3
X7.5335Y-3.2756
X7.6335Y-3.2756
X7.7335Y-3.2756
X7.8335Y-3.2756
X7.9335Y-3.2756
X8.0335Y-3.2756
X8.1335Y-3.2756
T0
M30
