M48
; DRILL file {KiCad (5.1.10)-1} date 12/20/21 17:30:06
; FORMAT={-:-/ absolute / inch / decimal}
; #@! TF.CreationDate,2021-12-20T17:30:06+01:00
; #@! TF.GenerationSoftware,Kicad,Pcbnew,(5.1.10)-1
; #@! TF.FileFunction,Plated,1,2,PTH
FMAT,2
INCH
T1C0.0157
T2C0.0394
%
G90
G05
T1
X4.4882Y-3.0217
X4.5472Y-2.7657
X5.1476Y-3.0315
X5.2067Y-2.7756
X5.4473Y-3.6275
X5.5118Y-3.7598
X5.7382Y-3.1299
X5.7776Y-3.0217
X5.8366Y-2.7657
X6.2697Y-3.7402
X6.2795Y-3.9469
X6.3287Y-4.0748
X6.3484Y-3.8484
X6.3484Y-3.9567
X6.3681Y-3.1299
X6.4075Y-3.0315
X6.4665Y-2.7756
X6.5256Y-3.8878
X6.998Y-3.1299
X7.0374Y-3.0118
X7.0965Y-2.7559
X7.1752Y-3.2087
X7.313Y-3.0709
X7.3175Y-3.795
X7.3346Y-3.2717
X7.3825Y-3.1625
X7.6378Y-3.0217
X7.6969Y-2.7657
X7.8325Y-2.81
X7.99Y-3.825
X8.01Y-3.2225
T2
X5.7087Y-2.3622
X5.8087Y-2.3622
X5.9087Y-2.3622
X6.0087Y-2.3622
X6.1087Y-2.3622
X6.2087Y-2.3622
X6.3087Y-2.3622
X6.4087Y-2.3622
X7.955Y-2.54
X7.955Y-2.64
X7.955Y-2.74
T0
M30
