%TF.GenerationSoftware,KiCad,Pcbnew,(5.1.10)-1*%
%TF.CreationDate,2021-12-20T17:30:05+01:00*%
%TF.ProjectId,Touchpad,546f7563-6870-4616-942e-6b696361645f,rev?*%
%TF.SameCoordinates,Original*%
%TF.FileFunction,Legend,Bot*%
%TF.FilePolarity,Positive*%
%FSLAX46Y46*%
G04 Gerber Fmt 4.6, Leading zero omitted, Abs format (unit mm)*
G04 Created by KiCad (PCBNEW (5.1.10)-1) date 2021-12-20 17:30:05*
%MOMM*%
%LPD*%
G01*
G04 APERTURE LIST*
%ADD10C,0.120000*%
%ADD11C,0.150000*%
G04 APERTURE END LIST*
D10*
%TO.C,C13*%
X187508281Y-81264470D02*
X187309470Y-81463281D01*
X188229530Y-81985719D02*
X188030719Y-82184530D01*
%TO.C,C14*%
X187118970Y-96082719D02*
X187317781Y-96281530D01*
X187840219Y-95361470D02*
X188039030Y-95560281D01*
%TO.C,C15*%
X202041470Y-95433281D02*
X202240281Y-95234470D01*
X202762719Y-96154530D02*
X202961530Y-95955719D01*
%TO.C,C16*%
X201668781Y-82692530D02*
X201469970Y-82493719D01*
X202390030Y-81971281D02*
X202191219Y-81772470D01*
%TO.C,C17*%
X139121383Y-93623254D02*
X139261963Y-93866746D01*
X138238037Y-94133254D02*
X138378617Y-94376746D01*
%TO.C,C18*%
X157121383Y-94626746D02*
X157261963Y-94383254D01*
X156238037Y-94116746D02*
X156378617Y-93873254D01*
%TO.C,C19*%
X147890580Y-80010000D02*
X147609420Y-80010000D01*
X147890580Y-78990000D02*
X147609420Y-78990000D01*
%TO.C,C20*%
X163609420Y-98240000D02*
X163890580Y-98240000D01*
X163609420Y-99260000D02*
X163890580Y-99260000D01*
%TO.C,C21*%
X163890580Y-78990000D02*
X163609420Y-78990000D01*
X163890580Y-80010000D02*
X163609420Y-80010000D01*
%TO.C,C22*%
X179890580Y-78990000D02*
X179609420Y-78990000D01*
X179890580Y-80010000D02*
X179609420Y-80010000D01*
%TO.C,C13*%
D11*
X187465443Y-80511306D02*
X187532787Y-80511306D01*
X187667474Y-80443962D01*
X187734817Y-80376619D01*
X187802161Y-80241932D01*
X187802161Y-80107245D01*
X187768489Y-80006230D01*
X187667474Y-79837871D01*
X187566459Y-79736856D01*
X187398100Y-79635840D01*
X187297085Y-79602169D01*
X187162398Y-79602169D01*
X187027711Y-79669512D01*
X186960367Y-79736856D01*
X186893024Y-79871543D01*
X186893024Y-79938886D01*
X186859352Y-81252085D02*
X187263413Y-80848024D01*
X187061382Y-81050054D02*
X186354275Y-80342947D01*
X186522634Y-80376619D01*
X186657321Y-80376619D01*
X186758337Y-80342947D01*
X185916543Y-80780680D02*
X185478810Y-81218413D01*
X185983886Y-81252085D01*
X185882871Y-81353100D01*
X185849199Y-81454115D01*
X185849199Y-81521459D01*
X185882871Y-81622474D01*
X186051230Y-81790833D01*
X186152245Y-81824504D01*
X186219588Y-81824504D01*
X186320604Y-81790833D01*
X186522634Y-81588802D01*
X186556306Y-81487787D01*
X186556306Y-81420443D01*
%TO.C,C14*%
X186769867Y-97539769D02*
X186769867Y-97607113D01*
X186837211Y-97741800D01*
X186904554Y-97809143D01*
X187039241Y-97876487D01*
X187173928Y-97876487D01*
X187274943Y-97842815D01*
X187443302Y-97741800D01*
X187544317Y-97640785D01*
X187645333Y-97472426D01*
X187679004Y-97371411D01*
X187679004Y-97236724D01*
X187611661Y-97102037D01*
X187544317Y-97034693D01*
X187409630Y-96967350D01*
X187342287Y-96967350D01*
X186029088Y-96933678D02*
X186433149Y-97337739D01*
X186231119Y-97135708D02*
X186938226Y-96428601D01*
X186904554Y-96596960D01*
X186904554Y-96731647D01*
X186938226Y-96832662D01*
X185894401Y-95856182D02*
X185422997Y-96327586D01*
X186332134Y-95755166D02*
X185995417Y-96428601D01*
X185557684Y-95990869D01*
%TO.C,C15*%
X204219769Y-96503632D02*
X204287113Y-96503632D01*
X204421800Y-96436288D01*
X204489143Y-96368945D01*
X204556487Y-96234258D01*
X204556487Y-96099571D01*
X204522815Y-95998556D01*
X204421800Y-95830197D01*
X204320785Y-95729182D01*
X204152426Y-95628166D01*
X204051411Y-95594495D01*
X203916724Y-95594495D01*
X203782037Y-95661838D01*
X203714693Y-95729182D01*
X203647350Y-95863869D01*
X203647350Y-95931212D01*
X203613678Y-97244411D02*
X204017739Y-96840350D01*
X203815708Y-97042380D02*
X203108601Y-96335273D01*
X203276960Y-96368945D01*
X203411647Y-96368945D01*
X203512663Y-96335273D01*
X202266808Y-97177067D02*
X202603525Y-96840350D01*
X202973914Y-97143395D01*
X202906571Y-97143395D01*
X202805556Y-97177067D01*
X202637197Y-97345426D01*
X202603525Y-97446441D01*
X202603525Y-97513785D01*
X202637197Y-97614800D01*
X202805556Y-97783159D01*
X202906571Y-97816830D01*
X202973914Y-97816830D01*
X203074930Y-97783159D01*
X203243288Y-97614800D01*
X203276960Y-97513785D01*
X203276960Y-97446441D01*
%TO.C,C16*%
X203143193Y-81928443D02*
X203143193Y-81995787D01*
X203210537Y-82130474D01*
X203277880Y-82197817D01*
X203412567Y-82265161D01*
X203547254Y-82265161D01*
X203648269Y-82231489D01*
X203816628Y-82130474D01*
X203917643Y-82029459D01*
X204018659Y-81861100D01*
X204052330Y-81760085D01*
X204052330Y-81625398D01*
X203984987Y-81490711D01*
X203917643Y-81423367D01*
X203782956Y-81356024D01*
X203715613Y-81356024D01*
X202402414Y-81322352D02*
X202806475Y-81726413D01*
X202604445Y-81524382D02*
X203311552Y-80817275D01*
X203277880Y-80985634D01*
X203277880Y-81120321D01*
X203311552Y-81221336D01*
X202503430Y-80009153D02*
X202638117Y-80143840D01*
X202671788Y-80244856D01*
X202671788Y-80312199D01*
X202638117Y-80480558D01*
X202537101Y-80648917D01*
X202267727Y-80918291D01*
X202166712Y-80951962D01*
X202099369Y-80951962D01*
X201998353Y-80918291D01*
X201863666Y-80783604D01*
X201829995Y-80682588D01*
X201829995Y-80615245D01*
X201863666Y-80514230D01*
X202032025Y-80345871D01*
X202133040Y-80312199D01*
X202200384Y-80312199D01*
X202301399Y-80345871D01*
X202436086Y-80480558D01*
X202469758Y-80581573D01*
X202469758Y-80648917D01*
X202436086Y-80749932D01*
%TO.C,C17*%
X137523717Y-95450302D02*
X137506288Y-95515350D01*
X137536477Y-95662878D01*
X137584096Y-95745356D01*
X137696764Y-95845265D01*
X137826861Y-95880124D01*
X137933149Y-95873745D01*
X138121916Y-95819746D01*
X138245634Y-95748317D01*
X138386782Y-95611840D01*
X138445451Y-95522982D01*
X138480310Y-95392884D01*
X138450121Y-95245356D01*
X138402502Y-95162878D01*
X138289834Y-95062969D01*
X138224785Y-95045540D01*
X136965048Y-94673134D02*
X137250762Y-95168006D01*
X137107905Y-94920570D02*
X137973931Y-94420570D01*
X137897832Y-94574478D01*
X137862972Y-94704575D01*
X137869352Y-94810863D01*
X137664407Y-93884459D02*
X137331074Y-93307109D01*
X136679334Y-94178263D01*
%TO.C,C18*%
X158619139Y-94586840D02*
X158684188Y-94569411D01*
X158796856Y-94469502D01*
X158844475Y-94387024D01*
X158874664Y-94239496D01*
X158839804Y-94109398D01*
X158781135Y-94020540D01*
X158639988Y-93884063D01*
X158516270Y-93812634D01*
X158327503Y-93758635D01*
X158221215Y-93752256D01*
X158091117Y-93787115D01*
X157978449Y-93887024D01*
X157930830Y-93969502D01*
X157900641Y-94117030D01*
X157918071Y-94182078D01*
X158225427Y-95459245D02*
X158511141Y-94964374D01*
X158368284Y-95211810D02*
X157502259Y-94711810D01*
X157673596Y-94700760D01*
X157803693Y-94665900D01*
X157892552Y-94607231D01*
X157444841Y-95668403D02*
X157451221Y-95562115D01*
X157433791Y-95497066D01*
X157375122Y-95408208D01*
X157333883Y-95384398D01*
X157227594Y-95378018D01*
X157162546Y-95395448D01*
X157073687Y-95454117D01*
X156978449Y-95619074D01*
X156972069Y-95725362D01*
X156989499Y-95790411D01*
X157048168Y-95879270D01*
X157089408Y-95903079D01*
X157195696Y-95909459D01*
X157260745Y-95892029D01*
X157349603Y-95833360D01*
X157444841Y-95668403D01*
X157533699Y-95609734D01*
X157598748Y-95592304D01*
X157705036Y-95598684D01*
X157869994Y-95693922D01*
X157928663Y-95782780D01*
X157946092Y-95847829D01*
X157939713Y-95954117D01*
X157844475Y-96119074D01*
X157755616Y-96177743D01*
X157690567Y-96195173D01*
X157584279Y-96188793D01*
X157419322Y-96093555D01*
X157360653Y-96004697D01*
X157343223Y-95939648D01*
X157349603Y-95833360D01*
%TO.C,C19*%
X148392857Y-78427142D02*
X148440476Y-78474761D01*
X148583333Y-78522380D01*
X148678571Y-78522380D01*
X148821428Y-78474761D01*
X148916666Y-78379523D01*
X148964285Y-78284285D01*
X149011904Y-78093809D01*
X149011904Y-77950952D01*
X148964285Y-77760476D01*
X148916666Y-77665238D01*
X148821428Y-77570000D01*
X148678571Y-77522380D01*
X148583333Y-77522380D01*
X148440476Y-77570000D01*
X148392857Y-77617619D01*
X147440476Y-78522380D02*
X148011904Y-78522380D01*
X147726190Y-78522380D02*
X147726190Y-77522380D01*
X147821428Y-77665238D01*
X147916666Y-77760476D01*
X148011904Y-77808095D01*
X146964285Y-78522380D02*
X146773809Y-78522380D01*
X146678571Y-78474761D01*
X146630952Y-78427142D01*
X146535714Y-78284285D01*
X146488095Y-78093809D01*
X146488095Y-77712857D01*
X146535714Y-77617619D01*
X146583333Y-77570000D01*
X146678571Y-77522380D01*
X146869047Y-77522380D01*
X146964285Y-77570000D01*
X147011904Y-77617619D01*
X147059523Y-77712857D01*
X147059523Y-77950952D01*
X147011904Y-78046190D01*
X146964285Y-78093809D01*
X146869047Y-78141428D01*
X146678571Y-78141428D01*
X146583333Y-78093809D01*
X146535714Y-78046190D01*
X146488095Y-77950952D01*
%TO.C,C20*%
X164392857Y-100537142D02*
X164440476Y-100584761D01*
X164583333Y-100632380D01*
X164678571Y-100632380D01*
X164821428Y-100584761D01*
X164916666Y-100489523D01*
X164964285Y-100394285D01*
X165011904Y-100203809D01*
X165011904Y-100060952D01*
X164964285Y-99870476D01*
X164916666Y-99775238D01*
X164821428Y-99680000D01*
X164678571Y-99632380D01*
X164583333Y-99632380D01*
X164440476Y-99680000D01*
X164392857Y-99727619D01*
X164011904Y-99727619D02*
X163964285Y-99680000D01*
X163869047Y-99632380D01*
X163630952Y-99632380D01*
X163535714Y-99680000D01*
X163488095Y-99727619D01*
X163440476Y-99822857D01*
X163440476Y-99918095D01*
X163488095Y-100060952D01*
X164059523Y-100632380D01*
X163440476Y-100632380D01*
X162821428Y-99632380D02*
X162726190Y-99632380D01*
X162630952Y-99680000D01*
X162583333Y-99727619D01*
X162535714Y-99822857D01*
X162488095Y-100013333D01*
X162488095Y-100251428D01*
X162535714Y-100441904D01*
X162583333Y-100537142D01*
X162630952Y-100584761D01*
X162726190Y-100632380D01*
X162821428Y-100632380D01*
X162916666Y-100584761D01*
X162964285Y-100537142D01*
X163011904Y-100441904D01*
X163059523Y-100251428D01*
X163059523Y-100013333D01*
X163011904Y-99822857D01*
X162964285Y-99727619D01*
X162916666Y-99680000D01*
X162821428Y-99632380D01*
%TO.C,C21*%
X164392857Y-78427142D02*
X164440476Y-78474761D01*
X164583333Y-78522380D01*
X164678571Y-78522380D01*
X164821428Y-78474761D01*
X164916666Y-78379523D01*
X164964285Y-78284285D01*
X165011904Y-78093809D01*
X165011904Y-77950952D01*
X164964285Y-77760476D01*
X164916666Y-77665238D01*
X164821428Y-77570000D01*
X164678571Y-77522380D01*
X164583333Y-77522380D01*
X164440476Y-77570000D01*
X164392857Y-77617619D01*
X164011904Y-77617619D02*
X163964285Y-77570000D01*
X163869047Y-77522380D01*
X163630952Y-77522380D01*
X163535714Y-77570000D01*
X163488095Y-77617619D01*
X163440476Y-77712857D01*
X163440476Y-77808095D01*
X163488095Y-77950952D01*
X164059523Y-78522380D01*
X163440476Y-78522380D01*
X162488095Y-78522380D02*
X163059523Y-78522380D01*
X162773809Y-78522380D02*
X162773809Y-77522380D01*
X162869047Y-77665238D01*
X162964285Y-77760476D01*
X163059523Y-77808095D01*
%TO.C,C22*%
X180392857Y-78427142D02*
X180440476Y-78474761D01*
X180583333Y-78522380D01*
X180678571Y-78522380D01*
X180821428Y-78474761D01*
X180916666Y-78379523D01*
X180964285Y-78284285D01*
X181011904Y-78093809D01*
X181011904Y-77950952D01*
X180964285Y-77760476D01*
X180916666Y-77665238D01*
X180821428Y-77570000D01*
X180678571Y-77522380D01*
X180583333Y-77522380D01*
X180440476Y-77570000D01*
X180392857Y-77617619D01*
X180011904Y-77617619D02*
X179964285Y-77570000D01*
X179869047Y-77522380D01*
X179630952Y-77522380D01*
X179535714Y-77570000D01*
X179488095Y-77617619D01*
X179440476Y-77712857D01*
X179440476Y-77808095D01*
X179488095Y-77950952D01*
X180059523Y-78522380D01*
X179440476Y-78522380D01*
X179059523Y-77617619D02*
X179011904Y-77570000D01*
X178916666Y-77522380D01*
X178678571Y-77522380D01*
X178583333Y-77570000D01*
X178535714Y-77617619D01*
X178488095Y-77712857D01*
X178488095Y-77808095D01*
X178535714Y-77950952D01*
X179107142Y-78522380D01*
X178488095Y-78522380D01*
%TD*%
M02*
