%TF.GenerationSoftware,KiCad,Pcbnew,(5.1.10)-1*%
%TF.CreationDate,2021-12-20T17:30:05+01:00*%
%TF.ProjectId,Touchpad,546f7563-6870-4616-942e-6b696361645f,rev?*%
%TF.SameCoordinates,Original*%
%TF.FileFunction,Legend,Top*%
%TF.FilePolarity,Positive*%
%FSLAX46Y46*%
G04 Gerber Fmt 4.6, Leading zero omitted, Abs format (unit mm)*
G04 Created by KiCad (PCBNEW (5.1.10)-1) date 2021-12-20 17:30:05*
%MOMM*%
%LPD*%
G01*
G04 APERTURE LIST*
%ADD10C,0.150000*%
%ADD11C,0.120000*%
G04 APERTURE END LIST*
D10*
X163377476Y-57681785D02*
X163377476Y-56872261D01*
X163425095Y-56777023D01*
X163472714Y-56729404D01*
X163567952Y-56681785D01*
X163710809Y-56681785D01*
X163806047Y-56729404D01*
X163377476Y-57062738D02*
X163472714Y-57015119D01*
X163663190Y-57015119D01*
X163758428Y-57062738D01*
X163806047Y-57110357D01*
X163853666Y-57205595D01*
X163853666Y-57491309D01*
X163806047Y-57586547D01*
X163758428Y-57634166D01*
X163663190Y-57681785D01*
X163472714Y-57681785D01*
X163377476Y-57634166D01*
X162901285Y-57681785D02*
X162901285Y-57015119D01*
X162901285Y-57586547D02*
X162853666Y-57634166D01*
X162758428Y-57681785D01*
X162615571Y-57681785D01*
X162520333Y-57634166D01*
X162472714Y-57538928D01*
X162472714Y-57015119D01*
X161567952Y-57015119D02*
X161567952Y-58015119D01*
X161567952Y-57062738D02*
X161663190Y-57015119D01*
X161853666Y-57015119D01*
X161948904Y-57062738D01*
X161996523Y-57110357D01*
X162044142Y-57205595D01*
X162044142Y-57491309D01*
X161996523Y-57586547D01*
X161948904Y-57634166D01*
X161853666Y-57681785D01*
X161663190Y-57681785D01*
X161567952Y-57634166D01*
X146176857Y-57554785D02*
X145938761Y-56888119D01*
X145700666Y-57554785D01*
X144891142Y-56888119D02*
X144891142Y-57888119D01*
X144891142Y-56935738D02*
X144986380Y-56888119D01*
X145176857Y-56888119D01*
X145272095Y-56935738D01*
X145319714Y-56983357D01*
X145367333Y-57078595D01*
X145367333Y-57364309D01*
X145319714Y-57459547D01*
X145272095Y-57507166D01*
X145176857Y-57554785D01*
X144986380Y-57554785D01*
X144891142Y-57507166D01*
X143986380Y-56888119D02*
X143986380Y-57888119D01*
X143986380Y-56935738D02*
X144081619Y-56888119D01*
X144272095Y-56888119D01*
X144367333Y-56935738D01*
X144414952Y-56983357D01*
X144462571Y-57078595D01*
X144462571Y-57364309D01*
X144414952Y-57459547D01*
X144367333Y-57507166D01*
X144272095Y-57554785D01*
X144081619Y-57554785D01*
X143986380Y-57507166D01*
X203684214Y-70754738D02*
X204350880Y-70516642D01*
X203684214Y-70278547D01*
X204303261Y-69469023D02*
X204350880Y-69564261D01*
X204350880Y-69754738D01*
X204303261Y-69849976D01*
X204255642Y-69897595D01*
X204160404Y-69945214D01*
X203874690Y-69945214D01*
X203779452Y-69897595D01*
X203731833Y-69849976D01*
X203684214Y-69754738D01*
X203684214Y-69564261D01*
X203731833Y-69469023D01*
X204303261Y-68611880D02*
X204350880Y-68707119D01*
X204350880Y-68897595D01*
X204303261Y-68992833D01*
X204255642Y-69040452D01*
X204160404Y-69088071D01*
X203874690Y-69088071D01*
X203779452Y-69040452D01*
X203731833Y-68992833D01*
X203684214Y-68897595D01*
X203684214Y-68707119D01*
X203731833Y-68611880D01*
X204350880Y-67571880D02*
X203684214Y-67571880D01*
X203350880Y-67571880D02*
X203398500Y-67619500D01*
X203446119Y-67571880D01*
X203398500Y-67524261D01*
X203350880Y-67571880D01*
X203446119Y-67571880D01*
X203684214Y-67095690D02*
X204350880Y-67095690D01*
X203779452Y-67095690D02*
X203731833Y-67048071D01*
X203684214Y-66952833D01*
X203684214Y-66809976D01*
X203731833Y-66714738D01*
X203827071Y-66667119D01*
X204350880Y-66667119D01*
X203620714Y-65269976D02*
X204430238Y-65269976D01*
X204525476Y-65317595D01*
X204573095Y-65365214D01*
X204620714Y-65460452D01*
X204620714Y-65603309D01*
X204573095Y-65698547D01*
X204239761Y-65269976D02*
X204287380Y-65365214D01*
X204287380Y-65555690D01*
X204239761Y-65650928D01*
X204192142Y-65698547D01*
X204096904Y-65746166D01*
X203811190Y-65746166D01*
X203715952Y-65698547D01*
X203668333Y-65650928D01*
X203620714Y-65555690D01*
X203620714Y-65365214D01*
X203668333Y-65269976D01*
X203620714Y-64793785D02*
X204287380Y-64793785D01*
X203715952Y-64793785D02*
X203668333Y-64746166D01*
X203620714Y-64650928D01*
X203620714Y-64508071D01*
X203668333Y-64412833D01*
X203763571Y-64365214D01*
X204287380Y-64365214D01*
X204287380Y-63460452D02*
X203287380Y-63460452D01*
X204239761Y-63460452D02*
X204287380Y-63555690D01*
X204287380Y-63746166D01*
X204239761Y-63841404D01*
X204192142Y-63889023D01*
X204096904Y-63936642D01*
X203811190Y-63936642D01*
X203715952Y-63889023D01*
X203668333Y-63841404D01*
X203620714Y-63746166D01*
X203620714Y-63555690D01*
X203668333Y-63460452D01*
D11*
%TO.C,C1*%
X116990000Y-74390580D02*
X116990000Y-74109420D01*
X118010000Y-74390580D02*
X118010000Y-74109420D01*
%TO.C,C2*%
X134760000Y-74640580D02*
X134760000Y-74359420D01*
X133740000Y-74640580D02*
X133740000Y-74359420D01*
%TO.C,C3*%
X114510000Y-69640580D02*
X114510000Y-69359420D01*
X113490000Y-69640580D02*
X113490000Y-69359420D01*
%TO.C,C4*%
X130290000Y-69890580D02*
X130290000Y-69609420D01*
X131310000Y-69890580D02*
X131310000Y-69609420D01*
%TO.C,C5*%
X150760000Y-74390580D02*
X150760000Y-74109420D01*
X149740000Y-74390580D02*
X149740000Y-74109420D01*
%TO.C,C6*%
X166760000Y-74640580D02*
X166760000Y-74359420D01*
X165740000Y-74640580D02*
X165740000Y-74359420D01*
%TO.C,C7*%
X147310000Y-69640580D02*
X147310000Y-69359420D01*
X146290000Y-69640580D02*
X146290000Y-69359420D01*
%TO.C,C8*%
X162290000Y-69890580D02*
X162290000Y-69609420D01*
X163310000Y-69890580D02*
X163310000Y-69609420D01*
%TO.C,C9*%
X181740000Y-74140580D02*
X181740000Y-73859420D01*
X182760000Y-74140580D02*
X182760000Y-73859420D01*
%TO.C,C10*%
X198010000Y-74390580D02*
X198010000Y-74109420D01*
X196990000Y-74390580D02*
X196990000Y-74109420D01*
%TO.C,C11*%
X179310000Y-69390580D02*
X179310000Y-69109420D01*
X178290000Y-69390580D02*
X178290000Y-69109420D01*
%TO.C,C12*%
X193540000Y-69640580D02*
X193540000Y-69359420D01*
X194560000Y-69640580D02*
X194560000Y-69359420D01*
%TO.C,D1*%
X109765000Y-68015000D02*
X109765000Y-70300000D01*
X111235000Y-68015000D02*
X109765000Y-68015000D01*
X111235000Y-70300000D02*
X111235000Y-68015000D01*
%TO.C,D2*%
X126515000Y-68265000D02*
X126515000Y-70550000D01*
X127985000Y-68265000D02*
X126515000Y-68265000D01*
X127985000Y-70550000D02*
X127985000Y-68265000D01*
%TO.C,D3*%
X142515000Y-68015000D02*
X142515000Y-70300000D01*
X143985000Y-68015000D02*
X142515000Y-68015000D01*
X143985000Y-70300000D02*
X143985000Y-68015000D01*
%TO.C,D4*%
X160235000Y-70550000D02*
X160235000Y-68265000D01*
X160235000Y-68265000D02*
X158765000Y-68265000D01*
X158765000Y-68265000D02*
X158765000Y-70550000D01*
%TO.C,D5*%
X175985000Y-70050000D02*
X175985000Y-67765000D01*
X175985000Y-67765000D02*
X174515000Y-67765000D01*
X174515000Y-67765000D02*
X174515000Y-70050000D01*
%TO.C,D6*%
X191235000Y-70300000D02*
X191235000Y-68015000D01*
X191235000Y-68015000D02*
X189765000Y-68015000D01*
X189765000Y-68015000D02*
X189765000Y-70300000D01*
%TO.C,R1*%
X109977500Y-74487258D02*
X109977500Y-74012742D01*
X111022500Y-74487258D02*
X111022500Y-74012742D01*
%TO.C,R2*%
X127772500Y-74812258D02*
X127772500Y-74337742D01*
X126727500Y-74812258D02*
X126727500Y-74337742D01*
%TO.C,R3*%
X143772500Y-74487258D02*
X143772500Y-74012742D01*
X142727500Y-74487258D02*
X142727500Y-74012742D01*
%TO.C,R4*%
X160022500Y-74737258D02*
X160022500Y-74262742D01*
X158977500Y-74737258D02*
X158977500Y-74262742D01*
%TO.C,R5*%
X174727500Y-74237258D02*
X174727500Y-73762742D01*
X175772500Y-74237258D02*
X175772500Y-73762742D01*
%TO.C,R6*%
X189977500Y-74487258D02*
X189977500Y-74012742D01*
X191022500Y-74487258D02*
X191022500Y-74012742D01*
%TO.C,U1*%
X112390000Y-73350000D02*
X112390000Y-75800000D01*
X115610000Y-75150000D02*
X115610000Y-73350000D01*
%TO.C,U2*%
X132410000Y-75400000D02*
X132410000Y-73600000D01*
X129190000Y-73600000D02*
X129190000Y-76050000D01*
%TO.C,U3*%
X148410000Y-75150000D02*
X148410000Y-73350000D01*
X145190000Y-73350000D02*
X145190000Y-75800000D01*
%TO.C,U4*%
X161190000Y-73600000D02*
X161190000Y-76050000D01*
X164410000Y-75400000D02*
X164410000Y-73600000D01*
%TO.C,U5*%
X180410000Y-74900000D02*
X180410000Y-73100000D01*
X177190000Y-73100000D02*
X177190000Y-75550000D01*
%TO.C,U6*%
X192440000Y-73350000D02*
X192440000Y-75800000D01*
X195660000Y-75150000D02*
X195660000Y-73350000D01*
%TO.C,J1*%
X143670000Y-61330000D02*
X143670000Y-60000000D01*
X145000000Y-61330000D02*
X143670000Y-61330000D01*
X146270000Y-61330000D02*
X146270000Y-58670000D01*
X146270000Y-58670000D02*
X164110000Y-58670000D01*
X146270000Y-61330000D02*
X164110000Y-61330000D01*
X164110000Y-61330000D02*
X164110000Y-58670000D01*
%TO.C,J2*%
X203387000Y-70926000D02*
X202057000Y-70926000D01*
X203387000Y-69596000D02*
X203387000Y-70926000D01*
X203387000Y-68326000D02*
X200727000Y-68326000D01*
X200727000Y-68326000D02*
X200727000Y-63186000D01*
X203387000Y-68326000D02*
X203387000Y-63186000D01*
X203387000Y-63186000D02*
X200727000Y-63186000D01*
%TO.C,R7*%
X199468000Y-69833258D02*
X199468000Y-69358742D01*
X198423000Y-69833258D02*
X198423000Y-69358742D01*
%TO.C,C1*%
D10*
X119357142Y-74416666D02*
X119404761Y-74464285D01*
X119452380Y-74607142D01*
X119452380Y-74702380D01*
X119404761Y-74845238D01*
X119309523Y-74940476D01*
X119214285Y-74988095D01*
X119023809Y-75035714D01*
X118880952Y-75035714D01*
X118690476Y-74988095D01*
X118595238Y-74940476D01*
X118500000Y-74845238D01*
X118452380Y-74702380D01*
X118452380Y-74607142D01*
X118500000Y-74464285D01*
X118547619Y-74416666D01*
X119452380Y-73464285D02*
X119452380Y-74035714D01*
X119452380Y-73750000D02*
X118452380Y-73750000D01*
X118595238Y-73845238D01*
X118690476Y-73940476D01*
X118738095Y-74035714D01*
%TO.C,C2*%
X136107142Y-74666666D02*
X136154761Y-74714285D01*
X136202380Y-74857142D01*
X136202380Y-74952380D01*
X136154761Y-75095238D01*
X136059523Y-75190476D01*
X135964285Y-75238095D01*
X135773809Y-75285714D01*
X135630952Y-75285714D01*
X135440476Y-75238095D01*
X135345238Y-75190476D01*
X135250000Y-75095238D01*
X135202380Y-74952380D01*
X135202380Y-74857142D01*
X135250000Y-74714285D01*
X135297619Y-74666666D01*
X135297619Y-74285714D02*
X135250000Y-74238095D01*
X135202380Y-74142857D01*
X135202380Y-73904761D01*
X135250000Y-73809523D01*
X135297619Y-73761904D01*
X135392857Y-73714285D01*
X135488095Y-73714285D01*
X135630952Y-73761904D01*
X136202380Y-74333333D01*
X136202380Y-73714285D01*
%TO.C,C3*%
X112927142Y-69666666D02*
X112974761Y-69714285D01*
X113022380Y-69857142D01*
X113022380Y-69952380D01*
X112974761Y-70095238D01*
X112879523Y-70190476D01*
X112784285Y-70238095D01*
X112593809Y-70285714D01*
X112450952Y-70285714D01*
X112260476Y-70238095D01*
X112165238Y-70190476D01*
X112070000Y-70095238D01*
X112022380Y-69952380D01*
X112022380Y-69857142D01*
X112070000Y-69714285D01*
X112117619Y-69666666D01*
X112022380Y-69333333D02*
X112022380Y-68714285D01*
X112403333Y-69047619D01*
X112403333Y-68904761D01*
X112450952Y-68809523D01*
X112498571Y-68761904D01*
X112593809Y-68714285D01*
X112831904Y-68714285D01*
X112927142Y-68761904D01*
X112974761Y-68809523D01*
X113022380Y-68904761D01*
X113022380Y-69190476D01*
X112974761Y-69285714D01*
X112927142Y-69333333D01*
%TO.C,C4*%
X129727142Y-69916666D02*
X129774761Y-69964285D01*
X129822380Y-70107142D01*
X129822380Y-70202380D01*
X129774761Y-70345238D01*
X129679523Y-70440476D01*
X129584285Y-70488095D01*
X129393809Y-70535714D01*
X129250952Y-70535714D01*
X129060476Y-70488095D01*
X128965238Y-70440476D01*
X128870000Y-70345238D01*
X128822380Y-70202380D01*
X128822380Y-70107142D01*
X128870000Y-69964285D01*
X128917619Y-69916666D01*
X129155714Y-69059523D02*
X129822380Y-69059523D01*
X128774761Y-69297619D02*
X129489047Y-69535714D01*
X129489047Y-68916666D01*
%TO.C,C5*%
X152107142Y-74416666D02*
X152154761Y-74464285D01*
X152202380Y-74607142D01*
X152202380Y-74702380D01*
X152154761Y-74845238D01*
X152059523Y-74940476D01*
X151964285Y-74988095D01*
X151773809Y-75035714D01*
X151630952Y-75035714D01*
X151440476Y-74988095D01*
X151345238Y-74940476D01*
X151250000Y-74845238D01*
X151202380Y-74702380D01*
X151202380Y-74607142D01*
X151250000Y-74464285D01*
X151297619Y-74416666D01*
X151202380Y-73511904D02*
X151202380Y-73988095D01*
X151678571Y-74035714D01*
X151630952Y-73988095D01*
X151583333Y-73892857D01*
X151583333Y-73654761D01*
X151630952Y-73559523D01*
X151678571Y-73511904D01*
X151773809Y-73464285D01*
X152011904Y-73464285D01*
X152107142Y-73511904D01*
X152154761Y-73559523D01*
X152202380Y-73654761D01*
X152202380Y-73892857D01*
X152154761Y-73988095D01*
X152107142Y-74035714D01*
%TO.C,C6*%
X168107142Y-74666666D02*
X168154761Y-74714285D01*
X168202380Y-74857142D01*
X168202380Y-74952380D01*
X168154761Y-75095238D01*
X168059523Y-75190476D01*
X167964285Y-75238095D01*
X167773809Y-75285714D01*
X167630952Y-75285714D01*
X167440476Y-75238095D01*
X167345238Y-75190476D01*
X167250000Y-75095238D01*
X167202380Y-74952380D01*
X167202380Y-74857142D01*
X167250000Y-74714285D01*
X167297619Y-74666666D01*
X167202380Y-73809523D02*
X167202380Y-74000000D01*
X167250000Y-74095238D01*
X167297619Y-74142857D01*
X167440476Y-74238095D01*
X167630952Y-74285714D01*
X168011904Y-74285714D01*
X168107142Y-74238095D01*
X168154761Y-74190476D01*
X168202380Y-74095238D01*
X168202380Y-73904761D01*
X168154761Y-73809523D01*
X168107142Y-73761904D01*
X168011904Y-73714285D01*
X167773809Y-73714285D01*
X167678571Y-73761904D01*
X167630952Y-73809523D01*
X167583333Y-73904761D01*
X167583333Y-74095238D01*
X167630952Y-74190476D01*
X167678571Y-74238095D01*
X167773809Y-74285714D01*
%TO.C,C7*%
X145727142Y-69666666D02*
X145774761Y-69714285D01*
X145822380Y-69857142D01*
X145822380Y-69952380D01*
X145774761Y-70095238D01*
X145679523Y-70190476D01*
X145584285Y-70238095D01*
X145393809Y-70285714D01*
X145250952Y-70285714D01*
X145060476Y-70238095D01*
X144965238Y-70190476D01*
X144870000Y-70095238D01*
X144822380Y-69952380D01*
X144822380Y-69857142D01*
X144870000Y-69714285D01*
X144917619Y-69666666D01*
X144822380Y-69333333D02*
X144822380Y-68666666D01*
X145822380Y-69095238D01*
%TO.C,C8*%
X161657142Y-69916666D02*
X161704761Y-69964285D01*
X161752380Y-70107142D01*
X161752380Y-70202380D01*
X161704761Y-70345238D01*
X161609523Y-70440476D01*
X161514285Y-70488095D01*
X161323809Y-70535714D01*
X161180952Y-70535714D01*
X160990476Y-70488095D01*
X160895238Y-70440476D01*
X160800000Y-70345238D01*
X160752380Y-70202380D01*
X160752380Y-70107142D01*
X160800000Y-69964285D01*
X160847619Y-69916666D01*
X161180952Y-69345238D02*
X161133333Y-69440476D01*
X161085714Y-69488095D01*
X160990476Y-69535714D01*
X160942857Y-69535714D01*
X160847619Y-69488095D01*
X160800000Y-69440476D01*
X160752380Y-69345238D01*
X160752380Y-69154761D01*
X160800000Y-69059523D01*
X160847619Y-69011904D01*
X160942857Y-68964285D01*
X160990476Y-68964285D01*
X161085714Y-69011904D01*
X161133333Y-69059523D01*
X161180952Y-69154761D01*
X161180952Y-69345238D01*
X161228571Y-69440476D01*
X161276190Y-69488095D01*
X161371428Y-69535714D01*
X161561904Y-69535714D01*
X161657142Y-69488095D01*
X161704761Y-69440476D01*
X161752380Y-69345238D01*
X161752380Y-69154761D01*
X161704761Y-69059523D01*
X161657142Y-69011904D01*
X161561904Y-68964285D01*
X161371428Y-68964285D01*
X161276190Y-69011904D01*
X161228571Y-69059523D01*
X161180952Y-69154761D01*
%TO.C,C9*%
X184107142Y-74166666D02*
X184154761Y-74214285D01*
X184202380Y-74357142D01*
X184202380Y-74452380D01*
X184154761Y-74595238D01*
X184059523Y-74690476D01*
X183964285Y-74738095D01*
X183773809Y-74785714D01*
X183630952Y-74785714D01*
X183440476Y-74738095D01*
X183345238Y-74690476D01*
X183250000Y-74595238D01*
X183202380Y-74452380D01*
X183202380Y-74357142D01*
X183250000Y-74214285D01*
X183297619Y-74166666D01*
X184202380Y-73690476D02*
X184202380Y-73500000D01*
X184154761Y-73404761D01*
X184107142Y-73357142D01*
X183964285Y-73261904D01*
X183773809Y-73214285D01*
X183392857Y-73214285D01*
X183297619Y-73261904D01*
X183250000Y-73309523D01*
X183202380Y-73404761D01*
X183202380Y-73595238D01*
X183250000Y-73690476D01*
X183297619Y-73738095D01*
X183392857Y-73785714D01*
X183630952Y-73785714D01*
X183726190Y-73738095D01*
X183773809Y-73690476D01*
X183821428Y-73595238D01*
X183821428Y-73404761D01*
X183773809Y-73309523D01*
X183726190Y-73261904D01*
X183630952Y-73214285D01*
%TO.C,C10*%
X199357142Y-74892857D02*
X199404761Y-74940476D01*
X199452380Y-75083333D01*
X199452380Y-75178571D01*
X199404761Y-75321428D01*
X199309523Y-75416666D01*
X199214285Y-75464285D01*
X199023809Y-75511904D01*
X198880952Y-75511904D01*
X198690476Y-75464285D01*
X198595238Y-75416666D01*
X198500000Y-75321428D01*
X198452380Y-75178571D01*
X198452380Y-75083333D01*
X198500000Y-74940476D01*
X198547619Y-74892857D01*
X199452380Y-73940476D02*
X199452380Y-74511904D01*
X199452380Y-74226190D02*
X198452380Y-74226190D01*
X198595238Y-74321428D01*
X198690476Y-74416666D01*
X198738095Y-74511904D01*
X198452380Y-73321428D02*
X198452380Y-73226190D01*
X198500000Y-73130952D01*
X198547619Y-73083333D01*
X198642857Y-73035714D01*
X198833333Y-72988095D01*
X199071428Y-72988095D01*
X199261904Y-73035714D01*
X199357142Y-73083333D01*
X199404761Y-73130952D01*
X199452380Y-73226190D01*
X199452380Y-73321428D01*
X199404761Y-73416666D01*
X199357142Y-73464285D01*
X199261904Y-73511904D01*
X199071428Y-73559523D01*
X198833333Y-73559523D01*
X198642857Y-73511904D01*
X198547619Y-73464285D01*
X198500000Y-73416666D01*
X198452380Y-73321428D01*
%TO.C,C11*%
X177727142Y-69892857D02*
X177774761Y-69940476D01*
X177822380Y-70083333D01*
X177822380Y-70178571D01*
X177774761Y-70321428D01*
X177679523Y-70416666D01*
X177584285Y-70464285D01*
X177393809Y-70511904D01*
X177250952Y-70511904D01*
X177060476Y-70464285D01*
X176965238Y-70416666D01*
X176870000Y-70321428D01*
X176822380Y-70178571D01*
X176822380Y-70083333D01*
X176870000Y-69940476D01*
X176917619Y-69892857D01*
X177822380Y-68940476D02*
X177822380Y-69511904D01*
X177822380Y-69226190D02*
X176822380Y-69226190D01*
X176965238Y-69321428D01*
X177060476Y-69416666D01*
X177108095Y-69511904D01*
X177822380Y-67988095D02*
X177822380Y-68559523D01*
X177822380Y-68273809D02*
X176822380Y-68273809D01*
X176965238Y-68369047D01*
X177060476Y-68464285D01*
X177108095Y-68559523D01*
%TO.C,C12*%
X192977142Y-70142857D02*
X193024761Y-70190476D01*
X193072380Y-70333333D01*
X193072380Y-70428571D01*
X193024761Y-70571428D01*
X192929523Y-70666666D01*
X192834285Y-70714285D01*
X192643809Y-70761904D01*
X192500952Y-70761904D01*
X192310476Y-70714285D01*
X192215238Y-70666666D01*
X192120000Y-70571428D01*
X192072380Y-70428571D01*
X192072380Y-70333333D01*
X192120000Y-70190476D01*
X192167619Y-70142857D01*
X193072380Y-69190476D02*
X193072380Y-69761904D01*
X193072380Y-69476190D02*
X192072380Y-69476190D01*
X192215238Y-69571428D01*
X192310476Y-69666666D01*
X192358095Y-69761904D01*
X192167619Y-68809523D02*
X192120000Y-68761904D01*
X192072380Y-68666666D01*
X192072380Y-68428571D01*
X192120000Y-68333333D01*
X192167619Y-68285714D01*
X192262857Y-68238095D01*
X192358095Y-68238095D01*
X192500952Y-68285714D01*
X193072380Y-68857142D01*
X193072380Y-68238095D01*
%TO.C,D1*%
X109452380Y-70238095D02*
X108452380Y-70238095D01*
X108452380Y-70000000D01*
X108500000Y-69857142D01*
X108595238Y-69761904D01*
X108690476Y-69714285D01*
X108880952Y-69666666D01*
X109023809Y-69666666D01*
X109214285Y-69714285D01*
X109309523Y-69761904D01*
X109404761Y-69857142D01*
X109452380Y-70000000D01*
X109452380Y-70238095D01*
X109452380Y-68714285D02*
X109452380Y-69285714D01*
X109452380Y-69000000D02*
X108452380Y-69000000D01*
X108595238Y-69095238D01*
X108690476Y-69190476D01*
X108738095Y-69285714D01*
%TO.C,D2*%
X126202380Y-70488095D02*
X125202380Y-70488095D01*
X125202380Y-70250000D01*
X125250000Y-70107142D01*
X125345238Y-70011904D01*
X125440476Y-69964285D01*
X125630952Y-69916666D01*
X125773809Y-69916666D01*
X125964285Y-69964285D01*
X126059523Y-70011904D01*
X126154761Y-70107142D01*
X126202380Y-70250000D01*
X126202380Y-70488095D01*
X125297619Y-69535714D02*
X125250000Y-69488095D01*
X125202380Y-69392857D01*
X125202380Y-69154761D01*
X125250000Y-69059523D01*
X125297619Y-69011904D01*
X125392857Y-68964285D01*
X125488095Y-68964285D01*
X125630952Y-69011904D01*
X126202380Y-69583333D01*
X126202380Y-68964285D01*
%TO.C,D3*%
X142202380Y-70238095D02*
X141202380Y-70238095D01*
X141202380Y-70000000D01*
X141250000Y-69857142D01*
X141345238Y-69761904D01*
X141440476Y-69714285D01*
X141630952Y-69666666D01*
X141773809Y-69666666D01*
X141964285Y-69714285D01*
X142059523Y-69761904D01*
X142154761Y-69857142D01*
X142202380Y-70000000D01*
X142202380Y-70238095D01*
X141202380Y-69333333D02*
X141202380Y-68714285D01*
X141583333Y-69047619D01*
X141583333Y-68904761D01*
X141630952Y-68809523D01*
X141678571Y-68761904D01*
X141773809Y-68714285D01*
X142011904Y-68714285D01*
X142107142Y-68761904D01*
X142154761Y-68809523D01*
X142202380Y-68904761D01*
X142202380Y-69190476D01*
X142154761Y-69285714D01*
X142107142Y-69333333D01*
%TO.C,D4*%
X158452380Y-70488095D02*
X157452380Y-70488095D01*
X157452380Y-70250000D01*
X157500000Y-70107142D01*
X157595238Y-70011904D01*
X157690476Y-69964285D01*
X157880952Y-69916666D01*
X158023809Y-69916666D01*
X158214285Y-69964285D01*
X158309523Y-70011904D01*
X158404761Y-70107142D01*
X158452380Y-70250000D01*
X158452380Y-70488095D01*
X157785714Y-69059523D02*
X158452380Y-69059523D01*
X157404761Y-69297619D02*
X158119047Y-69535714D01*
X158119047Y-68916666D01*
%TO.C,D5*%
X174202380Y-69988095D02*
X173202380Y-69988095D01*
X173202380Y-69750000D01*
X173250000Y-69607142D01*
X173345238Y-69511904D01*
X173440476Y-69464285D01*
X173630952Y-69416666D01*
X173773809Y-69416666D01*
X173964285Y-69464285D01*
X174059523Y-69511904D01*
X174154761Y-69607142D01*
X174202380Y-69750000D01*
X174202380Y-69988095D01*
X173202380Y-68511904D02*
X173202380Y-68988095D01*
X173678571Y-69035714D01*
X173630952Y-68988095D01*
X173583333Y-68892857D01*
X173583333Y-68654761D01*
X173630952Y-68559523D01*
X173678571Y-68511904D01*
X173773809Y-68464285D01*
X174011904Y-68464285D01*
X174107142Y-68511904D01*
X174154761Y-68559523D01*
X174202380Y-68654761D01*
X174202380Y-68892857D01*
X174154761Y-68988095D01*
X174107142Y-69035714D01*
%TO.C,D6*%
X189452380Y-70238095D02*
X188452380Y-70238095D01*
X188452380Y-70000000D01*
X188500000Y-69857142D01*
X188595238Y-69761904D01*
X188690476Y-69714285D01*
X188880952Y-69666666D01*
X189023809Y-69666666D01*
X189214285Y-69714285D01*
X189309523Y-69761904D01*
X189404761Y-69857142D01*
X189452380Y-70000000D01*
X189452380Y-70238095D01*
X188452380Y-68809523D02*
X188452380Y-69000000D01*
X188500000Y-69095238D01*
X188547619Y-69142857D01*
X188690476Y-69238095D01*
X188880952Y-69285714D01*
X189261904Y-69285714D01*
X189357142Y-69238095D01*
X189404761Y-69190476D01*
X189452380Y-69095238D01*
X189452380Y-68904761D01*
X189404761Y-68809523D01*
X189357142Y-68761904D01*
X189261904Y-68714285D01*
X189023809Y-68714285D01*
X188928571Y-68761904D01*
X188880952Y-68809523D01*
X188833333Y-68904761D01*
X188833333Y-69095238D01*
X188880952Y-69190476D01*
X188928571Y-69238095D01*
X189023809Y-69285714D01*
%TO.C,R1*%
X109522380Y-74416666D02*
X109046190Y-74750000D01*
X109522380Y-74988095D02*
X108522380Y-74988095D01*
X108522380Y-74607142D01*
X108570000Y-74511904D01*
X108617619Y-74464285D01*
X108712857Y-74416666D01*
X108855714Y-74416666D01*
X108950952Y-74464285D01*
X108998571Y-74511904D01*
X109046190Y-74607142D01*
X109046190Y-74988095D01*
X109522380Y-73464285D02*
X109522380Y-74035714D01*
X109522380Y-73750000D02*
X108522380Y-73750000D01*
X108665238Y-73845238D01*
X108760476Y-73940476D01*
X108808095Y-74035714D01*
%TO.C,R2*%
X126272380Y-74741666D02*
X125796190Y-75075000D01*
X126272380Y-75313095D02*
X125272380Y-75313095D01*
X125272380Y-74932142D01*
X125320000Y-74836904D01*
X125367619Y-74789285D01*
X125462857Y-74741666D01*
X125605714Y-74741666D01*
X125700952Y-74789285D01*
X125748571Y-74836904D01*
X125796190Y-74932142D01*
X125796190Y-75313095D01*
X125367619Y-74360714D02*
X125320000Y-74313095D01*
X125272380Y-74217857D01*
X125272380Y-73979761D01*
X125320000Y-73884523D01*
X125367619Y-73836904D01*
X125462857Y-73789285D01*
X125558095Y-73789285D01*
X125700952Y-73836904D01*
X126272380Y-74408333D01*
X126272380Y-73789285D01*
%TO.C,R3*%
X142272380Y-74416666D02*
X141796190Y-74750000D01*
X142272380Y-74988095D02*
X141272380Y-74988095D01*
X141272380Y-74607142D01*
X141320000Y-74511904D01*
X141367619Y-74464285D01*
X141462857Y-74416666D01*
X141605714Y-74416666D01*
X141700952Y-74464285D01*
X141748571Y-74511904D01*
X141796190Y-74607142D01*
X141796190Y-74988095D01*
X141272380Y-74083333D02*
X141272380Y-73464285D01*
X141653333Y-73797619D01*
X141653333Y-73654761D01*
X141700952Y-73559523D01*
X141748571Y-73511904D01*
X141843809Y-73464285D01*
X142081904Y-73464285D01*
X142177142Y-73511904D01*
X142224761Y-73559523D01*
X142272380Y-73654761D01*
X142272380Y-73940476D01*
X142224761Y-74035714D01*
X142177142Y-74083333D01*
%TO.C,R4*%
X158522380Y-74666666D02*
X158046190Y-75000000D01*
X158522380Y-75238095D02*
X157522380Y-75238095D01*
X157522380Y-74857142D01*
X157570000Y-74761904D01*
X157617619Y-74714285D01*
X157712857Y-74666666D01*
X157855714Y-74666666D01*
X157950952Y-74714285D01*
X157998571Y-74761904D01*
X158046190Y-74857142D01*
X158046190Y-75238095D01*
X157855714Y-73809523D02*
X158522380Y-73809523D01*
X157474761Y-74047619D02*
X158189047Y-74285714D01*
X158189047Y-73666666D01*
%TO.C,R5*%
X174272380Y-74166666D02*
X173796190Y-74500000D01*
X174272380Y-74738095D02*
X173272380Y-74738095D01*
X173272380Y-74357142D01*
X173320000Y-74261904D01*
X173367619Y-74214285D01*
X173462857Y-74166666D01*
X173605714Y-74166666D01*
X173700952Y-74214285D01*
X173748571Y-74261904D01*
X173796190Y-74357142D01*
X173796190Y-74738095D01*
X173272380Y-73261904D02*
X173272380Y-73738095D01*
X173748571Y-73785714D01*
X173700952Y-73738095D01*
X173653333Y-73642857D01*
X173653333Y-73404761D01*
X173700952Y-73309523D01*
X173748571Y-73261904D01*
X173843809Y-73214285D01*
X174081904Y-73214285D01*
X174177142Y-73261904D01*
X174224761Y-73309523D01*
X174272380Y-73404761D01*
X174272380Y-73642857D01*
X174224761Y-73738095D01*
X174177142Y-73785714D01*
%TO.C,R6*%
X189522380Y-74416666D02*
X189046190Y-74750000D01*
X189522380Y-74988095D02*
X188522380Y-74988095D01*
X188522380Y-74607142D01*
X188570000Y-74511904D01*
X188617619Y-74464285D01*
X188712857Y-74416666D01*
X188855714Y-74416666D01*
X188950952Y-74464285D01*
X188998571Y-74511904D01*
X189046190Y-74607142D01*
X189046190Y-74988095D01*
X188522380Y-73559523D02*
X188522380Y-73750000D01*
X188570000Y-73845238D01*
X188617619Y-73892857D01*
X188760476Y-73988095D01*
X188950952Y-74035714D01*
X189331904Y-74035714D01*
X189427142Y-73988095D01*
X189474761Y-73940476D01*
X189522380Y-73845238D01*
X189522380Y-73654761D01*
X189474761Y-73559523D01*
X189427142Y-73511904D01*
X189331904Y-73464285D01*
X189093809Y-73464285D01*
X188998571Y-73511904D01*
X188950952Y-73559523D01*
X188903333Y-73654761D01*
X188903333Y-73845238D01*
X188950952Y-73940476D01*
X188998571Y-73988095D01*
X189093809Y-74035714D01*
%TO.C,R7*%
X197967880Y-69762666D02*
X197491690Y-70096000D01*
X197967880Y-70334095D02*
X196967880Y-70334095D01*
X196967880Y-69953142D01*
X197015500Y-69857904D01*
X197063119Y-69810285D01*
X197158357Y-69762666D01*
X197301214Y-69762666D01*
X197396452Y-69810285D01*
X197444071Y-69857904D01*
X197491690Y-69953142D01*
X197491690Y-70334095D01*
X196967880Y-69429333D02*
X196967880Y-68762666D01*
X197967880Y-69191238D01*
%TD*%
M02*
