%TF.GenerationSoftware,KiCad,Pcbnew,(5.1.10)-1*%
%TF.CreationDate,2021-12-20T17:30:05+01:00*%
%TF.ProjectId,Touchpad,546f7563-6870-4616-942e-6b696361645f,rev?*%
%TF.SameCoordinates,Original*%
%TF.FileFunction,Soldermask,Top*%
%TF.FilePolarity,Negative*%
%FSLAX46Y46*%
G04 Gerber Fmt 4.6, Leading zero omitted, Abs format (unit mm)*
G04 Created by KiCad (PCBNEW (5.1.10)-1) date 2021-12-20 17:30:05*
%MOMM*%
%LPD*%
G01*
G04 APERTURE LIST*
%ADD10C,0.100000*%
%ADD11R,0.650000X1.060000*%
%ADD12C,3.200000*%
%ADD13R,1.700000X1.700000*%
%ADD14O,1.700000X1.700000*%
G04 APERTURE END LIST*
D10*
G36*
X151200000Y-87000000D02*
G01*
X146000000Y-92200000D01*
X143800000Y-90000000D01*
X144400000Y-89400000D01*
X146000000Y-90800000D01*
X150500000Y-86300000D01*
X151200000Y-87000000D01*
G37*
X151200000Y-87000000D02*
X146000000Y-92200000D01*
X143800000Y-90000000D01*
X144400000Y-89400000D01*
X146000000Y-90800000D01*
X150500000Y-86300000D01*
X151200000Y-87000000D01*
G36*
X179500000Y-87800000D02*
G01*
X183600000Y-87800000D01*
X183600000Y-90200000D01*
X179500000Y-90200000D01*
X179500000Y-92800000D01*
X175800000Y-89000000D01*
X179500000Y-85200000D01*
X179500000Y-87800000D01*
G37*
X179500000Y-87800000D02*
X183600000Y-87800000D01*
X183600000Y-90200000D01*
X179500000Y-90200000D01*
X179500000Y-92800000D01*
X175800000Y-89000000D01*
X179500000Y-85200000D01*
X179500000Y-87800000D01*
G36*
X196200000Y-89300000D02*
G01*
X198800000Y-89300000D01*
X195000000Y-93000000D01*
X191200000Y-89300000D01*
X193800000Y-89300000D01*
X193800000Y-85200000D01*
X196200000Y-85200000D01*
X196200000Y-89300000D01*
G37*
X196200000Y-89300000D02*
X198800000Y-89300000D01*
X195000000Y-93000000D01*
X191200000Y-89300000D01*
X193800000Y-89300000D01*
X193800000Y-85200000D01*
X196200000Y-85200000D01*
X196200000Y-89300000D01*
%TO.C,C1*%
G36*
G01*
X117750000Y-73925000D02*
X117250000Y-73925000D01*
G75*
G02*
X117025000Y-73700000I0J225000D01*
G01*
X117025000Y-73250000D01*
G75*
G02*
X117250000Y-73025000I225000J0D01*
G01*
X117750000Y-73025000D01*
G75*
G02*
X117975000Y-73250000I0J-225000D01*
G01*
X117975000Y-73700000D01*
G75*
G02*
X117750000Y-73925000I-225000J0D01*
G01*
G37*
G36*
G01*
X117750000Y-75475000D02*
X117250000Y-75475000D01*
G75*
G02*
X117025000Y-75250000I0J225000D01*
G01*
X117025000Y-74800000D01*
G75*
G02*
X117250000Y-74575000I225000J0D01*
G01*
X117750000Y-74575000D01*
G75*
G02*
X117975000Y-74800000I0J-225000D01*
G01*
X117975000Y-75250000D01*
G75*
G02*
X117750000Y-75475000I-225000J0D01*
G01*
G37*
%TD*%
%TO.C,C2*%
G36*
G01*
X134500000Y-75725000D02*
X134000000Y-75725000D01*
G75*
G02*
X133775000Y-75500000I0J225000D01*
G01*
X133775000Y-75050000D01*
G75*
G02*
X134000000Y-74825000I225000J0D01*
G01*
X134500000Y-74825000D01*
G75*
G02*
X134725000Y-75050000I0J-225000D01*
G01*
X134725000Y-75500000D01*
G75*
G02*
X134500000Y-75725000I-225000J0D01*
G01*
G37*
G36*
G01*
X134500000Y-74175000D02*
X134000000Y-74175000D01*
G75*
G02*
X133775000Y-73950000I0J225000D01*
G01*
X133775000Y-73500000D01*
G75*
G02*
X134000000Y-73275000I225000J0D01*
G01*
X134500000Y-73275000D01*
G75*
G02*
X134725000Y-73500000I0J-225000D01*
G01*
X134725000Y-73950000D01*
G75*
G02*
X134500000Y-74175000I-225000J0D01*
G01*
G37*
%TD*%
%TO.C,C3*%
G36*
G01*
X114250000Y-70725000D02*
X113750000Y-70725000D01*
G75*
G02*
X113525000Y-70500000I0J225000D01*
G01*
X113525000Y-70050000D01*
G75*
G02*
X113750000Y-69825000I225000J0D01*
G01*
X114250000Y-69825000D01*
G75*
G02*
X114475000Y-70050000I0J-225000D01*
G01*
X114475000Y-70500000D01*
G75*
G02*
X114250000Y-70725000I-225000J0D01*
G01*
G37*
G36*
G01*
X114250000Y-69175000D02*
X113750000Y-69175000D01*
G75*
G02*
X113525000Y-68950000I0J225000D01*
G01*
X113525000Y-68500000D01*
G75*
G02*
X113750000Y-68275000I225000J0D01*
G01*
X114250000Y-68275000D01*
G75*
G02*
X114475000Y-68500000I0J-225000D01*
G01*
X114475000Y-68950000D01*
G75*
G02*
X114250000Y-69175000I-225000J0D01*
G01*
G37*
%TD*%
%TO.C,C4*%
G36*
G01*
X131050000Y-69425000D02*
X130550000Y-69425000D01*
G75*
G02*
X130325000Y-69200000I0J225000D01*
G01*
X130325000Y-68750000D01*
G75*
G02*
X130550000Y-68525000I225000J0D01*
G01*
X131050000Y-68525000D01*
G75*
G02*
X131275000Y-68750000I0J-225000D01*
G01*
X131275000Y-69200000D01*
G75*
G02*
X131050000Y-69425000I-225000J0D01*
G01*
G37*
G36*
G01*
X131050000Y-70975000D02*
X130550000Y-70975000D01*
G75*
G02*
X130325000Y-70750000I0J225000D01*
G01*
X130325000Y-70300000D01*
G75*
G02*
X130550000Y-70075000I225000J0D01*
G01*
X131050000Y-70075000D01*
G75*
G02*
X131275000Y-70300000I0J-225000D01*
G01*
X131275000Y-70750000D01*
G75*
G02*
X131050000Y-70975000I-225000J0D01*
G01*
G37*
%TD*%
%TO.C,C5*%
G36*
G01*
X150500000Y-75475000D02*
X150000000Y-75475000D01*
G75*
G02*
X149775000Y-75250000I0J225000D01*
G01*
X149775000Y-74800000D01*
G75*
G02*
X150000000Y-74575000I225000J0D01*
G01*
X150500000Y-74575000D01*
G75*
G02*
X150725000Y-74800000I0J-225000D01*
G01*
X150725000Y-75250000D01*
G75*
G02*
X150500000Y-75475000I-225000J0D01*
G01*
G37*
G36*
G01*
X150500000Y-73925000D02*
X150000000Y-73925000D01*
G75*
G02*
X149775000Y-73700000I0J225000D01*
G01*
X149775000Y-73250000D01*
G75*
G02*
X150000000Y-73025000I225000J0D01*
G01*
X150500000Y-73025000D01*
G75*
G02*
X150725000Y-73250000I0J-225000D01*
G01*
X150725000Y-73700000D01*
G75*
G02*
X150500000Y-73925000I-225000J0D01*
G01*
G37*
%TD*%
%TO.C,C6*%
G36*
G01*
X166500000Y-75725000D02*
X166000000Y-75725000D01*
G75*
G02*
X165775000Y-75500000I0J225000D01*
G01*
X165775000Y-75050000D01*
G75*
G02*
X166000000Y-74825000I225000J0D01*
G01*
X166500000Y-74825000D01*
G75*
G02*
X166725000Y-75050000I0J-225000D01*
G01*
X166725000Y-75500000D01*
G75*
G02*
X166500000Y-75725000I-225000J0D01*
G01*
G37*
G36*
G01*
X166500000Y-74175000D02*
X166000000Y-74175000D01*
G75*
G02*
X165775000Y-73950000I0J225000D01*
G01*
X165775000Y-73500000D01*
G75*
G02*
X166000000Y-73275000I225000J0D01*
G01*
X166500000Y-73275000D01*
G75*
G02*
X166725000Y-73500000I0J-225000D01*
G01*
X166725000Y-73950000D01*
G75*
G02*
X166500000Y-74175000I-225000J0D01*
G01*
G37*
%TD*%
%TO.C,C7*%
G36*
G01*
X147050000Y-70725000D02*
X146550000Y-70725000D01*
G75*
G02*
X146325000Y-70500000I0J225000D01*
G01*
X146325000Y-70050000D01*
G75*
G02*
X146550000Y-69825000I225000J0D01*
G01*
X147050000Y-69825000D01*
G75*
G02*
X147275000Y-70050000I0J-225000D01*
G01*
X147275000Y-70500000D01*
G75*
G02*
X147050000Y-70725000I-225000J0D01*
G01*
G37*
G36*
G01*
X147050000Y-69175000D02*
X146550000Y-69175000D01*
G75*
G02*
X146325000Y-68950000I0J225000D01*
G01*
X146325000Y-68500000D01*
G75*
G02*
X146550000Y-68275000I225000J0D01*
G01*
X147050000Y-68275000D01*
G75*
G02*
X147275000Y-68500000I0J-225000D01*
G01*
X147275000Y-68950000D01*
G75*
G02*
X147050000Y-69175000I-225000J0D01*
G01*
G37*
%TD*%
%TO.C,C8*%
G36*
G01*
X163050000Y-69425000D02*
X162550000Y-69425000D01*
G75*
G02*
X162325000Y-69200000I0J225000D01*
G01*
X162325000Y-68750000D01*
G75*
G02*
X162550000Y-68525000I225000J0D01*
G01*
X163050000Y-68525000D01*
G75*
G02*
X163275000Y-68750000I0J-225000D01*
G01*
X163275000Y-69200000D01*
G75*
G02*
X163050000Y-69425000I-225000J0D01*
G01*
G37*
G36*
G01*
X163050000Y-70975000D02*
X162550000Y-70975000D01*
G75*
G02*
X162325000Y-70750000I0J225000D01*
G01*
X162325000Y-70300000D01*
G75*
G02*
X162550000Y-70075000I225000J0D01*
G01*
X163050000Y-70075000D01*
G75*
G02*
X163275000Y-70300000I0J-225000D01*
G01*
X163275000Y-70750000D01*
G75*
G02*
X163050000Y-70975000I-225000J0D01*
G01*
G37*
%TD*%
%TO.C,C9*%
G36*
G01*
X182500000Y-73675000D02*
X182000000Y-73675000D01*
G75*
G02*
X181775000Y-73450000I0J225000D01*
G01*
X181775000Y-73000000D01*
G75*
G02*
X182000000Y-72775000I225000J0D01*
G01*
X182500000Y-72775000D01*
G75*
G02*
X182725000Y-73000000I0J-225000D01*
G01*
X182725000Y-73450000D01*
G75*
G02*
X182500000Y-73675000I-225000J0D01*
G01*
G37*
G36*
G01*
X182500000Y-75225000D02*
X182000000Y-75225000D01*
G75*
G02*
X181775000Y-75000000I0J225000D01*
G01*
X181775000Y-74550000D01*
G75*
G02*
X182000000Y-74325000I225000J0D01*
G01*
X182500000Y-74325000D01*
G75*
G02*
X182725000Y-74550000I0J-225000D01*
G01*
X182725000Y-75000000D01*
G75*
G02*
X182500000Y-75225000I-225000J0D01*
G01*
G37*
%TD*%
%TO.C,C10*%
G36*
G01*
X197750000Y-75475000D02*
X197250000Y-75475000D01*
G75*
G02*
X197025000Y-75250000I0J225000D01*
G01*
X197025000Y-74800000D01*
G75*
G02*
X197250000Y-74575000I225000J0D01*
G01*
X197750000Y-74575000D01*
G75*
G02*
X197975000Y-74800000I0J-225000D01*
G01*
X197975000Y-75250000D01*
G75*
G02*
X197750000Y-75475000I-225000J0D01*
G01*
G37*
G36*
G01*
X197750000Y-73925000D02*
X197250000Y-73925000D01*
G75*
G02*
X197025000Y-73700000I0J225000D01*
G01*
X197025000Y-73250000D01*
G75*
G02*
X197250000Y-73025000I225000J0D01*
G01*
X197750000Y-73025000D01*
G75*
G02*
X197975000Y-73250000I0J-225000D01*
G01*
X197975000Y-73700000D01*
G75*
G02*
X197750000Y-73925000I-225000J0D01*
G01*
G37*
%TD*%
%TO.C,C11*%
G36*
G01*
X179050000Y-70475000D02*
X178550000Y-70475000D01*
G75*
G02*
X178325000Y-70250000I0J225000D01*
G01*
X178325000Y-69800000D01*
G75*
G02*
X178550000Y-69575000I225000J0D01*
G01*
X179050000Y-69575000D01*
G75*
G02*
X179275000Y-69800000I0J-225000D01*
G01*
X179275000Y-70250000D01*
G75*
G02*
X179050000Y-70475000I-225000J0D01*
G01*
G37*
G36*
G01*
X179050000Y-68925000D02*
X178550000Y-68925000D01*
G75*
G02*
X178325000Y-68700000I0J225000D01*
G01*
X178325000Y-68250000D01*
G75*
G02*
X178550000Y-68025000I225000J0D01*
G01*
X179050000Y-68025000D01*
G75*
G02*
X179275000Y-68250000I0J-225000D01*
G01*
X179275000Y-68700000D01*
G75*
G02*
X179050000Y-68925000I-225000J0D01*
G01*
G37*
%TD*%
%TO.C,C12*%
G36*
G01*
X194300000Y-69175000D02*
X193800000Y-69175000D01*
G75*
G02*
X193575000Y-68950000I0J225000D01*
G01*
X193575000Y-68500000D01*
G75*
G02*
X193800000Y-68275000I225000J0D01*
G01*
X194300000Y-68275000D01*
G75*
G02*
X194525000Y-68500000I0J-225000D01*
G01*
X194525000Y-68950000D01*
G75*
G02*
X194300000Y-69175000I-225000J0D01*
G01*
G37*
G36*
G01*
X194300000Y-70725000D02*
X193800000Y-70725000D01*
G75*
G02*
X193575000Y-70500000I0J225000D01*
G01*
X193575000Y-70050000D01*
G75*
G02*
X193800000Y-69825000I225000J0D01*
G01*
X194300000Y-69825000D01*
G75*
G02*
X194525000Y-70050000I0J-225000D01*
G01*
X194525000Y-70500000D01*
G75*
G02*
X194300000Y-70725000I-225000J0D01*
G01*
G37*
%TD*%
%TO.C,D1*%
G36*
G01*
X110243750Y-68275000D02*
X110756250Y-68275000D01*
G75*
G02*
X110975000Y-68493750I0J-218750D01*
G01*
X110975000Y-68931250D01*
G75*
G02*
X110756250Y-69150000I-218750J0D01*
G01*
X110243750Y-69150000D01*
G75*
G02*
X110025000Y-68931250I0J218750D01*
G01*
X110025000Y-68493750D01*
G75*
G02*
X110243750Y-68275000I218750J0D01*
G01*
G37*
G36*
G01*
X110243750Y-69850000D02*
X110756250Y-69850000D01*
G75*
G02*
X110975000Y-70068750I0J-218750D01*
G01*
X110975000Y-70506250D01*
G75*
G02*
X110756250Y-70725000I-218750J0D01*
G01*
X110243750Y-70725000D01*
G75*
G02*
X110025000Y-70506250I0J218750D01*
G01*
X110025000Y-70068750D01*
G75*
G02*
X110243750Y-69850000I218750J0D01*
G01*
G37*
%TD*%
%TO.C,D2*%
G36*
G01*
X126993750Y-68525000D02*
X127506250Y-68525000D01*
G75*
G02*
X127725000Y-68743750I0J-218750D01*
G01*
X127725000Y-69181250D01*
G75*
G02*
X127506250Y-69400000I-218750J0D01*
G01*
X126993750Y-69400000D01*
G75*
G02*
X126775000Y-69181250I0J218750D01*
G01*
X126775000Y-68743750D01*
G75*
G02*
X126993750Y-68525000I218750J0D01*
G01*
G37*
G36*
G01*
X126993750Y-70100000D02*
X127506250Y-70100000D01*
G75*
G02*
X127725000Y-70318750I0J-218750D01*
G01*
X127725000Y-70756250D01*
G75*
G02*
X127506250Y-70975000I-218750J0D01*
G01*
X126993750Y-70975000D01*
G75*
G02*
X126775000Y-70756250I0J218750D01*
G01*
X126775000Y-70318750D01*
G75*
G02*
X126993750Y-70100000I218750J0D01*
G01*
G37*
%TD*%
%TO.C,D3*%
G36*
G01*
X142993750Y-68275000D02*
X143506250Y-68275000D01*
G75*
G02*
X143725000Y-68493750I0J-218750D01*
G01*
X143725000Y-68931250D01*
G75*
G02*
X143506250Y-69150000I-218750J0D01*
G01*
X142993750Y-69150000D01*
G75*
G02*
X142775000Y-68931250I0J218750D01*
G01*
X142775000Y-68493750D01*
G75*
G02*
X142993750Y-68275000I218750J0D01*
G01*
G37*
G36*
G01*
X142993750Y-69850000D02*
X143506250Y-69850000D01*
G75*
G02*
X143725000Y-70068750I0J-218750D01*
G01*
X143725000Y-70506250D01*
G75*
G02*
X143506250Y-70725000I-218750J0D01*
G01*
X142993750Y-70725000D01*
G75*
G02*
X142775000Y-70506250I0J218750D01*
G01*
X142775000Y-70068750D01*
G75*
G02*
X142993750Y-69850000I218750J0D01*
G01*
G37*
%TD*%
%TO.C,D4*%
G36*
G01*
X159243750Y-70100000D02*
X159756250Y-70100000D01*
G75*
G02*
X159975000Y-70318750I0J-218750D01*
G01*
X159975000Y-70756250D01*
G75*
G02*
X159756250Y-70975000I-218750J0D01*
G01*
X159243750Y-70975000D01*
G75*
G02*
X159025000Y-70756250I0J218750D01*
G01*
X159025000Y-70318750D01*
G75*
G02*
X159243750Y-70100000I218750J0D01*
G01*
G37*
G36*
G01*
X159243750Y-68525000D02*
X159756250Y-68525000D01*
G75*
G02*
X159975000Y-68743750I0J-218750D01*
G01*
X159975000Y-69181250D01*
G75*
G02*
X159756250Y-69400000I-218750J0D01*
G01*
X159243750Y-69400000D01*
G75*
G02*
X159025000Y-69181250I0J218750D01*
G01*
X159025000Y-68743750D01*
G75*
G02*
X159243750Y-68525000I218750J0D01*
G01*
G37*
%TD*%
%TO.C,D5*%
G36*
G01*
X174993750Y-69600000D02*
X175506250Y-69600000D01*
G75*
G02*
X175725000Y-69818750I0J-218750D01*
G01*
X175725000Y-70256250D01*
G75*
G02*
X175506250Y-70475000I-218750J0D01*
G01*
X174993750Y-70475000D01*
G75*
G02*
X174775000Y-70256250I0J218750D01*
G01*
X174775000Y-69818750D01*
G75*
G02*
X174993750Y-69600000I218750J0D01*
G01*
G37*
G36*
G01*
X174993750Y-68025000D02*
X175506250Y-68025000D01*
G75*
G02*
X175725000Y-68243750I0J-218750D01*
G01*
X175725000Y-68681250D01*
G75*
G02*
X175506250Y-68900000I-218750J0D01*
G01*
X174993750Y-68900000D01*
G75*
G02*
X174775000Y-68681250I0J218750D01*
G01*
X174775000Y-68243750D01*
G75*
G02*
X174993750Y-68025000I218750J0D01*
G01*
G37*
%TD*%
%TO.C,D6*%
G36*
G01*
X190243750Y-69850000D02*
X190756250Y-69850000D01*
G75*
G02*
X190975000Y-70068750I0J-218750D01*
G01*
X190975000Y-70506250D01*
G75*
G02*
X190756250Y-70725000I-218750J0D01*
G01*
X190243750Y-70725000D01*
G75*
G02*
X190025000Y-70506250I0J218750D01*
G01*
X190025000Y-70068750D01*
G75*
G02*
X190243750Y-69850000I218750J0D01*
G01*
G37*
G36*
G01*
X190243750Y-68275000D02*
X190756250Y-68275000D01*
G75*
G02*
X190975000Y-68493750I0J-218750D01*
G01*
X190975000Y-68931250D01*
G75*
G02*
X190756250Y-69150000I-218750J0D01*
G01*
X190243750Y-69150000D01*
G75*
G02*
X190025000Y-68931250I0J218750D01*
G01*
X190025000Y-68493750D01*
G75*
G02*
X190243750Y-68275000I218750J0D01*
G01*
G37*
%TD*%
%TO.C,R1*%
G36*
G01*
X110775000Y-73825000D02*
X110225000Y-73825000D01*
G75*
G02*
X110025000Y-73625000I0J200000D01*
G01*
X110025000Y-73225000D01*
G75*
G02*
X110225000Y-73025000I200000J0D01*
G01*
X110775000Y-73025000D01*
G75*
G02*
X110975000Y-73225000I0J-200000D01*
G01*
X110975000Y-73625000D01*
G75*
G02*
X110775000Y-73825000I-200000J0D01*
G01*
G37*
G36*
G01*
X110775000Y-75475000D02*
X110225000Y-75475000D01*
G75*
G02*
X110025000Y-75275000I0J200000D01*
G01*
X110025000Y-74875000D01*
G75*
G02*
X110225000Y-74675000I200000J0D01*
G01*
X110775000Y-74675000D01*
G75*
G02*
X110975000Y-74875000I0J-200000D01*
G01*
X110975000Y-75275000D01*
G75*
G02*
X110775000Y-75475000I-200000J0D01*
G01*
G37*
%TD*%
%TO.C,R2*%
G36*
G01*
X127525000Y-75800000D02*
X126975000Y-75800000D01*
G75*
G02*
X126775000Y-75600000I0J200000D01*
G01*
X126775000Y-75200000D01*
G75*
G02*
X126975000Y-75000000I200000J0D01*
G01*
X127525000Y-75000000D01*
G75*
G02*
X127725000Y-75200000I0J-200000D01*
G01*
X127725000Y-75600000D01*
G75*
G02*
X127525000Y-75800000I-200000J0D01*
G01*
G37*
G36*
G01*
X127525000Y-74150000D02*
X126975000Y-74150000D01*
G75*
G02*
X126775000Y-73950000I0J200000D01*
G01*
X126775000Y-73550000D01*
G75*
G02*
X126975000Y-73350000I200000J0D01*
G01*
X127525000Y-73350000D01*
G75*
G02*
X127725000Y-73550000I0J-200000D01*
G01*
X127725000Y-73950000D01*
G75*
G02*
X127525000Y-74150000I-200000J0D01*
G01*
G37*
%TD*%
%TO.C,R3*%
G36*
G01*
X143525000Y-75475000D02*
X142975000Y-75475000D01*
G75*
G02*
X142775000Y-75275000I0J200000D01*
G01*
X142775000Y-74875000D01*
G75*
G02*
X142975000Y-74675000I200000J0D01*
G01*
X143525000Y-74675000D01*
G75*
G02*
X143725000Y-74875000I0J-200000D01*
G01*
X143725000Y-75275000D01*
G75*
G02*
X143525000Y-75475000I-200000J0D01*
G01*
G37*
G36*
G01*
X143525000Y-73825000D02*
X142975000Y-73825000D01*
G75*
G02*
X142775000Y-73625000I0J200000D01*
G01*
X142775000Y-73225000D01*
G75*
G02*
X142975000Y-73025000I200000J0D01*
G01*
X143525000Y-73025000D01*
G75*
G02*
X143725000Y-73225000I0J-200000D01*
G01*
X143725000Y-73625000D01*
G75*
G02*
X143525000Y-73825000I-200000J0D01*
G01*
G37*
%TD*%
%TO.C,R4*%
G36*
G01*
X159775000Y-75725000D02*
X159225000Y-75725000D01*
G75*
G02*
X159025000Y-75525000I0J200000D01*
G01*
X159025000Y-75125000D01*
G75*
G02*
X159225000Y-74925000I200000J0D01*
G01*
X159775000Y-74925000D01*
G75*
G02*
X159975000Y-75125000I0J-200000D01*
G01*
X159975000Y-75525000D01*
G75*
G02*
X159775000Y-75725000I-200000J0D01*
G01*
G37*
G36*
G01*
X159775000Y-74075000D02*
X159225000Y-74075000D01*
G75*
G02*
X159025000Y-73875000I0J200000D01*
G01*
X159025000Y-73475000D01*
G75*
G02*
X159225000Y-73275000I200000J0D01*
G01*
X159775000Y-73275000D01*
G75*
G02*
X159975000Y-73475000I0J-200000D01*
G01*
X159975000Y-73875000D01*
G75*
G02*
X159775000Y-74075000I-200000J0D01*
G01*
G37*
%TD*%
%TO.C,R5*%
G36*
G01*
X175525000Y-73575000D02*
X174975000Y-73575000D01*
G75*
G02*
X174775000Y-73375000I0J200000D01*
G01*
X174775000Y-72975000D01*
G75*
G02*
X174975000Y-72775000I200000J0D01*
G01*
X175525000Y-72775000D01*
G75*
G02*
X175725000Y-72975000I0J-200000D01*
G01*
X175725000Y-73375000D01*
G75*
G02*
X175525000Y-73575000I-200000J0D01*
G01*
G37*
G36*
G01*
X175525000Y-75225000D02*
X174975000Y-75225000D01*
G75*
G02*
X174775000Y-75025000I0J200000D01*
G01*
X174775000Y-74625000D01*
G75*
G02*
X174975000Y-74425000I200000J0D01*
G01*
X175525000Y-74425000D01*
G75*
G02*
X175725000Y-74625000I0J-200000D01*
G01*
X175725000Y-75025000D01*
G75*
G02*
X175525000Y-75225000I-200000J0D01*
G01*
G37*
%TD*%
%TO.C,R6*%
G36*
G01*
X190775000Y-73825000D02*
X190225000Y-73825000D01*
G75*
G02*
X190025000Y-73625000I0J200000D01*
G01*
X190025000Y-73225000D01*
G75*
G02*
X190225000Y-73025000I200000J0D01*
G01*
X190775000Y-73025000D01*
G75*
G02*
X190975000Y-73225000I0J-200000D01*
G01*
X190975000Y-73625000D01*
G75*
G02*
X190775000Y-73825000I-200000J0D01*
G01*
G37*
G36*
G01*
X190775000Y-75475000D02*
X190225000Y-75475000D01*
G75*
G02*
X190025000Y-75275000I0J200000D01*
G01*
X190025000Y-74875000D01*
G75*
G02*
X190225000Y-74675000I200000J0D01*
G01*
X190775000Y-74675000D01*
G75*
G02*
X190975000Y-74875000I0J-200000D01*
G01*
X190975000Y-75275000D01*
G75*
G02*
X190775000Y-75475000I-200000J0D01*
G01*
G37*
%TD*%
D11*
%TO.C,U1*%
X113050000Y-75350000D03*
X114000000Y-75350000D03*
X114950000Y-75350000D03*
X114950000Y-73150000D03*
X113050000Y-73150000D03*
X114000000Y-73150000D03*
%TD*%
%TO.C,U2*%
X130800000Y-73400000D03*
X129850000Y-73400000D03*
X131750000Y-73400000D03*
X131750000Y-75600000D03*
X130800000Y-75600000D03*
X129850000Y-75600000D03*
%TD*%
%TO.C,U3*%
X146800000Y-73150000D03*
X145850000Y-73150000D03*
X147750000Y-73150000D03*
X147750000Y-75350000D03*
X146800000Y-75350000D03*
X145850000Y-75350000D03*
%TD*%
%TO.C,U4*%
X161850000Y-75600000D03*
X162800000Y-75600000D03*
X163750000Y-75600000D03*
X163750000Y-73400000D03*
X161850000Y-73400000D03*
X162800000Y-73400000D03*
%TD*%
%TO.C,U5*%
X178800000Y-72900000D03*
X177850000Y-72900000D03*
X179750000Y-72900000D03*
X179750000Y-75100000D03*
X178800000Y-75100000D03*
X177850000Y-75100000D03*
%TD*%
%TO.C,U6*%
X193100000Y-75350000D03*
X194050000Y-75350000D03*
X195000000Y-75350000D03*
X195000000Y-73150000D03*
X193100000Y-73150000D03*
X194050000Y-73150000D03*
%TD*%
D12*
%TO.C,H1*%
X108500000Y-102750000D03*
%TD*%
%TO.C,H2*%
X201500000Y-58500000D03*
%TD*%
%TO.C,H3*%
X201500000Y-102750000D03*
%TD*%
%TO.C,H4*%
X108500000Y-58500000D03*
%TD*%
D13*
%TO.C,J1*%
X145000000Y-60000000D03*
D14*
X147540000Y-60000000D03*
X150080000Y-60000000D03*
X152620000Y-60000000D03*
X155160000Y-60000000D03*
X157700000Y-60000000D03*
X160240000Y-60000000D03*
X162780000Y-60000000D03*
%TD*%
D13*
%TO.C,J2*%
X202057000Y-69596000D03*
D14*
X202057000Y-67056000D03*
X202057000Y-64516000D03*
%TD*%
%TO.C,R7*%
G36*
G01*
X199220500Y-70821000D02*
X198670500Y-70821000D01*
G75*
G02*
X198470500Y-70621000I0J200000D01*
G01*
X198470500Y-70221000D01*
G75*
G02*
X198670500Y-70021000I200000J0D01*
G01*
X199220500Y-70021000D01*
G75*
G02*
X199420500Y-70221000I0J-200000D01*
G01*
X199420500Y-70621000D01*
G75*
G02*
X199220500Y-70821000I-200000J0D01*
G01*
G37*
G36*
G01*
X199220500Y-69171000D02*
X198670500Y-69171000D01*
G75*
G02*
X198470500Y-68971000I0J200000D01*
G01*
X198470500Y-68571000D01*
G75*
G02*
X198670500Y-68371000I200000J0D01*
G01*
X199220500Y-68371000D01*
G75*
G02*
X199420500Y-68571000I0J-200000D01*
G01*
X199420500Y-68971000D01*
G75*
G02*
X199220500Y-69171000I-200000J0D01*
G01*
G37*
%TD*%
M02*
