%TF.GenerationSoftware,KiCad,Pcbnew,(6.0.5)*%
%TF.CreationDate,2022-06-20T13:03:10+02:00*%
%TF.ProjectId,Touchpad,546f7563-6870-4616-942e-6b696361645f,rev?*%
%TF.SameCoordinates,Original*%
%TF.FileFunction,Paste,Bot*%
%TF.FilePolarity,Positive*%
%FSLAX46Y46*%
G04 Gerber Fmt 4.6, Leading zero omitted, Abs format (unit mm)*
G04 Created by KiCad (PCBNEW (6.0.5)) date 2022-06-20 13:03:10*
%MOMM*%
%LPD*%
G01*
G04 APERTURE LIST*
G04 Aperture macros list*
%AMRoundRect*
0 Rectangle with rounded corners*
0 $1 Rounding radius*
0 $2 $3 $4 $5 $6 $7 $8 $9 X,Y pos of 4 corners*
0 Add a 4 corners polygon primitive as box body*
4,1,4,$2,$3,$4,$5,$6,$7,$8,$9,$2,$3,0*
0 Add four circle primitives for the rounded corners*
1,1,$1+$1,$2,$3*
1,1,$1+$1,$4,$5*
1,1,$1+$1,$6,$7*
1,1,$1+$1,$8,$9*
0 Add four rect primitives between the rounded corners*
20,1,$1+$1,$2,$3,$4,$5,0*
20,1,$1+$1,$4,$5,$6,$7,0*
20,1,$1+$1,$6,$7,$8,$9,0*
20,1,$1+$1,$8,$9,$2,$3,0*%
%AMRotRect*
0 Rectangle, with rotation*
0 The origin of the aperture is its center*
0 $1 length*
0 $2 width*
0 $3 Rotation angle, in degrees counterclockwise*
0 Add horizontal line*
21,1,$1,$2,0,0,$3*%
G04 Aperture macros list end*
%ADD10R,2.400000X0.740000*%
%ADD11RotRect,1.060000X0.650000X315.000000*%
%ADD12RotRect,1.060000X0.650000X225.000000*%
%ADD13R,0.650000X1.060000*%
%ADD14RoundRect,0.225000X-0.017678X0.335876X-0.335876X0.017678X0.017678X-0.335876X0.335876X-0.017678X0*%
%ADD15RoundRect,0.225000X0.225000X0.250000X-0.225000X0.250000X-0.225000X-0.250000X0.225000X-0.250000X0*%
%ADD16RoundRect,0.225000X0.335876X0.017678X0.017678X0.335876X-0.335876X-0.017678X-0.017678X-0.335876X0*%
%ADD17RoundRect,0.225000X0.017678X-0.335876X0.335876X-0.017678X-0.017678X0.335876X-0.335876X0.017678X0*%
G04 APERTURE END LIST*
D10*
%TO.C,J1*%
X206350000Y-77420000D03*
X210250000Y-77420000D03*
X206350000Y-76150000D03*
X210250000Y-76150000D03*
X206350000Y-74880000D03*
X210250000Y-74880000D03*
%TD*%
D11*
%TO.C,U1*%
X204856066Y-68649569D03*
X205527817Y-67977817D03*
X206199569Y-67306066D03*
X204643934Y-65750431D03*
X203972183Y-66422183D03*
X203300431Y-67093934D03*
%TD*%
D12*
%TO.C,U3*%
X210450431Y-67306066D03*
X211122183Y-67977817D03*
X211793934Y-68649569D03*
X213349569Y-67093934D03*
X212677817Y-66422183D03*
X212006066Y-65750431D03*
%TD*%
D13*
%TO.C,U2*%
X187704045Y-68675000D03*
X188654045Y-68675000D03*
X189604045Y-68675000D03*
X189604045Y-70875000D03*
X188654045Y-70875000D03*
X187704045Y-70875000D03*
%TD*%
D14*
%TO.C,C1*%
X202201992Y-65748008D03*
X203298008Y-64651992D03*
%TD*%
D15*
%TO.C,C4*%
X187879045Y-72775000D03*
X189429045Y-72775000D03*
%TD*%
%TO.C,C3*%
X187879045Y-66775000D03*
X189429045Y-66775000D03*
%TD*%
D16*
%TO.C,C6*%
X209351992Y-68651992D03*
X210448008Y-69748008D03*
%TD*%
D17*
%TO.C,C2*%
X207298008Y-68651992D03*
X206201992Y-69748008D03*
%TD*%
D16*
%TO.C,C5*%
X213351992Y-64651992D03*
X214448008Y-65748008D03*
%TD*%
D11*
%TO.C,U1*%
X205056066Y-103649569D03*
X205727817Y-102977817D03*
X206399569Y-102306066D03*
X204843934Y-100750431D03*
X204172183Y-101422183D03*
X203500431Y-102093934D03*
%TD*%
D16*
%TO.C,C5*%
X213551992Y-99651992D03*
X214648008Y-100748008D03*
%TD*%
D17*
%TO.C,C2*%
X207498008Y-103651992D03*
X206401992Y-104748008D03*
%TD*%
D16*
%TO.C,C6*%
X209551992Y-103651992D03*
X210648008Y-104748008D03*
%TD*%
D15*
%TO.C,C3*%
X188079045Y-101775000D03*
X189629045Y-101775000D03*
%TD*%
%TO.C,C4*%
X188079045Y-107775000D03*
X189629045Y-107775000D03*
%TD*%
D14*
%TO.C,C1*%
X202401992Y-100748008D03*
X203498008Y-99651992D03*
%TD*%
D13*
%TO.C,U2*%
X187904045Y-103675000D03*
X188854045Y-103675000D03*
X189804045Y-103675000D03*
X189804045Y-105875000D03*
X188854045Y-105875000D03*
X187904045Y-105875000D03*
%TD*%
D12*
%TO.C,U3*%
X210650431Y-102306066D03*
X211322183Y-102977817D03*
X211993934Y-103649569D03*
X213549569Y-102093934D03*
X212877817Y-101422183D03*
X212206066Y-100750431D03*
%TD*%
D10*
%TO.C,J1*%
X206550000Y-112420000D03*
X210450000Y-112420000D03*
X206550000Y-111150000D03*
X210450000Y-111150000D03*
X206550000Y-109880000D03*
X210450000Y-109880000D03*
%TD*%
M02*
