M48
; DRILL file {KiCad (6.0.5)} date Mon Jun 20 13:03:11 2022
; FORMAT={-:-/ absolute / inch / decimal}
; #@! TF.CreationDate,2022-06-20T13:03:11+02:00
; #@! TF.GenerationSoftware,Kicad,Pcbnew,(6.0.5)
; #@! TF.FileFunction,NonPlated,1,2,NPTH
FMAT,2
INCH
; #@! TA.AperFunction,NonPlated,NPTH,ComponentDrill
T1C0.0197
%
G90
G05
T1
X7.4291Y-3.126
X7.4291Y-3.185
X7.4331Y-3.815
X7.4331Y-3.874
X7.4587Y-3.126
X7.4587Y-3.185
X7.4626Y-3.815
X7.4626Y-3.874
X7.4882Y-3.126
X7.4882Y-3.185
X7.4921Y-3.815
X7.4921Y-3.874
X8.1614Y-3.126
X8.1614Y-3.185
X8.1654Y-3.815
X8.1654Y-3.874
X8.1909Y-3.126
X8.1909Y-3.185
X8.1949Y-3.815
X8.1949Y-3.874
X8.2205Y-3.126
X8.2205Y-3.185
X8.2244Y-3.815
X8.2244Y-3.874
T0
M30
