%TF.GenerationSoftware,KiCad,Pcbnew,(6.0.5)*%
%TF.CreationDate,2022-06-20T13:03:10+02:00*%
%TF.ProjectId,Touchpad,546f7563-6870-4616-942e-6b696361645f,rev?*%
%TF.SameCoordinates,Original*%
%TF.FileFunction,Soldermask,Top*%
%TF.FilePolarity,Negative*%
%FSLAX46Y46*%
G04 Gerber Fmt 4.6, Leading zero omitted, Abs format (unit mm)*
G04 Created by KiCad (PCBNEW (6.0.5)) date 2022-06-20 13:03:10*
%MOMM*%
%LPD*%
G01*
G04 APERTURE LIST*
%ADD10C,0.100000*%
%ADD11C,0.001000*%
%ADD12C,0.500000*%
%ADD13R,1.700000X1.700000*%
%ADD14O,1.700000X1.700000*%
%ADD15R,1.000000X1.000000*%
%ADD16O,1.000000X1.000000*%
%ADD17R,1.500000X1.000000*%
G04 APERTURE END LIST*
D10*
G36*
X180000000Y-105350000D02*
G01*
X184100000Y-105350000D01*
X184100000Y-107750000D01*
X180000000Y-107750000D01*
X180000000Y-110350000D01*
X176300000Y-106550000D01*
X180000000Y-102750000D01*
X180000000Y-105350000D01*
G37*
X180000000Y-105350000D02*
X184100000Y-105350000D01*
X184100000Y-107750000D01*
X180000000Y-107750000D01*
X180000000Y-110350000D01*
X176300000Y-106550000D01*
X180000000Y-102750000D01*
X180000000Y-105350000D01*
G36*
X202355000Y-104300000D02*
G01*
X197155000Y-109500000D01*
X194955000Y-107300000D01*
X195555000Y-106700000D01*
X197155000Y-108100000D01*
X201655000Y-103600000D01*
X202355000Y-104300000D01*
G37*
X202355000Y-104300000D02*
X197155000Y-109500000D01*
X194955000Y-107300000D01*
X195555000Y-106700000D01*
X197155000Y-108100000D01*
X201655000Y-103600000D01*
X202355000Y-104300000D01*
G36*
X221480000Y-106560000D02*
G01*
X217780000Y-110360000D01*
X217780000Y-107760000D01*
X213680000Y-107760000D01*
X213680000Y-105360000D01*
X217780000Y-105360000D01*
X217780000Y-102760000D01*
X221480000Y-106560000D01*
G37*
X221480000Y-106560000D02*
X217780000Y-110360000D01*
X217780000Y-107760000D01*
X213680000Y-107760000D01*
X213680000Y-105360000D01*
X217780000Y-105360000D01*
X217780000Y-102760000D01*
X221480000Y-106560000D01*
%TO.C,TP1*%
G36*
X201560000Y-68420000D02*
G01*
X201620000Y-68440000D01*
X201680000Y-68480000D01*
X202230000Y-69030000D01*
X202260000Y-69090000D01*
X202280000Y-69160000D01*
X202290000Y-69230000D01*
X202280000Y-69300000D01*
X202250000Y-69370000D01*
X202210000Y-69420000D01*
X197120000Y-74510000D01*
X197080000Y-74540000D01*
X197030000Y-74570000D01*
X196930000Y-74590000D01*
X196890000Y-74590000D01*
X196840000Y-74580000D01*
X196810000Y-74570000D01*
X196770000Y-74550000D01*
X196730000Y-74520000D01*
X194660000Y-72450000D01*
X194640000Y-72420000D01*
X194610000Y-72360000D01*
X194600000Y-72320000D01*
X194590000Y-72260000D01*
X194600000Y-72200000D01*
X194620000Y-72140000D01*
X194650000Y-72090000D01*
X194690000Y-72040000D01*
X195180000Y-71550000D01*
X195240000Y-71510000D01*
X195290000Y-71480000D01*
X195360000Y-71460000D01*
X195440000Y-71460000D01*
X195480000Y-71470000D01*
X195530000Y-71490000D01*
X195580000Y-71520000D01*
X195630000Y-71570000D01*
X196680000Y-72610000D01*
X196730000Y-72640000D01*
X196780000Y-72660000D01*
X196860000Y-72680000D01*
X196930000Y-72690000D01*
X196990000Y-72690000D01*
X197070000Y-72660000D01*
X197130000Y-72630000D01*
X197200000Y-72580000D01*
X201300000Y-68480000D01*
X201360000Y-68440000D01*
X201420000Y-68420000D01*
X201480000Y-68410000D01*
X201560000Y-68420000D01*
G37*
D11*
X201560000Y-68420000D02*
X201620000Y-68440000D01*
X201680000Y-68480000D01*
X202230000Y-69030000D01*
X202260000Y-69090000D01*
X202280000Y-69160000D01*
X202290000Y-69230000D01*
X202280000Y-69300000D01*
X202250000Y-69370000D01*
X202210000Y-69420000D01*
X197120000Y-74510000D01*
X197080000Y-74540000D01*
X197030000Y-74570000D01*
X196930000Y-74590000D01*
X196890000Y-74590000D01*
X196840000Y-74580000D01*
X196810000Y-74570000D01*
X196770000Y-74550000D01*
X196730000Y-74520000D01*
X194660000Y-72450000D01*
X194640000Y-72420000D01*
X194610000Y-72360000D01*
X194600000Y-72320000D01*
X194590000Y-72260000D01*
X194600000Y-72200000D01*
X194620000Y-72140000D01*
X194650000Y-72090000D01*
X194690000Y-72040000D01*
X195180000Y-71550000D01*
X195240000Y-71510000D01*
X195290000Y-71480000D01*
X195360000Y-71460000D01*
X195440000Y-71460000D01*
X195480000Y-71470000D01*
X195530000Y-71490000D01*
X195580000Y-71520000D01*
X195630000Y-71570000D01*
X196680000Y-72610000D01*
X196730000Y-72640000D01*
X196780000Y-72660000D01*
X196860000Y-72680000D01*
X196930000Y-72690000D01*
X196990000Y-72690000D01*
X197070000Y-72660000D01*
X197130000Y-72630000D01*
X197200000Y-72580000D01*
X201300000Y-68480000D01*
X201360000Y-68440000D01*
X201420000Y-68420000D01*
X201480000Y-68410000D01*
X201560000Y-68420000D01*
G36*
X201760000Y-103420000D02*
G01*
X201820000Y-103440000D01*
X201880000Y-103480000D01*
X202430000Y-104030000D01*
X202460000Y-104090000D01*
X202480000Y-104160000D01*
X202490000Y-104230000D01*
X202480000Y-104300000D01*
X202450000Y-104370000D01*
X202410000Y-104420000D01*
X197320000Y-109510000D01*
X197280000Y-109540000D01*
X197230000Y-109570000D01*
X197130000Y-109590000D01*
X197090000Y-109590000D01*
X197040000Y-109580000D01*
X197010000Y-109570000D01*
X196970000Y-109550000D01*
X196930000Y-109520000D01*
X194860000Y-107450000D01*
X194840000Y-107420000D01*
X194810000Y-107360000D01*
X194800000Y-107320000D01*
X194790000Y-107260000D01*
X194800000Y-107200000D01*
X194820000Y-107140000D01*
X194850000Y-107090000D01*
X194890000Y-107040000D01*
X195380000Y-106550000D01*
X195440000Y-106510000D01*
X195490000Y-106480000D01*
X195560000Y-106460000D01*
X195640000Y-106460000D01*
X195680000Y-106470000D01*
X195730000Y-106490000D01*
X195780000Y-106520000D01*
X195830000Y-106570000D01*
X196880000Y-107610000D01*
X196930000Y-107640000D01*
X196980000Y-107660000D01*
X197060000Y-107680000D01*
X197130000Y-107690000D01*
X197190000Y-107690000D01*
X197270000Y-107660000D01*
X197330000Y-107630000D01*
X197400000Y-107580000D01*
X201500000Y-103480000D01*
X201560000Y-103440000D01*
X201620000Y-103420000D01*
X201680000Y-103410000D01*
X201760000Y-103420000D01*
G37*
X201760000Y-103420000D02*
X201820000Y-103440000D01*
X201880000Y-103480000D01*
X202430000Y-104030000D01*
X202460000Y-104090000D01*
X202480000Y-104160000D01*
X202490000Y-104230000D01*
X202480000Y-104300000D01*
X202450000Y-104370000D01*
X202410000Y-104420000D01*
X197320000Y-109510000D01*
X197280000Y-109540000D01*
X197230000Y-109570000D01*
X197130000Y-109590000D01*
X197090000Y-109590000D01*
X197040000Y-109580000D01*
X197010000Y-109570000D01*
X196970000Y-109550000D01*
X196930000Y-109520000D01*
X194860000Y-107450000D01*
X194840000Y-107420000D01*
X194810000Y-107360000D01*
X194800000Y-107320000D01*
X194790000Y-107260000D01*
X194800000Y-107200000D01*
X194820000Y-107140000D01*
X194850000Y-107090000D01*
X194890000Y-107040000D01*
X195380000Y-106550000D01*
X195440000Y-106510000D01*
X195490000Y-106480000D01*
X195560000Y-106460000D01*
X195640000Y-106460000D01*
X195680000Y-106470000D01*
X195730000Y-106490000D01*
X195780000Y-106520000D01*
X195830000Y-106570000D01*
X196880000Y-107610000D01*
X196930000Y-107640000D01*
X196980000Y-107660000D01*
X197060000Y-107680000D01*
X197130000Y-107690000D01*
X197190000Y-107690000D01*
X197270000Y-107660000D01*
X197330000Y-107630000D01*
X197400000Y-107580000D01*
X201500000Y-103480000D01*
X201560000Y-103440000D01*
X201620000Y-103420000D01*
X201680000Y-103410000D01*
X201760000Y-103420000D01*
%TD*%
D12*
%TO.C,mouse-bite-2mm-slot*%
X208800000Y-79400000D03*
X208050000Y-79400000D03*
X207300000Y-79400000D03*
X208050000Y-80900000D03*
X208800000Y-80900000D03*
X207300000Y-80900000D03*
%TD*%
%TO.C,mouse-bite-2mm-slot*%
X190200000Y-79400000D03*
X189450000Y-79400000D03*
X188700000Y-80900000D03*
X188700000Y-79400000D03*
X189450000Y-80900000D03*
X190200000Y-80900000D03*
%TD*%
D13*
%TO.C,J3*%
X191350000Y-83200000D03*
D14*
X193890000Y-83200000D03*
X196430000Y-83200000D03*
X198970000Y-83200000D03*
X201510000Y-83200000D03*
X204050000Y-83200000D03*
X206590000Y-83200000D03*
%TD*%
D15*
%TO.C,J2*%
X207925000Y-92375000D03*
D16*
X209195000Y-92375000D03*
X207925000Y-93645000D03*
X209195000Y-93645000D03*
X207925000Y-94915000D03*
X209195000Y-94915000D03*
%TD*%
D17*
%TO.C,D3*%
X215100000Y-87400000D03*
X215100000Y-90600000D03*
X220000000Y-90600000D03*
X220000000Y-87400000D03*
%TD*%
%TO.C,D2*%
X196450000Y-87400000D03*
X196450000Y-90600000D03*
X201350000Y-90600000D03*
X201350000Y-87400000D03*
%TD*%
%TO.C,D1*%
X177800000Y-87400000D03*
X177800000Y-90600000D03*
X182700000Y-90600000D03*
X182700000Y-87400000D03*
%TD*%
D12*
%TO.C,mouse-bite-2mm-slot*%
X208900000Y-96900000D03*
X208150000Y-96900000D03*
X207400000Y-96900000D03*
X208150000Y-98400000D03*
X208900000Y-98400000D03*
X207400000Y-98400000D03*
%TD*%
%TO.C,mouse-bite-2mm-slot*%
X190300000Y-96900000D03*
X189550000Y-96900000D03*
X188800000Y-98400000D03*
X188800000Y-96900000D03*
X189550000Y-98400000D03*
X190300000Y-98400000D03*
%TD*%
M02*
